%FSLAX23Y23*%
%MOIN*%
G70*
G01*
G75*
%ADD10R,0.059X0.012*%
%ADD11O,0.059X0.012*%
%ADD12C,0.010*%
%ADD13C,0.300*%
%ADD14C,0.130*%
%ADD15C,0.110*%
%ADD16R,0.059X0.059*%
%ADD17C,0.059*%
%ADD18C,0.055*%
%ADD19R,0.053X0.053*%
%ADD20C,0.053*%
%ADD21C,0.047*%
%ADD22R,0.047X0.047*%
%ADD23R,0.059X0.059*%
%ADD24C,0.059*%
%ADD25C,0.065*%
%ADD26C,0.180*%
%ADD27C,0.050*%
%ADD28C,0.008*%
%ADD29C,0.006*%
D12*
X2530Y2895D02*
G03*
X2530Y3271I-76J188D01*
G01*
X2378D02*
G03*
X2378Y2895I76J-188D01*
G01*
X2530Y3655D02*
G03*
X2530Y4031I-76J188D01*
G01*
X2378D02*
G03*
X2378Y3655I76J-188D01*
G01*
X1693Y2135D02*
G03*
X1693Y2511I-76J188D01*
G01*
X1541D02*
G03*
X1541Y2135I76J-188D01*
G01*
X1693Y2895D02*
G03*
X1693Y3271I-76J188D01*
G01*
X1541D02*
G03*
X1541Y2895I76J-188D01*
G01*
X9226D02*
G03*
X9226Y3271I-76J188D01*
G01*
X9074D02*
G03*
X9074Y2895I76J-188D01*
G01*
X8389D02*
G03*
X8389Y3271I-76J188D01*
G01*
X8237D02*
G03*
X8237Y2895I76J-188D01*
G01*
X7552D02*
G03*
X7552Y3271I-76J188D01*
G01*
X7400D02*
G03*
X7400Y2895I76J-188D01*
G01*
X6715D02*
G03*
X6715Y3271I-76J188D01*
G01*
X6563D02*
G03*
X6563Y2895I76J-188D01*
G01*
X5878D02*
G03*
X5878Y3271I-76J188D01*
G01*
X5726D02*
G03*
X5726Y2895I76J-188D01*
G01*
X5041D02*
G03*
X5041Y3271I-76J188D01*
G01*
X4889D02*
G03*
X4889Y2895I76J-188D01*
G01*
X4204D02*
G03*
X4204Y3271I-76J188D01*
G01*
X4052D02*
G03*
X4052Y2895I76J-188D01*
G01*
X3367D02*
G03*
X3367Y3271I-76J188D01*
G01*
X3215D02*
G03*
X3215Y2895I76J-188D01*
G01*
X1541Y4031D02*
G03*
X1541Y3655I76J-188D01*
G01*
X1693D02*
G03*
X1693Y4031I-76J188D01*
G01*
X9226Y2135D02*
G03*
X9226Y2511I-76J188D01*
G01*
X9074D02*
G03*
X9074Y2135I76J-188D01*
G01*
X8389D02*
G03*
X8389Y2511I-76J188D01*
G01*
X8237D02*
G03*
X8237Y2135I76J-188D01*
G01*
X7552D02*
G03*
X7552Y2511I-76J188D01*
G01*
X7400D02*
G03*
X7400Y2135I76J-188D01*
G01*
X6715D02*
G03*
X6715Y2511I-76J188D01*
G01*
X6563D02*
G03*
X6563Y2135I76J-188D01*
G01*
X5878D02*
G03*
X5878Y2511I-76J188D01*
G01*
X5726D02*
G03*
X5726Y2135I76J-188D01*
G01*
X5041D02*
G03*
X5041Y2511I-76J188D01*
G01*
X4889D02*
G03*
X4889Y2135I76J-188D01*
G01*
X4204D02*
G03*
X4204Y2511I-76J188D01*
G01*
X4052D02*
G03*
X4052Y2135I76J-188D01*
G01*
X3367D02*
G03*
X3367Y2511I-76J188D01*
G01*
X3215D02*
G03*
X3215Y2135I76J-188D01*
G01*
X9226Y3655D02*
G03*
X9226Y4031I-76J188D01*
G01*
X9074D02*
G03*
X9074Y3655I76J-188D01*
G01*
X8389D02*
G03*
X8389Y4031I-76J188D01*
G01*
X8237D02*
G03*
X8237Y3655I76J-188D01*
G01*
X7552D02*
G03*
X7552Y4031I-76J188D01*
G01*
X7400D02*
G03*
X7400Y3655I76J-188D01*
G01*
X6715D02*
G03*
X6715Y4031I-76J188D01*
G01*
X6563D02*
G03*
X6563Y3655I76J-188D01*
G01*
X5878D02*
G03*
X5878Y4031I-76J188D01*
G01*
X5726D02*
G03*
X5726Y3655I76J-188D01*
G01*
X5041D02*
G03*
X5041Y4031I-76J188D01*
G01*
X4889D02*
G03*
X4889Y3655I76J-188D01*
G01*
X4204D02*
G03*
X4204Y4031I-76J188D01*
G01*
X4052D02*
G03*
X4052Y3655I76J-188D01*
G01*
X3367D02*
G03*
X3367Y4031I-76J188D01*
G01*
X3215D02*
G03*
X3215Y3655I76J-188D01*
G01*
X2296Y2711D02*
X2276D01*
X2286D01*
Y2761D01*
X2276Y2771D01*
X2266D01*
X2256Y2761D01*
X2316Y2781D02*
X2356D01*
X2376Y2711D02*
Y2771D01*
X2406D01*
X2416Y2761D01*
Y2751D01*
X2406Y2741D01*
X2376D01*
X2406D01*
X2416Y2731D01*
Y2721D01*
X2406Y2711D01*
X2376D01*
X2466D02*
X2446D01*
X2436Y2721D01*
Y2761D01*
X2446Y2771D01*
X2466D01*
X2476Y2761D01*
Y2721D01*
X2466Y2711D01*
X2296Y3471D02*
X2276D01*
X2286D01*
Y3521D01*
X2276Y3531D01*
X2266D01*
X2256Y3521D01*
X2316Y3541D02*
X2356D01*
X2376Y3471D02*
Y3531D01*
X2406D01*
X2416Y3521D01*
Y3511D01*
X2406Y3501D01*
X2376D01*
X2406D01*
X2416Y3491D01*
Y3481D01*
X2406Y3471D01*
X2376D01*
X2436D02*
X2456D01*
X2446D01*
Y3531D01*
X2436D01*
X2456D01*
X1459Y1951D02*
X1439D01*
X1449D01*
Y2001D01*
X1439Y2011D01*
X1429D01*
X1419Y2001D01*
X1479Y2021D02*
X1519D01*
X1539Y1951D02*
Y1961D01*
X1559Y1981D01*
X1579Y1961D01*
Y1951D01*
X1559Y1981D02*
Y2011D01*
X1629Y1951D02*
X1609D01*
X1599Y1961D01*
Y2001D01*
X1609Y2011D01*
X1629D01*
X1639Y2001D01*
Y1961D01*
X1629Y1951D01*
X1459Y2711D02*
X1439D01*
X1449D01*
Y2761D01*
X1439Y2771D01*
X1429D01*
X1419Y2761D01*
X1479Y2781D02*
X1519D01*
X1539Y2711D02*
Y2771D01*
X1559Y2751D01*
X1579Y2771D01*
Y2711D01*
X1629D02*
X1609D01*
X1599Y2721D01*
Y2761D01*
X1609Y2771D01*
X1629D01*
X1639Y2761D01*
Y2721D01*
X1629Y2711D01*
X8992D02*
X8972D01*
X8982D01*
Y2761D01*
X8972Y2771D01*
X8962D01*
X8952Y2761D01*
X9012Y2781D02*
X9052D01*
X9072Y2711D02*
Y2771D01*
X9092Y2751D01*
X9112Y2771D01*
Y2711D01*
X9132Y2721D02*
X9142Y2711D01*
X9162D01*
X9172Y2721D01*
Y2731D01*
X9162Y2741D01*
X9172Y2751D01*
Y2761D01*
X9162Y2771D01*
X9142D01*
X9132Y2761D01*
Y2751D01*
X9142Y2741D01*
X9132Y2731D01*
Y2721D01*
X9142Y2741D02*
X9162D01*
X8155Y2711D02*
X8135D01*
X8145D01*
Y2761D01*
X8135Y2771D01*
X8125D01*
X8115Y2761D01*
X8175Y2781D02*
X8215D01*
X8235Y2711D02*
Y2771D01*
X8255Y2751D01*
X8275Y2771D01*
Y2711D01*
X8295D02*
X8335D01*
Y2721D01*
X8295Y2761D01*
Y2771D01*
X7318Y2711D02*
X7298D01*
X7308D01*
Y2761D01*
X7298Y2771D01*
X7288D01*
X7278Y2761D01*
X7338Y2781D02*
X7378D01*
X7398Y2711D02*
Y2771D01*
X7418Y2751D01*
X7438Y2771D01*
Y2711D01*
X7498D02*
X7478Y2721D01*
X7458Y2741D01*
Y2761D01*
X7468Y2771D01*
X7488D01*
X7498Y2761D01*
Y2751D01*
X7488Y2741D01*
X7458D01*
X6481Y2711D02*
X6461D01*
X6471D01*
Y2761D01*
X6461Y2771D01*
X6451D01*
X6441Y2761D01*
X6501Y2781D02*
X6541D01*
X6561Y2711D02*
Y2771D01*
X6581Y2751D01*
X6601Y2771D01*
Y2711D01*
X6661D02*
X6621D01*
Y2741D01*
X6641Y2731D01*
X6651D01*
X6661Y2741D01*
Y2761D01*
X6651Y2771D01*
X6631D01*
X6621Y2761D01*
X5644Y2711D02*
X5624D01*
X5634D01*
Y2761D01*
X5624Y2771D01*
X5614D01*
X5604Y2761D01*
X5664Y2781D02*
X5704D01*
X5724Y2711D02*
Y2771D01*
X5744Y2751D01*
X5764Y2771D01*
Y2711D01*
X5814Y2771D02*
Y2711D01*
X5784Y2741D01*
X5824D01*
X4807Y2711D02*
X4787D01*
X4797D01*
Y2761D01*
X4787Y2771D01*
X4777D01*
X4767Y2761D01*
X4827Y2781D02*
X4867D01*
X4887Y2711D02*
Y2771D01*
X4907Y2751D01*
X4927Y2771D01*
Y2711D01*
X4947Y2721D02*
X4957Y2711D01*
X4977D01*
X4987Y2721D01*
Y2731D01*
X4977Y2741D01*
X4967D01*
X4977D01*
X4987Y2751D01*
Y2761D01*
X4977Y2771D01*
X4957D01*
X4947Y2761D01*
X3970Y2711D02*
X3950D01*
X3960D01*
Y2761D01*
X3950Y2771D01*
X3940D01*
X3930Y2761D01*
X3990Y2781D02*
X4030D01*
X4050Y2711D02*
Y2771D01*
X4070Y2751D01*
X4090Y2771D01*
Y2711D01*
X4150Y2771D02*
X4110D01*
X4150Y2731D01*
Y2721D01*
X4140Y2711D01*
X4120D01*
X4110Y2721D01*
X3133Y2711D02*
X3113D01*
X3123D01*
Y2761D01*
X3113Y2771D01*
X3103D01*
X3093Y2761D01*
X3153Y2781D02*
X3193D01*
X3213Y2711D02*
Y2771D01*
X3233Y2751D01*
X3253Y2771D01*
Y2711D01*
X3273Y2771D02*
X3293D01*
X3283D01*
Y2711D01*
X3273Y2721D01*
X1459Y3471D02*
X1439D01*
X1449D01*
Y3521D01*
X1439Y3531D01*
X1429D01*
X1419Y3521D01*
X1479Y3541D02*
X1519D01*
X1539Y3531D02*
Y3471D01*
X1569D01*
X1579Y3481D01*
Y3501D01*
X1569Y3511D01*
X1539D01*
X1559D02*
X1579Y3531D01*
X1629Y3471D02*
X1609D01*
X1599Y3481D01*
Y3521D01*
X1609Y3531D01*
X1629D01*
X1639Y3521D01*
Y3481D01*
X1629Y3471D01*
X8992Y1951D02*
X8972D01*
X8982D01*
Y2001D01*
X8972Y2011D01*
X8962D01*
X8952Y2001D01*
X9012Y2021D02*
X9052D01*
X9072Y1951D02*
Y1961D01*
X9092Y1981D01*
X9112Y1961D01*
Y1951D01*
X9092Y1981D02*
Y2011D01*
X9132Y1961D02*
X9142Y1951D01*
X9162D01*
X9172Y1961D01*
Y1971D01*
X9162Y1981D01*
X9172Y1991D01*
Y2001D01*
X9162Y2011D01*
X9142D01*
X9132Y2001D01*
Y1991D01*
X9142Y1981D01*
X9132Y1971D01*
Y1961D01*
X9142Y1981D02*
X9162D01*
X8155Y1951D02*
X8135D01*
X8145D01*
Y2001D01*
X8135Y2011D01*
X8125D01*
X8115Y2001D01*
X8175Y2021D02*
X8215D01*
X8235Y1951D02*
Y1961D01*
X8255Y1981D01*
X8275Y1961D01*
Y1951D01*
X8255Y1981D02*
Y2011D01*
X8295Y1951D02*
X8335D01*
Y1961D01*
X8295Y2001D01*
Y2011D01*
X7318Y1951D02*
X7298D01*
X7308D01*
Y2001D01*
X7298Y2011D01*
X7288D01*
X7278Y2001D01*
X7338Y2021D02*
X7378D01*
X7398Y1951D02*
Y1961D01*
X7418Y1981D01*
X7438Y1961D01*
Y1951D01*
X7418Y1981D02*
Y2011D01*
X7498Y1951D02*
X7478Y1961D01*
X7458Y1981D01*
Y2001D01*
X7468Y2011D01*
X7488D01*
X7498Y2001D01*
Y1991D01*
X7488Y1981D01*
X7458D01*
X6481Y1951D02*
X6461D01*
X6471D01*
Y2001D01*
X6461Y2011D01*
X6451D01*
X6441Y2001D01*
X6501Y2021D02*
X6541D01*
X6561Y1951D02*
Y1961D01*
X6581Y1981D01*
X6601Y1961D01*
Y1951D01*
X6581Y1981D02*
Y2011D01*
X6661Y1951D02*
X6621D01*
Y1981D01*
X6641Y1971D01*
X6651D01*
X6661Y1981D01*
Y2001D01*
X6651Y2011D01*
X6631D01*
X6621Y2001D01*
X5644Y1951D02*
X5624D01*
X5634D01*
Y2001D01*
X5624Y2011D01*
X5614D01*
X5604Y2001D01*
X5664Y2021D02*
X5704D01*
X5724Y1951D02*
Y1961D01*
X5744Y1981D01*
X5764Y1961D01*
Y1951D01*
X5744Y1981D02*
Y2011D01*
X5814D02*
Y1951D01*
X5784Y1981D01*
X5824D01*
X4807Y1951D02*
X4787D01*
X4797D01*
Y2001D01*
X4787Y2011D01*
X4777D01*
X4767Y2001D01*
X4827Y2021D02*
X4867D01*
X4887Y1951D02*
Y1961D01*
X4907Y1981D01*
X4927Y1961D01*
Y1951D01*
X4907Y1981D02*
Y2011D01*
X4947Y1961D02*
X4957Y1951D01*
X4977D01*
X4987Y1961D01*
Y1971D01*
X4977Y1981D01*
X4967D01*
X4977D01*
X4987Y1991D01*
Y2001D01*
X4977Y2011D01*
X4957D01*
X4947Y2001D01*
X3970Y1951D02*
X3950D01*
X3960D01*
Y2001D01*
X3950Y2011D01*
X3940D01*
X3930Y2001D01*
X3990Y2021D02*
X4030D01*
X4050Y1951D02*
Y1961D01*
X4070Y1981D01*
X4090Y1961D01*
Y1951D01*
X4070Y1981D02*
Y2011D01*
X4150D02*
X4110D01*
X4150Y1971D01*
Y1961D01*
X4140Y1951D01*
X4120D01*
X4110Y1961D01*
X3133Y1951D02*
X3113D01*
X3123D01*
Y2001D01*
X3113Y2011D01*
X3103D01*
X3093Y2001D01*
X3153Y2021D02*
X3193D01*
X3213Y1951D02*
Y1961D01*
X3233Y1981D01*
X3253Y1961D01*
Y1951D01*
X3233Y1981D02*
Y2011D01*
X3273D02*
X3293D01*
X3283D01*
Y1951D01*
X3273Y1961D01*
X8992Y3471D02*
X8972D01*
X8982D01*
Y3521D01*
X8972Y3531D01*
X8962D01*
X8952Y3521D01*
X9012Y3541D02*
X9052D01*
X9072Y3531D02*
Y3471D01*
X9102D01*
X9112Y3481D01*
Y3501D01*
X9102Y3511D01*
X9072D01*
X9092D02*
X9112Y3531D01*
X9132Y3481D02*
X9142Y3471D01*
X9162D01*
X9172Y3481D01*
Y3491D01*
X9162Y3501D01*
X9172Y3511D01*
Y3521D01*
X9162Y3531D01*
X9142D01*
X9132Y3521D01*
Y3511D01*
X9142Y3501D01*
X9132Y3491D01*
Y3481D01*
X9142Y3501D02*
X9162D01*
X8155Y3471D02*
X8135D01*
X8145D01*
Y3521D01*
X8135Y3531D01*
X8125D01*
X8115Y3521D01*
X8175Y3541D02*
X8215D01*
X8235Y3531D02*
Y3471D01*
X8265D01*
X8275Y3481D01*
Y3501D01*
X8265Y3511D01*
X8235D01*
X8255D02*
X8275Y3531D01*
X8295Y3471D02*
X8335D01*
Y3481D01*
X8295Y3521D01*
Y3531D01*
X7318Y3471D02*
X7298D01*
X7308D01*
Y3521D01*
X7298Y3531D01*
X7288D01*
X7278Y3521D01*
X7338Y3541D02*
X7378D01*
X7398Y3531D02*
Y3471D01*
X7428D01*
X7438Y3481D01*
Y3501D01*
X7428Y3511D01*
X7398D01*
X7418D02*
X7438Y3531D01*
X7498Y3471D02*
X7478Y3481D01*
X7458Y3501D01*
Y3521D01*
X7468Y3531D01*
X7488D01*
X7498Y3521D01*
Y3511D01*
X7488Y3501D01*
X7458D01*
X6481Y3471D02*
X6461D01*
X6471D01*
Y3521D01*
X6461Y3531D01*
X6451D01*
X6441Y3521D01*
X6501Y3541D02*
X6541D01*
X6561Y3531D02*
Y3471D01*
X6591D01*
X6601Y3481D01*
Y3501D01*
X6591Y3511D01*
X6561D01*
X6581D02*
X6601Y3531D01*
X6661Y3471D02*
X6621D01*
Y3501D01*
X6641Y3491D01*
X6651D01*
X6661Y3501D01*
Y3521D01*
X6651Y3531D01*
X6631D01*
X6621Y3521D01*
X5644Y3471D02*
X5624D01*
X5634D01*
Y3521D01*
X5624Y3531D01*
X5614D01*
X5604Y3521D01*
X5664Y3541D02*
X5704D01*
X5724Y3531D02*
Y3471D01*
X5754D01*
X5764Y3481D01*
Y3501D01*
X5754Y3511D01*
X5724D01*
X5744D02*
X5764Y3531D01*
X5814D02*
Y3471D01*
X5784Y3501D01*
X5824D01*
X4807Y3471D02*
X4787D01*
X4797D01*
Y3521D01*
X4787Y3531D01*
X4777D01*
X4767Y3521D01*
X4827Y3541D02*
X4867D01*
X4887Y3531D02*
Y3471D01*
X4917D01*
X4927Y3481D01*
Y3501D01*
X4917Y3511D01*
X4887D01*
X4907D02*
X4927Y3531D01*
X4947Y3481D02*
X4957Y3471D01*
X4977D01*
X4987Y3481D01*
Y3491D01*
X4977Y3501D01*
X4967D01*
X4977D01*
X4987Y3511D01*
Y3521D01*
X4977Y3531D01*
X4957D01*
X4947Y3521D01*
X3970Y3471D02*
X3950D01*
X3960D01*
Y3521D01*
X3950Y3531D01*
X3940D01*
X3930Y3521D01*
X3990Y3541D02*
X4030D01*
X4050Y3531D02*
Y3471D01*
X4080D01*
X4090Y3481D01*
Y3501D01*
X4080Y3511D01*
X4050D01*
X4070D02*
X4090Y3531D01*
X4150D02*
X4110D01*
X4150Y3491D01*
Y3481D01*
X4140Y3471D01*
X4120D01*
X4110Y3481D01*
X3133Y3471D02*
X3113D01*
X3123D01*
Y3521D01*
X3113Y3531D01*
X3103D01*
X3093Y3521D01*
X3153Y3541D02*
X3193D01*
X3213Y3531D02*
Y3471D01*
X3243D01*
X3253Y3481D01*
Y3501D01*
X3243Y3511D01*
X3213D01*
X3233D02*
X3253Y3531D01*
X3273D02*
X3293D01*
X3283D01*
Y3471D01*
X3273Y3481D01*
X1573Y4226D02*
X1593D01*
X1583D01*
Y4286D01*
X1573D01*
X1593D01*
X1623D02*
X1643D01*
X1633D01*
Y4226D01*
X1623Y4236D01*
X2410Y4226D02*
X2430D01*
X2420D01*
Y4286D01*
X2410D01*
X2430D01*
X2500D02*
X2460D01*
X2500Y4246D01*
Y4236D01*
X2490Y4226D01*
X2470D01*
X2460Y4236D01*
X3247Y4226D02*
X3267D01*
X3257D01*
Y4286D01*
X3247D01*
X3267D01*
X3297Y4236D02*
X3307Y4226D01*
X3327D01*
X3337Y4236D01*
Y4246D01*
X3327Y4256D01*
X3317D01*
X3327D01*
X3337Y4266D01*
Y4276D01*
X3327Y4286D01*
X3307D01*
X3297Y4276D01*
X4084Y4226D02*
X4104D01*
X4094D01*
Y4286D01*
X4084D01*
X4104D01*
X4164D02*
Y4226D01*
X4134Y4256D01*
X4174D01*
X4921Y4226D02*
X4941D01*
X4931D01*
Y4286D01*
X4921D01*
X4941D01*
X5011Y4226D02*
X4971D01*
Y4256D01*
X4991Y4246D01*
X5001D01*
X5011Y4256D01*
Y4276D01*
X5001Y4286D01*
X4981D01*
X4971Y4276D01*
X5758Y4226D02*
X5778D01*
X5768D01*
Y4286D01*
X5758D01*
X5778D01*
X5848Y4226D02*
X5828Y4236D01*
X5808Y4256D01*
Y4276D01*
X5818Y4286D01*
X5838D01*
X5848Y4276D01*
Y4266D01*
X5838Y4256D01*
X5808D01*
X6595Y4226D02*
X6615D01*
X6605D01*
Y4286D01*
X6595D01*
X6615D01*
X6645Y4226D02*
X6685D01*
Y4236D01*
X6645Y4276D01*
Y4286D01*
X7432Y4226D02*
X7452D01*
X7442D01*
Y4286D01*
X7432D01*
X7452D01*
X7482Y4236D02*
X7492Y4226D01*
X7512D01*
X7522Y4236D01*
Y4246D01*
X7512Y4256D01*
X7522Y4266D01*
Y4276D01*
X7512Y4286D01*
X7492D01*
X7482Y4276D01*
Y4266D01*
X7492Y4256D01*
X7482Y4246D01*
Y4236D01*
X7492Y4256D02*
X7512D01*
X8269Y4226D02*
X8289D01*
X8279D01*
Y4286D01*
X8269D01*
X8289D01*
X8319Y4276D02*
X8329Y4286D01*
X8349D01*
X8359Y4276D01*
Y4236D01*
X8349Y4226D01*
X8329D01*
X8319Y4236D01*
Y4246D01*
X8329Y4256D01*
X8359D01*
X9106Y4226D02*
X9126D01*
X9116D01*
Y4286D01*
X9106D01*
X9126D01*
X9156D02*
X9176D01*
X9166D01*
Y4226D01*
X9156Y4236D01*
X9206D02*
X9216Y4226D01*
X9236D01*
X9246Y4236D01*
Y4276D01*
X9236Y4286D01*
X9216D01*
X9206Y4276D01*
Y4236D01*
D28*
X1567Y4320D02*
X1667D01*
Y4520D01*
X1567D02*
X1667D01*
X1567Y4320D02*
Y4520D01*
X2404Y4320D02*
X2504D01*
Y4520D01*
X2404D02*
X2504D01*
X2404Y4320D02*
Y4520D01*
X3241Y4320D02*
X3341D01*
Y4520D01*
X3241D02*
X3341D01*
X3241Y4320D02*
Y4520D01*
X4078Y4320D02*
X4178D01*
Y4520D01*
X4078D02*
X4178D01*
X4078Y4320D02*
Y4520D01*
X4915Y4320D02*
X5015D01*
Y4520D01*
X4915D02*
X5015D01*
X4915Y4320D02*
Y4520D01*
X5752Y4320D02*
X5852D01*
Y4520D01*
X5752D02*
X5852D01*
X5752Y4320D02*
Y4520D01*
X6589Y4320D02*
X6689D01*
Y4520D01*
X6589D02*
X6689D01*
X6589Y4320D02*
Y4520D01*
X7426Y4320D02*
X7526D01*
Y4520D01*
X7426D02*
X7526D01*
X7426Y4320D02*
Y4520D01*
X8263Y4320D02*
X8363D01*
Y4520D01*
X8263D02*
X8363D01*
X8263Y4320D02*
Y4520D01*
X9100Y4320D02*
X9200D01*
Y4520D01*
X9100D02*
X9200D01*
X9100Y4320D02*
Y4520D01*
M02*
