<?xml version="1.0" encoding="UTF-8" standalone="no"?>
<!-- Created with Inkscape (http://www.inkscape.org/) -->
<svg
   xmlns:dc="http://purl.org/dc/elements/1.1/"
   xmlns:cc="http://web.resource.org/cc/"
   xmlns:rdf="http://www.w3.org/1999/02/22-rdf-syntax-ns#"
   xmlns:svg="http://www.w3.org/2000/svg"
   xmlns="http://www.w3.org/2000/svg"
   xmlns:xlink="http://www.w3.org/1999/xlink"
   xmlns:sodipodi="http://inkscape.sourceforge.net/DTD/sodipodi-0.dtd"
   xmlns:inkscape="http://www.inkscape.org/namespaces/inkscape"
   inkscape:export-ydpi="30.400000"
   inkscape:export-xdpi="30.400000"
   inkscape:export-filename="/home/david/Desktop/zero.png"
   sodipodi:docname="zero.svg"
   sodipodi:docbase="/home/david/Desktop"
   inkscape:version="0.41"
   sodipodi:version="0.32"
   id="svg2"
   height="280.89000pt"
   width="355.28000pt">
  <defs
     id="defs3">
    <linearGradient
       id="linearGradient5107">
      <stop
         id="stop5109"
         offset="0"
         style="stop-color:#ffffff;stop-opacity:1;" />
      <stop
         id="stop5115"
         offset="0.10000000"
         style="stop-color:#d5d5d5;stop-opacity:1.0000000;" />
      <stop
         id="stop5117"
         offset="0.12000000"
         style="stop-color:#ffffff;stop-opacity:1.0000000;" />
      <stop
         id="stop5111"
         offset="1.0000000"
         style="stop-color:#ffffff;stop-opacity:1.0000000;" />
    </linearGradient>
    <linearGradient
       id="linearGradient9677">
      <stop
         style="stop-color:#a9772d;stop-opacity:1;"
         offset="0"
         id="stop9679" />
      <stop
         style="stop-color:#a9982d;stop-opacity:1.0000000;"
         offset="1.0000000"
         id="stop9681" />
    </linearGradient>
    <linearGradient
       id="linearGradient3576">
      <stop
         style="stop-color:#ffffff;stop-opacity:1;"
         offset="0"
         id="stop3578" />
      <stop
         style="stop-color:#c5c5c5;stop-opacity:1.0000000;"
         offset="1.0000000"
         id="stop3580" />
    </linearGradient>
    <linearGradient
       inkscape:collect="always"
       xlink:href="#linearGradient3576"
       id="linearGradient3582"
       gradientTransform="matrix(0.873988,0.000000,0.000000,1.144180,-1.375000,0.625000)"
       x1="528.42059"
       y1="359.59396"
       x2="511.93387"
       y2="316.38098"
       gradientUnits="userSpaceOnUse" />
    <linearGradient
       inkscape:collect="always"
       xlink:href="#linearGradient9677"
       id="linearGradient9683"
       gradientTransform="matrix(1.173715,0.000000,0.000000,0.851996,1.000000,5.000000)"
       x1="167.76486"
       y1="308.69156"
       x2="165.19878"
       y2="283.53018"
       gradientUnits="userSpaceOnUse" />
    <linearGradient
       gradientUnits="userSpaceOnUse"
       y2="272.39334"
       x2="427.45670"
       y1="541.23706"
       x1="227.33174"
       gradientTransform="scale(1.101282,0.908033)"
       id="linearGradient5113"
       xlink:href="#linearGradient5107"
       inkscape:collect="always" />
    <linearGradient
       y2="283.53018"
       x2="165.19878"
       y1="308.69156"
       x1="167.76486"
       gradientTransform="matrix(1.173715,0.000000,0.000000,0.851996,1.000000,5.000000)"
       gradientUnits="userSpaceOnUse"
       id="linearGradient6653"
       xlink:href="#linearGradient9677"
       inkscape:collect="always" />
    <linearGradient
       y2="316.38098"
       x2="511.93387"
       y1="359.59396"
       x1="528.42059"
       gradientTransform="matrix(0.873988,0.000000,0.000000,1.144180,-1.375000,0.625000)"
       gradientUnits="userSpaceOnUse"
       id="linearGradient6655"
       xlink:href="#linearGradient3576"
       inkscape:collect="always" />
    <linearGradient
       y2="272.39334"
       x2="427.45670"
       y1="541.23706"
       x1="227.33174"
       gradientTransform="scale(1.101282,0.908033)"
       gradientUnits="userSpaceOnUse"
       id="linearGradient6657"
       xlink:href="#linearGradient5107"
       inkscape:collect="always" />
  </defs>
  <sodipodi:namedview
     inkscape:window-y="25"
     inkscape:window-x="0"
     inkscape:window-height="697"
     inkscape:window-width="1024"
     inkscape:current-layer="layer1"
     inkscape:document-units="px"
     inkscape:cy="-33.492706"
     inkscape:cx="191.50925"
     inkscape:zoom="2.0000000"
     inkscape:pageshadow="2"
     inkscape:pageopacity="0.0"
     borderopacity="1.0"
     bordercolor="#666666"
     pagecolor="#ffffff"
     id="base" />
  <metadata
     id="metadata4">
    <rdf:RDF
       id="RDF5">
      <cc:Work
         id="Work6"
         rdf:about="">
        <dc:format
           id="format7">image/svg+xml</dc:format>
        <dc:type
           rdf:resource="http://purl.org/dc/dcmitype/StillImage"
           id="type9" />
      </cc:Work>
    </rdf:RDF>
  </metadata>
  <g
     style="display:inline"
     id="layer1"
     inkscape:groupmode="layer"
     inkscape:label="Body">
    <g
       transform="translate(-144.2498,-181.0193)"
       id="g6647">
      <path
         style="fill:url(#linearGradient6655);fill-opacity:1.0000000;fill-rule:evenodd;stroke:#000000;stroke-width:2.0000000;stroke-linecap:round;stroke-linejoin:round;stroke-miterlimit:4.0000000;stroke-opacity:1.0000000;display:inline"
         d="M 485.87500,443.48718 C 464.04167,433.82051 436.20833,425.15385 408.62500,424.98718 L 468.37500,307.98718 L 485.87500,443.48718 z "
         id="path1299"
         sodipodi:nodetypes="cccc" />
      <path
         sodipodi:nodetypes="cssssssssscssscssssscc"
         id="path1358"
         d="M 295.36074,478.45155 C 256.61074,497.26108 217.47836,493.86599 215.71429,465.04076 C 215.26156,457.59728 218.61651,452.97398 223.17503,450.40266 C 227.73354,447.83134 233.49562,447.31201 237.85714,448.07647 C 267.16982,453.21422 288.11941,475.27062 309.10714,487.18361 C 335.67238,502.26250 357.64097,515.78168 389.28572,515.93361 C 406.41898,516.01586 429.53735,504.71233 432.50000,487.71932 C 434.14107,478.30655 423.62612,445.44556 422.50000,427.54075 C 421.46808,410.95527 421.78974,399.10514 435.89285,392.71932 C 446.85457,387.75592 462.76610,392.07009 469.46429,399.32646 C 479.90895,410.64152 477.32143,426.94552 486.25000,443.61219 C 493.45238,442.18361 499.36680,437.21352 502.50000,431.46932 C 509.36680,418.88019 511.32946,395.23841 518.57142,386.11219 C 529.71750,372.06604 543.32649,346.79255 543.21429,323.79076 C 543.08840,297.98302 534.01191,256.10027 516.57143,246.21932 C 466.48810,291.82646 422.75018,276.41054 357.09261,263.06928 C 343.08011,260.22202 307.36916,284.29035 306.24756,304.46802 C 306.10526,307.02799 304.01764,324.32605 302.70057,333.26546 C 299.67573,353.79609 288.94758,354.12836 288.39364,387.34937 C 288.34334,390.36626 290.12186,412.07667 277.25286,429.42741 C 265.59595,445.14394 237.91129,445.62772 230.59112,447.97486 C 242.89317,447.58196 255.07352,452.83839 264.37008,457.69641"
         style="fill:url(#linearGradient6657);fill-opacity:1.0000000;fill-rule:evenodd;stroke:#000000;stroke-width:3.0000000;stroke-linecap:round;stroke-linejoin:round;stroke-miterlimit:4.0000000;stroke-opacity:1.0000000" />
      <path
         sodipodi:nodetypes="cc"
         id="path2887"
         d="M 362.00000,395.59962 C 383.95436,402.57479 408.91392,401.06468 439.00000,391.59962"
         style="fill:none;fill-opacity:1.0000000;fill-rule:evenodd;stroke:#000000;stroke-width:2.0000000;stroke-linecap:round;stroke-linejoin:round;stroke-miterlimit:4.0000000;stroke-opacity:1.0000000" />
      <path
         sodipodi:nodetypes="cc"
         id="path11998"
         d="M 330.57242,357.62977 C 362.98148,360.57605 373.82379,352.91572 393.85848,335.70946"
         style="fill:none;fill-opacity:0.75000000;fill-rule:evenodd;stroke:#000000;stroke-width:2.0000000;stroke-linecap:round;stroke-linejoin:round;stroke-miterlimit:4.0000000;stroke-opacity:1.0000000" />
    </g>
  </g>
  <g
     style="display:inline"
     inkscape:label="Head"
     id="layer2"
     inkscape:groupmode="layer">
    <g
       transform="translate(-144.2498,-181.0193)"
       id="g6635">
      <path
         sodipodi:nodetypes="cscsc"
         id="path4407"
         d="M 313.12458,312.38677 C 346.35860,297.06612 349.14339,281.68350 349.89414,242.73676 C 350.32314,220.83454 403.51640,171.43682 482.12310,199.24969 C 416.00862,203.13878 391.35049,236.37611 365.45049,287.28448 C 361.09323,295.84900 335.51630,308.49769 317.36722,316.98297"
         style="fill:#ffffff;fill-opacity:0.50196081;fill-rule:evenodd;stroke:#000000;stroke-width:2.5000000;stroke-linecap:round;stroke-linejoin:round;stroke-miterlimit:4.0000000;stroke-opacity:1.0000000;display:inline" />
      <path
         sodipodi:nodetypes="cssscssc"
         id="path7441"
         d="M 319.48855,319.81139 C 330.33085,317.92577 338.02785,313.48371 348.12637,314.15454 C 375.92114,316.00092 407.42034,331.26195 435.10050,330.77155 C 467.28871,330.20129 499.91495,311.60509 531.62058,310.97256 C 547.17325,310.66228 564.26534,317.33652 576.87542,327.94312 C 518.42126,323.34693 487.79278,378.10413 445.00000,375.67283 C 401.82210,373.21965 362.59574,324.70055 344.23728,323.34693 C 336.96603,322.81080 329.38804,324.52544 321.96342,325.11469"
         style="fill:#ffffff;fill-opacity:0.50196081;fill-rule:evenodd;stroke:#000000;stroke-width:2.5000000;stroke-linecap:round;stroke-linejoin:round;stroke-miterlimit:4.0000000;stroke-opacity:1.0000000;display:inline" />
      <path
         sodipodi:nodetypes="ccccc"
         id="path8201"
         d="M 286.75386,385.53204 C 287.10742,387.29981 291.52683,393.84054 292.05716,395.78509 C 312.79897,389.48005 328.06069,379.28593 333.24614,354.94967 C 330.12309,352.47479 330.18201,351.41414 327.05895,348.93927 C 317.92549,370.91850 307.73136,380.52336 286.75386,385.53204 z "
         style="fill:#ff8383;fill-opacity:1.0000000;fill-rule:evenodd;stroke:#000000;stroke-width:2.0000000;stroke-linecap:round;stroke-linejoin:round;stroke-miterlimit:4.0000000;stroke-opacity:1.0000000;display:inline" />
      <path
         style="fill:#000000;fill-opacity:1.0000000;fill-rule:evenodd;stroke:#000000;stroke-width:0.25000000pt;stroke-linecap:butt;stroke-linejoin:miter;stroke-opacity:1.0000000"
         d="M 192.50000,451.11218 C 206.75000,413.69551 218.50000,396.52885 247.00000,362.61218 C 251.81250,364.50801 260.25000,365.49760 265.75000,364.90905 C 270.28731,364.42352 288.81250,360.40385 293.37500,360.23718 C 297.73224,360.07801 299.45964,359.45465 302.25000,363.06531 C 304.50000,365.97676 305.43750,366.46635 305.25000,370.11218 C 263.50000,399.19551 236.00000,425.02885 192.50000,451.11218 z "
         id="path5102"
         sodipodi:nodetypes="ccssscc" />
      <path
         style="fill:#ffffff;fill-opacity:1.0000000;fill-rule:evenodd;stroke:#000000;stroke-width:3.0000000;stroke-linecap:round;stroke-linejoin:round;stroke-miterlimit:4.0000000;stroke-opacity:1.0000000"
         d="M 315.36963,316.61758 C 321.78776,326.78230 328.97917,340.20687 325.62267,349.49804 C 320.84744,362.71643 311.00913,379.31437 290.97444,384.14627 C 260.21530,407.12724 229.98174,431.12559 198.69701,453.08919 C 195.56921,455.28507 190.81731,456.19105 189.48685,454.74972 C 187.98888,453.12692 188.09912,447.62809 190.21172,443.89680 C 204.01206,419.52259 215.59934,390.97081 240.48065,366.63282 L 245.46961,368.10769 C 222.33830,394.74450 194.26730,443.30733 197.32569,445.01812 C 200.29564,446.67944 264.52698,395.89687 298.75262,370.71125 C 302.10617,367.73638 299.04957,363.70528 297.18827,363.66163 C 285.28130,363.38237 269.16944,370.64775 255.97265,370.00414 C 224.26018,368.47476 166.99505,319.21030 173.94826,261.46325 C 171.59124,283.38355 215.12726,327.59324 239.70920,325.45641 C 260.10334,323.68361 265.58504,303.08226 276.83230,301.76833 C 290.80519,300.13598 305.56044,301.08226 315.36963,316.61758 z "
         id="path3584"
         sodipodi:nodetypes="cscsssccscsscsss" />
      <path
         sodipodi:type="arc"
         style="fill:#000000;fill-opacity:1.0000000;stroke:#000000;stroke-width:2.0000000;stroke-linecap:round;stroke-linejoin:round;stroke-miterlimit:4.0000000;stroke-dashoffset:0.0000000;stroke-opacity:1.0000000"
         id="path5862"
         sodipodi:cx="256.50000"
         sodipodi:cy="338.73718"
         sodipodi:rx="11.500000"
         sodipodi:ry="12.125000"
         d="M 268.00000 338.73718 A 11.500000 12.125000 0 1 1  245.00000,338.73718 A 11.500000 12.125000 0 1 1  268.00000 338.73718 z"
         transform="matrix(1.749853,-0.603581,7.543955e-2,1.137768,-191.6407,111.2762)" />
      <path
         sodipodi:type="arc"
         style="fill:#000000;fill-opacity:1.0000000;stroke:#000000;stroke-width:2.0000000;stroke-linecap:round;stroke-linejoin:round;stroke-miterlimit:4.0000000;stroke-dashoffset:0.0000000;stroke-opacity:1.0000000"
         id="path5864"
         sodipodi:cx="238.50000"
         sodipodi:cy="344.11218"
         sodipodi:rx="14.000000"
         sodipodi:ry="7.0000000"
         d="M 252.50000 344.11218 A 14.000000 7.0000000 0 1 1  224.50000,344.11218 A 14.000000 7.0000000 0 1 1  252.50000 344.11218 z"
         transform="matrix(0.926621,-0.793088,0.623595,0.677474,-169.7110,278.8866)" />
      <path
         style="fill:url(#linearGradient6653);fill-opacity:1.0000000;fill-rule:evenodd;stroke:#000000;stroke-width:2.0000000;stroke-linecap:round;stroke-linejoin:round;stroke-miterlimit:4.0000000;stroke-opacity:1.0000000;display:inline"
         d="M 158.18106,251.18832 C 161.00217,250.56304 163.63449,256.14388 164.74374,255.99603 C 165.96667,255.83303 166.43155,252.07863 169.64513,252.25258 C 171.25192,252.33955 175.39778,257.10846 175.96035,257.37654 C 176.97323,257.85921 179.15033,252.73188 180.72025,252.95555 C 182.29017,253.17923 185.90916,257.42629 186.41986,257.27057 C 187.07467,257.07090 191.61111,252.03422 193.05416,252.35253 C 198.69197,253.59611 199.08763,263.23975 198.72878,268.28020 C 198.51532,271.27848 197.20383,274.40917 195.20798,275.11580 C 193.21213,275.82242 188.39358,275.93649 187.70605,275.78201 C 186.51851,275.51518 182.90863,284.53051 180.33008,284.31496 C 177.75154,284.09942 176.69100,276.72184 174.68715,276.62577 C 172.38943,276.51561 170.49059,284.35957 168.11523,283.12764 C 165.73987,281.89571 165.13798,274.71288 162.93417,272.79913 C 160.73036,270.88539 159.54963,277.36571 157.76656,275.21009 C 155.98350,273.05446 154.47311,270.13789 153.35999,268.18033 C 150.97710,263.98973 152.96648,252.34410 158.18106,251.18832 z "
         id="path6624"
         sodipodi:nodetypes="cssssssssssssssss" />
      <path
         sodipodi:nodetypes="cc"
         id="path2071"
         d="M 296.50000,319.36218 C 314.91667,319.86218 316.83333,337.11218 309.75000,348.36218"
         style="fill:none;fill-opacity:0.75000000;fill-rule:evenodd;stroke:#000000;stroke-width:1.4000000;stroke-linecap:butt;stroke-linejoin:miter;stroke-miterlimit:4.0000000;stroke-opacity:1.0000000" />
      <path
         sodipodi:nodetypes="cc"
         id="path2073"
         d="M 287.00000,310.36218 C 288.25000,305.69551 286.75000,302.52885 281.00000,300.86218"
         style="fill:none;fill-opacity:0.75000000;fill-rule:evenodd;stroke:#000000;stroke-width:1.4000000;stroke-linecap:round;stroke-linejoin:round;stroke-miterlimit:4.0000000;stroke-opacity:1.0000000" />
    </g>
  </g>
</svg>
