%FSLAX23Y23*%
%MOIN*%
G70*
G01*
G75*
%ADD10R,0.059X0.012*%
%ADD11O,0.059X0.012*%
%ADD12C,0.010*%
%ADD13C,0.250*%
%ADD14C,0.110*%
%ADD15C,0.130*%
%ADD16C,0.055*%
%ADD17R,0.059X0.059*%
%ADD18C,0.059*%
%ADD19R,0.053X0.053*%
%ADD20C,0.053*%
%ADD21C,0.047*%
%ADD22R,0.047X0.047*%
%ADD23R,0.059X0.059*%
%ADD24C,0.059*%
%ADD25C,0.065*%
%ADD26C,0.180*%
%ADD27C,0.050*%
%ADD28C,0.008*%
%ADD29C,0.006*%
D12*
X9226Y3655D02*
G03*
X9226Y4031I-76J188D01*
G01*
X9074D02*
G03*
X9074Y3655I76J-188D01*
G01*
X9226Y2135D02*
G03*
X9226Y2511I-76J188D01*
G01*
X9074D02*
G03*
X9074Y2135I76J-188D01*
G01*
X8389Y3655D02*
G03*
X8389Y4031I-76J188D01*
G01*
X8237D02*
G03*
X8237Y3655I76J-188D01*
G01*
X8389Y2135D02*
G03*
X8389Y2511I-76J188D01*
G01*
X8237D02*
G03*
X8237Y2135I76J-188D01*
G01*
X7552Y3655D02*
G03*
X7552Y4031I-76J188D01*
G01*
X7400D02*
G03*
X7400Y3655I76J-188D01*
G01*
X7552Y2135D02*
G03*
X7552Y2511I-76J188D01*
G01*
X7400D02*
G03*
X7400Y2135I76J-188D01*
G01*
X6715Y3655D02*
G03*
X6715Y4031I-76J188D01*
G01*
X6563D02*
G03*
X6563Y3655I76J-188D01*
G01*
X6715Y2135D02*
G03*
X6715Y2511I-76J188D01*
G01*
X6563D02*
G03*
X6563Y2135I76J-188D01*
G01*
X5878Y3655D02*
G03*
X5878Y4031I-76J188D01*
G01*
X5726D02*
G03*
X5726Y3655I76J-188D01*
G01*
X5878Y2135D02*
G03*
X5878Y2511I-76J188D01*
G01*
X5726D02*
G03*
X5726Y2135I76J-188D01*
G01*
X5041Y3655D02*
G03*
X5041Y4031I-76J188D01*
G01*
X4889D02*
G03*
X4889Y3655I76J-188D01*
G01*
X5041Y2135D02*
G03*
X5041Y2511I-76J188D01*
G01*
X4889D02*
G03*
X4889Y2135I76J-188D01*
G01*
X4204Y3655D02*
G03*
X4204Y4031I-76J188D01*
G01*
X4052D02*
G03*
X4052Y3655I76J-188D01*
G01*
X4204Y2135D02*
G03*
X4204Y2511I-76J188D01*
G01*
X4052D02*
G03*
X4052Y2135I76J-188D01*
G01*
X3367Y3655D02*
G03*
X3367Y4031I-76J188D01*
G01*
X3215D02*
G03*
X3215Y3655I76J-188D01*
G01*
X1693D02*
G03*
X1693Y4031I-76J188D01*
G01*
X1541D02*
G03*
X1541Y3655I76J-188D01*
G01*
X3367Y2135D02*
G03*
X3367Y2511I-76J188D01*
G01*
X3215D02*
G03*
X3215Y2135I76J-188D01*
G01*
X5878Y2895D02*
G03*
X5878Y3271I-76J188D01*
G01*
X5726D02*
G03*
X5726Y2895I76J-188D01*
G01*
X9226D02*
G03*
X9226Y3271I-76J188D01*
G01*
X9074D02*
G03*
X9074Y2895I76J-188D01*
G01*
X5041D02*
G03*
X5041Y3271I-76J188D01*
G01*
X4889D02*
G03*
X4889Y2895I76J-188D01*
G01*
X8389D02*
G03*
X8389Y3271I-76J188D01*
G01*
X8237D02*
G03*
X8237Y2895I76J-188D01*
G01*
X4204D02*
G03*
X4204Y3271I-76J188D01*
G01*
X4052D02*
G03*
X4052Y2895I76J-188D01*
G01*
X7552D02*
G03*
X7552Y3271I-76J188D01*
G01*
X7400D02*
G03*
X7400Y2895I76J-188D01*
G01*
X3367D02*
G03*
X3367Y3271I-76J188D01*
G01*
X3215D02*
G03*
X3215Y2895I76J-188D01*
G01*
X6715D02*
G03*
X6715Y3271I-76J188D01*
G01*
X6563D02*
G03*
X6563Y2895I76J-188D01*
G01*
X1693D02*
G03*
X1693Y3271I-76J188D01*
G01*
X1541D02*
G03*
X1541Y2895I76J-188D01*
G01*
X1693Y2135D02*
G03*
X1693Y2511I-76J188D01*
G01*
X1541D02*
G03*
X1541Y2135I76J-188D01*
G01*
X2530Y2895D02*
G03*
X2530Y3271I-76J188D01*
G01*
X2378D02*
G03*
X2378Y2895I76J-188D01*
G01*
X2530Y3655D02*
G03*
X2530Y4031I-76J188D01*
G01*
X2378D02*
G03*
X2378Y3655I76J-188D01*
G01*
X8080Y1014D02*
X8554D01*
Y1320D01*
X8080Y1014D02*
Y1320D01*
Y1668D02*
X8554D01*
X8080Y1520D02*
Y1668D01*
X8554Y1520D02*
Y1668D01*
X1950Y4500D02*
Y4560D01*
X1980D01*
X1990Y4550D01*
Y4530D01*
X1980Y4520D01*
X1950D01*
X1970D02*
X1990Y4500D01*
X2010D02*
X2030D01*
X2020D01*
Y4560D01*
X2010Y4550D01*
X2060D02*
X2070Y4560D01*
X2090D01*
X2100Y4550D01*
Y4540D01*
X2090Y4530D01*
X2100Y4520D01*
Y4510D01*
X2090Y4500D01*
X2070D01*
X2060Y4510D01*
Y4520D01*
X2070Y4530D01*
X2060Y4540D01*
Y4550D01*
X2070Y4530D02*
X2090D01*
X1573Y4644D02*
X1593D01*
X1583D01*
Y4584D01*
X1573D01*
X1593D01*
X1623D02*
X1643D01*
X1633D01*
Y4644D01*
X1623Y4634D01*
X1950Y4250D02*
Y4310D01*
X1980D01*
X1990Y4300D01*
Y4280D01*
X1980Y4270D01*
X1950D01*
X1970D02*
X1990Y4250D01*
X2010D02*
X2030D01*
X2020D01*
Y4310D01*
X2010Y4300D01*
X2060Y4260D02*
X2070Y4250D01*
X2090D01*
X2100Y4260D01*
Y4300D01*
X2090Y4310D01*
X2070D01*
X2060Y4300D01*
Y4290D01*
X2070Y4280D01*
X2100D01*
X2410Y4644D02*
X2430D01*
X2420D01*
Y4584D01*
X2410D01*
X2430D01*
X2500D02*
X2460D01*
X2500Y4624D01*
Y4634D01*
X2490Y4644D01*
X2470D01*
X2460Y4634D01*
X2750Y4450D02*
Y4510D01*
X2780D01*
X2790Y4500D01*
Y4480D01*
X2780Y4470D01*
X2750D01*
X2770D02*
X2790Y4450D01*
X2850D02*
X2810D01*
X2850Y4490D01*
Y4500D01*
X2840Y4510D01*
X2820D01*
X2810Y4500D01*
X2870D02*
X2880Y4510D01*
X2900D01*
X2910Y4500D01*
Y4460D01*
X2900Y4450D01*
X2880D01*
X2870Y4460D01*
Y4500D01*
X3247Y4644D02*
X3267D01*
X3257D01*
Y4584D01*
X3247D01*
X3267D01*
X3297Y4634D02*
X3307Y4644D01*
X3327D01*
X3337Y4634D01*
Y4624D01*
X3327Y4614D01*
X3317D01*
X3327D01*
X3337Y4604D01*
Y4594D01*
X3327Y4584D01*
X3307D01*
X3297Y4594D01*
X3600Y4450D02*
Y4510D01*
X3630D01*
X3640Y4500D01*
Y4480D01*
X3630Y4470D01*
X3600D01*
X3620D02*
X3640Y4450D01*
X3700D02*
X3660D01*
X3700Y4490D01*
Y4500D01*
X3690Y4510D01*
X3670D01*
X3660Y4500D01*
X3720Y4450D02*
X3740D01*
X3730D01*
Y4510D01*
X3720Y4500D01*
X4084Y4644D02*
X4104D01*
X4094D01*
Y4584D01*
X4084D01*
X4104D01*
X4164D02*
Y4644D01*
X4134Y4614D01*
X4174D01*
X4400Y4450D02*
Y4510D01*
X4430D01*
X4440Y4500D01*
Y4480D01*
X4430Y4470D01*
X4400D01*
X4420D02*
X4440Y4450D01*
X4500D02*
X4460D01*
X4500Y4490D01*
Y4500D01*
X4490Y4510D01*
X4470D01*
X4460Y4500D01*
X4560Y4450D02*
X4520D01*
X4560Y4490D01*
Y4500D01*
X4550Y4510D01*
X4530D01*
X4520Y4500D01*
X4921Y4644D02*
X4941D01*
X4931D01*
Y4584D01*
X4921D01*
X4941D01*
X5011Y4644D02*
X4971D01*
Y4614D01*
X4991Y4624D01*
X5001D01*
X5011Y4614D01*
Y4594D01*
X5001Y4584D01*
X4981D01*
X4971Y4594D01*
X5300Y4450D02*
Y4510D01*
X5330D01*
X5340Y4500D01*
Y4480D01*
X5330Y4470D01*
X5300D01*
X5320D02*
X5340Y4450D01*
X5400D02*
X5360D01*
X5400Y4490D01*
Y4500D01*
X5390Y4510D01*
X5370D01*
X5360Y4500D01*
X5420D02*
X5430Y4510D01*
X5450D01*
X5460Y4500D01*
Y4490D01*
X5450Y4480D01*
X5440D01*
X5450D01*
X5460Y4470D01*
Y4460D01*
X5450Y4450D01*
X5430D01*
X5420Y4460D01*
X5758Y4644D02*
X5778D01*
X5768D01*
Y4584D01*
X5758D01*
X5778D01*
X5848Y4644D02*
X5828Y4634D01*
X5808Y4614D01*
Y4594D01*
X5818Y4584D01*
X5838D01*
X5848Y4594D01*
Y4604D01*
X5838Y4614D01*
X5808D01*
X6100Y4450D02*
Y4510D01*
X6130D01*
X6140Y4500D01*
Y4480D01*
X6130Y4470D01*
X6100D01*
X6120D02*
X6140Y4450D01*
X6200D02*
X6160D01*
X6200Y4490D01*
Y4500D01*
X6190Y4510D01*
X6170D01*
X6160Y4500D01*
X6250Y4450D02*
Y4510D01*
X6220Y4480D01*
X6260D01*
X6595Y4644D02*
X6615D01*
X6605D01*
Y4584D01*
X6595D01*
X6615D01*
X6645Y4644D02*
X6685D01*
Y4634D01*
X6645Y4594D01*
Y4584D01*
X6950Y4450D02*
Y4510D01*
X6980D01*
X6990Y4500D01*
Y4480D01*
X6980Y4470D01*
X6950D01*
X6970D02*
X6990Y4450D01*
X7050D02*
X7010D01*
X7050Y4490D01*
Y4500D01*
X7040Y4510D01*
X7020D01*
X7010Y4500D01*
X7110Y4510D02*
X7070D01*
Y4480D01*
X7090Y4490D01*
X7100D01*
X7110Y4480D01*
Y4460D01*
X7100Y4450D01*
X7080D01*
X7070Y4460D01*
X7432Y4644D02*
X7452D01*
X7442D01*
Y4584D01*
X7432D01*
X7452D01*
X7482Y4634D02*
X7492Y4644D01*
X7512D01*
X7522Y4634D01*
Y4624D01*
X7512Y4614D01*
X7522Y4604D01*
Y4594D01*
X7512Y4584D01*
X7492D01*
X7482Y4594D01*
Y4604D01*
X7492Y4614D01*
X7482Y4624D01*
Y4634D01*
X7492Y4614D02*
X7512D01*
X7800Y4450D02*
Y4510D01*
X7830D01*
X7840Y4500D01*
Y4480D01*
X7830Y4470D01*
X7800D01*
X7820D02*
X7840Y4450D01*
X7900D02*
X7860D01*
X7900Y4490D01*
Y4500D01*
X7890Y4510D01*
X7870D01*
X7860Y4500D01*
X7960Y4510D02*
X7940Y4500D01*
X7920Y4480D01*
Y4460D01*
X7930Y4450D01*
X7950D01*
X7960Y4460D01*
Y4470D01*
X7950Y4480D01*
X7920D01*
X8269Y4644D02*
X8289D01*
X8279D01*
Y4584D01*
X8269D01*
X8289D01*
X8319Y4594D02*
X8329Y4584D01*
X8349D01*
X8359Y4594D01*
Y4634D01*
X8349Y4644D01*
X8329D01*
X8319Y4634D01*
Y4624D01*
X8329Y4614D01*
X8359D01*
X8650Y4450D02*
Y4510D01*
X8680D01*
X8690Y4500D01*
Y4480D01*
X8680Y4470D01*
X8650D01*
X8670D02*
X8690Y4450D01*
X8750D02*
X8710D01*
X8750Y4490D01*
Y4500D01*
X8740Y4510D01*
X8720D01*
X8710Y4500D01*
X8770Y4510D02*
X8810D01*
Y4500D01*
X8770Y4460D01*
Y4450D01*
X9106Y4644D02*
X9126D01*
X9116D01*
Y4584D01*
X9106D01*
X9126D01*
X9156D02*
X9176D01*
X9166D01*
Y4644D01*
X9156Y4634D01*
X9206D02*
X9216Y4644D01*
X9236D01*
X9246Y4634D01*
Y4594D01*
X9236Y4584D01*
X9216D01*
X9206Y4594D01*
Y4634D01*
X5790Y1750D02*
X5780Y1760D01*
X5760D01*
X5750Y1750D01*
Y1710D01*
X5760Y1700D01*
X5780D01*
X5790Y1710D01*
X5810Y1700D02*
X5830D01*
X5820D01*
Y1760D01*
X5810Y1750D01*
X6100Y1860D02*
Y1850D01*
X6120Y1830D01*
X6140Y1850D01*
Y1860D01*
X6120Y1830D02*
Y1800D01*
X6160D02*
X6180D01*
X6170D01*
Y1860D01*
X6160Y1850D01*
X5790Y1550D02*
X5780Y1560D01*
X5760D01*
X5750Y1550D01*
Y1510D01*
X5760Y1500D01*
X5780D01*
X5790Y1510D01*
X5850Y1500D02*
X5810D01*
X5850Y1540D01*
Y1550D01*
X5840Y1560D01*
X5820D01*
X5810Y1550D01*
X7100Y1750D02*
Y1810D01*
X7130D01*
X7140Y1800D01*
Y1780D01*
X7130Y1770D01*
X7100D01*
X7120D02*
X7140Y1750D01*
X7160D02*
X7180D01*
X7170D01*
Y1810D01*
X7160Y1800D01*
X7360Y1750D02*
X7350Y1760D01*
X7330D01*
X7320Y1750D01*
Y1710D01*
X7330Y1700D01*
X7350D01*
X7360Y1710D01*
X7380Y1750D02*
X7390Y1760D01*
X7410D01*
X7420Y1750D01*
Y1740D01*
X7410Y1730D01*
X7400D01*
X7410D01*
X7420Y1720D01*
Y1710D01*
X7410Y1700D01*
X7390D01*
X7380Y1710D01*
X7790Y1700D02*
X7780Y1710D01*
X7760D01*
X7750Y1700D01*
Y1660D01*
X7760Y1650D01*
X7780D01*
X7790Y1660D01*
X7840Y1650D02*
Y1710D01*
X7810Y1680D01*
X7850D01*
X4490Y3800D02*
X4480Y3810D01*
X4460D01*
X4450Y3800D01*
Y3760D01*
X4460Y3750D01*
X4480D01*
X4490Y3760D01*
X4510Y3810D02*
X4550D01*
Y3800D01*
X4510Y3760D01*
Y3750D01*
X5340Y3270D02*
X5330Y3280D01*
X5310D01*
X5300Y3270D01*
Y3230D01*
X5310Y3220D01*
X5330D01*
X5340Y3230D01*
X5400Y3280D02*
X5380Y3270D01*
X5360Y3250D01*
Y3230D01*
X5370Y3220D01*
X5390D01*
X5400Y3230D01*
Y3240D01*
X5390Y3250D01*
X5360D01*
X4490Y2200D02*
X4480Y2210D01*
X4460D01*
X4450Y2200D01*
Y2160D01*
X4460Y2150D01*
X4480D01*
X4490Y2160D01*
X4550Y2210D02*
X4510D01*
Y2180D01*
X4530Y2190D01*
X4540D01*
X4550Y2180D01*
Y2160D01*
X4540Y2150D01*
X4520D01*
X4510Y2160D01*
X3510Y1320D02*
X3560D01*
X3570Y1330D01*
Y1350D01*
X3560Y1360D01*
X3510D01*
X3570Y1380D02*
Y1400D01*
Y1390D01*
X3510D01*
X3520Y1380D01*
X8738Y1623D02*
Y1643D01*
Y1633D01*
X8688D01*
X8678Y1643D01*
Y1653D01*
X8688Y1663D01*
X8678Y1603D02*
Y1583D01*
Y1593D01*
X8738D01*
X8728Y1603D01*
X3133Y4215D02*
X3113D01*
X3123D01*
Y4165D01*
X3113Y4155D01*
X3103D01*
X3093Y4165D01*
X3153Y4145D02*
X3193D01*
X3213Y4155D02*
Y4215D01*
X3243D01*
X3253Y4205D01*
Y4185D01*
X3243Y4175D01*
X3213D01*
X3233D02*
X3253Y4155D01*
X3273D02*
X3293D01*
X3283D01*
Y4215D01*
X3273Y4205D01*
X3970Y4215D02*
X3950D01*
X3960D01*
Y4165D01*
X3950Y4155D01*
X3940D01*
X3930Y4165D01*
X3990Y4145D02*
X4030D01*
X4050Y4155D02*
Y4215D01*
X4080D01*
X4090Y4205D01*
Y4185D01*
X4080Y4175D01*
X4050D01*
X4070D02*
X4090Y4155D01*
X4150D02*
X4110D01*
X4150Y4195D01*
Y4205D01*
X4140Y4215D01*
X4120D01*
X4110Y4205D01*
X4807Y4215D02*
X4787D01*
X4797D01*
Y4165D01*
X4787Y4155D01*
X4777D01*
X4767Y4165D01*
X4827Y4145D02*
X4867D01*
X4887Y4155D02*
Y4215D01*
X4917D01*
X4927Y4205D01*
Y4185D01*
X4917Y4175D01*
X4887D01*
X4907D02*
X4927Y4155D01*
X4947Y4205D02*
X4957Y4215D01*
X4977D01*
X4987Y4205D01*
Y4195D01*
X4977Y4185D01*
X4967D01*
X4977D01*
X4987Y4175D01*
Y4165D01*
X4977Y4155D01*
X4957D01*
X4947Y4165D01*
X5644Y4215D02*
X5624D01*
X5634D01*
Y4165D01*
X5624Y4155D01*
X5614D01*
X5604Y4165D01*
X5664Y4145D02*
X5704D01*
X5724Y4155D02*
Y4215D01*
X5754D01*
X5764Y4205D01*
Y4185D01*
X5754Y4175D01*
X5724D01*
X5744D02*
X5764Y4155D01*
X5814D02*
Y4215D01*
X5784Y4185D01*
X5824D01*
X6481Y4215D02*
X6461D01*
X6471D01*
Y4165D01*
X6461Y4155D01*
X6451D01*
X6441Y4165D01*
X6501Y4145D02*
X6541D01*
X6561Y4155D02*
Y4215D01*
X6591D01*
X6601Y4205D01*
Y4185D01*
X6591Y4175D01*
X6561D01*
X6581D02*
X6601Y4155D01*
X6661Y4215D02*
X6621D01*
Y4185D01*
X6641Y4195D01*
X6651D01*
X6661Y4185D01*
Y4165D01*
X6651Y4155D01*
X6631D01*
X6621Y4165D01*
X7318Y4215D02*
X7298D01*
X7308D01*
Y4165D01*
X7298Y4155D01*
X7288D01*
X7278Y4165D01*
X7338Y4145D02*
X7378D01*
X7398Y4155D02*
Y4215D01*
X7428D01*
X7438Y4205D01*
Y4185D01*
X7428Y4175D01*
X7398D01*
X7418D02*
X7438Y4155D01*
X7498Y4215D02*
X7478Y4205D01*
X7458Y4185D01*
Y4165D01*
X7468Y4155D01*
X7488D01*
X7498Y4165D01*
Y4175D01*
X7488Y4185D01*
X7458D01*
X8155Y4215D02*
X8135D01*
X8145D01*
Y4165D01*
X8135Y4155D01*
X8125D01*
X8115Y4165D01*
X8175Y4145D02*
X8215D01*
X8235Y4155D02*
Y4215D01*
X8265D01*
X8275Y4205D01*
Y4185D01*
X8265Y4175D01*
X8235D01*
X8255D02*
X8275Y4155D01*
X8295Y4215D02*
X8335D01*
Y4205D01*
X8295Y4165D01*
Y4155D01*
X8992Y4215D02*
X8972D01*
X8982D01*
Y4165D01*
X8972Y4155D01*
X8962D01*
X8952Y4165D01*
X9012Y4145D02*
X9052D01*
X9072Y4155D02*
Y4215D01*
X9102D01*
X9112Y4205D01*
Y4185D01*
X9102Y4175D01*
X9072D01*
X9092D02*
X9112Y4155D01*
X9132Y4205D02*
X9142Y4215D01*
X9162D01*
X9172Y4205D01*
Y4195D01*
X9162Y4185D01*
X9172Y4175D01*
Y4165D01*
X9162Y4155D01*
X9142D01*
X9132Y4165D01*
Y4175D01*
X9142Y4185D01*
X9132Y4195D01*
Y4205D01*
X9142Y4185D02*
X9162D01*
X3133Y2695D02*
X3113D01*
X3123D01*
Y2645D01*
X3113Y2635D01*
X3103D01*
X3093Y2645D01*
X3153Y2625D02*
X3193D01*
X3213Y2695D02*
Y2685D01*
X3233Y2665D01*
X3253Y2685D01*
Y2695D01*
X3233Y2665D02*
Y2635D01*
X3273D02*
X3293D01*
X3283D01*
Y2695D01*
X3273Y2685D01*
X3970Y2695D02*
X3950D01*
X3960D01*
Y2645D01*
X3950Y2635D01*
X3940D01*
X3930Y2645D01*
X3990Y2625D02*
X4030D01*
X4050Y2695D02*
Y2685D01*
X4070Y2665D01*
X4090Y2685D01*
Y2695D01*
X4070Y2665D02*
Y2635D01*
X4150D02*
X4110D01*
X4150Y2675D01*
Y2685D01*
X4140Y2695D01*
X4120D01*
X4110Y2685D01*
X4807Y2695D02*
X4787D01*
X4797D01*
Y2645D01*
X4787Y2635D01*
X4777D01*
X4767Y2645D01*
X4827Y2625D02*
X4867D01*
X4887Y2695D02*
Y2685D01*
X4907Y2665D01*
X4927Y2685D01*
Y2695D01*
X4907Y2665D02*
Y2635D01*
X4947Y2685D02*
X4957Y2695D01*
X4977D01*
X4987Y2685D01*
Y2675D01*
X4977Y2665D01*
X4967D01*
X4977D01*
X4987Y2655D01*
Y2645D01*
X4977Y2635D01*
X4957D01*
X4947Y2645D01*
X5644Y2695D02*
X5624D01*
X5634D01*
Y2645D01*
X5624Y2635D01*
X5614D01*
X5604Y2645D01*
X5664Y2625D02*
X5704D01*
X5724Y2695D02*
Y2685D01*
X5744Y2665D01*
X5764Y2685D01*
Y2695D01*
X5744Y2665D02*
Y2635D01*
X5814D02*
Y2695D01*
X5784Y2665D01*
X5824D01*
X6481Y2695D02*
X6461D01*
X6471D01*
Y2645D01*
X6461Y2635D01*
X6451D01*
X6441Y2645D01*
X6501Y2625D02*
X6541D01*
X6561Y2695D02*
Y2685D01*
X6581Y2665D01*
X6601Y2685D01*
Y2695D01*
X6581Y2665D02*
Y2635D01*
X6661Y2695D02*
X6621D01*
Y2665D01*
X6641Y2675D01*
X6651D01*
X6661Y2665D01*
Y2645D01*
X6651Y2635D01*
X6631D01*
X6621Y2645D01*
X7318Y2695D02*
X7298D01*
X7308D01*
Y2645D01*
X7298Y2635D01*
X7288D01*
X7278Y2645D01*
X7338Y2625D02*
X7378D01*
X7398Y2695D02*
Y2685D01*
X7418Y2665D01*
X7438Y2685D01*
Y2695D01*
X7418Y2665D02*
Y2635D01*
X7498Y2695D02*
X7478Y2685D01*
X7458Y2665D01*
Y2645D01*
X7468Y2635D01*
X7488D01*
X7498Y2645D01*
Y2655D01*
X7488Y2665D01*
X7458D01*
X8155Y2695D02*
X8135D01*
X8145D01*
Y2645D01*
X8135Y2635D01*
X8125D01*
X8115Y2645D01*
X8175Y2625D02*
X8215D01*
X8235Y2695D02*
Y2685D01*
X8255Y2665D01*
X8275Y2685D01*
Y2695D01*
X8255Y2665D02*
Y2635D01*
X8295Y2695D02*
X8335D01*
Y2685D01*
X8295Y2645D01*
Y2635D01*
X8992Y2695D02*
X8972D01*
X8982D01*
Y2645D01*
X8972Y2635D01*
X8962D01*
X8952Y2645D01*
X9012Y2625D02*
X9052D01*
X9072Y2695D02*
Y2685D01*
X9092Y2665D01*
X9112Y2685D01*
Y2695D01*
X9092Y2665D02*
Y2635D01*
X9132Y2685D02*
X9142Y2695D01*
X9162D01*
X9172Y2685D01*
Y2675D01*
X9162Y2665D01*
X9172Y2655D01*
Y2645D01*
X9162Y2635D01*
X9142D01*
X9132Y2645D01*
Y2655D01*
X9142Y2665D01*
X9132Y2675D01*
Y2685D01*
X9142Y2665D02*
X9162D01*
X1459Y4215D02*
X1439D01*
X1449D01*
Y4165D01*
X1439Y4155D01*
X1429D01*
X1419Y4165D01*
X1479Y4145D02*
X1519D01*
X1539Y4155D02*
Y4215D01*
X1569D01*
X1579Y4205D01*
Y4185D01*
X1569Y4175D01*
X1539D01*
X1559D02*
X1579Y4155D01*
X1629Y4215D02*
X1609D01*
X1599Y4205D01*
Y4165D01*
X1609Y4155D01*
X1629D01*
X1639Y4165D01*
Y4205D01*
X1629Y4215D01*
X4400Y3100D02*
Y3050D01*
X4410Y3040D01*
X4430D01*
X4440Y3050D01*
Y3100D01*
X4500Y3040D02*
X4460D01*
X4500Y3080D01*
Y3090D01*
X4490Y3100D01*
X4470D01*
X4460Y3090D01*
X5290Y2570D02*
Y2520D01*
X5300Y2510D01*
X5320D01*
X5330Y2520D01*
Y2570D01*
X5350Y2560D02*
X5360Y2570D01*
X5380D01*
X5390Y2560D01*
Y2550D01*
X5380Y2540D01*
X5370D01*
X5380D01*
X5390Y2530D01*
Y2520D01*
X5380Y2510D01*
X5360D01*
X5350Y2520D01*
X3133Y3455D02*
X3113D01*
X3123D01*
Y3405D01*
X3113Y3395D01*
X3103D01*
X3093Y3405D01*
X3153Y3385D02*
X3193D01*
X3213Y3455D02*
Y3395D01*
X3233Y3415D01*
X3253Y3395D01*
Y3455D01*
X3273Y3395D02*
X3293D01*
X3283D01*
Y3455D01*
X3273Y3445D01*
X3970Y3455D02*
X3950D01*
X3960D01*
Y3405D01*
X3950Y3395D01*
X3940D01*
X3930Y3405D01*
X3990Y3385D02*
X4030D01*
X4050Y3455D02*
Y3395D01*
X4070Y3415D01*
X4090Y3395D01*
Y3455D01*
X4150Y3395D02*
X4110D01*
X4150Y3435D01*
Y3445D01*
X4140Y3455D01*
X4120D01*
X4110Y3445D01*
X4807Y3455D02*
X4787D01*
X4797D01*
Y3405D01*
X4787Y3395D01*
X4777D01*
X4767Y3405D01*
X4827Y3385D02*
X4867D01*
X4887Y3455D02*
Y3395D01*
X4907Y3415D01*
X4927Y3395D01*
Y3455D01*
X4947Y3445D02*
X4957Y3455D01*
X4977D01*
X4987Y3445D01*
Y3435D01*
X4977Y3425D01*
X4967D01*
X4977D01*
X4987Y3415D01*
Y3405D01*
X4977Y3395D01*
X4957D01*
X4947Y3405D01*
X5644Y3455D02*
X5624D01*
X5634D01*
Y3405D01*
X5624Y3395D01*
X5614D01*
X5604Y3405D01*
X5664Y3385D02*
X5704D01*
X5724Y3455D02*
Y3395D01*
X5744Y3415D01*
X5764Y3395D01*
Y3455D01*
X5814Y3395D02*
Y3455D01*
X5784Y3425D01*
X5824D01*
X6481Y3455D02*
X6461D01*
X6471D01*
Y3405D01*
X6461Y3395D01*
X6451D01*
X6441Y3405D01*
X6501Y3385D02*
X6541D01*
X6561Y3455D02*
Y3395D01*
X6581Y3415D01*
X6601Y3395D01*
Y3455D01*
X6661D02*
X6621D01*
Y3425D01*
X6641Y3435D01*
X6651D01*
X6661Y3425D01*
Y3405D01*
X6651Y3395D01*
X6631D01*
X6621Y3405D01*
X7318Y3455D02*
X7298D01*
X7308D01*
Y3405D01*
X7298Y3395D01*
X7288D01*
X7278Y3405D01*
X7338Y3385D02*
X7378D01*
X7398Y3455D02*
Y3395D01*
X7418Y3415D01*
X7438Y3395D01*
Y3455D01*
X7498D02*
X7478Y3445D01*
X7458Y3425D01*
Y3405D01*
X7468Y3395D01*
X7488D01*
X7498Y3405D01*
Y3415D01*
X7488Y3425D01*
X7458D01*
X8155Y3455D02*
X8135D01*
X8145D01*
Y3405D01*
X8135Y3395D01*
X8125D01*
X8115Y3405D01*
X8175Y3385D02*
X8215D01*
X8235Y3455D02*
Y3395D01*
X8255Y3415D01*
X8275Y3395D01*
Y3455D01*
X8295D02*
X8335D01*
Y3445D01*
X8295Y3405D01*
Y3395D01*
X8992Y3455D02*
X8972D01*
X8982D01*
Y3405D01*
X8972Y3395D01*
X8962D01*
X8952Y3405D01*
X9012Y3385D02*
X9052D01*
X9072Y3455D02*
Y3395D01*
X9092Y3415D01*
X9112Y3395D01*
Y3455D01*
X9132Y3445D02*
X9142Y3455D01*
X9162D01*
X9172Y3445D01*
Y3435D01*
X9162Y3425D01*
X9172Y3415D01*
Y3405D01*
X9162Y3395D01*
X9142D01*
X9132Y3405D01*
Y3415D01*
X9142Y3425D01*
X9132Y3435D01*
Y3445D01*
X9142Y3425D02*
X9162D01*
X1459Y3455D02*
X1439D01*
X1449D01*
Y3405D01*
X1439Y3395D01*
X1429D01*
X1419Y3405D01*
X1479Y3385D02*
X1519D01*
X1539Y3455D02*
Y3395D01*
X1559Y3415D01*
X1579Y3395D01*
Y3455D01*
X1629D02*
X1609D01*
X1599Y3445D01*
Y3405D01*
X1609Y3395D01*
X1629D01*
X1639Y3405D01*
Y3445D01*
X1629Y3455D01*
X1459Y2695D02*
X1439D01*
X1449D01*
Y2645D01*
X1439Y2635D01*
X1429D01*
X1419Y2645D01*
X1479Y2625D02*
X1519D01*
X1539Y2695D02*
Y2685D01*
X1559Y2665D01*
X1579Y2685D01*
Y2695D01*
X1559Y2665D02*
Y2635D01*
X1629Y2695D02*
X1609D01*
X1599Y2685D01*
Y2645D01*
X1609Y2635D01*
X1629D01*
X1639Y2645D01*
Y2685D01*
X1629Y2695D01*
X2296Y4215D02*
X2276D01*
X2286D01*
Y4165D01*
X2276Y4155D01*
X2266D01*
X2256Y4165D01*
X2316Y4145D02*
X2356D01*
X2376Y4215D02*
Y4155D01*
X2406D01*
X2416Y4165D01*
Y4175D01*
X2406Y4185D01*
X2376D01*
X2406D01*
X2416Y4195D01*
Y4205D01*
X2406Y4215D01*
X2376D01*
X2436D02*
X2456D01*
X2446D01*
Y4155D01*
X2436D01*
X2456D01*
X2296Y3455D02*
X2276D01*
X2286D01*
Y3405D01*
X2276Y3395D01*
X2266D01*
X2256Y3405D01*
X2316Y3385D02*
X2356D01*
X2376Y3455D02*
Y3395D01*
X2406D01*
X2416Y3405D01*
Y3415D01*
X2406Y3425D01*
X2376D01*
X2406D01*
X2416Y3435D01*
Y3445D01*
X2406Y3455D01*
X2376D01*
X2466D02*
X2446D01*
X2436Y3445D01*
Y3405D01*
X2446Y3395D01*
X2466D01*
X2476Y3405D01*
Y3445D01*
X2466Y3455D01*
X2640Y1800D02*
X2580D01*
Y1830D01*
X2590Y1840D01*
X2610D01*
X2620Y1830D01*
Y1800D01*
Y1820D02*
X2640Y1840D01*
Y1900D02*
Y1860D01*
X2600Y1900D01*
X2590D01*
X2580Y1890D01*
Y1870D01*
X2590Y1860D01*
X2740Y1800D02*
X2680D01*
Y1830D01*
X2690Y1840D01*
X2710D01*
X2720Y1830D01*
Y1800D01*
Y1820D02*
X2740Y1840D01*
X2690Y1860D02*
X2680Y1870D01*
Y1890D01*
X2690Y1900D01*
X2700D01*
X2710Y1890D01*
Y1880D01*
Y1890D01*
X2720Y1900D01*
X2730D01*
X2740Y1890D01*
Y1870D01*
X2730Y1860D01*
X2840Y1800D02*
X2780D01*
Y1830D01*
X2790Y1840D01*
X2810D01*
X2820Y1830D01*
Y1800D01*
Y1820D02*
X2840Y1840D01*
Y1890D02*
X2780D01*
X2810Y1860D01*
Y1900D01*
X2940Y1800D02*
X2880D01*
Y1830D01*
X2890Y1840D01*
X2910D01*
X2920Y1830D01*
Y1800D01*
Y1820D02*
X2940Y1840D01*
X2880Y1900D02*
Y1860D01*
X2910D01*
X2900Y1880D01*
Y1890D01*
X2910Y1900D01*
X2930D01*
X2940Y1890D01*
Y1870D01*
X2930Y1860D01*
X3040Y1800D02*
X2980D01*
Y1830D01*
X2990Y1840D01*
X3010D01*
X3020Y1830D01*
Y1800D01*
Y1820D02*
X3040Y1840D01*
X2980Y1900D02*
X2990Y1880D01*
X3010Y1860D01*
X3030D01*
X3040Y1870D01*
Y1890D01*
X3030Y1900D01*
X3020D01*
X3010Y1890D01*
Y1860D01*
X3140Y1800D02*
X3080D01*
Y1830D01*
X3090Y1840D01*
X3110D01*
X3120Y1830D01*
Y1800D01*
Y1820D02*
X3140Y1840D01*
X3080Y1860D02*
Y1900D01*
X3090D01*
X3130Y1860D01*
X3140D01*
X3240Y1800D02*
X3180D01*
Y1830D01*
X3190Y1840D01*
X3210D01*
X3220Y1830D01*
Y1800D01*
Y1820D02*
X3240Y1840D01*
X3190Y1860D02*
X3180Y1870D01*
Y1890D01*
X3190Y1900D01*
X3200D01*
X3210Y1890D01*
X3220Y1900D01*
X3230D01*
X3240Y1890D01*
Y1870D01*
X3230Y1860D01*
X3220D01*
X3210Y1870D01*
X3200Y1860D01*
X3190D01*
X3210Y1870D02*
Y1890D01*
X3340Y1800D02*
X3280D01*
Y1830D01*
X3290Y1840D01*
X3310D01*
X3320Y1830D01*
Y1800D01*
Y1820D02*
X3340Y1840D01*
X3330Y1860D02*
X3340Y1870D01*
Y1890D01*
X3330Y1900D01*
X3290D01*
X3280Y1890D01*
Y1870D01*
X3290Y1860D01*
X3300D01*
X3310Y1870D01*
Y1900D01*
X2540Y1800D02*
X2480D01*
Y1830D01*
X2490Y1840D01*
X2510D01*
X2520Y1830D01*
Y1800D01*
Y1820D02*
X2540Y1840D01*
Y1860D02*
Y1880D01*
Y1870D01*
X2480D01*
X2490Y1860D01*
Y1910D02*
X2480Y1920D01*
Y1940D01*
X2490Y1950D01*
X2530D01*
X2540Y1940D01*
Y1920D01*
X2530Y1910D01*
X2490D01*
X2440Y1800D02*
X2380D01*
Y1830D01*
X2390Y1840D01*
X2410D01*
X2420Y1830D01*
Y1800D01*
Y1820D02*
X2440Y1840D01*
Y1860D02*
Y1880D01*
Y1870D01*
X2380D01*
X2390Y1860D01*
X2440Y1910D02*
Y1930D01*
Y1920D01*
X2380D01*
X2390Y1910D01*
X2340Y1800D02*
X2280D01*
Y1830D01*
X2290Y1840D01*
X2310D01*
X2320Y1830D01*
Y1800D01*
Y1820D02*
X2340Y1840D01*
Y1860D02*
Y1880D01*
Y1870D01*
X2280D01*
X2290Y1860D01*
X2340Y1950D02*
Y1910D01*
X2300Y1950D01*
X2290D01*
X2280Y1940D01*
Y1920D01*
X2290Y1910D01*
X2240Y1800D02*
X2180D01*
Y1830D01*
X2190Y1840D01*
X2210D01*
X2220Y1830D01*
Y1800D01*
Y1820D02*
X2240Y1840D01*
Y1860D02*
Y1880D01*
Y1870D01*
X2180D01*
X2190Y1860D01*
Y1910D02*
X2180Y1920D01*
Y1940D01*
X2190Y1950D01*
X2200D01*
X2210Y1940D01*
Y1930D01*
Y1940D01*
X2220Y1950D01*
X2230D01*
X2240Y1940D01*
Y1920D01*
X2230Y1910D01*
X2140Y1800D02*
X2080D01*
Y1830D01*
X2090Y1840D01*
X2110D01*
X2120Y1830D01*
Y1800D01*
Y1820D02*
X2140Y1840D01*
Y1860D02*
Y1880D01*
Y1870D01*
X2080D01*
X2090Y1860D01*
X2140Y1940D02*
X2080D01*
X2110Y1910D01*
Y1950D01*
X2040Y1800D02*
X1980D01*
Y1830D01*
X1990Y1840D01*
X2010D01*
X2020Y1830D01*
Y1800D01*
Y1820D02*
X2040Y1840D01*
Y1860D02*
Y1880D01*
Y1870D01*
X1980D01*
X1990Y1860D01*
X1980Y1950D02*
Y1910D01*
X2010D01*
X2000Y1930D01*
Y1940D01*
X2010Y1950D01*
X2030D01*
X2040Y1940D01*
Y1920D01*
X2030Y1910D01*
X1940Y1800D02*
X1880D01*
Y1830D01*
X1890Y1840D01*
X1910D01*
X1920Y1830D01*
Y1800D01*
Y1820D02*
X1940Y1840D01*
Y1860D02*
Y1880D01*
Y1870D01*
X1880D01*
X1890Y1860D01*
X1880Y1950D02*
X1890Y1930D01*
X1910Y1910D01*
X1930D01*
X1940Y1920D01*
Y1940D01*
X1930Y1950D01*
X1920D01*
X1910Y1940D01*
Y1910D01*
X1840Y1800D02*
X1780D01*
Y1830D01*
X1790Y1840D01*
X1810D01*
X1820Y1830D01*
Y1800D01*
Y1820D02*
X1840Y1840D01*
Y1860D02*
Y1880D01*
Y1870D01*
X1780D01*
X1790Y1860D01*
X1780Y1910D02*
Y1950D01*
X1790D01*
X1830Y1910D01*
X1840D01*
D28*
X5872Y1608D02*
G03*
X6010Y1617I66J42D01*
G01*
Y1683D02*
G03*
X5872Y1692I-72J-33D01*
G01*
Y1408D02*
G03*
X6010Y1417I66J42D01*
G01*
Y1483D02*
G03*
X5872Y1492I-72J-33D01*
G01*
X7318Y1608D02*
G03*
X7327Y1470I42J-66D01*
G01*
X7393D02*
G03*
X7402Y1608I-33J72D01*
G01*
X8022Y1900D02*
G03*
X8022Y1900I-132J0D01*
G01*
X4472Y3578D02*
G03*
X4610Y3587I66J42D01*
G01*
Y3653D02*
G03*
X4472Y3662I-72J-33D01*
G01*
X5312Y3058D02*
G03*
X5450Y3067I66J42D01*
G01*
Y3133D02*
G03*
X5312Y3142I-72J-33D01*
G01*
X4588Y2062D02*
G03*
X4450Y2053I-66J-42D01*
G01*
Y1987D02*
G03*
X4588Y1978I72J33D01*
G01*
X3594Y1515D02*
G03*
X3594Y1565I0J25D01*
G01*
X4530Y3503D02*
G03*
X4543Y3503I6J0D01*
G01*
X5380Y2973D02*
G03*
X5393Y2973I6J0D01*
G01*
X1920Y4410D02*
Y4440D01*
Y4410D02*
X2120D01*
Y4470D01*
X1920D02*
X2120D01*
X1920Y4440D02*
Y4470D01*
X2120Y4440D02*
X2129D01*
X1911D02*
X1920D01*
X1567Y4550D02*
X1667D01*
Y4350D02*
Y4550D01*
X1567Y4350D02*
X1667D01*
X1567D02*
Y4550D01*
X1920Y4330D02*
Y4360D01*
Y4330D02*
X2120D01*
Y4390D01*
X1920D02*
X2120D01*
X1920Y4360D02*
Y4390D01*
X2120Y4360D02*
X2129D01*
X1911D02*
X1920D01*
X2404Y4550D02*
X2504D01*
Y4350D02*
Y4550D01*
X2404Y4350D02*
X2504D01*
X2404D02*
Y4550D01*
X2770Y4360D02*
Y4390D01*
Y4360D02*
X2970D01*
Y4420D01*
X2770D02*
X2970D01*
X2770Y4390D02*
Y4420D01*
X2970Y4390D02*
X2979D01*
X2761D02*
X2770D01*
X3241Y4550D02*
X3341D01*
Y4350D02*
Y4550D01*
X3241Y4350D02*
X3341D01*
X3241D02*
Y4550D01*
X3610Y4360D02*
Y4390D01*
Y4360D02*
X3810D01*
Y4420D01*
X3610D02*
X3810D01*
X3610Y4390D02*
Y4420D01*
X3810Y4390D02*
X3819D01*
X3601D02*
X3610D01*
X4078Y4550D02*
X4178D01*
Y4350D02*
Y4550D01*
X4078Y4350D02*
X4178D01*
X4078D02*
Y4550D01*
X4430Y4360D02*
Y4390D01*
Y4360D02*
X4630D01*
Y4420D01*
X4430D02*
X4630D01*
X4430Y4390D02*
Y4420D01*
X4630Y4390D02*
X4639D01*
X4421D02*
X4430D01*
X4915Y4550D02*
X5015D01*
Y4350D02*
Y4550D01*
X4915Y4350D02*
X5015D01*
X4915D02*
Y4550D01*
X5290Y4360D02*
Y4390D01*
Y4360D02*
X5490D01*
Y4420D01*
X5290D02*
X5490D01*
X5290Y4390D02*
Y4420D01*
X5490Y4390D02*
X5499D01*
X5281D02*
X5290D01*
X5752Y4550D02*
X5852D01*
Y4350D02*
Y4550D01*
X5752Y4350D02*
X5852D01*
X5752D02*
Y4550D01*
X6130Y4360D02*
Y4390D01*
Y4360D02*
X6330D01*
Y4420D01*
X6130D02*
X6330D01*
X6130Y4390D02*
Y4420D01*
X6330Y4390D02*
X6339D01*
X6121D02*
X6130D01*
X6589Y4550D02*
X6689D01*
Y4350D02*
Y4550D01*
X6589Y4350D02*
X6689D01*
X6589D02*
Y4550D01*
X6970Y4360D02*
Y4390D01*
Y4360D02*
X7170D01*
Y4420D01*
X6970D02*
X7170D01*
X6970Y4390D02*
Y4420D01*
X7170Y4390D02*
X7179D01*
X6961D02*
X6970D01*
X7426Y4550D02*
X7526D01*
Y4350D02*
Y4550D01*
X7426Y4350D02*
X7526D01*
X7426D02*
Y4550D01*
X7790Y4360D02*
Y4390D01*
Y4360D02*
X7990D01*
Y4420D01*
X7790D02*
X7990D01*
X7790Y4390D02*
Y4420D01*
X7990Y4390D02*
X7999D01*
X7781D02*
X7790D01*
X8263Y4550D02*
X8363D01*
Y4350D02*
Y4550D01*
X8263Y4350D02*
X8363D01*
X8263D02*
Y4550D01*
X8650Y4360D02*
Y4390D01*
Y4360D02*
X8850D01*
Y4420D01*
X8650D02*
X8850D01*
X8650Y4390D02*
Y4420D01*
X8850Y4390D02*
X8859D01*
X8641D02*
X8650D01*
X9100Y4550D02*
X9200D01*
Y4350D02*
Y4550D01*
X9100Y4350D02*
X9200D01*
X9100D02*
Y4550D01*
X6087Y1774D02*
X6273D01*
Y1326D02*
Y1774D01*
X6087Y1326D02*
X6273D01*
X6087D02*
Y1774D01*
X7090Y1640D02*
X7120D01*
X7090Y1440D02*
Y1640D01*
Y1440D02*
X7150D01*
Y1640D01*
X7120D02*
X7150D01*
X7120Y1431D02*
Y1440D01*
Y1640D02*
Y1649D01*
X3594Y1286D02*
Y1515D01*
Y1565D02*
Y1794D01*
X5646Y1286D02*
Y1794D01*
X3594Y1286D02*
X5646D01*
X3594Y1794D02*
X5646D01*
X4472Y3503D02*
X4530D01*
X4543D02*
X4600D01*
Y3145D02*
Y3503D01*
X4472Y3145D02*
X4600D01*
X4472D02*
Y3503D01*
X2620Y1491D02*
Y1500D01*
Y1700D02*
Y1709D01*
X2590Y1500D02*
X2620D01*
X2590D02*
Y1700D01*
X2650D01*
Y1500D02*
Y1700D01*
X2620Y1500D02*
X2650D01*
X2720Y1491D02*
Y1500D01*
Y1700D02*
Y1709D01*
X2690Y1500D02*
X2720D01*
X2690D02*
Y1700D01*
X2750D01*
Y1500D02*
Y1700D01*
X2720Y1500D02*
X2750D01*
X2820Y1491D02*
Y1500D01*
Y1700D02*
Y1709D01*
X2790Y1500D02*
X2820D01*
X2790D02*
Y1700D01*
X2850D01*
Y1500D02*
Y1700D01*
X2820Y1500D02*
X2850D01*
X2920Y1491D02*
Y1500D01*
Y1700D02*
Y1709D01*
X2890Y1500D02*
X2920D01*
X2890D02*
Y1700D01*
X2950D01*
Y1500D02*
Y1700D01*
X2920Y1500D02*
X2950D01*
X3020Y1491D02*
Y1500D01*
Y1700D02*
Y1709D01*
X2990Y1500D02*
X3020D01*
X2990D02*
Y1700D01*
X3050D01*
Y1500D02*
Y1700D01*
X3020Y1500D02*
X3050D01*
X3120Y1491D02*
Y1500D01*
Y1700D02*
Y1709D01*
X3090Y1500D02*
X3120D01*
X3090D02*
Y1700D01*
X3150D01*
Y1500D02*
Y1700D01*
X3120Y1500D02*
X3150D01*
X3220Y1491D02*
Y1500D01*
Y1700D02*
Y1709D01*
X3190Y1500D02*
X3220D01*
X3190D02*
Y1700D01*
X3250D01*
Y1500D02*
Y1700D01*
X3220Y1500D02*
X3250D01*
X3320Y1491D02*
Y1500D01*
Y1700D02*
Y1709D01*
X3290Y1500D02*
X3320D01*
X3290D02*
Y1700D01*
X3350D01*
Y1500D02*
Y1700D01*
X3320Y1500D02*
X3350D01*
X2520Y1700D02*
Y1709D01*
Y1491D02*
Y1500D01*
Y1700D02*
X2550D01*
Y1500D02*
Y1700D01*
X2490Y1500D02*
X2550D01*
X2490D02*
Y1700D01*
X2520D01*
X2420D02*
Y1709D01*
Y1491D02*
Y1500D01*
Y1700D02*
X2450D01*
Y1500D02*
Y1700D01*
X2390Y1500D02*
X2450D01*
X2390D02*
Y1700D01*
X2420D01*
X2320D02*
Y1709D01*
Y1491D02*
Y1500D01*
Y1700D02*
X2350D01*
Y1500D02*
Y1700D01*
X2290Y1500D02*
X2350D01*
X2290D02*
Y1700D01*
X2320D01*
X2220D02*
Y1709D01*
Y1491D02*
Y1500D01*
Y1700D02*
X2250D01*
Y1500D02*
Y1700D01*
X2190Y1500D02*
X2250D01*
X2190D02*
Y1700D01*
X2220D01*
X2120D02*
Y1709D01*
Y1491D02*
Y1500D01*
Y1700D02*
X2150D01*
Y1500D02*
Y1700D01*
X2090Y1500D02*
X2150D01*
X2090D02*
Y1700D01*
X2120D01*
X2020D02*
Y1709D01*
Y1491D02*
Y1500D01*
Y1700D02*
X2050D01*
Y1500D02*
Y1700D01*
X1990Y1500D02*
X2050D01*
X1990D02*
Y1700D01*
X2020D01*
X1920D02*
Y1709D01*
Y1491D02*
Y1500D01*
Y1700D02*
X1950D01*
Y1500D02*
Y1700D01*
X1890Y1500D02*
X1950D01*
X1890D02*
Y1700D01*
X1920D01*
X1820D02*
Y1709D01*
Y1491D02*
Y1500D01*
Y1700D02*
X1850D01*
Y1500D02*
Y1700D01*
X1790Y1500D02*
X1850D01*
X1790D02*
Y1700D01*
X1820D01*
X5322Y2615D02*
Y2973D01*
Y2615D02*
X5450D01*
Y2973D01*
X5393D02*
X5450D01*
X5322D02*
X5380D01*
D29*
X7780Y1790D02*
X7741D01*
X7760Y1771D02*
Y1810D01*
M02*
