<?xml version="1.0" encoding="UTF-8" standalone="no"?>
<!-- Created with Inkscape (http://www.inkscape.org/) -->
<svg
   xmlns:dc="http://purl.org/dc/elements/1.1/"
   xmlns:cc="http://web.resource.org/cc/"
   xmlns:rdf="http://www.w3.org/1999/02/22-rdf-syntax-ns#"
   xmlns:svg="http://www.w3.org/2000/svg"
   xmlns="http://www.w3.org/2000/svg"
   xmlns:xlink="http://www.w3.org/1999/xlink"
   xmlns:sodipodi="http://sodipodi.sourceforge.net/DTD/sodipodi-0.dtd"
   xmlns:inkscape="http://www.inkscape.org/namespaces/inkscape"
   width="16px"
   height="16px"
   id="svg5613"
   sodipodi:version="0.32"
   inkscape:version="0.44"
   sodipodi:docbase="/home/andreas/project/xchat-gnome"
   sodipodi:docname="operator2.svg"
   inkscape:export-filename="/home/andreas/project/xchat-gnome/operator2.png"
   inkscape:export-xdpi="90"
   inkscape:export-ydpi="90">
  <defs
     id="defs5615">
    <linearGradient
       inkscape:collect="always"
       id="linearGradient3103">
      <stop
         style="stop-color:white;stop-opacity:1"
         offset="0"
         id="stop3105" />
      <stop
         style="stop-color:#edd400;stop-opacity:1"
         offset="1"
         id="stop3107" />
    </linearGradient>
    <radialGradient
       inkscape:collect="always"
       xlink:href="#linearGradient3103"
       id="radialGradient3109"
       cx="5.9282441"
       cy="6.3194075"
       fx="5.9282441"
       fy="6.3194075"
       r="6.5"
       gradientTransform="matrix(0.802931,0,0,0.864694,1.271286,0.816903)"
       gradientUnits="userSpaceOnUse" />
    <linearGradient
       inkscape:collect="always"
       id="linearGradient3178">
      <stop
         style="stop-color:#c4a000;stop-opacity:1"
         offset="0"
         id="stop3180" />
      <stop
         style="stop-color:white;stop-opacity:1"
         offset="1"
         id="stop3182" />
    </linearGradient>
    <linearGradient
       inkscape:collect="always"
       xlink:href="#linearGradient3178"
       id="linearGradient3188"
       gradientUnits="userSpaceOnUse"
       x1="40.411118"
       y1="7.8730125"
       x2="41.579247"
       y2="11.103444" />
  </defs>
  <sodipodi:namedview
     id="base"
     pagecolor="#ffffff"
     bordercolor="#666666"
     borderopacity="1.0"
     inkscape:pageopacity="0.0"
     inkscape:pageshadow="2"
     inkscape:zoom="22.197802"
     inkscape:cx="8"
     inkscape:cy="8"
     inkscape:current-layer="layer1"
     showgrid="true"
     inkscape:grid-bbox="true"
     inkscape:document-units="px"
     inkscape:window-width="906"
     inkscape:window-height="628"
     inkscape:window-x="0"
     inkscape:window-y="47" />
  <metadata
     id="metadata5618">
    <rdf:RDF>
      <cc:Work
         rdf:about="">
        <dc:format>image/svg+xml</dc:format>
        <dc:type
           rdf:resource="http://purl.org/dc/dcmitype/StillImage" />
      </cc:Work>
    </rdf:RDF>
  </metadata>
  <g
     id="layer1"
     inkscape:label="Layer 1"
     inkscape:groupmode="layer">
    <path
       style="fill:url(#radialGradient3109);fill-opacity:1;fill-rule:evenodd;stroke:#c4a000;stroke-width:1px;stroke-linecap:butt;stroke-linejoin:miter;stroke-opacity:1"
       d="M 7.5,1.5000054 L 5.6875,4.5000054 L 1.5,4.5000054 L 3.59375,8.0000054 L 1.5,11.500005 L 5.6875,11.500005 L 7.5,14.500005 L 9.3125,11.500005 L 13.5,11.500005 L 11.40625,8.0000054 L 13.5,4.5000054 L 9.3125,4.5000054 L 7.5,1.5000054 z "
       id="path3092" />
    <g
       id="g2237"
       transform="translate(4.20696e-7,5.104065e-6)">
      <path
         transform="matrix(-0.426932,0.739468,-0.821459,-0.474269,5.937022,-0.24109)"
         d="M 8.5736696 1.5485051 A 1.1711456 1.0606601 0 1 1  6.2313784,1.5485051 A 1.1711456 1.0606601 0 1 1  8.5736696 1.5485051 z"
         sodipodi:ry="1.0606601"
         sodipodi:rx="1.1711456"
         sodipodi:cy="1.5485051"
         sodipodi:cx="7.402524"
         id="path3143"
         style="fill:white;fill-opacity:1;stroke:#c4a000;stroke-width:1.11116362;stroke-linecap:round;stroke-linejoin:miter;stroke-miterlimit:4;stroke-dasharray:none;stroke-dashoffset:1.4;stroke-opacity:1"
         sodipodi:type="arc" />
      <rect
         y="4"
         x="1"
         height="1"
         width="1"
         id="rect3111"
         style="opacity:1;fill:white;fill-opacity:1;stroke:none;stroke-width:1;stroke-linecap:round;stroke-linejoin:miter;stroke-miterlimit:4;stroke-dasharray:none;stroke-dashoffset:1.4;stroke-opacity:1" />
    </g>
    <g
       id="g2229"
       transform="translate(4.20696e-7,5.104065e-6)">
      <path
         transform="matrix(0.426932,0.739468,-0.821459,0.47427,-0.383726,5.290091)"
         d="M 8.5736696 1.5485051 A 1.1711456 1.0606601 0 1 1  6.2313784,1.5485051 A 1.1711456 1.0606601 0 1 1  8.5736696 1.5485051 z"
         sodipodi:ry="1.0606601"
         sodipodi:rx="1.1711456"
         sodipodi:cy="1.5485051"
         sodipodi:cx="7.402524"
         id="path3139"
         style="fill:white;fill-opacity:1;stroke:#c4a000;stroke-width:1.11116362;stroke-linecap:round;stroke-linejoin:miter;stroke-miterlimit:4;stroke-dasharray:none;stroke-dashoffset:1.4;stroke-opacity:1"
         sodipodi:type="arc" />
      <rect
         y="11"
         x="1"
         height="1"
         width="1"
         id="rect3113"
         style="opacity:1;fill:white;fill-opacity:1;stroke:none;stroke-width:1;stroke-linecap:round;stroke-linejoin:miter;stroke-miterlimit:4;stroke-dasharray:none;stroke-dashoffset:1.4;stroke-opacity:1" />
    </g>
    <g
       id="g2225"
       transform="translate(4.20696e-7,5.104065e-6)">
      <path
         transform="matrix(-0.426932,0.739468,-0.821459,-0.474269,17.92779,6.762047)"
         d="M 8.5736696 1.5485051 A 1.1711456 1.0606601 0 1 1  6.2313784,1.5485051 A 1.1711456 1.0606601 0 1 1  8.5736696 1.5485051 z"
         sodipodi:ry="1.0606601"
         sodipodi:rx="1.1711456"
         sodipodi:cy="1.5485051"
         sodipodi:cx="7.402524"
         id="path3141"
         style="fill:white;fill-opacity:1;stroke:#c4a000;stroke-width:1.11116362;stroke-linecap:round;stroke-linejoin:miter;stroke-miterlimit:4;stroke-dasharray:none;stroke-dashoffset:1.4;stroke-opacity:1"
         sodipodi:type="arc" />
      <rect
         y="11"
         x="13"
         height="1"
         width="1"
         id="rect3115"
         style="opacity:1;fill:white;fill-opacity:1;stroke:none;stroke-width:1;stroke-linecap:round;stroke-linejoin:miter;stroke-miterlimit:4;stroke-dasharray:none;stroke-dashoffset:1.4;stroke-opacity:1" />
    </g>
    <g
       id="g2233"
       transform="translate(4.20696e-7,5.104065e-6)">
      <path
         transform="matrix(0.853864,0,0,0.948539,1.17925,13.0251)"
         d="M 8.5736696 1.5485051 A 1.1711456 1.0606601 0 1 1  6.2313784,1.5485051 A 1.1711456 1.0606601 0 1 1  8.5736696 1.5485051 z"
         sodipodi:ry="1.0606601"
         sodipodi:rx="1.1711456"
         sodipodi:cy="1.5485051"
         sodipodi:cx="7.402524"
         id="path3135"
         style="fill:white;fill-opacity:1;stroke:#c4a000;stroke-width:1.11116362;stroke-linecap:round;stroke-linejoin:miter;stroke-miterlimit:4;stroke-dasharray:none;stroke-dashoffset:1.4;stroke-opacity:1"
         sodipodi:type="arc" />
      <rect
         y="14"
         x="7"
         height="1"
         width="1"
         id="rect3117"
         style="opacity:1;fill:white;fill-opacity:1;stroke:none;stroke-width:1;stroke-linecap:round;stroke-linejoin:miter;stroke-miterlimit:4;stroke-dasharray:none;stroke-dashoffset:1.4;stroke-opacity:1" />
    </g>
    <g
       id="g2241"
       transform="translate(4.20696e-7,5.104065e-6)">
      <path
         transform="matrix(0.853864,0,0,0.948539,1.17925,2.510497e-2)"
         d="M 8.5736696 1.5485051 A 1.1711456 1.0606601 0 1 1  6.2313784,1.5485051 A 1.1711456 1.0606601 0 1 1  8.5736696 1.5485051 z"
         sodipodi:ry="1.0606601"
         sodipodi:rx="1.1711456"
         sodipodi:cy="1.5485051"
         sodipodi:cx="7.402524"
         id="path3133"
         style="fill:white;fill-opacity:1;stroke:#c4a000;stroke-width:1.11116362;stroke-linecap:round;stroke-linejoin:miter;stroke-miterlimit:4;stroke-dasharray:none;stroke-dashoffset:1.4;stroke-opacity:1"
         sodipodi:type="arc" />
      <rect
         y="1"
         x="7"
         height="1"
         width="1"
         id="rect3119"
         style="opacity:1;fill:white;fill-opacity:1;stroke:none;stroke-width:1;stroke-linecap:round;stroke-linejoin:miter;stroke-miterlimit:4;stroke-dasharray:none;stroke-dashoffset:1.4;stroke-opacity:1" />
    </g>
    <g
       id="g2245"
       transform="translate(4.20696e-7,5.104065e-6)">
      <path
         transform="matrix(0.426932,0.739468,-0.821459,0.47427,11.60704,-1.70677)"
         d="M 8.5736696 1.5485051 A 1.1711456 1.0606601 0 1 1  6.2313784,1.5485051 A 1.1711456 1.0606601 0 1 1  8.5736696 1.5485051 z"
         sodipodi:ry="1.0606601"
         sodipodi:rx="1.1711456"
         sodipodi:cy="1.5485051"
         sodipodi:cx="7.402524"
         id="path3137"
         style="fill:white;fill-opacity:1;stroke:#c4a000;stroke-width:1.11116362;stroke-linecap:round;stroke-linejoin:miter;stroke-miterlimit:4;stroke-dasharray:none;stroke-dashoffset:1.4;stroke-opacity:1"
         sodipodi:type="arc" />
      <rect
         y="4"
         x="13"
         height="1"
         width="1"
         id="rect3121"
         style="opacity:1;fill:white;fill-opacity:1;stroke:none;stroke-width:1;stroke-linecap:round;stroke-linejoin:miter;stroke-miterlimit:4;stroke-dasharray:none;stroke-dashoffset:1.4;stroke-opacity:1" />
    </g>
    <path
       sodipodi:type="inkscape:offset"
       inkscape:radius="-0.96357614"
       inkscape:original="M 7.5 1.5 L 5.6875 4.5 L 1.5 4.5 L 3.59375 8 L 1.5 11.5 L 5.6875 11.5 L 7.5 14.5 L 9.3125 11.5 L 13.5 11.5 L 11.40625 8 L 13.5 4.5 L 9.3125 4.5 L 7.5 1.5 z "
       style="fill:none;fill-rule:evenodd;stroke:white;stroke-width:1px;stroke-linecap:butt;stroke-linejoin:miter;stroke-opacity:1"
       id="path3101"
       d="M 7.5,3.34375 L 6.5,5 C 6.3286189,5.286413 6.0212348,5.46375 5.6875,5.46875 L 3.1875,5.46875 L 4.40625,7.5 C 4.5927319,7.8072517 4.5927319,8.1927483 4.40625,8.5 L 3.1875,10.53125 L 5.6875,10.53125 C 6.0212348,10.53625 6.3286189,10.713587 6.5,11 L 7.5,12.65625 L 8.5,11 C 8.6713811,10.713587 8.9787652,10.53625 9.3125,10.53125 L 11.8125,10.53125 L 10.59375,8.5 C 10.407268,8.1927483 10.407268,7.8072517 10.59375,7.5 L 11.8125,5.46875 L 9.3125,5.46875 C 8.9787652,5.46375 8.6713811,5.286413 8.5,5 L 7.5,3.34375 z "
       transform="translate(4.20696e-7,5.104065e-6)" />
    <path
       sodipodi:type="arc"
       style="opacity:0.7;fill:none;fill-opacity:1;stroke:url(#linearGradient3188);stroke-width:0.65901315;stroke-linecap:round;stroke-linejoin:miter;stroke-miterlimit:4;stroke-dasharray:none;stroke-dashoffset:1.4;stroke-opacity:1"
       id="path3186"
       sodipodi:cx="41.03125"
       sodipodi:cy="10.171875"
       sodipodi:rx="1.59375"
       sodipodi:ry="1.703125"
       d="M 42.625 10.171875 A 1.59375 1.703125 0 1 1  39.4375,10.171875 A 1.59375 1.703125 0 1 1  42.625 10.171875 z"
       transform="matrix(1.568622,0,0,1.46789,-56.86252,-6.931191)" />
    <g
       id="g3198"
       transform="translate(4.20696e-7,-30)">
      <path
         transform="matrix(1.897434,0,0,1.947372,0.419082,-30.63827)"
         d="M 6.21875 36.5625 A 0.609375 0.59375 0 1 1  5,36.5625 A 0.609375 0.59375 0 1 1  6.21875 36.5625 z"
         sodipodi:ry="0.59375"
         sodipodi:rx="0.609375"
         sodipodi:cy="36.5625"
         sodipodi:cx="5.609375"
         id="path3191"
         style="opacity:1;fill:white;fill-opacity:1;stroke:none;stroke-width:1;stroke-linecap:round;stroke-linejoin:miter;stroke-miterlimit:4;stroke-dasharray:none;stroke-dashoffset:1.4;stroke-opacity:1"
         sodipodi:type="arc" />
      <path
         transform="matrix(1.999998,0,0,2.052635,-7.656999,-39.42131)"
         d="M 6.21875 36.5625 A 0.609375 0.59375 0 1 1  5,36.5625 A 0.609375 0.59375 0 1 1  6.21875 36.5625 z"
         sodipodi:ry="0.59375"
         sodipodi:rx="0.609375"
         sodipodi:cy="36.5625"
         sodipodi:cx="5.609375"
         id="path3193"
         style="opacity:1;fill:white;fill-opacity:1;stroke:none;stroke-width:1;stroke-linecap:round;stroke-linejoin:miter;stroke-miterlimit:4;stroke-dasharray:none;stroke-dashoffset:1.4;stroke-opacity:1"
         sodipodi:type="arc" />
      <path
         transform="matrix(1.384613,0,0,1.421055,-3.329316,-11.08231)"
         d="M 6.21875 36.5625 A 0.609375 0.59375 0 1 1  5,36.5625 A 0.609375 0.59375 0 1 1  6.21875 36.5625 z"
         sodipodi:ry="0.59375"
         sodipodi:rx="0.609375"
         sodipodi:cy="36.5625"
         sodipodi:cx="5.609375"
         id="path3196"
         style="opacity:1;fill:white;fill-opacity:1;stroke:none;stroke-width:1;stroke-linecap:round;stroke-linejoin:miter;stroke-miterlimit:4;stroke-dasharray:none;stroke-dashoffset:1.4;stroke-opacity:1"
         sodipodi:type="arc" />
    </g>
  </g>
</svg>
