<?xml version="1.0" encoding="UTF-8" standalone="no"?>
<!DOCTYPE svg PUBLIC "-//W3C//DTD SVG 20010904//EN"
"http://www.w3.org/TR/2001/REC-SVG-20010904/DTD/svg10.dtd"
[
 <!ATTLIST svg
  xmlns:xlink CDATA #FIXED "http://www.w3.org/1999/xlink">
]>
<!-- Created with Sodipodi ("http://www.sodipodi.com/") -->
<svg
   id="svg548"
   sodipodi:version="0.32"
   xmlns="http://www.w3.org/2000/svg"
   xmlns:sodipodi="http://sodipodi.sourceforge.net/DTD/sodipodi-0.dtd"
   xmlns:xlink="http://www.w3.org/1999/xlink"
   width="210mm"
   height="297mm"
   sodipodi:docbase="/home/micah/art"
   sodipodi:docname="/home/micah/art/flibble.svg">
  <defs
     id="defs550">
    <linearGradient
       id="linearGradient552">
      <stop
         style="stop-color:#ffffff;stop-opacity:1;"
         offset="0.000000"
         id="stop553" />
      <stop
         style="stop-color:#ffff8a;stop-opacity:1;"
         offset="1.000000"
         id="stop554" />
    </linearGradient>
    <radialGradient
       xlink:href="#linearGradient552"
       id="radialGradient555"
       cx="0.31538457"
       cy="0.32031858"
       fx="0.31538457"
       fy="0.32031858"
       r="0.58377957"
       gradientUnits="objectBoundingBox"
       spreadMethod="pad" />
  </defs>
  <sodipodi:namedview
     id="base" />
  <rect
     style="font-size:12;fill:#ffffff;fill-rule:evenodd;stroke-width:1pt;fill-opacity:0;"
     id="rect570"
     width="330.931803"
     height="272.191471"
     x="154.710652"
     y="376.433807" />
  <path
     style="fill:none;fill-rule:evenodd;stroke:#000000;stroke-opacity:0.333333;stroke-width:10;stroke-linejoin:miter;stroke-linecap:round;fill-opacity:1;stroke-dasharray:none;stroke-dashoffset:0;"
     d="M 230.824 469.923 C 263.09 469.095 252.021 543.552 288.738 544.382 C 349.916 544.388 290.896 392.281 347.478 392.153 C 394.832 392.873 370.644 471.026 407.046 469.096 C 407.322 469.371 407.598 469.647 407.873 469.923 "
     id="path557"
     sodipodi:nodetypes="csscs"
     transform="translate(0.000000,-3.051758e-5)" />
  <path
     style="fill:none;fill-rule:evenodd;stroke:black;stroke-opacity:1;stroke-width:20.8741;stroke-linejoin:miter;stroke-linecap:round;fill-opacity:1;stroke-dasharray:none;"
     d="M 334.717 543.352 C 362.215 547.529 356.404 542.522 390.738 543.352 "
     id="path558"
     sodipodi:nodetypes="cs"
     transform="matrix(0.694122,0.000000,0.000000,-0.330634,68.81274,645.4369)" />
  <path
     style="fill:none;fill-rule:evenodd;stroke:#000000;stroke-opacity:1;stroke-width:10;stroke-linejoin:miter;stroke-linecap:round;fill-opacity:1;stroke-dasharray:none;"
     d="M 288.738 544.382 C 349.916 544.388 290.896 392.281 347.478 392.153 "
     id="path560"
     sodipodi:nodetypes="cs"
     transform="translate(-2.153218e-5,0.827301)" />
  <path
     sodipodi:type="arc"
     style="fill-rule:evenodd;stroke:#000000;fill:url(#radialGradient555);fill-opacity:1;stroke-opacity:1;stroke-width:7.625;stroke-linejoin:miter;stroke-linecap:butt;stroke-dasharray:none;"
     id="path551"
     d="M 196.563324 465.012268 A 50.310860 50.310852 0 1 0 95.941612,465.012268 A 50.3109 50.3109 0 1 0 196.563 465.012 L 146.252472 465.012268 z"
     sodipodi:cx="146.252472"
     sodipodi:cy="465.012268"
     sodipodi:rx="50.310860"
     sodipodi:ry="50.310852"
     transform="matrix(0.638225,0.000000,0.000000,0.638224,106.6869,171.5395)" />
  <text
     style="fill:#890000;stroke:none;font-family:Trebuchet MS;font-style:normal;font-weight:normal;font-size:28;text-anchor:start;writing-mode:lr;fill-opacity:1;stroke-opacity:1;stroke-width:1pt;stroke-linejoin:miter;stroke-linecap:butt;"
     x="64.2049393"
     y="203.899904"
     id="text561"
     transform="matrix(3.115428,0.000000,0.000000,3.115429,-8.591690,-3.051758e-5)">
    <tspan
       x="64.2049408"
       y="203.899902"
       sodipodi:role="line"
       id="tspan566"
       style="fill:#890000;fill-opacity:1;">
flibble</tspan>
  </text>
  <path
     sodipodi:type="arc"
     style="fill-rule:evenodd;stroke:#000000;fill:url(#radialGradient555);fill-opacity:1;stroke-opacity:1;stroke-width:7.625;stroke-linejoin:miter;stroke-linecap:butt;stroke-dasharray:none;"
     id="path568"
     d="M 196.563324 465.012268 A 50.310860 50.310852 0 1 0 95.941612,465.012268 A 50.3109 50.3109 0 1 0 196.563 465.012 L 146.252472 465.012268 z"
     sodipodi:cx="146.252472"
     sodipodi:cy="465.012268"
     sodipodi:rx="50.310860"
     sodipodi:ry="50.310852"
     transform="matrix(0.638225,0.000000,0.000000,0.638224,345.7849,171.5395)" />
</svg>
