%FSLAX23Y23*%
%MOIN*%
G70*
G01*
G75*
%ADD10C,0.006*%
%ADD11C,0.010*%
%ADD12C,0.001*%
%ADD13C,0.001*%
%ADD14C,0.250*%
%ADD15C,0.055*%
%ADD16R,0.053X0.053*%
%ADD17C,0.053*%
%ADD18C,0.059*%
%ADD19R,0.059X0.059*%
%ADD20C,0.070*%
%ADD21C,0.059*%
%ADD22R,0.059X0.059*%
%ADD23C,0.065*%
%ADD24C,0.180*%
%ADD25C,0.047*%
%ADD26R,0.047X0.047*%
%ADD27O,0.500X0.400*%
%ADD28R,0.070X0.070*%
%ADD29C,0.063*%
%ADD30C,0.025*%
%ADD31C,0.008*%
%ADD32C,0.005*%
%ADD33C,0.006*%
%ADD34C,0.258*%
%ADD35C,0.063*%
%ADD36R,0.061X0.061*%
%ADD37C,0.061*%
%ADD38C,0.067*%
%ADD39R,0.067X0.067*%
%ADD40C,0.078*%
%ADD41C,0.067*%
%ADD42R,0.067X0.067*%
%ADD43C,0.073*%
%ADD44C,0.188*%
%ADD45C,0.055*%
%ADD46R,0.055X0.055*%
%ADD47O,0.508X0.408*%
%ADD48R,0.078X0.078*%
%ADD49C,0.071*%
%ADD50C,0.033*%
D11*
Y2500D02*
X5000D01*
Y0D02*
Y2500D01*
X0Y0D02*
X5000D01*
X0D02*
Y2500D01*
D12*
X4277Y2417D02*
G03*
X4163Y2417I-57J0D01*
G01*
X4057D02*
G03*
X3943Y2417I-57J0D01*
G01*
X4597D02*
G03*
X4483Y2417I-57J0D01*
G01*
X3517D02*
G03*
X3403Y2417I-57J0D01*
G01*
X3737D02*
G03*
X3623Y2417I-57J0D01*
G01*
D13*
X4133Y2121D02*
X4307D01*
Y2373D01*
X4133D02*
X4307D01*
X4133Y2121D02*
Y2373D01*
X4163D02*
Y2417D01*
X4277Y2373D02*
Y2417D01*
X3913Y2121D02*
X4087D01*
Y2373D01*
X3913D02*
X4087D01*
X3913Y2121D02*
Y2373D01*
X3943D02*
Y2417D01*
X4057Y2373D02*
Y2417D01*
X4453Y2121D02*
X4627D01*
Y2373D01*
X4453D02*
X4627D01*
X4453Y2121D02*
Y2373D01*
X4483D02*
Y2417D01*
X4597Y2373D02*
Y2417D01*
X3373Y2121D02*
X3547D01*
Y2373D01*
X3373D02*
X3547D01*
X3373Y2121D02*
Y2373D01*
X3403D02*
Y2417D01*
X3517Y2373D02*
Y2417D01*
X3593Y2121D02*
X3767D01*
Y2373D01*
X3593D02*
X3767D01*
X3593Y2121D02*
Y2373D01*
X3623D02*
Y2417D01*
X3737Y2373D02*
Y2417D01*
D34*
X200Y200D02*
D03*
Y2300D02*
D03*
X4800Y200D02*
D03*
Y2300D02*
D03*
D35*
X2410Y1840D02*
D03*
X2110D02*
D03*
X1620Y2350D02*
D03*
Y2050D02*
D03*
X1700D02*
D03*
Y2350D02*
D03*
X2836Y1740D02*
D03*
X2644D02*
D03*
X4480Y1710D02*
D03*
X4800D02*
D03*
X4720D02*
D03*
X4880D02*
D03*
X4560D02*
D03*
X4640D02*
D03*
X4480Y1410D02*
D03*
X1900Y1650D02*
D03*
X1800Y1950D02*
D03*
Y1650D02*
D03*
X4250Y1700D02*
D03*
X3950D02*
D03*
X4800Y1410D02*
D03*
X4720D02*
D03*
X1900Y1950D02*
D03*
X4880Y1410D02*
D03*
X4560D02*
D03*
X4640D02*
D03*
D36*
X3280Y1900D02*
D03*
X3540Y880D02*
D03*
X1660Y1840D02*
D03*
X3240Y1720D02*
D03*
X2180D02*
D03*
X4340Y1460D02*
D03*
X2740Y1940D02*
D03*
X2000Y1960D02*
D03*
D37*
X3083Y1900D02*
D03*
X3737Y880D02*
D03*
X3043Y1720D02*
D03*
X2377D02*
D03*
X4340Y1657D02*
D03*
X1660Y1643D02*
D03*
X2937Y1940D02*
D03*
X2197Y1960D02*
D03*
D38*
X2980Y2070D02*
D03*
X2880D02*
D03*
X2580Y2370D02*
D03*
X3180Y2070D02*
D03*
X2580D02*
D03*
X2880Y2370D02*
D03*
X2680Y2070D02*
D03*
Y2370D02*
D03*
X2780D02*
D03*
X3080D02*
D03*
X2980D02*
D03*
X2780Y2070D02*
D03*
X3080D02*
D03*
X2970Y1600D02*
D03*
X2870D02*
D03*
X2470D02*
D03*
Y1000D02*
D03*
X2570D02*
D03*
X4070Y1600D02*
D03*
X3970D02*
D03*
X3870D02*
D03*
X3770D02*
D03*
X3670D02*
D03*
X3570D02*
D03*
X3470D02*
D03*
X3370D02*
D03*
X3270D02*
D03*
X3170D02*
D03*
X3370Y1000D02*
D03*
X3070Y1600D02*
D03*
X3270Y1000D02*
D03*
X2770Y1600D02*
D03*
X2670D02*
D03*
X2570D02*
D03*
X2370D02*
D03*
X2270D02*
D03*
Y1000D02*
D03*
X2370D02*
D03*
X2670D02*
D03*
X2770D02*
D03*
X2870D02*
D03*
X2970D02*
D03*
X3070D02*
D03*
X3170D02*
D03*
X3470D02*
D03*
X3570D02*
D03*
X3670D02*
D03*
X3770D02*
D03*
X3870D02*
D03*
X3970D02*
D03*
X4070D02*
D03*
X4170D02*
D03*
X2150Y2370D02*
D03*
X2050D02*
D03*
X1950D02*
D03*
X2250Y2070D02*
D03*
X2150D02*
D03*
X2050D02*
D03*
X1950D02*
D03*
D39*
X3180Y2370D02*
D03*
X4170Y1600D02*
D03*
X2250Y2370D02*
D03*
D40*
X1860Y140D02*
D03*
X1760D02*
D03*
X4460D02*
D03*
X4360D02*
D03*
X4260D02*
D03*
X4160D02*
D03*
X4060D02*
D03*
X3960D02*
D03*
X3860D02*
D03*
X3760D02*
D03*
X3660D02*
D03*
X3560D02*
D03*
X3460D02*
D03*
X3360D02*
D03*
X3260D02*
D03*
X3160D02*
D03*
X3060D02*
D03*
X2960D02*
D03*
X2860D02*
D03*
X2760D02*
D03*
X2660D02*
D03*
X2560D02*
D03*
X2460D02*
D03*
X2360D02*
D03*
X2260D02*
D03*
X2160D02*
D03*
X2060D02*
D03*
X1960D02*
D03*
X1660D02*
D03*
X1560D02*
D03*
X1460D02*
D03*
X1360D02*
D03*
X1260D02*
D03*
X1160D02*
D03*
X1060D02*
D03*
X960D02*
D03*
X860D02*
D03*
X760D02*
D03*
X660D02*
D03*
D41*
X1000Y1240D02*
D03*
Y1340D02*
D03*
X1100Y1240D02*
D03*
Y1340D02*
D03*
X1200Y1240D02*
D03*
X860Y1340D02*
D03*
X1340Y1240D02*
D03*
X1480Y1340D02*
D03*
X380Y1540D02*
D03*
D42*
X1200Y1340D02*
D03*
X860Y1240D02*
D03*
X1340Y1340D02*
D03*
X1480Y1240D02*
D03*
X380Y1440D02*
D03*
D43*
X4493Y906D02*
D03*
X4415Y906D02*
D03*
Y808D02*
D03*
X4493D02*
D03*
D44*
X4600Y1094D02*
D03*
Y620D02*
D03*
D45*
X4100Y720D02*
D03*
D46*
Y820D02*
D03*
D47*
X380Y1125D02*
D03*
Y1875D02*
D03*
D48*
X560Y140D02*
D03*
D49*
X4170Y2200D02*
D03*
X4270D02*
D03*
X3950D02*
D03*
X4050D02*
D03*
X4590D02*
D03*
X3410D02*
D03*
X3510D02*
D03*
X3630D02*
D03*
X3730D02*
D03*
X4490D02*
D03*
D50*
X1587Y1376D02*
D03*
X3585Y206D02*
D03*
X3332Y662D02*
D03*
X1509Y1380D02*
D03*
X1556Y1375D02*
D03*
X4061Y744D02*
D03*
X2725Y1211D02*
D03*
X2691Y550D02*
D03*
X1981Y1413D02*
D03*
X1928Y1241D02*
D03*
X1281Y1643D02*
D03*
X1900Y1202D02*
D03*
X1525Y1424D02*
D03*
X1960Y1560D02*
D03*
X1140Y1416D02*
D03*
X2060Y1383D02*
D03*
X3094Y370D02*
D03*
M02*
