%FSLAX23Y23*%
%MOIN*%
G70*
G01*
G75*
G04 Layer_Physical_Order=2*
%ADD10C,0.006*%
%ADD11C,0.010*%
%ADD12C,0.001*%
%ADD13C,0.001*%
%ADD14C,0.250*%
%ADD15C,0.055*%
%ADD16R,0.053X0.053*%
%ADD17C,0.053*%
%ADD18C,0.059*%
%ADD19R,0.059X0.059*%
%ADD20C,0.070*%
%ADD21C,0.059*%
%ADD22R,0.059X0.059*%
%ADD23C,0.065*%
%ADD24C,0.180*%
%ADD25C,0.047*%
%ADD26R,0.047X0.047*%
%ADD27O,0.500X0.400*%
%ADD28R,0.070X0.070*%
%ADD29C,0.063*%
%ADD30C,0.025*%
D10*
X4340Y260D02*
X4460Y140D01*
X4170Y1000D02*
X4340Y830D01*
X4318Y182D02*
X4360Y140D01*
X4070Y1000D02*
X4318Y752D01*
X4260Y140D02*
Y775D01*
X3970Y1000D02*
X4010Y960D01*
X4160Y140D02*
Y854D01*
X3870Y1000D02*
X3923Y947D01*
X4060Y140D02*
Y703D01*
X3770Y1000D02*
X3803D01*
X3960Y140D02*
Y808D01*
X3670Y1000D02*
X3710Y960D01*
X3860Y140D02*
Y856D01*
X3570Y1000D02*
X3622Y948D01*
X3760Y140D02*
Y408D01*
X3470Y1000D02*
X3534Y936D01*
X3170Y430D02*
Y1000D01*
Y430D02*
X3460Y140D01*
X3116Y384D02*
X3360Y140D01*
X3070Y1000D02*
X3116Y954D01*
X2970Y430D02*
X3260Y140D01*
X2970Y430D02*
Y1000D01*
X2870Y430D02*
Y1000D01*
Y430D02*
X3160Y140D01*
X2770Y430D02*
X3060Y140D01*
X2770Y430D02*
Y1000D01*
X2670Y430D02*
Y1000D01*
Y430D02*
X2960Y140D01*
X2370Y430D02*
Y1000D01*
Y430D02*
X2660Y140D01*
X2502Y82D02*
X2560Y140D01*
X2217Y947D02*
X2270Y1000D01*
X2415Y95D02*
X2460Y140D01*
X2270Y1600D02*
X2309Y1561D01*
X2324Y1554D02*
X2370Y1600D01*
X2324Y176D02*
X2360Y140D01*
X2115Y95D02*
X2160Y140D01*
X1340Y1300D02*
Y1340D01*
X2060Y140D02*
Y1383D01*
X1587Y1347D02*
Y1376D01*
X1480Y1240D02*
X1587Y1347D01*
X1960Y140D02*
Y1560D01*
X4800Y2169D02*
Y2300D01*
X4764Y1446D02*
X4800Y1410D01*
X3316Y1651D02*
X4000D01*
X3309D02*
X3316D01*
X3280Y1720D02*
Y1900D01*
X3260Y1700D02*
X3280Y1720D01*
X3240D02*
X3260Y1700D01*
X3309Y1651D01*
X4560Y1283D02*
Y1410D01*
X4141Y1460D02*
X4340D01*
X4493Y906D02*
Y1216D01*
X4600Y620D02*
Y800D01*
X4493Y906D02*
X4600Y800D01*
Y620D02*
X4800Y420D01*
Y200D02*
Y420D01*
X3316Y1046D02*
Y1651D01*
X3270Y1046D02*
X3316D01*
X3270D02*
Y1200D01*
Y1000D02*
Y1046D01*
X3540Y520D02*
Y880D01*
X3560Y140D02*
Y500D01*
X2580Y2370D02*
X2875Y2075D01*
X2880Y2070D01*
X1950Y2010D02*
X2000Y1960D01*
X1700Y2350D02*
X1900Y2150D01*
X1950Y2010D02*
Y2070D01*
X1900Y1950D02*
Y2150D01*
X2740Y1940D02*
X2875Y2075D01*
X3070Y1200D02*
Y1600D01*
X4490Y2200D02*
X4516Y2174D01*
X4450Y2200D02*
X4490D01*
X3950Y1700D02*
X4450Y2200D01*
X4415Y906D02*
Y1178D01*
X3737Y217D02*
Y880D01*
X3660Y140D02*
X3737Y217D01*
X3180Y1997D02*
Y2070D01*
X3083Y1900D02*
X3180Y1997D01*
X2250Y2013D02*
Y2070D01*
X2197Y1960D02*
X2250Y2013D01*
X3083Y1687D02*
Y1900D01*
Y1687D02*
X3170Y1600D01*
X3198Y1528D02*
X3270Y1600D01*
X3094Y370D02*
Y897D01*
X3370Y1600D02*
X3420Y1550D01*
X3585Y206D02*
Y900D01*
X3430Y1640D02*
X3470Y1600D01*
X3332Y662D02*
Y1620D01*
X1307Y1424D02*
X1525D01*
X1160Y140D02*
Y1011D01*
X1305Y1380D02*
X1509D01*
X1060Y140D02*
X1105Y95D01*
X1556Y1375D02*
Y1460D01*
X960Y140D02*
Y844D01*
X3829Y1559D02*
X3870Y1600D01*
X4061Y744D02*
Y753D01*
X2725Y584D02*
Y1211D01*
X2691Y550D02*
X2725Y584D01*
X1140Y1069D02*
Y1416D01*
X660Y140D02*
Y589D01*
X4250Y1680D02*
Y1700D01*
X4170Y1600D02*
X4250Y1680D01*
X2150Y1880D02*
Y2070D01*
X2110Y1840D02*
X2150Y1880D01*
X1800Y1950D02*
X1860Y1890D01*
Y140D02*
Y1890D01*
X380Y1125D02*
Y1440D01*
X940Y1370D02*
X1620Y2050D01*
X940Y1300D02*
X1000Y1240D01*
X2000Y2320D02*
X2050Y2370D01*
X1900Y1650D02*
X2035Y1785D01*
X1900Y1202D02*
Y1650D01*
X2210Y2410D02*
X2250Y2370D01*
X1162Y1278D02*
X1200Y1240D01*
X4374Y848D02*
X4415Y808D01*
X4374Y1304D02*
X4480Y1410D01*
X3885Y2135D02*
X3950Y2200D01*
X1981Y1413D02*
X2230Y1662D01*
X3961Y2409D02*
X4170Y2200D01*
X1928Y1241D02*
Y1567D01*
X1060Y1422D02*
X1281Y1643D01*
X860Y1240D02*
X910Y1190D01*
X1760Y140D02*
Y819D01*
X1700Y1880D02*
Y2050D01*
X1660Y1840D02*
X1700Y1880D01*
X1616Y1796D02*
X1660Y1840D01*
X380Y1540D02*
Y1875D01*
X2644Y1740D02*
X2730D01*
X2870Y1600D01*
X3043Y1673D02*
Y1720D01*
X2970Y1600D02*
X3043Y1673D01*
X4340Y260D02*
Y830D01*
X4075Y960D02*
X4260Y775D01*
X4010Y960D02*
X4075D01*
X2324Y176D02*
Y1554D01*
X4493Y1216D02*
X4560Y1283D01*
X4020Y1581D02*
X4141Y1460D01*
X4020Y1581D02*
Y1631D01*
X4000Y1651D02*
X4020Y1631D01*
X3070Y1200D02*
X3270D01*
X4415Y1178D02*
X4516Y1279D01*
Y2174D01*
X3565Y920D02*
X3585Y900D01*
X3440Y920D02*
X3565D01*
X3420Y940D02*
X3440Y920D01*
X3420Y940D02*
Y1550D01*
X3332Y1620D02*
X3352Y1640D01*
X3430D01*
X1105Y95D02*
X1180D01*
X1203Y118D01*
Y941D01*
X1300Y1038D01*
Y1375D01*
X1305Y1380D01*
X960Y844D02*
X1238Y1122D01*
Y1471D01*
X1247Y1480D01*
X1536D01*
X1556Y1460D01*
X3829Y985D02*
X4061Y753D01*
X3829Y985D02*
Y1559D01*
X4374Y848D02*
Y1304D01*
X3060Y2135D02*
X3885D01*
X3030Y2105D02*
X3060Y2135D01*
X3030Y1900D02*
Y2105D01*
X3010Y1880D02*
X3030Y1900D01*
X2641Y1880D02*
X3010D01*
X2423Y1662D02*
X2641Y1880D01*
X2230Y1662D02*
X2423D01*
X1928Y1567D02*
X2407Y2046D01*
Y2276D01*
X2540Y2409D01*
X3961D01*
X1060Y1210D02*
Y1422D01*
X1040Y1190D02*
X1060Y1210D01*
X910Y1190D02*
X1040D01*
X1616Y963D02*
X1760Y819D01*
X1616Y963D02*
Y1796D01*
X1162Y1278D02*
Y1474D01*
X1664Y1976D01*
Y2380D01*
X1694Y2410D01*
X2210D01*
X1266Y1383D02*
X1307Y1424D01*
X1266Y1117D02*
Y1383D01*
X1160Y1011D02*
X1266Y1117D01*
X2309Y126D02*
Y1561D01*
Y126D02*
X2340Y95D01*
X2415D01*
X940Y1300D02*
Y1370D01*
X660Y589D02*
X1140Y1069D01*
X3808Y960D02*
X3960Y808D01*
X3710Y960D02*
X3808D01*
X4067Y947D02*
X4160Y854D01*
X3923Y947D02*
X4067D01*
X4040Y723D02*
X4060Y703D01*
X4040Y723D02*
Y755D01*
X3818Y977D02*
X4040Y755D01*
X3818Y977D02*
Y985D01*
X3803Y1000D02*
X3818Y985D01*
X3116Y384D02*
Y954D01*
X3140Y1528D02*
X3198D01*
X3120Y1548D02*
X3140Y1528D01*
X3120Y1548D02*
Y1620D01*
X3100Y1640D02*
X3120Y1620D01*
X3051Y1640D02*
X3100D01*
X3031Y1620D02*
X3051Y1640D01*
X3031Y960D02*
Y1620D01*
Y960D02*
X3094Y897D01*
X1340Y1300D02*
X1447Y1193D01*
Y773D02*
Y1193D01*
Y773D02*
X1610Y610D01*
Y120D02*
Y610D01*
Y120D02*
X1635Y95D01*
X2115D01*
X2253Y82D02*
X2502D01*
X2217Y118D02*
X2253Y82D01*
X2217Y118D02*
Y947D01*
X4318Y182D02*
Y752D01*
X3768Y948D02*
X3860Y856D01*
X3622Y948D02*
X3768D01*
X3534Y936D02*
X3743D01*
X3772Y907D01*
Y420D02*
Y907D01*
X3760Y408D02*
X3772Y420D01*
X2000Y2032D02*
Y2320D01*
Y2032D02*
X2035Y1997D01*
Y1785D02*
Y1997D01*
X4764Y2133D02*
X4800Y2169D01*
X4764Y1446D02*
Y2133D01*
X3540Y520D02*
X3560Y500D01*
D11*
X0Y2500D02*
X5000D01*
Y0D02*
Y2500D01*
X0Y0D02*
X5000D01*
X0D02*
Y2500D01*
D12*
X4277Y2417D02*
G03*
X4163Y2417I-57J0D01*
G01*
X4057D02*
G03*
X3943Y2417I-57J0D01*
G01*
X4597D02*
G03*
X4483Y2417I-57J0D01*
G01*
X3517D02*
G03*
X3403Y2417I-57J0D01*
G01*
X3737D02*
G03*
X3623Y2417I-57J0D01*
G01*
D13*
X4133Y2121D02*
X4307D01*
Y2373D01*
X4133D02*
X4307D01*
X4133Y2121D02*
Y2373D01*
X4163D02*
Y2417D01*
X4277Y2373D02*
Y2417D01*
X3913Y2121D02*
X4087D01*
Y2373D01*
X3913D02*
X4087D01*
X3913Y2121D02*
Y2373D01*
X3943D02*
Y2417D01*
X4057Y2373D02*
Y2417D01*
X4453Y2121D02*
X4627D01*
Y2373D01*
X4453D02*
X4627D01*
X4453Y2121D02*
Y2373D01*
X4483D02*
Y2417D01*
X4597Y2373D02*
Y2417D01*
X3373Y2121D02*
X3547D01*
Y2373D01*
X3373D02*
X3547D01*
X3373Y2121D02*
Y2373D01*
X3403D02*
Y2417D01*
X3517Y2373D02*
Y2417D01*
X3593Y2121D02*
X3767D01*
Y2373D01*
X3593D02*
X3767D01*
X3593Y2121D02*
Y2373D01*
X3623D02*
Y2417D01*
X3737Y2373D02*
Y2417D01*
D14*
X200Y200D02*
D03*
Y2300D02*
D03*
X4800Y200D02*
D03*
Y2300D02*
D03*
D15*
X2410Y1840D02*
D03*
X2110D02*
D03*
X1620Y2350D02*
D03*
Y2050D02*
D03*
X1700D02*
D03*
Y2350D02*
D03*
X2836Y1740D02*
D03*
X2644D02*
D03*
X4480Y1710D02*
D03*
X4800D02*
D03*
X4720D02*
D03*
X4880D02*
D03*
X4560D02*
D03*
X4640D02*
D03*
X4480Y1410D02*
D03*
X1900Y1650D02*
D03*
X1800Y1950D02*
D03*
Y1650D02*
D03*
X4250Y1700D02*
D03*
X3950D02*
D03*
X4800Y1410D02*
D03*
X4720D02*
D03*
X1900Y1950D02*
D03*
X4880Y1410D02*
D03*
X4560D02*
D03*
X4640D02*
D03*
D16*
X3280Y1900D02*
D03*
X3540Y880D02*
D03*
X1660Y1840D02*
D03*
X3240Y1720D02*
D03*
X2180D02*
D03*
X4340Y1460D02*
D03*
X2740Y1940D02*
D03*
X2000Y1960D02*
D03*
D17*
X3083Y1900D02*
D03*
X3737Y880D02*
D03*
X3043Y1720D02*
D03*
X2377D02*
D03*
X4340Y1657D02*
D03*
X1660Y1643D02*
D03*
X2937Y1940D02*
D03*
X2197Y1960D02*
D03*
D18*
X2980Y2070D02*
D03*
X2880D02*
D03*
X2580Y2370D02*
D03*
X3180Y2070D02*
D03*
X2580D02*
D03*
X2880Y2370D02*
D03*
X2680Y2070D02*
D03*
Y2370D02*
D03*
X2780D02*
D03*
X3080D02*
D03*
X2980D02*
D03*
X2780Y2070D02*
D03*
X3080D02*
D03*
X2970Y1600D02*
D03*
X2870D02*
D03*
X2470D02*
D03*
Y1000D02*
D03*
X2570D02*
D03*
X4070Y1600D02*
D03*
X3970D02*
D03*
X3870D02*
D03*
X3770D02*
D03*
X3670D02*
D03*
X3570D02*
D03*
X3470D02*
D03*
X3370D02*
D03*
X3270D02*
D03*
X3170D02*
D03*
X3370Y1000D02*
D03*
X3070Y1600D02*
D03*
X3270Y1000D02*
D03*
X2770Y1600D02*
D03*
X2670D02*
D03*
X2570D02*
D03*
X2370D02*
D03*
X2270D02*
D03*
Y1000D02*
D03*
X2370D02*
D03*
X2670D02*
D03*
X2770D02*
D03*
X2870D02*
D03*
X2970D02*
D03*
X3070D02*
D03*
X3170D02*
D03*
X3470D02*
D03*
X3570D02*
D03*
X3670D02*
D03*
X3770D02*
D03*
X3870D02*
D03*
X3970D02*
D03*
X4070D02*
D03*
X4170D02*
D03*
X2150Y2370D02*
D03*
X2050D02*
D03*
X1950D02*
D03*
X2250Y2070D02*
D03*
X2150D02*
D03*
X2050D02*
D03*
X1950D02*
D03*
D19*
X3180Y2370D02*
D03*
X4170Y1600D02*
D03*
X2250Y2370D02*
D03*
D20*
X1860Y140D02*
D03*
X1760D02*
D03*
X4460D02*
D03*
X4360D02*
D03*
X4260D02*
D03*
X4160D02*
D03*
X4060D02*
D03*
X3960D02*
D03*
X3860D02*
D03*
X3760D02*
D03*
X3660D02*
D03*
X3560D02*
D03*
X3460D02*
D03*
X3360D02*
D03*
X3260D02*
D03*
X3160D02*
D03*
X3060D02*
D03*
X2960D02*
D03*
X2860D02*
D03*
X2760D02*
D03*
X2660D02*
D03*
X2560D02*
D03*
X2460D02*
D03*
X2360D02*
D03*
X2260D02*
D03*
X2160D02*
D03*
X2060D02*
D03*
X1960D02*
D03*
X1660D02*
D03*
X1560D02*
D03*
X1460D02*
D03*
X1360D02*
D03*
X1260D02*
D03*
X1160D02*
D03*
X1060D02*
D03*
X960D02*
D03*
X860D02*
D03*
X760D02*
D03*
X660D02*
D03*
D21*
X1000Y1240D02*
D03*
Y1340D02*
D03*
X1100Y1240D02*
D03*
Y1340D02*
D03*
X1200Y1240D02*
D03*
X860Y1340D02*
D03*
X1340Y1240D02*
D03*
X1480Y1340D02*
D03*
X380Y1540D02*
D03*
D22*
X1200Y1340D02*
D03*
X860Y1240D02*
D03*
X1340Y1340D02*
D03*
X1480Y1240D02*
D03*
X380Y1440D02*
D03*
D23*
X4493Y906D02*
D03*
X4415Y906D02*
D03*
Y808D02*
D03*
X4493D02*
D03*
D24*
X4600Y1094D02*
D03*
Y620D02*
D03*
D25*
X4100Y720D02*
D03*
D26*
Y820D02*
D03*
D27*
X380Y1125D02*
D03*
Y1875D02*
D03*
D28*
X560Y140D02*
D03*
D29*
X4170Y2200D02*
D03*
X4270D02*
D03*
X3950D02*
D03*
X4050D02*
D03*
X4590D02*
D03*
X3410D02*
D03*
X3510D02*
D03*
X3630D02*
D03*
X3730D02*
D03*
X4490D02*
D03*
D30*
X1587Y1376D02*
D03*
X3585Y206D02*
D03*
X3332Y662D02*
D03*
X1509Y1380D02*
D03*
X1556Y1375D02*
D03*
X4061Y744D02*
D03*
X2725Y1211D02*
D03*
X2691Y550D02*
D03*
X1981Y1413D02*
D03*
X1928Y1241D02*
D03*
X1281Y1643D02*
D03*
X1900Y1202D02*
D03*
X1525Y1424D02*
D03*
X1960Y1560D02*
D03*
X1140Y1416D02*
D03*
X2060Y1383D02*
D03*
X3094Y370D02*
D03*
M02*
