%FSLAX23Y23*%
%MOIN*%
G70*
G01*
G75*
%ADD10C,0.020*%
%ADD11R,1.800X1.800*%
%ADD12C,0.010*%
%ADD13C,0.275*%
%ADD14C,0.180*%
%ADD15C,0.065*%
%ADD16R,0.047X0.047*%
%ADD17C,0.047*%
%ADD18R,0.053X0.053*%
%ADD19C,0.053*%
%ADD20C,0.055*%
%ADD21P,0.055X8X0*%
%ADD22C,0.059*%
%ADD23R,0.059X0.059*%
%ADD24C,0.008*%
%ADD25C,0.006*%
D12*
X7214Y7332D02*
Y7480D01*
X6740Y7332D02*
Y7480D01*
Y7332D02*
X7214D01*
X6740Y7680D02*
Y7986D01*
X7214Y7680D02*
Y7986D01*
X6740D02*
X7214D01*
X7320Y6870D02*
X7310Y6860D01*
X7290D01*
X7280Y6870D01*
Y6910D01*
X7290Y6920D01*
X7310D01*
X7320Y6910D01*
X7380Y6860D02*
X7360Y6870D01*
X7340Y6890D01*
Y6910D01*
X7350Y6920D01*
X7370D01*
X7380Y6910D01*
Y6900D01*
X7370Y6890D01*
X7340D01*
X2310Y4180D02*
X2300Y4190D01*
Y4210D01*
X2310Y4220D01*
X2350D01*
X2360Y4210D01*
Y4190D01*
X2350Y4180D01*
X2300Y4120D02*
Y4160D01*
X2330D01*
X2320Y4140D01*
Y4130D01*
X2330Y4120D01*
X2350D01*
X2360Y4130D01*
Y4150D01*
X2350Y4160D01*
X6990Y3280D02*
X6980Y3290D01*
Y3310D01*
X6990Y3320D01*
X7030D01*
X7040Y3310D01*
Y3290D01*
X7030Y3280D01*
X7040Y3230D02*
X6980D01*
X7010Y3260D01*
Y3220D01*
X6900Y4000D02*
X6910D01*
X6930Y3980D01*
X6910Y3960D01*
X6900D01*
X6930Y3980D02*
X6960D01*
Y3940D02*
Y3920D01*
Y3930D01*
X6900D01*
X6910Y3940D01*
X6200Y3680D02*
X6250D01*
X6260Y3670D01*
Y3650D01*
X6250Y3640D01*
X6200D01*
X6260Y3620D02*
Y3600D01*
Y3610D01*
X6200D01*
X6210Y3620D01*
X6300Y3940D02*
X6240D01*
Y3910D01*
X6250Y3900D01*
X6270D01*
X6280Y3910D01*
Y3940D01*
Y3920D02*
X6300Y3900D01*
Y3840D02*
Y3880D01*
X6260Y3840D01*
X6250D01*
X6240Y3850D01*
Y3870D01*
X6250Y3880D01*
X7820Y3380D02*
X7760D01*
Y3350D01*
X7770Y3340D01*
X7790D01*
X7800Y3350D01*
Y3380D01*
Y3360D02*
X7820Y3340D01*
Y3320D02*
Y3300D01*
Y3310D01*
X7760D01*
X7770Y3320D01*
X6289Y7189D02*
Y7129D01*
X6249D01*
X6189D02*
X6229D01*
X6189Y7169D01*
Y7179D01*
X6199Y7189D01*
X6219D01*
X6229Y7179D01*
X6169Y7189D02*
X6129D01*
Y7179D01*
X6169Y7139D01*
Y7129D01*
X831Y2329D02*
X891D01*
Y2289D01*
Y2229D02*
Y2269D01*
X851Y2229D01*
X841D01*
X831Y2239D01*
Y2259D01*
X841Y2269D01*
X831Y2169D02*
X841Y2189D01*
X861Y2209D01*
X881D01*
X891Y2199D01*
Y2179D01*
X881Y2169D01*
X871D01*
X861Y2179D01*
Y2209D01*
X4831Y2309D02*
X4891D01*
Y2269D01*
Y2209D02*
Y2249D01*
X4851Y2209D01*
X4841D01*
X4831Y2219D01*
Y2239D01*
X4841Y2249D01*
X4831Y2149D02*
Y2189D01*
X4861D01*
X4851Y2169D01*
Y2159D01*
X4861Y2149D01*
X4881D01*
X4891Y2159D01*
Y2179D01*
X4881Y2189D01*
X7398Y7377D02*
Y7357D01*
Y7367D01*
X7348D01*
X7338Y7357D01*
Y7347D01*
X7348Y7337D01*
X7338Y7397D02*
Y7417D01*
Y7407D01*
X7398D01*
X7388Y7397D01*
X6000Y7150D02*
X6010Y7160D01*
X6030D01*
X6040Y7150D01*
Y7110D01*
X6030Y7100D01*
X6010D01*
X6000Y7110D01*
X5940Y7100D02*
X5980D01*
X5940Y7140D01*
Y7150D01*
X5950Y7160D01*
X5970D01*
X5980Y7150D01*
X5920D02*
X5910Y7160D01*
X5890D01*
X5880Y7150D01*
Y7140D01*
X5890Y7130D01*
X5900D01*
X5890D01*
X5880Y7120D01*
Y7110D01*
X5890Y7100D01*
X5910D01*
X5920Y7110D01*
X890Y2060D02*
X880Y2070D01*
Y2090D01*
X890Y2100D01*
X930D01*
X940Y2090D01*
Y2070D01*
X930Y2060D01*
X940Y2000D02*
Y2040D01*
X900Y2000D01*
X890D01*
X880Y2010D01*
Y2030D01*
X890Y2040D01*
X940Y1940D02*
Y1980D01*
X900Y1940D01*
X890D01*
X880Y1950D01*
Y1970D01*
X890Y1980D01*
X4890Y2040D02*
X4880Y2050D01*
Y2070D01*
X4890Y2080D01*
X4930D01*
X4940Y2070D01*
Y2050D01*
X4930Y2040D01*
X4940Y1980D02*
Y2020D01*
X4900Y1980D01*
X4890D01*
X4880Y1990D01*
Y2010D01*
X4890Y2020D01*
X4940Y1960D02*
Y1940D01*
Y1950D01*
X4880D01*
X4890Y1960D01*
X8890Y2060D02*
X8880Y2070D01*
Y2090D01*
X8890Y2100D01*
X8930D01*
X8940Y2090D01*
Y2070D01*
X8930Y2060D01*
X8940Y2000D02*
Y2040D01*
X8900Y2000D01*
X8890D01*
X8880Y2010D01*
Y2030D01*
X8890Y2040D01*
Y1980D02*
X8880Y1970D01*
Y1950D01*
X8890Y1940D01*
X8930D01*
X8940Y1950D01*
Y1970D01*
X8930Y1980D01*
X8890D01*
X7870Y3940D02*
X7860Y3950D01*
Y3970D01*
X7870Y3980D01*
X7910D01*
X7920Y3970D01*
Y3950D01*
X7910Y3940D01*
X7870Y3920D02*
X7860Y3910D01*
Y3890D01*
X7870Y3880D01*
X7880D01*
X7890Y3890D01*
Y3900D01*
Y3890D01*
X7900Y3880D01*
X7910D01*
X7920Y3890D01*
Y3910D01*
X7910Y3920D01*
X7270Y4400D02*
X7260Y4410D01*
Y4430D01*
X7270Y4440D01*
X7310D01*
X7320Y4430D01*
Y4410D01*
X7310Y4400D01*
X7320Y4340D02*
Y4380D01*
X7280Y4340D01*
X7270D01*
X7260Y4350D01*
Y4370D01*
X7270Y4380D01*
X7090Y4380D02*
X7080Y4390D01*
Y4410D01*
X7090Y4420D01*
X7130D01*
X7140Y4410D01*
Y4390D01*
X7130Y4380D01*
X7140Y4360D02*
Y4340D01*
Y4350D01*
X7080D01*
X7090Y4360D01*
X2750Y4760D02*
X2740Y4770D01*
Y4790D01*
X2750Y4800D01*
X2790D01*
X2800Y4790D01*
Y4770D01*
X2790Y4760D01*
X2800Y4740D02*
Y4720D01*
Y4730D01*
X2740D01*
X2750Y4740D01*
X2800Y4660D02*
X2740D01*
X2770Y4690D01*
Y4650D01*
X2950Y3640D02*
X2940Y3650D01*
Y3670D01*
X2950Y3680D01*
X2990D01*
X3000Y3670D01*
Y3650D01*
X2990Y3640D01*
X3000Y3620D02*
Y3600D01*
Y3610D01*
X2940D01*
X2950Y3620D01*
X2940Y3530D02*
X2950Y3550D01*
X2970Y3570D01*
X2990D01*
X3000Y3560D01*
Y3540D01*
X2990Y3530D01*
X2980D01*
X2970Y3540D01*
Y3570D01*
X3350Y4760D02*
X3340Y4770D01*
Y4790D01*
X3350Y4800D01*
X3390D01*
X3400Y4790D01*
Y4770D01*
X3390Y4760D01*
X3400Y4740D02*
Y4720D01*
Y4730D01*
X3340D01*
X3350Y4740D01*
X3340Y4690D02*
Y4650D01*
X3350D01*
X3390Y4690D01*
X3400D01*
X3150Y4760D02*
X3140Y4770D01*
Y4790D01*
X3150Y4800D01*
X3190D01*
X3200Y4790D01*
Y4770D01*
X3190Y4760D01*
X3200Y4740D02*
Y4720D01*
Y4730D01*
X3140D01*
X3150Y4740D01*
Y4690D02*
X3140Y4680D01*
Y4660D01*
X3150Y4650D01*
X3160D01*
X3170Y4660D01*
X3180Y4650D01*
X3190D01*
X3200Y4660D01*
Y4680D01*
X3190Y4690D01*
X3180D01*
X3170Y4680D01*
X3160Y4690D01*
X3150D01*
X3170Y4680D02*
Y4660D01*
X3150Y3640D02*
X3140Y3650D01*
Y3670D01*
X3150Y3680D01*
X3190D01*
X3200Y3670D01*
Y3650D01*
X3190Y3640D01*
X3200Y3620D02*
Y3600D01*
Y3610D01*
X3140D01*
X3150Y3620D01*
X3190Y3570D02*
X3200Y3560D01*
Y3540D01*
X3190Y3530D01*
X3150D01*
X3140Y3540D01*
Y3560D01*
X3150Y3570D01*
X3160D01*
X3170Y3560D01*
Y3530D01*
X2640Y3940D02*
X2580D01*
Y3910D01*
X2590Y3900D01*
X2610D01*
X2620Y3910D01*
Y3940D01*
Y3920D02*
X2640Y3900D01*
X2580Y3840D02*
X2590Y3860D01*
X2610Y3880D01*
X2630D01*
X2640Y3870D01*
Y3850D01*
X2630Y3840D01*
X2620D01*
X2610Y3850D01*
Y3880D01*
X2800Y3580D02*
X2740D01*
Y3550D01*
X2750Y3540D01*
X2770D01*
X2780Y3550D01*
Y3580D01*
Y3560D02*
X2800Y3540D01*
X2740Y3520D02*
Y3480D01*
X2750D01*
X2790Y3520D01*
X2800D01*
X2640Y4860D02*
X2580D01*
Y4830D01*
X2590Y4820D01*
X2610D01*
X2620Y4830D01*
Y4860D01*
Y4840D02*
X2640Y4820D01*
X2590Y4800D02*
X2580Y4790D01*
Y4770D01*
X2590Y4760D01*
X2600D01*
X2610Y4770D01*
X2620Y4760D01*
X2630D01*
X2640Y4770D01*
Y4790D01*
X2630Y4800D01*
X2620D01*
X2610Y4790D01*
X2600Y4800D01*
X2590D01*
X2610Y4790D02*
Y4770D01*
X3100Y3300D02*
X3040D01*
Y3270D01*
X3050Y3260D01*
X3070D01*
X3080Y3270D01*
Y3300D01*
Y3280D02*
X3100Y3260D01*
Y3240D02*
Y3220D01*
Y3230D01*
X3040D01*
X3050Y3240D01*
Y3190D02*
X3040Y3180D01*
Y3160D01*
X3050Y3150D01*
X3060D01*
X3070Y3160D01*
Y3170D01*
Y3160D01*
X3080Y3150D01*
X3090D01*
X3100Y3160D01*
Y3180D01*
X3090Y3190D01*
X3560Y3940D02*
X3500D01*
Y3910D01*
X3510Y3900D01*
X3530D01*
X3540Y3910D01*
Y3940D01*
Y3920D02*
X3560Y3900D01*
Y3880D02*
Y3860D01*
Y3870D01*
X3500D01*
X3510Y3880D01*
Y3830D02*
X3500Y3820D01*
Y3800D01*
X3510Y3790D01*
X3550D01*
X3560Y3800D01*
Y3820D01*
X3550Y3830D01*
X3510D01*
X3400Y3560D02*
X3340D01*
Y3530D01*
X3350Y3520D01*
X3370D01*
X3380Y3530D01*
Y3560D01*
Y3540D02*
X3400Y3520D01*
Y3500D02*
Y3480D01*
Y3490D01*
X3340D01*
X3350Y3500D01*
X3400Y3450D02*
Y3430D01*
Y3440D01*
X3340D01*
X3350Y3450D01*
X3560Y4900D02*
X3500D01*
Y4870D01*
X3510Y4860D01*
X3530D01*
X3540Y4870D01*
Y4900D01*
Y4880D02*
X3560Y4860D01*
Y4840D02*
Y4820D01*
Y4830D01*
X3500D01*
X3510Y4840D01*
X3560Y4750D02*
Y4790D01*
X3520Y4750D01*
X3510D01*
X3500Y4760D01*
Y4780D01*
X3510Y4790D01*
X2660Y4040D02*
X2710D01*
X2720Y4030D01*
Y4010D01*
X2710Y4000D01*
X2660D01*
X2720Y3940D02*
Y3980D01*
X2680Y3940D01*
X2670D01*
X2660Y3950D01*
Y3970D01*
X2670Y3980D01*
X2950Y4760D02*
X2940Y4770D01*
Y4790D01*
X2950Y4800D01*
X2990D01*
X3000Y4790D01*
Y4770D01*
X2990Y4760D01*
X3000Y4740D02*
Y4720D01*
Y4730D01*
X2940D01*
X2950Y4740D01*
X2940Y4650D02*
Y4690D01*
X2970D01*
X2960Y4670D01*
Y4660D01*
X2970Y4650D01*
X2990D01*
X3000Y4660D01*
Y4680D01*
X2990Y4690D01*
X3100Y5100D02*
X3040D01*
Y5070D01*
X3050Y5060D01*
X3070D01*
X3080Y5070D01*
Y5100D01*
Y5080D02*
X3100Y5060D01*
X3090Y5040D02*
X3100Y5030D01*
Y5010D01*
X3090Y5000D01*
X3050D01*
X3040Y5010D01*
Y5030D01*
X3050Y5040D01*
X3060D01*
X3070Y5030D01*
Y5000D01*
X8831Y2289D02*
X8891D01*
Y2249D01*
Y2189D02*
Y2229D01*
X8851Y2189D01*
X8841D01*
X8831Y2199D01*
Y2219D01*
X8841Y2229D01*
X8891Y2139D02*
X8831D01*
X8861Y2169D01*
Y2129D01*
X0Y0D02*
X10000D01*
Y8000D01*
X0D02*
X10000D01*
X0Y0D02*
Y8000D01*
D24*
X7462Y7080D02*
G03*
X7462Y7080I-132J0D01*
G01*
X2427Y4230D02*
G03*
X2418Y4092I33J-72D01*
G01*
X2502D02*
G03*
X2493Y4230I-42J66D01*
G01*
X7130Y3227D02*
G03*
X7268Y3218I72J33D01*
G01*
Y3302D02*
G03*
X7130Y3293I-66J-42D01*
G01*
X5170Y2073D02*
G03*
X5032Y2082I-72J-33D01*
G01*
Y1998D02*
G03*
X5170Y2007I66J42D01*
G01*
X6053Y6850D02*
G03*
X6062Y6988I-33J72D01*
G01*
X5978D02*
G03*
X5987Y6850I42J-66D01*
G01*
X1170Y2093D02*
G03*
X1032Y2102I-72J-33D01*
G01*
Y2018D02*
G03*
X1170Y2027I66J42D01*
G01*
X9170Y2073D02*
G03*
X9032Y2082I-72J-33D01*
G01*
Y1998D02*
G03*
X9170Y2007I66J42D01*
G01*
X7133Y4090D02*
G03*
X7142Y4228I-33J72D01*
G01*
X7058D02*
G03*
X7067Y4090I42J-66D01*
G01*
X7333D02*
G03*
X7342Y4228I-33J72D01*
G01*
X7258D02*
G03*
X7267Y4090I42J-66D01*
G01*
X7790Y3953D02*
G03*
X7652Y3962I-72J-33D01*
G01*
Y3878D02*
G03*
X7790Y3887I66J42D01*
G01*
X6287Y3555D02*
G03*
X6287Y3605I0J25D01*
G01*
X3013Y3770D02*
G03*
X3022Y3908I-33J72D01*
G01*
X2938D02*
G03*
X2947Y3770I42J-66D01*
G01*
X3213D02*
G03*
X3222Y3908I-33J72D01*
G01*
X3138D02*
G03*
X3147Y3770I42J-66D01*
G01*
X2947Y4550D02*
G03*
X2938Y4412I33J-72D01*
G01*
X3022D02*
G03*
X3013Y4550I-42J66D01*
G01*
X3413Y4410D02*
G03*
X3422Y4548I-33J72D01*
G01*
X3338D02*
G03*
X3347Y4410I42J-66D01*
G01*
X3147Y4550D02*
G03*
X3138Y4412I33J-72D01*
G01*
X3222D02*
G03*
X3213Y4550I-42J66D01*
G01*
X2813Y4410D02*
G03*
X2822Y4548I-33J72D01*
G01*
X2738D02*
G03*
X2747Y4410I42J-66D01*
G01*
X2692Y4135D02*
G03*
X2692Y4185I0J25D01*
G01*
X4925Y2315D02*
X5275D01*
Y2165D02*
Y2315D01*
X4925Y2165D02*
X5275D01*
X4925D02*
Y2315D01*
X6295Y6745D02*
Y7095D01*
X6145Y6745D02*
X6295D01*
X6145D02*
Y7095D01*
X6295D01*
X925Y2335D02*
X1275D01*
Y2185D02*
Y2335D01*
X925Y2185D02*
X1275D01*
X925D02*
Y2335D01*
X8925Y2295D02*
X9275D01*
Y2145D02*
Y2295D01*
X8925Y2145D02*
X9275D01*
X8925D02*
Y2295D01*
X6600Y3830D02*
Y3860D01*
X6400Y3830D02*
X6600D01*
X6400D02*
Y3890D01*
X6600D01*
Y3860D02*
Y3890D01*
X6391Y3860D02*
X6400D01*
X6600D02*
X6609D01*
X7770Y3480D02*
X7800D01*
X7770D02*
Y3680D01*
X7830D01*
Y3480D02*
Y3680D01*
X7800Y3480D02*
X7830D01*
X7800Y3680D02*
Y3689D01*
Y3471D02*
Y3480D01*
X6976Y3807D02*
Y3993D01*
Y3807D02*
X7424D01*
Y3993D01*
X6976D02*
X7424D01*
X6287Y3476D02*
X7713D01*
X6287Y3684D02*
X7713D01*
Y3476D02*
Y3684D01*
X6287Y3476D02*
Y3555D01*
Y3605D02*
Y3684D01*
X2780Y3880D02*
X2810D01*
Y3680D02*
Y3880D01*
X2750Y3680D02*
X2810D01*
X2750D02*
Y3880D01*
X2780D01*
Y3671D02*
Y3680D01*
Y3880D02*
Y3889D01*
X2590Y4060D02*
X2620D01*
X2590D02*
Y4260D01*
X2650D01*
Y4060D02*
Y4260D01*
X2620Y4060D02*
X2650D01*
X2620Y4260D02*
Y4269D01*
Y4051D02*
Y4060D01*
X2590Y4440D02*
X2620D01*
X2590D02*
Y4640D01*
X2650D01*
Y4440D02*
Y4640D01*
X2620Y4440D02*
X2650D01*
X2620Y4640D02*
Y4649D01*
Y4431D02*
Y4440D01*
X3080Y3620D02*
X3110D01*
Y3420D02*
Y3620D01*
X3050Y3420D02*
X3110D01*
X3050D02*
Y3620D01*
X3080D01*
Y3411D02*
Y3420D01*
Y3620D02*
Y3629D01*
X3380Y3880D02*
X3410D01*
Y3680D02*
Y3880D01*
X3350Y3680D02*
X3410D01*
X3350D02*
Y3880D01*
X3380D01*
Y3671D02*
Y3680D01*
Y3880D02*
Y3889D01*
X3510Y4060D02*
X3540D01*
X3510D02*
Y4260D01*
X3570D01*
Y4060D02*
Y4260D01*
X3540Y4060D02*
X3570D01*
X3540Y4260D02*
Y4269D01*
Y4051D02*
Y4060D01*
X3510Y4440D02*
X3540D01*
X3510D02*
Y4640D01*
X3570D01*
Y4440D02*
Y4640D01*
X3540Y4440D02*
X3570D01*
X3540Y4640D02*
Y4649D01*
Y4431D02*
Y4440D01*
X3050Y4700D02*
X3080D01*
X3050D02*
Y4900D01*
X3110D01*
Y4700D02*
Y4900D01*
X3080Y4700D02*
X3110D01*
X3080Y4900D02*
Y4909D01*
Y4691D02*
Y4700D01*
X2692Y4056D02*
X3468D01*
X2692Y4264D02*
X3468D01*
Y4056D02*
Y4264D01*
X2692Y4056D02*
Y4135D01*
Y4185D02*
Y4264D01*
D25*
X7220Y7190D02*
X7181D01*
X7200Y7209D02*
Y7170D01*
M02*
