%FSLAX23Y23*%
%MOIN*%
G70*
G01*
G75*
%ADD10C,0.006*%
%ADD11C,0.010*%
%ADD12C,0.001*%
%ADD13C,0.001*%
%ADD14C,0.250*%
%ADD15C,0.055*%
%ADD16R,0.053X0.053*%
%ADD17C,0.053*%
%ADD18C,0.059*%
%ADD19R,0.059X0.059*%
%ADD20C,0.070*%
%ADD21C,0.059*%
%ADD22R,0.059X0.059*%
%ADD23C,0.065*%
%ADD24C,0.180*%
%ADD25C,0.047*%
%ADD26R,0.047X0.047*%
%ADD27O,0.500X0.400*%
%ADD28R,0.070X0.070*%
%ADD29C,0.063*%
%ADD30C,0.025*%
%ADD31C,0.008*%
%ADD32C,0.005*%
%ADD33C,0.006*%
D11*
X5006Y620D02*
Y1094D01*
X4700D02*
X5006D01*
X4700Y620D02*
X5006D01*
X4352D02*
Y1094D01*
Y620D02*
X4500D01*
X4352Y1094D02*
X4500D01*
X660Y1520D02*
Y2100D01*
X100Y1500D02*
Y2100D01*
Y900D02*
X380D01*
X100D02*
Y1500D01*
Y2100D02*
X660D01*
Y900D02*
Y1520D01*
X380Y900D02*
X660D01*
X500Y420D02*
Y640D01*
Y80D02*
Y180D01*
Y200D01*
X4520D01*
Y80D02*
Y200D01*
X500Y80D02*
X4520D01*
X380Y2220D02*
X360Y2240D01*
Y2260D01*
X380Y2280D01*
X450Y2270D02*
X440Y2280D01*
X420D01*
X410Y2270D01*
Y2230D01*
X420Y2220D01*
X440D01*
X450Y2230D01*
X470Y2220D02*
X490Y2240D01*
Y2260D01*
X470Y2280D01*
X620Y2220D02*
X580D01*
X620Y2260D01*
Y2270D01*
X610Y2280D01*
X590D01*
X580Y2270D01*
X640D02*
X650Y2280D01*
X670D01*
X680Y2270D01*
Y2230D01*
X670Y2220D01*
X650D01*
X640Y2230D01*
Y2270D01*
X700D02*
X710Y2280D01*
X730D01*
X740Y2270D01*
Y2230D01*
X730Y2220D01*
X710D01*
X700Y2230D01*
Y2270D01*
X760D02*
X770Y2280D01*
X790D01*
X800Y2270D01*
Y2260D01*
X790Y2250D01*
X780D01*
X790D01*
X800Y2240D01*
Y2230D01*
X790Y2220D01*
X770D01*
X760Y2230D01*
X880Y2220D02*
Y2280D01*
X900Y2260D01*
X920Y2280D01*
Y2220D01*
X940D02*
X960D01*
X950D01*
Y2260D01*
X940D01*
X1030D02*
X1000D01*
X990Y2250D01*
Y2230D01*
X1000Y2220D01*
X1030D01*
X1060Y2260D02*
X1080D01*
X1090Y2250D01*
Y2220D01*
X1060D01*
X1050Y2230D01*
X1060Y2240D01*
X1090D01*
X1110Y2280D02*
Y2220D01*
Y2250D01*
X1120Y2260D01*
X1140D01*
X1150Y2250D01*
Y2220D01*
X1230Y2280D02*
Y2220D01*
X1260D01*
X1270Y2230D01*
Y2270D01*
X1260Y2280D01*
X1230D01*
X1300Y2220D02*
X1320D01*
X1330Y2230D01*
Y2250D01*
X1320Y2260D01*
X1300D01*
X1290Y2250D01*
Y2230D01*
X1300Y2220D01*
X1350Y2260D02*
Y2230D01*
X1360Y2220D01*
X1370Y2230D01*
X1380Y2220D01*
X1390Y2230D01*
Y2260D01*
X1420Y2270D02*
Y2260D01*
X1410D01*
X1430D01*
X1420D01*
Y2230D01*
X1430Y2220D01*
X1460Y2260D02*
Y2230D01*
X1470Y2220D01*
X1500D01*
Y2210D01*
X1490Y2200D01*
X1480D01*
X1500Y2220D02*
Y2260D01*
X360Y2360D02*
Y2320D01*
Y2340D01*
X370Y2350D01*
X380Y2360D01*
X390D01*
X460D02*
X430D01*
X420Y2350D01*
Y2330D01*
X430Y2320D01*
X460D01*
X480Y2300D02*
Y2360D01*
X510D01*
X520Y2350D01*
Y2330D01*
X510Y2320D01*
X480D01*
X550D02*
X570D01*
X580Y2330D01*
Y2350D01*
X570Y2360D01*
X550D01*
X540Y2350D01*
Y2330D01*
X550Y2320D01*
X640Y2380D02*
Y2320D01*
X610D01*
X600Y2330D01*
Y2350D01*
X610Y2360D01*
X640D01*
X660Y2350D02*
X700D01*
X750Y2320D02*
Y2380D01*
X720Y2350D01*
X760D01*
X780Y2370D02*
X790Y2380D01*
X810D01*
X820Y2370D01*
Y2360D01*
X810Y2350D01*
X820Y2340D01*
Y2330D01*
X810Y2320D01*
X790D01*
X780Y2330D01*
Y2340D01*
X790Y2350D01*
X780Y2360D01*
Y2370D01*
X790Y2350D02*
X810D01*
X880Y2380D02*
X840D01*
Y2350D01*
X860Y2360D01*
X870D01*
X880Y2350D01*
Y2330D01*
X870Y2320D01*
X850D01*
X840Y2330D01*
X960Y2360D02*
Y2320D01*
Y2340D01*
X970Y2350D01*
X980Y2360D01*
X990D01*
X1050Y2320D02*
X1030D01*
X1020Y2330D01*
Y2350D01*
X1030Y2360D01*
X1050D01*
X1060Y2350D01*
Y2340D01*
X1020D01*
X1080Y2360D02*
X1100Y2320D01*
X1120Y2360D01*
X1200Y2320D02*
Y2360D01*
X1220Y2380D01*
X1240Y2360D01*
Y2320D01*
Y2350D01*
X1200D01*
X2060Y1760D02*
X2000D01*
Y1790D01*
X2010Y1800D01*
X2030D01*
X2040Y1790D01*
Y1760D01*
Y1780D02*
X2060Y1800D01*
X2010Y1820D02*
X2000Y1830D01*
Y1850D01*
X2010Y1860D01*
X2020D01*
X2030Y1850D01*
X2040Y1860D01*
X2050D01*
X2060Y1850D01*
Y1830D01*
X2050Y1820D01*
X2040D01*
X2030Y1830D01*
X2020Y1820D01*
X2010D01*
X2030Y1830D02*
Y1850D01*
X1640Y1900D02*
X1580D01*
Y1930D01*
X1590Y1940D01*
X1610D01*
X1620Y1930D01*
Y1900D01*
Y1920D02*
X1640Y1940D01*
X1580Y2000D02*
X1590Y1980D01*
X1610Y1960D01*
X1630D01*
X1640Y1970D01*
Y1990D01*
X1630Y2000D01*
X1620D01*
X1610Y1990D01*
Y1960D01*
X1720Y1900D02*
X1660D01*
Y1930D01*
X1670Y1940D01*
X1690D01*
X1700Y1930D01*
Y1900D01*
Y1920D02*
X1720Y1940D01*
X1710Y1960D02*
X1720Y1970D01*
Y1990D01*
X1710Y2000D01*
X1670D01*
X1660Y1990D01*
Y1970D01*
X1670Y1960D01*
X1680D01*
X1690Y1970D01*
Y2000D01*
X2990Y1920D02*
X2980Y1910D01*
Y1890D01*
X2990Y1880D01*
X3030D01*
X3040Y1890D01*
Y1910D01*
X3030Y1920D01*
X2980Y1980D02*
Y1940D01*
X3010D01*
X3000Y1960D01*
Y1970D01*
X3010Y1980D01*
X3030D01*
X3040Y1970D01*
Y1950D01*
X3030Y1940D01*
X2400Y2220D02*
X2450D01*
X2460Y2230D01*
Y2250D01*
X2450Y2260D01*
X2400D01*
X2410Y2280D02*
X2400Y2290D01*
Y2310D01*
X2410Y2320D01*
X2420D01*
X2430Y2310D01*
Y2300D01*
Y2310D01*
X2440Y2320D01*
X2450D01*
X2460Y2310D01*
Y2290D01*
X2450Y2280D01*
X3790Y860D02*
X3780Y850D01*
Y830D01*
X3790Y820D01*
X3830D01*
X3840Y830D01*
Y850D01*
X3830Y860D01*
X3780Y880D02*
Y920D01*
X3790D01*
X3830Y880D01*
X3840D01*
X2120Y1440D02*
X2170D01*
X2180Y1450D01*
Y1470D01*
X2170Y1480D01*
X2120D01*
X2180Y1500D02*
Y1520D01*
Y1510D01*
X2120D01*
X2130Y1500D01*
X710Y1100D02*
Y1140D01*
Y1860D02*
Y1900D01*
X690Y1880D02*
X730D01*
X2080Y420D02*
X2020D01*
Y450D01*
X2030Y460D01*
X2050D01*
X2060Y450D01*
Y420D01*
Y440D02*
X2080Y460D01*
X2030Y520D02*
X2020Y510D01*
Y490D01*
X2030Y480D01*
X2070D01*
X2080Y490D01*
Y510D01*
X2070Y520D01*
X2080Y540D02*
Y560D01*
Y550D01*
X2020D01*
X2030Y540D01*
X2080Y590D02*
X2040Y630D01*
X2020Y650D02*
Y690D01*
Y670D01*
X2080D01*
Y710D02*
Y730D01*
Y720D01*
X2020D01*
X2030Y710D01*
X2020Y790D02*
Y770D01*
X2030Y760D01*
X2070D01*
X2080Y770D01*
Y790D01*
X2070Y800D01*
X2030D01*
X2020Y790D01*
X2030Y860D02*
X2020Y850D01*
Y830D01*
X2030Y820D01*
X2040D01*
X2050Y830D01*
Y850D01*
X2060Y860D01*
X2070D01*
X2080Y850D01*
Y830D01*
X2070Y820D01*
X2020Y880D02*
Y900D01*
Y890D01*
X2080D01*
Y880D01*
Y900D01*
Y930D02*
X2040Y970D01*
X2030Y1030D02*
X2020Y1020D01*
Y1000D01*
X2030Y990D01*
X2070D01*
X2080Y1000D01*
Y1020D01*
X2070Y1030D01*
X2030Y1090D02*
X2020Y1080D01*
Y1060D01*
X2030Y1050D01*
X2070D01*
X2080Y1060D01*
Y1080D01*
X2070Y1090D01*
X2080Y1110D02*
X2020D01*
Y1140D01*
X2030Y1150D01*
X2050D01*
X2060Y1140D01*
Y1110D01*
X2080Y1210D02*
Y1170D01*
X2040Y1210D01*
X2030D01*
X2020Y1200D01*
Y1180D01*
X2030Y1170D01*
X580Y420D02*
X520D01*
X540Y440D01*
X520Y460D01*
X580D01*
X530Y520D02*
X520Y510D01*
Y490D01*
X530Y480D01*
X570D01*
X580Y490D01*
Y510D01*
X570Y520D01*
X520Y540D02*
X580D01*
Y580D01*
Y600D02*
X520D01*
Y630D01*
X530Y640D01*
X550D01*
X560Y630D01*
Y600D01*
Y620D02*
X580Y640D01*
X680Y420D02*
X620D01*
Y450D01*
X630Y460D01*
X650D01*
X660Y450D01*
Y420D01*
Y440D02*
X680Y460D01*
Y480D02*
X640D01*
X620Y500D01*
X640Y520D01*
X680D01*
X650D01*
Y480D01*
X630Y540D02*
X620Y550D01*
Y570D01*
X630Y580D01*
X670D01*
X680Y570D01*
Y550D01*
X670Y540D01*
X630D01*
X680Y600D02*
X640Y640D01*
X680Y660D02*
X640D01*
X620Y680D01*
X640Y700D01*
X680D01*
X650D01*
Y660D01*
X680Y720D02*
X620D01*
X680Y760D01*
X620D01*
X630Y780D02*
X620Y790D01*
Y810D01*
X630Y820D01*
X670D01*
X680Y810D01*
Y790D01*
X670Y780D01*
X630D01*
X780Y420D02*
X720D01*
Y450D01*
X730Y460D01*
X750D01*
X760Y450D01*
Y420D01*
Y440D02*
X780Y460D01*
Y480D02*
X740D01*
X720Y500D01*
X740Y520D01*
X780D01*
X750D01*
Y480D01*
X780Y540D02*
Y560D01*
Y550D01*
X720D01*
X730Y540D01*
X780Y590D02*
X740Y630D01*
X780Y650D02*
X740D01*
X720Y670D01*
X740Y690D01*
X780D01*
X750D01*
Y650D01*
X780Y710D02*
X720D01*
X780Y750D01*
X720D01*
X780Y770D02*
Y790D01*
Y780D01*
X720D01*
X730Y770D01*
X880Y420D02*
X820D01*
Y450D01*
X830Y460D01*
X850D01*
X860Y450D01*
Y420D01*
Y440D02*
X880Y460D01*
Y480D02*
X840D01*
X820Y500D01*
X840Y520D01*
X880D01*
X850D01*
Y480D01*
X880Y580D02*
Y540D01*
X840Y580D01*
X830D01*
X820Y570D01*
Y550D01*
X830Y540D01*
X880Y600D02*
X840Y640D01*
X880Y660D02*
X840D01*
X820Y680D01*
X840Y700D01*
X880D01*
X850D01*
Y660D01*
X880Y720D02*
X820D01*
X880Y760D01*
X820D01*
X880Y820D02*
Y780D01*
X840Y820D01*
X830D01*
X820Y810D01*
Y790D01*
X830Y780D01*
X980Y420D02*
X920D01*
Y450D01*
X930Y460D01*
X950D01*
X960Y450D01*
Y420D01*
Y440D02*
X980Y460D01*
Y480D02*
X940D01*
X920Y500D01*
X940Y520D01*
X980D01*
X950D01*
Y480D01*
X930Y540D02*
X920Y550D01*
Y570D01*
X930Y580D01*
X940D01*
X950Y570D01*
Y560D01*
Y570D01*
X960Y580D01*
X970D01*
X980Y570D01*
Y550D01*
X970Y540D01*
X980Y600D02*
X940Y640D01*
X980Y660D02*
X940D01*
X920Y680D01*
X940Y700D01*
X980D01*
X950D01*
Y660D01*
X980Y720D02*
X920D01*
X980Y760D01*
X920D01*
X930Y780D02*
X920Y790D01*
Y810D01*
X930Y820D01*
X940D01*
X950Y810D01*
Y800D01*
Y810D01*
X960Y820D01*
X970D01*
X980Y810D01*
Y790D01*
X970Y780D01*
X1080Y420D02*
X1020D01*
Y450D01*
X1030Y460D01*
X1050D01*
X1060Y450D01*
Y420D01*
Y440D02*
X1080Y460D01*
Y480D02*
X1040D01*
X1020Y500D01*
X1040Y520D01*
X1080D01*
X1050D01*
Y480D01*
X1080Y570D02*
X1020D01*
X1050Y540D01*
Y580D01*
X1080Y600D02*
X1040Y640D01*
X1020Y660D02*
Y700D01*
Y680D01*
X1080D01*
X1030Y720D02*
X1020Y730D01*
Y750D01*
X1030Y760D01*
X1070D01*
X1080Y750D01*
Y730D01*
X1070Y720D01*
X1030D01*
Y820D02*
X1020Y810D01*
Y790D01*
X1030Y780D01*
X1070D01*
X1080Y790D01*
Y810D01*
X1070Y820D01*
X1020Y840D02*
X1080D01*
X1060D01*
X1020Y880D01*
X1050Y850D01*
X1080Y880D01*
X1020Y900D02*
Y920D01*
Y910D01*
X1080D01*
Y900D01*
Y920D01*
X1180Y420D02*
X1120D01*
Y450D01*
X1130Y460D01*
X1150D01*
X1160Y450D01*
Y420D01*
Y440D02*
X1180Y460D01*
Y480D02*
X1140D01*
X1120Y500D01*
X1140Y520D01*
X1180D01*
X1150D01*
Y480D01*
X1120Y580D02*
Y540D01*
X1150D01*
X1140Y560D01*
Y570D01*
X1150Y580D01*
X1170D01*
X1180Y570D01*
Y550D01*
X1170Y540D01*
X1180Y600D02*
X1140Y640D01*
X1180Y660D02*
X1140D01*
X1120Y680D01*
X1140Y700D01*
X1180D01*
X1150D01*
Y660D01*
X1180Y720D02*
X1120D01*
X1180Y760D01*
X1120D01*
X1180Y810D02*
X1120D01*
X1150Y780D01*
Y820D01*
X1280Y420D02*
X1220D01*
Y450D01*
X1230Y460D01*
X1250D01*
X1260Y450D01*
Y420D01*
Y440D02*
X1280Y460D01*
X1220Y520D02*
Y480D01*
X1280D01*
Y520D01*
X1250Y480D02*
Y500D01*
X1230Y540D02*
X1220Y550D01*
Y570D01*
X1230Y580D01*
X1270D01*
X1280Y570D01*
Y550D01*
X1270Y540D01*
X1230D01*
X1280Y600D02*
X1240Y640D01*
X1280Y660D02*
X1220D01*
Y690D01*
X1230Y700D01*
X1250D01*
X1260Y690D01*
Y660D01*
Y680D02*
X1280Y700D01*
X1220Y720D02*
X1280D01*
Y750D01*
X1270Y760D01*
X1230D01*
X1220Y750D01*
Y720D01*
X1280Y780D02*
X1240Y820D01*
X1280Y840D02*
X1240D01*
X1220Y860D01*
X1240Y880D01*
X1280D01*
X1250D01*
Y840D01*
X1280Y900D02*
X1220D01*
X1280Y940D01*
X1220D01*
Y1000D02*
Y960D01*
X1250D01*
X1240Y980D01*
Y990D01*
X1250Y1000D01*
X1270D01*
X1280Y990D01*
Y970D01*
X1270Y960D01*
X1380Y420D02*
X1320D01*
Y450D01*
X1330Y460D01*
X1350D01*
X1360Y450D01*
Y420D01*
Y440D02*
X1380Y460D01*
X1320Y520D02*
Y480D01*
X1380D01*
Y520D01*
X1350Y480D02*
Y500D01*
X1380Y540D02*
Y560D01*
Y550D01*
X1320D01*
X1330Y540D01*
X1380Y590D02*
X1340Y630D01*
X1320Y650D02*
X1380D01*
X1360Y670D01*
X1380Y690D01*
X1320D01*
X1380Y710D02*
X1320D01*
Y740D01*
X1330Y750D01*
X1350D01*
X1360Y740D01*
Y710D01*
Y730D02*
X1380Y750D01*
Y770D02*
X1340Y810D01*
X1380Y830D02*
X1340D01*
X1320Y850D01*
X1340Y870D01*
X1380D01*
X1350D01*
Y830D01*
X1380Y890D02*
X1320D01*
X1380Y930D01*
X1320D01*
Y990D02*
X1330Y970D01*
X1350Y950D01*
X1370D01*
X1380Y960D01*
Y980D01*
X1370Y990D01*
X1360D01*
X1350Y980D01*
Y950D01*
X1480Y420D02*
X1420D01*
Y450D01*
X1430Y460D01*
X1450D01*
X1460Y450D01*
Y420D01*
Y440D02*
X1480Y460D01*
X1420Y520D02*
Y480D01*
X1480D01*
Y520D01*
X1450Y480D02*
Y500D01*
X1480Y580D02*
Y540D01*
X1440Y580D01*
X1430D01*
X1420Y570D01*
Y550D01*
X1430Y540D01*
X1480Y600D02*
X1440Y640D01*
X1430Y700D02*
X1420Y690D01*
Y670D01*
X1430Y660D01*
X1470D01*
X1480Y670D01*
Y690D01*
X1470Y700D01*
X1430Y760D02*
X1420Y750D01*
Y730D01*
X1430Y720D01*
X1440D01*
X1450Y730D01*
Y750D01*
X1460Y760D01*
X1470D01*
X1480Y750D01*
Y730D01*
X1470Y720D01*
X1480Y780D02*
X1440Y820D01*
X1480Y840D02*
X1440D01*
X1420Y860D01*
X1440Y880D01*
X1480D01*
X1450D01*
Y840D01*
X1480Y900D02*
X1420D01*
X1480Y940D01*
X1420D01*
Y960D02*
Y1000D01*
X1430D01*
X1470Y960D01*
X1480D01*
X1520Y420D02*
X1560D01*
X1580Y440D01*
X1560Y460D01*
X1520D01*
Y480D02*
X1580D01*
Y510D01*
X1570Y520D01*
X1530D01*
X1520Y510D01*
Y480D01*
Y540D02*
X1580D01*
Y570D01*
X1570Y580D01*
X1530D01*
X1520Y570D01*
Y540D01*
X1620Y420D02*
X1660D01*
X1680Y440D01*
X1660Y460D01*
X1620D01*
X1630Y520D02*
X1620Y510D01*
Y490D01*
X1630Y480D01*
X1640D01*
X1650Y490D01*
Y510D01*
X1660Y520D01*
X1670D01*
X1680Y510D01*
Y490D01*
X1670Y480D01*
X1630Y580D02*
X1620Y570D01*
Y550D01*
X1630Y540D01*
X1640D01*
X1650Y550D01*
Y570D01*
X1660Y580D01*
X1670D01*
X1680Y570D01*
Y550D01*
X1670Y540D01*
X1980Y420D02*
X1920D01*
Y450D01*
X1930Y460D01*
X1950D01*
X1960Y450D01*
Y420D01*
Y440D02*
X1980Y460D01*
X1930Y520D02*
X1920Y510D01*
Y490D01*
X1930Y480D01*
X1970D01*
X1980Y490D01*
Y510D01*
X1970Y520D01*
X1930Y540D02*
X1920Y550D01*
Y570D01*
X1930Y580D01*
X1970D01*
X1980Y570D01*
Y550D01*
X1970Y540D01*
X1930D01*
X1980Y600D02*
X1940Y640D01*
X1920Y660D02*
Y700D01*
Y680D01*
X1980D01*
Y720D02*
Y740D01*
Y730D01*
X1920D01*
X1930Y720D01*
X1920Y800D02*
Y780D01*
X1930Y770D01*
X1970D01*
X1980Y780D01*
Y800D01*
X1970Y810D01*
X1930D01*
X1920Y800D01*
X1930Y870D02*
X1920Y860D01*
Y840D01*
X1930Y830D01*
X1940D01*
X1950Y840D01*
Y860D01*
X1960Y870D01*
X1970D01*
X1980Y860D01*
Y840D01*
X1970Y830D01*
X1920Y920D02*
Y900D01*
X1930Y890D01*
X1970D01*
X1980Y900D01*
Y920D01*
X1970Y930D01*
X1930D01*
X1920Y920D01*
X1980Y950D02*
X1940Y990D01*
X1920Y1010D02*
Y1050D01*
Y1030D01*
X1980D01*
Y1070D02*
Y1090D01*
Y1080D01*
X1920D01*
X1930Y1070D01*
Y1160D02*
X1920Y1150D01*
Y1130D01*
X1930Y1120D01*
X1970D01*
X1980Y1130D01*
Y1150D01*
X1970Y1160D01*
X1920Y1180D02*
X1980D01*
X1960D01*
X1920Y1220D01*
X1950Y1190D01*
X1980Y1220D01*
X1920Y1240D02*
Y1260D01*
Y1250D01*
X1980D01*
Y1240D01*
Y1260D01*
X2180Y420D02*
X2120D01*
Y450D01*
X2130Y460D01*
X2150D01*
X2160Y450D01*
Y420D01*
Y440D02*
X2180Y460D01*
X2130Y520D02*
X2120Y510D01*
Y490D01*
X2130Y480D01*
X2170D01*
X2180Y490D01*
Y510D01*
X2170Y520D01*
X2180Y580D02*
Y540D01*
X2140Y580D01*
X2130D01*
X2120Y570D01*
Y550D01*
X2130Y540D01*
X2180Y600D02*
X2140Y640D01*
X2130Y700D02*
X2120Y690D01*
Y670D01*
X2130Y660D01*
X2170D01*
X2180Y670D01*
Y690D01*
X2170Y700D01*
X2130Y760D02*
X2120Y750D01*
Y730D01*
X2130Y720D01*
X2170D01*
X2180Y730D01*
Y750D01*
X2170Y760D01*
X2180Y780D02*
X2120D01*
Y810D01*
X2130Y820D01*
X2150D01*
X2160Y810D01*
Y780D01*
X2180Y840D02*
Y860D01*
Y850D01*
X2120D01*
X2130Y840D01*
X2380Y420D02*
X2320D01*
Y450D01*
X2330Y460D01*
X2350D01*
X2360Y450D01*
Y420D01*
Y440D02*
X2380Y460D01*
X2320Y480D02*
X2380D01*
Y510D01*
X2370Y520D01*
X2330D01*
X2320Y510D01*
Y480D01*
X2330Y540D02*
X2320Y550D01*
Y570D01*
X2330Y580D01*
X2370D01*
X2380Y570D01*
Y550D01*
X2370Y540D01*
X2330D01*
X2380Y600D02*
X2340Y640D01*
X2380Y660D02*
X2320D01*
Y690D01*
X2330Y700D01*
X2350D01*
X2360Y690D01*
Y660D01*
X2330Y760D02*
X2320Y750D01*
Y730D01*
X2330Y720D01*
X2340D01*
X2350Y730D01*
Y750D01*
X2360Y760D01*
X2370D01*
X2380Y750D01*
Y730D01*
X2370Y720D01*
X2380Y780D02*
X2320D01*
Y810D01*
X2330Y820D01*
X2350D01*
X2360Y810D01*
Y780D01*
X2330Y840D02*
X2320Y850D01*
Y870D01*
X2330Y880D01*
X2370D01*
X2380Y870D01*
Y850D01*
X2370Y840D01*
X2330D01*
X2480Y420D02*
X2420D01*
Y450D01*
X2430Y460D01*
X2450D01*
X2460Y450D01*
Y420D01*
Y440D02*
X2480Y460D01*
X2420Y480D02*
X2480D01*
Y510D01*
X2470Y520D01*
X2430D01*
X2420Y510D01*
Y480D01*
X2480Y540D02*
Y560D01*
Y550D01*
X2420D01*
X2430Y540D01*
X2480Y590D02*
X2440Y630D01*
X2480Y650D02*
X2420D01*
Y680D01*
X2430Y690D01*
X2450D01*
X2460Y680D01*
Y650D01*
X2430Y750D02*
X2420Y740D01*
Y720D01*
X2430Y710D01*
X2440D01*
X2450Y720D01*
Y740D01*
X2460Y750D01*
X2470D01*
X2480Y740D01*
Y720D01*
X2470Y710D01*
X2480Y770D02*
X2420D01*
Y800D01*
X2430Y810D01*
X2450D01*
X2460Y800D01*
Y770D01*
X2480Y830D02*
Y850D01*
Y840D01*
X2420D01*
X2430Y830D01*
X2580Y420D02*
X2520D01*
Y450D01*
X2530Y460D01*
X2550D01*
X2560Y450D01*
Y420D01*
Y440D02*
X2580Y460D01*
X2520Y480D02*
X2580D01*
Y510D01*
X2570Y520D01*
X2530D01*
X2520Y510D01*
Y480D01*
X2580Y580D02*
Y540D01*
X2540Y580D01*
X2530D01*
X2520Y570D01*
Y550D01*
X2530Y540D01*
X2580Y600D02*
X2540Y640D01*
X2580Y660D02*
X2520D01*
Y690D01*
X2530Y700D01*
X2550D01*
X2560Y690D01*
Y660D01*
X2530Y760D02*
X2520Y750D01*
Y730D01*
X2530Y720D01*
X2540D01*
X2550Y730D01*
Y750D01*
X2560Y760D01*
X2570D01*
X2580Y750D01*
Y730D01*
X2570Y720D01*
X2580Y780D02*
X2520D01*
Y810D01*
X2530Y820D01*
X2550D01*
X2560Y810D01*
Y780D01*
X2580Y880D02*
Y840D01*
X2540Y880D01*
X2530D01*
X2520Y870D01*
Y850D01*
X2530Y840D01*
X2680Y420D02*
X2620D01*
Y450D01*
X2630Y460D01*
X2650D01*
X2660Y450D01*
Y420D01*
Y440D02*
X2680Y460D01*
X2620Y480D02*
X2680D01*
Y510D01*
X2670Y520D01*
X2630D01*
X2620Y510D01*
Y480D01*
X2630Y540D02*
X2620Y550D01*
Y570D01*
X2630Y580D01*
X2640D01*
X2650Y570D01*
Y560D01*
Y570D01*
X2660Y580D01*
X2670D01*
X2680Y570D01*
Y550D01*
X2670Y540D01*
X2680Y600D02*
X2640Y640D01*
X2680Y660D02*
X2620D01*
Y690D01*
X2630Y700D01*
X2650D01*
X2660Y690D01*
Y660D01*
X2630Y760D02*
X2620Y750D01*
Y730D01*
X2630Y720D01*
X2640D01*
X2650Y730D01*
Y750D01*
X2660Y760D01*
X2670D01*
X2680Y750D01*
Y730D01*
X2670Y720D01*
X2680Y780D02*
X2620D01*
Y810D01*
X2630Y820D01*
X2650D01*
X2660Y810D01*
Y780D01*
X2630Y840D02*
X2620Y850D01*
Y870D01*
X2630Y880D01*
X2640D01*
X2650Y870D01*
Y860D01*
Y870D01*
X2660Y880D01*
X2670D01*
X2680Y870D01*
Y850D01*
X2670Y840D01*
X2980Y420D02*
X2920D01*
Y450D01*
X2930Y460D01*
X2950D01*
X2960Y450D01*
Y420D01*
Y440D02*
X2980Y460D01*
X2930Y520D02*
X2920Y510D01*
Y490D01*
X2930Y480D01*
X2970D01*
X2980Y490D01*
Y510D01*
X2970Y520D01*
X2920Y580D02*
X2930Y560D01*
X2950Y540D01*
X2970D01*
X2980Y550D01*
Y570D01*
X2970Y580D01*
X2960D01*
X2950Y570D01*
Y540D01*
X2980Y600D02*
X2940Y640D01*
X2920Y660D02*
Y700D01*
Y680D01*
X2980D01*
X2920Y720D02*
X2980Y760D01*
X2920D02*
X2980Y720D01*
Y780D02*
X2940Y820D01*
X2930Y880D02*
X2920Y870D01*
Y850D01*
X2930Y840D01*
X2970D01*
X2980Y850D01*
Y870D01*
X2970Y880D01*
X2920Y900D02*
X2980D01*
X2960D01*
X2920Y940D01*
X2950Y910D01*
X2980Y940D01*
X3080Y420D02*
X3020D01*
Y450D01*
X3030Y460D01*
X3050D01*
X3060Y450D01*
Y420D01*
Y440D02*
X3080Y460D01*
X3030Y520D02*
X3020Y510D01*
Y490D01*
X3030Y480D01*
X3070D01*
X3080Y490D01*
Y510D01*
X3070Y520D01*
X3020Y540D02*
Y580D01*
X3030D01*
X3070Y540D01*
X3080D01*
Y600D02*
X3040Y640D01*
X3080Y660D02*
X3020D01*
Y690D01*
X3030Y700D01*
X3050D01*
X3060Y690D01*
Y660D01*
Y680D02*
X3080Y700D01*
X3020Y720D02*
X3080Y760D01*
X3020D02*
X3080Y720D01*
Y780D02*
X3040Y820D01*
X3020Y840D02*
X3080D01*
Y870D01*
X3070Y880D01*
X3030D01*
X3020Y870D01*
Y840D01*
Y900D02*
Y940D01*
Y920D01*
X3080D01*
X3180Y420D02*
X3120D01*
Y450D01*
X3130Y460D01*
X3150D01*
X3160Y450D01*
Y420D01*
Y440D02*
X3180Y460D01*
X3120Y480D02*
X3180D01*
Y510D01*
X3170Y520D01*
X3130D01*
X3120Y510D01*
Y480D01*
X3180Y570D02*
X3120D01*
X3150Y540D01*
Y580D01*
X3180Y600D02*
X3140Y640D01*
X3180Y660D02*
X3120D01*
Y690D01*
X3130Y700D01*
X3150D01*
X3160Y690D01*
Y660D01*
X3130Y760D02*
X3120Y750D01*
Y730D01*
X3130Y720D01*
X3140D01*
X3150Y730D01*
Y750D01*
X3160Y760D01*
X3170D01*
X3180Y750D01*
Y730D01*
X3170Y720D01*
X3180Y780D02*
X3120D01*
Y810D01*
X3130Y820D01*
X3150D01*
X3160Y810D01*
Y780D01*
X3180Y870D02*
X3120D01*
X3150Y840D01*
Y880D01*
X3280Y420D02*
X3220D01*
Y450D01*
X3230Y460D01*
X3250D01*
X3260Y450D01*
Y420D01*
Y440D02*
X3280Y460D01*
X3220Y480D02*
X3280D01*
Y510D01*
X3270Y520D01*
X3230D01*
X3220Y510D01*
Y480D01*
Y580D02*
Y540D01*
X3250D01*
X3240Y560D01*
Y570D01*
X3250Y580D01*
X3270D01*
X3280Y570D01*
Y550D01*
X3270Y540D01*
X3280Y600D02*
X3240Y640D01*
X3280Y660D02*
X3220D01*
Y690D01*
X3230Y700D01*
X3250D01*
X3260Y690D01*
Y660D01*
X3230Y760D02*
X3220Y750D01*
Y730D01*
X3230Y720D01*
X3240D01*
X3250Y730D01*
Y750D01*
X3260Y760D01*
X3270D01*
X3280Y750D01*
Y730D01*
X3270Y720D01*
X3280Y780D02*
X3220D01*
Y810D01*
X3230Y820D01*
X3250D01*
X3260Y810D01*
Y780D01*
X3220Y880D02*
Y840D01*
X3250D01*
X3240Y860D01*
Y870D01*
X3250Y880D01*
X3270D01*
X3280Y870D01*
Y850D01*
X3270Y840D01*
X3380Y420D02*
X3320D01*
Y450D01*
X3330Y460D01*
X3350D01*
X3360Y450D01*
Y420D01*
Y440D02*
X3380Y460D01*
X3320Y480D02*
X3380D01*
Y510D01*
X3370Y520D01*
X3330D01*
X3320Y510D01*
Y480D01*
Y580D02*
X3330Y560D01*
X3350Y540D01*
X3370D01*
X3380Y550D01*
Y570D01*
X3370Y580D01*
X3360D01*
X3350Y570D01*
Y540D01*
X3380Y600D02*
X3340Y640D01*
X3380Y660D02*
X3320D01*
Y690D01*
X3330Y700D01*
X3350D01*
X3360Y690D01*
Y660D01*
X3330Y760D02*
X3320Y750D01*
Y730D01*
X3330Y720D01*
X3340D01*
X3350Y730D01*
Y750D01*
X3360Y760D01*
X3370D01*
X3380Y750D01*
Y730D01*
X3370Y720D01*
X3380Y780D02*
X3320D01*
Y810D01*
X3330Y820D01*
X3350D01*
X3360Y810D01*
Y780D01*
X3320Y880D02*
X3330Y860D01*
X3350Y840D01*
X3370D01*
X3380Y850D01*
Y870D01*
X3370Y880D01*
X3360D01*
X3350Y870D01*
Y840D01*
X3480Y420D02*
X3420D01*
Y450D01*
X3430Y460D01*
X3450D01*
X3460Y450D01*
Y420D01*
Y440D02*
X3480Y460D01*
X3420Y480D02*
X3480D01*
Y510D01*
X3470Y520D01*
X3430D01*
X3420Y510D01*
Y480D01*
Y540D02*
Y580D01*
X3430D01*
X3470Y540D01*
X3480D01*
Y600D02*
X3440Y640D01*
X3480Y660D02*
X3420D01*
Y690D01*
X3430Y700D01*
X3450D01*
X3460Y690D01*
Y660D01*
X3430Y760D02*
X3420Y750D01*
Y730D01*
X3430Y720D01*
X3440D01*
X3450Y730D01*
Y750D01*
X3460Y760D01*
X3470D01*
X3480Y750D01*
Y730D01*
X3470Y720D01*
X3480Y780D02*
X3420D01*
Y810D01*
X3430Y820D01*
X3450D01*
X3460Y810D01*
Y780D01*
X3420Y840D02*
Y880D01*
X3430D01*
X3470Y840D01*
X3480D01*
X3520Y420D02*
X3560D01*
X3580Y440D01*
X3560Y460D01*
X3520D01*
X3530Y520D02*
X3520Y510D01*
Y490D01*
X3530Y480D01*
X3540D01*
X3550Y490D01*
Y510D01*
X3560Y520D01*
X3570D01*
X3580Y510D01*
Y490D01*
X3570Y480D01*
X3530Y580D02*
X3520Y570D01*
Y550D01*
X3530Y540D01*
X3540D01*
X3550Y550D01*
Y570D01*
X3560Y580D01*
X3570D01*
X3580Y570D01*
Y550D01*
X3570Y540D01*
X3620Y420D02*
X3660D01*
X3680Y440D01*
X3660Y460D01*
X3620D01*
Y480D02*
X3680D01*
Y510D01*
X3670Y520D01*
X3630D01*
X3620Y510D01*
Y480D01*
Y540D02*
X3680D01*
Y570D01*
X3670Y580D01*
X3630D01*
X3620Y570D01*
Y540D01*
X3780Y420D02*
X3720D01*
Y450D01*
X3730Y460D01*
X3750D01*
X3760Y450D01*
Y420D01*
Y440D02*
X3780Y460D01*
X3720Y480D02*
X3780D01*
Y510D01*
X3770Y520D01*
X3760D01*
X3750Y510D01*
Y480D01*
Y510D01*
X3740Y520D01*
X3730D01*
X3720Y510D01*
Y480D01*
X3730Y540D02*
X3720Y550D01*
Y570D01*
X3730Y580D01*
X3770D01*
X3780Y570D01*
Y550D01*
X3770Y540D01*
X3730D01*
X3780Y600D02*
X3740Y640D01*
X3720Y660D02*
Y680D01*
Y670D01*
X3780D01*
Y660D01*
Y680D01*
Y710D02*
X3720D01*
X3780Y750D01*
X3720D01*
Y770D02*
Y810D01*
Y790D01*
X3780D01*
X3880Y420D02*
X3820D01*
Y450D01*
X3830Y460D01*
X3850D01*
X3860Y450D01*
Y420D01*
Y440D02*
X3880Y460D01*
X3820Y480D02*
X3880D01*
Y510D01*
X3870Y520D01*
X3860D01*
X3850Y510D01*
Y480D01*
Y510D01*
X3840Y520D01*
X3830D01*
X3820Y510D01*
Y480D01*
X3880Y540D02*
Y560D01*
Y550D01*
X3820D01*
X3830Y540D01*
X3980Y420D02*
X3920D01*
Y450D01*
X3930Y460D01*
X3950D01*
X3960Y450D01*
Y420D01*
Y440D02*
X3980Y460D01*
X3920Y480D02*
X3980D01*
Y510D01*
X3970Y520D01*
X3960D01*
X3950Y510D01*
Y480D01*
Y510D01*
X3940Y520D01*
X3930D01*
X3920Y510D01*
Y480D01*
X3980Y580D02*
Y540D01*
X3940Y580D01*
X3930D01*
X3920Y570D01*
Y550D01*
X3930Y540D01*
X4180Y420D02*
X4120D01*
Y450D01*
X4130Y460D01*
X4150D01*
X4160Y450D01*
Y420D01*
Y440D02*
X4180Y460D01*
X4120Y480D02*
X4180D01*
Y510D01*
X4170Y520D01*
X4160D01*
X4150Y510D01*
Y480D01*
Y510D01*
X4140Y520D01*
X4130D01*
X4120Y510D01*
Y480D01*
X4180Y570D02*
X4120D01*
X4150Y540D01*
Y580D01*
X4280Y420D02*
X4220D01*
Y450D01*
X4230Y460D01*
X4250D01*
X4260Y450D01*
Y420D01*
Y440D02*
X4280Y460D01*
X4220Y480D02*
X4280D01*
Y510D01*
X4270Y520D01*
X4260D01*
X4250Y510D01*
Y480D01*
Y510D01*
X4240Y520D01*
X4230D01*
X4220Y510D01*
Y480D01*
Y580D02*
Y540D01*
X4250D01*
X4240Y560D01*
Y570D01*
X4250Y580D01*
X4270D01*
X4280Y570D01*
Y550D01*
X4270Y540D01*
X4380Y420D02*
X4320D01*
Y450D01*
X4330Y460D01*
X4350D01*
X4360Y450D01*
Y420D01*
Y440D02*
X4380Y460D01*
X4320Y480D02*
X4380D01*
Y510D01*
X4370Y520D01*
X4360D01*
X4350Y510D01*
Y480D01*
Y510D01*
X4340Y520D01*
X4330D01*
X4320Y510D01*
Y480D01*
Y580D02*
X4330Y560D01*
X4350Y540D01*
X4370D01*
X4380Y550D01*
Y570D01*
X4370Y580D01*
X4360D01*
X4350Y570D01*
Y540D01*
X4480Y420D02*
X4420D01*
Y450D01*
X4430Y460D01*
X4450D01*
X4460Y450D01*
Y420D01*
Y440D02*
X4480Y460D01*
X4420Y480D02*
X4480D01*
Y510D01*
X4470Y520D01*
X4460D01*
X4450Y510D01*
Y480D01*
Y510D01*
X4440Y520D01*
X4430D01*
X4420Y510D01*
Y480D01*
Y540D02*
Y580D01*
X4430D01*
X4470Y540D01*
X4480D01*
X4080Y420D02*
X4020D01*
Y450D01*
X4030Y460D01*
X4050D01*
X4060Y450D01*
Y420D01*
Y440D02*
X4080Y460D01*
X4020Y480D02*
X4080D01*
Y510D01*
X4070Y520D01*
X4060D01*
X4050Y510D01*
Y480D01*
Y510D01*
X4040Y520D01*
X4030D01*
X4020Y510D01*
Y480D01*
X4030Y540D02*
X4020Y550D01*
Y570D01*
X4030Y580D01*
X4040D01*
X4050Y570D01*
Y560D01*
Y570D01*
X4060Y580D01*
X4070D01*
X4080Y570D01*
Y550D01*
X4070Y540D01*
X580Y260D02*
Y280D01*
Y270D01*
X520D01*
X530Y260D01*
X680Y300D02*
Y260D01*
X640Y300D01*
X630D01*
X620Y290D01*
Y270D01*
X630Y260D01*
X730D02*
X720Y270D01*
Y290D01*
X730Y300D01*
X740D01*
X750Y290D01*
Y280D01*
Y290D01*
X760Y300D01*
X770D01*
X780Y290D01*
Y270D01*
X770Y260D01*
X880Y290D02*
X820D01*
X850Y260D01*
Y300D01*
X920D02*
Y260D01*
X950D01*
X940Y280D01*
Y290D01*
X950Y300D01*
X970D01*
X980Y290D01*
Y270D01*
X970Y260D01*
X1020Y300D02*
X1030Y280D01*
X1050Y260D01*
X1070D01*
X1080Y270D01*
Y290D01*
X1070Y300D01*
X1060D01*
X1050Y290D01*
Y260D01*
X1120D02*
Y300D01*
X1130D01*
X1170Y260D01*
X1180D01*
X1230D02*
X1220Y270D01*
Y290D01*
X1230Y300D01*
X1240D01*
X1250Y290D01*
X1260Y300D01*
X1270D01*
X1280Y290D01*
Y270D01*
X1270Y260D01*
X1260D01*
X1250Y270D01*
X1240Y260D01*
X1230D01*
X1250Y270D02*
Y290D01*
X1370Y260D02*
X1380Y270D01*
Y290D01*
X1370Y300D01*
X1330D01*
X1320Y290D01*
Y270D01*
X1330Y260D01*
X1340D01*
X1350Y270D01*
Y300D01*
X1480Y260D02*
Y280D01*
Y270D01*
X1420D01*
X1430Y260D01*
Y310D02*
X1420Y320D01*
Y340D01*
X1430Y350D01*
X1470D01*
X1480Y340D01*
Y320D01*
X1470Y310D01*
X1430D01*
X1580Y260D02*
Y280D01*
Y270D01*
X1520D01*
X1530Y260D01*
X1580Y310D02*
Y330D01*
Y320D01*
X1520D01*
X1530Y310D01*
X1680Y260D02*
Y280D01*
Y270D01*
X1620D01*
X1630Y260D01*
X1680Y350D02*
Y310D01*
X1640Y350D01*
X1630D01*
X1620Y340D01*
Y320D01*
X1630Y310D01*
X2080Y260D02*
Y280D01*
Y270D01*
X2020D01*
X2030Y260D01*
X2020Y350D02*
X2030Y330D01*
X2050Y310D01*
X2070D01*
X2080Y320D01*
Y340D01*
X2070Y350D01*
X2060D01*
X2050Y340D01*
Y310D01*
X1980Y260D02*
Y280D01*
Y270D01*
X1920D01*
X1930Y260D01*
X1920Y350D02*
Y310D01*
X1950D01*
X1940Y330D01*
Y340D01*
X1950Y350D01*
X1970D01*
X1980Y340D01*
Y320D01*
X1970Y310D01*
X2180Y260D02*
Y280D01*
Y270D01*
X2120D01*
X2130Y260D01*
X2120Y310D02*
Y350D01*
X2130D01*
X2170Y310D01*
X2180D01*
X2380Y260D02*
Y280D01*
Y270D01*
X2320D01*
X2330Y260D01*
X2370Y310D02*
X2380Y320D01*
Y340D01*
X2370Y350D01*
X2330D01*
X2320Y340D01*
Y320D01*
X2330Y310D01*
X2340D01*
X2350Y320D01*
Y350D01*
X2480Y300D02*
Y260D01*
X2440Y300D01*
X2430D01*
X2420Y290D01*
Y270D01*
X2430Y260D01*
Y320D02*
X2420Y330D01*
Y350D01*
X2430Y360D01*
X2470D01*
X2480Y350D01*
Y330D01*
X2470Y320D01*
X2430D01*
X2580Y300D02*
Y260D01*
X2540Y300D01*
X2530D01*
X2520Y290D01*
Y270D01*
X2530Y260D01*
X2580Y320D02*
Y340D01*
Y330D01*
X2520D01*
X2530Y320D01*
X2680Y300D02*
Y260D01*
X2640Y300D01*
X2630D01*
X2620Y290D01*
Y270D01*
X2630Y260D01*
X2680Y360D02*
Y320D01*
X2640Y360D01*
X2630D01*
X2620Y350D01*
Y330D01*
X2630Y320D01*
X2980Y300D02*
Y260D01*
X2940Y300D01*
X2930D01*
X2920Y290D01*
Y270D01*
X2930Y260D01*
X2920Y360D02*
Y320D01*
X2950D01*
X2940Y340D01*
Y350D01*
X2950Y360D01*
X2970D01*
X2980Y350D01*
Y330D01*
X2970Y320D01*
X3080Y300D02*
Y260D01*
X3040Y300D01*
X3030D01*
X3020Y290D01*
Y270D01*
X3030Y260D01*
X3020Y360D02*
X3030Y340D01*
X3050Y320D01*
X3070D01*
X3080Y330D01*
Y350D01*
X3070Y360D01*
X3060D01*
X3050Y350D01*
Y320D01*
X3180Y300D02*
Y260D01*
X3140Y300D01*
X3130D01*
X3120Y290D01*
Y270D01*
X3130Y260D01*
X3120Y320D02*
Y360D01*
X3130D01*
X3170Y320D01*
X3180D01*
X3280Y300D02*
Y260D01*
X3240Y300D01*
X3230D01*
X3220Y290D01*
Y270D01*
X3230Y260D01*
Y320D02*
X3220Y330D01*
Y350D01*
X3230Y360D01*
X3240D01*
X3250Y350D01*
X3260Y360D01*
X3270D01*
X3280Y350D01*
Y330D01*
X3270Y320D01*
X3260D01*
X3250Y330D01*
X3240Y320D01*
X3230D01*
X3250Y330D02*
Y350D01*
X3380Y300D02*
Y260D01*
X3340Y300D01*
X3330D01*
X3320Y290D01*
Y270D01*
X3330Y260D01*
X3370Y320D02*
X3380Y330D01*
Y350D01*
X3370Y360D01*
X3330D01*
X3320Y350D01*
Y330D01*
X3330Y320D01*
X3340D01*
X3350Y330D01*
Y360D01*
X3430Y260D02*
X3420Y270D01*
Y290D01*
X3430Y300D01*
X3440D01*
X3450Y290D01*
Y280D01*
Y290D01*
X3460Y300D01*
X3470D01*
X3480Y290D01*
Y270D01*
X3470Y260D01*
X3430Y320D02*
X3420Y330D01*
Y350D01*
X3430Y360D01*
X3470D01*
X3480Y350D01*
Y330D01*
X3470Y320D01*
X3430D01*
X3530Y260D02*
X3520Y270D01*
Y290D01*
X3530Y300D01*
X3540D01*
X3550Y290D01*
Y280D01*
Y290D01*
X3560Y300D01*
X3570D01*
X3580Y290D01*
Y270D01*
X3570Y260D01*
X3580Y320D02*
Y340D01*
Y330D01*
X3520D01*
X3530Y320D01*
X3630Y260D02*
X3620Y270D01*
Y290D01*
X3630Y300D01*
X3640D01*
X3650Y290D01*
Y280D01*
Y290D01*
X3660Y300D01*
X3670D01*
X3680Y290D01*
Y270D01*
X3670Y260D01*
X3680Y360D02*
Y320D01*
X3640Y360D01*
X3630D01*
X3620Y350D01*
Y330D01*
X3630Y320D01*
X3730Y260D02*
X3720Y270D01*
Y290D01*
X3730Y300D01*
X3740D01*
X3750Y290D01*
Y280D01*
Y290D01*
X3760Y300D01*
X3770D01*
X3780Y290D01*
Y270D01*
X3770Y260D01*
X3730Y320D02*
X3720Y330D01*
Y350D01*
X3730Y360D01*
X3740D01*
X3750Y350D01*
Y340D01*
Y350D01*
X3760Y360D01*
X3770D01*
X3780Y350D01*
Y330D01*
X3770Y320D01*
X3830Y260D02*
X3820Y270D01*
Y290D01*
X3830Y300D01*
X3840D01*
X3850Y290D01*
Y280D01*
Y290D01*
X3860Y300D01*
X3870D01*
X3880Y290D01*
Y270D01*
X3870Y260D01*
X3880Y350D02*
X3820D01*
X3850Y320D01*
Y360D01*
X3930Y260D02*
X3920Y270D01*
Y290D01*
X3930Y300D01*
X3940D01*
X3950Y290D01*
Y280D01*
Y290D01*
X3960Y300D01*
X3970D01*
X3980Y290D01*
Y270D01*
X3970Y260D01*
X3920Y360D02*
Y320D01*
X3950D01*
X3940Y340D01*
Y350D01*
X3950Y360D01*
X3970D01*
X3980Y350D01*
Y330D01*
X3970Y320D01*
X4130Y260D02*
X4120Y270D01*
Y290D01*
X4130Y300D01*
X4140D01*
X4150Y290D01*
Y280D01*
Y290D01*
X4160Y300D01*
X4170D01*
X4180Y290D01*
Y270D01*
X4170Y260D01*
X4120Y320D02*
Y360D01*
X4130D01*
X4170Y320D01*
X4180D01*
X4230Y260D02*
X4220Y270D01*
Y290D01*
X4230Y300D01*
X4240D01*
X4250Y290D01*
Y280D01*
Y290D01*
X4260Y300D01*
X4270D01*
X4280Y290D01*
Y270D01*
X4270Y260D01*
X4230Y320D02*
X4220Y330D01*
Y350D01*
X4230Y360D01*
X4240D01*
X4250Y350D01*
X4260Y360D01*
X4270D01*
X4280Y350D01*
Y330D01*
X4270Y320D01*
X4260D01*
X4250Y330D01*
X4240Y320D01*
X4230D01*
X4250Y330D02*
Y350D01*
X4330Y260D02*
X4320Y270D01*
Y290D01*
X4330Y300D01*
X4340D01*
X4350Y290D01*
Y280D01*
Y290D01*
X4360Y300D01*
X4370D01*
X4380Y290D01*
Y270D01*
X4370Y260D01*
Y320D02*
X4380Y330D01*
Y350D01*
X4370Y360D01*
X4330D01*
X4320Y350D01*
Y330D01*
X4330Y320D01*
X4340D01*
X4350Y330D01*
Y360D01*
X4480Y290D02*
X4420D01*
X4450Y260D01*
Y300D01*
X4430Y320D02*
X4420Y330D01*
Y350D01*
X4430Y360D01*
X4470D01*
X4480Y350D01*
Y330D01*
X4470Y320D01*
X4430D01*
X4030Y260D02*
X4020Y270D01*
Y290D01*
X4030Y300D01*
X4040D01*
X4050Y290D01*
Y280D01*
Y290D01*
X4060Y300D01*
X4070D01*
X4080Y290D01*
Y270D01*
X4070Y260D01*
X4020Y360D02*
X4030Y340D01*
X4050Y320D01*
X4070D01*
X4080Y330D01*
Y350D01*
X4070Y360D01*
X4060D01*
X4050Y350D01*
Y320D01*
X1780Y260D02*
X1720D01*
Y290D01*
X1730Y300D01*
X1750D01*
X1760Y290D01*
Y260D01*
Y280D02*
X1780Y300D01*
X1730Y360D02*
X1720Y350D01*
Y330D01*
X1730Y320D01*
X1740D01*
X1750Y330D01*
Y350D01*
X1760Y360D01*
X1770D01*
X1780Y350D01*
Y330D01*
X1770Y320D01*
X1750Y380D02*
Y420D01*
X1780Y470D02*
X1720D01*
X1750Y440D01*
Y480D01*
X1730Y500D02*
X1720Y510D01*
Y530D01*
X1730Y540D01*
X1740D01*
X1750Y530D01*
X1760Y540D01*
X1770D01*
X1780Y530D01*
Y510D01*
X1770Y500D01*
X1760D01*
X1750Y510D01*
X1740Y500D01*
X1730D01*
X1750Y510D02*
Y530D01*
X1720Y600D02*
Y560D01*
X1750D01*
X1740Y580D01*
Y590D01*
X1750Y600D01*
X1770D01*
X1780Y590D01*
Y570D01*
X1770Y560D01*
X1750Y680D02*
Y720D01*
X1730Y700D02*
X1770D01*
X1880Y260D02*
X1820D01*
Y290D01*
X1830Y300D01*
X1850D01*
X1860Y290D01*
Y260D01*
Y280D02*
X1880Y300D01*
X1830Y360D02*
X1820Y350D01*
Y330D01*
X1830Y320D01*
X1840D01*
X1850Y330D01*
Y350D01*
X1860Y360D01*
X1870D01*
X1880Y350D01*
Y330D01*
X1870Y320D01*
X1850Y380D02*
Y420D01*
X1880Y470D02*
X1820D01*
X1850Y440D01*
Y480D01*
X1830Y500D02*
X1820Y510D01*
Y530D01*
X1830Y540D01*
X1840D01*
X1850Y530D01*
X1860Y540D01*
X1870D01*
X1880Y530D01*
Y510D01*
X1870Y500D01*
X1860D01*
X1850Y510D01*
X1840Y500D01*
X1830D01*
X1850Y510D02*
Y530D01*
X1820Y600D02*
Y560D01*
X1850D01*
X1840Y580D01*
Y590D01*
X1850Y600D01*
X1870D01*
X1880Y590D01*
Y570D01*
X1870Y560D01*
X1850Y680D02*
Y720D01*
X4740Y1260D02*
X4680D01*
Y1290D01*
X4690Y1300D01*
X4710D01*
X4720Y1290D01*
Y1260D01*
Y1280D02*
X4740Y1300D01*
Y1350D02*
X4680D01*
X4710Y1320D01*
Y1360D01*
X4820Y1260D02*
X4760D01*
Y1290D01*
X4770Y1300D01*
X4790D01*
X4800Y1290D01*
Y1260D01*
Y1280D02*
X4820Y1300D01*
X4770Y1320D02*
X4760Y1330D01*
Y1350D01*
X4770Y1360D01*
X4780D01*
X4790Y1350D01*
Y1340D01*
Y1350D01*
X4800Y1360D01*
X4810D01*
X4820Y1350D01*
Y1330D01*
X4810Y1320D01*
X1440Y1420D02*
X1500D01*
Y1460D01*
X1440Y1520D02*
Y1480D01*
X1500D01*
Y1520D01*
X1470Y1480D02*
Y1500D01*
X1440Y1540D02*
X1500D01*
Y1570D01*
X1490Y1580D01*
X1450D01*
X1440Y1570D01*
Y1540D01*
X1500Y1640D02*
Y1600D01*
X1460Y1640D01*
X1450D01*
X1440Y1630D01*
Y1610D01*
X1450Y1600D01*
X1440Y1760D02*
Y1720D01*
X1500D01*
Y1760D01*
X1470Y1720D02*
Y1740D01*
X1500Y1780D02*
X1460D01*
Y1810D01*
X1470Y1820D01*
X1500D01*
X1460Y1850D02*
Y1870D01*
X1470Y1880D01*
X1500D01*
Y1850D01*
X1490Y1840D01*
X1480Y1850D01*
Y1880D01*
X1440Y1900D02*
X1500D01*
Y1930D01*
X1490Y1940D01*
X1480D01*
X1470D01*
X1460Y1930D01*
Y1900D01*
X1500Y1960D02*
Y1980D01*
Y1970D01*
X1440D01*
Y1960D01*
X1500Y2040D02*
Y2020D01*
X1490Y2010D01*
X1470D01*
X1460Y2020D01*
Y2040D01*
X1470Y2050D01*
X1480D01*
Y2010D01*
X1440Y1100D02*
Y1080D01*
Y1090D01*
X1490D01*
X1500Y1080D01*
Y1070D01*
X1490Y1060D01*
X1500Y1150D02*
X1440D01*
X1470Y1120D01*
Y1160D01*
X1300Y1420D02*
X1360D01*
Y1460D01*
X1300Y1520D02*
Y1480D01*
X1360D01*
Y1520D01*
X1330Y1480D02*
Y1500D01*
X1300Y1540D02*
X1360D01*
Y1570D01*
X1350Y1580D01*
X1310D01*
X1300Y1570D01*
Y1540D01*
X1360Y1600D02*
Y1620D01*
Y1610D01*
X1300D01*
X1310Y1600D01*
X1300Y1750D02*
Y1710D01*
X1360D01*
Y1750D01*
X1330Y1710D02*
Y1730D01*
X1360Y1770D02*
X1320D01*
Y1800D01*
X1330Y1810D01*
X1360D01*
X1320Y1840D02*
Y1860D01*
X1330Y1870D01*
X1360D01*
Y1840D01*
X1350Y1830D01*
X1340Y1840D01*
Y1870D01*
X1300Y1890D02*
X1360D01*
Y1920D01*
X1350Y1930D01*
X1340D01*
X1330D01*
X1320Y1920D01*
Y1890D01*
X1360Y1950D02*
Y1970D01*
Y1960D01*
X1300D01*
Y1950D01*
X1360Y2030D02*
Y2010D01*
X1350Y2000D01*
X1330D01*
X1320Y2010D01*
Y2030D01*
X1330Y2040D01*
X1340D01*
Y2000D01*
X1300Y1100D02*
Y1080D01*
Y1090D01*
X1350D01*
X1360Y1080D01*
Y1070D01*
X1350Y1060D01*
X1310Y1120D02*
X1300Y1130D01*
Y1150D01*
X1310Y1160D01*
X1320D01*
X1330Y1150D01*
Y1140D01*
Y1150D01*
X1340Y1160D01*
X1350D01*
X1360Y1150D01*
Y1130D01*
X1350Y1120D01*
X2420Y1660D02*
X2430D01*
X2450Y1680D01*
X2430Y1700D01*
X2420D01*
X2450Y1680D02*
X2480D01*
Y1720D02*
Y1740D01*
Y1730D01*
X2420D01*
X2430Y1720D01*
X2990Y1800D02*
X2980Y1790D01*
Y1770D01*
X2990Y1760D01*
X3030D01*
X3040Y1770D01*
Y1790D01*
X3030Y1800D01*
X3040Y1820D02*
Y1840D01*
Y1830D01*
X2980D01*
X2990Y1820D01*
X2070Y1660D02*
X2060Y1650D01*
Y1630D01*
X2070Y1620D01*
X2110D01*
X2120Y1630D01*
Y1650D01*
X2110Y1660D01*
X2120Y1720D02*
Y1680D01*
X2080Y1720D01*
X2070D01*
X2060Y1710D01*
Y1690D01*
X2070Y1680D01*
X4310Y1320D02*
X4300Y1310D01*
Y1290D01*
X4310Y1280D01*
X4350D01*
X4360Y1290D01*
Y1310D01*
X4350Y1320D01*
X4310Y1340D02*
X4300Y1350D01*
Y1370D01*
X4310Y1380D01*
X4320D01*
X4330Y1370D01*
Y1360D01*
Y1370D01*
X4340Y1380D01*
X4350D01*
X4360Y1370D01*
Y1350D01*
X4350Y1340D01*
X3910Y860D02*
X3900Y850D01*
Y830D01*
X3910Y820D01*
X3950D01*
X3960Y830D01*
Y850D01*
X3950Y860D01*
X3960Y910D02*
X3900D01*
X3930Y880D01*
Y920D01*
X2650Y1920D02*
X2640Y1910D01*
Y1890D01*
X2650Y1880D01*
X2690D01*
X2700Y1890D01*
Y1910D01*
X2690Y1920D01*
X2640Y1980D02*
X2650Y1960D01*
X2670Y1940D01*
X2690D01*
X2700Y1950D01*
Y1970D01*
X2690Y1980D01*
X2680D01*
X2670Y1970D01*
Y1940D01*
X4260Y660D02*
Y640D01*
Y650D01*
X4310D01*
X4320Y640D01*
Y630D01*
X4310Y620D01*
X4320Y720D02*
Y680D01*
X4280Y720D01*
X4270D01*
X4260Y710D01*
Y690D01*
X4270Y680D01*
X4500Y1280D02*
X4440D01*
Y1310D01*
X4450Y1320D01*
X4470D01*
X4480Y1310D01*
Y1280D01*
Y1300D02*
X4500Y1320D01*
Y1340D02*
Y1360D01*
Y1350D01*
X4440D01*
X4450Y1340D01*
X3900Y1660D02*
X3840D01*
Y1690D01*
X3850Y1700D01*
X3870D01*
X3880Y1690D01*
Y1660D01*
Y1680D02*
X3900Y1700D01*
Y1760D02*
Y1720D01*
X3860Y1760D01*
X3850D01*
X3840Y1750D01*
Y1730D01*
X3850Y1720D01*
X1040Y1450D02*
X980D01*
X1010Y1420D01*
Y1460D01*
X990Y1480D02*
X980Y1490D01*
Y1510D01*
X990Y1520D01*
X1000D01*
X1010Y1510D01*
X1020Y1520D01*
X1030D01*
X1040Y1510D01*
Y1490D01*
X1030Y1480D01*
X1020D01*
X1010Y1490D01*
X1000Y1480D01*
X990D01*
X1010Y1490D02*
Y1510D01*
X980Y1580D02*
Y1540D01*
X1010D01*
X1000Y1560D01*
Y1570D01*
X1010Y1580D01*
X1030D01*
X1040Y1570D01*
Y1550D01*
X1030Y1540D01*
X980Y1700D02*
Y1660D01*
X1040D01*
Y1700D01*
X1010Y1660D02*
Y1680D01*
X1040Y1720D02*
X1000D01*
Y1750D01*
X1010Y1760D01*
X1040D01*
X1000Y1790D02*
Y1810D01*
X1010Y1820D01*
X1040D01*
Y1790D01*
X1030Y1780D01*
X1020Y1790D01*
Y1820D01*
X980Y1840D02*
X1040D01*
Y1870D01*
X1030Y1880D01*
X1020D01*
X1010D01*
X1000Y1870D01*
Y1840D01*
X1040Y1900D02*
Y1920D01*
Y1910D01*
X980D01*
Y1900D01*
X1040Y1980D02*
Y1960D01*
X1030Y1950D01*
X1010D01*
X1000Y1960D01*
Y1980D01*
X1010Y1990D01*
X1020D01*
Y1950D01*
X960Y1100D02*
Y1080D01*
Y1090D01*
X1010D01*
X1020Y1080D01*
Y1070D01*
X1010Y1060D01*
X960Y1160D02*
Y1120D01*
X990D01*
X980Y1140D01*
Y1150D01*
X990Y1160D01*
X1010D01*
X1020Y1150D01*
Y1130D01*
X1010Y1120D01*
X1920Y1500D02*
X1860D01*
Y1530D01*
X1870Y1540D01*
X1890D01*
X1900Y1530D01*
Y1500D01*
Y1520D02*
X1920Y1540D01*
X1860Y1600D02*
Y1560D01*
X1890D01*
X1880Y1580D01*
Y1590D01*
X1890Y1600D01*
X1910D01*
X1920Y1590D01*
Y1570D01*
X1910Y1560D01*
X4900Y1260D02*
X4840D01*
Y1290D01*
X4850Y1300D01*
X4870D01*
X4880Y1290D01*
Y1260D01*
Y1280D02*
X4900Y1300D01*
X4840Y1320D02*
Y1360D01*
X4850D01*
X4890Y1320D01*
X4900D01*
X4180Y1860D02*
X4240D01*
Y1900D01*
X4180Y1960D02*
Y1920D01*
X4240D01*
Y1960D01*
X4210Y1920D02*
Y1940D01*
X4180Y1980D02*
X4240D01*
Y2010D01*
X4230Y2020D01*
X4190D01*
X4180Y2010D01*
Y1980D01*
X4240Y2040D02*
Y2060D01*
Y2050D01*
X4180D01*
X4190Y2040D01*
X3960Y1840D02*
X4020D01*
Y1880D01*
X3960Y1940D02*
Y1900D01*
X4020D01*
Y1940D01*
X3990Y1900D02*
Y1920D01*
X3960Y1960D02*
X4020D01*
Y1990D01*
X4010Y2000D01*
X3970D01*
X3960Y1990D01*
Y1960D01*
X4020Y2060D02*
Y2020D01*
X3980Y2060D01*
X3970D01*
X3960Y2050D01*
Y2030D01*
X3970Y2020D01*
X4560Y1800D02*
X4500D01*
Y1830D01*
X4510Y1840D01*
X4530D01*
X4540Y1830D01*
Y1800D01*
X4560Y1870D02*
Y1890D01*
X4550Y1900D01*
X4530D01*
X4520Y1890D01*
Y1870D01*
X4530Y1860D01*
X4550D01*
X4560Y1870D01*
X4520Y1920D02*
X4550D01*
X4560Y1930D01*
X4550Y1940D01*
X4560Y1950D01*
X4550Y1960D01*
X4520D01*
X4560Y2010D02*
Y1990D01*
X4550Y1980D01*
X4530D01*
X4520Y1990D01*
Y2010D01*
X4530Y2020D01*
X4540D01*
Y1980D01*
X4520Y2040D02*
X4560D01*
X4540D01*
X4530Y2050D01*
X4520Y2060D01*
Y2070D01*
X1630Y1520D02*
X1620Y1510D01*
Y1490D01*
X1630Y1480D01*
X1670D01*
X1680Y1490D01*
Y1510D01*
X1670Y1520D01*
X1630Y1540D02*
X1620Y1550D01*
Y1570D01*
X1630Y1580D01*
X1640D01*
X1650Y1570D01*
X1660Y1580D01*
X1670D01*
X1680Y1570D01*
Y1550D01*
X1670Y1540D01*
X1660D01*
X1650Y1550D01*
X1640Y1540D01*
X1630D01*
X1650Y1550D02*
Y1570D01*
X880Y1450D02*
X820D01*
X850Y1420D01*
Y1460D01*
X830Y1480D02*
X820Y1490D01*
Y1510D01*
X830Y1520D01*
X840D01*
X850Y1510D01*
X860Y1520D01*
X870D01*
X880Y1510D01*
Y1490D01*
X870Y1480D01*
X860D01*
X850Y1490D01*
X840Y1480D01*
X830D01*
X850Y1490D02*
Y1510D01*
X820Y1580D02*
Y1540D01*
X850D01*
X840Y1560D01*
Y1570D01*
X850Y1580D01*
X870D01*
X880Y1570D01*
Y1550D01*
X870Y1540D01*
X820Y1660D02*
Y1700D01*
Y1680D01*
X880D01*
Y1750D02*
Y1730D01*
X870Y1720D01*
X850D01*
X840Y1730D01*
Y1750D01*
X850Y1760D01*
X860D01*
Y1720D01*
X840Y1780D02*
X880D01*
X860D01*
X850Y1790D01*
X840Y1800D01*
Y1810D01*
X880Y1840D02*
X840D01*
Y1850D01*
X850Y1860D01*
X880D01*
X850D01*
X840Y1870D01*
X850Y1880D01*
X880D01*
X820Y1100D02*
Y1080D01*
Y1090D01*
X870D01*
X880Y1080D01*
Y1070D01*
X870Y1060D01*
X820Y1120D02*
Y1160D01*
X830D01*
X870Y1120D01*
X880D01*
X1820Y1440D02*
X1760D01*
Y1470D01*
X1770Y1480D01*
X1790D01*
X1800Y1470D01*
Y1440D01*
Y1460D02*
X1820Y1480D01*
Y1500D02*
Y1520D01*
Y1510D01*
X1760D01*
X1770Y1500D01*
Y1550D02*
X1760Y1560D01*
Y1580D01*
X1770Y1590D01*
X1810D01*
X1820Y1580D01*
Y1560D01*
X1810Y1550D01*
X1770D01*
X2250Y1960D02*
X2240Y1950D01*
Y1930D01*
X2250Y1920D01*
X2290D01*
X2300Y1930D01*
Y1950D01*
X2290Y1960D01*
Y1980D02*
X2300Y1990D01*
Y2010D01*
X2290Y2020D01*
X2250D01*
X2240Y2010D01*
Y1990D01*
X2250Y1980D01*
X2260D01*
X2270Y1990D01*
Y2020D01*
X3500Y1770D02*
X3440D01*
X3470Y1740D01*
Y1780D01*
X3450Y1800D02*
X3440Y1810D01*
Y1830D01*
X3450Y1840D01*
X3460D01*
X3470Y1830D01*
X3480Y1840D01*
X3490D01*
X3500Y1830D01*
Y1810D01*
X3490Y1800D01*
X3480D01*
X3470Y1810D01*
X3460Y1800D01*
X3450D01*
X3470Y1810D02*
Y1830D01*
X3440Y1900D02*
Y1860D01*
X3470D01*
X3460Y1880D01*
Y1890D01*
X3470Y1900D01*
X3490D01*
X3500Y1890D01*
Y1870D01*
X3490Y1860D01*
X3500Y1980D02*
X3440D01*
Y2010D01*
X3450Y2020D01*
X3470D01*
X3480Y2010D01*
Y1980D01*
Y2000D02*
X3500Y2020D01*
X3440Y2040D02*
X3500Y2080D01*
X3440D02*
X3500Y2040D01*
X3720Y1770D02*
X3660D01*
X3690Y1740D01*
Y1780D01*
X3670Y1800D02*
X3660Y1810D01*
Y1830D01*
X3670Y1840D01*
X3680D01*
X3690Y1830D01*
X3700Y1840D01*
X3710D01*
X3720Y1830D01*
Y1810D01*
X3710Y1800D01*
X3700D01*
X3690Y1810D01*
X3680Y1800D01*
X3670D01*
X3690Y1810D02*
Y1830D01*
X3660Y1900D02*
Y1860D01*
X3690D01*
X3680Y1880D01*
Y1890D01*
X3690Y1900D01*
X3710D01*
X3720Y1890D01*
Y1870D01*
X3710Y1860D01*
X3660Y1980D02*
Y2020D01*
Y2000D01*
X3720D01*
X3660Y2040D02*
X3720Y2080D01*
X3660D02*
X3720Y2040D01*
X4580Y1240D02*
X4520D01*
Y1270D01*
X4530Y1280D01*
X4550D01*
X4560Y1270D01*
Y1240D01*
Y1260D02*
X4580Y1280D01*
Y1300D02*
Y1320D01*
Y1310D01*
X4520D01*
X4530Y1300D01*
X4580Y1350D02*
Y1370D01*
Y1360D01*
X4520D01*
X4530Y1350D01*
X4660Y1220D02*
X4600D01*
Y1250D01*
X4610Y1260D01*
X4630D01*
X4640Y1250D01*
Y1220D01*
Y1240D02*
X4660Y1260D01*
Y1280D02*
Y1300D01*
Y1290D01*
X4600D01*
X4610Y1280D01*
X4660Y1370D02*
Y1330D01*
X4620Y1370D01*
X4610D01*
X4600Y1360D01*
Y1340D01*
X4610Y1330D01*
X460Y1480D02*
Y1460D01*
Y1470D01*
X510D01*
X520Y1460D01*
Y1450D01*
X510Y1440D01*
X470Y1500D02*
X460Y1510D01*
Y1530D01*
X470Y1540D01*
X480D01*
X490Y1530D01*
X500Y1540D01*
X510D01*
X520Y1530D01*
Y1510D01*
X510Y1500D01*
X500D01*
X490Y1510D01*
X480Y1500D01*
X470D01*
X490Y1510D02*
Y1530D01*
X680Y1480D02*
Y1460D01*
Y1470D01*
X730D01*
X740Y1460D01*
Y1450D01*
X730Y1440D01*
X680Y1540D02*
X690Y1520D01*
X710Y1500D01*
X730D01*
X740Y1510D01*
Y1530D01*
X730Y1540D01*
X720D01*
X710Y1530D01*
Y1500D01*
X1820Y2200D02*
X1870D01*
X1880Y2210D01*
Y2230D01*
X1870Y2240D01*
X1820D01*
X1880Y2300D02*
Y2260D01*
X1840Y2300D01*
X1830D01*
X1820Y2290D01*
Y2270D01*
X1830Y2260D01*
X0Y2500D02*
X5000D01*
Y0D02*
Y2500D01*
X0Y0D02*
X5000D01*
X0D02*
Y2500D01*
D12*
X4277Y2417D02*
G03*
X4163Y2417I-57J0D01*
G01*
X4057D02*
G03*
X3943Y2417I-57J0D01*
G01*
X4597D02*
G03*
X4483Y2417I-57J0D01*
G01*
X3517D02*
G03*
X3403Y2417I-57J0D01*
G01*
X3737D02*
G03*
X3623Y2417I-57J0D01*
G01*
D13*
X4133Y2121D02*
X4307D01*
Y2373D01*
X4133D02*
X4307D01*
X4133Y2121D02*
Y2373D01*
X4163D02*
Y2417D01*
X4277Y2373D02*
Y2417D01*
X3913Y2121D02*
X4087D01*
Y2373D01*
X3913D02*
X4087D01*
X3913Y2121D02*
Y2373D01*
X3943D02*
Y2417D01*
X4057Y2373D02*
Y2417D01*
X4453Y2121D02*
X4627D01*
Y2373D01*
X4453D02*
X4627D01*
X4453Y2121D02*
Y2373D01*
X4483D02*
Y2417D01*
X4597Y2373D02*
Y2417D01*
X3373Y2121D02*
X3547D01*
Y2373D01*
X3373D02*
X3547D01*
X3373Y2121D02*
Y2373D01*
X3403D02*
Y2417D01*
X3517Y2373D02*
Y2417D01*
X3593Y2121D02*
X3767D01*
Y2373D01*
X3593D02*
X3767D01*
X3593Y2121D02*
Y2373D01*
X3623D02*
Y2417D01*
X3737Y2373D02*
Y2417D01*
D31*
X3110Y1867D02*
G03*
X3248Y1858I72J33D01*
G01*
Y1942D02*
G03*
X3110Y1933I-66J-42D01*
G01*
X3278Y2245D02*
G03*
X3278Y2195I0J-25D01*
G01*
X3710Y913D02*
G03*
X3572Y922I-72J-33D01*
G01*
Y838D02*
G03*
X3710Y847I66J42D01*
G01*
X4246Y1325D02*
G03*
X4246Y1275I0J-25D01*
G01*
X4232Y770D02*
G03*
X4232Y770I-132J0D01*
G01*
X3070Y1687D02*
G03*
X3208Y1678I72J33D01*
G01*
Y1762D02*
G03*
X3070Y1753I-66J-42D01*
G01*
X2212Y1678D02*
G03*
X2350Y1687I66J42D01*
G01*
Y1753D02*
G03*
X2212Y1762I-72J-33D01*
G01*
X4307Y1630D02*
G03*
X4298Y1492I33J-72D01*
G01*
X4382D02*
G03*
X4373Y1630I-42J66D01*
G01*
X2772Y1898D02*
G03*
X2910Y1907I66J42D01*
G01*
Y1973D02*
G03*
X2772Y1982I-72J-33D01*
G01*
X1618Y1808D02*
G03*
X1627Y1670I42J-66D01*
G01*
X1693D02*
G03*
X1702Y1808I-33J72D01*
G01*
X2032Y1918D02*
G03*
X2170Y1927I66J42D01*
G01*
Y1993D02*
G03*
X2032Y2002I-72J-33D01*
G01*
X2303Y2245D02*
G03*
X2303Y2195I0J-25D01*
G01*
X2151Y1840D02*
X2160D01*
X2360D02*
X2369D01*
X2160D02*
Y1870D01*
X2360D01*
Y1810D02*
Y1870D01*
X2160Y1810D02*
X2360D01*
X2160D02*
Y1840D01*
X1620Y2091D02*
Y2100D01*
Y2300D02*
Y2309D01*
X1590Y2100D02*
X1620D01*
X1590D02*
Y2300D01*
X1650D01*
Y2100D02*
Y2300D01*
X1620Y2100D02*
X1650D01*
X1700Y2300D02*
Y2309D01*
Y2091D02*
Y2100D01*
Y2300D02*
X1730D01*
Y2100D02*
Y2300D01*
X1670Y2100D02*
X1730D01*
X1670D02*
Y2300D01*
X1700D01*
X2482Y2116D02*
X3278D01*
X2482Y2324D02*
X3278D01*
X2482Y2116D02*
Y2324D01*
X3278Y2116D02*
Y2195D01*
Y2245D02*
Y2324D01*
X2194Y1046D02*
X4246D01*
X2194Y1554D02*
X4246D01*
X2194Y1046D02*
Y1554D01*
X4246Y1046D02*
Y1275D01*
Y1325D02*
Y1554D01*
X950Y1390D02*
X1142D01*
X950D02*
X1250D01*
X950Y1190D02*
X1250D01*
Y1390D01*
X950Y1190D02*
Y1390D01*
X4720Y1460D02*
X4750D01*
Y1660D01*
X4690D02*
X4750D01*
X4690Y1460D02*
Y1660D01*
Y1460D02*
X4720D01*
Y1660D02*
Y1669D01*
Y1451D02*
Y1460D01*
X4800D02*
X4830D01*
Y1660D01*
X4770D02*
X4830D01*
X4770Y1460D02*
Y1660D01*
Y1460D02*
X4800D01*
Y1660D02*
Y1669D01*
Y1451D02*
Y1460D01*
X2964Y1647D02*
Y1833D01*
X2516Y1647D02*
X2964D01*
X2516D02*
Y1833D01*
X2964D01*
X4480Y1451D02*
Y1460D01*
Y1660D02*
Y1669D01*
X4450Y1460D02*
X4480D01*
X4450D02*
Y1660D01*
X4510D01*
Y1460D02*
Y1660D01*
X4480Y1460D02*
X4510D01*
X4000Y1670D02*
Y1700D01*
Y1670D02*
X4200D01*
Y1730D01*
X4000D02*
X4200D01*
X4000Y1700D02*
Y1730D01*
X4200Y1700D02*
X4209D01*
X3991D02*
X4000D01*
X1900D02*
X1930D01*
Y1900D01*
X1870D02*
X1930D01*
X1870Y1700D02*
Y1900D01*
Y1700D02*
X1900D01*
Y1900D02*
Y1909D01*
Y1691D02*
Y1700D01*
X4880Y1460D02*
X4910D01*
Y1660D01*
X4850D02*
X4910D01*
X4850Y1460D02*
Y1660D01*
Y1460D02*
X4880D01*
Y1660D02*
Y1669D01*
Y1451D02*
Y1460D01*
X1770Y1900D02*
X1800D01*
X1770Y1700D02*
Y1900D01*
Y1700D02*
X1830D01*
Y1900D01*
X1800D02*
X1830D01*
X1800Y1691D02*
Y1700D01*
Y1900D02*
Y1909D01*
X4560Y1460D02*
X4590D01*
Y1660D01*
X4530D02*
X4590D01*
X4530Y1460D02*
Y1660D01*
Y1460D02*
X4560D01*
Y1660D02*
Y1669D01*
Y1451D02*
Y1460D01*
X4640D02*
X4670D01*
Y1660D01*
X4610D02*
X4670D01*
X4610Y1460D02*
Y1660D01*
Y1460D02*
X4640D01*
Y1660D02*
Y1669D01*
Y1451D02*
Y1460D01*
X810Y1390D02*
X910D01*
Y1190D02*
Y1390D01*
X810Y1190D02*
X910D01*
X810D02*
Y1390D01*
X1290Y1190D02*
X1390D01*
X1290D02*
Y1390D01*
X1390D01*
Y1190D02*
Y1390D01*
X1430D02*
X1530D01*
Y1190D02*
Y1390D01*
X1430Y1190D02*
X1530D01*
X1430D02*
Y1390D01*
X330Y1590D02*
X430D01*
Y1390D02*
Y1590D01*
X330Y1390D02*
X430D01*
X330D02*
Y1590D01*
X2303Y2245D02*
Y2324D01*
Y2116D02*
Y2195D01*
X1897Y2116D02*
Y2324D01*
X2303D01*
X1897Y2116D02*
X2303D01*
D32*
X4277Y2417D02*
G03*
X4163Y2417I-57J0D01*
G01*
X4057D02*
G03*
X3943Y2417I-57J0D01*
G01*
X4597D02*
G03*
X4483Y2417I-57J0D01*
G01*
X3517D02*
G03*
X3403Y2417I-57J0D01*
G01*
X3737D02*
G03*
X3623Y2417I-57J0D01*
G01*
X4133Y2121D02*
X4307D01*
X4133D02*
Y2373D01*
X4307D01*
Y2121D02*
Y2373D01*
X4163D02*
Y2417D01*
X4277Y2373D02*
Y2417D01*
X3913Y2121D02*
X4087D01*
X3913D02*
Y2373D01*
X4087D01*
Y2121D02*
Y2373D01*
X3943D02*
Y2417D01*
X4057Y2373D02*
Y2417D01*
X4453Y2121D02*
X4627D01*
X4453D02*
Y2373D01*
X4627D01*
Y2121D02*
Y2373D01*
X4483D02*
Y2417D01*
X4597Y2373D02*
Y2417D01*
X3373Y2121D02*
X3547D01*
X3373D02*
Y2373D01*
X3547D01*
Y2121D02*
Y2373D01*
X3403D02*
Y2417D01*
X3517Y2373D02*
Y2417D01*
X3593Y2121D02*
X3767D01*
X3593D02*
Y2373D01*
X3767D01*
Y2121D02*
Y2373D01*
X3623D02*
Y2417D01*
X3737Y2373D02*
Y2417D01*
D33*
X3990Y880D02*
Y919D01*
X3971Y900D02*
X4010D01*
M02*
