%FSLAX23Y23*%
%MOIN*%
G70*
G01*
G75*
G04 Layer_Physical_Order=1*
%ADD10C,0.006*%
%ADD11C,0.010*%
%ADD12C,0.001*%
%ADD13C,0.001*%
%ADD14C,0.250*%
%ADD15C,0.055*%
%ADD16R,0.053X0.053*%
%ADD17C,0.053*%
%ADD18C,0.059*%
%ADD19R,0.059X0.059*%
%ADD20C,0.070*%
%ADD21C,0.059*%
%ADD22R,0.059X0.059*%
%ADD23C,0.065*%
%ADD24C,0.180*%
%ADD25C,0.047*%
%ADD26R,0.047X0.047*%
%ADD27O,0.500X0.400*%
%ADD28R,0.070X0.070*%
%ADD29C,0.063*%
%ADD30C,0.025*%
D10*
X2568Y1302D02*
X2870Y1000D01*
X1100Y1340D02*
X1138Y1302D01*
X2730Y960D02*
X2770Y1000D01*
X1161Y1379D02*
X1200Y1340D01*
X2391Y1279D02*
X2670Y1000D01*
X1000Y1340D02*
X1061Y1279D01*
X2434Y1464D02*
X2570Y1600D01*
X1340Y1340D02*
X1464Y1464D01*
X2453Y1383D02*
X2670Y1600D01*
X2446Y1376D02*
X2453Y1383D01*
X2060D02*
X2453D01*
X2060Y1376D02*
X2446D01*
X1587D02*
X2060D01*
X2718Y1652D02*
X2770Y1600D01*
X1960Y1560D02*
X2492D01*
X4510Y1460D02*
X4560Y1410D01*
X4800D02*
X4880D01*
X4720D02*
X4800D01*
X4640D02*
X4720D01*
X4560D02*
X4640D01*
X4340Y1460D02*
X4510D01*
X4200Y620D02*
X4600D01*
X4100Y720D02*
X4200Y620D01*
X3390Y880D02*
X3540D01*
X3270Y1000D02*
X3390Y880D01*
X3515Y185D02*
X3560Y140D01*
X2534Y2324D02*
X2580Y2370D01*
X2111Y2409D02*
X2150Y2370D01*
X2196Y2324D01*
X2880Y2070D02*
X2980D01*
X2000Y1960D02*
X2100D01*
X1955D02*
X2000D01*
X1700Y2350D02*
X1759Y2409D01*
X1620Y2350D02*
X1700D01*
X200D02*
X1620D01*
X200Y2300D02*
Y2350D01*
X3150Y1900D02*
X3280D01*
X2980Y2070D02*
X3150Y1900D01*
X1900Y1950D02*
X1945D01*
X2180Y1720D02*
Y1880D01*
X200Y200D02*
X318Y82D01*
X1660Y140D02*
X1705Y185D01*
X1626Y106D02*
X1660Y140D01*
X3840Y1810D02*
X3950Y1700D01*
X3370Y1000D02*
X3431Y939D01*
X4186Y906D02*
X4415D01*
X3678Y939D02*
X3737Y880D01*
X3797Y820D01*
X4100D02*
X4186Y906D01*
X3797Y820D02*
X4100D01*
X3660Y140D02*
Y184D01*
X2977Y1900D02*
X3083D01*
X2893Y1984D02*
X2937Y1940D01*
X2977Y1900D01*
X3083D02*
X3173Y1810D01*
X2410Y1840D02*
X2554Y1984D01*
X2197Y1960D02*
X2317Y1840D01*
X2410D01*
X1560Y140D02*
X1769Y349D01*
X1690Y370D02*
X3094D01*
X1460Y140D02*
X1690Y370D01*
X1656Y206D02*
X3585D01*
X1360Y140D02*
X1405Y95D01*
X3110Y440D02*
X3332Y662D01*
X1260Y140D02*
X1560Y440D01*
X3487Y1517D02*
X3570Y1600D01*
X1525Y1424D02*
X1535Y1434D01*
X3409Y1339D02*
X3670Y1600D01*
X1509Y1380D02*
X1550Y1339D01*
X3732Y1638D02*
X3770Y1600D01*
X1556Y1375D02*
X1581Y1350D01*
X3723Y406D02*
X4061Y744D01*
X860Y140D02*
X905Y95D01*
X3581Y1211D02*
X3970Y1600D01*
X2725Y1211D02*
X3581D01*
X1170Y550D02*
X2691D01*
X760Y140D02*
X1170Y550D01*
X4021Y1649D02*
X4070Y1600D01*
X1140Y1416D02*
X1202Y1478D01*
X3690Y1120D02*
X4170Y1600D01*
X560Y140D02*
X1460Y1040D01*
X2720Y2210D02*
X2880Y2370D01*
X2580Y2070D02*
X2620Y2030D01*
X1668Y1518D02*
X1800Y1650D01*
X860Y1340D02*
X1038Y1518D01*
X1800Y1950D02*
X1927Y1823D01*
X1944Y1840D02*
X2110D01*
X1927Y1823D02*
X1944Y1840D01*
X1863Y1759D02*
X1927Y1823D01*
X380Y1440D02*
X520Y1300D01*
X1786Y2370D02*
X1950D01*
X2632Y2118D02*
X2680Y2070D01*
X1950Y2370D02*
X2202Y2118D01*
X1620Y2050D02*
Y2204D01*
X3040Y2410D02*
X3080Y2370D01*
X2780D02*
X2820Y2410D01*
X2680Y2370D02*
X2780D01*
X2530Y2220D02*
X2680Y2370D01*
X2050D02*
X2200Y2220D01*
X1885Y1187D02*
X1900Y1202D01*
X1100Y1240D02*
X1153Y1187D01*
X2250Y2370D02*
X2301Y2421D01*
X2980Y2370D02*
X3048Y2302D01*
X4451Y850D02*
X4493Y808D01*
X2570Y1000D02*
X2784Y786D01*
X4380Y773D02*
X4415Y808D01*
X2470Y1000D02*
X2697Y773D01*
X4251Y2099D02*
X4640Y1710D01*
X3730Y2200D02*
X3831Y2099D01*
X3565Y2135D02*
X3630Y2200D01*
X2780Y2070D02*
X2845Y2135D01*
X4246Y2024D02*
X4560Y1710D01*
X3510Y2200D02*
X3612Y2302D01*
X3240Y2370D02*
X3410Y2200D01*
X3180Y2370D02*
X3240D01*
X4880Y1710D02*
Y1910D01*
X4590Y2200D02*
X4880Y1910D01*
X4292Y2138D02*
X4720Y1710D01*
X4050Y2200D02*
X4112Y2138D01*
X1970Y1402D02*
X1981Y1413D01*
X1480Y1340D02*
Y1382D01*
X4310Y2200D02*
X4800Y1710D01*
X4270Y2200D02*
X4310D01*
X1558Y1241D02*
X1928D01*
X1340Y1240D02*
X1380Y1200D01*
X1281Y1643D02*
X1660D01*
X2004Y2116D02*
X2050Y2070D01*
X1700Y2050D02*
X1766Y2116D01*
X680Y1840D02*
X1660D01*
X548Y1707D02*
X680Y1840D01*
X380Y1540D02*
X548Y1707D01*
X4393Y1710D02*
X4480D01*
X4340Y1657D02*
X4393Y1710D01*
X4140Y1657D02*
X4340D01*
X2470Y1600D02*
X2534Y1664D01*
X2397Y1740D02*
X2644D01*
X2377Y1720D02*
X2397Y1740D01*
X3023D02*
X3043Y1720D01*
X2836Y1740D02*
X3023D01*
X2196Y2324D02*
X2534D01*
X2554Y1984D02*
X2893D01*
X1769Y349D02*
X3495D01*
X3660Y184D01*
X1405Y95D02*
X1605D01*
X1610Y100D01*
Y160D01*
X1656Y206D01*
X1560Y440D02*
X3110D01*
X1550Y1339D02*
X3409D01*
X1581Y1350D02*
X2602D01*
X2748Y1496D01*
X3546D01*
X3610Y1560D01*
Y1608D01*
X3640Y1638D01*
X3732D01*
X905Y95D02*
X1290D01*
X1315Y120D01*
Y160D01*
X1561Y406D01*
X3723D01*
X1460Y1040D02*
X2590D01*
X2618Y1012D01*
Y970D02*
Y1012D01*
Y970D02*
X2640Y948D01*
X2883D01*
X2915Y980D01*
Y1100D01*
X2935Y1120D01*
X3690D01*
X2697Y773D02*
X4380D01*
X4112Y2138D02*
X4292D01*
X1500Y1402D02*
X1970D01*
X1480Y1382D02*
X1500Y1402D01*
X1380Y1200D02*
X1517D01*
X1558Y1241D01*
X1766Y2116D02*
X2004D01*
X1153Y1187D02*
X1885D01*
X1138Y1302D02*
X2568D01*
X1061Y1279D02*
X2391D01*
X2755Y1517D02*
X3487D01*
X2732Y1540D02*
X2755Y1517D01*
X2732Y1540D02*
Y1597D01*
X2689Y1640D02*
X2732Y1597D01*
X2636Y1640D02*
X2689D01*
X2616Y1620D02*
X2636Y1640D01*
X2616Y1590D02*
Y1620D01*
X2460Y1434D02*
X2616Y1590D01*
X1535Y1434D02*
X2460D01*
X2100Y1960D02*
X2180Y1880D01*
X2534Y1664D02*
X3765D01*
X3791Y1638D01*
X3990D01*
X4008Y1620D01*
Y1594D02*
Y1620D01*
Y1594D02*
X4040Y1562D01*
X4108D01*
X4120Y1574D01*
Y1637D01*
X4140Y1657D01*
X1863Y1595D02*
Y1759D01*
X1759Y1491D02*
X1863Y1595D01*
X1045Y1491D02*
X1759D01*
X947Y1393D02*
X1045Y1491D01*
X947Y1320D02*
Y1393D01*
X927Y1300D02*
X947Y1320D01*
X520Y1300D02*
X927D01*
X980Y1379D02*
X1161D01*
X962Y1361D02*
X980Y1379D01*
X962Y1180D02*
Y1361D01*
Y1180D02*
X987Y1155D01*
X2493D01*
X2632Y1016D01*
Y982D02*
Y1016D01*
Y982D02*
X2654Y960D01*
X2730D01*
X2492Y1560D02*
X2520Y1588D01*
Y1629D01*
X2543Y1652D01*
X2718D01*
X1202Y1478D02*
X1819D01*
X2021Y1680D01*
X3785D01*
X3816Y1649D01*
X4021D01*
X1464Y1464D02*
X2434D01*
X1626Y90D02*
Y106D01*
X1618Y82D02*
X1626Y90D01*
X318Y82D02*
X1618D01*
X1705Y185D02*
X3515D01*
X3173Y1810D02*
X3840D01*
X4189Y850D02*
X4451D01*
X4125Y786D02*
X4189Y850D01*
X2784Y786D02*
X4125D01*
X1038Y1518D02*
X1668D01*
X2301Y2421D02*
X3097D01*
X3118Y2400D01*
Y2340D02*
Y2400D01*
X3080Y2302D02*
X3118Y2340D01*
X3048Y2302D02*
X3080D01*
X2620Y2030D02*
X2700D01*
X2720Y2050D01*
Y2210D01*
X1620Y2204D02*
X1786Y2370D01*
X3831Y2099D02*
X4251D01*
X2845Y2135D02*
X3565D01*
X3612Y2302D02*
X3648D01*
X3670Y2280D01*
Y2054D02*
Y2280D01*
Y2054D02*
X3700Y2024D01*
X4246D01*
X2202Y2118D02*
X2632D01*
X3431Y939D02*
X3678D01*
X1759Y2409D02*
X2111D01*
X2200Y2220D02*
X2530D01*
X2820Y2410D02*
X3040D01*
X1945Y1950D02*
X1955Y1960D01*
D11*
X380Y1680D02*
Y1875D01*
X0Y2500D02*
X5000D01*
Y0D02*
Y2500D01*
X0Y0D02*
X5000D01*
X0D02*
Y2500D01*
D12*
X4277Y2417D02*
G03*
X4163Y2417I-57J0D01*
G01*
X4057D02*
G03*
X3943Y2417I-57J0D01*
G01*
X4597D02*
G03*
X4483Y2417I-57J0D01*
G01*
X3517D02*
G03*
X3403Y2417I-57J0D01*
G01*
X3737D02*
G03*
X3623Y2417I-57J0D01*
G01*
D13*
X4133Y2121D02*
X4307D01*
Y2373D01*
X4133D02*
X4307D01*
X4133Y2121D02*
Y2373D01*
X4163D02*
Y2417D01*
X4277Y2373D02*
Y2417D01*
X3913Y2121D02*
X4087D01*
Y2373D01*
X3913D02*
X4087D01*
X3913Y2121D02*
Y2373D01*
X3943D02*
Y2417D01*
X4057Y2373D02*
Y2417D01*
X4453Y2121D02*
X4627D01*
Y2373D01*
X4453D02*
X4627D01*
X4453Y2121D02*
Y2373D01*
X4483D02*
Y2417D01*
X4597Y2373D02*
Y2417D01*
X3373Y2121D02*
X3547D01*
Y2373D01*
X3373D02*
X3547D01*
X3373Y2121D02*
Y2373D01*
X3403D02*
Y2417D01*
X3517Y2373D02*
Y2417D01*
X3593Y2121D02*
X3767D01*
Y2373D01*
X3593D02*
X3767D01*
X3593Y2121D02*
Y2373D01*
X3623D02*
Y2417D01*
X3737Y2373D02*
Y2417D01*
D14*
X200Y200D02*
D03*
Y2300D02*
D03*
X4800Y200D02*
D03*
Y2300D02*
D03*
D15*
X2410Y1840D02*
D03*
X2110D02*
D03*
X1620Y2350D02*
D03*
Y2050D02*
D03*
X1700D02*
D03*
Y2350D02*
D03*
X2836Y1740D02*
D03*
X2644D02*
D03*
X4480Y1710D02*
D03*
X4800D02*
D03*
X4720D02*
D03*
X4880D02*
D03*
X4560D02*
D03*
X4640D02*
D03*
X4480Y1410D02*
D03*
X1900Y1650D02*
D03*
X1800Y1950D02*
D03*
Y1650D02*
D03*
X4250Y1700D02*
D03*
X3950D02*
D03*
X4800Y1410D02*
D03*
X4720D02*
D03*
X1900Y1950D02*
D03*
X4880Y1410D02*
D03*
X4560D02*
D03*
X4640D02*
D03*
D16*
X3280Y1900D02*
D03*
X3540Y880D02*
D03*
X1660Y1840D02*
D03*
X3240Y1720D02*
D03*
X2180D02*
D03*
X4340Y1460D02*
D03*
X2740Y1940D02*
D03*
X2000Y1960D02*
D03*
D17*
X3083Y1900D02*
D03*
X3737Y880D02*
D03*
X3043Y1720D02*
D03*
X2377D02*
D03*
X4340Y1657D02*
D03*
X1660Y1643D02*
D03*
X2937Y1940D02*
D03*
X2197Y1960D02*
D03*
D18*
X2980Y2070D02*
D03*
X2880D02*
D03*
X2580Y2370D02*
D03*
X3180Y2070D02*
D03*
X2580D02*
D03*
X2880Y2370D02*
D03*
X2680Y2070D02*
D03*
Y2370D02*
D03*
X2780D02*
D03*
X3080D02*
D03*
X2980D02*
D03*
X2780Y2070D02*
D03*
X3080D02*
D03*
X2970Y1600D02*
D03*
X2870D02*
D03*
X2470D02*
D03*
Y1000D02*
D03*
X2570D02*
D03*
X4070Y1600D02*
D03*
X3970D02*
D03*
X3870D02*
D03*
X3770D02*
D03*
X3670D02*
D03*
X3570D02*
D03*
X3470D02*
D03*
X3370D02*
D03*
X3270D02*
D03*
X3170D02*
D03*
X3370Y1000D02*
D03*
X3070Y1600D02*
D03*
X3270Y1000D02*
D03*
X2770Y1600D02*
D03*
X2670D02*
D03*
X2570D02*
D03*
X2370D02*
D03*
X2270D02*
D03*
Y1000D02*
D03*
X2370D02*
D03*
X2670D02*
D03*
X2770D02*
D03*
X2870D02*
D03*
X2970D02*
D03*
X3070D02*
D03*
X3170D02*
D03*
X3470D02*
D03*
X3570D02*
D03*
X3670D02*
D03*
X3770D02*
D03*
X3870D02*
D03*
X3970D02*
D03*
X4070D02*
D03*
X4170D02*
D03*
X2150Y2370D02*
D03*
X2050D02*
D03*
X1950D02*
D03*
X2250Y2070D02*
D03*
X2150D02*
D03*
X2050D02*
D03*
X1950D02*
D03*
D19*
X3180Y2370D02*
D03*
X4170Y1600D02*
D03*
X2250Y2370D02*
D03*
D20*
X1860Y140D02*
D03*
X1760D02*
D03*
X4460D02*
D03*
X4360D02*
D03*
X4260D02*
D03*
X4160D02*
D03*
X4060D02*
D03*
X3960D02*
D03*
X3860D02*
D03*
X3760D02*
D03*
X3660D02*
D03*
X3560D02*
D03*
X3460D02*
D03*
X3360D02*
D03*
X3260D02*
D03*
X3160D02*
D03*
X3060D02*
D03*
X2960D02*
D03*
X2860D02*
D03*
X2760D02*
D03*
X2660D02*
D03*
X2560D02*
D03*
X2460D02*
D03*
X2360D02*
D03*
X2260D02*
D03*
X2160D02*
D03*
X2060D02*
D03*
X1960D02*
D03*
X1660D02*
D03*
X1560D02*
D03*
X1460D02*
D03*
X1360D02*
D03*
X1260D02*
D03*
X1160D02*
D03*
X1060D02*
D03*
X960D02*
D03*
X860D02*
D03*
X760D02*
D03*
X660D02*
D03*
D21*
X1000Y1240D02*
D03*
Y1340D02*
D03*
X1100Y1240D02*
D03*
Y1340D02*
D03*
X1200Y1240D02*
D03*
X860Y1340D02*
D03*
X1340Y1240D02*
D03*
X1480Y1340D02*
D03*
X380Y1540D02*
D03*
D22*
X1200Y1340D02*
D03*
X860Y1240D02*
D03*
X1340Y1340D02*
D03*
X1480Y1240D02*
D03*
X380Y1440D02*
D03*
D23*
X4493Y906D02*
D03*
X4415Y906D02*
D03*
Y808D02*
D03*
X4493D02*
D03*
D24*
X4600Y1094D02*
D03*
Y620D02*
D03*
D25*
X4100Y720D02*
D03*
D26*
Y820D02*
D03*
D27*
X380Y1125D02*
D03*
Y1875D02*
D03*
D28*
X560Y140D02*
D03*
D29*
X4170Y2200D02*
D03*
X4270D02*
D03*
X3950D02*
D03*
X4050D02*
D03*
X4590D02*
D03*
X3410D02*
D03*
X3510D02*
D03*
X3630D02*
D03*
X3730D02*
D03*
X4490D02*
D03*
D30*
X1587Y1376D02*
D03*
X3585Y206D02*
D03*
X3332Y662D02*
D03*
X1509Y1380D02*
D03*
X1556Y1375D02*
D03*
X4061Y744D02*
D03*
X2725Y1211D02*
D03*
X2691Y550D02*
D03*
X1981Y1413D02*
D03*
X1928Y1241D02*
D03*
X1281Y1643D02*
D03*
X1900Y1202D02*
D03*
X1525Y1424D02*
D03*
X1960Y1560D02*
D03*
X1140Y1416D02*
D03*
X2060Y1383D02*
D03*
X3094Y370D02*
D03*
M02*
