<?xml version="1.0" encoding="UTF-8" standalone="no"?>
<!-- Created with Inkscape (http://www.inkscape.org/) -->
<svg
   xmlns:dc="http://purl.org/dc/elements/1.1/"
   xmlns:cc="http://web.resource.org/cc/"
   xmlns:rdf="http://www.w3.org/1999/02/22-rdf-syntax-ns#"
   xmlns:svg="http://www.w3.org/2000/svg"
   xmlns="http://www.w3.org/2000/svg"
   xmlns:xlink="http://www.w3.org/1999/xlink"
   xmlns:sodipodi="http://sodipodi.sourceforge.net/DTD/sodipodi-0.dtd"
   xmlns:inkscape="http://www.inkscape.org/namespaces/inkscape"
   width="22"
   height="22"
   id="svg5694"
   sodipodi:version="0.32"
   inkscape:version="0.44"
   version="1.0"
   sodipodi:docbase="/home/andreas/project/xchat-gnome"
   sodipodi:docname="operator2.svg"
   inkscape:export-filename="/home/andreas/project/xchat-gnome/operator2.png"
   inkscape:export-xdpi="90"
   inkscape:export-ydpi="90">
  <defs
     id="defs5696">
    <linearGradient
       inkscape:collect="always"
       id="linearGradient3232">
      <stop
         style="stop-color:black;stop-opacity:1;"
         offset="0"
         id="stop3234" />
      <stop
         style="stop-color:black;stop-opacity:0;"
         offset="1"
         id="stop3236" />
    </linearGradient>
    <radialGradient
       inkscape:collect="always"
       xlink:href="#linearGradient3232"
       id="radialGradient3238"
       cx="11.5"
       cy="16.875"
       fx="11.5"
       fy="16.875"
       r="10.5625"
       gradientTransform="matrix(1,0,0,0.502959,0,8.387574)"
       gradientUnits="userSpaceOnUse" />
    <linearGradient
       id="linearGradient3161">
      <stop
         id="stop3163"
         offset="0"
         style="stop-color:white;stop-opacity:1" />
      <stop
         id="stop3165"
         offset="1"
         style="stop-color:#edd400;stop-opacity:1" />
    </linearGradient>
    <radialGradient
       inkscape:collect="always"
       xlink:href="#linearGradient3161"
       id="radialGradient3147"
       cx="9.0832739"
       cy="8.3708572"
       fx="9.0832739"
       fy="8.3708572"
       r="10.040492"
       gradientTransform="matrix(0.957706,0,0,1.004439,0.238404,5.992242e-2)"
       gradientUnits="userSpaceOnUse" />
    <linearGradient
       inkscape:collect="always"
       id="linearGradient3167">
      <stop
         style="stop-color:white;stop-opacity:1;"
         offset="0"
         id="stop3169" />
      <stop
         style="stop-color:white;stop-opacity:0;"
         offset="1"
         id="stop3171" />
    </linearGradient>
    <linearGradient
       inkscape:collect="always"
       xlink:href="#linearGradient3167"
       id="linearGradient3173"
       x1="8.0625"
       y1="8.5"
       x2="13.1875"
       y2="29.1875"
       gradientUnits="userSpaceOnUse"
       gradientTransform="translate(4.1875e-6,3.043342e-2)" />
    <linearGradient
       inkscape:collect="always"
       id="linearGradient3178">
      <stop
         style="stop-color:#c4a000;stop-opacity:1"
         offset="0"
         id="stop3180" />
      <stop
         style="stop-color:white;stop-opacity:1"
         offset="1"
         id="stop3182" />
    </linearGradient>
    <linearGradient
       inkscape:collect="always"
       xlink:href="#linearGradient3178"
       id="linearGradient3184"
       x1="40.411118"
       y1="7.8730125"
       x2="41.579247"
       y2="11.103444"
       gradientUnits="userSpaceOnUse" />
  </defs>
  <sodipodi:namedview
     id="base"
     pagecolor="#ffffff"
     bordercolor="#666666"
     borderopacity="1.0"
     inkscape:pageopacity="0.0"
     inkscape:pageshadow="2"
     inkscape:zoom="11.197802"
     inkscape:cx="16"
     inkscape:cy="16"
     inkscape:current-layer="layer1"
     showgrid="false"
     inkscape:grid-bbox="true"
     inkscape:document-units="px"
     width="22px"
     height="22px"
     inkscape:window-width="1680"
     inkscape:window-height="975"
     inkscape:window-x="0"
     inkscape:window-y="25" />
  <metadata
     id="metadata5699">
    <rdf:RDF>
      <cc:Work
         rdf:about="">
        <dc:format>image/svg+xml</dc:format>
        <dc:type
           rdf:resource="http://purl.org/dc/dcmitype/StillImage" />
      </cc:Work>
    </rdf:RDF>
  </metadata>
  <g
     id="layer1"
     inkscape:label="Layer 1"
     inkscape:groupmode="layer">
    <path
       sodipodi:type="arc"
       style="opacity:0.2;fill:url(#radialGradient3238);fill-opacity:1;stroke:none;stroke-width:1;stroke-linecap:round;stroke-linejoin:miter;stroke-miterlimit:4;stroke-dasharray:none;stroke-dashoffset:1.4;stroke-opacity:1"
       id="path3230"
       sodipodi:cx="11.5"
       sodipodi:cy="16.875"
       sodipodi:rx="10.5625"
       sodipodi:ry="5.3125"
       d="M 22.0625 16.875 A 10.5625 5.3125 0 1 1  0.9375,16.875 A 10.5625 5.3125 0 1 1  22.0625 16.875 z"
       transform="matrix(1.038461,0,0,0.688509,-0.911046,6.754136)" />
    <path
       style="opacity:1;fill:url(#radialGradient3147);fill-opacity:1;stroke:#c4a000;stroke-width:1.06086683;stroke-linecap:round;stroke-linejoin:miter;stroke-miterlimit:4;stroke-dasharray:none;stroke-dashoffset:1.4;stroke-opacity:1"
       d="M 11.000004,0.53043342 C 10.172487,0.53043342 9.5000042,1.2024335 9.5000042,2.0304334 C 9.5000042,2.5996834 9.8139512,3.088827 10.281254,3.3429334 L 8.5000042,6.5304334 L 4.4375044,6.5304334 C 4.6737974,5.8626724 4.3857564,5.0849851 3.7500044,4.7179334 C 3.0329354,4.3039334 2.1012634,4.5637825 1.6875044,5.2804334 C 1.2737454,5.9970842 1.5329354,6.9289335 2.2500044,7.3429334 C 2.7797484,7.6487817 3.4103224,7.5560539 3.8750044,7.2179334 L 6.3750042,10.561683 L 3.9062544,13.842933 C 3.4399634,13.490919 2.7878054,13.407433 2.2500044,13.717933 C 1.5329354,14.131933 1.2737454,15.063782 1.6875044,15.780433 C 2.1012634,16.497084 3.0329354,16.756932 3.7500044,16.342933 C 4.3857564,15.975881 4.6737974,15.198194 4.4375044,14.530433 L 8.5000042,14.530433 L 10.281254,17.717933 C 9.8139512,17.97204 9.5000042,18.461183 9.5000042,19.030433 C 9.5000042,19.858433 10.172487,20.530433 11.000004,20.530433 C 11.827521,20.530433 12.500004,19.858433 12.500004,19.030433 C 12.500004,18.461183 12.186057,17.972039 11.718754,17.717933 L 13.500004,14.530433 L 17.562504,14.530433 C 17.326211,15.198194 17.614252,15.975881 18.250004,16.342933 C 18.967073,16.756933 19.898746,16.497083 20.312504,15.780433 C 20.726263,15.063782 20.467073,14.131933 19.750004,13.717933 C 19.22026,13.412085 18.589686,13.504813 18.125004,13.842933 L 15.687504,10.561683 L 18.125004,7.2179334 C 18.589686,7.5560539 19.22026,7.6487817 19.750004,7.3429334 C 20.467073,6.9289334 20.726263,5.9970841 20.312504,5.2804334 C 19.898745,4.5637826 18.967072,4.3039336 18.250004,4.7179334 C 17.614252,5.0849849 17.326211,5.8626723 17.562504,6.5304334 L 13.500004,6.5304334 L 11.718754,3.3429334 C 12.186057,3.088827 12.500004,2.5996834 12.500004,2.0304334 C 12.500004,1.2024334 11.827522,0.53043342 11.000004,0.53043342 z "
       id="path2157"
       sodipodi:nodetypes="cscccssscccssscccssscccssscccssscccsc" />
    <path
       style="fill:none;fill-opacity:1;stroke:url(#linearGradient3173);stroke-width:1.06086683;stroke-linecap:round;stroke-linejoin:miter;stroke-miterlimit:4;stroke-dashoffset:1.4;stroke-opacity:1"
       d="M 11.000004,4.3116834 L 9.4687542,7.0616834 C 9.2784022,7.4215712 8.9070832,7.6491536 8.5000042,7.6554334 L 5.5937542,7.6554334 L 7.2812542,9.9054334 C 7.5659072,10.296632 7.5659072,10.826734 7.2812542,11.217933 L 5.6250042,13.405433 L 8.5000042,13.405433 C 8.9070832,13.411713 9.2784022,13.639295 9.4687542,13.999183 L 11.000004,16.749183 L 12.531254,13.999183 C 12.721606,13.639295 13.092925,13.411713 13.500004,13.405433 L 16.406254,13.405433 L 14.781254,11.217933 C 14.496601,10.826734 14.496601,10.296632 14.781254,9.9054334 L 16.406254,7.6554334 L 13.500004,7.6554334 C 13.092925,7.6491536 12.721606,7.4215712 12.531254,7.0616834 L 11.000004,4.3116834 z "
       id="path3157"
       sodipodi:nodetypes="ccccccccccccccccccc" />
    <g
       id="g3196"
       transform="matrix(1.015873,0,0,1,-8.158726,4.030433)">
      <path
         transform="matrix(1.05,0,0,1.2549,7.801562,-5.392144)"
         d="M 3.96875 5.890625 A 0.9375 0.796875 0 1 1  2.09375,5.890625 A 0.9375 0.796875 0 1 1  3.96875 5.890625 z"
         sodipodi:ry="0.796875"
         sodipodi:rx="0.9375"
         sodipodi:cy="5.890625"
         sodipodi:cx="3.03125"
         id="path3192"
         style="opacity:1;fill:#fce94f;fill-opacity:1;stroke:none;stroke-width:1;stroke-linecap:round;stroke-linejoin:miter;stroke-miterlimit:4;stroke-dasharray:none;stroke-dashoffset:1.4;stroke-opacity:1"
         sodipodi:type="arc" />
      <path
         transform="matrix(0.914286,0,0,1,8.114285,-4.0625)"
         d="M 3.15625 5.5625 A 0.546875 0.5 0 1 1  2.0625,5.5625 A 0.546875 0.5 0 1 1  3.15625 5.5625 z"
         sodipodi:ry="0.5"
         sodipodi:rx="0.546875"
         sodipodi:cy="5.5625"
         sodipodi:cx="2.609375"
         id="path3194"
         style="opacity:1;fill:white;fill-opacity:1;stroke:none;stroke-width:1;stroke-linecap:round;stroke-linejoin:miter;stroke-miterlimit:4;stroke-dasharray:none;stroke-dashoffset:1.4;stroke-opacity:1"
         sodipodi:type="arc" />
    </g>
    <g
       id="g3200"
       transform="matrix(1.015873,0,0,1,-8.158726,13.03043)">
      <path
         transform="matrix(1.05,0,0,1.2549,7.801562,-5.392144)"
         d="M 3.96875 5.890625 A 0.9375 0.796875 0 1 1  2.09375,5.890625 A 0.9375 0.796875 0 1 1  3.96875 5.890625 z"
         sodipodi:ry="0.796875"
         sodipodi:rx="0.9375"
         sodipodi:cy="5.890625"
         sodipodi:cx="3.03125"
         id="path3202"
         style="opacity:1;fill:#fce94f;fill-opacity:1;stroke:none;stroke-width:1;stroke-linecap:round;stroke-linejoin:miter;stroke-miterlimit:4;stroke-dasharray:none;stroke-dashoffset:1.4;stroke-opacity:1"
         sodipodi:type="arc" />
      <path
         transform="matrix(0.914286,0,0,1,8.114285,-4.0625)"
         d="M 3.15625 5.5625 A 0.546875 0.5 0 1 1  2.0625,5.5625 A 0.546875 0.5 0 1 1  3.15625 5.5625 z"
         sodipodi:ry="0.5"
         sodipodi:rx="0.546875"
         sodipodi:cy="5.5625"
         sodipodi:cx="2.609375"
         id="path3204"
         style="opacity:1;fill:white;fill-opacity:1;stroke:none;stroke-width:1;stroke-linecap:round;stroke-linejoin:miter;stroke-miterlimit:4;stroke-dasharray:none;stroke-dashoffset:1.4;stroke-opacity:1"
         sodipodi:type="arc" />
    </g>
    <g
       id="g3206"
       transform="matrix(1.015873,0,0,1,-0.158726,3.043342e-2)">
      <path
         transform="matrix(1.05,0,0,1.2549,7.801562,-5.392144)"
         d="M 3.96875 5.890625 A 0.9375 0.796875 0 1 1  2.09375,5.890625 A 0.9375 0.796875 0 1 1  3.96875 5.890625 z"
         sodipodi:ry="0.796875"
         sodipodi:rx="0.9375"
         sodipodi:cy="5.890625"
         sodipodi:cx="3.03125"
         id="path3208"
         style="opacity:1;fill:#fce94f;fill-opacity:1;stroke:none;stroke-width:1;stroke-linecap:round;stroke-linejoin:miter;stroke-miterlimit:4;stroke-dasharray:none;stroke-dashoffset:1.4;stroke-opacity:1"
         sodipodi:type="arc" />
      <path
         transform="matrix(0.914286,0,0,1,8.114285,-4.0625)"
         d="M 3.15625 5.5625 A 0.546875 0.5 0 1 1  2.0625,5.5625 A 0.546875 0.5 0 1 1  3.15625 5.5625 z"
         sodipodi:ry="0.5"
         sodipodi:rx="0.546875"
         sodipodi:cy="5.5625"
         sodipodi:cx="2.609375"
         id="path3210"
         style="opacity:1;fill:white;fill-opacity:1;stroke:none;stroke-width:1;stroke-linecap:round;stroke-linejoin:miter;stroke-miterlimit:4;stroke-dasharray:none;stroke-dashoffset:1.4;stroke-opacity:1"
         sodipodi:type="arc" />
    </g>
    <g
       id="g3212"
       transform="matrix(1.015873,0,0,1,7.841279,4.030433)">
      <path
         transform="matrix(1.05,0,0,1.2549,7.801562,-5.392144)"
         d="M 3.96875 5.890625 A 0.9375 0.796875 0 1 1  2.09375,5.890625 A 0.9375 0.796875 0 1 1  3.96875 5.890625 z"
         sodipodi:ry="0.796875"
         sodipodi:rx="0.9375"
         sodipodi:cy="5.890625"
         sodipodi:cx="3.03125"
         id="path3214"
         style="opacity:1;fill:#fce94f;fill-opacity:1;stroke:none;stroke-width:1;stroke-linecap:round;stroke-linejoin:miter;stroke-miterlimit:4;stroke-dasharray:none;stroke-dashoffset:1.4;stroke-opacity:1"
         sodipodi:type="arc" />
      <path
         transform="matrix(0.914286,0,0,1,8.114285,-4.0625)"
         d="M 3.15625 5.5625 A 0.546875 0.5 0 1 1  2.0625,5.5625 A 0.546875 0.5 0 1 1  3.15625 5.5625 z"
         sodipodi:ry="0.5"
         sodipodi:rx="0.546875"
         sodipodi:cy="5.5625"
         sodipodi:cx="2.609375"
         id="path3216"
         style="opacity:1;fill:white;fill-opacity:1;stroke:none;stroke-width:1;stroke-linecap:round;stroke-linejoin:miter;stroke-miterlimit:4;stroke-dasharray:none;stroke-dashoffset:1.4;stroke-opacity:1"
         sodipodi:type="arc" />
    </g>
    <g
       id="g3218"
       transform="matrix(1.015873,0,0,1,7.841279,13.03043)">
      <path
         transform="matrix(1.05,0,0,1.2549,7.801562,-5.392144)"
         d="M 3.96875 5.890625 A 0.9375 0.796875 0 1 1  2.09375,5.890625 A 0.9375 0.796875 0 1 1  3.96875 5.890625 z"
         sodipodi:ry="0.796875"
         sodipodi:rx="0.9375"
         sodipodi:cy="5.890625"
         sodipodi:cx="3.03125"
         id="path3220"
         style="opacity:1;fill:#fce94f;fill-opacity:1;stroke:none;stroke-width:1;stroke-linecap:round;stroke-linejoin:miter;stroke-miterlimit:4;stroke-dasharray:none;stroke-dashoffset:1.4;stroke-opacity:1"
         sodipodi:type="arc" />
      <path
         transform="matrix(0.914286,0,0,1,8.114285,-4.0625)"
         d="M 3.15625 5.5625 A 0.546875 0.5 0 1 1  2.0625,5.5625 A 0.546875 0.5 0 1 1  3.15625 5.5625 z"
         sodipodi:ry="0.5"
         sodipodi:rx="0.546875"
         sodipodi:cy="5.5625"
         sodipodi:cx="2.609375"
         id="path3222"
         style="opacity:1;fill:white;fill-opacity:1;stroke:none;stroke-width:1;stroke-linecap:round;stroke-linejoin:miter;stroke-miterlimit:4;stroke-dasharray:none;stroke-dashoffset:1.4;stroke-opacity:1"
         sodipodi:type="arc" />
    </g>
    <g
       id="g3224"
       transform="matrix(1.015873,0,0,1,-0.158726,17.03044)">
      <path
         transform="matrix(1.05,0,0,1.2549,7.801562,-5.392144)"
         d="M 3.96875 5.890625 A 0.9375 0.796875 0 1 1  2.09375,5.890625 A 0.9375 0.796875 0 1 1  3.96875 5.890625 z"
         sodipodi:ry="0.796875"
         sodipodi:rx="0.9375"
         sodipodi:cy="5.890625"
         sodipodi:cx="3.03125"
         id="path3226"
         style="opacity:1;fill:#fce94f;fill-opacity:1;stroke:none;stroke-width:1;stroke-linecap:round;stroke-linejoin:miter;stroke-miterlimit:4;stroke-dasharray:none;stroke-dashoffset:1.4;stroke-opacity:1"
         sodipodi:type="arc" />
      <path
         transform="matrix(0.914286,0,0,1,8.114285,-4.0625)"
         d="M 3.15625 5.5625 A 0.546875 0.5 0 1 1  2.0625,5.5625 A 0.546875 0.5 0 1 1  3.15625 5.5625 z"
         sodipodi:ry="0.5"
         sodipodi:rx="0.546875"
         sodipodi:cy="5.5625"
         sodipodi:cx="2.609375"
         id="path3228"
         style="opacity:1;fill:white;fill-opacity:1;stroke:none;stroke-width:1;stroke-linecap:round;stroke-linejoin:miter;stroke-miterlimit:4;stroke-dasharray:none;stroke-dashoffset:1.4;stroke-opacity:1"
         sodipodi:type="arc" />
    </g>
    <path
       sodipodi:type="arc"
       style="opacity:0.7;fill:none;fill-opacity:1;stroke:url(#linearGradient3184);stroke-width:0.54917514;stroke-linecap:round;stroke-linejoin:miter;stroke-miterlimit:4;stroke-dasharray:none;stroke-dashoffset:1.4;stroke-opacity:1"
       id="path3176"
       sodipodi:cx="41.03125"
       sodipodi:cy="10.171875"
       sodipodi:rx="1.59375"
       sodipodi:ry="1.703125"
       d="M 42.625 10.171875 A 1.59375 1.703125 0 1 1  39.4375,10.171875 A 1.59375 1.703125 0 1 1  42.625 10.171875 z"
       transform="matrix(1.882363,0,0,1.761468,-66.23573,-7.387004)" />
    <g
       id="g3185"
       transform="translate(-29.99999,3.043342e-2)">
      <path
         transform="matrix(2.205126,0,0,2.263162,33.63062,-69.52811)"
         d="M 6.21875 36.5625 A 0.609375 0.59375 0 1 1  5,36.5625 A 0.609375 0.59375 0 1 1  6.21875 36.5625 z"
         sodipodi:ry="0.59375"
         sodipodi:rx="0.609375"
         sodipodi:cy="36.5625"
         sodipodi:cx="5.609375"
         id="path3179"
         style="opacity:1;fill:white;fill-opacity:1;stroke:none;stroke-width:1;stroke-linecap:round;stroke-linejoin:miter;stroke-miterlimit:4;stroke-dasharray:none;stroke-dashoffset:1.4;stroke-opacity:1"
         sodipodi:type="arc" />
      <path
         transform="matrix(2.205126,0,0,2.263162,24.70384,-75.0518)"
         d="M 6.21875 36.5625 A 0.609375 0.59375 0 1 1  5,36.5625 A 0.609375 0.59375 0 1 1  6.21875 36.5625 z"
         sodipodi:ry="0.59375"
         sodipodi:rx="0.609375"
         sodipodi:cy="36.5625"
         sodipodi:cx="5.609375"
         id="path3181"
         style="opacity:1;fill:white;fill-opacity:1;stroke:none;stroke-width:1;stroke-linecap:round;stroke-linejoin:miter;stroke-miterlimit:4;stroke-dasharray:none;stroke-dashoffset:1.4;stroke-opacity:1"
         sodipodi:type="arc" />
      <path
         transform="matrix(1.487177,0,0,1.526318,29.03286,-42.21224)"
         d="M 6.21875 36.5625 A 0.609375 0.59375 0 1 1  5,36.5625 A 0.609375 0.59375 0 1 1  6.21875 36.5625 z"
         sodipodi:ry="0.59375"
         sodipodi:rx="0.609375"
         sodipodi:cy="36.5625"
         sodipodi:cx="5.609375"
         id="path3183"
         style="opacity:1;fill:white;fill-opacity:1;stroke:none;stroke-width:1;stroke-linecap:round;stroke-linejoin:miter;stroke-miterlimit:4;stroke-dasharray:none;stroke-dashoffset:1.4;stroke-opacity:1"
         sodipodi:type="arc" />
    </g>
  </g>
</svg>
