%FSLAX23Y23*%
%MOIN*%
G70*
G01*
G75*
%ADD10O,0.012X0.059*%
%ADD11R,0.012X0.059*%
%ADD12O,0.059X0.012*%
%ADD13R,0.059X0.012*%
%ADD14C,0.010*%
%ADD15C,0.110*%
%ADD16O,0.236X0.130*%
%ADD17C,0.300*%
%ADD18R,0.059X0.059*%
%ADD19C,0.059*%
%ADD20C,0.055*%
%ADD21R,0.053X0.053*%
%ADD22C,0.053*%
%ADD23C,0.047*%
%ADD24R,0.047X0.047*%
%ADD25R,0.059X0.059*%
%ADD26C,0.059*%
%ADD27C,0.065*%
%ADD28C,0.180*%
%ADD29C,0.050*%
%ADD30C,0.008*%
%ADD31C,0.006*%
D14*
X7080Y14D02*
X7554D01*
Y320D01*
X7080Y14D02*
Y320D01*
Y668D02*
X7554D01*
X7080Y520D02*
Y668D01*
X7554Y520D02*
Y668D01*
X3790Y2400D02*
X3840D01*
X3850Y2410D01*
Y2430D01*
X3840Y2440D01*
X3790D01*
X3850Y2500D02*
Y2460D01*
X3810Y2500D01*
X3800D01*
X3790Y2490D01*
Y2470D01*
X3800Y2460D01*
X7650Y3420D02*
Y3480D01*
X7680D01*
X7690Y3470D01*
Y3450D01*
X7680Y3440D01*
X7650D01*
X7670D02*
X7690Y3420D01*
X7750D02*
X7710D01*
X7750Y3460D01*
Y3470D01*
X7740Y3480D01*
X7720D01*
X7710Y3470D01*
X7770Y3480D02*
X7810D01*
Y3470D01*
X7770Y3430D01*
Y3420D01*
X6800D02*
Y3480D01*
X6830D01*
X6840Y3470D01*
Y3450D01*
X6830Y3440D01*
X6800D01*
X6820D02*
X6840Y3420D01*
X6900D02*
X6860D01*
X6900Y3460D01*
Y3470D01*
X6890Y3480D01*
X6870D01*
X6860Y3470D01*
X6960Y3480D02*
X6940Y3470D01*
X6920Y3450D01*
Y3430D01*
X6930Y3420D01*
X6950D01*
X6960Y3430D01*
Y3440D01*
X6950Y3450D01*
X6920D01*
X5950Y3420D02*
Y3480D01*
X5980D01*
X5990Y3470D01*
Y3450D01*
X5980Y3440D01*
X5950D01*
X5970D02*
X5990Y3420D01*
X6050D02*
X6010D01*
X6050Y3460D01*
Y3470D01*
X6040Y3480D01*
X6020D01*
X6010Y3470D01*
X6110Y3480D02*
X6070D01*
Y3450D01*
X6090Y3460D01*
X6100D01*
X6110Y3450D01*
Y3430D01*
X6100Y3420D01*
X6080D01*
X6070Y3430D01*
X5100Y3420D02*
Y3480D01*
X5130D01*
X5140Y3470D01*
Y3450D01*
X5130Y3440D01*
X5100D01*
X5120D02*
X5140Y3420D01*
X5200D02*
X5160D01*
X5200Y3460D01*
Y3470D01*
X5190Y3480D01*
X5170D01*
X5160Y3470D01*
X5250Y3420D02*
Y3480D01*
X5220Y3450D01*
X5260D01*
X4300Y3420D02*
Y3480D01*
X4330D01*
X4340Y3470D01*
Y3450D01*
X4330Y3440D01*
X4300D01*
X4320D02*
X4340Y3420D01*
X4400D02*
X4360D01*
X4400Y3460D01*
Y3470D01*
X4390Y3480D01*
X4370D01*
X4360Y3470D01*
X4420D02*
X4430Y3480D01*
X4450D01*
X4460Y3470D01*
Y3460D01*
X4450Y3450D01*
X4440D01*
X4450D01*
X4460Y3440D01*
Y3430D01*
X4450Y3420D01*
X4430D01*
X4420Y3430D01*
X3400Y3420D02*
Y3480D01*
X3430D01*
X3440Y3470D01*
Y3450D01*
X3430Y3440D01*
X3400D01*
X3420D02*
X3440Y3420D01*
X3500D02*
X3460D01*
X3500Y3460D01*
Y3470D01*
X3490Y3480D01*
X3470D01*
X3460Y3470D01*
X3560Y3420D02*
X3520D01*
X3560Y3460D01*
Y3470D01*
X3550Y3480D01*
X3530D01*
X3520Y3470D01*
X2600Y3420D02*
Y3480D01*
X2630D01*
X2640Y3470D01*
Y3450D01*
X2630Y3440D01*
X2600D01*
X2620D02*
X2640Y3420D01*
X2700D02*
X2660D01*
X2700Y3460D01*
Y3470D01*
X2690Y3480D01*
X2670D01*
X2660Y3470D01*
X2720Y3420D02*
X2740D01*
X2730D01*
Y3480D01*
X2720Y3470D01*
X1750Y3420D02*
Y3480D01*
X1780D01*
X1790Y3470D01*
Y3450D01*
X1780Y3440D01*
X1750D01*
X1770D02*
X1790Y3420D01*
X1850D02*
X1810D01*
X1850Y3460D01*
Y3470D01*
X1840Y3480D01*
X1820D01*
X1810Y3470D01*
X1870D02*
X1880Y3480D01*
X1900D01*
X1910Y3470D01*
Y3430D01*
X1900Y3420D01*
X1880D01*
X1870Y3430D01*
Y3470D01*
X950Y3220D02*
Y3280D01*
X980D01*
X990Y3270D01*
Y3250D01*
X980Y3240D01*
X950D01*
X970D02*
X990Y3220D01*
X1010D02*
X1030D01*
X1020D01*
Y3280D01*
X1010Y3270D01*
X1060Y3230D02*
X1070Y3220D01*
X1090D01*
X1100Y3230D01*
Y3270D01*
X1090Y3280D01*
X1070D01*
X1060Y3270D01*
Y3260D01*
X1070Y3250D01*
X1100D01*
X950Y3470D02*
Y3530D01*
X980D01*
X990Y3520D01*
Y3500D01*
X980Y3490D01*
X950D01*
X970D02*
X990Y3470D01*
X1010D02*
X1030D01*
X1020D01*
Y3530D01*
X1010Y3520D01*
X1060D02*
X1070Y3530D01*
X1090D01*
X1100Y3520D01*
Y3510D01*
X1090Y3500D01*
X1100Y3490D01*
Y3480D01*
X1090Y3470D01*
X1070D01*
X1060Y3480D01*
Y3490D01*
X1070Y3500D01*
X1060Y3510D01*
Y3520D01*
X1070Y3500D02*
X1090D01*
X5100Y860D02*
Y850D01*
X5120Y830D01*
X5140Y850D01*
Y860D01*
X5120Y830D02*
Y800D01*
X5160D02*
X5180D01*
X5170D01*
Y860D01*
X5160Y850D01*
X6100Y750D02*
Y810D01*
X6130D01*
X6140Y800D01*
Y780D01*
X6130Y770D01*
X6100D01*
X6120D02*
X6140Y750D01*
X6160D02*
X6180D01*
X6170D01*
Y810D01*
X6160Y800D01*
X3410Y2890D02*
X3400Y2900D01*
X3380D01*
X3370Y2890D01*
Y2850D01*
X3380Y2840D01*
X3400D01*
X3410Y2850D01*
X3430Y2900D02*
X3470D01*
Y2890D01*
X3430Y2850D01*
Y2840D01*
X930Y1140D02*
X920Y1130D01*
Y1110D01*
X930Y1100D01*
X970D01*
X980Y1110D01*
Y1130D01*
X970Y1140D01*
X920Y1200D02*
X930Y1180D01*
X950Y1160D01*
X970D01*
X980Y1170D01*
Y1190D01*
X970Y1200D01*
X960D01*
X950Y1190D01*
Y1160D01*
X3490Y1200D02*
X3480Y1210D01*
X3460D01*
X3450Y1200D01*
Y1160D01*
X3460Y1150D01*
X3480D01*
X3490Y1160D01*
X3550Y1210D02*
X3510D01*
Y1180D01*
X3530Y1190D01*
X3540D01*
X3550Y1180D01*
Y1160D01*
X3540Y1150D01*
X3520D01*
X3510Y1160D01*
X6790Y700D02*
X6780Y710D01*
X6760D01*
X6750Y700D01*
Y660D01*
X6760Y650D01*
X6780D01*
X6790Y660D01*
X6840Y650D02*
Y710D01*
X6810Y680D01*
X6850D01*
X6360Y750D02*
X6350Y760D01*
X6330D01*
X6320Y750D01*
Y710D01*
X6330Y700D01*
X6350D01*
X6360Y710D01*
X6380Y750D02*
X6390Y760D01*
X6410D01*
X6420Y750D01*
Y740D01*
X6410Y730D01*
X6400D01*
X6410D01*
X6420Y720D01*
Y710D01*
X6410Y700D01*
X6390D01*
X6380Y710D01*
X4790Y550D02*
X4780Y560D01*
X4760D01*
X4750Y550D01*
Y510D01*
X4760Y500D01*
X4780D01*
X4790Y510D01*
X4850Y500D02*
X4810D01*
X4850Y540D01*
Y550D01*
X4840Y560D01*
X4820D01*
X4810Y550D01*
X4790Y750D02*
X4780Y760D01*
X4760D01*
X4750Y750D01*
Y710D01*
X4760Y700D01*
X4780D01*
X4790Y710D01*
X4810Y700D02*
X4830D01*
X4820D01*
Y760D01*
X4810Y750D01*
X2510Y320D02*
X2560D01*
X2570Y330D01*
Y350D01*
X2560Y360D01*
X2510D01*
X2570Y380D02*
Y400D01*
Y390D01*
X2510D01*
X2520Y380D01*
X7738Y623D02*
Y643D01*
Y633D01*
X7688D01*
X7678Y643D01*
Y653D01*
X7688Y663D01*
X7678Y603D02*
Y583D01*
Y593D01*
X7738D01*
X7728Y603D01*
X1330Y1600D02*
Y1550D01*
X1340Y1540D01*
X1360D01*
X1370Y1550D01*
Y1600D01*
X1390Y1590D02*
X1400Y1600D01*
X1420D01*
X1430Y1590D01*
Y1580D01*
X1420Y1570D01*
X1410D01*
X1420D01*
X1430Y1560D01*
Y1550D01*
X1420Y1540D01*
X1400D01*
X1390Y1550D01*
X1640Y800D02*
X1580D01*
Y830D01*
X1590Y840D01*
X1610D01*
X1620Y830D01*
Y800D01*
Y820D02*
X1640Y840D01*
Y900D02*
Y860D01*
X1600Y900D01*
X1590D01*
X1580Y890D01*
Y870D01*
X1590Y860D01*
X1740Y800D02*
X1680D01*
Y830D01*
X1690Y840D01*
X1710D01*
X1720Y830D01*
Y800D01*
Y820D02*
X1740Y840D01*
X1690Y860D02*
X1680Y870D01*
Y890D01*
X1690Y900D01*
X1700D01*
X1710Y890D01*
Y880D01*
Y890D01*
X1720Y900D01*
X1730D01*
X1740Y890D01*
Y870D01*
X1730Y860D01*
X1840Y800D02*
X1780D01*
Y830D01*
X1790Y840D01*
X1810D01*
X1820Y830D01*
Y800D01*
Y820D02*
X1840Y840D01*
Y890D02*
X1780D01*
X1810Y860D01*
Y900D01*
X1940Y800D02*
X1880D01*
Y830D01*
X1890Y840D01*
X1910D01*
X1920Y830D01*
Y800D01*
Y820D02*
X1940Y840D01*
X1880Y900D02*
Y860D01*
X1910D01*
X1900Y880D01*
Y890D01*
X1910Y900D01*
X1930D01*
X1940Y890D01*
Y870D01*
X1930Y860D01*
X2040Y800D02*
X1980D01*
Y830D01*
X1990Y840D01*
X2010D01*
X2020Y830D01*
Y800D01*
Y820D02*
X2040Y840D01*
X1980Y900D02*
X1990Y880D01*
X2010Y860D01*
X2030D01*
X2040Y870D01*
Y890D01*
X2030Y900D01*
X2020D01*
X2010Y890D01*
Y860D01*
X2140Y800D02*
X2080D01*
Y830D01*
X2090Y840D01*
X2110D01*
X2120Y830D01*
Y800D01*
Y820D02*
X2140Y840D01*
X2080Y860D02*
Y900D01*
X2090D01*
X2130Y860D01*
X2140D01*
X2240Y800D02*
X2180D01*
Y830D01*
X2190Y840D01*
X2210D01*
X2220Y830D01*
Y800D01*
Y820D02*
X2240Y840D01*
X2190Y860D02*
X2180Y870D01*
Y890D01*
X2190Y900D01*
X2200D01*
X2210Y890D01*
X2220Y900D01*
X2230D01*
X2240Y890D01*
Y870D01*
X2230Y860D01*
X2220D01*
X2210Y870D01*
X2200Y860D01*
X2190D01*
X2210Y870D02*
Y890D01*
X2340Y800D02*
X2280D01*
Y830D01*
X2290Y840D01*
X2310D01*
X2320Y830D01*
Y800D01*
Y820D02*
X2340Y840D01*
X2330Y860D02*
X2340Y870D01*
Y890D01*
X2330Y900D01*
X2290D01*
X2280Y890D01*
Y870D01*
X2290Y860D01*
X2300D01*
X2310Y870D01*
Y900D01*
X1540Y800D02*
X1480D01*
Y830D01*
X1490Y840D01*
X1510D01*
X1520Y830D01*
Y800D01*
Y820D02*
X1540Y840D01*
Y860D02*
Y880D01*
Y870D01*
X1480D01*
X1490Y860D01*
Y910D02*
X1480Y920D01*
Y940D01*
X1490Y950D01*
X1530D01*
X1540Y940D01*
Y920D01*
X1530Y910D01*
X1490D01*
X1440Y800D02*
X1380D01*
Y830D01*
X1390Y840D01*
X1410D01*
X1420Y830D01*
Y800D01*
Y820D02*
X1440Y840D01*
Y860D02*
Y880D01*
Y870D01*
X1380D01*
X1390Y860D01*
X1440Y910D02*
Y930D01*
Y920D01*
X1380D01*
X1390Y910D01*
X1340Y800D02*
X1280D01*
Y830D01*
X1290Y840D01*
X1310D01*
X1320Y830D01*
Y800D01*
Y820D02*
X1340Y840D01*
Y860D02*
Y880D01*
Y870D01*
X1280D01*
X1290Y860D01*
X1340Y950D02*
Y910D01*
X1300Y950D01*
X1290D01*
X1280Y940D01*
Y920D01*
X1290Y910D01*
X1240Y800D02*
X1180D01*
Y830D01*
X1190Y840D01*
X1210D01*
X1220Y830D01*
Y800D01*
Y820D02*
X1240Y840D01*
Y860D02*
Y880D01*
Y870D01*
X1180D01*
X1190Y860D01*
Y910D02*
X1180Y920D01*
Y940D01*
X1190Y950D01*
X1200D01*
X1210Y940D01*
Y930D01*
Y940D01*
X1220Y950D01*
X1230D01*
X1240Y940D01*
Y920D01*
X1230Y910D01*
X1140Y800D02*
X1080D01*
Y830D01*
X1090Y840D01*
X1110D01*
X1120Y830D01*
Y800D01*
Y820D02*
X1140Y840D01*
Y860D02*
Y880D01*
Y870D01*
X1080D01*
X1090Y860D01*
X1140Y940D02*
X1080D01*
X1110Y910D01*
Y950D01*
X1040Y800D02*
X980D01*
Y830D01*
X990Y840D01*
X1010D01*
X1020Y830D01*
Y800D01*
Y820D02*
X1040Y840D01*
Y860D02*
Y880D01*
Y870D01*
X980D01*
X990Y860D01*
X980Y950D02*
Y910D01*
X1010D01*
X1000Y930D01*
Y940D01*
X1010Y950D01*
X1030D01*
X1040Y940D01*
Y920D01*
X1030Y910D01*
X940Y800D02*
X880D01*
Y830D01*
X890Y840D01*
X910D01*
X920Y830D01*
Y800D01*
Y820D02*
X940Y840D01*
Y860D02*
Y880D01*
Y870D01*
X880D01*
X890Y860D01*
X880Y950D02*
X890Y930D01*
X910Y910D01*
X930D01*
X940Y920D01*
Y940D01*
X930Y950D01*
X920D01*
X910Y940D01*
Y910D01*
X840Y800D02*
X780D01*
Y830D01*
X790Y840D01*
X810D01*
X820Y830D01*
Y800D01*
Y820D02*
X840Y840D01*
Y860D02*
Y880D01*
Y870D01*
X780D01*
X790Y860D01*
X780Y910D02*
Y950D01*
X790D01*
X830Y910D01*
X840D01*
X290Y3200D02*
X260D01*
X250Y3190D01*
Y3160D01*
X290D01*
Y3140D02*
X250Y3120D01*
X290Y3100D01*
X250Y3080D02*
Y3050D01*
X260Y3040D01*
X270Y3050D01*
Y3070D01*
X280Y3080D01*
X290Y3070D01*
Y3040D01*
Y3020D02*
X260D01*
X250Y3010D01*
X260Y3000D01*
X250Y2990D01*
X260Y2980D01*
X290D01*
X250Y2960D02*
Y2940D01*
Y2950D01*
X290D01*
Y2960D01*
X300Y2900D02*
X290D01*
Y2910D01*
Y2890D01*
Y2900D01*
X260D01*
X250Y2890D01*
X290Y2820D02*
Y2850D01*
X280Y2860D01*
X260D01*
X250Y2850D01*
Y2820D01*
X310Y2800D02*
X250D01*
X280D01*
X290Y2790D01*
Y2770D01*
X280Y2760D01*
X250D01*
X290Y2680D02*
X250D01*
X270D01*
X280Y2670D01*
X290Y2660D01*
Y2650D01*
X250Y2590D02*
Y2610D01*
X260Y2620D01*
X280D01*
X290Y2610D01*
Y2590D01*
X280Y2580D01*
X270D01*
Y2620D01*
X290Y2560D02*
X250Y2540D01*
X290Y2520D01*
X250Y2440D02*
X290D01*
X310Y2420D01*
X290Y2400D01*
X250D01*
X280D01*
Y2440D01*
X200Y3200D02*
X210Y3190D01*
Y3170D01*
X200Y3160D01*
X190D01*
X180Y3170D01*
X170Y3160D01*
X160D01*
X150Y3170D01*
Y3190D01*
X160Y3200D01*
X170D01*
X180Y3190D01*
X190Y3200D01*
X200D01*
X180Y3190D02*
Y3170D01*
Y3140D02*
Y3100D01*
X150Y3080D02*
X210D01*
Y3050D01*
X200Y3040D01*
X180D01*
X170Y3050D01*
Y3080D01*
X150Y3010D02*
Y2990D01*
X160Y2980D01*
X180D01*
X190Y2990D01*
Y3010D01*
X180Y3020D01*
X160D01*
X150Y3010D01*
X190Y2960D02*
X150D01*
X170D01*
X180Y2950D01*
X190Y2940D01*
Y2930D01*
X200Y2890D02*
X190D01*
Y2900D01*
Y2880D01*
Y2890D01*
X160D01*
X150Y2880D01*
X210Y2790D02*
X160D01*
X150Y2780D01*
Y2760D01*
X160Y2750D01*
X210D01*
X200Y2690D02*
X210Y2700D01*
Y2720D01*
X200Y2730D01*
X190D01*
X180Y2720D01*
Y2700D01*
X170Y2690D01*
X160D01*
X150Y2700D01*
Y2720D01*
X160Y2730D01*
X210Y2670D02*
X150D01*
Y2640D01*
X160Y2630D01*
X170D01*
X180Y2640D01*
Y2670D01*
Y2640D01*
X190Y2630D01*
X200D01*
X210Y2640D01*
Y2670D01*
Y2550D02*
X170D01*
X150Y2530D01*
X170Y2510D01*
X210D01*
X150Y2490D02*
Y2470D01*
Y2480D01*
X190D01*
Y2490D01*
X210Y2400D02*
X150D01*
Y2430D01*
X160Y2440D01*
X180D01*
X190Y2430D01*
Y2400D01*
X150Y2350D02*
Y2370D01*
X160Y2380D01*
X180D01*
X190Y2370D01*
Y2350D01*
X180Y2340D01*
X170D01*
Y2380D01*
X150Y2310D02*
Y2290D01*
X160Y2280D01*
X180D01*
X190Y2290D01*
Y2310D01*
X180Y2320D01*
X160D01*
X150Y2310D01*
X200Y2160D02*
X210Y2170D01*
Y2190D01*
X200Y2200D01*
X190D01*
X180Y2190D01*
Y2170D01*
X170Y2160D01*
X160D01*
X150Y2170D01*
Y2190D01*
X160Y2200D01*
X190Y2140D02*
X160D01*
X150Y2130D01*
X160Y2120D01*
X150Y2110D01*
X160Y2100D01*
X190D01*
X150Y2080D02*
Y2060D01*
Y2070D01*
X190D01*
Y2080D01*
X200Y2020D02*
X190D01*
Y2030D01*
Y2010D01*
Y2020D01*
X160D01*
X150Y2010D01*
X190Y1940D02*
Y1970D01*
X180Y1980D01*
X160D01*
X150Y1970D01*
Y1940D01*
X210Y1920D02*
X150D01*
X180D01*
X190Y1910D01*
Y1890D01*
X180Y1880D01*
X150D01*
Y1780D02*
X170Y1800D01*
X190D01*
X210Y1780D01*
X200Y1710D02*
X210Y1720D01*
Y1740D01*
X200Y1750D01*
X160D01*
X150Y1740D01*
Y1720D01*
X160Y1710D01*
X150Y1690D02*
X170Y1670D01*
X190D01*
X210Y1690D01*
X150Y1541D02*
Y1581D01*
X190Y1541D01*
X200D01*
X210Y1551D01*
Y1571D01*
X200Y1581D01*
Y1521D02*
X210Y1511D01*
Y1491D01*
X200Y1481D01*
X160D01*
X150Y1491D01*
Y1511D01*
X160Y1521D01*
X200D01*
Y1461D02*
X210Y1451D01*
Y1431D01*
X200Y1421D01*
X160D01*
X150Y1431D01*
Y1451D01*
X160Y1461D01*
X200D01*
Y1401D02*
X210Y1391D01*
Y1371D01*
X200Y1361D01*
X190D01*
X180Y1371D01*
Y1381D01*
Y1371D01*
X170Y1361D01*
X160D01*
X150Y1371D01*
Y1391D01*
X160Y1401D01*
X150Y1281D02*
X210D01*
X190Y1261D01*
X210Y1241D01*
X150D01*
Y1221D02*
Y1201D01*
Y1211D01*
X190D01*
Y1221D01*
Y1131D02*
Y1161D01*
X180Y1171D01*
X160D01*
X150Y1161D01*
Y1131D01*
X190Y1101D02*
Y1081D01*
X180Y1071D01*
X150D01*
Y1101D01*
X160Y1111D01*
X170Y1101D01*
Y1071D01*
X210Y1051D02*
X150D01*
X180D01*
X190Y1041D01*
Y1021D01*
X180Y1011D01*
X150D01*
X210Y931D02*
X150D01*
Y901D01*
X160Y891D01*
X200D01*
X210Y901D01*
Y931D01*
X150Y861D02*
Y841D01*
X160Y831D01*
X180D01*
X190Y841D01*
Y861D01*
X180Y871D01*
X160D01*
X150Y861D01*
X190Y811D02*
X160D01*
X150Y801D01*
X160Y791D01*
X150Y781D01*
X160Y771D01*
X190D01*
X200Y741D02*
X190D01*
Y751D01*
Y731D01*
Y741D01*
X160D01*
X150Y731D01*
X190Y701D02*
X160D01*
X150Y691D01*
Y661D01*
X140D01*
X130Y671D01*
Y681D01*
X150Y661D02*
X190D01*
D30*
X3417Y2460D02*
G03*
X3417Y2473I0J6D01*
G01*
X4872Y608D02*
G03*
X5010Y617I66J42D01*
G01*
Y683D02*
G03*
X4872Y692I-72J-33D01*
G01*
Y408D02*
G03*
X5010Y417I66J42D01*
G01*
Y483D02*
G03*
X4872Y492I-72J-33D01*
G01*
X6318Y608D02*
G03*
X6327Y470I42J-66D01*
G01*
X6393D02*
G03*
X6402Y608I-33J72D01*
G01*
X7022Y900D02*
G03*
X7022Y900I-132J0D01*
G01*
X3528Y2792D02*
G03*
X3390Y2783I-66J-42D01*
G01*
Y2717D02*
G03*
X3528Y2708I72J33D01*
G01*
X1038Y1248D02*
G03*
X1047Y1110I42J-66D01*
G01*
X1113D02*
G03*
X1122Y1248I-33J72D01*
G01*
X3588Y1062D02*
G03*
X3450Y1053I-66J-42D01*
G01*
Y987D02*
G03*
X3588Y978I72J33D01*
G01*
X2594Y515D02*
G03*
X2594Y565I0J25D01*
G01*
X1370Y1137D02*
G03*
X1357Y1137I-6J0D01*
G01*
X3417Y2402D02*
X3775D01*
Y2530D01*
X3417D02*
X3775D01*
X3417Y2473D02*
Y2530D01*
Y2402D02*
Y2460D01*
X920Y3380D02*
Y3410D01*
Y3380D02*
X1120D01*
Y3440D01*
X920D02*
X1120D01*
X920Y3410D02*
Y3440D01*
X1120Y3410D02*
X1129D01*
X911D02*
X920D01*
Y3300D02*
Y3330D01*
Y3300D02*
X1120D01*
Y3360D01*
X920D02*
X1120D01*
X920Y3330D02*
Y3360D01*
X1120Y3330D02*
X1129D01*
X911D02*
X920D01*
X1770D02*
Y3360D01*
Y3330D02*
X1970D01*
Y3390D01*
X1770D02*
X1970D01*
X1770Y3360D02*
Y3390D01*
X1970Y3360D02*
X1979D01*
X1761D02*
X1770D01*
X2610Y3330D02*
Y3360D01*
Y3330D02*
X2810D01*
Y3390D01*
X2610D02*
X2810D01*
X2610Y3360D02*
Y3390D01*
X2810Y3360D02*
X2819D01*
X2601D02*
X2610D01*
X3430Y3330D02*
Y3360D01*
Y3330D02*
X3630D01*
Y3390D01*
X3430D02*
X3630D01*
X3430Y3360D02*
Y3390D01*
X3630Y3360D02*
X3639D01*
X3421D02*
X3430D01*
X4290Y3330D02*
Y3360D01*
Y3330D02*
X4490D01*
Y3390D01*
X4290D02*
X4490D01*
X4290Y3360D02*
Y3390D01*
X4490Y3360D02*
X4499D01*
X4281D02*
X4290D01*
X5130Y3330D02*
Y3360D01*
Y3330D02*
X5330D01*
Y3390D01*
X5130D02*
X5330D01*
X5130Y3360D02*
Y3390D01*
X5330Y3360D02*
X5339D01*
X5121D02*
X5130D01*
X5970Y3330D02*
Y3360D01*
Y3330D02*
X6170D01*
Y3390D01*
X5970D02*
X6170D01*
X5970Y3360D02*
Y3390D01*
X6170Y3360D02*
X6179D01*
X5961D02*
X5970D01*
X6790Y3330D02*
Y3360D01*
Y3330D02*
X6990D01*
Y3390D01*
X6790D02*
X6990D01*
X6790Y3360D02*
Y3390D01*
X6990Y3360D02*
X6999D01*
X6781D02*
X6790D01*
X7650Y3330D02*
Y3360D01*
Y3330D02*
X7850D01*
Y3390D01*
X7650D02*
X7850D01*
X7650Y3360D02*
Y3390D01*
X7850Y3360D02*
X7859D01*
X7641D02*
X7650D01*
X5087Y774D02*
X5273D01*
Y326D02*
Y774D01*
X5087Y326D02*
X5273D01*
X5087D02*
Y774D01*
X6090Y640D02*
X6120D01*
X6090Y440D02*
Y640D01*
Y440D02*
X6150D01*
Y640D01*
X6120D02*
X6150D01*
X6120Y431D02*
Y440D01*
Y640D02*
Y649D01*
X2594Y286D02*
Y515D01*
Y565D02*
Y794D01*
X4646Y286D02*
Y794D01*
X2594Y286D02*
X4646D01*
X2594Y794D02*
X4646D01*
X1620Y491D02*
Y500D01*
Y700D02*
Y709D01*
X1590Y500D02*
X1620D01*
X1590D02*
Y700D01*
X1650D01*
Y500D02*
Y700D01*
X1620Y500D02*
X1650D01*
X1720Y491D02*
Y500D01*
Y700D02*
Y709D01*
X1690Y500D02*
X1720D01*
X1690D02*
Y700D01*
X1750D01*
Y500D02*
Y700D01*
X1720Y500D02*
X1750D01*
X1820Y491D02*
Y500D01*
Y700D02*
Y709D01*
X1790Y500D02*
X1820D01*
X1790D02*
Y700D01*
X1850D01*
Y500D02*
Y700D01*
X1820Y500D02*
X1850D01*
X1920Y491D02*
Y500D01*
Y700D02*
Y709D01*
X1890Y500D02*
X1920D01*
X1890D02*
Y700D01*
X1950D01*
Y500D02*
Y700D01*
X1920Y500D02*
X1950D01*
X2020Y491D02*
Y500D01*
Y700D02*
Y709D01*
X1990Y500D02*
X2020D01*
X1990D02*
Y700D01*
X2050D01*
Y500D02*
Y700D01*
X2020Y500D02*
X2050D01*
X2120Y491D02*
Y500D01*
Y700D02*
Y709D01*
X2090Y500D02*
X2120D01*
X2090D02*
Y700D01*
X2150D01*
Y500D02*
Y700D01*
X2120Y500D02*
X2150D01*
X2220Y491D02*
Y500D01*
Y700D02*
Y709D01*
X2190Y500D02*
X2220D01*
X2190D02*
Y700D01*
X2250D01*
Y500D02*
Y700D01*
X2220Y500D02*
X2250D01*
X2320Y491D02*
Y500D01*
Y700D02*
Y709D01*
X2290Y500D02*
X2320D01*
X2290D02*
Y700D01*
X2350D01*
Y500D02*
Y700D01*
X2320Y500D02*
X2350D01*
X1520Y700D02*
Y709D01*
Y491D02*
Y500D01*
Y700D02*
X1550D01*
Y500D02*
Y700D01*
X1490Y500D02*
X1550D01*
X1490D02*
Y700D01*
X1520D01*
X1420D02*
Y709D01*
Y491D02*
Y500D01*
Y700D02*
X1450D01*
Y500D02*
Y700D01*
X1390Y500D02*
X1450D01*
X1390D02*
Y700D01*
X1420D01*
X1320D02*
Y709D01*
Y491D02*
Y500D01*
Y700D02*
X1350D01*
Y500D02*
Y700D01*
X1290Y500D02*
X1350D01*
X1290D02*
Y700D01*
X1320D01*
X1220D02*
Y709D01*
Y491D02*
Y500D01*
Y700D02*
X1250D01*
Y500D02*
Y700D01*
X1190Y500D02*
X1250D01*
X1190D02*
Y700D01*
X1220D01*
X1120D02*
Y709D01*
Y491D02*
Y500D01*
Y700D02*
X1150D01*
Y500D02*
Y700D01*
X1090Y500D02*
X1150D01*
X1090D02*
Y700D01*
X1120D01*
X1020D02*
Y709D01*
Y491D02*
Y500D01*
Y700D02*
X1050D01*
Y500D02*
Y700D01*
X990Y500D02*
X1050D01*
X990D02*
Y700D01*
X1020D01*
X920D02*
Y709D01*
Y491D02*
Y500D01*
Y700D02*
X950D01*
Y500D02*
Y700D01*
X890Y500D02*
X950D01*
X890D02*
Y700D01*
X920D01*
X820D02*
Y709D01*
Y491D02*
Y500D01*
Y700D02*
X850D01*
Y500D02*
Y700D01*
X790Y500D02*
X850D01*
X790D02*
Y700D01*
X820D01*
X1428Y1137D02*
Y1495D01*
X1300D02*
X1428D01*
X1300Y1137D02*
Y1495D01*
Y1137D02*
X1357D01*
X1370D02*
X1428D01*
D31*
X6780Y790D02*
X6741D01*
X6760Y771D02*
Y810D01*
M02*
