%FSLAX23Y23*%
%MOIN*%
G70*
G01*
G75*
G04 Layer_Physical_Order=1*
%ADD10R,0.059X0.012*%
%ADD11O,0.059X0.012*%
%ADD12C,0.010*%
%ADD13C,0.300*%
%ADD14C,0.130*%
%ADD15C,0.110*%
%ADD16R,0.059X0.059*%
%ADD17C,0.059*%
%ADD18C,0.055*%
%ADD19R,0.053X0.053*%
%ADD20C,0.053*%
%ADD21C,0.047*%
%ADD22R,0.047X0.047*%
%ADD23R,0.059X0.059*%
%ADD24C,0.059*%
%ADD25C,0.065*%
%ADD26C,0.180*%
%ADD27C,0.050*%
D10*
X4410Y3490D02*
D03*
X5260Y2960D02*
D03*
D11*
X4410Y3464D02*
D03*
Y3439D02*
D03*
Y3413D02*
D03*
Y3388D02*
D03*
Y3362D02*
D03*
Y3336D02*
D03*
Y3311D02*
D03*
Y3285D02*
D03*
Y3260D02*
D03*
Y3234D02*
D03*
Y3209D02*
D03*
Y3183D02*
D03*
Y3157D02*
D03*
X4663Y3490D02*
D03*
Y3464D02*
D03*
Y3439D02*
D03*
Y3413D02*
D03*
Y3388D02*
D03*
Y3362D02*
D03*
Y3336D02*
D03*
Y3311D02*
D03*
Y3285D02*
D03*
Y3260D02*
D03*
Y3234D02*
D03*
Y3209D02*
D03*
Y3183D02*
D03*
Y3157D02*
D03*
X5513Y2627D02*
D03*
Y2653D02*
D03*
Y2679D02*
D03*
Y2704D02*
D03*
Y2730D02*
D03*
Y2755D02*
D03*
Y2781D02*
D03*
Y2806D02*
D03*
Y2832D02*
D03*
Y2858D02*
D03*
Y2883D02*
D03*
Y2909D02*
D03*
Y2934D02*
D03*
Y2960D02*
D03*
X5260Y2627D02*
D03*
Y2653D02*
D03*
Y2679D02*
D03*
Y2704D02*
D03*
Y2730D02*
D03*
Y2755D02*
D03*
Y2781D02*
D03*
Y2806D02*
D03*
Y2832D02*
D03*
Y2858D02*
D03*
Y2883D02*
D03*
Y2909D02*
D03*
Y2934D02*
D03*
D12*
X5225Y4292D02*
X8532D01*
X8600Y4360D01*
X5165Y4120D02*
X5206Y4079D01*
X5165Y4120D02*
Y4506D01*
X5179Y4520D01*
X5206Y4079D02*
X5288D01*
X5179Y4520D02*
X6760D01*
X5288Y4079D02*
X5316Y4107D01*
Y4207D01*
X6760Y4520D02*
X6920Y4360D01*
X5185Y4205D02*
Y4380D01*
X5208Y4403D01*
X5185Y4205D02*
X5269Y4121D01*
X5311Y4403D02*
X5397Y4317D01*
X6037D01*
X5208Y4403D02*
X5311D01*
X6037Y4317D02*
X6080Y4360D01*
X8900D02*
X9040D01*
X9150Y4470D01*
X8040Y4360D02*
X8203D01*
X8313Y4470D01*
X7220Y4360D02*
X7366D01*
X7476Y4470D01*
X6380Y4360D02*
X6529D01*
X6639Y4470D01*
X5540Y4360D02*
X5692D01*
X5802Y4470D01*
X4680Y4360D02*
X4855D01*
X4965Y4470D01*
X3860Y4360D02*
X3970Y4470D01*
X4128D01*
X3020Y4360D02*
X3130Y4470D01*
X3291D01*
X2170Y4330D02*
X2314D01*
X2454Y4470D01*
X1617D02*
X2110D01*
X2170Y4410D01*
X4970Y1240D02*
X5138Y1408D01*
X5882D01*
X5924Y1450D01*
X6037D01*
X6106D01*
X6110Y1454D01*
X6180D01*
X6037Y1650D02*
X6106D01*
X6110Y1646D02*
X6180D01*
X6106Y1650D02*
X6110Y1646D01*
X5370Y1240D02*
X5518Y1388D01*
X5902D01*
X5904Y1390D01*
X7120D01*
X7173Y1443D01*
X7360D01*
X5370Y1840D02*
X5466Y1744D01*
X7066D02*
X7120Y1690D01*
X5466Y1744D02*
X7066D01*
X7120Y1690D02*
X7226Y1584D01*
X8268D01*
Y1605D01*
X1250Y1250D02*
Y1345D01*
X1415D01*
X1820Y1750D01*
X1920D01*
X2020D01*
X2120D01*
X2220D01*
X2320D01*
X2420D01*
X2520D01*
X1617Y2880D02*
X2454D01*
X3291D01*
X3828Y2120D02*
X3839Y2109D01*
X3952D01*
X4520Y2120D02*
X4620Y2020D01*
X3952Y2109D02*
X3963Y2120D01*
X3828D02*
Y2172D01*
X3963Y2120D02*
X4128D01*
X4520D01*
X4620Y2020D02*
X4720Y2120D01*
X4965D01*
X3291D02*
X3471Y2300D01*
X3700D01*
X3828Y2172D01*
X1617Y4046D02*
X2454D01*
X1250Y4500D02*
X1380Y4370D01*
X1617D01*
X3291Y3640D02*
X3490D01*
X3700Y3850D01*
X2454Y4046D02*
X3291D01*
X4663Y3362D02*
Y3388D01*
Y3413D01*
X4790D01*
X4850Y3153D02*
X4960D01*
X4845Y3158D02*
X4850Y3153D01*
X4965Y2880D02*
Y2960D01*
X4960Y3153D02*
X5059Y3054D01*
X4965Y2960D02*
X5059Y3054D01*
X4811Y3293D02*
Y3392D01*
X4790Y3413D02*
X4811Y3392D01*
X4845Y3158D02*
Y3259D01*
X4811Y3293D02*
X4845Y3259D01*
X4293Y3620D02*
X4440D01*
X4128Y3640D02*
X4273D01*
X4293Y3620D01*
X3291Y4046D02*
X4128D01*
X4965D01*
X5802D01*
Y2120D02*
X6639D01*
X6819Y2300D01*
X7050D01*
X7296D01*
X5480Y2832D02*
X5513D01*
X5468Y2844D02*
X5480Y2832D01*
X7296Y2300D02*
X7476Y2120D01*
X8080Y1420D02*
X8299D01*
X7899Y1941D02*
Y1959D01*
X7476Y2120D02*
X7738D01*
X7940Y1900D02*
X8093D01*
X7738Y2120D02*
X7899Y1959D01*
Y1941D02*
X7940Y1900D01*
X8299Y1420D02*
X8366Y1487D01*
X8724Y1250D02*
X9500D01*
X8554Y1420D02*
X8724Y1250D01*
X8366Y1487D02*
Y1527D01*
X8093Y1900D02*
X8313Y2120D01*
X8366Y1527D02*
X8447D01*
X8554Y1420D01*
X8313Y2120D02*
X9150D01*
X5468Y2844D02*
Y2883D01*
X5059Y3054D02*
X5093Y3020D01*
X5468Y2883D02*
X5513D01*
X5331Y3020D02*
X5468Y2883D01*
X5093Y3020D02*
X5240D01*
Y3060D01*
Y3020D02*
X5331D01*
X5240Y3060D02*
X5280Y3100D01*
X5658Y2880D02*
X5802D01*
X5655Y2883D02*
X5658Y2880D01*
X5513Y2883D02*
X5655D01*
X5802Y4046D02*
X6639D01*
Y3640D02*
X6840D01*
X7050Y3850D01*
X6639Y4046D02*
X7476D01*
X8313D01*
X9150D01*
Y4370D02*
X9370D01*
X9500Y4500D01*
X3670Y1240D02*
X3735Y1305D01*
X4670Y1240D02*
X4738Y1172D01*
X7622D01*
X3735Y1305D02*
X4605D01*
X4670Y1240D01*
X4636Y3490D02*
Y3619D01*
X4637Y3620D01*
X4636Y3490D02*
X4663D01*
X5087D01*
X7622Y1172D02*
X7975Y1525D01*
X8139D01*
X7899Y1841D02*
X8131D01*
X5573Y2858D02*
X5631Y2800D01*
X7840Y1900D02*
X7899Y1841D01*
X8139Y1525D02*
X8185Y1479D01*
X8294D01*
X8317Y1502D01*
Y1556D01*
X8131Y1841D02*
X8366Y1605D01*
X8317Y1556D02*
X8366Y1605D01*
X5506Y2960D02*
X5513D01*
X5506D02*
Y3100D01*
X5087Y3490D02*
X5477Y3100D01*
X5506D01*
X5513Y2858D02*
X5573D01*
X5631Y2800D02*
X5842D01*
X5882Y2840D01*
X5513Y2960D02*
X5842D01*
X5882Y2840D02*
Y2920D01*
X5842Y2960D02*
X5882Y2920D01*
X5270Y1840D02*
X5583Y1527D01*
X7937D01*
X7955Y1545D01*
X8205D02*
X8223Y1527D01*
X7955Y1545D02*
X8205D01*
X8223Y1527D02*
X8268D01*
X2520Y1450D02*
X2620D01*
X2663Y1493D01*
X2870D01*
X3876Y3584D02*
Y3960D01*
X3228Y3843D02*
X3400Y4015D01*
X3821D01*
X3876Y3960D01*
X4253Y3540D02*
X4354Y3439D01*
X3876Y3584D02*
X3920Y3540D01*
X4354Y3439D02*
X4410D01*
X3920Y3540D02*
X4253D01*
X4047Y3600D02*
Y3843D01*
Y3600D02*
X4087Y3560D01*
X4047Y3843D02*
X4065D01*
X4262Y3560D02*
X4332Y3490D01*
X4087Y3560D02*
X4262D01*
X4332Y3490D02*
X4410D01*
X4306Y3429D02*
X4323D01*
X4339Y3413D01*
X4410D01*
X4326Y3348D02*
X4331D01*
X4345Y3362D01*
X4410D01*
Y3336D02*
X4477D01*
X4500Y3359D01*
Y3865D01*
X6285Y3953D02*
X6395Y3843D01*
X4500Y3865D02*
X4588Y3953D01*
X6395Y3843D02*
X6576D01*
X4588Y3953D02*
X6285D01*
X4410Y3285D02*
X4467D01*
X4520Y3339D01*
Y3743D01*
X4710Y3933D01*
X6225D01*
X6412Y3746D01*
X6630D01*
X6899Y4015D01*
X7178D01*
X7350Y3843D01*
X7413D01*
X4410Y3260D02*
X4509D01*
X4540Y3291D01*
Y3674D01*
X4779Y3913D01*
X6216D01*
X6569Y3560D01*
X6678D01*
X6720Y3602D01*
X7098D01*
X7242Y3746D01*
X8153D01*
X8250Y3843D01*
X4410Y3209D02*
X4520D01*
X4575Y3264D01*
Y3672D01*
X4655Y3752D01*
X5261D02*
X5473Y3540D01*
X8838D01*
X9087Y3789D01*
X4655Y3752D02*
X5261D01*
X9087Y3789D02*
Y3843D01*
X4049Y3205D02*
X4241D01*
X3781Y3473D02*
X4049Y3205D01*
X4241D02*
X4270Y3234D01*
X4365D01*
X4410D01*
X4266Y3340D02*
X4298Y3308D01*
X4365D01*
X1554Y3843D02*
X1613D01*
X1983Y3473D01*
X4266Y3340D02*
Y3361D01*
X4294Y3389D01*
X1983Y3473D02*
X3781D01*
X4294Y3389D02*
X4385D01*
X4365Y3234D02*
Y3308D01*
X4380D01*
Y3311D01*
X4410D01*
X4385Y3389D02*
X4386Y3388D01*
X4410D01*
Y3464D02*
X4444D01*
X4410Y3388D02*
X4446D01*
X4458Y3400D01*
X4444Y3464D02*
X4458Y3450D01*
Y3400D02*
Y3450D01*
X3228Y2323D02*
Y2323D01*
X3300D01*
X3462Y2485D01*
X3840D01*
X3993Y2279D02*
X4020Y2252D01*
X3993Y2279D02*
Y2332D01*
X4020Y2252D02*
X4578D01*
X5124Y2798D01*
X3840Y2485D02*
X3993Y2332D01*
X5124Y2798D02*
Y2833D01*
X5200Y2909D01*
X5260D01*
X4065Y2323D02*
X4618D01*
X5088Y2793D01*
Y2876D01*
X5172Y2960D01*
X5260D01*
X3892Y2170D02*
X3948Y2226D01*
X4805D01*
X4902Y2323D01*
X5103Y2524D01*
Y2696D01*
X5195Y2788D01*
Y2873D01*
X5205Y2883D01*
X5260D01*
X3113Y1707D02*
X3137Y1683D01*
X2920Y1750D02*
X2963Y1707D01*
X3137Y1683D02*
X5160D01*
X5225Y1748D01*
X2963Y1707D02*
X3113D01*
X5225Y1748D02*
Y1870D01*
X5426Y2071D01*
X5487D01*
X5260Y2832D02*
X5353D01*
X5428Y2757D01*
X3020Y1750D02*
X3248Y1978D01*
X5090D01*
X5507Y2395D01*
X5260Y2806D02*
X5345D01*
X5382Y2704D02*
X5480Y2606D01*
X5345Y2806D02*
X5382Y2769D01*
X5507Y2395D02*
X6504D01*
X6576Y2323D01*
X5480Y2606D02*
X5546D01*
X5382Y2704D02*
Y2769D01*
X5546Y2606D02*
X5599Y2659D01*
X6240D01*
X3163Y1707D02*
X5080D01*
X3120Y1750D02*
X3163Y1707D01*
X5080D02*
X5120Y1747D01*
Y1862D01*
X5163Y1905D01*
X5225D01*
X5360Y2671D02*
Y2744D01*
X5260Y2755D02*
X5349D01*
X5225Y1905D02*
X5534Y2214D01*
X5445Y2586D02*
X5616D01*
X5349Y2755D02*
X5360Y2744D01*
Y2671D02*
X5445Y2586D01*
X5534Y2214D02*
X6701D01*
X6952Y2465D01*
X7495Y2241D02*
X8280D01*
X8320Y2281D01*
X7413Y2323D02*
X7495Y2241D01*
X8320Y2281D02*
Y2353D01*
X6952Y2465D02*
X7271D01*
X5616Y2586D02*
X5636Y2606D01*
X7271Y2465D02*
X7413Y2323D01*
X8232Y2441D02*
X8320Y2353D01*
X8232Y2441D02*
Y2518D01*
X5636Y2606D02*
X8144D01*
X8232Y2518D01*
X3220Y1750D02*
X3412Y1942D01*
X5221D01*
X5529Y2250D01*
X5339Y2531D02*
Y2728D01*
Y2531D02*
X5425Y2445D01*
X5260Y2730D02*
X5337D01*
X5339Y2728D01*
X5529Y2250D02*
X6678D01*
Y2445D01*
X7396Y2485D02*
X7558Y2323D01*
X5425Y2445D02*
X6678D01*
X6873D01*
X7558Y2323D02*
X8250D01*
X6873Y2445D02*
X6913Y2485D01*
X7396D01*
X3320Y1750D02*
X3346Y1776D01*
X5023D01*
X5164Y2579D02*
Y2613D01*
X5230Y2679D01*
X5260D01*
X7920Y1861D02*
X9065D01*
X7879Y1902D02*
X7920Y1861D01*
X9065D02*
X9230Y2026D01*
X5320Y1900D02*
X5359Y1939D01*
X7879Y1902D02*
Y1939D01*
X5359D02*
X7879D01*
X9230Y2026D02*
Y2180D01*
X9087Y2323D02*
X9230Y2180D01*
X3852Y2140D02*
X3863Y2129D01*
X3852Y2140D02*
Y2189D01*
X3872Y2209D01*
Y2381D01*
X3863Y2129D02*
X3932D01*
X4003Y2200D01*
X4907D01*
X5305Y2598D01*
X1554Y2323D02*
X1624Y2252D01*
X3275D01*
X3488Y2465D01*
X3788D01*
X3872Y2381D01*
X5215Y2719D02*
Y2781D01*
X5260D01*
X5215D02*
Y2853D01*
X5230Y2704D02*
X5260D01*
X5215Y2719D02*
X5230Y2704D01*
X5215Y2853D02*
X5235D01*
X5260Y2704D02*
X5291D01*
X5305Y2598D02*
Y2690D01*
X5291Y2704D02*
X5305Y2690D01*
X5235Y2853D02*
Y2858D01*
X5260D01*
X5293D01*
X5305Y2870D01*
X5260Y2934D02*
X5291D01*
X5305Y2870D02*
Y2920D01*
X5291Y2934D02*
X5305Y2920D01*
X4663Y3336D02*
X4724D01*
X4748Y3360D01*
Y3373D01*
X4065Y3083D02*
X4444D01*
X4444Y3083D01*
X4790Y3234D02*
Y3240D01*
Y3234D02*
X4805Y3219D01*
X4663Y3285D02*
X4745D01*
X4790Y3240D01*
X4740Y3260D02*
X4765Y3235D01*
Y3200D02*
X4833Y3132D01*
X4663Y3260D02*
X4740D01*
X4853Y3132D02*
X4902Y3083D01*
X4765Y3200D02*
Y3235D01*
X4833Y3132D02*
X4853D01*
X4595Y3234D02*
X4620Y3209D01*
X4663D01*
X4595Y3234D02*
Y3652D01*
X4675Y3732D01*
X5739Y3083D02*
Y3166D01*
X4675Y3732D02*
X5173D01*
X5739Y3166D01*
X5589Y2806D02*
X5617Y2778D01*
X5513Y2806D02*
X5589D01*
X5617Y2778D02*
X6333D01*
X6576Y3021D01*
Y3083D01*
X5513Y2755D02*
X7085D01*
X7413Y3083D01*
X5513Y2730D02*
X7897D01*
X8250Y3083D01*
X5513Y2679D02*
X5569D01*
X5589Y2699D01*
X8820D01*
X9087Y2966D01*
Y3083D01*
X1554D02*
X1596Y3040D01*
X1634D01*
X2320Y3000D02*
Y3185D01*
X1634Y3040D02*
X1779Y3185D01*
X2320Y3000D02*
X2360Y2960D01*
X4744D01*
X4228Y3183D02*
X4410D01*
X4226Y3185D02*
X4228Y3183D01*
X1779Y3185D02*
X2320D01*
X4226D01*
X4618Y3246D02*
X4630Y3234D01*
X4618Y3246D02*
Y3300D01*
X4629Y3311D01*
X4630Y3234D02*
X4663D01*
X4734D01*
X4629Y3311D02*
X4663D01*
X5468Y2716D02*
X5480Y2704D01*
X5468Y2716D02*
Y2770D01*
X4744Y2940D02*
X4886Y2798D01*
X5468Y2770D02*
Y2793D01*
X5325Y2936D02*
X5468Y2793D01*
X5480Y2704D02*
X5513D01*
X5468Y2770D02*
X5479Y2781D01*
X5513D01*
X4886Y2798D02*
X5023D01*
X5059Y2834D01*
X4734Y3234D02*
X4744Y3224D01*
Y2940D02*
Y2960D01*
Y3224D01*
X5059Y2834D02*
Y2884D01*
X5325Y2936D02*
Y2960D01*
X5059Y2884D02*
X5156Y2981D01*
X5304D02*
X5325Y2960D01*
X5156Y2981D02*
X5304D01*
X2532Y3000D02*
X2534Y3002D01*
X2532Y3000D02*
X2552Y2980D01*
X4589D01*
X4708Y3099D01*
X4663Y3183D02*
X4695D01*
X4708Y3099D02*
Y3170D01*
X4695Y3183D02*
X4708Y3170D01*
X2391Y3082D02*
Y3083D01*
Y3082D02*
X3087D01*
X3162Y3157D01*
X4410D01*
X4663D01*
X2420Y1450D02*
X2463Y1407D01*
X2677D01*
X2720Y1450D01*
X2320D02*
X2510Y1260D01*
X2630D01*
X2820Y1450D01*
X2220D02*
X2323Y1553D01*
X2880D01*
X2920Y1450D02*
Y1513D01*
X2880Y1553D02*
X2920Y1513D01*
X2120Y1450D02*
X2262Y1592D01*
X2878D01*
X3020Y1450D01*
X2020D02*
X2211Y1641D01*
X2929D01*
X3120Y1450D01*
X3220D02*
X3514Y1156D01*
X1920Y1450D02*
X2137Y1667D01*
X3003D01*
X3220Y1450D01*
X3514Y1156D02*
X4571D01*
X4615Y1200D01*
Y1260D01*
X4470Y1240D02*
X4515Y1285D01*
X4590D01*
X4615Y1260D01*
X1820Y1450D02*
X2057Y1687D01*
X3083D01*
X3320Y1450D01*
X3575Y1195D01*
X4525D01*
X4570Y1240D01*
X4865Y3234D02*
X4920Y3179D01*
X4865Y3234D02*
Y3279D01*
X4920Y3179D02*
X5084D01*
X5155Y3108D01*
X4663Y3439D02*
X4800D01*
X4854Y3290D02*
X4865Y3279D01*
X4800Y3439D02*
X4854Y3385D01*
Y3290D02*
Y3385D01*
X5155Y3108D02*
Y3142D01*
X5322Y3064D02*
Y3142D01*
X5477Y2909D02*
X5513D01*
X5155Y3142D02*
X5322D01*
Y3064D02*
X5477Y2909D01*
X4663Y3464D02*
X5034D01*
X5219Y3279D01*
X5468Y2946D02*
X5480Y2934D01*
X5513D01*
X5219Y3239D02*
Y3279D01*
X5239Y3259D01*
X5468Y2946D02*
Y3030D01*
X5239Y3259D02*
X5468Y3030D01*
D13*
X1250Y1250D02*
D03*
X3700Y2300D02*
D03*
X1250Y4500D02*
D03*
X3700Y3850D02*
D03*
X7050Y2300D02*
D03*
X9500Y1250D02*
D03*
X7050Y3850D02*
D03*
X9500Y4500D02*
D03*
D14*
X2454Y3286D02*
D03*
Y2880D02*
D03*
Y4046D02*
D03*
Y3640D02*
D03*
X1617Y2526D02*
D03*
Y2120D02*
D03*
Y3286D02*
D03*
Y2880D02*
D03*
X9150Y3286D02*
D03*
Y2880D02*
D03*
X8313Y3286D02*
D03*
Y2880D02*
D03*
X7476Y3286D02*
D03*
Y2880D02*
D03*
X6639Y3286D02*
D03*
Y2880D02*
D03*
X5802Y3286D02*
D03*
Y2880D02*
D03*
X4965Y3286D02*
D03*
Y2880D02*
D03*
X4128Y3286D02*
D03*
Y2880D02*
D03*
X3291Y3286D02*
D03*
Y2880D02*
D03*
X1617Y3640D02*
D03*
Y4046D02*
D03*
X9150Y2526D02*
D03*
Y2120D02*
D03*
X8313Y2526D02*
D03*
Y2120D02*
D03*
X7476Y2526D02*
D03*
Y2120D02*
D03*
X6639Y2526D02*
D03*
Y2120D02*
D03*
X5802Y2526D02*
D03*
Y2120D02*
D03*
X4965Y2526D02*
D03*
Y2120D02*
D03*
X4128Y2526D02*
D03*
Y2120D02*
D03*
X3291Y2526D02*
D03*
Y2120D02*
D03*
X9150Y4046D02*
D03*
Y3640D02*
D03*
X8313Y4046D02*
D03*
Y3640D02*
D03*
X7476Y4046D02*
D03*
Y3640D02*
D03*
X6639Y4046D02*
D03*
Y3640D02*
D03*
X5802Y4046D02*
D03*
Y3640D02*
D03*
X4965Y4046D02*
D03*
Y3640D02*
D03*
X4128Y4046D02*
D03*
Y3640D02*
D03*
X3291Y4046D02*
D03*
Y3640D02*
D03*
D15*
X2391Y3083D02*
D03*
Y3843D02*
D03*
X1554Y2323D02*
D03*
Y3083D02*
D03*
X9087D02*
D03*
X8250D02*
D03*
X7413D02*
D03*
X6576D02*
D03*
X5739D02*
D03*
X4902D02*
D03*
X4065D02*
D03*
X3228D02*
D03*
X1554Y3843D02*
D03*
X9087Y2323D02*
D03*
X8250D02*
D03*
X7413D02*
D03*
X6576D02*
D03*
X5739D02*
D03*
X4902D02*
D03*
X4065D02*
D03*
X3228D02*
D03*
X9087Y3843D02*
D03*
X8250D02*
D03*
X7413D02*
D03*
X6576D02*
D03*
X5739D02*
D03*
X4902D02*
D03*
X4065D02*
D03*
X3228D02*
D03*
D16*
X1617Y4470D02*
D03*
X2454D02*
D03*
X3291D02*
D03*
X4128D02*
D03*
X4965D02*
D03*
X5802D02*
D03*
X6639D02*
D03*
X7476D02*
D03*
X8313D02*
D03*
X9150D02*
D03*
D17*
X1617Y4370D02*
D03*
X2454D02*
D03*
X3291D02*
D03*
X4128D02*
D03*
X4965D02*
D03*
X5802D02*
D03*
X6639D02*
D03*
X7476D02*
D03*
X8313D02*
D03*
X9150D02*
D03*
D18*
X1870Y4410D02*
D03*
X2170D02*
D03*
X1870Y4330D02*
D03*
X2170D02*
D03*
X2720Y4360D02*
D03*
X3020D02*
D03*
X3560D02*
D03*
X3860D02*
D03*
X4380D02*
D03*
X4680D02*
D03*
X5240D02*
D03*
X5540D02*
D03*
X6080D02*
D03*
X6380D02*
D03*
X6920D02*
D03*
X7220D02*
D03*
X7740D02*
D03*
X8040D02*
D03*
X8600D02*
D03*
X8900D02*
D03*
X6180Y1646D02*
D03*
Y1454D02*
D03*
X7120Y1690D02*
D03*
Y1390D02*
D03*
X2620Y1750D02*
D03*
Y1450D02*
D03*
X2720Y1750D02*
D03*
Y1450D02*
D03*
X2820Y1750D02*
D03*
Y1450D02*
D03*
X2920Y1750D02*
D03*
Y1450D02*
D03*
X3020Y1750D02*
D03*
Y1450D02*
D03*
X3120Y1750D02*
D03*
Y1450D02*
D03*
X3220Y1750D02*
D03*
Y1450D02*
D03*
X3320Y1750D02*
D03*
Y1450D02*
D03*
X2520D02*
D03*
Y1750D02*
D03*
X2420Y1450D02*
D03*
Y1750D02*
D03*
X2320Y1450D02*
D03*
Y1750D02*
D03*
X2220Y1450D02*
D03*
Y1750D02*
D03*
X2120Y1450D02*
D03*
Y1750D02*
D03*
X2020Y1450D02*
D03*
Y1750D02*
D03*
X1920Y1450D02*
D03*
Y1750D02*
D03*
X1820Y1450D02*
D03*
Y1750D02*
D03*
D19*
X5840Y1650D02*
D03*
Y1450D02*
D03*
X7360Y1640D02*
D03*
X4440Y3620D02*
D03*
X5280Y3100D02*
D03*
X4620Y2020D02*
D03*
D20*
X6037Y1650D02*
D03*
Y1450D02*
D03*
X7360Y1443D02*
D03*
X4637Y3620D02*
D03*
X5477Y3100D02*
D03*
X4423Y2020D02*
D03*
D21*
X7940Y1900D02*
D03*
D22*
X7840D02*
D03*
D23*
X3670Y1240D02*
D03*
D24*
X3770D02*
D03*
X3870D02*
D03*
X3970D02*
D03*
X4070D02*
D03*
X4170D02*
D03*
X4270D02*
D03*
X4370D02*
D03*
X4470D02*
D03*
X4570D02*
D03*
X4670D02*
D03*
X4770D02*
D03*
X4870D02*
D03*
X4970D02*
D03*
X5070D02*
D03*
X5170D02*
D03*
X5270D02*
D03*
X5370D02*
D03*
X5470D02*
D03*
X5570D02*
D03*
X3670Y1840D02*
D03*
X3770D02*
D03*
X3870D02*
D03*
X3970D02*
D03*
X4070D02*
D03*
X4170D02*
D03*
X4270D02*
D03*
X4370D02*
D03*
X4470D02*
D03*
X4570D02*
D03*
X4670D02*
D03*
X4770D02*
D03*
X4870D02*
D03*
X4970D02*
D03*
X5070D02*
D03*
X5170D02*
D03*
X5270D02*
D03*
X5370D02*
D03*
X5470D02*
D03*
X5570D02*
D03*
D25*
X8366Y1527D02*
D03*
X8366Y1605D02*
D03*
X8268D02*
D03*
Y1527D02*
D03*
D26*
X8554Y1420D02*
D03*
X8080D02*
D03*
D27*
X5225Y4292D02*
D03*
X5316Y4207D02*
D03*
X5269Y4121D02*
D03*
X2870Y1493D02*
D03*
X4306Y3429D02*
D03*
X4326Y3348D02*
D03*
X3892Y2170D02*
D03*
X5487Y2071D02*
D03*
X5428Y2757D02*
D03*
X6240Y2659D02*
D03*
X5023Y1776D02*
D03*
X5164Y2579D02*
D03*
X5320Y1900D02*
D03*
X4748Y3373D02*
D03*
X4444Y3083D02*
D03*
X4805Y3219D02*
D03*
X2534Y3002D02*
D03*
X5155Y3108D02*
D03*
X5219Y3239D02*
D03*
M02*
