%FSLAX23Y23*%
%MOIN*%
G70*
G01*
G75*
%ADD10O,0.012X0.059*%
%ADD11R,0.012X0.059*%
%ADD12O,0.059X0.012*%
%ADD13R,0.059X0.012*%
%ADD14C,0.010*%
%ADD15C,0.110*%
%ADD16O,0.236X0.130*%
%ADD17C,0.300*%
%ADD18R,0.059X0.059*%
%ADD19C,0.059*%
%ADD20C,0.055*%
%ADD21R,0.053X0.053*%
%ADD22C,0.053*%
%ADD23C,0.047*%
%ADD24R,0.047X0.047*%
%ADD25R,0.059X0.059*%
%ADD26C,0.059*%
%ADD27C,0.065*%
%ADD28C,0.180*%
%ADD29C,0.050*%
%ADD30C,0.008*%
%ADD31C,0.006*%
%ADD32O,0.020X0.067*%
%ADD33R,0.020X0.067*%
%ADD34O,0.067X0.020*%
%ADD35R,0.067X0.020*%
%ADD36C,0.118*%
%ADD37O,0.244X0.138*%
%ADD38C,0.308*%
%ADD39R,0.067X0.067*%
%ADD40C,0.067*%
%ADD41C,0.063*%
%ADD42R,0.061X0.061*%
%ADD43C,0.061*%
%ADD44C,0.055*%
%ADD45R,0.055X0.055*%
%ADD46R,0.067X0.067*%
%ADD47C,0.067*%
%ADD48C,0.073*%
%ADD49C,0.188*%
%ADD50C,0.058*%
D36*
X1391Y2083D02*
D03*
Y2843D02*
D03*
X554Y1323D02*
D03*
Y2083D02*
D03*
X8087D02*
D03*
X7250D02*
D03*
X6413D02*
D03*
X5576D02*
D03*
X4739D02*
D03*
X3902D02*
D03*
X3065D02*
D03*
X2228D02*
D03*
X554Y2843D02*
D03*
X8087Y1323D02*
D03*
X7250D02*
D03*
X6413D02*
D03*
X5576D02*
D03*
X4739D02*
D03*
X3902D02*
D03*
X3065D02*
D03*
X2228D02*
D03*
X8087Y2843D02*
D03*
X7250D02*
D03*
X6413D02*
D03*
X5576D02*
D03*
X4739D02*
D03*
X3902D02*
D03*
X3065D02*
D03*
X2228D02*
D03*
D37*
X1454Y1880D02*
D03*
Y2286D02*
D03*
Y3046D02*
D03*
Y2640D02*
D03*
X617Y1120D02*
D03*
Y1526D02*
D03*
Y2286D02*
D03*
Y1880D02*
D03*
X8150D02*
D03*
Y2286D02*
D03*
X7313D02*
D03*
Y1880D02*
D03*
X6476D02*
D03*
Y2286D02*
D03*
X5639D02*
D03*
Y1880D02*
D03*
X4802D02*
D03*
Y2286D02*
D03*
X3965D02*
D03*
Y1880D02*
D03*
X3128D02*
D03*
Y2286D02*
D03*
X2291D02*
D03*
Y1880D02*
D03*
X617Y2640D02*
D03*
Y3046D02*
D03*
X8150Y1526D02*
D03*
Y1120D02*
D03*
X7313D02*
D03*
Y1526D02*
D03*
X6476D02*
D03*
Y1120D02*
D03*
X5639D02*
D03*
Y1526D02*
D03*
X4802D02*
D03*
Y1120D02*
D03*
X3965D02*
D03*
Y1526D02*
D03*
X3128D02*
D03*
Y1120D02*
D03*
X2291D02*
D03*
Y1526D02*
D03*
X8150Y3046D02*
D03*
Y2640D02*
D03*
X7313D02*
D03*
Y3046D02*
D03*
X6476D02*
D03*
Y2640D02*
D03*
X5639D02*
D03*
Y3046D02*
D03*
X4802D02*
D03*
Y2640D02*
D03*
X3965D02*
D03*
Y3046D02*
D03*
X3128D02*
D03*
Y2640D02*
D03*
X2291D02*
D03*
Y3046D02*
D03*
D38*
X250Y250D02*
D03*
X2700Y1300D02*
D03*
Y2850D02*
D03*
X250Y3500D02*
D03*
X8500Y250D02*
D03*
X6050Y1300D02*
D03*
Y2850D02*
D03*
X8500Y3500D02*
D03*
D39*
X617Y3470D02*
D03*
X1454D02*
D03*
X2291D02*
D03*
X3128D02*
D03*
X3965D02*
D03*
X4802D02*
D03*
X5639D02*
D03*
X6476D02*
D03*
X7313D02*
D03*
X8150D02*
D03*
D40*
X617Y3370D02*
D03*
X1454D02*
D03*
X2291D02*
D03*
X3128D02*
D03*
X3965D02*
D03*
X4802D02*
D03*
X5639D02*
D03*
X6476D02*
D03*
X7313D02*
D03*
X8150D02*
D03*
D41*
X870Y3410D02*
D03*
X1170D02*
D03*
X870Y3330D02*
D03*
X1170D02*
D03*
X1720Y3360D02*
D03*
X2020D02*
D03*
X2560D02*
D03*
X2860D02*
D03*
X3380D02*
D03*
X3680D02*
D03*
X4240D02*
D03*
X4540D02*
D03*
X5080D02*
D03*
X5380D02*
D03*
X5920D02*
D03*
X6220D02*
D03*
X6740D02*
D03*
X7040D02*
D03*
X7600D02*
D03*
X7900D02*
D03*
X5180Y646D02*
D03*
Y454D02*
D03*
X6120Y690D02*
D03*
Y390D02*
D03*
X1620Y750D02*
D03*
Y450D02*
D03*
X1720Y750D02*
D03*
Y450D02*
D03*
X1820Y750D02*
D03*
Y450D02*
D03*
X1920Y750D02*
D03*
Y450D02*
D03*
X2020Y750D02*
D03*
Y450D02*
D03*
X2120Y750D02*
D03*
Y450D02*
D03*
X2220Y750D02*
D03*
Y450D02*
D03*
X2320Y750D02*
D03*
Y450D02*
D03*
X1520D02*
D03*
Y750D02*
D03*
X1420Y450D02*
D03*
Y750D02*
D03*
X1320Y450D02*
D03*
Y750D02*
D03*
X1220Y450D02*
D03*
Y750D02*
D03*
X1120Y450D02*
D03*
Y750D02*
D03*
X1020Y450D02*
D03*
Y750D02*
D03*
X920Y450D02*
D03*
Y750D02*
D03*
X820Y450D02*
D03*
Y750D02*
D03*
D42*
X4840Y650D02*
D03*
Y450D02*
D03*
X6360Y640D02*
D03*
X3560Y2750D02*
D03*
X1080Y1280D02*
D03*
X3620Y1020D02*
D03*
D43*
X5037Y650D02*
D03*
Y450D02*
D03*
X6360Y443D02*
D03*
X3363Y2750D02*
D03*
X1080Y1083D02*
D03*
X3423Y1020D02*
D03*
D44*
X6940Y900D02*
D03*
D45*
X6840D02*
D03*
D46*
X2670Y240D02*
D03*
D47*
X2770D02*
D03*
X2870D02*
D03*
X2970D02*
D03*
X3070D02*
D03*
X3170D02*
D03*
X3270D02*
D03*
X3370D02*
D03*
X3470D02*
D03*
X3570D02*
D03*
X3670D02*
D03*
X3770D02*
D03*
X3870D02*
D03*
X3970D02*
D03*
X4070D02*
D03*
X4170D02*
D03*
X4270D02*
D03*
X4370D02*
D03*
X4470D02*
D03*
X4570D02*
D03*
X2670Y840D02*
D03*
X2770D02*
D03*
X2870D02*
D03*
X2970D02*
D03*
X3070D02*
D03*
X3170D02*
D03*
X3270D02*
D03*
X3370D02*
D03*
X3470D02*
D03*
X3570D02*
D03*
X3670D02*
D03*
X3770D02*
D03*
X3870D02*
D03*
X3970D02*
D03*
X4070D02*
D03*
X4170D02*
D03*
X4270D02*
D03*
X4370D02*
D03*
X4470D02*
D03*
X4570D02*
D03*
D48*
X7366Y527D02*
D03*
X7366Y605D02*
D03*
X7268D02*
D03*
Y527D02*
D03*
D49*
X7554Y420D02*
D03*
X7080D02*
D03*
D50*
X1377Y1170D02*
D03*
X3430Y2694D02*
D03*
X3658Y2195D02*
D03*
X3580Y2854D02*
D03*
X3688Y2528D02*
D03*
X2187Y2430D02*
D03*
X1535Y1545D02*
D03*
X1777Y1612D02*
D03*
X3536Y2440D02*
D03*
X3500Y2115D02*
D03*
X3330Y2599D02*
D03*
X1690Y1292D02*
D03*
X3413Y2414D02*
D03*
X3697Y2800D02*
D03*
X3370Y2545D02*
D03*
X3456Y2220D02*
D03*
X1410Y1298D02*
D03*
X1630Y1375D02*
D03*
X1317Y1395D02*
D03*
M02*
