%FSLAX23Y23*%
%MOIN*%
G70*
G01*
G75*
%ADD10R,0.012X0.059*%
%ADD11O,0.012X0.059*%
%ADD12C,0.010*%
%ADD13C,0.300*%
%ADD14C,0.055*%
%ADD15C,0.180*%
%ADD16C,0.065*%
%ADD17C,0.059*%
%ADD18R,0.059X0.059*%
%ADD19C,0.053*%
%ADD20R,0.053X0.053*%
%ADD21R,0.047X0.047*%
%ADD22C,0.047*%
%ADD23C,0.059*%
%ADD24R,0.059X0.059*%
%ADD25C,0.110*%
%ADD26C,0.130*%
%ADD27C,0.050*%
%ADD28C,0.008*%
%ADD29C,0.006*%
D12*
X2215Y3031D02*
G03*
X2215Y2655I76J-188D01*
G01*
X2367D02*
G03*
X2367Y3031I-76J188D01*
G01*
X3052D02*
G03*
X3052Y2655I76J-188D01*
G01*
X3204D02*
G03*
X3204Y3031I-76J188D01*
G01*
X3889D02*
G03*
X3889Y2655I76J-188D01*
G01*
X4041D02*
G03*
X4041Y3031I-76J188D01*
G01*
X4726D02*
G03*
X4726Y2655I76J-188D01*
G01*
X4878D02*
G03*
X4878Y3031I-76J188D01*
G01*
X5563D02*
G03*
X5563Y2655I76J-188D01*
G01*
X5715D02*
G03*
X5715Y3031I-76J188D01*
G01*
X6400D02*
G03*
X6400Y2655I76J-188D01*
G01*
X6552D02*
G03*
X6552Y3031I-76J188D01*
G01*
X7237D02*
G03*
X7237Y2655I76J-188D01*
G01*
X7389D02*
G03*
X7389Y3031I-76J188D01*
G01*
X8074D02*
G03*
X8074Y2655I76J-188D01*
G01*
X8226D02*
G03*
X8226Y3031I-76J188D01*
G01*
X2215Y1511D02*
G03*
X2215Y1135I76J-188D01*
G01*
X2367D02*
G03*
X2367Y1511I-76J188D01*
G01*
X3052D02*
G03*
X3052Y1135I76J-188D01*
G01*
X3204D02*
G03*
X3204Y1511I-76J188D01*
G01*
X3889D02*
G03*
X3889Y1135I76J-188D01*
G01*
X4041D02*
G03*
X4041Y1511I-76J188D01*
G01*
X4726D02*
G03*
X4726Y1135I76J-188D01*
G01*
X4878D02*
G03*
X4878Y1511I-76J188D01*
G01*
X5563D02*
G03*
X5563Y1135I76J-188D01*
G01*
X5715D02*
G03*
X5715Y1511I-76J188D01*
G01*
X6400D02*
G03*
X6400Y1135I76J-188D01*
G01*
X6552D02*
G03*
X6552Y1511I-76J188D01*
G01*
X7237D02*
G03*
X7237Y1135I76J-188D01*
G01*
X7389D02*
G03*
X7389Y1511I-76J188D01*
G01*
X8074D02*
G03*
X8074Y1135I76J-188D01*
G01*
X8226D02*
G03*
X8226Y1511I-76J188D01*
G01*
X693Y2655D02*
G03*
X693Y3031I-76J188D01*
G01*
X541D02*
G03*
X541Y2655I76J-188D01*
G01*
X2215Y2271D02*
G03*
X2215Y1895I76J-188D01*
G01*
X2367D02*
G03*
X2367Y2271I-76J188D01*
G01*
X3052D02*
G03*
X3052Y1895I76J-188D01*
G01*
X3204D02*
G03*
X3204Y2271I-76J188D01*
G01*
X3889D02*
G03*
X3889Y1895I76J-188D01*
G01*
X4041D02*
G03*
X4041Y2271I-76J188D01*
G01*
X4726D02*
G03*
X4726Y1895I76J-188D01*
G01*
X4878D02*
G03*
X4878Y2271I-76J188D01*
G01*
X5563D02*
G03*
X5563Y1895I76J-188D01*
G01*
X5715D02*
G03*
X5715Y2271I-76J188D01*
G01*
X6400D02*
G03*
X6400Y1895I76J-188D01*
G01*
X6552D02*
G03*
X6552Y2271I-76J188D01*
G01*
X7237D02*
G03*
X7237Y1895I76J-188D01*
G01*
X7389D02*
G03*
X7389Y2271I-76J188D01*
G01*
X8074D02*
G03*
X8074Y1895I76J-188D01*
G01*
X8226D02*
G03*
X8226Y2271I-76J188D01*
G01*
X541D02*
G03*
X541Y1895I76J-188D01*
G01*
X693D02*
G03*
X693Y2271I-76J188D01*
G01*
X541Y1511D02*
G03*
X541Y1135I76J-188D01*
G01*
X693D02*
G03*
X693Y1511I-76J188D01*
G01*
X1378Y3031D02*
G03*
X1378Y2655I76J-188D01*
G01*
X1530D02*
G03*
X1530Y3031I-76J188D01*
G01*
X1378Y2271D02*
G03*
X1378Y1895I76J-188D01*
G01*
X1530D02*
G03*
X1530Y2271I-76J188D01*
G01*
X1296Y1711D02*
X1276D01*
X1286D01*
Y1761D01*
X1276Y1771D01*
X1266D01*
X1256Y1761D01*
X1316Y1781D02*
X1356D01*
X1376Y1711D02*
Y1771D01*
X1406D01*
X1416Y1761D01*
Y1751D01*
X1406Y1741D01*
X1376D01*
X1406D01*
X1416Y1731D01*
Y1721D01*
X1406Y1711D01*
X1376D01*
X1466D02*
X1446D01*
X1436Y1721D01*
Y1761D01*
X1446Y1771D01*
X1466D01*
X1476Y1761D01*
Y1721D01*
X1466Y1711D01*
X1296Y2471D02*
X1276D01*
X1286D01*
Y2521D01*
X1276Y2531D01*
X1266D01*
X1256Y2521D01*
X1316Y2541D02*
X1356D01*
X1376Y2471D02*
Y2531D01*
X1406D01*
X1416Y2521D01*
Y2511D01*
X1406Y2501D01*
X1376D01*
X1406D01*
X1416Y2491D01*
Y2481D01*
X1406Y2471D01*
X1376D01*
X1436D02*
X1456D01*
X1446D01*
Y2531D01*
X1436D01*
X1456D01*
X459Y951D02*
X439D01*
X449D01*
Y1001D01*
X439Y1011D01*
X429D01*
X419Y1001D01*
X479Y1021D02*
X519D01*
X539Y951D02*
Y961D01*
X559Y981D01*
X579Y961D01*
Y951D01*
X559Y981D02*
Y1011D01*
X629Y951D02*
X609D01*
X599Y961D01*
Y1001D01*
X609Y1011D01*
X629D01*
X639Y1001D01*
Y961D01*
X629Y951D01*
X459Y1711D02*
X439D01*
X449D01*
Y1761D01*
X439Y1771D01*
X429D01*
X419Y1761D01*
X479Y1781D02*
X519D01*
X539Y1711D02*
Y1771D01*
X559Y1751D01*
X579Y1771D01*
Y1711D01*
X629D02*
X609D01*
X599Y1721D01*
Y1761D01*
X609Y1771D01*
X629D01*
X639Y1761D01*
Y1721D01*
X629Y1711D01*
X7992D02*
X7972D01*
X7982D01*
Y1761D01*
X7972Y1771D01*
X7962D01*
X7952Y1761D01*
X8012Y1781D02*
X8052D01*
X8072Y1711D02*
Y1771D01*
X8092Y1751D01*
X8112Y1771D01*
Y1711D01*
X8132Y1721D02*
X8142Y1711D01*
X8162D01*
X8172Y1721D01*
Y1731D01*
X8162Y1741D01*
X8172Y1751D01*
Y1761D01*
X8162Y1771D01*
X8142D01*
X8132Y1761D01*
Y1751D01*
X8142Y1741D01*
X8132Y1731D01*
Y1721D01*
X8142Y1741D02*
X8162D01*
X7155Y1711D02*
X7135D01*
X7145D01*
Y1761D01*
X7135Y1771D01*
X7125D01*
X7115Y1761D01*
X7175Y1781D02*
X7215D01*
X7235Y1711D02*
Y1771D01*
X7255Y1751D01*
X7275Y1771D01*
Y1711D01*
X7295D02*
X7335D01*
Y1721D01*
X7295Y1761D01*
Y1771D01*
X6318Y1711D02*
X6298D01*
X6308D01*
Y1761D01*
X6298Y1771D01*
X6288D01*
X6278Y1761D01*
X6338Y1781D02*
X6378D01*
X6398Y1711D02*
Y1771D01*
X6418Y1751D01*
X6438Y1771D01*
Y1711D01*
X6498D02*
X6478Y1721D01*
X6458Y1741D01*
Y1761D01*
X6468Y1771D01*
X6488D01*
X6498Y1761D01*
Y1751D01*
X6488Y1741D01*
X6458D01*
X5481Y1711D02*
X5461D01*
X5471D01*
Y1761D01*
X5461Y1771D01*
X5451D01*
X5441Y1761D01*
X5501Y1781D02*
X5541D01*
X5561Y1711D02*
Y1771D01*
X5581Y1751D01*
X5601Y1771D01*
Y1711D01*
X5661D02*
X5621D01*
Y1741D01*
X5641Y1731D01*
X5651D01*
X5661Y1741D01*
Y1761D01*
X5651Y1771D01*
X5631D01*
X5621Y1761D01*
X4644Y1711D02*
X4624D01*
X4634D01*
Y1761D01*
X4624Y1771D01*
X4614D01*
X4604Y1761D01*
X4664Y1781D02*
X4704D01*
X4724Y1711D02*
Y1771D01*
X4744Y1751D01*
X4764Y1771D01*
Y1711D01*
X4814Y1771D02*
Y1711D01*
X4784Y1741D01*
X4824D01*
X3807Y1711D02*
X3787D01*
X3797D01*
Y1761D01*
X3787Y1771D01*
X3777D01*
X3767Y1761D01*
X3827Y1781D02*
X3867D01*
X3887Y1711D02*
Y1771D01*
X3907Y1751D01*
X3927Y1771D01*
Y1711D01*
X3947Y1721D02*
X3957Y1711D01*
X3977D01*
X3987Y1721D01*
Y1731D01*
X3977Y1741D01*
X3967D01*
X3977D01*
X3987Y1751D01*
Y1761D01*
X3977Y1771D01*
X3957D01*
X3947Y1761D01*
X2970Y1711D02*
X2950D01*
X2960D01*
Y1761D01*
X2950Y1771D01*
X2940D01*
X2930Y1761D01*
X2990Y1781D02*
X3030D01*
X3050Y1711D02*
Y1771D01*
X3070Y1751D01*
X3090Y1771D01*
Y1711D01*
X3150Y1771D02*
X3110D01*
X3150Y1731D01*
Y1721D01*
X3140Y1711D01*
X3120D01*
X3110Y1721D01*
X2133Y1711D02*
X2113D01*
X2123D01*
Y1761D01*
X2113Y1771D01*
X2103D01*
X2093Y1761D01*
X2153Y1781D02*
X2193D01*
X2213Y1711D02*
Y1771D01*
X2233Y1751D01*
X2253Y1771D01*
Y1711D01*
X2273Y1771D02*
X2293D01*
X2283D01*
Y1711D01*
X2273Y1721D01*
X459Y2471D02*
X439D01*
X449D01*
Y2521D01*
X439Y2531D01*
X429D01*
X419Y2521D01*
X479Y2541D02*
X519D01*
X539Y2531D02*
Y2471D01*
X569D01*
X579Y2481D01*
Y2501D01*
X569Y2511D01*
X539D01*
X559D02*
X579Y2531D01*
X629Y2471D02*
X609D01*
X599Y2481D01*
Y2521D01*
X609Y2531D01*
X629D01*
X639Y2521D01*
Y2481D01*
X629Y2471D01*
X7992Y951D02*
X7972D01*
X7982D01*
Y1001D01*
X7972Y1011D01*
X7962D01*
X7952Y1001D01*
X8012Y1021D02*
X8052D01*
X8072Y951D02*
Y961D01*
X8092Y981D01*
X8112Y961D01*
Y951D01*
X8092Y981D02*
Y1011D01*
X8132Y961D02*
X8142Y951D01*
X8162D01*
X8172Y961D01*
Y971D01*
X8162Y981D01*
X8172Y991D01*
Y1001D01*
X8162Y1011D01*
X8142D01*
X8132Y1001D01*
Y991D01*
X8142Y981D01*
X8132Y971D01*
Y961D01*
X8142Y981D02*
X8162D01*
X7155Y951D02*
X7135D01*
X7145D01*
Y1001D01*
X7135Y1011D01*
X7125D01*
X7115Y1001D01*
X7175Y1021D02*
X7215D01*
X7235Y951D02*
Y961D01*
X7255Y981D01*
X7275Y961D01*
Y951D01*
X7255Y981D02*
Y1011D01*
X7295Y951D02*
X7335D01*
Y961D01*
X7295Y1001D01*
Y1011D01*
X6318Y951D02*
X6298D01*
X6308D01*
Y1001D01*
X6298Y1011D01*
X6288D01*
X6278Y1001D01*
X6338Y1021D02*
X6378D01*
X6398Y951D02*
Y961D01*
X6418Y981D01*
X6438Y961D01*
Y951D01*
X6418Y981D02*
Y1011D01*
X6498Y951D02*
X6478Y961D01*
X6458Y981D01*
Y1001D01*
X6468Y1011D01*
X6488D01*
X6498Y1001D01*
Y991D01*
X6488Y981D01*
X6458D01*
X5481Y951D02*
X5461D01*
X5471D01*
Y1001D01*
X5461Y1011D01*
X5451D01*
X5441Y1001D01*
X5501Y1021D02*
X5541D01*
X5561Y951D02*
Y961D01*
X5581Y981D01*
X5601Y961D01*
Y951D01*
X5581Y981D02*
Y1011D01*
X5661Y951D02*
X5621D01*
Y981D01*
X5641Y971D01*
X5651D01*
X5661Y981D01*
Y1001D01*
X5651Y1011D01*
X5631D01*
X5621Y1001D01*
X4644Y951D02*
X4624D01*
X4634D01*
Y1001D01*
X4624Y1011D01*
X4614D01*
X4604Y1001D01*
X4664Y1021D02*
X4704D01*
X4724Y951D02*
Y961D01*
X4744Y981D01*
X4764Y961D01*
Y951D01*
X4744Y981D02*
Y1011D01*
X4814D02*
Y951D01*
X4784Y981D01*
X4824D01*
X3807Y951D02*
X3787D01*
X3797D01*
Y1001D01*
X3787Y1011D01*
X3777D01*
X3767Y1001D01*
X3827Y1021D02*
X3867D01*
X3887Y951D02*
Y961D01*
X3907Y981D01*
X3927Y961D01*
Y951D01*
X3907Y981D02*
Y1011D01*
X3947Y961D02*
X3957Y951D01*
X3977D01*
X3987Y961D01*
Y971D01*
X3977Y981D01*
X3967D01*
X3977D01*
X3987Y991D01*
Y1001D01*
X3977Y1011D01*
X3957D01*
X3947Y1001D01*
X2970Y951D02*
X2950D01*
X2960D01*
Y1001D01*
X2950Y1011D01*
X2940D01*
X2930Y1001D01*
X2990Y1021D02*
X3030D01*
X3050Y951D02*
Y961D01*
X3070Y981D01*
X3090Y961D01*
Y951D01*
X3070Y981D02*
Y1011D01*
X3150D02*
X3110D01*
X3150Y971D01*
Y961D01*
X3140Y951D01*
X3120D01*
X3110Y961D01*
X2133Y951D02*
X2113D01*
X2123D01*
Y1001D01*
X2113Y1011D01*
X2103D01*
X2093Y1001D01*
X2153Y1021D02*
X2193D01*
X2213Y951D02*
Y961D01*
X2233Y981D01*
X2253Y961D01*
Y951D01*
X2233Y981D02*
Y1011D01*
X2273D02*
X2293D01*
X2283D01*
Y951D01*
X2273Y961D01*
X7992Y2471D02*
X7972D01*
X7982D01*
Y2521D01*
X7972Y2531D01*
X7962D01*
X7952Y2521D01*
X8012Y2541D02*
X8052D01*
X8072Y2531D02*
Y2471D01*
X8102D01*
X8112Y2481D01*
Y2501D01*
X8102Y2511D01*
X8072D01*
X8092D02*
X8112Y2531D01*
X8132Y2481D02*
X8142Y2471D01*
X8162D01*
X8172Y2481D01*
Y2491D01*
X8162Y2501D01*
X8172Y2511D01*
Y2521D01*
X8162Y2531D01*
X8142D01*
X8132Y2521D01*
Y2511D01*
X8142Y2501D01*
X8132Y2491D01*
Y2481D01*
X8142Y2501D02*
X8162D01*
X7155Y2471D02*
X7135D01*
X7145D01*
Y2521D01*
X7135Y2531D01*
X7125D01*
X7115Y2521D01*
X7175Y2541D02*
X7215D01*
X7235Y2531D02*
Y2471D01*
X7265D01*
X7275Y2481D01*
Y2501D01*
X7265Y2511D01*
X7235D01*
X7255D02*
X7275Y2531D01*
X7295Y2471D02*
X7335D01*
Y2481D01*
X7295Y2521D01*
Y2531D01*
X6318Y2471D02*
X6298D01*
X6308D01*
Y2521D01*
X6298Y2531D01*
X6288D01*
X6278Y2521D01*
X6338Y2541D02*
X6378D01*
X6398Y2531D02*
Y2471D01*
X6428D01*
X6438Y2481D01*
Y2501D01*
X6428Y2511D01*
X6398D01*
X6418D02*
X6438Y2531D01*
X6498Y2471D02*
X6478Y2481D01*
X6458Y2501D01*
Y2521D01*
X6468Y2531D01*
X6488D01*
X6498Y2521D01*
Y2511D01*
X6488Y2501D01*
X6458D01*
X5481Y2471D02*
X5461D01*
X5471D01*
Y2521D01*
X5461Y2531D01*
X5451D01*
X5441Y2521D01*
X5501Y2541D02*
X5541D01*
X5561Y2531D02*
Y2471D01*
X5591D01*
X5601Y2481D01*
Y2501D01*
X5591Y2511D01*
X5561D01*
X5581D02*
X5601Y2531D01*
X5661Y2471D02*
X5621D01*
Y2501D01*
X5641Y2491D01*
X5651D01*
X5661Y2501D01*
Y2521D01*
X5651Y2531D01*
X5631D01*
X5621Y2521D01*
X4644Y2471D02*
X4624D01*
X4634D01*
Y2521D01*
X4624Y2531D01*
X4614D01*
X4604Y2521D01*
X4664Y2541D02*
X4704D01*
X4724Y2531D02*
Y2471D01*
X4754D01*
X4764Y2481D01*
Y2501D01*
X4754Y2511D01*
X4724D01*
X4744D02*
X4764Y2531D01*
X4814D02*
Y2471D01*
X4784Y2501D01*
X4824D01*
X3807Y2471D02*
X3787D01*
X3797D01*
Y2521D01*
X3787Y2531D01*
X3777D01*
X3767Y2521D01*
X3827Y2541D02*
X3867D01*
X3887Y2531D02*
Y2471D01*
X3917D01*
X3927Y2481D01*
Y2501D01*
X3917Y2511D01*
X3887D01*
X3907D02*
X3927Y2531D01*
X3947Y2481D02*
X3957Y2471D01*
X3977D01*
X3987Y2481D01*
Y2491D01*
X3977Y2501D01*
X3967D01*
X3977D01*
X3987Y2511D01*
Y2521D01*
X3977Y2531D01*
X3957D01*
X3947Y2521D01*
X2970Y2471D02*
X2950D01*
X2960D01*
Y2521D01*
X2950Y2531D01*
X2940D01*
X2930Y2521D01*
X2990Y2541D02*
X3030D01*
X3050Y2531D02*
Y2471D01*
X3080D01*
X3090Y2481D01*
Y2501D01*
X3080Y2511D01*
X3050D01*
X3070D02*
X3090Y2531D01*
X3150D02*
X3110D01*
X3150Y2491D01*
Y2481D01*
X3140Y2471D01*
X3120D01*
X3110Y2481D01*
X2133Y2471D02*
X2113D01*
X2123D01*
Y2521D01*
X2113Y2531D01*
X2103D01*
X2093Y2521D01*
X2153Y2541D02*
X2193D01*
X2213Y2531D02*
Y2471D01*
X2243D01*
X2253Y2481D01*
Y2501D01*
X2243Y2511D01*
X2213D01*
X2233D02*
X2253Y2531D01*
X2273D02*
X2293D01*
X2283D01*
Y2471D01*
X2273Y2481D01*
X573Y3226D02*
X593D01*
X583D01*
Y3286D01*
X573D01*
X593D01*
X623D02*
X643D01*
X633D01*
Y3226D01*
X623Y3236D01*
X1410Y3226D02*
X1430D01*
X1420D01*
Y3286D01*
X1410D01*
X1430D01*
X1500D02*
X1460D01*
X1500Y3246D01*
Y3236D01*
X1490Y3226D01*
X1470D01*
X1460Y3236D01*
X2247Y3226D02*
X2267D01*
X2257D01*
Y3286D01*
X2247D01*
X2267D01*
X2297Y3236D02*
X2307Y3226D01*
X2327D01*
X2337Y3236D01*
Y3246D01*
X2327Y3256D01*
X2317D01*
X2327D01*
X2337Y3266D01*
Y3276D01*
X2327Y3286D01*
X2307D01*
X2297Y3276D01*
X3084Y3226D02*
X3104D01*
X3094D01*
Y3286D01*
X3084D01*
X3104D01*
X3164D02*
Y3226D01*
X3134Y3256D01*
X3174D01*
X3921Y3226D02*
X3941D01*
X3931D01*
Y3286D01*
X3921D01*
X3941D01*
X4011Y3226D02*
X3971D01*
Y3256D01*
X3991Y3246D01*
X4001D01*
X4011Y3256D01*
Y3276D01*
X4001Y3286D01*
X3981D01*
X3971Y3276D01*
X4758Y3226D02*
X4778D01*
X4768D01*
Y3286D01*
X4758D01*
X4778D01*
X4848Y3226D02*
X4828Y3236D01*
X4808Y3256D01*
Y3276D01*
X4818Y3286D01*
X4838D01*
X4848Y3276D01*
Y3266D01*
X4838Y3256D01*
X4808D01*
X5595Y3226D02*
X5615D01*
X5605D01*
Y3286D01*
X5595D01*
X5615D01*
X5645Y3226D02*
X5685D01*
Y3236D01*
X5645Y3276D01*
Y3286D01*
X6432Y3226D02*
X6452D01*
X6442D01*
Y3286D01*
X6432D01*
X6452D01*
X6482Y3236D02*
X6492Y3226D01*
X6512D01*
X6522Y3236D01*
Y3246D01*
X6512Y3256D01*
X6522Y3266D01*
Y3276D01*
X6512Y3286D01*
X6492D01*
X6482Y3276D01*
Y3266D01*
X6492Y3256D01*
X6482Y3246D01*
Y3236D01*
X6492Y3256D02*
X6512D01*
X7269Y3226D02*
X7289D01*
X7279D01*
Y3286D01*
X7269D01*
X7289D01*
X7319Y3276D02*
X7329Y3286D01*
X7349D01*
X7359Y3276D01*
Y3236D01*
X7349Y3226D01*
X7329D01*
X7319Y3236D01*
Y3246D01*
X7329Y3256D01*
X7359D01*
X8106Y3226D02*
X8126D01*
X8116D01*
Y3286D01*
X8106D01*
X8126D01*
X8156D02*
X8176D01*
X8166D01*
Y3226D01*
X8156Y3236D01*
X8206D02*
X8216Y3226D01*
X8236D01*
X8246Y3236D01*
Y3276D01*
X8236Y3286D01*
X8216D01*
X8206Y3276D01*
Y3236D01*
D28*
X8100Y3320D02*
Y3520D01*
X8200D01*
Y3320D02*
Y3520D01*
X8100Y3320D02*
X8200D01*
X7263D02*
Y3520D01*
X7363D01*
Y3320D02*
Y3520D01*
X7263Y3320D02*
X7363D01*
X6426D02*
Y3520D01*
X6526D01*
Y3320D02*
Y3520D01*
X6426Y3320D02*
X6526D01*
X5589D02*
Y3520D01*
X5689D01*
Y3320D02*
Y3520D01*
X5589Y3320D02*
X5689D01*
X4752D02*
Y3520D01*
X4852D01*
Y3320D02*
Y3520D01*
X4752Y3320D02*
X4852D01*
X3915D02*
Y3520D01*
X4015D01*
Y3320D02*
Y3520D01*
X3915Y3320D02*
X4015D01*
X3078D02*
Y3520D01*
X3178D01*
Y3320D02*
Y3520D01*
X3078Y3320D02*
X3178D01*
X2241D02*
Y3520D01*
X2341D01*
Y3320D02*
Y3520D01*
X2241Y3320D02*
X2341D01*
X1404D02*
Y3520D01*
X1504D01*
Y3320D02*
Y3520D01*
X1404Y3320D02*
X1504D01*
X567D02*
Y3520D01*
X667D01*
Y3320D02*
Y3520D01*
X567Y3320D02*
X667D01*
M02*
