%FSLAX23Y23*%
%MOIN*%
G70*
G01*
G75*
G04 Layer_Physical_Order=2*
%ADD10R,0.012X0.059*%
%ADD11O,0.012X0.059*%
%ADD12C,0.010*%
%ADD13C,0.300*%
%ADD14C,0.055*%
%ADD15C,0.180*%
%ADD16C,0.065*%
%ADD17C,0.059*%
%ADD18R,0.059X0.059*%
%ADD19C,0.053*%
%ADD20R,0.053X0.053*%
%ADD21R,0.047X0.047*%
%ADD22C,0.047*%
%ADD23C,0.059*%
%ADD24R,0.059X0.059*%
%ADD25C,0.110*%
%ADD26C,0.130*%
%ADD27C,0.050*%
D12*
X5920Y2993D02*
Y3360D01*
X3870Y840D02*
X4045Y1015D01*
X5080Y3360D02*
X5478Y2962D01*
X3970Y840D02*
X4015Y795D01*
X4470Y840D02*
X4510Y880D01*
X4240Y3229D02*
Y3360D01*
X3380D02*
X3565Y3545D01*
X4570Y840D02*
X4600Y870D01*
X2365Y3555D02*
X2560Y3360D01*
X4407Y77D02*
X4570Y240D01*
X4058Y128D02*
X4170Y240D01*
X870Y2009D02*
Y3330D01*
X8150Y3046D02*
Y3370D01*
X8017Y2913D02*
X8150Y3046D01*
X7313D02*
Y3370D01*
X8017Y2773D02*
X8150Y2640D01*
Y2286D02*
Y2640D01*
Y2188D02*
Y2286D01*
X7313D02*
Y2640D01*
Y2187D02*
Y2286D01*
X6476Y3046D02*
Y3370D01*
X5639Y3046D02*
Y3370D01*
X6476Y2286D02*
Y2640D01*
Y2187D02*
Y2286D01*
X4802Y3046D02*
Y3370D01*
X5639Y2286D02*
Y2640D01*
Y2187D02*
Y2286D01*
X4802D02*
Y2640D01*
Y2187D02*
Y2286D01*
X4802Y1800D02*
X4882D01*
X4802Y1880D02*
Y1977D01*
Y1800D02*
Y1880D01*
X8150D02*
Y1977D01*
Y1526D02*
Y1880D01*
Y1428D02*
Y1526D01*
X7313Y1880D02*
Y1977D01*
Y1526D02*
Y1880D01*
Y1427D02*
Y1526D01*
X8150Y1120D02*
Y1217D01*
X7313Y1120D02*
Y1217D01*
X6940Y560D02*
X7080Y420D01*
X6940Y560D02*
Y900D01*
X6476Y1880D02*
Y1977D01*
Y1526D02*
Y1880D01*
Y1427D02*
Y1526D01*
X5639Y1880D02*
Y1977D01*
Y1526D02*
Y1880D01*
Y1427D02*
Y1526D01*
X4802Y1800D02*
Y1800D01*
Y1526D02*
Y1800D01*
X4802Y1526D02*
X4802Y1526D01*
X5639Y1120D02*
Y1217D01*
X6476Y1120D02*
Y1217D01*
Y756D02*
Y1120D01*
X6360Y640D02*
X6476Y756D01*
X4802Y1120D02*
X4882Y1200D01*
X4802Y688D02*
Y1120D01*
Y688D02*
X4840Y650D01*
Y450D02*
Y650D01*
X3965Y3046D02*
Y3370D01*
X3540Y2760D02*
X3759D01*
X3879Y2640D02*
X3965D01*
Y2286D02*
Y2640D01*
Y2148D02*
Y2286D01*
X3128Y3046D02*
Y3370D01*
Y2286D02*
Y2640D01*
Y2187D02*
Y2286D01*
X2291Y3046D02*
Y3370D01*
X1454Y3046D02*
Y3370D01*
X617Y3046D02*
Y3370D01*
Y2941D02*
Y3046D01*
X2291Y2286D02*
Y2640D01*
Y2187D02*
Y2286D01*
X1454D02*
Y2640D01*
Y2187D02*
Y2286D01*
X617Y2640D02*
X624Y2647D01*
X617Y2286D02*
Y2640D01*
Y2187D02*
Y2286D01*
X3965Y1880D02*
Y1954D01*
Y1526D02*
Y1880D01*
Y1436D02*
Y1526D01*
X3128Y1880D02*
Y1977D01*
Y1526D02*
Y1880D01*
Y1427D02*
Y1526D01*
X3965Y1120D02*
X3997Y1152D01*
X3620Y890D02*
Y1020D01*
X3570Y840D02*
X3620Y890D01*
X3570Y440D02*
Y840D01*
X3128Y1120D02*
Y1217D01*
X3570Y440D02*
X3770Y240D01*
X2291Y1880D02*
Y1977D01*
Y1526D02*
Y1880D01*
Y1427D02*
Y1526D01*
X1454Y1880D02*
Y1977D01*
X617Y1880D02*
Y1977D01*
Y1526D02*
Y1880D01*
Y1427D02*
Y1526D01*
X2291Y1120D02*
Y1217D01*
X617Y953D02*
X820Y750D01*
X617Y1120D02*
Y1217D01*
Y953D02*
Y1120D01*
X4429Y2172D02*
Y2343D01*
X4215Y2000D02*
X4257D01*
X4183D02*
X4215D01*
Y797D02*
Y2000D01*
X3423Y1020D02*
X3465Y1062D01*
X3343Y2760D02*
X3360D01*
Y2692D02*
Y2760D01*
X3470Y440D02*
X3670Y240D01*
X3423Y887D02*
Y1020D01*
Y887D02*
X3470Y840D01*
Y440D02*
Y840D01*
X1620Y450D02*
X1777Y293D01*
X2717D02*
X2770Y240D01*
X3065Y2776D02*
Y2843D01*
X3048Y2416D02*
Y2603D01*
X3447Y2843D02*
X3902D01*
X3404Y2269D02*
Y2800D01*
X4843Y2843D02*
X5576D01*
X3467Y2351D02*
X3542Y2426D01*
X7100Y2843D02*
X7250D01*
X3610Y2280D02*
Y2334D01*
X3559Y2365D02*
X3636Y2442D01*
X3559Y2240D02*
Y2365D01*
X1826Y1323D02*
X2228D01*
X1620Y750D02*
Y1117D01*
X2782Y1040D02*
X3065Y1323D01*
X1720Y750D02*
X2010Y1040D01*
X3553Y1323D02*
X3902D01*
X1820Y750D02*
X2033Y963D01*
X4315Y1325D02*
X4470Y1480D01*
X2220Y750D02*
X2355Y885D01*
X4470Y1196D02*
Y1420D01*
X2320Y750D02*
X3097D01*
X2939Y2650D02*
X2999Y2590D01*
X2228Y2083D02*
Y2188D01*
X3737Y2435D02*
X3757D01*
X3727Y2083D02*
X3736Y2092D01*
X3767Y2505D02*
X3797Y2475D01*
Y2188D02*
X3902Y2083D01*
X3716Y2240D02*
Y2683D01*
X1391Y2843D02*
X1606D01*
X1720Y450D02*
X1809Y361D01*
X2749D02*
X2870Y240D01*
X4250Y2058D02*
X4256Y2064D01*
X4139Y2058D02*
X4250D01*
X4139D02*
Y2750D01*
Y1321D02*
Y2058D01*
X4170Y840D02*
Y1290D01*
X4070Y2000D02*
Y2452D01*
Y840D02*
Y2000D01*
X4015Y795D02*
X4090D01*
X4115Y820D01*
Y2483D01*
X4092Y2506D02*
X4115Y2483D01*
X4092Y2506D02*
Y2775D01*
X4197Y2880D01*
Y3380D01*
X4220Y3403D01*
X4260D01*
X4283Y3380D01*
Y3241D02*
Y3380D01*
Y3241D02*
X4562Y2962D01*
Y2800D02*
Y2962D01*
Y2800D02*
X4610Y2752D01*
X5719D01*
X5963Y2996D01*
Y3380D01*
X5940Y3403D02*
X5963Y3380D01*
X5877Y3403D02*
X5940D01*
X5807Y3333D02*
X5877Y3403D01*
X5807Y3009D02*
Y3333D01*
X5760Y2962D02*
X5807Y3009D01*
X5478Y2962D02*
X5760D01*
X4600Y870D02*
Y2606D01*
X4714Y2720D01*
X5862D01*
X5909Y2673D01*
X6300D01*
X6374Y2747D01*
X7280D01*
X7320Y2787D01*
Y2877D01*
X6652Y3545D02*
X7320Y2877D01*
X3565Y3545D02*
X6652D01*
X870Y2009D02*
X1383Y1496D01*
X2164D01*
X2298Y1362D01*
Y1272D02*
Y1362D01*
X2275Y1249D02*
X2298Y1272D01*
X1961Y1249D02*
X2275D01*
X1677Y965D02*
X1961Y1249D01*
X1677Y694D02*
Y965D01*
Y694D02*
X1740Y631D01*
X3083D01*
X3425Y289D01*
Y183D02*
Y289D01*
Y183D02*
X3480Y128D01*
X4058D01*
X4882Y1200D02*
Y1800D01*
X4802Y1800D02*
X4802Y1800D01*
X8017Y2773D02*
Y2913D01*
X4257Y2000D02*
X4429Y2172D01*
X3465Y1062D02*
X3662D01*
X3715Y1009D01*
Y814D02*
Y1009D01*
Y814D02*
X3760Y769D01*
X4187D01*
X4215Y797D01*
X1777Y293D02*
X2717D01*
X4347Y3339D02*
X4843Y2843D01*
X4347Y3339D02*
Y3419D01*
X4323Y3443D02*
X4347Y3419D01*
X4180Y3443D02*
X4323D01*
X4157Y3420D02*
X4180Y3443D01*
X4157Y2938D02*
Y3420D01*
X3970Y2751D02*
X4157Y2938D01*
X3808Y2751D02*
X3970D01*
X3757Y2802D02*
X3808Y2751D01*
X3498Y2802D02*
X3757D01*
X3498Y2718D02*
Y2802D01*
Y2718D02*
X3597D01*
X3696Y2619D01*
Y2281D02*
Y2619D01*
X3615Y2200D02*
X3696Y2281D01*
X3480Y2200D02*
X3615D01*
X3467Y2213D02*
X3480Y2200D01*
X3467Y2213D02*
Y2351D01*
X6520Y3423D02*
X7100Y2843D01*
X4387Y3423D02*
X6520D01*
X4347Y3463D02*
X4387Y3423D01*
X4160Y3463D02*
X4347D01*
X4137Y3440D02*
X4160Y3463D01*
X4137Y2965D02*
Y3440D01*
X3943Y2771D02*
X4137Y2965D01*
X3852Y2771D02*
X3943D01*
X3801Y2822D02*
X3852Y2771D01*
X3490Y2822D02*
X3801D01*
X3478Y2810D02*
X3490Y2822D01*
X3478Y2710D02*
Y2810D01*
Y2710D02*
X3676Y2512D01*
Y2400D02*
Y2512D01*
X3610Y2334D02*
X3676Y2400D01*
X4315Y750D02*
Y1325D01*
X3825Y260D02*
X4315Y750D01*
X3825Y227D02*
Y260D01*
X3793Y195D02*
X3825Y227D01*
X3650Y195D02*
X3793D01*
X3625Y220D02*
X3650Y195D01*
X3625Y220D02*
Y250D01*
X3225Y650D02*
X3625Y250D01*
X3225Y650D02*
Y860D01*
X3200Y885D02*
X3225Y860D01*
X2355Y885D02*
X3200D01*
X4420Y1146D02*
X4470Y1196D01*
X4420Y762D02*
Y1146D01*
X3920Y262D02*
X4420Y762D01*
X3920Y202D02*
Y262D01*
X3880Y162D02*
X3920Y202D01*
X3560Y162D02*
X3880D01*
X3520Y202D02*
X3560Y162D01*
X3520Y202D02*
Y327D01*
X3097Y750D02*
X3520Y327D01*
X2210Y2206D02*
X2228Y2188D01*
X2210Y2206D02*
Y2680D01*
X2250Y2720D01*
X2325D01*
X2395Y2650D01*
X2939D01*
X3736Y2434D02*
X3737Y2435D01*
X3736Y2092D02*
Y2434D01*
X1606Y2843D02*
X1719Y2956D01*
X2421D01*
X2480Y3015D01*
X3037D01*
X3302Y2750D01*
Y2211D02*
Y2750D01*
Y2211D02*
X3343Y2170D01*
X3646D01*
X3716Y2240D01*
X4139Y1321D02*
X4170Y1290D01*
X2010Y1040D02*
X2782D01*
X2291Y1427D02*
X2318Y1400D01*
Y1244D02*
Y1400D01*
X2291Y1217D02*
X2318Y1244D01*
X1620Y1117D02*
X1826Y1323D01*
X3404Y2800D02*
X3447Y2843D01*
X3099Y77D02*
X4407D01*
X3020Y156D02*
X3099Y77D01*
X3020Y156D02*
Y376D01*
X2898Y498D02*
X3020Y376D01*
X1786Y498D02*
X2898D01*
X1577Y707D02*
X1786Y498D01*
X1577Y707D02*
Y903D01*
X827Y1653D02*
X1577Y903D01*
X827Y1653D02*
Y3504D01*
X878Y3555D01*
X2365D01*
X5699Y2772D02*
X5920Y2993D01*
X4680Y2772D02*
X5699D01*
X4618Y2834D02*
X4680Y2772D01*
X4618Y2834D02*
Y2964D01*
X4322Y3260D02*
X4618Y2964D01*
X4322Y3260D02*
Y3404D01*
X4303Y3423D02*
X4322Y3404D01*
X4200Y3423D02*
X4303D01*
X4177Y3400D02*
X4200Y3423D01*
X4177Y2912D02*
Y3400D01*
X4045Y2780D02*
X4177Y2912D01*
X4045Y2544D02*
Y2780D01*
X4030Y2529D02*
X4045Y2544D01*
X4030Y2381D02*
Y2529D01*
Y2381D02*
X4045Y2366D01*
Y2055D02*
Y2366D01*
X4030Y2040D02*
X4045Y2055D01*
X4030Y1975D02*
Y2040D01*
Y1975D02*
X4045Y1960D01*
Y1015D02*
Y1960D01*
X3965Y1436D02*
X3997Y1404D01*
Y1152D02*
Y1404D01*
X3759Y2760D02*
X3879Y2640D01*
X4510Y880D02*
Y2959D01*
X4240Y3229D02*
X4510Y2959D01*
X1809Y361D02*
X2749D01*
X3797Y2188D02*
Y2475D01*
X3193Y963D02*
X3553Y1323D01*
X2033Y963D02*
X3193D01*
X3019Y2730D02*
X3065Y2776D01*
X3019Y2632D02*
Y2730D01*
Y2632D02*
X3048Y2603D01*
X617Y2941D02*
X624Y2934D01*
Y2647D02*
Y2934D01*
X3965Y1954D02*
X3972Y1961D01*
Y2141D01*
X3965Y2148D02*
X3972Y2141D01*
X8150Y2188D02*
X8158Y2180D01*
Y1985D02*
Y2180D01*
X8150Y1977D02*
X8158Y1985D01*
X8150Y1428D02*
X8158Y1420D01*
Y1225D02*
Y1420D01*
X8150Y1217D02*
X8158Y1225D01*
X7313Y2187D02*
X7320Y2180D01*
Y1984D02*
Y2180D01*
X7313Y1977D02*
X7320Y1984D01*
X7313Y1427D02*
X7320Y1420D01*
Y1224D02*
Y1420D01*
X7313Y1217D02*
X7320Y1224D01*
X6476Y2187D02*
X6483Y2180D01*
Y1984D02*
Y2180D01*
X6476Y1977D02*
X6483Y1984D01*
X6476Y1427D02*
X6483Y1420D01*
Y1224D02*
Y1420D01*
X6476Y1217D02*
X6483Y1224D01*
X5639Y2187D02*
X5646Y2180D01*
Y1984D02*
Y2180D01*
X5639Y1977D02*
X5646Y1984D01*
X5639Y1427D02*
X5646Y1420D01*
Y1224D02*
Y1420D01*
X5639Y1217D02*
X5646Y1224D01*
X3128Y2187D02*
X3135Y2180D01*
Y1984D02*
Y2180D01*
X3128Y1977D02*
X3135Y1984D01*
X3128Y1427D02*
X3135Y1420D01*
Y1224D02*
Y1420D01*
X3128Y1217D02*
X3135Y1224D01*
X2291Y2187D02*
X2298Y2180D01*
Y1984D02*
Y2180D01*
X2291Y1977D02*
X2298Y1984D01*
X1454Y2187D02*
X1461Y2180D01*
Y1984D02*
Y2180D01*
X1454Y1977D02*
X1461Y1984D01*
X617Y2187D02*
X624Y2180D01*
Y1984D02*
Y2180D01*
X617Y1977D02*
X624Y1984D01*
X617Y1427D02*
X624Y1420D01*
Y1224D02*
Y1420D01*
X617Y1217D02*
X624Y1224D01*
X4802Y2187D02*
X4809Y2180D01*
Y1984D02*
Y2180D01*
X4802Y1977D02*
X4809Y1984D01*
D13*
X250Y250D02*
D03*
X2700Y1300D02*
D03*
Y2850D02*
D03*
X250Y3500D02*
D03*
X8500Y250D02*
D03*
X6050Y1300D02*
D03*
Y2850D02*
D03*
X8500Y3500D02*
D03*
D14*
X820Y750D02*
D03*
Y450D02*
D03*
X920Y750D02*
D03*
Y450D02*
D03*
X1020Y750D02*
D03*
Y450D02*
D03*
X1120Y750D02*
D03*
Y450D02*
D03*
X1220Y750D02*
D03*
Y450D02*
D03*
X1320Y750D02*
D03*
Y450D02*
D03*
X1420Y750D02*
D03*
Y450D02*
D03*
X1520Y750D02*
D03*
Y450D02*
D03*
X2320D02*
D03*
Y750D02*
D03*
X2220Y450D02*
D03*
Y750D02*
D03*
X2120Y450D02*
D03*
Y750D02*
D03*
X2020Y450D02*
D03*
Y750D02*
D03*
X1920Y450D02*
D03*
Y750D02*
D03*
X1820Y450D02*
D03*
Y750D02*
D03*
X1720Y450D02*
D03*
Y750D02*
D03*
X1620Y450D02*
D03*
Y750D02*
D03*
X6120Y390D02*
D03*
Y690D02*
D03*
X5180Y454D02*
D03*
Y646D02*
D03*
X7900Y3360D02*
D03*
X7600D02*
D03*
X7040D02*
D03*
X6740D02*
D03*
X6220D02*
D03*
X5920D02*
D03*
X5380D02*
D03*
X5080D02*
D03*
X4540D02*
D03*
X4240D02*
D03*
X3680D02*
D03*
X3380D02*
D03*
X2860D02*
D03*
X2560D02*
D03*
X2020D02*
D03*
X1720D02*
D03*
X1170Y3330D02*
D03*
X870D02*
D03*
X1170Y3410D02*
D03*
X870D02*
D03*
D15*
X7080Y420D02*
D03*
X7554D02*
D03*
D16*
X7268Y527D02*
D03*
Y605D02*
D03*
X7366D02*
D03*
X7366Y527D02*
D03*
D17*
X4570Y840D02*
D03*
X4470D02*
D03*
X4370D02*
D03*
X4270D02*
D03*
X4170D02*
D03*
X4070D02*
D03*
X3970D02*
D03*
X3870D02*
D03*
X3770D02*
D03*
X3670D02*
D03*
X3570D02*
D03*
X3470D02*
D03*
X3370D02*
D03*
X3270D02*
D03*
X3170D02*
D03*
X3070D02*
D03*
X2970D02*
D03*
X2870D02*
D03*
X2770D02*
D03*
X2670D02*
D03*
X4570Y240D02*
D03*
X4470D02*
D03*
X4370D02*
D03*
X4270D02*
D03*
X4170D02*
D03*
X4070D02*
D03*
X3970D02*
D03*
X3870D02*
D03*
X3770D02*
D03*
X3670D02*
D03*
X3570D02*
D03*
X3470D02*
D03*
X3370D02*
D03*
X3270D02*
D03*
X3170D02*
D03*
X3070D02*
D03*
X2970D02*
D03*
X2870D02*
D03*
X2770D02*
D03*
D18*
X2670D02*
D03*
D19*
X3423Y1020D02*
D03*
X4183Y2000D02*
D03*
X3343Y2760D02*
D03*
X6360Y443D02*
D03*
X5037Y450D02*
D03*
Y650D02*
D03*
D20*
X3620Y1020D02*
D03*
X4380Y2000D02*
D03*
X3540Y2760D02*
D03*
X6360Y640D02*
D03*
X4840Y450D02*
D03*
Y650D02*
D03*
D21*
X6840Y900D02*
D03*
D22*
X6940D02*
D03*
D23*
X8150Y3370D02*
D03*
X7313D02*
D03*
X6476D02*
D03*
X5639D02*
D03*
X4802D02*
D03*
X3965D02*
D03*
X3128D02*
D03*
X2291D02*
D03*
X1454D02*
D03*
X617D02*
D03*
D24*
X8150Y3470D02*
D03*
X7313D02*
D03*
X6476D02*
D03*
X5639D02*
D03*
X4802D02*
D03*
X3965D02*
D03*
X3128D02*
D03*
X2291D02*
D03*
X1454D02*
D03*
X617D02*
D03*
D25*
X2228Y2843D02*
D03*
X3065D02*
D03*
X3902D02*
D03*
X4739D02*
D03*
X5576D02*
D03*
X6413D02*
D03*
X7250D02*
D03*
X8087D02*
D03*
X2228Y1323D02*
D03*
X3065D02*
D03*
X3902D02*
D03*
X4739D02*
D03*
X5576D02*
D03*
X6413D02*
D03*
X7250D02*
D03*
X8087D02*
D03*
X554Y2843D02*
D03*
X2228Y2083D02*
D03*
X3065D02*
D03*
X3902D02*
D03*
X4739D02*
D03*
X5576D02*
D03*
X6413D02*
D03*
X7250D02*
D03*
X8087D02*
D03*
X554D02*
D03*
Y1323D02*
D03*
X1391Y2843D02*
D03*
Y2083D02*
D03*
D26*
X2291Y2640D02*
D03*
Y3046D02*
D03*
X3128Y2640D02*
D03*
Y3046D02*
D03*
X3965Y2640D02*
D03*
Y3046D02*
D03*
X4802Y2640D02*
D03*
Y3046D02*
D03*
X5639Y2640D02*
D03*
Y3046D02*
D03*
X6476Y2640D02*
D03*
Y3046D02*
D03*
X7313Y2640D02*
D03*
Y3046D02*
D03*
X8150Y2640D02*
D03*
Y3046D02*
D03*
X2291Y1120D02*
D03*
Y1526D02*
D03*
X3128Y1120D02*
D03*
Y1526D02*
D03*
X3965Y1120D02*
D03*
Y1526D02*
D03*
X4802Y1120D02*
D03*
Y1526D02*
D03*
X5639Y1120D02*
D03*
Y1526D02*
D03*
X6476Y1120D02*
D03*
Y1526D02*
D03*
X7313Y1120D02*
D03*
Y1526D02*
D03*
X8150Y1120D02*
D03*
Y1526D02*
D03*
X617Y3046D02*
D03*
Y2640D02*
D03*
X2291Y1880D02*
D03*
Y2286D02*
D03*
X3128Y1880D02*
D03*
Y2286D02*
D03*
X3965Y1880D02*
D03*
Y2286D02*
D03*
X4802Y1880D02*
D03*
Y2286D02*
D03*
X5639Y1880D02*
D03*
Y2286D02*
D03*
X6476Y1880D02*
D03*
Y2286D02*
D03*
X7313Y1880D02*
D03*
Y2286D02*
D03*
X8150Y1880D02*
D03*
Y2286D02*
D03*
X617Y1880D02*
D03*
Y2286D02*
D03*
Y1120D02*
D03*
Y1526D02*
D03*
X1454Y2640D02*
D03*
Y3046D02*
D03*
Y1880D02*
D03*
Y2286D02*
D03*
D27*
X4429Y2343D02*
D03*
X3542Y2426D02*
D03*
X3610Y2280D02*
D03*
X3559Y2240D02*
D03*
X3636Y2442D02*
D03*
X4470Y1480D02*
D03*
Y1420D02*
D03*
X2999Y2590D02*
D03*
X3757Y2435D02*
D03*
X3727Y2083D02*
D03*
X3716Y2683D02*
D03*
X4139Y2750D02*
D03*
X4256Y2064D02*
D03*
X3404Y2269D02*
D03*
X4070Y2452D02*
D03*
Y2000D02*
D03*
X3767Y2505D02*
D03*
X3048Y2416D02*
D03*
X3360Y2692D02*
D03*
M02*
