%FSLAX23Y23*%
%MOIN*%
G70*
G01*
G75*
G04 Layer_Physical_Order=1*
%ADD10R,0.012X0.059*%
%ADD11O,0.012X0.059*%
%ADD12C,0.010*%
%ADD13C,0.300*%
%ADD14C,0.055*%
%ADD15C,0.180*%
%ADD16C,0.065*%
%ADD17C,0.059*%
%ADD18R,0.059X0.059*%
%ADD19C,0.053*%
%ADD20R,0.053X0.053*%
%ADD21R,0.047X0.047*%
%ADD22C,0.047*%
%ADD23C,0.059*%
%ADD24R,0.059X0.059*%
%ADD25C,0.110*%
%ADD26C,0.130*%
%ADD27C,0.050*%
D10*
X4220Y1580D02*
D03*
X3380Y2360D02*
D03*
D11*
X4246Y1580D02*
D03*
X4271D02*
D03*
X4297D02*
D03*
X4322D02*
D03*
X4348D02*
D03*
X4374D02*
D03*
X4399D02*
D03*
X4425D02*
D03*
X4450D02*
D03*
X4476D02*
D03*
X4501D02*
D03*
X4527D02*
D03*
X4553D02*
D03*
X4220Y1833D02*
D03*
X4246D02*
D03*
X4271D02*
D03*
X4297D02*
D03*
X4322D02*
D03*
X4348D02*
D03*
X4374D02*
D03*
X4399D02*
D03*
X4425D02*
D03*
X4450D02*
D03*
X4476D02*
D03*
X4501D02*
D03*
X4527D02*
D03*
X4553D02*
D03*
X3713Y2613D02*
D03*
X3687D02*
D03*
X3661D02*
D03*
X3636D02*
D03*
X3610D02*
D03*
X3585D02*
D03*
X3559D02*
D03*
X3534D02*
D03*
X3508D02*
D03*
X3482D02*
D03*
X3457D02*
D03*
X3431D02*
D03*
X3406D02*
D03*
X3380D02*
D03*
X3713Y2360D02*
D03*
X3687D02*
D03*
X3661D02*
D03*
X3636D02*
D03*
X3610D02*
D03*
X3585D02*
D03*
X3559D02*
D03*
X3534D02*
D03*
X3508D02*
D03*
X3482D02*
D03*
X3457D02*
D03*
X3431D02*
D03*
X3406D02*
D03*
D12*
X7600Y3360D02*
X7811Y3149D01*
X3625Y795D02*
X3670Y840D01*
X6740Y3360D02*
X6795Y3305D01*
X3770Y840D02*
X3918Y692D01*
X1546Y3534D02*
X1720Y3360D01*
X4347Y117D02*
X4470Y240D01*
X4168Y138D02*
X4270Y240D01*
X765Y3305D02*
X870Y3410D01*
X8040Y3360D02*
X8150Y3470D01*
X7900Y3360D02*
X8040D01*
X7203D02*
X7313Y3470D01*
X7040Y3360D02*
X7203D01*
X6366D02*
X6476Y3470D01*
X6220Y3360D02*
X6366D01*
X5529D02*
X5639Y3470D01*
X5380Y3360D02*
X5529D01*
X4692D02*
X4802Y3470D01*
X4540Y3360D02*
X4692D01*
X3855D02*
X3965Y3470D01*
X3680Y3360D02*
X3855D01*
X2970Y3470D02*
X3128D01*
X2860Y3360D02*
X2970Y3470D01*
X2130D02*
X2291D01*
X2020Y3360D02*
X2130Y3470D01*
X1314Y3330D02*
X1454Y3470D01*
X1170Y3330D02*
X1314D01*
X1110Y3470D02*
X1170Y3410D01*
X617Y3470D02*
X1110D01*
X5110Y454D02*
X5180D01*
X5037Y450D02*
X5106D01*
X4995Y408D02*
X5037Y450D01*
X3970Y240D02*
X4138Y408D01*
X5110Y646D02*
X5180D01*
X5037Y650D02*
X5106D01*
X4882Y495D02*
X5037Y650D01*
X3870Y240D02*
X4125Y495D01*
X6173Y443D02*
X6360D01*
X6120Y390D02*
X6173Y443D01*
X6098Y368D02*
X6120Y390D01*
X4370Y240D02*
X4498Y368D01*
X6120Y690D02*
X7183D01*
X7268Y605D01*
X6078Y732D02*
X6120Y690D01*
X4370Y840D02*
X4478Y732D01*
X8370Y3370D02*
X8500Y3500D01*
X8150Y3370D02*
X8370D01*
X7313Y3046D02*
X8150D01*
X6476D02*
X7313D01*
X6197D02*
X6476D01*
X5840Y2640D02*
X6050Y2850D01*
X5639Y2640D02*
X5840D01*
X4380Y1952D02*
Y2000D01*
X7313Y1120D02*
X8150D01*
X7093Y900D02*
X7313Y1120D01*
X7366Y527D02*
X7447D01*
X7260Y420D02*
X7366Y527D01*
X7080Y420D02*
X7260D01*
X7724Y250D02*
X8500D01*
X7447Y527D02*
X7554Y420D01*
X7724Y250D01*
X6940Y900D02*
X7093D01*
X6476Y1120D02*
X6744D01*
X6230D02*
X6476D01*
X6902Y938D02*
X6940Y900D01*
X4348Y1833D02*
Y1920D01*
Y1800D02*
Y1833D01*
X4297Y1780D02*
Y1833D01*
X6050Y1300D02*
X6230Y1120D01*
X5870D02*
X6050Y1300D01*
X5639Y1120D02*
X5870D01*
X4802D02*
X5639D01*
Y3046D02*
X5881D01*
X4802D02*
X5639D01*
X3965D02*
X4802D01*
X3128D02*
X3965D01*
X2896D02*
X3128D01*
X2700Y2850D02*
X2896Y3046D01*
X2501Y2850D02*
X2700D01*
X2291Y2640D02*
X2501Y2850D01*
X3482Y2613D02*
X3508D01*
X3457D02*
X3482D01*
X3457Y2560D02*
Y2613D01*
X3128Y2616D02*
X3263D01*
X3128D02*
Y2640D01*
X380Y3370D02*
X617D01*
X250Y3500D02*
X380Y3370D01*
X1454Y3046D02*
X2291D01*
X617D02*
X1454D01*
X4297Y1780D02*
X4304Y1787D01*
X4277Y1760D02*
X4297Y1780D01*
X3965Y1846D02*
Y1880D01*
Y1846D02*
X4093D01*
X3720Y1120D02*
X3965D01*
X3620Y1020D02*
X3720Y1120D01*
X3128D02*
X3520D01*
X2880D02*
X3128D01*
X2700Y1300D02*
X2880Y1120D01*
X3520D02*
X3620Y1020D01*
X2520Y1120D02*
X2700Y1300D01*
X1454Y1880D02*
X2291D01*
X617D02*
X1454D01*
X2291Y1120D02*
X2520D01*
X1420Y750D02*
X1520D01*
X1320D02*
X1420D01*
X1220D02*
X1320D01*
X1120D02*
X1220D01*
X1020D02*
X1120D01*
X920D02*
X1020D01*
X820D02*
X920D01*
X750D02*
X820D01*
X250Y250D02*
X750Y750D01*
X4031Y2741D02*
X4429Y2343D01*
X4322Y1833D02*
Y2109D01*
X4183Y2000D02*
Y2102D01*
Y2000D02*
X4220Y1963D01*
X6840Y900D02*
X6950Y790D01*
X4165Y900D02*
X6840D01*
X7182Y790D02*
X7366Y605D01*
X4220Y1833D02*
Y1963D01*
X3343Y2760D02*
X3410Y2827D01*
X3380Y2613D02*
Y2672D01*
X3360Y2692D02*
X3360D01*
X3470Y840D02*
X3528Y898D01*
X3625Y195D02*
X3670Y240D01*
X2670D02*
X2715Y195D01*
X5408Y527D02*
X7268D01*
X4270Y840D02*
X4398Y712D01*
X1583Y450D02*
X1620D01*
X1520D02*
X1530Y460D01*
X2228Y2772D02*
Y2843D01*
X3431Y2360D02*
Y2440D01*
X3048Y2416D02*
X3360D01*
X3380Y2360D02*
Y2396D01*
X3457Y2322D02*
Y2360D01*
X3404Y2269D02*
X3457Y2322D01*
X4629Y2843D02*
X4739D01*
X3508Y2360D02*
Y2405D01*
X3542Y2423D02*
Y2426D01*
X3534Y2423D02*
X3542D01*
X3534Y2360D02*
Y2423D01*
X6241Y3015D02*
X6413Y2843D01*
X3585Y2360D02*
Y2440D01*
X3610Y2280D02*
Y2360D01*
X3610Y2280D02*
X3610Y2280D01*
X8087Y2878D02*
X8188D01*
X8087Y2843D02*
Y2878D01*
X3661Y2226D02*
Y2360D01*
X3636D02*
Y2442D01*
X3559Y2240D02*
X3559Y2240D01*
Y2360D01*
Y2240D02*
Y2240D01*
X3482Y2229D02*
Y2360D01*
X3559Y2240D02*
X3559Y2240D01*
X3548Y2229D02*
X3559Y2240D01*
X554Y2775D02*
Y2843D01*
X3406Y2315D02*
Y2360D01*
X3482Y2229D02*
X3548D01*
X3358D02*
X3482D01*
X3298D02*
X3358D01*
Y2293D01*
X4271Y1580D02*
Y1637D01*
X2228Y1323D02*
X2399Y1494D01*
X4220Y1519D02*
Y1580D01*
X3065Y1323D02*
X3156Y1232D01*
X4297Y1580D02*
Y1640D01*
X3902Y1323D02*
X3993D01*
X4348Y1532D02*
Y1580D01*
X4535Y1119D02*
X4739Y1323D01*
X4415Y999D02*
X4535Y1119D01*
X4268Y1386D02*
X4535Y1119D01*
X1920Y750D02*
X2148Y978D01*
X5575Y1322D02*
X5576Y1323D01*
X5502Y1322D02*
X5575D01*
X4880D02*
X5502D01*
Y1249D02*
Y1322D01*
X4374Y1349D02*
Y1580D01*
X2020Y750D02*
X2228Y958D01*
X5685Y1414D02*
X5899D01*
X4618D02*
X5685D01*
X6271Y1465D02*
X6413Y1323D01*
X5685Y1200D02*
Y1414D01*
X4425Y1496D02*
Y1580D01*
X2120Y750D02*
X2308Y938D01*
X4450Y1500D02*
Y1580D01*
Y1480D02*
Y1500D01*
Y1470D02*
Y1480D01*
Y1500D02*
X4470Y1480D01*
X7250Y1323D02*
Y1382D01*
X4501Y1580D02*
Y1610D01*
Y1544D02*
Y1580D01*
X8087Y1323D02*
Y1378D01*
X4470Y1420D02*
X4510Y1460D01*
X4476Y1580D02*
Y1640D01*
X4337Y1625D02*
X4384D01*
X4337D02*
X4363Y1651D01*
X4322Y1610D02*
X4337Y1625D01*
X4399Y1580D02*
Y1610D01*
X4322Y1580D02*
Y1610D01*
Y1535D02*
Y1580D01*
X4246Y1535D02*
Y1580D01*
Y1535D02*
X4284Y1497D01*
X4322Y1535D01*
X4210Y1423D02*
X4284Y1497D01*
X554Y1323D02*
X633Y1243D01*
X3534Y2568D02*
Y2613D01*
X2999Y2590D02*
X3034Y2555D01*
X3653Y2539D02*
X3757Y2435D01*
X3585Y2550D02*
Y2613D01*
X3065Y2083D02*
X3727D01*
X3747Y2505D02*
X3767D01*
X3610Y2580D02*
Y2613D01*
X4466Y2083D02*
X4739D01*
X3661Y2613D02*
Y2700D01*
X5515Y2083D02*
X5576D01*
X4374Y1833D02*
Y1890D01*
X6310Y1980D02*
X6413Y2083D01*
X4425Y1833D02*
Y1893D01*
X7127Y1960D02*
X7250Y2083D01*
X4450Y1833D02*
Y1872D01*
X7787Y1783D02*
X8087Y2083D01*
X4501Y1800D02*
Y1833D01*
X3636Y2613D02*
Y2658D01*
X3687Y2360D02*
Y2474D01*
Y2216D02*
Y2360D01*
X4476Y1800D02*
Y1833D01*
X4399Y1780D02*
Y1833D01*
X3559Y2613D02*
Y2645D01*
Y2545D02*
Y2613D01*
X675Y2082D02*
X1142D01*
X554D02*
X675D01*
X554D02*
Y2083D01*
X675Y1961D02*
Y2082D01*
X3716Y2680D02*
Y2683D01*
X3687Y2613D02*
Y2651D01*
X3713Y2580D02*
Y2613D01*
X3765Y2360D02*
X3807Y2402D01*
X3713Y2308D02*
X3765Y2360D01*
X3713D02*
X3765D01*
X1391Y2120D02*
X2124D01*
X1391Y2083D02*
Y2120D01*
X1677Y407D02*
X1720Y450D01*
X1420D02*
X1463Y407D01*
X1794Y424D02*
X1932Y285D01*
X2925D02*
X2970Y240D01*
X1794Y424D02*
X1820Y450D01*
X1650Y280D02*
X1794Y424D01*
X1320Y450D02*
X1490Y280D01*
X3005Y305D02*
X3070Y240D01*
X1220Y450D02*
X1263Y493D01*
X1877D02*
X1920Y450D01*
X2065Y305D01*
X3185Y325D02*
X3270Y240D01*
X1120Y450D02*
X1199Y529D01*
X1941D02*
X2020Y450D01*
X2145Y325D01*
X3265Y345D02*
X3370Y240D01*
X1020Y450D02*
X1199Y629D01*
X1941D02*
X2120Y450D01*
X2225Y345D01*
X2220Y422D02*
Y450D01*
X3333Y377D02*
X3470Y240D01*
X920Y450D02*
X1137Y667D01*
X2003Y639D02*
X2206Y436D01*
X2220Y422D01*
X2265Y377D01*
X2320Y450D02*
X3360D01*
X3570Y240D01*
X2083Y687D02*
X2320Y450D01*
X820D02*
X1057Y687D01*
X4256Y2064D02*
X4271Y2049D01*
Y1833D02*
Y2049D01*
X4139Y2750D02*
Y2813D01*
X3431Y2579D02*
Y2613D01*
X4246Y1800D02*
Y1833D01*
X4070Y1928D02*
Y2000D01*
X3966Y2452D02*
X4070D01*
X3406Y2613D02*
Y2660D01*
X3918Y692D02*
X5201D01*
X5408Y485D01*
X6789D01*
X7189Y85D01*
X8600D01*
X8665Y150D01*
Y930D01*
X8340Y1255D02*
X8665Y930D01*
X8340Y1255D02*
Y3064D01*
X8159Y3245D02*
X8340Y3064D01*
X7871Y3245D02*
X8159D01*
X7713Y3403D02*
X7871Y3245D01*
X7513Y3403D02*
X7713D01*
X7415Y3305D02*
X7513Y3403D01*
X6795Y3305D02*
X7415D01*
X4138Y408D02*
X4995D01*
X4125Y495D02*
X4882D01*
X4498Y368D02*
X6098D01*
X4478Y732D02*
X6078D01*
X4304Y1787D02*
X4335D01*
X4348Y1800D01*
X3410Y2827D02*
X3765D01*
X3851Y2741D01*
X4031D01*
X4272Y2159D02*
X4322Y2109D01*
X4240Y2159D02*
X4272D01*
X4183Y2102D02*
X4240Y2159D01*
X4398Y712D02*
X5223D01*
X5408Y527D01*
X3415Y2456D02*
X3431Y2440D01*
X2299Y2456D02*
X3415D01*
X2210Y2545D02*
X2299Y2456D01*
X2210Y2545D02*
Y2754D01*
X2228Y2772D01*
X3528Y2497D02*
X3585Y2440D01*
X3031Y2497D02*
X3528D01*
X2959Y2569D02*
X3031Y2497D01*
X2959Y2569D02*
Y2615D01*
X3279Y2935D01*
X4302D01*
X4491Y2746D01*
X5608D01*
X5877Y3015D01*
X6241D01*
X8188Y2878D02*
X8230Y2920D01*
Y3079D01*
X8183Y3126D02*
X8230Y3079D01*
X579Y3126D02*
X8183D01*
X483Y3030D02*
X579Y3126D01*
X483Y2615D02*
Y3030D01*
Y2615D02*
X560Y2538D01*
X830D01*
X1163Y2205D01*
X3433D01*
X3438Y2200D01*
X3635D01*
X3661Y2226D01*
X3358Y2293D02*
X3380Y2315D01*
X3406D01*
X4245Y1663D02*
X4271Y1637D01*
X4154Y1663D02*
X4245D01*
X4122Y1631D02*
X4154Y1663D01*
X4122Y1402D02*
Y1631D01*
X3972Y1252D02*
X4122Y1402D01*
X3270Y1252D02*
X3972D01*
X3028Y1494D02*
X3270Y1252D01*
X2399Y1494D02*
X3028D01*
X3156Y1232D02*
X3992D01*
X4162Y1402D01*
Y1461D01*
X4220Y1519D01*
X2228Y958D02*
X4085D01*
X4106Y979D01*
X4466D01*
X4736Y1249D01*
X5502D01*
X4721Y1200D02*
X5685D01*
X4480Y959D02*
X4721Y1200D01*
X4118Y959D02*
X4480D01*
X4097Y938D02*
X4118Y959D01*
X2308Y938D02*
X4097D01*
X4501Y1544D02*
X4510Y1535D01*
Y1460D02*
Y1535D01*
X7790Y1378D02*
X8087D01*
X7516Y1652D02*
X7790Y1378D01*
X4543Y1652D02*
X7516D01*
X4501Y1610D02*
X4543Y1652D01*
X4198Y1423D02*
X4210D01*
X4198Y1317D02*
Y1423D01*
X4093Y1212D02*
X4198Y1317D01*
X3037Y1212D02*
X4093D01*
X2784Y1465D02*
X3037Y1212D01*
X2600Y1465D02*
X2784D01*
X2378Y1243D02*
X2600Y1465D01*
X633Y1243D02*
X2378D01*
X4465Y1651D02*
X4476Y1640D01*
X4363Y1651D02*
X4465D01*
X4384Y1625D02*
X4399Y1610D01*
X3034Y2555D02*
X3261D01*
X3296Y2520D01*
X3486D01*
X3534Y2568D01*
X3585Y2550D02*
X3596Y2539D01*
X3653D01*
X4183Y2366D02*
X4466Y2083D01*
X4001Y2366D02*
X4183D01*
X3787Y2580D02*
X4001Y2366D01*
X3787Y2580D02*
Y2720D01*
X3775Y2732D02*
X3787Y2720D01*
X3693Y2732D02*
X3775D01*
X3661Y2700D02*
X3693Y2732D01*
X5444Y2012D02*
X5515Y2083D01*
X4496Y2012D02*
X5444D01*
X4374Y1890D02*
X4496Y2012D01*
X4425Y1893D02*
X4512Y1980D01*
X6310D01*
X4450Y1872D02*
X4538Y1960D01*
X7127D01*
X4501Y1800D02*
X4518Y1783D01*
X7787D01*
X1142Y2082D02*
X1233Y2173D01*
X3644D01*
X3687Y2216D01*
X4399Y1780D02*
X4456D01*
X4476Y1800D01*
X4359Y1740D02*
X4399Y1780D01*
X4359Y1720D02*
Y1740D01*
X3706Y1720D02*
X4359D01*
X3465Y1961D02*
X3706Y1720D01*
X675Y1961D02*
X3465D01*
X3687Y2651D02*
X3716Y2680D01*
X2124Y2120D02*
X2157Y2153D01*
X3666D01*
X3713Y2200D01*
Y2308D01*
X1932Y285D02*
X2925D01*
X1490Y280D02*
X1650D01*
X2065Y305D02*
X3005D01*
X1199Y629D02*
X1941D01*
X1137Y667D02*
X2003D01*
Y639D02*
Y667D01*
X2265Y377D02*
X3333D01*
X4039Y2913D02*
X4139Y2813D01*
X3374Y2913D02*
X4039D01*
X3301Y2840D02*
X3374Y2913D01*
X3301Y2637D02*
Y2840D01*
Y2637D02*
X3370Y2568D01*
X3420D01*
X3431Y2579D01*
X600Y3534D02*
X1546D01*
X572Y3506D02*
X600Y3534D01*
X572Y3430D02*
Y3506D01*
Y3430D02*
X587Y3415D01*
X640D01*
X662Y3393D01*
Y3326D02*
Y3393D01*
X661Y3325D02*
X662Y3326D01*
X454Y3325D02*
X661D01*
X235Y3106D02*
X454Y3325D01*
X235Y821D02*
Y3106D01*
X85Y671D02*
X235Y821D01*
X85Y160D02*
Y671D01*
Y160D02*
X160Y85D01*
X415D01*
X447Y117D01*
X4347D01*
X3877Y138D02*
X4168D01*
X3815Y200D02*
X3877Y138D01*
X3815Y200D02*
Y396D01*
X3504Y707D02*
X3815Y396D01*
X1896Y707D02*
X3504D01*
X1863Y740D02*
X1896Y707D01*
X1863Y740D02*
Y840D01*
X1810Y893D02*
X1863Y840D01*
X499Y893D02*
X1810D01*
X463Y929D02*
X499Y893D01*
X463Y929D02*
Y3131D01*
X637Y3305D01*
X765D01*
X554Y2775D02*
X673D01*
X1082Y2366D01*
X3161D01*
X3298Y2229D01*
X3406Y2660D02*
X3434Y2688D01*
X3545D01*
X3610Y2753D01*
X3806D01*
X3807Y2752D01*
Y2611D02*
Y2752D01*
Y2611D02*
X3966Y2452D01*
X4234Y1788D02*
X4246Y1800D01*
X4210Y1788D02*
X4234D01*
X4070Y1928D02*
X4210Y1788D01*
X3652Y2509D02*
X3687Y2474D01*
X3595Y2509D02*
X3652D01*
X3559Y2545D02*
X3595Y2509D01*
X4507Y2965D02*
X4629Y2843D01*
X2979Y2965D02*
X4507D01*
X2934Y2920D02*
X2979Y2965D01*
X2934Y2517D02*
Y2920D01*
Y2517D02*
X2974Y2477D01*
X3436D01*
X3508Y2405D01*
X3450Y795D02*
X3625D01*
X3425Y820D02*
X3450Y795D01*
X3425Y820D02*
Y884D01*
X3459Y918D01*
X4145D01*
X4166Y939D01*
X6879D01*
Y890D02*
Y939D01*
Y890D02*
X6908Y861D01*
X8011D01*
X8250Y1100D01*
Y3099D01*
X8200Y3149D02*
X8250Y3099D01*
X7811Y3149D02*
X8200D01*
X3693Y2559D02*
X3747Y2505D01*
X3631Y2559D02*
X3693D01*
X3610Y2580D02*
X3631Y2559D01*
X3360Y2416D02*
X3380Y2396D01*
X3360Y2692D02*
X3380Y2672D01*
X1057Y687D02*
X2083D01*
X3263Y2616D02*
X3339Y2540D01*
X3437D01*
X3457Y2560D01*
X4348Y1920D02*
X4380Y1952D01*
X7220Y1412D02*
X7250Y1382D01*
X6417Y1412D02*
X7220D01*
X6340Y1489D02*
X6417Y1412D01*
X5892Y1489D02*
X6340D01*
X5843Y1440D02*
X5892Y1489D01*
X4607Y1440D02*
X5843D01*
X4540Y1373D02*
X4607Y1440D01*
X4455Y1373D02*
X4540D01*
X4428Y1400D02*
X4455Y1373D01*
X4428Y1400D02*
Y1448D01*
X4450Y1470D01*
X4093Y1846D02*
X4179Y1760D01*
X4277D01*
X3993Y1323D02*
X4045Y1375D01*
Y1640D01*
X4095Y1690D01*
X4247D01*
X4297Y1640D01*
X3559Y2645D02*
X3572Y2658D01*
X3636D01*
X3807Y2402D02*
Y2530D01*
X3792Y2545D02*
X3807Y2530D01*
X3748Y2545D02*
X3792D01*
X3713Y2580D02*
X3748Y2545D01*
X4268Y1386D02*
Y1452D01*
X4348Y1532D01*
X6188Y3055D02*
X6197Y3046D01*
X5890Y3055D02*
X6188D01*
X5881Y3046D02*
X5890Y3055D01*
X4408Y1479D02*
X4425Y1496D01*
X4408Y1380D02*
Y1479D01*
Y1380D02*
X4435Y1353D01*
X4557D01*
X4618Y1414D01*
X5899D02*
X5950Y1465D01*
X6271D01*
X4809Y1393D02*
X4880Y1322D01*
X4685Y1393D02*
X4809D01*
X4625Y1333D02*
X4685Y1393D01*
X4390Y1333D02*
X4625D01*
X4374Y1349D02*
X4390Y1333D01*
X2148Y978D02*
X3675D01*
X3696Y999D01*
X4415D01*
X3528Y898D02*
X4163D01*
X4165Y900D01*
X6902Y938D02*
Y962D01*
X6744Y1120D02*
X6902Y962D01*
X6950Y790D02*
X7182D01*
X2145Y325D02*
X3185D01*
X2225Y345D02*
X3265D01*
X1199Y529D02*
X1941D01*
X2715Y195D02*
X3625D01*
X1263Y493D02*
X1877D01*
X1573Y460D02*
X1583Y450D01*
X1530Y460D02*
X1573D01*
X1463Y407D02*
X1677D01*
X5106Y450D02*
X5110Y454D01*
X5106Y650D02*
X5110Y646D01*
D13*
X250Y250D02*
D03*
X2700Y1300D02*
D03*
Y2850D02*
D03*
X250Y3500D02*
D03*
X8500Y250D02*
D03*
X6050Y1300D02*
D03*
Y2850D02*
D03*
X8500Y3500D02*
D03*
D14*
X820Y750D02*
D03*
Y450D02*
D03*
X920Y750D02*
D03*
Y450D02*
D03*
X1020Y750D02*
D03*
Y450D02*
D03*
X1120Y750D02*
D03*
Y450D02*
D03*
X1220Y750D02*
D03*
Y450D02*
D03*
X1320Y750D02*
D03*
Y450D02*
D03*
X1420Y750D02*
D03*
Y450D02*
D03*
X1520Y750D02*
D03*
Y450D02*
D03*
X2320D02*
D03*
Y750D02*
D03*
X2220Y450D02*
D03*
Y750D02*
D03*
X2120Y450D02*
D03*
Y750D02*
D03*
X2020Y450D02*
D03*
Y750D02*
D03*
X1920Y450D02*
D03*
Y750D02*
D03*
X1820Y450D02*
D03*
Y750D02*
D03*
X1720Y450D02*
D03*
Y750D02*
D03*
X1620Y450D02*
D03*
Y750D02*
D03*
X6120Y390D02*
D03*
Y690D02*
D03*
X5180Y454D02*
D03*
Y646D02*
D03*
X7900Y3360D02*
D03*
X7600D02*
D03*
X7040D02*
D03*
X6740D02*
D03*
X6220D02*
D03*
X5920D02*
D03*
X5380D02*
D03*
X5080D02*
D03*
X4540D02*
D03*
X4240D02*
D03*
X3680D02*
D03*
X3380D02*
D03*
X2860D02*
D03*
X2560D02*
D03*
X2020D02*
D03*
X1720D02*
D03*
X1170Y3330D02*
D03*
X870D02*
D03*
X1170Y3410D02*
D03*
X870D02*
D03*
D15*
X7080Y420D02*
D03*
X7554D02*
D03*
D16*
X7268Y527D02*
D03*
Y605D02*
D03*
X7366D02*
D03*
X7366Y527D02*
D03*
D17*
X4570Y840D02*
D03*
X4470D02*
D03*
X4370D02*
D03*
X4270D02*
D03*
X4170D02*
D03*
X4070D02*
D03*
X3970D02*
D03*
X3870D02*
D03*
X3770D02*
D03*
X3670D02*
D03*
X3570D02*
D03*
X3470D02*
D03*
X3370D02*
D03*
X3270D02*
D03*
X3170D02*
D03*
X3070D02*
D03*
X2970D02*
D03*
X2870D02*
D03*
X2770D02*
D03*
X2670D02*
D03*
X4570Y240D02*
D03*
X4470D02*
D03*
X4370D02*
D03*
X4270D02*
D03*
X4170D02*
D03*
X4070D02*
D03*
X3970D02*
D03*
X3870D02*
D03*
X3770D02*
D03*
X3670D02*
D03*
X3570D02*
D03*
X3470D02*
D03*
X3370D02*
D03*
X3270D02*
D03*
X3170D02*
D03*
X3070D02*
D03*
X2970D02*
D03*
X2870D02*
D03*
X2770D02*
D03*
D18*
X2670D02*
D03*
D19*
X3423Y1020D02*
D03*
X4183Y2000D02*
D03*
X3343Y2760D02*
D03*
X6360Y443D02*
D03*
X5037Y450D02*
D03*
Y650D02*
D03*
D20*
X3620Y1020D02*
D03*
X4380Y2000D02*
D03*
X3540Y2760D02*
D03*
X6360Y640D02*
D03*
X4840Y450D02*
D03*
Y650D02*
D03*
D21*
X6840Y900D02*
D03*
D22*
X6940D02*
D03*
D23*
X8150Y3370D02*
D03*
X7313D02*
D03*
X6476D02*
D03*
X5639D02*
D03*
X4802D02*
D03*
X3965D02*
D03*
X3128D02*
D03*
X2291D02*
D03*
X1454D02*
D03*
X617D02*
D03*
D24*
X8150Y3470D02*
D03*
X7313D02*
D03*
X6476D02*
D03*
X5639D02*
D03*
X4802D02*
D03*
X3965D02*
D03*
X3128D02*
D03*
X2291D02*
D03*
X1454D02*
D03*
X617D02*
D03*
D25*
X2228Y2843D02*
D03*
X3065D02*
D03*
X3902D02*
D03*
X4739D02*
D03*
X5576D02*
D03*
X6413D02*
D03*
X7250D02*
D03*
X8087D02*
D03*
X2228Y1323D02*
D03*
X3065D02*
D03*
X3902D02*
D03*
X4739D02*
D03*
X5576D02*
D03*
X6413D02*
D03*
X7250D02*
D03*
X8087D02*
D03*
X554Y2843D02*
D03*
X2228Y2083D02*
D03*
X3065D02*
D03*
X3902D02*
D03*
X4739D02*
D03*
X5576D02*
D03*
X6413D02*
D03*
X7250D02*
D03*
X8087D02*
D03*
X554D02*
D03*
Y1323D02*
D03*
X1391Y2843D02*
D03*
Y2083D02*
D03*
D26*
X2291Y2640D02*
D03*
Y3046D02*
D03*
X3128Y2640D02*
D03*
Y3046D02*
D03*
X3965Y2640D02*
D03*
Y3046D02*
D03*
X4802Y2640D02*
D03*
Y3046D02*
D03*
X5639Y2640D02*
D03*
Y3046D02*
D03*
X6476Y2640D02*
D03*
Y3046D02*
D03*
X7313Y2640D02*
D03*
Y3046D02*
D03*
X8150Y2640D02*
D03*
Y3046D02*
D03*
X2291Y1120D02*
D03*
Y1526D02*
D03*
X3128Y1120D02*
D03*
Y1526D02*
D03*
X3965Y1120D02*
D03*
Y1526D02*
D03*
X4802Y1120D02*
D03*
Y1526D02*
D03*
X5639Y1120D02*
D03*
Y1526D02*
D03*
X6476Y1120D02*
D03*
Y1526D02*
D03*
X7313Y1120D02*
D03*
Y1526D02*
D03*
X8150Y1120D02*
D03*
Y1526D02*
D03*
X617Y3046D02*
D03*
Y2640D02*
D03*
X2291Y1880D02*
D03*
Y2286D02*
D03*
X3128Y1880D02*
D03*
Y2286D02*
D03*
X3965Y1880D02*
D03*
Y2286D02*
D03*
X4802Y1880D02*
D03*
Y2286D02*
D03*
X5639Y1880D02*
D03*
Y2286D02*
D03*
X6476Y1880D02*
D03*
Y2286D02*
D03*
X7313Y1880D02*
D03*
Y2286D02*
D03*
X8150Y1880D02*
D03*
Y2286D02*
D03*
X617Y1880D02*
D03*
Y2286D02*
D03*
Y1120D02*
D03*
Y1526D02*
D03*
X1454Y2640D02*
D03*
Y3046D02*
D03*
Y1880D02*
D03*
Y2286D02*
D03*
D27*
X4429Y2343D02*
D03*
X3542Y2426D02*
D03*
X3610Y2280D02*
D03*
X3559Y2240D02*
D03*
X3636Y2442D02*
D03*
X4470Y1480D02*
D03*
Y1420D02*
D03*
X2999Y2590D02*
D03*
X3757Y2435D02*
D03*
X3727Y2083D02*
D03*
X3716Y2683D02*
D03*
X4139Y2750D02*
D03*
X4256Y2064D02*
D03*
X3404Y2269D02*
D03*
X4070Y2452D02*
D03*
Y2000D02*
D03*
X3767Y2505D02*
D03*
X3048Y2416D02*
D03*
X3360Y2692D02*
D03*
M02*
