%FSLAX23Y23*%
%MOIN*%
G70*
G01*
G75*
%ADD10C,0.020*%
%ADD11R,1.800X1.800*%
%ADD12C,0.010*%
%ADD13C,0.275*%
%ADD14C,0.180*%
%ADD15C,0.065*%
%ADD16R,0.047X0.047*%
%ADD17C,0.047*%
%ADD18R,0.053X0.053*%
%ADD19C,0.053*%
%ADD20C,0.055*%
%ADD21P,0.055X8X0*%
%ADD22C,0.059*%
%ADD23R,0.059X0.059*%
%ADD24C,0.008*%
%ADD25C,0.006*%
%ADD26C,0.283*%
%ADD27C,0.188*%
%ADD28C,0.073*%
%ADD29R,0.055X0.055*%
%ADD30C,0.055*%
%ADD31R,0.061X0.061*%
%ADD32C,0.061*%
%ADD33C,0.063*%
%ADD34P,0.063X8X0*%
%ADD35C,0.067*%
%ADD36R,0.067X0.067*%
D12*
X10000D01*
Y8000D01*
X0D02*
X10000D01*
X0Y0D02*
Y8000D01*
D26*
X2160Y220D02*
D03*
X220Y2180D02*
D03*
X3840Y220D02*
D03*
X220Y5800D02*
D03*
X2160Y7760D02*
D03*
X3840D02*
D03*
X6160Y220D02*
D03*
X7840D02*
D03*
X9780Y2180D02*
D03*
X6160Y7760D02*
D03*
X9780Y5800D02*
D03*
X7840Y7760D02*
D03*
D27*
X6740Y7580D02*
D03*
X7214D02*
D03*
D28*
X6928Y7473D02*
D03*
Y7395D02*
D03*
X7026D02*
D03*
Y7473D02*
D03*
D29*
X7280Y7080D02*
D03*
D30*
X7380D02*
D03*
X5200Y2240D02*
D03*
X5000D02*
D03*
X6220Y6820D02*
D03*
Y7020D02*
D03*
X1200Y2260D02*
D03*
X1000D02*
D03*
X9200Y2220D02*
D03*
X9000D02*
D03*
D31*
X2460Y4060D02*
D03*
X7300Y3260D02*
D03*
X5000Y2040D02*
D03*
X6020Y7020D02*
D03*
X1000Y2060D02*
D03*
X9000Y2040D02*
D03*
X7100Y4260D02*
D03*
X7300D02*
D03*
X7620Y3920D02*
D03*
X2980Y3940D02*
D03*
X3180D02*
D03*
X2980Y4380D02*
D03*
X3380Y4580D02*
D03*
X3180Y4380D02*
D03*
X2780Y4580D02*
D03*
D32*
X2460Y4257D02*
D03*
X7103Y3260D02*
D03*
X5197Y2040D02*
D03*
X6020Y6823D02*
D03*
X1197Y2060D02*
D03*
X9197Y2040D02*
D03*
X7100Y4063D02*
D03*
X7300D02*
D03*
X7817Y3920D02*
D03*
X2980Y3743D02*
D03*
X3180D02*
D03*
X2980Y4577D02*
D03*
X3380Y4383D02*
D03*
X3180Y4577D02*
D03*
X2780Y4383D02*
D03*
D33*
X6650Y3860D02*
D03*
X6350D02*
D03*
X7800Y3430D02*
D03*
Y3730D02*
D03*
X7296Y3900D02*
D03*
X2780Y3930D02*
D03*
Y3630D02*
D03*
X2620Y4010D02*
D03*
Y4310D02*
D03*
Y4390D02*
D03*
Y4690D02*
D03*
X3080Y3670D02*
D03*
Y3370D02*
D03*
X3380Y3930D02*
D03*
Y3630D02*
D03*
X3540Y4010D02*
D03*
Y4310D02*
D03*
Y4390D02*
D03*
Y4690D02*
D03*
X3080Y4650D02*
D03*
Y4950D02*
D03*
D34*
X7104Y3900D02*
D03*
D35*
X7650Y3430D02*
D03*
X7550D02*
D03*
X7450D02*
D03*
X7350D02*
D03*
X7250D02*
D03*
X7150D02*
D03*
X7050D02*
D03*
X6950D02*
D03*
X6850D02*
D03*
X6750D02*
D03*
X6650D02*
D03*
X6550D02*
D03*
X6450D02*
D03*
X6350D02*
D03*
X7650Y3730D02*
D03*
X7550D02*
D03*
X7450D02*
D03*
X7350D02*
D03*
X7250D02*
D03*
X7150D02*
D03*
X7050D02*
D03*
X6950D02*
D03*
X6850D02*
D03*
X6750D02*
D03*
X6650D02*
D03*
X6550D02*
D03*
X6450D02*
D03*
X3380Y4010D02*
D03*
X3280D02*
D03*
X3180D02*
D03*
X3080D02*
D03*
X2980D02*
D03*
X2880D02*
D03*
X2780D02*
D03*
X3380Y4310D02*
D03*
X3280D02*
D03*
X3180D02*
D03*
X3080D02*
D03*
X2980D02*
D03*
X2880D02*
D03*
D36*
X6350Y3730D02*
D03*
X2780Y4310D02*
D03*
M02*
