%FSLAX23Y23*%
%MOIN*%
G70*
G01*
G75*
G04 Layer_Physical_Order=2*
%ADD10C,0.020*%
%ADD11R,1.800X1.800*%
%ADD12C,0.010*%
%ADD13R,0.059X0.059*%
%ADD14C,0.059*%
%ADD15C,0.053*%
%ADD16R,0.053X0.053*%
%ADD17C,0.055*%
%ADD18P,0.055X8X0*%
%ADD19C,0.047*%
%ADD20R,0.047X0.047*%
%ADD21C,0.065*%
%ADD22C,0.180*%
%ADD23C,0.275*%
%ADD24C,0.050*%
D10*
X373Y2180D02*
G03*
X373Y2180I-153J0D01*
G01*
X1039Y2260D02*
G03*
X980Y2227I-39J0D01*
G01*
X2312Y220D02*
G03*
X2312Y220I-153J0D01*
G01*
X1238Y2060D02*
G03*
X1238Y2060I-42J0D01*
G01*
X3993Y220D02*
G03*
X3993Y220I-153J0D01*
G01*
X1020Y2227D02*
G03*
X1039Y2260I-20J33D01*
G01*
X1239D02*
G03*
X1239Y2260I-39J0D01*
G01*
X2792Y3671D02*
G03*
X2823Y3630I-12J-41D01*
G01*
G03*
X2821Y3642I-43J0D01*
G01*
X2841Y3663D02*
G03*
X2847Y3677I-14J14D01*
G01*
X2841Y3663D02*
G03*
X2847Y3677I-14J14D01*
G01*
X3123Y3450D02*
G03*
X3123Y3450I-43J0D01*
G01*
X3313Y3677D02*
G03*
X3319Y3663I20J0D01*
G01*
X5020Y2207D02*
G03*
X5039Y2240I-20J33D01*
G01*
G03*
X4980Y2207I-39J0D01*
G01*
X3339Y3642D02*
G03*
X3423Y3630I41J-12D01*
G01*
G03*
X3368Y3671I-43J0D01*
G01*
X2760Y3968D02*
G03*
X2807Y3897I20J-38D01*
G01*
X3022Y3743D02*
G03*
X3022Y3743I-42J0D01*
G01*
X2960Y3850D02*
G03*
X2966Y3836I20J0D01*
G01*
X2960Y3850D02*
G03*
X2966Y3836I20J0D01*
G01*
X2813Y3971D02*
G03*
X2808Y3962I14J-14D01*
G01*
X2663Y4010D02*
G03*
X2663Y4010I-43J0D01*
G01*
X2813Y3971D02*
G03*
X2808Y3962I14J-14D01*
G01*
X2825Y4010D02*
G03*
X2760Y3970I-45J0D01*
G01*
X2800D02*
G03*
X2825Y4010I-20J40D01*
G01*
X2866Y3968D02*
G03*
X2925Y4010I14J42D01*
G01*
X2960Y4050D02*
G03*
X2946Y3982I20J-40D01*
G01*
X2925Y4010D02*
G03*
X2838Y3996I-45J0D01*
G01*
X3039Y3762D02*
G03*
X3123Y3750I41J-12D01*
G01*
G03*
X3068Y3791I-43J0D01*
G01*
X3222Y3743D02*
G03*
X3222Y3743I-42J0D01*
G01*
X3313Y3677D02*
G03*
X3319Y3663I20J0D01*
G01*
X3353Y3897D02*
G03*
X3423Y3930I27J33D01*
G01*
X3014Y3982D02*
G03*
X3025Y4010I-34J28D01*
G01*
X3125D02*
G03*
X3125Y4010I-45J0D01*
G01*
X3025D02*
G03*
X3000Y4050I-45J0D01*
G01*
X3225Y4010D02*
G03*
X3146Y3982I-45J0D01*
G01*
X3214D02*
G03*
X3225Y4010I-34J28D01*
G01*
X3423Y3930D02*
G03*
X3400Y3968I-43J0D01*
G01*
X3352Y3962D02*
G03*
X3347Y3971I-19J-5D01*
G01*
X3352Y3962D02*
G03*
X3347Y3971I-19J-5D01*
G01*
X3325Y4010D02*
G03*
X3294Y3968I-45J0D01*
G01*
X3322Y3996D02*
G03*
X3325Y4010I-42J14D01*
G01*
X3425D02*
G03*
X3360Y3970I-45J0D01*
G01*
X3583Y4010D02*
G03*
X3583Y4010I-43J0D01*
G01*
X3400Y3970D02*
G03*
X3425Y4010I-20J40D01*
G01*
X6312Y220D02*
G03*
X6312Y220I-153J0D01*
G01*
X5238Y2040D02*
G03*
X5238Y2040I-42J0D01*
G01*
X5209Y2278D02*
G03*
X5239Y2240I-9J-38D01*
G01*
X6320Y3380D02*
G03*
X6306Y3374I0J-20D01*
G01*
X6275Y3485D02*
G03*
X6281Y3471I20J0D01*
G01*
X6275Y3485D02*
G03*
X6281Y3471I20J0D01*
G01*
X6320Y3380D02*
G03*
X6306Y3374I0J-20D01*
G01*
X6308Y3444D02*
G03*
X6395Y3430I42J-14D01*
G01*
X2502Y4257D02*
G03*
X2502Y4257I-42J0D01*
G01*
X2600Y4348D02*
G03*
X2663Y4310I20J-38D01*
G01*
X2838Y4324D02*
G03*
X2925Y4310I42J-14D01*
G01*
X2663D02*
G03*
X2640Y4348I-43J0D01*
G01*
X2663Y4390D02*
G03*
X2600Y4352I-43J0D01*
G01*
X2640D02*
G03*
X2663Y4390I-20J38D01*
G01*
X2806Y4416D02*
G03*
X2750Y4355I-26J-32D01*
G01*
X2925Y4310D02*
G03*
X2866Y4352I-45J0D01*
G01*
X2923Y4417D02*
G03*
X2929Y4403I20J0D01*
G01*
X2923Y4417D02*
G03*
X2929Y4403I20J0D01*
G01*
X2946Y4338D02*
G03*
X2960Y4270I34J-28D01*
G01*
X3000D02*
G03*
X3025Y4310I-20J40D01*
G01*
G03*
X3014Y4338I-45J0D01*
G01*
X3060Y4350D02*
G03*
X3125Y4310I20J-40D01*
G01*
X3146Y4338D02*
G03*
X3225Y4310I34J-28D01*
G01*
X3125D02*
G03*
X3100Y4350I-45J0D01*
G01*
X3225Y4310D02*
G03*
X3214Y4338I-45J0D01*
G01*
X3294Y4352D02*
G03*
X3325Y4310I-14J-42D01*
G01*
X3357Y4348D02*
G03*
X3425Y4310I23J-38D01*
G01*
X3325D02*
G03*
X3322Y4324I-45J0D01*
G01*
X3520Y4348D02*
G03*
X3583Y4310I20J-38D01*
G01*
X3425D02*
G03*
X3403Y4348I-45J0D01*
G01*
X3583Y4310D02*
G03*
X3560Y4348I-43J0D01*
G01*
X3422Y4383D02*
G03*
X3354Y4416I-42J0D01*
G01*
X3403Y4348D02*
G03*
X3422Y4383I-23J35D01*
G01*
X3583Y4390D02*
G03*
X3520Y4352I-43J0D01*
G01*
X2663Y4690D02*
G03*
X2663Y4690I-43J0D01*
G01*
X373Y5800D02*
G03*
X373Y5800I-153J0D01*
G01*
X2312Y7760D02*
G03*
X2312Y7760I-153J0D01*
G01*
X2846Y4534D02*
G03*
X2840Y4548I-20J0D01*
G01*
X2846Y4534D02*
G03*
X2840Y4548I-20J0D01*
G01*
X2963Y4539D02*
G03*
X3022Y4577I17J38D01*
G01*
X3320Y4548D02*
G03*
X3314Y4534I14J-14D01*
G01*
X3222Y4577D02*
G03*
X3222Y4577I-42J0D01*
G01*
X3320Y4548D02*
G03*
X3314Y4534I14J-14D01*
G01*
X3022Y4577D02*
G03*
X2963Y4615I-42J0D01*
G01*
X2929Y4787D02*
G03*
X2923Y4773I14J-14D01*
G01*
X2929Y4787D02*
G03*
X2923Y4773I14J-14D01*
G01*
X3123Y4610D02*
G03*
X3060Y4572I-43J0D01*
G01*
X3100D02*
G03*
X3123Y4610I-20J38D01*
G01*
Y4910D02*
G03*
X3039Y4898I-43J0D01*
G01*
X3068Y4869D02*
G03*
X3123Y4910I12J41D01*
G01*
X3583Y4690D02*
G03*
X3583Y4690I-43J0D01*
G01*
X3560Y4352D02*
G03*
X3583Y4390I-20J38D01*
G01*
X6315Y6548D02*
G03*
X6309Y6562I-20J0D01*
G01*
X6315Y6548D02*
G03*
X6309Y6562I-20J0D01*
G01*
X3993Y7760D02*
G03*
X3993Y7760I-153J0D01*
G01*
X6062Y6823D02*
G03*
X6032Y6783I-42J0D01*
G01*
X6060Y6812D02*
G03*
X6062Y6823I-40J12D01*
G01*
X6259Y6820D02*
G03*
X6229Y6782I-39J0D01*
G01*
X6259Y7020D02*
G03*
X6259Y7020I-39J0D01*
G01*
X6312Y7760D02*
G03*
X6312Y7760I-153J0D01*
G01*
X6568Y3340D02*
G03*
X6582Y3346I0J20D01*
G01*
X6395Y3430D02*
G03*
X6336Y3472I-45J0D01*
G01*
X6464D02*
G03*
X6495Y3430I-14J-42D01*
G01*
G03*
X6492Y3444I-45J0D01*
G01*
X6505Y3457D02*
G03*
X6511Y3471I-14J14D01*
G01*
X6505Y3457D02*
G03*
X6511Y3471I-14J14D01*
G01*
X6568Y3340D02*
G03*
X6582Y3346I0J20D01*
G01*
X6614Y3378D02*
G03*
X6620Y3392I-14J14D01*
G01*
X6614Y3378D02*
G03*
X6620Y3392I-14J14D01*
G01*
X6580Y3462D02*
G03*
X6570Y3390I-31J-32D01*
G01*
X6620Y3397D02*
G03*
X6695Y3430I30J33D01*
G01*
X6586Y3472D02*
G03*
X6580Y3462I14J-14D01*
G01*
X6586Y3472D02*
G03*
X6580Y3462I14J-14D01*
G01*
X6695Y3430D02*
G03*
X6681Y3462I-45J0D01*
G01*
X6719D02*
G03*
X6795Y3430I31J-32D01*
G01*
X6624Y3502D02*
G03*
X6610Y3496I0J-20D01*
G01*
X6624Y3502D02*
G03*
X6610Y3496I0J-20D01*
G01*
X7115Y3300D02*
G03*
X7145Y3260I-12J-40D01*
G01*
G03*
X7143Y3272I-42J0D01*
G01*
X6808Y3444D02*
G03*
X6895Y3430I42J-14D01*
G01*
X6795D02*
G03*
X6781Y3462I-45J0D01*
G01*
X6895Y3430D02*
G03*
X6836Y3472I-45J0D01*
G01*
X6995Y3430D02*
G03*
X6995Y3430I-45J0D01*
G01*
X7095D02*
G03*
X7095Y3430I-45J0D01*
G01*
X7164Y3472D02*
G03*
X7130Y3390I-14J-42D01*
G01*
X7164Y3293D02*
G03*
X7170Y3307I-14J14D01*
G01*
X7164Y3293D02*
G03*
X7170Y3307I-14J14D01*
G01*
Y3390D02*
G03*
X7195Y3430I-20J40D01*
G01*
G03*
X7192Y3444I-45J0D01*
G01*
X7295Y3430D02*
G03*
X7295Y3430I-45J0D01*
G01*
X6812Y3496D02*
G03*
X6798Y3502I-14J-14D01*
G01*
X6812Y3496D02*
G03*
X6798Y3502I-14J-14D01*
G01*
X7223Y3475D02*
G03*
X7229Y3489I-14J14D01*
G01*
X7223Y3475D02*
G03*
X7229Y3489I-14J14D01*
G01*
X6471Y3769D02*
G03*
X6471Y3691I-21J-39D01*
G01*
X6511Y3709D02*
G03*
X6595Y3730I39J21D01*
G01*
X6370Y3822D02*
G03*
X6393Y3860I-20J38D01*
G01*
X6595Y3730D02*
G03*
X6511Y3751I-45J0D01*
G01*
X6695Y3730D02*
G03*
X6695Y3730I-45J0D01*
G01*
X6693Y3860D02*
G03*
X6693Y3860I-43J0D01*
G01*
X6795Y3730D02*
G03*
X6795Y3730I-45J0D01*
G01*
X6895D02*
G03*
X6895Y3730I-45J0D01*
G01*
X6995D02*
G03*
X6995Y3730I-45J0D01*
G01*
X7095D02*
G03*
X7095Y3730I-45J0D01*
G01*
X6393Y3860D02*
G03*
X6315Y3884I-43J0D01*
G01*
X7084Y3776D02*
G03*
X7090Y3762I20J0D01*
G01*
X7084Y3776D02*
G03*
X7090Y3762I20J0D01*
G01*
X7108Y3744D02*
G03*
X7189Y3709I42J-14D01*
G01*
Y3751D02*
G03*
X7136Y3772I-39J-21D01*
G01*
X7229Y3691D02*
G03*
X7295Y3730I21J39D01*
G01*
G03*
X7292Y3744I-45J0D01*
G01*
X7264Y3772D02*
G03*
X7229Y3769I-14J-42D01*
G01*
X7310Y3762D02*
G03*
X7316Y3776I-14J14D01*
G01*
X7310Y3762D02*
G03*
X7316Y3776I-14J14D01*
G01*
X7276Y3938D02*
G03*
X7276Y3862I20J-38D01*
G01*
X7080Y3983D02*
G03*
X7084Y3971I20J0D01*
G01*
X7080Y3983D02*
G03*
X7084Y3971I20J0D01*
G01*
X7124Y3979D02*
G03*
X7120Y3991I-20J0D01*
G01*
X7124Y3979D02*
G03*
X7120Y3991I-20J0D01*
G01*
X7142Y4063D02*
G03*
X7080Y4027I-42J0D01*
G01*
X7120D02*
G03*
X7142Y4063I-20J36D01*
G01*
X7280Y3991D02*
G03*
X7276Y3979I16J-12D01*
G01*
X7280Y3991D02*
G03*
X7276Y3979I16J-12D01*
G01*
X7992Y220D02*
G03*
X7992Y220I-153J0D01*
G01*
X8957Y1986D02*
G03*
X8971Y1980I14J14D01*
G01*
X8957Y1986D02*
G03*
X8971Y1980I14J14D01*
G01*
X9157D02*
G03*
X9171Y1986I0J20D01*
G01*
X9157Y1980D02*
G03*
X9171Y1986I0J20D01*
G01*
X9185Y2000D02*
G03*
X9238Y2040I12J40D01*
G01*
G03*
X9157Y2028I-42J0D01*
G01*
X9932Y2180D02*
G03*
X9932Y2180I-153J0D01*
G01*
X9039Y2220D02*
G03*
X8980Y2187I-39J0D01*
G01*
X9020D02*
G03*
X9039Y2220I-20J33D01*
G01*
X9239D02*
G03*
X9239Y2220I-39J0D01*
G01*
X7395Y3430D02*
G03*
X7395Y3430I-45J0D01*
G01*
Y3730D02*
G03*
X7395Y3730I-45J0D01*
G01*
X7495Y3430D02*
G03*
X7495Y3430I-45J0D01*
G01*
Y3730D02*
G03*
X7495Y3730I-45J0D01*
G01*
X7595Y3430D02*
G03*
X7595Y3430I-45J0D01*
G01*
X7621Y3396D02*
G03*
X7624Y3318I-7J-39D01*
G01*
X7595Y3730D02*
G03*
X7595Y3730I-45J0D01*
G01*
X7316Y3862D02*
G03*
X7339Y3900I-20J38D01*
G01*
G03*
X7316Y3938I-43J0D01*
G01*
Y3971D02*
G03*
X7320Y3983I-16J12D01*
G01*
X7342Y4063D02*
G03*
X7280Y4027I-42J0D01*
G01*
X7316Y3971D02*
G03*
X7320Y3983I-16J12D01*
G01*
Y4027D02*
G03*
X7342Y4063I-20J36D01*
G01*
X7654Y3357D02*
G03*
X7641Y3386I-40J0D01*
G01*
X7653Y3347D02*
G03*
X7654Y3357I-39J10D01*
G01*
X7641Y3386D02*
G03*
X7695Y3430I9J44D01*
G01*
G03*
X7621Y3396I-45J0D01*
G01*
X7695Y3730D02*
G03*
X7695Y3730I-45J0D01*
G01*
X7843Y3430D02*
G03*
X7843Y3430I-43J0D01*
G01*
X7780Y3768D02*
G03*
X7843Y3730I20J-38D01*
G01*
G03*
X7820Y3768I-43J0D01*
G01*
X7786Y3830D02*
G03*
X7780Y3816I14J-14D01*
G01*
X7786Y3830D02*
G03*
X7780Y3816I14J-14D01*
G01*
X7831Y3819D02*
G03*
X7837Y3833I-14J14D01*
G01*
X7831Y3819D02*
G03*
X7837Y3833I-14J14D01*
G01*
X7858Y3920D02*
G03*
X7797Y3884I-42J0D01*
G01*
X7837D02*
G03*
X7858Y3920I-20J36D01*
G01*
X6420Y4530D02*
G03*
X6426Y4516I20J0D01*
G01*
X6420Y4530D02*
G03*
X6426Y4516I20J0D01*
G01*
X6511Y4479D02*
G03*
X6505Y4493I-20J0D01*
G01*
X6511Y4479D02*
G03*
X6505Y4493I-20J0D01*
G01*
X6460Y6600D02*
G03*
X6454Y6614I-20J0D01*
G01*
X6460Y6600D02*
G03*
X6454Y6614I-20J0D01*
G01*
X6941Y7454D02*
G03*
X7015Y7415I27J-39D01*
G01*
G03*
X6994Y7454I-47J0D01*
G01*
X7040D02*
G03*
X7083Y7370I27J-39D01*
G01*
X7111Y7398D02*
G03*
X7114Y7415I-45J16D01*
G01*
G03*
X7093Y7454I-47J0D01*
G01*
X7015Y7493D02*
G03*
X6941Y7454I-47J0D01*
G01*
X6994D02*
G03*
X7015Y7493I-27J39D01*
G01*
X6885Y7600D02*
G03*
X6885Y7600I-105J0D01*
G01*
X7114Y7493D02*
G03*
X7040Y7454I-47J0D01*
G01*
X7093D02*
G03*
X7114Y7493I-27J39D01*
G01*
X7118Y7222D02*
G03*
X7124Y7208I20J0D01*
G01*
X7118Y7222D02*
G03*
X7124Y7208I20J0D01*
G01*
X7158Y7343D02*
G03*
X7152Y7357I-20J0D01*
G01*
X7158Y7343D02*
G03*
X7152Y7357I-20J0D01*
G01*
X7535Y5200D02*
G03*
X7535Y5160I-35J-20D01*
G01*
X7805D02*
G03*
X7880Y5180I35J20D01*
G01*
G03*
X7805Y5200I-40J0D01*
G01*
X9932Y5800D02*
G03*
X9932Y5800I-153J0D01*
G01*
X7359Y7600D02*
G03*
X7359Y7600I-105J0D01*
G01*
X7195Y7023D02*
G03*
X7189Y7009I14J-14D01*
G01*
X7195Y7023D02*
G03*
X7189Y7009I14J-14D01*
G01*
X7419Y7080D02*
G03*
X7419Y7080I-39J0D01*
G01*
X7992Y7760D02*
G03*
X7992Y7760I-153J0D01*
G01*
X0Y2052D02*
X137D01*
X0Y2034D02*
X176D01*
X0Y2088D02*
X98D01*
X0Y2070D02*
X114D01*
X264Y2034D02*
X958D01*
Y2018D02*
X1042D01*
X303Y2052D02*
X958D01*
X326Y2070D02*
X958D01*
X342Y2088D02*
X958D01*
X0Y2124D02*
X78D01*
X0Y2106D02*
X87D01*
X353D02*
X980D01*
X958Y2018D02*
Y2102D01*
X980D01*
Y2227D01*
X362Y2124D02*
X980D01*
X1020Y2102D02*
Y2227D01*
X0Y90D02*
X2080D01*
X0Y72D02*
X2123D01*
X0Y144D02*
X2028D01*
X0Y108D02*
X2056D01*
X0Y126D02*
X2040D01*
X0Y180D02*
X2013D01*
X0Y162D02*
X2019D01*
X0Y216D02*
X2008D01*
X0Y198D02*
X2009D01*
X0Y234D02*
X2008D01*
X0Y252D02*
X2011D01*
X0Y270D02*
X2016D01*
X0Y288D02*
X2023D01*
X0Y306D02*
X2034D01*
X0Y324D02*
X2048D01*
X0Y342D02*
X2069D01*
X0Y360D02*
X2100D01*
X1020Y2102D02*
X1042D01*
X0Y2016D02*
X4958D01*
X1020Y2106D02*
X4980D01*
X0Y2160D02*
X69D01*
X0Y2142D02*
X72D01*
X0Y2178D02*
X68D01*
X0Y2196D02*
X68D01*
X0Y2214D02*
X71D01*
X368Y2142D02*
X980D01*
X371Y2160D02*
X980D01*
X0Y2232D02*
X77D01*
X0Y2250D02*
X85D01*
X0Y2268D02*
X95D01*
X0Y2286D02*
X110D01*
X0Y2304D02*
X131D01*
X0Y2322D02*
X164D01*
X363Y2232D02*
X973D01*
X355Y2250D02*
X963D01*
X345Y2268D02*
X962D01*
X330Y2286D02*
X971D01*
X372Y2178D02*
X980D01*
X1020Y2124D02*
X4980D01*
X372Y2196D02*
X980D01*
X369Y2214D02*
X980D01*
X1020Y2142D02*
X4980D01*
X1020Y2160D02*
X4980D01*
X1020Y2214D02*
X4971D01*
X1020Y2178D02*
X4980D01*
X1020Y2196D02*
X4980D01*
X0Y3438D02*
X3039D01*
X0Y3420D02*
X3050D01*
X0Y3456D02*
X3038D01*
X0Y3474D02*
X3045D01*
X0Y3492D02*
X3073D01*
X0Y3618D02*
X2739D01*
X0Y3600D02*
X2750D01*
X0Y3636D02*
X2738D01*
X0Y3654D02*
X2745D01*
X0Y3672D02*
X2773D01*
X2292Y144D02*
X3708D01*
X2307Y180D02*
X3693D01*
X2301Y162D02*
X3699D01*
X2311Y198D02*
X3689D01*
X2312Y216D02*
X3688D01*
X2312Y234D02*
X3688D01*
X1042Y2018D02*
Y2102D01*
Y2052D02*
X1156D01*
X1042Y2034D02*
X1164D01*
X2309Y252D02*
X3691D01*
X2304Y270D02*
X3696D01*
X2296Y288D02*
X3704D01*
X2286Y306D02*
X3714D01*
X2240Y90D02*
X3760D01*
X2197Y72D02*
X3803D01*
X2263Y108D02*
X3737D01*
X2251Y342D02*
X3749D01*
X2220Y360D02*
X3780D01*
X2280Y126D02*
X3720D01*
X2272Y324D02*
X3728D01*
X1229Y2034D02*
X4958D01*
Y1998D02*
X5042D01*
X1238Y2052D02*
X4958D01*
Y1998D02*
Y2082D01*
X5042Y1998D02*
Y2082D01*
Y2034D02*
X5156D01*
X5042Y2016D02*
X5163D01*
X5042Y2052D02*
X5157D01*
X1027Y2232D02*
X1173D01*
X1037Y2250D02*
X1163D01*
X1038Y2268D02*
X1162D01*
X1029Y2286D02*
X1171D01*
X1042Y2070D02*
X1156D01*
X1042Y2088D02*
X1166D01*
X2821Y3642D02*
X2841Y3663D01*
X2846Y3672D02*
X3314D01*
X1237Y2070D02*
X4958D01*
Y2082D02*
X4980D01*
X1227Y2232D02*
X4962D01*
X1228Y2088D02*
X4980D01*
X1237Y2250D02*
X4963D01*
X4980Y2082D02*
Y2207D01*
X5020Y2082D02*
X5042D01*
X5020D02*
Y2207D01*
X5038Y2232D02*
X5162D01*
X2810Y3600D02*
X3350D01*
X1238Y2268D02*
X4973D01*
X2832Y3654D02*
X3328D01*
X2821Y3618D02*
X3339D01*
X2822Y3636D02*
X3338D01*
X5037Y2250D02*
X5163D01*
X3319Y3663D02*
X3339Y3642D01*
X0Y3690D02*
X2807D01*
X0Y3708D02*
X2807D01*
X0Y3726D02*
X2807D01*
X0Y3744D02*
X2807D01*
X2792Y3671D02*
X2807Y3685D01*
X2847Y3726D02*
X2942D01*
X0Y3762D02*
X2807D01*
X2847Y3744D02*
X2938D01*
X0Y3780D02*
X2807D01*
X0Y3798D02*
X2807D01*
X0Y3816D02*
X2807D01*
X0Y3834D02*
X2807D01*
X0Y3852D02*
X2807D01*
X0Y3870D02*
X2807D01*
X0Y0D02*
Y8000D01*
X2847Y3677D02*
Y3949D01*
X0Y3888D02*
X2773D01*
X2807Y3685D02*
Y3897D01*
X2847Y3690D02*
X3313D01*
X2847Y3762D02*
X2943D01*
X2847Y3708D02*
X2958D01*
X2847Y3780D02*
X2961D01*
X2999D02*
X3022D01*
X2847Y3816D02*
X2986D01*
X2847Y3798D02*
X3004D01*
X2847Y3852D02*
X2960D01*
X2847Y3834D02*
X2968D01*
X2847Y3870D02*
X2960D01*
X2966Y3836D02*
X3039Y3762D01*
X3000Y3858D02*
X3068Y3791D01*
X2960Y3850D02*
Y3898D01*
X0Y3924D02*
X2738D01*
X0Y3906D02*
X2745D01*
X0Y3978D02*
X2592D01*
X0Y3942D02*
X2739D01*
X0Y3960D02*
X2750D01*
X2787Y3888D02*
X2807D01*
X0Y3996D02*
X2580D01*
X2648Y3978D02*
X2749D01*
X2660Y3996D02*
X2738D01*
X2418Y4018D02*
X2502D01*
X0Y4014D02*
X2578D01*
X2418Y4018D02*
Y4102D01*
X0Y4032D02*
X2418D01*
X2662Y4014D02*
X2736D01*
X2502Y4018D02*
Y4102D01*
Y4032D02*
X2584D01*
X2656D02*
X2741D01*
X2847Y3906D02*
X2938D01*
X2847Y3888D02*
X2960D01*
X2847Y3924D02*
X2938D01*
X2847Y3942D02*
X2938D01*
Y3898D02*
Y3982D01*
Y3898D02*
X2960D01*
X2847Y3949D02*
X2866Y3968D01*
X2858Y3960D02*
X2938D01*
X2911Y3978D02*
X2938D01*
X2824Y4014D02*
X2836D01*
X2813Y3971D02*
X2838Y3996D01*
X2822Y3996D02*
X2838D01*
X2922D02*
X2938D01*
X2924Y4014D02*
X2936D01*
X3002Y3708D02*
X3073D01*
X3087D02*
X3158D01*
X3022Y3744D02*
X3038D01*
X3018Y3726D02*
X3045D01*
X3017Y3762D02*
X3039D01*
X3115Y3726D02*
X3142D01*
X3122Y3744D02*
X3138D01*
X3000Y3858D02*
Y3898D01*
X3022D01*
Y3906D02*
X3138D01*
X3022Y3898D02*
Y3982D01*
X3138Y3898D02*
Y3982D01*
X3121Y3762D02*
X3143D01*
X3110Y3780D02*
X3161D01*
X3202Y3708D02*
X3313D01*
X3199Y3780D02*
X3313D01*
X3060Y3798D02*
X3313D01*
X3042Y3816D02*
X3313D01*
X3353Y3685D02*
X3368Y3671D01*
X3218Y3726D02*
X3313D01*
X3222Y3744D02*
X3313D01*
X3217Y3762D02*
X3313D01*
X3024Y3834D02*
X3313D01*
X3006Y3852D02*
X3313D01*
X3138Y3898D02*
X3222D01*
X3000Y3870D02*
X3313D01*
X3000Y3888D02*
X3313D01*
Y3677D02*
Y3949D01*
X3353Y3685D02*
Y3897D01*
X3222Y3898D02*
Y3982D01*
X3353Y3888D02*
X3373D01*
X3022Y3924D02*
X3138D01*
X3022Y3942D02*
X3138D01*
X3022Y3996D02*
X3038D01*
X3022Y3960D02*
X3138D01*
X3022Y3978D02*
X3049D01*
X3111D02*
X3138D01*
X3122Y3996D02*
X3138D01*
X3222D02*
X3238D01*
X3024Y4014D02*
X3036D01*
X3124D02*
X3136D01*
X3224D02*
X3236D01*
X3222Y3906D02*
X3313D01*
X3222Y3924D02*
X3313D01*
X3222Y3978D02*
X3249D01*
X3222Y3942D02*
X3313D01*
X3222Y3960D02*
X3302D01*
X3294Y3968D02*
X3313Y3949D01*
X3411Y3978D02*
X3512D01*
X3322Y3996D02*
X3347Y3971D01*
X3322Y3996D02*
X3338D01*
X3324Y4014D02*
X3336D01*
X3422Y3996D02*
X3500D01*
X3424Y4014D02*
X3498D01*
X0Y0D02*
X10000D01*
X0Y18D02*
X10000D01*
X0Y36D02*
X10000D01*
X0Y54D02*
X10000D01*
X0Y378D02*
X10000D01*
X0Y396D02*
X10000D01*
X0Y414D02*
X10000D01*
X0Y432D02*
X10000D01*
X0Y450D02*
X10000D01*
X0Y468D02*
X10000D01*
X0Y486D02*
X10000D01*
X0Y504D02*
X10000D01*
X0Y522D02*
X10000D01*
X0Y540D02*
X10000D01*
X0Y558D02*
X10000D01*
X0Y576D02*
X10000D01*
X0Y594D02*
X10000D01*
X0Y612D02*
X10000D01*
X0Y630D02*
X10000D01*
X0Y648D02*
X10000D01*
X0Y666D02*
X10000D01*
X0Y684D02*
X10000D01*
X0Y702D02*
X10000D01*
X0Y720D02*
X10000D01*
X0Y738D02*
X10000D01*
X0Y756D02*
X10000D01*
X0Y774D02*
X10000D01*
X0Y792D02*
X10000D01*
X0Y810D02*
X10000D01*
X0Y828D02*
X10000D01*
X0Y846D02*
X10000D01*
X0Y864D02*
X10000D01*
X0Y882D02*
X10000D01*
X0Y900D02*
X10000D01*
X0Y918D02*
X10000D01*
X0Y936D02*
X10000D01*
X0Y954D02*
X10000D01*
X0Y972D02*
X10000D01*
X0Y990D02*
X10000D01*
X0Y1008D02*
X10000D01*
X0Y1026D02*
X10000D01*
X0Y1044D02*
X10000D01*
X0Y1062D02*
X10000D01*
X0Y1080D02*
X10000D01*
X0Y1098D02*
X10000D01*
X0Y1116D02*
X10000D01*
X0Y1134D02*
X10000D01*
X0Y1152D02*
X10000D01*
X0Y1170D02*
X10000D01*
X0Y1188D02*
X10000D01*
X0Y1206D02*
X10000D01*
X0Y1224D02*
X10000D01*
X0Y1242D02*
X10000D01*
X0Y1260D02*
X10000D01*
X0Y1278D02*
X10000D01*
X0Y1296D02*
X10000D01*
X0Y1314D02*
X10000D01*
X0Y1332D02*
X10000D01*
X0Y1350D02*
X10000D01*
X0Y1368D02*
X10000D01*
X0Y1386D02*
X10000D01*
X0Y1404D02*
X10000D01*
X0Y1422D02*
X10000D01*
X0Y1440D02*
X10000D01*
X0Y1458D02*
X10000D01*
X0Y1476D02*
X10000D01*
X0Y1494D02*
X10000D01*
X0Y1512D02*
X10000D01*
X0Y1530D02*
X10000D01*
X0Y1548D02*
X10000D01*
X0Y1566D02*
X10000D01*
X0Y1584D02*
X10000D01*
X0Y1602D02*
X10000D01*
X0Y1620D02*
X10000D01*
X0Y1638D02*
X10000D01*
X0Y1656D02*
X10000D01*
X0Y1674D02*
X10000D01*
X0Y1692D02*
X10000D01*
X0Y1710D02*
X10000D01*
X3920Y90D02*
X6080D01*
X3877Y72D02*
X6123D01*
X3972Y144D02*
X6028D01*
X3944Y108D02*
X6056D01*
X3960Y126D02*
X6040D01*
X3981Y162D02*
X6019D01*
X3991Y198D02*
X6009D01*
X3987Y180D02*
X6013D01*
X3992Y216D02*
X6008D01*
X3977Y288D02*
X6023D01*
X3966Y306D02*
X6034D01*
X3952Y324D02*
X6048D01*
X3931Y342D02*
X6069D01*
X3900Y360D02*
X6100D01*
X3992Y234D02*
X6008D01*
X3989Y252D02*
X6011D01*
X3984Y270D02*
X6016D01*
X6240Y90D02*
X7760D01*
X6197Y72D02*
X7803D01*
X6264Y108D02*
X7736D01*
X6280Y126D02*
X7720D01*
X6301Y162D02*
X7699D01*
X6292Y144D02*
X7708D01*
X6311Y198D02*
X7689D01*
X6307Y180D02*
X7693D01*
X6312Y216D02*
X7688D01*
X6272Y324D02*
X7728D01*
X6252Y342D02*
X7748D01*
X6220Y360D02*
X7780D01*
X0Y1728D02*
X10000D01*
X6312Y234D02*
X7688D01*
X6309Y252D02*
X7691D01*
X6304Y270D02*
X7696D01*
X6297Y288D02*
X7703D01*
X6286Y306D02*
X7714D01*
X5020Y2124D02*
X8819D01*
X5020Y2106D02*
X8837D01*
X5020Y2178D02*
X8765D01*
X5020Y2142D02*
X8801D01*
X5020Y2160D02*
X8783D01*
X5042Y2070D02*
X5168D01*
X5029Y2214D02*
X5171D01*
X5020Y2196D02*
X8747D01*
X5229Y2214D02*
X8729D01*
X5027Y2268D02*
X5173D01*
X1229Y2286D02*
X5218D01*
X309Y2304D02*
X5236D01*
X276Y2322D02*
X5254D01*
X5238Y2250D02*
X8693D01*
X5238Y2232D02*
X8711D01*
X5292Y2304D02*
X8639D01*
X5256Y2268D02*
X8675D01*
X5274Y2286D02*
X8657D01*
X0Y1746D02*
X10000D01*
X0Y1764D02*
X10000D01*
X0Y1782D02*
X10000D01*
X0Y1800D02*
X10000D01*
X0Y1818D02*
X10000D01*
X0Y1836D02*
X10000D01*
X0Y1854D02*
X10000D01*
X0Y1872D02*
X10000D01*
X0Y1890D02*
X10000D01*
X0Y1908D02*
X10000D01*
X0Y1926D02*
X10000D01*
X0Y1944D02*
X10000D01*
X0Y1998D02*
X8945D01*
X0Y1962D02*
X10000D01*
X0Y1980D02*
X8971D01*
X5238Y2034D02*
X8909D01*
X5231Y2016D02*
X8927D01*
X5020Y2088D02*
X8855D01*
X5237Y2052D02*
X8891D01*
X5226Y2070D02*
X8873D01*
X0Y2340D02*
X5272D01*
X0Y2358D02*
X5290D01*
X0Y2376D02*
X5308D01*
X0Y2394D02*
X5326D01*
X0Y2412D02*
X5344D01*
X0Y2430D02*
X5362D01*
X0Y2448D02*
X5380D01*
X0Y2466D02*
X5398D01*
X0Y2484D02*
X5416D01*
X0Y2502D02*
X5434D01*
X0Y2520D02*
X5452D01*
X0Y2538D02*
X5470D01*
X0Y2556D02*
X5488D01*
X0Y2574D02*
X5506D01*
X0Y2592D02*
X5524D01*
X0Y2610D02*
X5542D01*
X0Y2628D02*
X5560D01*
X0Y2646D02*
X5578D01*
X0Y2664D02*
X5596D01*
X0Y2682D02*
X5614D01*
X0Y2700D02*
X5632D01*
X0Y2718D02*
X5650D01*
X0Y2736D02*
X5668D01*
X0Y2754D02*
X5686D01*
X0Y2772D02*
X5704D01*
X0Y2790D02*
X5722D01*
X0Y2808D02*
X5740D01*
X0Y2826D02*
X5758D01*
X0Y2844D02*
X5776D01*
X0Y2862D02*
X5794D01*
X0Y2880D02*
X5812D01*
X0Y2898D02*
X5830D01*
X0Y2916D02*
X5848D01*
X0Y2934D02*
X5866D01*
X0Y2952D02*
X5884D01*
X0Y2970D02*
X5902D01*
X0Y2988D02*
X5920D01*
X0Y3006D02*
X5938D01*
X0Y3024D02*
X5956D01*
X0Y3042D02*
X5974D01*
X0Y3060D02*
X5992D01*
X0Y3078D02*
X6010D01*
X0Y3096D02*
X6028D01*
X0Y3114D02*
X6046D01*
X0Y3132D02*
X6064D01*
X0Y3150D02*
X6082D01*
X0Y3168D02*
X6100D01*
X0Y3186D02*
X6118D01*
X0Y3204D02*
X6136D01*
X0Y3222D02*
X6154D01*
X0Y3240D02*
X6172D01*
X0Y3258D02*
X6190D01*
X0Y3276D02*
X6208D01*
X0Y3294D02*
X6226D01*
X0Y3312D02*
X6244D01*
X0Y3330D02*
X6262D01*
X3087Y3492D02*
X6275D01*
X0Y3510D02*
X6275D01*
X0Y3528D02*
X6275D01*
X0Y3348D02*
X6280D01*
X0Y3366D02*
X6298D01*
X0Y3546D02*
X6275D01*
X0Y3384D02*
X6564D01*
X0Y3402D02*
X6315D01*
X3110Y3420D02*
X6307D01*
X3121Y3438D02*
X6306D01*
X0Y3564D02*
X6275D01*
X3122Y3456D02*
X6296D01*
X3115Y3474D02*
X6278D01*
X0Y3582D02*
X6275D01*
X3353Y3690D02*
X6275D01*
X3353Y3708D02*
X6275D01*
X3353Y3726D02*
X6275D01*
X3353Y3744D02*
X6275D01*
X3353Y3762D02*
X6275D01*
X3353Y3780D02*
X6275D01*
X3353Y3798D02*
X6275D01*
X3353Y3816D02*
X6275D01*
X3353Y3834D02*
X6275D01*
X5688Y2700D02*
X8243D01*
X5670Y2682D02*
X8261D01*
X5742Y2754D02*
X8189D01*
X5706Y2718D02*
X8225D01*
X5724Y2736D02*
X8207D01*
X5778Y2790D02*
X8153D01*
X5760Y2772D02*
X8171D01*
X5832Y2844D02*
X8099D01*
X5796Y2808D02*
X8135D01*
X5814Y2826D02*
X8117D01*
X5209Y2278D02*
X6306Y3374D01*
X5238Y2249D02*
X6328Y3340D01*
X5886Y2898D02*
X8045D01*
X5850Y2862D02*
X8081D01*
X5868Y2880D02*
X8063D01*
X5922Y2934D02*
X8009D01*
X5904Y2916D02*
X8027D01*
X5976Y2988D02*
X7955D01*
X5940Y2952D02*
X7991D01*
X5958Y2970D02*
X7973D01*
X5328Y2340D02*
X8603D01*
X5310Y2322D02*
X8621D01*
X5382Y2394D02*
X8549D01*
X5346Y2358D02*
X8585D01*
X5364Y2376D02*
X8567D01*
X5418Y2430D02*
X8513D01*
X5400Y2412D02*
X8531D01*
X5472Y2484D02*
X8459D01*
X5436Y2448D02*
X8495D01*
X5454Y2466D02*
X8477D01*
X5508Y2520D02*
X8423D01*
X5490Y2502D02*
X8441D01*
X5562Y2574D02*
X8369D01*
X5526Y2538D02*
X8405D01*
X5544Y2556D02*
X8387D01*
X5598Y2610D02*
X8333D01*
X5580Y2592D02*
X8351D01*
X5652Y2664D02*
X8279D01*
X5616Y2628D02*
X8315D01*
X5634Y2646D02*
X8297D01*
X3410Y3600D02*
X6275D01*
X3421Y3618D02*
X6275D01*
X3415Y3654D02*
X6275D01*
X3387Y3672D02*
X6275D01*
X3353Y3852D02*
X6275D01*
X6281Y3471D02*
X6308Y3444D01*
X3422Y3636D02*
X6275D01*
X3353Y3870D02*
X6275D01*
X3387Y3888D02*
X6275D01*
X3415Y3906D02*
X6275D01*
X3421Y3942D02*
X6275D01*
X3410Y3960D02*
X6275D01*
Y3485D02*
Y6540D01*
X3422Y3924D02*
X6275D01*
X3568Y3978D02*
X6275D01*
X3580Y3996D02*
X6275D01*
X3582Y4014D02*
X6275D01*
X6012Y3024D02*
X7919D01*
X5994Y3006D02*
X7937D01*
X6066Y3078D02*
X7865D01*
X6030Y3042D02*
X7901D01*
X6048Y3060D02*
X7883D01*
X6102Y3114D02*
X7829D01*
X6084Y3096D02*
X7847D01*
X6156Y3168D02*
X7775D01*
X6120Y3132D02*
X7811D01*
X6138Y3150D02*
X7793D01*
X6192Y3204D02*
X7739D01*
X6174Y3186D02*
X7757D01*
X6246Y3258D02*
X7062D01*
X6210Y3222D02*
X7086D01*
X6228Y3240D02*
X7067D01*
X6264Y3276D02*
X7065D01*
X6282Y3294D02*
X7079D01*
X6300Y3312D02*
X7127D01*
X0Y4050D02*
X2418D01*
X0Y4068D02*
X2418D01*
X0Y4086D02*
X2418D01*
Y4102D02*
X2502D01*
Y4050D02*
X2605D01*
X2635D02*
X2760D01*
X0Y4230D02*
X2428D01*
X0Y4248D02*
X2419D01*
X0Y4266D02*
X2419D01*
X0Y4284D02*
X2429D01*
X2501Y4266D02*
X2735D01*
Y4265D02*
Y4355D01*
X2491Y4284D02*
X2586D01*
X2654D02*
X2735D01*
X2502Y4068D02*
X2960D01*
X0Y4104D02*
X2960D01*
X0Y4122D02*
X2960D01*
X0Y4140D02*
X2960D01*
X0Y4158D02*
X2960D01*
X2819Y4032D02*
X2841D01*
X2919D02*
X2941D01*
X2800Y4050D02*
X2860D01*
X2900D02*
X2960D01*
X2502Y4086D02*
X2960D01*
X0Y4176D02*
X2960D01*
X0Y4194D02*
X2960D01*
X0Y4212D02*
X2960D01*
X2492Y4230D02*
X2960D01*
X2501Y4248D02*
X2960D01*
X2735Y4265D02*
X2825D01*
Y4266D02*
X2873D01*
X2825Y4265D02*
Y4337D01*
X2887Y4266D02*
X2960D01*
X0Y4302D02*
X2578D01*
X0Y4320D02*
X2579D01*
X0Y4338D02*
X2588D01*
X0Y4356D02*
X2594D01*
X2662Y4302D02*
X2735D01*
X2661Y4320D02*
X2735D01*
X2652Y4338D02*
X2735D01*
Y4355D02*
X2750D01*
X2646Y4356D02*
X2749D01*
X0Y4374D02*
X2581D01*
X0Y4392D02*
X2577D01*
X0Y4410D02*
X2582D01*
X0Y4428D02*
X2601D01*
X2659Y4374D02*
X2739D01*
X2663Y4392D02*
X2739D01*
X2658Y4410D02*
X2748D01*
X2825Y4302D02*
X2836D01*
X2825Y4284D02*
X2844D01*
X2825Y4320D02*
X2837D01*
X2825Y4337D02*
X2838Y4324D01*
X2862Y4356D02*
X2938D01*
X2924Y4302D02*
X2936D01*
X2916Y4284D02*
X2944D01*
X2923Y4320D02*
X2937D01*
X2915Y4338D02*
X2945D01*
X2846Y4372D02*
X2866Y4352D01*
X2846Y4374D02*
X2938D01*
X2639Y4428D02*
X2806D01*
X2846Y4392D02*
X2938D01*
X0Y4446D02*
X2806D01*
X2846Y4410D02*
X2924D01*
X2846Y4428D02*
X2923D01*
X2846Y4446D02*
X2923D01*
X2960Y4050D02*
Y4270D01*
X3000Y4050D02*
X3060D01*
X3000Y4050D02*
Y4270D01*
Y4266D02*
X3073D01*
X3016Y4284D02*
X3044D01*
X3019Y4032D02*
X3041D01*
X3119D02*
X3141D01*
X3116Y4284D02*
X3144D01*
X3100Y4050D02*
X3160D01*
X3087Y4266D02*
X3173D01*
X3024Y4302D02*
X3036D01*
X3023Y4320D02*
X3037D01*
X3124Y4302D02*
X3136D01*
X3219Y4032D02*
X3241D01*
X3200Y4050D02*
X3260D01*
X3216Y4284D02*
X3244D01*
X3187Y4266D02*
X3273D01*
X3287D02*
X3373D01*
X3319Y4032D02*
X3341D01*
X3419D02*
X3504D01*
X3316Y4284D02*
X3344D01*
X3300Y4050D02*
X3360D01*
X3400D02*
X3525D01*
X3224Y4302D02*
X3236D01*
X3324D02*
X3336D01*
X3416Y4284D02*
X3506D01*
X3424Y4302D02*
X3498D01*
X2938Y4338D02*
Y4393D01*
X3015Y4338D02*
X3045D01*
X3022Y4356D02*
X3060D01*
X3022Y4374D02*
X3060D01*
X3022Y4392D02*
X3060D01*
X3123Y4320D02*
X3137D01*
X3115Y4338D02*
X3145D01*
X3100Y4356D02*
X3138D01*
X3100Y4374D02*
X3138D01*
X3100Y4392D02*
X3138D01*
X2929Y4403D02*
X2938Y4393D01*
X3022Y4410D02*
X3060D01*
X2967Y4422D02*
X3022D01*
X2963Y4428D02*
X3060D01*
X2963Y4446D02*
X3060D01*
X3022Y4338D02*
Y4422D01*
X3138Y4338D02*
Y4422D01*
X3100Y4410D02*
X3138D01*
X3222Y4338D02*
Y4422D01*
X3138D02*
X3222D01*
X3223Y4320D02*
X3237D01*
X3215Y4338D02*
X3245D01*
X3222Y4356D02*
X3298D01*
X3294Y4352D02*
X3314Y4372D01*
X3222Y4374D02*
X3314D01*
X3323Y4320D02*
X3337D01*
X3423D02*
X3499D01*
X3322Y4324D02*
X3348Y4350D01*
X3415Y4338D02*
X3508D01*
X3411Y4356D02*
X3514D01*
X3222Y4392D02*
X3314D01*
X3222Y4410D02*
X3314D01*
X3100Y4428D02*
X3314D01*
X3354D02*
X3521D01*
X3421Y4392D02*
X3497D01*
X3421Y4374D02*
X3501D01*
X3412Y4410D02*
X3502D01*
X0Y4464D02*
X2806D01*
X0Y4482D02*
X2806D01*
X0Y4536D02*
X2796D01*
X0Y4500D02*
X2806D01*
X0Y4554D02*
X2738D01*
Y4538D02*
X2793D01*
X0Y4572D02*
X2738D01*
X0Y4590D02*
X2738D01*
X0Y4608D02*
X2738D01*
X0Y4680D02*
X2579D01*
X0Y4662D02*
X2588D01*
X0Y5652D02*
X183D01*
X0Y4698D02*
X2578D01*
X0Y4716D02*
X2586D01*
X2738Y4538D02*
Y4622D01*
X0Y5670D02*
X140D01*
X0Y4518D02*
X2806D01*
X0Y4626D02*
X2923D01*
X0Y4644D02*
X2923D01*
X0Y4734D02*
X2923D01*
X0Y4752D02*
X2923D01*
X2652Y4662D02*
X2923D01*
X2661Y4680D02*
X2923D01*
X2662Y4698D02*
X2923D01*
X2654Y4716D02*
X2923D01*
X0Y4770D02*
X2923D01*
X0Y4788D02*
X2930D01*
X0Y4806D02*
X2948D01*
X0Y4824D02*
X2966D01*
X0Y4842D02*
X2984D01*
X0Y4860D02*
X3002D01*
X0Y4878D02*
X3020D01*
X0Y4896D02*
X3038D01*
X0Y4914D02*
X3038D01*
X0Y4932D02*
X3044D01*
X0Y4950D02*
X3065D01*
X0Y5706D02*
X100D01*
X0Y5688D02*
X116D01*
X0Y5760D02*
X73D01*
X0Y5724D02*
X88D01*
X0Y5742D02*
X79D01*
X0Y5796D02*
X68D01*
X0Y5778D02*
X69D01*
X0Y5814D02*
X68D01*
X0Y5832D02*
X71D01*
X0Y5850D02*
X76D01*
X0Y5868D02*
X83D01*
X0Y5886D02*
X94D01*
X0Y5904D02*
X108D01*
X0Y5922D02*
X128D01*
X0Y5940D02*
X160D01*
X0Y7758D02*
X2008D01*
X0Y7776D02*
X2008D01*
X0Y7632D02*
X2077D01*
X0Y7614D02*
X2116D01*
X0Y7686D02*
X2027D01*
X0Y7650D02*
X2054D01*
X0Y7668D02*
X2038D01*
X0Y7704D02*
X2018D01*
X0Y7740D02*
X2009D01*
X0Y7722D02*
X2012D01*
X0Y7794D02*
X2011D01*
X0Y7812D02*
X2017D01*
X0Y7830D02*
X2025D01*
X0Y7848D02*
X2035D01*
X0Y7866D02*
X2050D01*
X0Y7884D02*
X2071D01*
X0Y7902D02*
X2104D01*
X2806Y4416D02*
Y4526D01*
X2846Y4464D02*
X2923D01*
X2846Y4482D02*
X2923D01*
X2846Y4500D02*
X2923D01*
X2846Y4518D02*
X2923D01*
X2846Y4372D02*
Y4534D01*
X2963Y4464D02*
X3060D01*
X2846Y4536D02*
X2923D01*
X2963Y4482D02*
X3060D01*
X2963Y4500D02*
X3060D01*
X2793Y4538D02*
X2806Y4526D01*
X2822Y4567D02*
X2840Y4548D01*
X2834Y4554D02*
X2923D01*
Y4417D02*
Y4773D01*
X3060Y4350D02*
Y4572D01*
X2963Y4425D02*
Y4539D01*
X3100Y4446D02*
X3314D01*
X3100Y4464D02*
X3314D01*
X2963Y4518D02*
X3060D01*
X3100Y4482D02*
X3314D01*
X2988Y4536D02*
X3060D01*
X3314Y4372D02*
Y4534D01*
X3354Y4416D02*
Y4526D01*
X3100Y4536D02*
X3172D01*
X3100Y4500D02*
X3314D01*
X3100Y4518D02*
X3314D01*
X3100Y4350D02*
Y4572D01*
X3188Y4536D02*
X3314D01*
X3354Y4526D02*
X3367Y4538D01*
X3320Y4548D02*
X3338Y4567D01*
X3367Y4538D02*
X3422D01*
Y4622D01*
X2822Y4572D02*
X2923D01*
X2822Y4590D02*
X2923D01*
X2822Y4608D02*
X2923D01*
X3015Y4554D02*
X3060D01*
X3021Y4572D02*
X3060D01*
X3019Y4590D02*
X3042D01*
X3008Y4608D02*
X3037D01*
X2822Y4567D02*
Y4622D01*
X2738D02*
X2822D01*
X2929Y4787D02*
X3039Y4898D01*
X2963Y4615D02*
Y4765D01*
Y4626D02*
X3041D01*
X2963Y4644D02*
X3054D01*
X2963Y4765D02*
X3068Y4869D01*
X3100Y4572D02*
X3139D01*
X3100Y4554D02*
X3145D01*
X3118Y4590D02*
X3141D01*
X3215Y4554D02*
X3326D01*
X3221Y4572D02*
X3338D01*
X3219Y4590D02*
X3338D01*
X2963Y4680D02*
X3499D01*
X2963Y4662D02*
X3508D01*
X2963Y4698D02*
X3498D01*
X2963Y4716D02*
X3506D01*
X3123Y4608D02*
X3152D01*
X3338Y4567D02*
Y4622D01*
X3208Y4608D02*
X3338D01*
Y4622D02*
X3422D01*
X0Y4968D02*
X6275D01*
X0Y4986D02*
X6275D01*
X0Y5004D02*
X6275D01*
X0Y5022D02*
X6275D01*
X0Y5040D02*
X6275D01*
X0Y5058D02*
X6275D01*
X0Y5076D02*
X6275D01*
X0Y5094D02*
X6275D01*
X0Y5112D02*
X6275D01*
X0Y5130D02*
X6275D01*
X0Y5148D02*
X6275D01*
X0Y5166D02*
X6275D01*
X0Y5184D02*
X6275D01*
X0Y5202D02*
X6275D01*
X0Y5220D02*
X6275D01*
X0Y5238D02*
X6275D01*
X0Y5256D02*
X6275D01*
X0Y5274D02*
X6275D01*
X0Y5292D02*
X6275D01*
X0Y5310D02*
X6275D01*
X0Y5328D02*
X6275D01*
X0Y5346D02*
X6275D01*
X0Y5364D02*
X6275D01*
X0Y5382D02*
X6275D01*
X0Y5400D02*
X6275D01*
X0Y5418D02*
X6275D01*
X0Y5436D02*
X6275D01*
X0Y5454D02*
X6275D01*
X0Y5472D02*
X6275D01*
X0Y5490D02*
X6275D01*
X0Y5508D02*
X6275D01*
X0Y5526D02*
X6275D01*
X0Y5544D02*
X6275D01*
X0Y5562D02*
X6275D01*
X0Y5580D02*
X6275D01*
X0Y5598D02*
X6275D01*
X0Y5616D02*
X6275D01*
X0Y5634D02*
X6275D01*
X257Y5652D02*
X6275D01*
X0Y5958D02*
X6275D01*
X0Y5976D02*
X6275D01*
X0Y5994D02*
X6275D01*
X0Y6012D02*
X6275D01*
X0Y6030D02*
X6275D01*
X0Y6048D02*
X6275D01*
X0Y6066D02*
X6275D01*
X0Y6084D02*
X6275D01*
X0Y6102D02*
X6275D01*
X0Y6120D02*
X6275D01*
X0Y6138D02*
X6275D01*
X0Y6156D02*
X6275D01*
X0Y6570D02*
X6245D01*
X0Y6174D02*
X6275D01*
X0Y6552D02*
X6263D01*
X0Y6606D02*
X6209D01*
X0Y6588D02*
X6227D01*
X0Y6660D02*
X6155D01*
X0Y6624D02*
X6191D01*
X0Y6642D02*
X6173D01*
X0Y6192D02*
X6275D01*
X0Y6210D02*
X6275D01*
X0Y6228D02*
X6275D01*
X0Y6246D02*
X6275D01*
X0Y6264D02*
X6275D01*
X0Y6282D02*
X6275D01*
X0Y6300D02*
X6275D01*
X0Y6318D02*
X6275D01*
X0Y6336D02*
X6275D01*
X0Y6354D02*
X6275D01*
X0Y6372D02*
X6275D01*
X0Y6390D02*
X6275D01*
X0Y6408D02*
X6275D01*
X0Y6426D02*
X6275D01*
X0Y6444D02*
X6275D01*
X0Y6462D02*
X6275D01*
X0Y6480D02*
X6275D01*
X0Y6498D02*
X6275D01*
X0Y6516D02*
X6275D01*
X0Y6534D02*
X6275D01*
X3000Y4068D02*
X6275D01*
X3000Y4086D02*
X6275D01*
X3000Y4104D02*
X6275D01*
X3000Y4122D02*
X6275D01*
X3000Y4140D02*
X6275D01*
X3576Y4032D02*
X6275D01*
X3555Y4050D02*
X6275D01*
X3000Y4158D02*
X6275D01*
X3000Y4176D02*
X6275D01*
X3000Y4194D02*
X6275D01*
X3000Y4212D02*
X6275D01*
X3000Y4230D02*
X6275D01*
X3000Y4248D02*
X6275D01*
X3387Y4266D02*
X6275D01*
X3574Y4284D02*
X6275D01*
X3582Y4302D02*
X6275D01*
X3581Y4320D02*
X6275D01*
X3572Y4338D02*
X6275D01*
X3354Y4446D02*
X6275D01*
X3354Y4464D02*
X6275D01*
X3354Y4482D02*
X6275D01*
X3354Y4500D02*
X6275D01*
X3354Y4518D02*
X6275D01*
X3566Y4356D02*
X6275D01*
X3579Y4374D02*
X6275D01*
X3583Y4392D02*
X6275D01*
X3578Y4410D02*
X6275D01*
X3559Y4428D02*
X6275D01*
X3364Y4536D02*
X6275D01*
X3422Y4554D02*
X6275D01*
X3422Y4572D02*
X6275D01*
X3119Y4626D02*
X6275D01*
X3106Y4644D02*
X6275D01*
X3422Y4590D02*
X6275D01*
X3422Y4608D02*
X6275D01*
X3572Y4662D02*
X6275D01*
X3581Y4680D02*
X6275D01*
X3582Y4698D02*
X6275D01*
X2963Y4734D02*
X6275D01*
X2963Y4752D02*
X6275D01*
X2968Y4770D02*
X6275D01*
X2986Y4788D02*
X6275D01*
X3004Y4806D02*
X6275D01*
X3574Y4716D02*
X6275D01*
X3022Y4824D02*
X6275D01*
X3040Y4842D02*
X6275D01*
X3058Y4860D02*
X6275D01*
X3108Y4878D02*
X6275D01*
X300Y5670D02*
X6275D01*
X324Y5688D02*
X6275D01*
X340Y5706D02*
X6275D01*
X352Y5724D02*
X6275D01*
X361Y5742D02*
X6275D01*
X3120Y4896D02*
X6275D01*
X3122Y4914D02*
X6275D01*
X3116Y4932D02*
X6275D01*
X3095Y4950D02*
X6275D01*
X367Y5760D02*
X6275D01*
X356Y5868D02*
X6275D01*
X346Y5886D02*
X6275D01*
X332Y5904D02*
X6275D01*
X312Y5922D02*
X6275D01*
X280Y5940D02*
X6275D01*
X371Y5778D02*
X6275D01*
X372Y5796D02*
X6275D01*
X372Y5814D02*
X6275D01*
X369Y5832D02*
X6275D01*
X364Y5850D02*
X6275D01*
X6301Y6570D02*
X6420D01*
X6283Y6588D02*
X6420D01*
X6229Y6642D02*
X6370D01*
X6265Y6606D02*
X6406D01*
X6247Y6624D02*
X6388D01*
X6315Y6516D02*
X6420D01*
X6315Y6534D02*
X6420D01*
X6315Y6552D02*
X6420D01*
X0Y6696D02*
X6119D01*
X0Y6678D02*
X6137D01*
X0Y6732D02*
X6083D01*
X0Y6714D02*
X6101D01*
X0Y6768D02*
X6047D01*
X0Y6750D02*
X6065D01*
X0Y6822D02*
X5978D01*
X0Y6786D02*
X6001D01*
X0Y6804D02*
X5983D01*
X0Y6840D02*
X5982D01*
X0Y6858D02*
X5997D01*
X0Y6984D02*
X5978D01*
X0Y7002D02*
X5978D01*
X0Y7020D02*
X5978D01*
X0Y7038D02*
X5978D01*
X0Y7056D02*
X5978D01*
X0Y7362D02*
X7091D01*
X0Y7218D02*
X7118D01*
X0Y7344D02*
X7109D01*
X0Y6876D02*
X7189D01*
X0Y6894D02*
X7189D01*
X0Y6912D02*
X7189D01*
X0Y6930D02*
X7189D01*
X0Y6948D02*
X7189D01*
X0Y6966D02*
X7189D01*
X0Y7074D02*
X7241D01*
X0Y7128D02*
X7204D01*
X0Y7092D02*
X7240D01*
X0Y7110D02*
X7222D01*
X0Y7164D02*
X7168D01*
X0Y7146D02*
X7186D01*
X0Y7236D02*
X7118D01*
X0Y7182D02*
X7150D01*
X0Y7200D02*
X7132D01*
X0Y7254D02*
X7118D01*
X0Y7272D02*
X7118D01*
X0Y7290D02*
X7118D01*
X0Y7308D02*
X7118D01*
X0Y7326D02*
X7118D01*
X2243Y7632D02*
X3757D01*
X2204Y7614D02*
X3796D01*
X2293Y7686D02*
X3707D01*
X2266Y7650D02*
X3734D01*
X2282Y7668D02*
X3718D01*
X2302Y7704D02*
X3698D01*
X2311Y7740D02*
X3689D01*
X2308Y7722D02*
X3692D01*
X2295Y7830D02*
X3705D01*
X2285Y7848D02*
X3715D01*
X2270Y7866D02*
X3730D01*
X2249Y7884D02*
X3751D01*
X2216Y7902D02*
X3784D01*
X2312Y7758D02*
X3688D01*
X2312Y7776D02*
X3688D01*
X2309Y7794D02*
X3691D01*
X2303Y7812D02*
X3697D01*
X0Y7398D02*
X6923D01*
X0Y7380D02*
X6935D01*
X0Y7416D02*
X6920D01*
X0Y7434D02*
X6924D01*
X0Y7452D02*
X6939D01*
X0Y7488D02*
X6921D01*
X0Y7470D02*
X6926D01*
X0Y7542D02*
X6692D01*
X0Y7506D02*
X6733D01*
X0Y7524D02*
X6708D01*
X0Y7578D02*
X6677D01*
X0Y7560D02*
X6683D01*
X0Y7596D02*
X6675D01*
X0Y7920D02*
X10000D01*
X0Y7938D02*
X10000D01*
X0Y7956D02*
X10000D01*
X0Y7974D02*
X10000D01*
X0Y7992D02*
X10000D01*
X0Y8000D02*
X10000D01*
X6062Y6822D02*
X6181D01*
X6058Y6840D02*
X6187D01*
X6043Y6858D02*
X6213D01*
X6103Y6768D02*
X6244D01*
X6121Y6750D02*
X6262D01*
X6067Y6804D02*
X6185D01*
X6085Y6786D02*
X6202D01*
X5978Y6978D02*
Y7062D01*
Y6978D02*
X6062D01*
X5978Y7062D02*
X6062D01*
Y6984D02*
X6206D01*
X6062Y7002D02*
X6186D01*
X6062Y6978D02*
Y7062D01*
Y7020D02*
X6181D01*
X6062Y7038D02*
X6186D01*
X6062Y7056D02*
X6206D01*
X6032Y6783D02*
X6275Y6540D01*
X6193Y6678D02*
X6334D01*
X6139Y6732D02*
X6280D01*
X6175Y6696D02*
X6316D01*
X6157Y6714D02*
X6298D01*
X6211Y6660D02*
X6352D01*
X6229Y6782D02*
X6420Y6592D01*
X6300Y6768D02*
X7189D01*
X6282Y6786D02*
X7189D01*
X6264Y6804D02*
X7189D01*
X6060Y6812D02*
X6309Y6562D01*
X6253Y6840D02*
X7189D01*
X6227Y6858D02*
X7189D01*
X6234Y6984D02*
X7189D01*
X6234Y7056D02*
X7228D01*
X6258Y6811D02*
X6454Y6614D01*
X6259Y6822D02*
X7189D01*
X6254Y7002D02*
X7189D01*
X6259Y7020D02*
X7192D01*
X6254Y7038D02*
X7210D01*
X3923Y7632D02*
X6077D01*
X3884Y7614D02*
X6116D01*
X3973Y7686D02*
X6027D01*
X3946Y7650D02*
X6054D01*
X3962Y7668D02*
X6038D01*
X3982Y7704D02*
X6018D01*
X3991Y7740D02*
X6009D01*
X3988Y7722D02*
X6012D01*
X3965Y7848D02*
X6035D01*
X3950Y7866D02*
X6050D01*
X3929Y7884D02*
X6071D01*
X3896Y7902D02*
X6104D01*
X3992Y7758D02*
X6008D01*
X3992Y7776D02*
X6008D01*
X3989Y7794D02*
X6011D01*
X3983Y7812D02*
X6017D01*
X3975Y7830D02*
X6025D01*
X6204Y7614D02*
X6676D01*
X6243Y7632D02*
X6680D01*
X6266Y7650D02*
X6688D01*
X6282Y7668D02*
X6700D01*
X6293Y7686D02*
X6720D01*
X6302Y7704D02*
X6766D01*
X6311Y7740D02*
X7689D01*
X6308Y7722D02*
X7692D01*
X6312Y7758D02*
X7688D01*
X6270Y7866D02*
X7730D01*
X6249Y7884D02*
X7751D01*
X6216Y7902D02*
X7784D01*
X6312Y7776D02*
X7688D01*
X6309Y7794D02*
X7691D01*
X6303Y7812D02*
X7697D01*
X6295Y7830D02*
X7705D01*
X6285Y7848D02*
X7715D01*
X6320Y3380D02*
X6560D01*
X6328Y3340D02*
X6568D01*
X6393Y3420D02*
X6407D01*
X6385Y3402D02*
X6415D01*
X6560Y3380D02*
X6570Y3390D01*
X6394Y3438D02*
X6406D01*
X6485Y3402D02*
X6515D01*
X6493Y3420D02*
X6507D01*
X6315Y3493D02*
X6336Y3472D01*
X6494Y3438D02*
X6506D01*
X6386Y3456D02*
X6414D01*
X6492Y3444D02*
X6505Y3457D01*
X6511Y3471D02*
Y3709D01*
X6318Y3330D02*
X7130D01*
X6582Y3346D02*
X6614Y3378D01*
X6584Y3348D02*
X7130D01*
X6602Y3366D02*
X7130D01*
X6693Y3420D02*
X6707D01*
X6618Y3384D02*
X7130D01*
X6685Y3402D02*
X6715D01*
X6586Y3472D02*
X6610Y3496D01*
X6694Y3438D02*
X6706D01*
X6686Y3456D02*
X6714D01*
X6681Y3462D02*
X6719D01*
X6316Y3492D02*
X6471D01*
X6315Y3510D02*
X6471D01*
X6315Y3528D02*
X6471D01*
X6315Y3546D02*
X6471D01*
X6315Y3564D02*
X6471D01*
X6357Y3474D02*
X6443D01*
X6511D02*
X6543D01*
X6315Y3582D02*
X6471D01*
X6315Y3600D02*
X6471D01*
X6315Y3618D02*
X6471D01*
X6315Y3493D02*
Y3685D01*
Y3636D02*
X6471D01*
X6315Y3685D02*
X6395D01*
X6315Y3654D02*
X6471D01*
X6315Y3672D02*
X6471D01*
X6395Y3690D02*
X6430D01*
X6471Y3479D02*
Y3691D01*
X6395Y3726D02*
X6406D01*
X6511Y3690D02*
X6530D01*
X6395Y3708D02*
X6411D01*
X6511Y3492D02*
X6606D01*
X6511Y3510D02*
X7189D01*
X6511Y3528D02*
X7189D01*
X6511Y3546D02*
X7189D01*
X6511Y3564D02*
X7189D01*
X6557Y3474D02*
X6588D01*
X6624Y3502D02*
X6798D01*
X6511Y3582D02*
X7189D01*
X6511Y3600D02*
X7189D01*
X6511Y3618D02*
X7189D01*
X6511Y3636D02*
X7189D01*
X6511Y3654D02*
X7189D01*
X6511Y3672D02*
X7189D01*
X6570Y3690D02*
X6630D01*
X6670D02*
X6730D01*
X6589Y3708D02*
X6611D01*
X6770Y3690D02*
X6830D01*
X6689Y3708D02*
X6711D01*
X6785Y3402D02*
X6815D01*
X6885D02*
X6915D01*
X6985D02*
X7015D01*
X7143Y3272D02*
X7164Y3293D01*
X7085Y3402D02*
X7115D01*
X7115Y3300D02*
X7130Y3315D01*
Y3390D01*
X6793Y3420D02*
X6807D01*
X6893D02*
X6907D01*
X6993D02*
X7007D01*
X7093D02*
X7107D01*
X7120Y3222D02*
X7258D01*
X7140Y3240D02*
X7258D01*
X7145Y3258D02*
X7258D01*
X7147Y3276D02*
X7258D01*
X7165Y3294D02*
X7258D01*
Y3218D02*
Y3302D01*
X7170Y3307D02*
Y3390D01*
X7185Y3402D02*
X7215D01*
X7193Y3420D02*
X7207D01*
X7285Y3402D02*
X7315D01*
X7293Y3420D02*
X7307D01*
X6794Y3438D02*
X6806D01*
X6790Y3462D02*
X6808Y3444D01*
X6812Y3496D02*
X6836Y3472D01*
X6886Y3456D02*
X6914D01*
X6857Y3474D02*
X6943D01*
X6894Y3438D02*
X6906D01*
X6994D02*
X7006D01*
X6986Y3456D02*
X7014D01*
X7094Y3438D02*
X7106D01*
X6957Y3474D02*
X7043D01*
X6789Y3708D02*
X6811D01*
X6870Y3690D02*
X6930D01*
X6889Y3708D02*
X6911D01*
X6970Y3690D02*
X7030D01*
X6989Y3708D02*
X7011D01*
X7194Y3438D02*
X7206D01*
X7086Y3456D02*
X7114D01*
X7057Y3474D02*
X7143D01*
X7192Y3444D02*
X7223Y3475D01*
X7222Y3474D02*
X7243D01*
X7294Y3438D02*
X7306D01*
X7286Y3456D02*
X7314D01*
X6816Y3492D02*
X7184D01*
X7164Y3472D02*
X7189Y3497D01*
X7089Y3708D02*
X7111D01*
X7070Y3690D02*
X7130D01*
X7170D02*
X7189D01*
Y3497D02*
Y3709D01*
X7229Y3489D02*
Y3691D01*
X7289Y3708D02*
X7311D01*
X6395Y3685D02*
Y3775D01*
Y3744D02*
X6408D01*
X6370Y3775D02*
X6395D01*
Y3762D02*
X6419D01*
X6594Y3726D02*
X6606D01*
X6592Y3744D02*
X6608D01*
X6581Y3762D02*
X6619D01*
X6370Y3775D02*
Y3822D01*
Y3780D02*
X6471D01*
X6370Y3798D02*
X6471D01*
X6370Y3816D02*
X6471D01*
Y3769D02*
Y4471D01*
X6511Y3751D02*
Y4479D01*
X6694Y3726D02*
X6706D01*
X6794D02*
X6806D01*
X6692Y3744D02*
X6708D01*
X6792D02*
X6808D01*
X6681Y3762D02*
X6719D01*
X6894Y3726D02*
X6906D01*
X6994D02*
X7006D01*
X6892Y3744D02*
X6908D01*
X6992D02*
X7008D01*
X6781Y3762D02*
X6819D01*
X6511Y3780D02*
X7084D01*
X6511Y3798D02*
X7084D01*
X6511Y3816D02*
X7084D01*
X6881Y3762D02*
X6919D01*
X6981D02*
X7019D01*
X6382Y3888D02*
X6471D01*
X6315Y3906D02*
X6471D01*
X6315Y3924D02*
X6471D01*
X6315Y3942D02*
X6471D01*
X6384Y3834D02*
X6471D01*
X6392Y3852D02*
X6471D01*
X6391Y3870D02*
X6471D01*
X6511Y3852D02*
X6608D01*
X6511Y3870D02*
X6609D01*
X6315Y3960D02*
X6471D01*
X6315Y3978D02*
X6471D01*
X6315Y3996D02*
X6471D01*
X6315Y4014D02*
X6471D01*
X6315Y4032D02*
X6471D01*
X6315Y3884D02*
Y6548D01*
Y4050D02*
X6471D01*
X6315Y4068D02*
X6471D01*
X6315Y4086D02*
X6471D01*
X6315Y4104D02*
X6471D01*
X6511Y3834D02*
X6616D01*
X6684D02*
X7084D01*
X6511Y3888D02*
X6618D01*
X6511Y3906D02*
X7061D01*
X6511Y3924D02*
X7064D01*
X6692Y3852D02*
X7084D01*
X7061Y3879D02*
X7083Y3857D01*
X7061Y3879D02*
Y3921D01*
X6691Y3870D02*
X7070D01*
X6682Y3888D02*
X7061D01*
X6511Y3942D02*
X7082D01*
X6511Y3960D02*
X7084D01*
X6511Y3978D02*
X7081D01*
X6511Y3996D02*
X7080D01*
X6511Y4014D02*
X7080D01*
X6511Y4050D02*
X7061D01*
X6511Y4032D02*
X7072D01*
X6511Y4068D02*
X7059D01*
X6511Y4086D02*
X7065D01*
X6511Y4104D02*
X7092D01*
X7094Y3726D02*
X7106D01*
X7090Y3762D02*
X7108Y3744D01*
X7092Y3744D02*
X7108D01*
X7124Y3784D02*
X7136Y3772D01*
X7128Y3780D02*
X7189D01*
X7124Y3798D02*
X7189D01*
X7084Y3776D02*
Y3857D01*
X7124Y3784D02*
Y3857D01*
Y3816D02*
X7189D01*
X7124Y3834D02*
X7189D01*
X7124Y3852D02*
X7189D01*
X7125Y3857D02*
X7146Y3879D01*
X7189Y3751D02*
Y7009D01*
X7146Y3879D02*
Y3921D01*
X7138Y3870D02*
X7189D01*
X7146Y3888D02*
X7189D01*
X7229Y3780D02*
X7272D01*
X7264Y3772D02*
X7276Y3784D01*
X7294Y3726D02*
X7306D01*
X7292Y3744D02*
X7308D01*
X7292Y3744D02*
X7310Y3762D01*
X7229Y3798D02*
X7276D01*
X7229Y3816D02*
X7276D01*
X7229Y3870D02*
X7266D01*
X7229Y3834D02*
X7276D01*
X7229Y3852D02*
X7276D01*
X7229Y3769D02*
Y7001D01*
X7316Y3776D02*
Y3862D01*
X7229Y3888D02*
X7255D01*
X7276Y3784D02*
Y3862D01*
X7061Y3921D02*
X7083Y3943D01*
X7125D02*
X7146Y3921D01*
X7084Y3943D02*
Y3971D01*
X7126Y3942D02*
X7189D01*
X7146Y3906D02*
X7189D01*
X7144Y3924D02*
X7189D01*
X7124Y3943D02*
Y3979D01*
Y3960D02*
X7189D01*
X7124Y3978D02*
X7189D01*
X7080Y3983D02*
Y4027D01*
X7120Y3991D02*
Y4027D01*
Y3996D02*
X7189D01*
X7120Y4014D02*
X7189D01*
X7128Y4032D02*
X7189D01*
X7229Y3906D02*
X7254D01*
X7229Y3924D02*
X7261D01*
X7229Y3942D02*
X7276D01*
X7229Y3960D02*
X7276D01*
X7229Y3978D02*
X7276D01*
Y3938D02*
Y3979D01*
X7229Y3996D02*
X7280D01*
X7229Y4014D02*
X7280D01*
X7139Y4050D02*
X7189D01*
X7229Y4032D02*
X7272D01*
X7141Y4068D02*
X7189D01*
X7135Y4086D02*
X7189D01*
X7108Y4104D02*
X7189D01*
X7229Y4050D02*
X7261D01*
X7280Y3991D02*
Y4027D01*
X7229Y4068D02*
X7259D01*
X7229Y4086D02*
X7265D01*
X7229Y4104D02*
X7292D01*
X7877Y72D02*
X10000D01*
X7920Y90D02*
X10000D01*
X7944Y108D02*
X10000D01*
X7960Y126D02*
X10000D01*
X7972Y144D02*
X10000D01*
X7981Y162D02*
X10000D01*
X7987Y180D02*
X10000D01*
X7991Y198D02*
X10000D01*
X7977Y288D02*
X10000D01*
X7992Y216D02*
X10000D01*
X7992Y234D02*
X10000D01*
X8677Y2322D02*
X9724D01*
X7989Y252D02*
X10000D01*
X7984Y270D02*
X10000D01*
X7966Y306D02*
X10000D01*
X7952Y324D02*
X10000D01*
X7931Y342D02*
X10000D01*
X7900Y360D02*
X10000D01*
X8569Y2430D02*
X10000D01*
X8659Y2340D02*
X10000D01*
X8641Y2358D02*
X10000D01*
X8623Y2376D02*
X10000D01*
X8605Y2394D02*
X10000D01*
X8587Y2412D02*
X10000D01*
X8461Y2538D02*
X10000D01*
X8443Y2556D02*
X10000D01*
X8425Y2574D02*
X10000D01*
X8407Y2592D02*
X10000D01*
X8389Y2610D02*
X10000D01*
X8551Y2448D02*
X10000D01*
X8533Y2466D02*
X10000D01*
X8515Y2484D02*
X10000D01*
X8497Y2502D02*
X10000D01*
X8479Y2520D02*
X10000D01*
X8281Y2718D02*
X10000D01*
X8263Y2736D02*
X10000D01*
X8245Y2754D02*
X10000D01*
X8227Y2772D02*
X10000D01*
X8209Y2790D02*
X10000D01*
X8371Y2628D02*
X10000D01*
X8353Y2646D02*
X10000D01*
X8335Y2664D02*
X10000D01*
X8317Y2682D02*
X10000D01*
X8299Y2700D02*
X10000D01*
X7258Y3218D02*
X7342D01*
Y3222D02*
X7721D01*
X7342Y3240D02*
X7703D01*
X7342Y3258D02*
X7685D01*
X8191Y2808D02*
X10000D01*
X8173Y2826D02*
X10000D01*
X8155Y2844D02*
X10000D01*
X8137Y2862D02*
X10000D01*
X8119Y2880D02*
X10000D01*
X8011Y2988D02*
X10000D01*
X7993Y3006D02*
X10000D01*
X7975Y3024D02*
X10000D01*
X7957Y3042D02*
X10000D01*
X7939Y3060D02*
X10000D01*
X8101Y2898D02*
X10000D01*
X8083Y2916D02*
X10000D01*
X8065Y2934D02*
X10000D01*
X8047Y2952D02*
X10000D01*
X8029Y2970D02*
X10000D01*
X7831Y3168D02*
X10000D01*
X7813Y3186D02*
X10000D01*
X7795Y3204D02*
X10000D01*
X7777Y3222D02*
X10000D01*
X7759Y3240D02*
X10000D01*
X7921Y3078D02*
X10000D01*
X7903Y3096D02*
X10000D01*
X7885Y3114D02*
X10000D01*
X7867Y3132D02*
X10000D01*
X7849Y3150D02*
X10000D01*
X8947Y2052D02*
X8958D01*
X8971Y1980D02*
X9157D01*
X8929Y2070D02*
X8958D01*
X9042Y2020D02*
X9149D01*
X8971Y1980D02*
X9157D01*
X9149Y2020D02*
X9157Y2028D01*
X9042Y2034D02*
X9156D01*
X9042Y2052D02*
X9157D01*
X8958Y2041D02*
Y2082D01*
X8980D01*
X8911Y2088D02*
X8980D01*
X8893Y2106D02*
X8980D01*
X8875Y2124D02*
X8980D01*
X9042Y2020D02*
Y2082D01*
Y2070D02*
X9168D01*
X8980Y2082D02*
Y2187D01*
X9020Y2082D02*
X9042D01*
X9020D02*
Y2187D01*
X9157Y1980D02*
X10000D01*
X9183Y1998D02*
X10000D01*
X9171Y1986D02*
X9185Y2000D01*
X9231Y2016D02*
X10000D01*
X9237Y2052D02*
X9697D01*
X9238Y2034D02*
X9736D01*
X9824D02*
X10000D01*
X9020Y2106D02*
X9647D01*
X9226Y2070D02*
X9674D01*
X9020Y2088D02*
X9658D01*
X9863Y2052D02*
X10000D01*
X9886Y2070D02*
X10000D01*
X9902Y2088D02*
X10000D01*
X9913Y2106D02*
X10000D01*
X8857Y2142D02*
X8980D01*
X8839Y2160D02*
X8980D01*
X8785Y2214D02*
X8962D01*
X8821Y2178D02*
X8980D01*
X8803Y2196D02*
X8970D01*
X9020Y2160D02*
X9629D01*
X9020Y2142D02*
X9632D01*
X9030Y2196D02*
X9170D01*
X9020Y2178D02*
X9628D01*
X9230Y2196D02*
X9628D01*
X8767Y2232D02*
X8963D01*
X8749Y2250D02*
X8976D01*
X9024D02*
X9176D01*
X9038Y2214D02*
X9162D01*
X9037Y2232D02*
X9163D01*
X9238Y2214D02*
X9631D01*
X9237Y2232D02*
X9637D01*
X9020Y2124D02*
X9638D01*
X9922D02*
X10000D01*
X9923Y2232D02*
X10000D01*
X9928Y2142D02*
X10000D01*
X9931Y2160D02*
X10000D01*
X9932Y2178D02*
X10000D01*
X9932Y2196D02*
X10000D01*
X9929Y2214D02*
X10000D01*
X9224Y2250D02*
X9645D01*
X8731Y2268D02*
X9655D01*
X8713Y2286D02*
X9670D01*
X8695Y2304D02*
X9691D01*
X9915Y2250D02*
X10000D01*
X9905Y2268D02*
X10000D01*
X9890Y2286D02*
X10000D01*
X9869Y2304D02*
X10000D01*
X9836Y2322D02*
X10000D01*
X7342Y3218D02*
Y3302D01*
X7258D02*
X7342D01*
X7170Y3348D02*
X7575D01*
X7170Y3366D02*
X7575D01*
X7385Y3402D02*
X7415D01*
X7485D02*
X7515D01*
X7393Y3420D02*
X7407D01*
X7493D02*
X7507D01*
X7394Y3438D02*
X7406D01*
X7386Y3456D02*
X7414D01*
X7257Y3474D02*
X7343D01*
X7357D02*
X7443D01*
X7494Y3438D02*
X7506D01*
X7486Y3456D02*
X7514D01*
X7457Y3474D02*
X7543D01*
X7170Y3330D02*
X7584D01*
X7170Y3312D02*
X7631D01*
X7170Y3384D02*
X7584D01*
X7229Y3492D02*
X10000D01*
X7229Y3510D02*
X10000D01*
X7342Y3294D02*
X7649D01*
X7342Y3276D02*
X7667D01*
X7557Y3474D02*
X7643D01*
X7229Y3528D02*
X10000D01*
X7229Y3546D02*
X10000D01*
X7229Y3564D02*
X10000D01*
X7229Y3582D02*
X10000D01*
X7229Y3600D02*
X10000D01*
X7229Y3618D02*
X10000D01*
X7229Y3636D02*
X10000D01*
X7229Y3654D02*
X10000D01*
X7229Y3672D02*
X10000D01*
X7270Y3690D02*
X7330D01*
X7370D02*
X7430D01*
X7392Y3744D02*
X7408D01*
X7389Y3708D02*
X7411D01*
X7381Y3762D02*
X7419D01*
X7489Y3708D02*
X7511D01*
X7470Y3690D02*
X7530D01*
X7394Y3726D02*
X7406D01*
X7494D02*
X7506D01*
X7492Y3744D02*
X7508D01*
X7316Y3938D02*
Y3971D01*
X7481Y3762D02*
X7519D01*
X7578Y3878D02*
Y3962D01*
X7320Y3983D02*
Y4027D01*
X7316Y3780D02*
X7780D01*
X7316Y3798D02*
X7780D01*
X7316Y3816D02*
X7780D01*
X7316Y3834D02*
X7790D01*
X7316Y3852D02*
X7797D01*
X7570Y3690D02*
X7630D01*
X7326Y3870D02*
X7797D01*
X7337Y3888D02*
X7578D01*
Y3878D02*
X7662D01*
X7338Y3906D02*
X7578D01*
X7316Y3942D02*
X7578D01*
X7316Y3960D02*
X7578D01*
X7319Y3978D02*
X10000D01*
X7320Y3996D02*
X10000D01*
X7320Y4014D02*
X10000D01*
X7331Y3924D02*
X7578D01*
X7328Y4032D02*
X10000D01*
X7339Y4050D02*
X10000D01*
X7341Y4068D02*
X10000D01*
X7335Y4086D02*
X10000D01*
X7585Y3402D02*
X7615D01*
X7593Y3420D02*
X7607D01*
X7594Y3438D02*
X7606D01*
X7586Y3456D02*
X7614D01*
X7693Y3420D02*
X7759D01*
X7685Y3402D02*
X7768D01*
X7694Y3438D02*
X7758D01*
X7594Y3726D02*
X7606D01*
X7670Y3690D02*
X7785D01*
X7589Y3708D02*
X7611D01*
X7686Y3456D02*
X7766D01*
X7694Y3726D02*
X7758D01*
X7689Y3708D02*
X7764D01*
X7624Y3318D02*
X8957Y1986D01*
X7653Y3347D02*
X8958Y2041D01*
X7653Y3348D02*
X10000D01*
X7653Y3366D02*
X10000D01*
X7644Y3384D02*
X10000D01*
X7741Y3258D02*
X10000D01*
X7723Y3276D02*
X10000D01*
X7705Y3294D02*
X10000D01*
X7687Y3312D02*
X10000D01*
X7669Y3330D02*
X10000D01*
X7832Y3402D02*
X10000D01*
X7834Y3456D02*
X10000D01*
X7657Y3474D02*
X10000D01*
X7815Y3690D02*
X10000D01*
Y0D02*
Y8000D01*
X7841Y3420D02*
X10000D01*
X7842Y3438D02*
X10000D01*
X7836Y3708D02*
X10000D01*
X7842Y3726D02*
X10000D01*
X7592Y3744D02*
X7608D01*
X7692D02*
X7760D01*
X7581Y3762D02*
X7619D01*
X7681D02*
X7772D01*
X7662Y3888D02*
X7790D01*
X7780Y3768D02*
Y3816D01*
X7786Y3830D02*
X7797Y3841D01*
Y3884D01*
X7578Y3962D02*
X7662D01*
Y3878D02*
Y3962D01*
Y3906D02*
X7778D01*
X7662Y3924D02*
X7775D01*
X7662Y3942D02*
X7782D01*
X7662Y3960D02*
X7806D01*
X7820Y3768D02*
Y3808D01*
X7828Y3762D02*
X10000D01*
X7820Y3808D02*
X7831Y3819D01*
X7820Y3780D02*
X10000D01*
X7820Y3798D02*
X10000D01*
X7840Y3744D02*
X10000D01*
X7828Y3816D02*
X10000D01*
X7837Y3834D02*
X10000D01*
X7837Y3833D02*
Y3884D01*
Y3852D02*
X10000D01*
X7837Y3870D02*
X10000D01*
X7828Y3960D02*
X10000D01*
X7843Y3888D02*
X10000D01*
X7856Y3906D02*
X10000D01*
X7858Y3924D02*
X10000D01*
X7852Y3942D02*
X10000D01*
X6315Y4122D02*
X6471D01*
X6315Y4140D02*
X6471D01*
X6315Y4158D02*
X6471D01*
X6315Y4176D02*
X6471D01*
X6315Y4194D02*
X6471D01*
X6315Y4212D02*
X6471D01*
X6315Y4518D02*
X6424D01*
X6315Y4482D02*
X6460D01*
X6315Y4500D02*
X6442D01*
X6315Y4536D02*
X6420D01*
X6315Y4554D02*
X6420D01*
X6315Y4572D02*
X6420D01*
X6315Y4590D02*
X6420D01*
X6315Y4608D02*
X6420D01*
X6315Y4626D02*
X6420D01*
X6315Y4644D02*
X6420D01*
X6315Y4662D02*
X6420D01*
X6315Y4230D02*
X6471D01*
X6315Y4248D02*
X6471D01*
X6315Y4266D02*
X6471D01*
X6315Y4284D02*
X6471D01*
X6315Y4302D02*
X6471D01*
X6315Y4320D02*
X6471D01*
X6315Y4338D02*
X6471D01*
X6315Y4356D02*
X6471D01*
X6315Y4374D02*
X6471D01*
X6315Y4392D02*
X6471D01*
X6315Y4410D02*
X6471D01*
X6315Y4428D02*
X6471D01*
X6315Y4446D02*
X6471D01*
X6315Y4464D02*
X6471D01*
X6426Y4516D02*
X6471Y4471D01*
X6460Y4538D02*
X6505Y4493D01*
X6460Y4554D02*
X7189D01*
X6460Y4572D02*
X7189D01*
X6460Y4590D02*
X7189D01*
X6460Y4608D02*
X7189D01*
X6315Y4680D02*
X6420D01*
X6315Y4698D02*
X6420D01*
X6315Y4716D02*
X6420D01*
X6315Y4734D02*
X6420D01*
X6315Y4752D02*
X6420D01*
X6315Y4770D02*
X6420D01*
X6315Y4788D02*
X6420D01*
X6315Y4806D02*
X6420D01*
X6315Y4824D02*
X6420D01*
X6315Y4842D02*
X6420D01*
X6315Y4860D02*
X6420D01*
X6315Y4878D02*
X6420D01*
X6315Y4896D02*
X6420D01*
X6315Y4914D02*
X6420D01*
X6315Y4932D02*
X6420D01*
X6315Y4950D02*
X6420D01*
X6315Y4968D02*
X6420D01*
X6315Y4986D02*
X6420D01*
X6315Y5004D02*
X6420D01*
X6315Y5022D02*
X6420D01*
X6315Y5040D02*
X6420D01*
X6315Y5058D02*
X6420D01*
X6315Y5076D02*
X6420D01*
X6315Y5094D02*
X6420D01*
X6315Y5112D02*
X6420D01*
X6315Y5130D02*
X6420D01*
X6315Y5148D02*
X6420D01*
X6315Y5166D02*
X6420D01*
X6315Y5184D02*
X6420D01*
X6315Y5202D02*
X6420D01*
X6315Y5220D02*
X6420D01*
X6315Y5238D02*
X6420D01*
X6315Y5256D02*
X6420D01*
X6315Y5274D02*
X6420D01*
X6315Y5292D02*
X6420D01*
X6315Y5310D02*
X6420D01*
X6315Y5328D02*
X6420D01*
X6315Y5346D02*
X6420D01*
X6315Y5364D02*
X6420D01*
X6315Y5382D02*
X6420D01*
X6511Y4122D02*
X7189D01*
X6511Y4140D02*
X7189D01*
X6511Y4158D02*
X7189D01*
X6511Y4176D02*
X7189D01*
X6511Y4194D02*
X7189D01*
X7058Y4218D02*
X7142D01*
X6511Y4212D02*
X7189D01*
X6511Y4230D02*
X7058D01*
X6511Y4248D02*
X7058D01*
Y4218D02*
Y4302D01*
X6511Y4266D02*
X7058D01*
X6511Y4284D02*
X7058D01*
X7142Y4218D02*
Y4302D01*
X7058D02*
X7142D01*
X6511Y4302D02*
X7189D01*
X6511Y4320D02*
X7189D01*
X6511Y4338D02*
X7189D01*
X6511Y4356D02*
X7189D01*
X6511Y4374D02*
X7189D01*
X7142Y4230D02*
X7189D01*
X7142Y4248D02*
X7189D01*
X7142Y4266D02*
X7189D01*
X7142Y4284D02*
X7189D01*
X6511Y4392D02*
X7189D01*
X6498Y4500D02*
X7189D01*
X6480Y4518D02*
X7189D01*
X6462Y4536D02*
X7189D01*
X6460Y4626D02*
X7189D01*
X6460Y4644D02*
X7189D01*
X6511Y4410D02*
X7189D01*
X6511Y4428D02*
X7189D01*
X6511Y4446D02*
X7189D01*
X6511Y4464D02*
X7189D01*
X6511Y4482D02*
X7189D01*
X6460Y4662D02*
X7189D01*
X6460Y4680D02*
X7189D01*
X6460Y4698D02*
X7189D01*
X6460Y4716D02*
X7189D01*
X6460Y4734D02*
X7189D01*
X6460Y4752D02*
X7189D01*
X6460Y4770D02*
X7189D01*
X6460Y4788D02*
X7189D01*
X6460Y4806D02*
X7189D01*
X6460Y4824D02*
X7189D01*
X6460Y4842D02*
X7189D01*
X6460Y4860D02*
X7189D01*
X6460Y4878D02*
X7189D01*
X6460Y4896D02*
X7189D01*
X6460Y4914D02*
X7189D01*
X6460Y4932D02*
X7189D01*
X6460Y4950D02*
X7189D01*
X6460Y4968D02*
X7189D01*
X6460Y4986D02*
X7189D01*
X6460Y5004D02*
X7189D01*
X6460Y5022D02*
X7189D01*
X6460Y5040D02*
X7189D01*
X6460Y5058D02*
X7189D01*
X6460Y5076D02*
X7189D01*
X6460Y5094D02*
X7189D01*
X6460Y5112D02*
X7189D01*
X6460Y5130D02*
X7189D01*
X6460Y5148D02*
X7189D01*
X6460Y5166D02*
X7189D01*
X6460Y5184D02*
X7189D01*
X6460Y5202D02*
X7189D01*
X6460Y5220D02*
X7189D01*
X6460Y5238D02*
X7189D01*
X6460Y5256D02*
X7189D01*
X6460Y5274D02*
X7189D01*
X6460Y5292D02*
X7189D01*
X6460Y5310D02*
X7189D01*
X6460Y5328D02*
X7189D01*
X6460Y5346D02*
X7189D01*
X6460Y5364D02*
X7189D01*
X6315Y5400D02*
X6420D01*
X6315Y5418D02*
X6420D01*
X6315Y5436D02*
X6420D01*
X6315Y5454D02*
X6420D01*
X6315Y5472D02*
X6420D01*
X6315Y5490D02*
X6420D01*
X6315Y5508D02*
X6420D01*
X6315Y5526D02*
X6420D01*
X6315Y5544D02*
X6420D01*
X6315Y5562D02*
X6420D01*
X6315Y5580D02*
X6420D01*
X6315Y5598D02*
X6420D01*
X6315Y5616D02*
X6420D01*
X6315Y5634D02*
X6420D01*
Y4530D02*
Y6592D01*
X6315Y5652D02*
X6420D01*
X6315Y5670D02*
X6420D01*
X6315Y5688D02*
X6420D01*
X6315Y5706D02*
X6420D01*
X6460Y5382D02*
X7189D01*
X6460Y5400D02*
X7189D01*
X6460Y5418D02*
X7189D01*
X6460Y5436D02*
X7189D01*
X6460Y5454D02*
X7189D01*
X6460Y5472D02*
X7189D01*
X6460Y5490D02*
X7189D01*
X6460Y5508D02*
X7189D01*
X6460Y5526D02*
X7189D01*
X6460Y5544D02*
X7189D01*
X6315Y5724D02*
X6420D01*
X6315Y5742D02*
X6420D01*
X6315Y5760D02*
X6420D01*
X6315Y5778D02*
X6420D01*
X6315Y5796D02*
X6420D01*
X6460Y5562D02*
X7189D01*
X6460Y5580D02*
X7189D01*
X6315Y5814D02*
X6420D01*
X6460Y5598D02*
X7189D01*
X6460Y5616D02*
X7189D01*
X6315Y5832D02*
X6420D01*
X6315Y5850D02*
X6420D01*
X6315Y5868D02*
X6420D01*
X6315Y5886D02*
X6420D01*
X6315Y5904D02*
X6420D01*
X6315Y5922D02*
X6420D01*
X6315Y5940D02*
X6420D01*
X6315Y5958D02*
X6420D01*
X6315Y5976D02*
X6420D01*
X6315Y5994D02*
X6420D01*
X6315Y6012D02*
X6420D01*
X6315Y6030D02*
X6420D01*
X6315Y6048D02*
X6420D01*
X6315Y6066D02*
X6420D01*
X6315Y6084D02*
X6420D01*
X6315Y6102D02*
X6420D01*
X6315Y6120D02*
X6420D01*
X6315Y6138D02*
X6420D01*
X6315Y6156D02*
X6420D01*
X6315Y6174D02*
X6420D01*
X6315Y6192D02*
X6420D01*
X6315Y6210D02*
X6420D01*
X6315Y6228D02*
X6420D01*
X6315Y6246D02*
X6420D01*
X6315Y6264D02*
X6420D01*
X6315Y6282D02*
X6420D01*
X6315Y6300D02*
X6420D01*
X6315Y6318D02*
X6420D01*
X6315Y6336D02*
X6420D01*
X6315Y6354D02*
X6420D01*
X6315Y6372D02*
X6420D01*
X6315Y6390D02*
X6420D01*
X6315Y6408D02*
X6420D01*
X6315Y6426D02*
X6420D01*
X6315Y6444D02*
X6420D01*
X6315Y6462D02*
X6420D01*
X6315Y6480D02*
X6420D01*
X6315Y6498D02*
X6420D01*
X6460Y5634D02*
X7189D01*
X6460Y5652D02*
X7189D01*
X6460Y5670D02*
X7189D01*
X6460Y5688D02*
X7189D01*
X6460Y5706D02*
X7189D01*
X6460Y5724D02*
X7189D01*
X6460Y5742D02*
X7189D01*
X6460Y5760D02*
X7189D01*
X6460Y5778D02*
X7189D01*
X6460Y5796D02*
X7189D01*
X6460Y5814D02*
X7189D01*
X6460Y5832D02*
X7189D01*
X6460Y5850D02*
X7189D01*
X6460Y5868D02*
X7189D01*
X6460Y5886D02*
X7189D01*
X6460Y4538D02*
Y6600D01*
Y5904D02*
X7189D01*
X6460Y5922D02*
X7189D01*
X6460Y5940D02*
X7189D01*
X6460Y5958D02*
X7189D01*
X6460Y5976D02*
X7189D01*
X6460Y5994D02*
X7189D01*
X6460Y6012D02*
X7189D01*
X6460Y6030D02*
X7189D01*
X6460Y6048D02*
X7189D01*
X6460Y6066D02*
X7189D01*
X6460Y6084D02*
X7189D01*
X6460Y6102D02*
X7189D01*
X6460Y6120D02*
X7189D01*
X6460Y6138D02*
X7189D01*
X6460Y6156D02*
X7189D01*
X6460Y6174D02*
X7189D01*
X6460Y6192D02*
X7189D01*
X6460Y6210D02*
X7189D01*
X6460Y6228D02*
X7189D01*
X6460Y6246D02*
X7189D01*
X6460Y6264D02*
X7189D01*
X6460Y6282D02*
X7189D01*
X6460Y6300D02*
X7189D01*
X6460Y6318D02*
X7189D01*
X7000Y7380D02*
X7034D01*
X6997Y7452D02*
X7037D01*
X7009Y7470D02*
X7025D01*
X7011Y7434D02*
X7023D01*
X6827Y7506D02*
X6922D01*
X6852Y7524D02*
X6932D01*
X7004D02*
X7030D01*
X6460Y6336D02*
X7189D01*
X6460Y6354D02*
X7189D01*
X7083Y7370D02*
X7118Y7335D01*
X6460Y6372D02*
X7189D01*
X7118Y7222D02*
Y7335D01*
X7158Y7230D02*
Y7343D01*
X6877Y7560D02*
X7157D01*
X6868Y7542D02*
X7166D01*
X6880Y7632D02*
X7154D01*
X6872Y7650D02*
X7162D01*
X6860Y7668D02*
X7174D01*
X7111Y7398D02*
X7152Y7357D01*
X7102Y7524D02*
X7182D01*
X6885Y7596D02*
X7149D01*
X6883Y7578D02*
X7151D01*
X6884Y7614D02*
X7150D01*
X7229Y4122D02*
X10000D01*
X7229Y4140D02*
X10000D01*
X7229Y4158D02*
X10000D01*
X7229Y4176D02*
X10000D01*
X7229Y4194D02*
X10000D01*
X7229Y4212D02*
X10000D01*
X7229Y4230D02*
X7258D01*
X7229Y4248D02*
X7258D01*
X7229Y4266D02*
X7258D01*
X7229Y4284D02*
X7258D01*
X7229Y4302D02*
X10000D01*
X7229Y4320D02*
X10000D01*
X7229Y4338D02*
X10000D01*
X7229Y4356D02*
X10000D01*
X7229Y4374D02*
X10000D01*
X7229Y4392D02*
X10000D01*
X7229Y4410D02*
X10000D01*
X7229Y4428D02*
X10000D01*
X7229Y4446D02*
X10000D01*
X7229Y4464D02*
X10000D01*
X7229Y4482D02*
X10000D01*
X7229Y4500D02*
X10000D01*
X7229Y4518D02*
X10000D01*
X7229Y4536D02*
X10000D01*
X7229Y4554D02*
X10000D01*
X7229Y4572D02*
X10000D01*
X7229Y4590D02*
X10000D01*
X7229Y4608D02*
X10000D01*
X7229Y4626D02*
X10000D01*
X7229Y4644D02*
X10000D01*
X7229Y4662D02*
X10000D01*
X7229Y4680D02*
X10000D01*
X7229Y4698D02*
X10000D01*
X7229Y4716D02*
X10000D01*
X7229Y4734D02*
X10000D01*
X7229Y4752D02*
X10000D01*
X7229Y4770D02*
X10000D01*
X7229Y4788D02*
X10000D01*
X7229Y4806D02*
X10000D01*
X7229Y4824D02*
X10000D01*
X7229Y4842D02*
X10000D01*
X7229Y4860D02*
X10000D01*
X7229Y4878D02*
X10000D01*
X7229Y4896D02*
X10000D01*
X7229Y4914D02*
X10000D01*
X7229Y4932D02*
X10000D01*
X7229Y4950D02*
X10000D01*
X7229Y4968D02*
X10000D01*
X7229Y4986D02*
X10000D01*
X7229Y5004D02*
X10000D01*
X7229Y5022D02*
X10000D01*
X7229Y5040D02*
X10000D01*
X7229Y5058D02*
X10000D01*
X7229Y5076D02*
X10000D01*
X7229Y5166D02*
X7463D01*
X7229Y5148D02*
X7476D01*
X7229Y5184D02*
X7460D01*
X7229Y5202D02*
X7467D01*
X7229Y5220D02*
X7500D01*
X7229Y5094D02*
X10000D01*
X7229Y5112D02*
X10000D01*
X7229Y5130D02*
X10000D01*
X7229Y5238D02*
X10000D01*
X7229Y5256D02*
X10000D01*
X7229Y5274D02*
X10000D01*
X7229Y5292D02*
X10000D01*
X7229Y5310D02*
X10000D01*
X7229Y5328D02*
X10000D01*
X7229Y5346D02*
X10000D01*
X7229Y5364D02*
X10000D01*
X7229Y5382D02*
X10000D01*
X7229Y5400D02*
X10000D01*
X7229Y5418D02*
X10000D01*
X7229Y5436D02*
X10000D01*
X7229Y5454D02*
X10000D01*
X7229Y5472D02*
X10000D01*
X7229Y5490D02*
X10000D01*
X7229Y5508D02*
X10000D01*
X7229Y5526D02*
X10000D01*
X7258Y4218D02*
Y4302D01*
Y4218D02*
X7342D01*
X7258Y4302D02*
X7342D01*
Y4218D02*
Y4302D01*
X7524Y5148D02*
X7816D01*
X7535Y5160D02*
X7805D01*
X7500Y5220D02*
X7840D01*
X7229Y5688D02*
X9677D01*
X7229Y5652D02*
X9743D01*
X7229Y5670D02*
X9700D01*
X7535Y5200D02*
X7805D01*
X7533Y5202D02*
X7807D01*
X7308Y4104D02*
X10000D01*
X7342Y4230D02*
X10000D01*
X7342Y4248D02*
X10000D01*
X7342Y4266D02*
X10000D01*
X7342Y4284D02*
X10000D01*
X7864Y5148D02*
X10000D01*
X7877Y5166D02*
X10000D01*
X7880Y5184D02*
X10000D01*
X7873Y5202D02*
X10000D01*
X7840Y5220D02*
X10000D01*
X7229Y5544D02*
X10000D01*
X7229Y5562D02*
X10000D01*
X7229Y5580D02*
X10000D01*
X7229Y5598D02*
X10000D01*
X7229Y5616D02*
X10000D01*
X7229Y5634D02*
X10000D01*
X9817Y5652D02*
X10000D01*
X9860Y5670D02*
X10000D01*
X9884Y5688D02*
X10000D01*
X7229Y5724D02*
X9648D01*
X7229Y5706D02*
X9660D01*
X7229Y5778D02*
X9629D01*
X7229Y5742D02*
X9639D01*
X7229Y5760D02*
X9633D01*
X9900Y5706D02*
X10000D01*
X9912Y5724D02*
X10000D01*
X7229Y5796D02*
X9628D01*
X9921Y5742D02*
X10000D01*
X7229Y5814D02*
X9628D01*
X7229Y5832D02*
X9631D01*
X7229Y5850D02*
X9636D01*
X7229Y5868D02*
X9644D01*
X7229Y5886D02*
X9654D01*
X7229Y5904D02*
X9668D01*
X7229Y5922D02*
X9689D01*
X7229Y5940D02*
X9720D01*
X9924Y5850D02*
X10000D01*
X9917Y5868D02*
X10000D01*
X9906Y5886D02*
X10000D01*
X9892Y5904D02*
X10000D01*
X9872Y5922D02*
X10000D01*
X9927Y5760D02*
X10000D01*
X9931Y5778D02*
X10000D01*
X9932Y5796D02*
X10000D01*
X9932Y5814D02*
X10000D01*
X9929Y5832D02*
X10000D01*
X7229Y5958D02*
X10000D01*
X7229Y5976D02*
X10000D01*
X7229Y5994D02*
X10000D01*
X7229Y6012D02*
X10000D01*
X7229Y6030D02*
X10000D01*
X9840Y5940D02*
X10000D01*
X7229Y6048D02*
X10000D01*
X7229Y6066D02*
X10000D01*
X7229Y6084D02*
X10000D01*
X7229Y6102D02*
X10000D01*
X7229Y6120D02*
X10000D01*
X7229Y6138D02*
X10000D01*
X6460Y6390D02*
X7189D01*
X6460Y6408D02*
X7189D01*
X7229Y6156D02*
X10000D01*
X7229Y6174D02*
X10000D01*
X7229Y6192D02*
X10000D01*
X7229Y6210D02*
X10000D01*
X7229Y6228D02*
X10000D01*
X6460Y6426D02*
X7189D01*
X6460Y6444D02*
X7189D01*
X6460Y6462D02*
X7189D01*
X6460Y6480D02*
X7189D01*
X6460Y6498D02*
X7189D01*
X6460Y6516D02*
X7189D01*
X6460Y6534D02*
X7189D01*
X6460Y6552D02*
X7189D01*
X6460Y6570D02*
X7189D01*
X6460Y6588D02*
X7189D01*
X7229Y6246D02*
X10000D01*
X7229Y6264D02*
X10000D01*
X7229Y6282D02*
X10000D01*
X7229Y6300D02*
X10000D01*
X7229Y6318D02*
X10000D01*
X7229Y6336D02*
X10000D01*
X7229Y6354D02*
X10000D01*
X7229Y6372D02*
X10000D01*
X7229Y6390D02*
X10000D01*
X7229Y6408D02*
X10000D01*
X7229Y6426D02*
X10000D01*
X7229Y6444D02*
X10000D01*
X7229Y6462D02*
X10000D01*
X7229Y6480D02*
X10000D01*
X7229Y6498D02*
X10000D01*
X7229Y6516D02*
X10000D01*
X7229Y6534D02*
X10000D01*
X7229Y6552D02*
X10000D01*
X7229Y6570D02*
X10000D01*
X7229Y6588D02*
X10000D01*
X6390Y6678D02*
X7189D01*
X6372Y6696D02*
X7189D01*
X6354Y6714D02*
X7189D01*
X6336Y6732D02*
X7189D01*
X6318Y6750D02*
X7189D01*
X6459Y6606D02*
X7189D01*
X7229D02*
X10000D01*
X6444Y6624D02*
X7189D01*
X6426Y6642D02*
X7189D01*
X6408Y6660D02*
X7189D01*
X7124Y7208D02*
X7241Y7090D01*
X6840Y7686D02*
X7194D01*
X7112Y7506D02*
X7207D01*
X6794Y7704D02*
X7240D01*
X7195Y7023D02*
X7241Y7070D01*
X7158Y7230D02*
X7270Y7119D01*
X7158Y7236D02*
X10000D01*
X7158Y7254D02*
X10000D01*
X7158Y7272D02*
X10000D01*
X7158Y7290D02*
X10000D01*
X7158Y7308D02*
X10000D01*
X7229Y6624D02*
X10000D01*
X7224Y7164D02*
X10000D01*
X7206Y7182D02*
X10000D01*
X7188Y7200D02*
X10000D01*
X7170Y7218D02*
X10000D01*
X7111Y7398D02*
X10000D01*
X7114Y7416D02*
X10000D01*
X7110Y7434D02*
X10000D01*
X7095Y7452D02*
X10000D01*
X7108Y7470D02*
X10000D01*
X7158Y7326D02*
X10000D01*
X7158Y7344D02*
X10000D01*
X7147Y7362D02*
X10000D01*
X7129Y7380D02*
X10000D01*
X7113Y7488D02*
X10000D01*
X7229Y6642D02*
X10000D01*
X7229Y6660D02*
X10000D01*
X7229Y6678D02*
X10000D01*
X7229Y6696D02*
X10000D01*
X7229Y6714D02*
X10000D01*
X7229Y6732D02*
X10000D01*
X7229Y6750D02*
X10000D01*
X7229Y7001D02*
X7270Y7041D01*
X7319D01*
Y7056D02*
X7350D01*
X7241Y7070D02*
Y7090D01*
X7319Y7041D02*
Y7119D01*
Y7074D02*
X7342D01*
X7319Y7092D02*
X7343D01*
X7319Y7110D02*
X7356D01*
X7229Y6768D02*
X10000D01*
X7229Y6786D02*
X10000D01*
X7229Y6804D02*
X10000D01*
X7229Y6822D02*
X10000D01*
X7229Y6840D02*
X10000D01*
X7229Y6858D02*
X10000D01*
X7229Y6876D02*
X10000D01*
X7229Y6894D02*
X10000D01*
X7229Y6912D02*
X10000D01*
X7229Y6930D02*
X10000D01*
X7229Y6948D02*
X10000D01*
X7229Y6966D02*
X10000D01*
X7229Y6984D02*
X10000D01*
X7230Y7002D02*
X10000D01*
X7248Y7020D02*
X10000D01*
X7266Y7038D02*
X10000D01*
X7410Y7056D02*
X10000D01*
X7418Y7074D02*
X10000D01*
X7417Y7092D02*
X10000D01*
X7404Y7110D02*
X10000D01*
X7270Y7119D02*
X7319D01*
X7260Y7128D02*
X10000D01*
X7242Y7146D02*
X10000D01*
X7301Y7506D02*
X10000D01*
X7326Y7524D02*
X10000D01*
X7354Y7632D02*
X7757D01*
X7342Y7542D02*
X10000D01*
X7358Y7614D02*
X7796D01*
X7346Y7650D02*
X7734D01*
X7268Y7704D02*
X7698D01*
X7334Y7668D02*
X7718D01*
X7314Y7686D02*
X7707D01*
X7351Y7560D02*
X10000D01*
X7357Y7578D02*
X10000D01*
X7359Y7596D02*
X10000D01*
X7884Y7614D02*
X10000D01*
X7923Y7632D02*
X10000D01*
X7946Y7650D02*
X10000D01*
X7962Y7668D02*
X10000D01*
X7973Y7686D02*
X10000D01*
X7982Y7704D02*
X10000D01*
X7988Y7722D02*
X10000D01*
X7975Y7830D02*
X10000D01*
X7965Y7848D02*
X10000D01*
X7950Y7866D02*
X10000D01*
X7929Y7884D02*
X10000D01*
X7896Y7902D02*
X10000D01*
X7991Y7740D02*
X10000D01*
X7992Y7758D02*
X10000D01*
X7992Y7776D02*
X10000D01*
X7989Y7794D02*
X10000D01*
X7983Y7812D02*
X10000D01*
D12*
X7800Y3816D02*
X7817Y3833D01*
X7296Y3979D02*
X7300Y3983D01*
X7100Y3983D02*
X7104Y3979D01*
X3035Y4055D02*
Y4522D01*
X7138Y7222D02*
Y7343D01*
X8971Y2000D02*
X9157D01*
X6624Y3482D02*
X6798D01*
X6600Y3458D02*
X6624Y3482D01*
X6600Y3392D02*
Y3458D01*
X6568Y3360D02*
X6600Y3392D01*
X6320Y3360D02*
X6568D01*
X6295Y3485D02*
Y6548D01*
X7584Y4260D02*
X7620Y4224D01*
X2826Y4364D02*
Y4534D01*
X3334Y4364D02*
Y4534D01*
X2827Y3677D02*
Y3957D01*
X3333Y3677D02*
Y3957D01*
X6491Y3471D02*
Y4479D01*
X6440Y4530D02*
X6491Y4479D01*
X6440Y4530D02*
Y6600D01*
X2943Y4417D02*
Y4773D01*
X7209Y3489D02*
Y7009D01*
X6350Y3730D02*
Y3860D01*
X6220Y6820D02*
X6440Y6600D01*
X6450Y3430D02*
X6491Y3471D01*
X5200Y2240D02*
X6320Y3360D01*
X6798Y3482D02*
X6850Y3430D01*
X6020Y6823D02*
X6295Y6548D01*
Y3485D02*
X6350Y3430D01*
X1000Y2060D02*
Y2260D01*
X5000Y2040D02*
Y2240D01*
X7614Y3357D02*
X8971Y2000D01*
X9157D02*
X9197Y2040D01*
X9000D02*
Y2220D01*
X7800Y3730D02*
Y3816D01*
X7817Y3833D02*
Y3920D01*
X7250Y3730D02*
X7296Y3776D01*
Y3900D01*
Y3979D01*
X7300Y3983D02*
Y4063D01*
X7104Y3776D02*
X7150Y3730D01*
X7100Y3983D02*
Y4063D01*
X7104Y3776D02*
Y3900D01*
Y3979D01*
X3080Y3450D02*
Y3643D01*
X2980Y3743D02*
X3080Y3643D01*
Y3843D02*
Y4010D01*
Y3843D02*
X3180Y3743D01*
X3035Y4055D02*
X3080Y4010D01*
X2980Y4577D02*
X3035Y4522D01*
X7050Y3730D02*
Y4210D01*
X7250Y3310D02*
X7300Y3260D01*
X7250Y3310D02*
Y3430D01*
X7620Y3920D02*
Y4224D01*
X7050Y4210D02*
X7100Y4260D01*
X7300D02*
X7380D01*
X7584D01*
X7254Y7600D02*
X7380Y7474D01*
Y4260D02*
Y7080D01*
Y7474D01*
X2826Y4364D02*
X2880Y4310D01*
X2780Y4580D02*
X2826Y4534D01*
X2620Y4310D02*
Y4390D01*
X2780Y4310D02*
Y4383D01*
X2980Y3850D02*
Y3940D01*
Y4010D01*
Y4310D01*
Y4380D01*
Y3850D02*
X3080Y3750D01*
X2943Y4417D02*
X2980Y4380D01*
X2943Y4773D02*
X3080Y4910D01*
X3180Y3940D02*
Y4010D01*
Y4310D02*
Y4380D01*
X3280Y4310D02*
X3334Y4364D01*
Y4534D02*
X3380Y4580D01*
Y4310D02*
Y4383D01*
X3540Y4310D02*
Y4390D01*
X2780Y3630D02*
X2827Y3677D01*
Y3957D02*
X2880Y4010D01*
X2780Y3930D02*
Y4010D01*
X3280D02*
X3333Y3957D01*
Y3677D02*
X3380Y3630D01*
Y3930D02*
Y4010D01*
X3080Y4310D02*
Y4610D01*
X7103Y3260D02*
X7150Y3307D01*
Y3430D01*
X7209Y3489D01*
X7066Y7415D02*
X7138Y7343D01*
X7209Y7009D02*
X7280Y7080D01*
X7138Y7222D02*
X7280Y7080D01*
X7500Y5180D02*
X7840D01*
X220Y2037D02*
Y2180D01*
X78D02*
X220D01*
X363D01*
X220D02*
Y2322D01*
X2160Y78D02*
Y220D01*
X2017D02*
X2160D01*
X2303D01*
X2160D02*
Y363D01*
X3840Y78D02*
Y220D01*
X3697D02*
X3840D01*
X3983D01*
X3840D02*
Y363D01*
X3080Y3417D02*
Y3450D01*
X3047D02*
X3080D01*
X3113D01*
X3080D02*
Y3483D01*
X2980Y3712D02*
Y3743D01*
X2948D02*
X2980D01*
Y3775D01*
Y3743D02*
X3012D01*
X2460Y4028D02*
Y4060D01*
X3180Y3712D02*
Y3743D01*
X3148D02*
X3180D01*
X3212D01*
X3180D02*
Y3775D01*
X3080Y3975D02*
Y4010D01*
X3045D02*
X3080D01*
X3115D01*
X3080D02*
Y4045D01*
X6160Y78D02*
Y220D01*
X6017D02*
X6160D01*
Y363D01*
Y220D02*
X6302D01*
X2428Y4060D02*
X2460D01*
X2492D01*
X2460D02*
Y4092D01*
X220Y5657D02*
Y5800D01*
X78D02*
X220D01*
X363D01*
X220D02*
Y5943D01*
X2160Y7617D02*
Y7760D01*
X2017D02*
X2160D01*
X2303D01*
X2160D02*
Y7903D01*
X2980Y4545D02*
Y4577D01*
X3180Y4545D02*
Y4577D01*
X2980D02*
X3012D01*
X2980D02*
Y4608D01*
X3148Y4577D02*
X3180D01*
Y4608D01*
Y4577D02*
X3212D01*
X3840Y7617D02*
Y7760D01*
X3697D02*
X3840D01*
X3983D01*
X6160Y7617D02*
Y7760D01*
X6017D02*
X6160D01*
X3840D02*
Y7903D01*
X6160Y7760D02*
X6302D01*
X6160D02*
Y7903D01*
X7300Y3228D02*
Y3260D01*
X7268D02*
X7300D01*
Y3292D01*
X7250Y3395D02*
Y3430D01*
X7050Y3695D02*
Y3730D01*
X7015D02*
X7050D01*
X7085D01*
X7215Y3430D02*
X7250D01*
Y3465D01*
Y3430D02*
X7285D01*
X7050Y3730D02*
Y3765D01*
X7840Y78D02*
Y220D01*
X7698D02*
X7840D01*
Y363D01*
Y220D02*
X7983D01*
X7300Y3260D02*
X7332D01*
X9780Y2037D02*
Y2180D01*
X9637D02*
X9780D01*
X9922D01*
X9780D02*
Y2322D01*
X7620Y3888D02*
Y3920D01*
X7588D02*
X7620D01*
Y3952D01*
Y3920D02*
X7652D01*
X7100Y4228D02*
Y4260D01*
X7068D02*
X7100D01*
Y4292D01*
Y4260D02*
X7132D01*
X7029Y7493D02*
X7066D01*
X7104D01*
X7066D02*
Y7531D01*
X7300Y4228D02*
Y4260D01*
X7268D02*
X7300D01*
X7332D01*
X7300D02*
Y4292D01*
X9780Y5657D02*
Y5800D01*
X9637D02*
X9780D01*
Y5943D01*
Y5800D02*
X9922D01*
X7159Y7600D02*
X7254D01*
X7380Y7051D02*
Y7080D01*
X7351D02*
X7380D01*
X7409D01*
X7380D02*
Y7109D01*
X7254Y7505D02*
Y7600D01*
X7349D01*
X7254D02*
Y7695D01*
X7840Y7617D02*
Y7760D01*
X7698D02*
X7840D01*
X7983D01*
X7840D02*
Y7903D01*
X0Y0D02*
X10000D01*
Y8000D01*
X0D02*
X10000D01*
X0Y0D02*
Y8000D01*
D13*
X2780Y4310D02*
D03*
X6350Y3730D02*
D03*
D14*
X2880Y4310D02*
D03*
X2980D02*
D03*
X3080D02*
D03*
X3180D02*
D03*
X3280D02*
D03*
X3380D02*
D03*
X2780Y4010D02*
D03*
X2880D02*
D03*
X2980D02*
D03*
X3080D02*
D03*
X3180D02*
D03*
X3280D02*
D03*
X3380D02*
D03*
X6450Y3730D02*
D03*
X6550D02*
D03*
X6650D02*
D03*
X6750D02*
D03*
X6850D02*
D03*
X6950D02*
D03*
X7050D02*
D03*
X7150D02*
D03*
X7250D02*
D03*
X7350D02*
D03*
X7450D02*
D03*
X7550D02*
D03*
X7650D02*
D03*
X6350Y3430D02*
D03*
X6450D02*
D03*
X6550D02*
D03*
X6650D02*
D03*
X6750D02*
D03*
X6850D02*
D03*
X6950D02*
D03*
X7050D02*
D03*
X7150D02*
D03*
X7250D02*
D03*
X7350D02*
D03*
X7450D02*
D03*
X7550D02*
D03*
X7650D02*
D03*
D15*
X2780Y4383D02*
D03*
X3180Y4577D02*
D03*
X3380Y4383D02*
D03*
X2980Y4577D02*
D03*
X3180Y3743D02*
D03*
X2980D02*
D03*
X7817Y3920D02*
D03*
X7300Y4063D02*
D03*
X7100D02*
D03*
X9197Y2040D02*
D03*
X1197Y2060D02*
D03*
X6020Y6823D02*
D03*
X5197Y2040D02*
D03*
X7103Y3260D02*
D03*
X2460Y4257D02*
D03*
D16*
X2780Y4580D02*
D03*
X3180Y4380D02*
D03*
X3380Y4580D02*
D03*
X2980Y4380D02*
D03*
X3180Y3940D02*
D03*
X2980D02*
D03*
X7620Y3920D02*
D03*
X7300Y4260D02*
D03*
X7100D02*
D03*
X9000Y2040D02*
D03*
X1000Y2060D02*
D03*
X6020Y7020D02*
D03*
X5000Y2040D02*
D03*
X7300Y3260D02*
D03*
X2460Y4060D02*
D03*
D17*
X3080Y4910D02*
D03*
Y4610D02*
D03*
X3540Y4690D02*
D03*
Y4390D02*
D03*
Y4310D02*
D03*
Y4010D02*
D03*
X3380Y3630D02*
D03*
Y3930D02*
D03*
X3080Y3450D02*
D03*
Y3750D02*
D03*
X2620Y4690D02*
D03*
Y4390D02*
D03*
Y4310D02*
D03*
Y4010D02*
D03*
X2780Y3630D02*
D03*
Y3930D02*
D03*
X7296Y3900D02*
D03*
X7800Y3730D02*
D03*
Y3430D02*
D03*
X6350Y3860D02*
D03*
X6650D02*
D03*
D18*
X7104Y3900D02*
D03*
D19*
X9000Y2220D02*
D03*
X9200D02*
D03*
X1000Y2260D02*
D03*
X1200D02*
D03*
X6220Y7020D02*
D03*
Y6820D02*
D03*
X5000Y2240D02*
D03*
X5200D02*
D03*
X7380Y7080D02*
D03*
D20*
X7280D02*
D03*
D21*
X7066Y7493D02*
D03*
Y7415D02*
D03*
X6968D02*
D03*
Y7493D02*
D03*
D22*
X7254Y7600D02*
D03*
X6780D02*
D03*
D23*
X2160Y7760D02*
D03*
X220Y5800D02*
D03*
Y2180D02*
D03*
X2160Y220D02*
D03*
X9780Y5800D02*
D03*
Y2180D02*
D03*
X3840Y7760D02*
D03*
Y220D02*
D03*
X6160Y7760D02*
D03*
Y220D02*
D03*
X7840Y7760D02*
D03*
Y220D02*
D03*
D24*
X7614Y3357D02*
D03*
X7840Y5180D02*
D03*
X7500D02*
D03*
M02*
