<?xml version="1.0" encoding="UTF-8" standalone="no"?>
<!-- Created with Inkscape (http://www.inkscape.org/) -->
<svg
   xmlns:dc="http://purl.org/dc/elements/1.1/"
   xmlns:cc="http://web.resource.org/cc/"
   xmlns:rdf="http://www.w3.org/1999/02/22-rdf-syntax-ns#"
   xmlns:svg="http://www.w3.org/2000/svg"
   xmlns="http://www.w3.org/2000/svg"
   xmlns:xlink="http://www.w3.org/1999/xlink"
   xmlns:sodipodi="http://inkscape.sourceforge.net/DTD/sodipodi-0.dtd"
   xmlns:inkscape="http://www.inkscape.org/namespaces/inkscape"
   width="22"
   height="22"
   id="svg1307"
   sodipodi:version="0.32"
   inkscape:version="0.43"
   sodipodi:docbase="/home/andreas/projekt/tango/22"
   sodipodi:docname="extention.svg"
   inkscape:export-filename="/home/andreas/projekt/tango/extention-32.png"
   inkscape:export-xdpi="90.000000"
   inkscape:export-ydpi="90.000000"
   version="1.0">
  <defs
     id="defs1309">
    <linearGradient
       id="linearGradient5940">
      <stop
         style="stop-color:#9db029;stop-opacity:1;"
         offset="0"
         id="stop5942" />
      <stop
         style="stop-color:#9db029;stop-opacity:0;"
         offset="1"
         id="stop5944" />
    </linearGradient>
    <linearGradient
       inkscape:collect="always"
       id="linearGradient3558">
      <stop
         style="stop-color:#000000;stop-opacity:1;"
         offset="0"
         id="stop3560" />
      <stop
         style="stop-color:#000000;stop-opacity:0;"
         offset="1"
         id="stop3562" />
    </linearGradient>
    <radialGradient
       inkscape:collect="always"
       xlink:href="#linearGradient3558"
       id="radialGradient3564"
       cx="22.571428"
       cy="34.193878"
       fx="22.571428"
       fy="34.193878"
       r="15.571428"
       gradientTransform="matrix(1,-9.124409e-15,3.212315e-16,0.571617,-0.81476,10.06937)"
       gradientUnits="userSpaceOnUse" />
    <linearGradient
       inkscape:collect="always"
       id="linearGradient4960">
      <stop
         style="stop-color:#ffffff;stop-opacity:1;"
         offset="0"
         id="stop4962" />
      <stop
         style="stop-color:#ffffff;stop-opacity:0;"
         offset="1"
         id="stop4964" />
    </linearGradient>
    <linearGradient
       id="linearGradient4069">
      <stop
         style="stop-color:#549a10;stop-opacity:1.0000000"
         offset="0"
         id="stop4071" />
      <stop
         style="stop-color:#8ae234"
         offset="1"
         id="stop4073" />
    </linearGradient>
    <linearGradient
       inkscape:collect="always"
       xlink:href="#linearGradient4069"
       id="linearGradient4075"
       x1="35.392464"
       y1="39.277515"
       x2="14.344166"
       y2="16.68527"
       gradientUnits="userSpaceOnUse"
       gradientTransform="matrix(0.428808,0,0,0.435547,0.849052,0.68085)" />
    <linearGradient
       inkscape:collect="always"
       xlink:href="#linearGradient4960"
       id="linearGradient4966"
       x1="16.461405"
       y1="15.329672"
       x2="35.404129"
       y2="43.029778"
       gradientUnits="userSpaceOnUse"
       gradientTransform="matrix(0.407075,0,0,0.429972,1.255926,0.691084)" />
    <radialGradient
       inkscape:collect="always"
       xlink:href="#linearGradient3558"
       id="radialGradient3524"
       gradientUnits="userSpaceOnUse"
       gradientTransform="matrix(1,-9.124409e-15,3.212315e-16,0.571617,-0.81476,10.06937)"
       cx="22.571428"
       cy="34.193878"
       fx="22.571428"
       fy="34.193878"
       r="15.571428" />
    <linearGradient
       inkscape:collect="always"
       xlink:href="#linearGradient4069"
       id="linearGradient3526"
       gradientUnits="userSpaceOnUse"
       x1="35.392464"
       y1="39.277515"
       x2="14.344166"
       y2="16.68527"
       gradientTransform="translate(34.10799,37.80458)" />
    <linearGradient
       inkscape:collect="always"
       xlink:href="#linearGradient4960"
       id="linearGradient3528"
       gradientUnits="userSpaceOnUse"
       x1="16.461405"
       y1="15.329672"
       x2="35.404129"
       y2="43.029778"
       gradientTransform="translate(34.10799,37.80458)" />
  </defs>
  <sodipodi:namedview
     id="base"
     pagecolor="#ffffff"
     bordercolor="#666666"
     borderopacity="1.0"
     inkscape:pageopacity="0.0"
     inkscape:pageshadow="2"
     inkscape:zoom="19.79899"
     inkscape:cx="12.155473"
     inkscape:cy="5.0485559"
     inkscape:current-layer="layer1"
     showgrid="false"
     inkscape:grid-bbox="true"
     inkscape:document-units="px"
     stroke="#4e9a06"
     fill="#73d216"
     inkscape:window-width="1270"
     inkscape:window-height="945"
     inkscape:window-x="0"
     inkscape:window-y="25" />
  <metadata
     id="metadata1312">
    <rdf:RDF>
      <cc:Work
         rdf:about="">
        <dc:format>image/svg+xml</dc:format>
        <dc:type
           rdf:resource="http://purl.org/dc/dcmitype/StillImage" />
        <dc:title>Extention</dc:title>
        <dc:creator>
          <cc:Agent>
            <dc:title>Andreas Nilsson</dc:title>
          </cc:Agent>
        </dc:creator>
        <dc:source>http://tango-project.org</dc:source>
        <dc:subject>
          <rdf:Bag>
            <rdf:li>extention</rdf:li>
            <rdf:li>addon</rdf:li>
            <rdf:li>plugin</rdf:li>
            <rdf:li>puzzle</rdf:li>
          </rdf:Bag>
        </dc:subject>
        <cc:license
           rdf:resource="http://creativecommons.org/licenses/by-sa/2.0/" />
      </cc:Work>
      <cc:License
         rdf:about="http://creativecommons.org/licenses/by-sa/2.0/">
        <cc:permits
           rdf:resource="http://web.resource.org/cc/Reproduction" />
        <cc:permits
           rdf:resource="http://web.resource.org/cc/Distribution" />
        <cc:requires
           rdf:resource="http://web.resource.org/cc/Notice" />
        <cc:requires
           rdf:resource="http://web.resource.org/cc/Attribution" />
        <cc:permits
           rdf:resource="http://web.resource.org/cc/DerivativeWorks" />
        <cc:requires
           rdf:resource="http://web.resource.org/cc/ShareAlike" />
      </cc:License>
    </rdf:RDF>
  </metadata>
  <g
     id="layer1"
     inkscape:label="Layer 1"
     inkscape:groupmode="layer">
    <path
       sodipodi:type="arc"
       style="opacity:0.25268812;color:#000000;fill:url(#radialGradient3564);fill-opacity:1;fill-rule:nonzero;stroke:none;stroke-width:1;stroke-linecap:round;stroke-linejoin:round;marker:none;marker-start:none;marker-mid:none;marker-end:none;stroke-miterlimit:4;stroke-dasharray:none;stroke-dashoffset:0;stroke-opacity:1;visibility:visible;display:inline;overflow:visible"
       id="path3556"
       sodipodi:cx="22.571428"
       sodipodi:cy="30.857143"
       sodipodi:rx="15.571428"
       sodipodi:ry="10.142858"
       d="M 38.142857 30.857143 A 15.571428 10.142858 0 1 1  7,30.857143 A 15.571428 10.142858 0 1 1  38.142857 30.857143 z"
       transform="matrix(0.642202,0,0,0.197183,-3.495412,13.91548)" />
    <path
       style="opacity:1;fill:url(#linearGradient4075);fill-opacity:1;fill-rule:evenodd;stroke:#428404;stroke-width:0.99999982;stroke-linecap:round;stroke-linejoin:round;stroke-miterlimit:4;stroke-dasharray:none;stroke-dashoffset:0;stroke-opacity:1"
       d="M 7.478831,2.7593312 C 7.4498487,3.3304153 8.5189602,6.3289153 8.43312,6.5300404 L 4.4936592,6.4764689 L 4.525941,10.442819 C 2.9062559,10.414294 2.9230398,9.324469 1.9063563,9.581909 C 1.2566706,10.286698 1.1652881,13.525004 3.1757202,13.536833 C 3.9180753,13.55138 3.9964004,13.098347 4.4921273,13.087676 L 4.4921273,19.519321 L 9.4936971,19.503766 C 9.5673135,18.814137 8.4491617,17.906414 8.464555,17.015188 C 8.4261868,16.013838 9.3696624,15.609351 10.441513,15.522597 C 11.513363,15.435842 12.46483,15.988248 12.497502,16.997331 C 12.527911,18.278453 11.563718,17.461096 11.514137,19.519321 C 11.676432,19.519321 14.907931,19.519321 16.517237,19.519321 C 16.517237,19.519321 16.498393,13.726563 16.503575,13.571641 C 16.546891,12.25453 18.135875,14.497108 19.254646,14.524769 C 20.777623,14.485231 21.178162,9.6135394 19.252152,9.5656714 C 18.362191,9.6146514 17.632059,10.642459 16.505976,10.608996 L 16.476669,6.4943261 C 14.906083,6.4943261 8.0085409,6.4943261 11.436612,6.4943261 C 11.415443,5.7964894 12.589267,4.3814954 12.574301,3.5150246 C 12.558384,2.4480423 11.631071,1.5097465 10.42334,1.5109516 C 8.8575557,1.5124987 7.4760227,1.8353672 7.478831,2.7593312 z "
       id="rect1315"
       sodipodi:nodetypes="ccccccccccscccsccccccsc" />
    <path
       style="opacity:0.7;fill:none;fill-opacity:1;fill-rule:evenodd;stroke:url(#linearGradient4966);stroke-width:1.00000048;stroke-linecap:butt;stroke-linejoin:miter;stroke-miterlimit:4;stroke-dasharray:none;stroke-dashoffset:0;stroke-opacity:1"
       d="M 8.5816247,3.1927204 C 8.6134119,3.8174326 8.8873894,3.9628984 9.1657042,4.9684661 C 9.279044,5.3779692 9.4525421,7.4836121 9.415572,7.5001444 L 5.5155821,7.5078224 L 5.4943278,11.178955 C 3.5919977,11.351599 3.7052313,11.500757 2.6101525,10.783965 C 2.2662777,11.435348 2.6271131,12.359987 3.0810677,12.460464 C 3.6227552,12.495942 4.5085385,12.071069 5.5043576,12.093549 L 5.5178367,18.492369 C 7.0429179,18.487463 7.0156846,18.504275 7.8739591,18.499371 C 7.7882758,18.015889 7.4557661,17.979556 7.4697703,17.005916 C 7.4945045,15.455683 9.1909282,14.484154 10.519548,14.492929 C 11.848168,14.501705 13.49172,15.294357 13.507128,16.794133 C 13.469366,18.151975 12.86762,18.221187 12.831047,18.49873 C 12.97869,18.49873 14.052729,18.506408 15.516735,18.506408 C 15.516735,18.506408 15.418327,12.869984 15.524866,12.769227 C 17.220743,11.165387 18.49101,13.389118 19.161725,13.415286 C 19.840315,13.377883 19.40797,10.689533 18.998546,10.669503 C 18.993454,10.665852 17.043374,11.917397 15.513888,11.481678 L 15.484836,7.5001444 L 10.416172,7.4970806 C 10.273553,6.4568725 10.981235,4.5889536 11.548458,3.5924833 C 11.561809,2.7414818 10.958991,2.5579887 10.549076,2.5482703 C 9.1250188,2.5145083 8.6008777,2.6104039 8.5816247,3.1927204 z "
       id="path4067"
       sodipodi:nodetypes="cscccccccccscccsccccccsc" />
  </g>
</svg>
