<?xml version="1.0" encoding="UTF-8" standalone="no"?>
<!DOCTYPE svg PUBLIC "-//W3C//DTD SVG 1.0//EN" "http://www.w3.org/TR/2001/REC-SVG-20010904/DTD/svg10.dtd">
<!-- Generated by Microsoft Visio 11.0, SVG Export, v1.0 P24 layout.svg Page-1 -->
<svg xmlns="http://www.w3.org/2000/svg" xmlns:v="http://schemas.microsoft.com/visio/2003/SVGExtensions/" width="11in"
		height="8.5in" viewBox="0 0 792 612" xml:space="preserve" color-interpolation-filters="sRGB" class="st11">
	<v:documentProperties v:langID="1033" v:viewMarkup="false"/>

	<style type="text/css">
	<![CDATA[
		.st1 {fill:#ffffff;stroke:#000000;stroke-linecap:round;stroke-linejoin:round;stroke-width:0.24}
		.st2 {fill:#000000;font-family:Arial;font-size:0.666664em}
		.st3 {font-size:1em}
		.st4 {marker-end:url(#mrkr4-13);stroke:#000000;stroke-linecap:round;stroke-linejoin:round;stroke-width:0.24}
		.st5 {fill:#000000;fill-opacity:1;stroke:#000000;stroke-opacity:1;stroke-width:0.08695652173913}
		.st6 {fill:#000000}
		.st7 {stroke:#000000;stroke-linecap:round;stroke-linejoin:round;stroke-width:0.24}
		.st8 {fill:#000000;font-family:Arial;font-size:0.499992em}
		.st9 {fill:none;stroke:none;stroke-linecap:round;stroke-linejoin:round;stroke-width:0.72}
		.st10 {fill:#000000;font-family:Arial;font-size:1.00001em}
		.st11 {fill:none;fill-rule:evenodd;font-size:12;overflow:visible;stroke-linecap:square;stroke-miterlimit:3}
	]]>
	</style>

	<defs id="Markers">
		<g id="lend4">
			<path d="M 2 1 L 0 0 L 2 -1 L 2 1 " style="stroke:none"/>
		</g>
		<marker id="mrkr4-13" class="st5" v:arrowType="4" v:arrowSize="2" v:setback="23" refX="-23" orient="auto"
				markerUnits="strokeWidth">
			<use xlink:href="#lend4" transform="scale(-11.5,-11.5) "/>
		</marker>
	</defs>
	<g v:mID="0" v:index="1" v:groupContext="foregroundPage">
		<title>Page-1</title>
		<v:pageProperties v:drawingScale="1" v:pageScale="1" v:drawingUnits="0" v:shadowOffsetX="9" v:shadowOffsetY="-9"/>
		<v:layer v:name="Connector" v:index="0"/>
		<g id="shape1-1" v:mID="1" v:groupContext="shape" transform="translate(349.2,-444.6)">
			<title>Function / subroutine</title>
			<desc>Main</desc>
			<v:userDefs>
				<v:ud v:nameU="visVersion" v:val="VT0(11):26"/>
			</v:userDefs>
			<v:textBlock v:margins="rect(1,1,1,1)"/>
			<v:textRect cx="36" cy="594" width="72" height="36"/>
			<rect x="0" y="576" width="72" height="36" class="st1"/>
			<text x="27.33" y="596.4" class="st2" v:langID="1033"><v:paragraph v:horizAlign="1"/><v:tabList/>Main</text>		</g>
		<g id="shape2-4" v:mID="2" v:groupContext="shape" transform="translate(349.2,-383.4)">
			<title>Function / subroutine.2</title>
			<desc>App Game Loop Class</desc>
			<v:userDefs>
				<v:ud v:nameU="visVersion" v:val="VT0(11):26"/>
			</v:userDefs>
			<v:textBlock v:margins="rect(1,1,1,1)"/>
			<v:textRect cx="36" cy="594" width="72" height="36"/>
			<rect x="0" y="576" width="72" height="36" class="st1"/>
			<text x="6.87" y="591.6" class="st2" v:langID="1033"><v:paragraph v:horizAlign="1"/><v:tabList/>App Game Loop <tspan
						x="26" dy="1.2em" class="st3">Class</tspan></text>		</g>
		<g id="shape3-8" v:mID="3" v:groupContext="shape" transform="translate(997.2,167.4) rotate(90)">
			<title>Invocation</title>
			<v:userDefs>
				<v:ud v:nameU="CH" v:val="VT0(5):26"/>
				<v:ud v:nameU="visVersion" v:val="VT0(11):26"/>
			</v:userDefs>
			<v:textBlock v:margins="rect(1,1,1,1)"/>
			<path d="M0 612 L19.68 612" class="st4"/>
		</g>
		<g id="shape4-14" v:mID="4" v:groupContext="shape" transform="translate(201.6,-383.4)">
			<title>Flowchart shapes</title>
			<desc>Game Loop Base Class</desc>
			<v:userDefs>
				<v:ud v:nameU="visVersion" v:val="VT0(11):26"/>
			</v:userDefs>
			<v:textBlock v:margins="rect(1,1,1,1)"/>
			<v:textRect cx="36" cy="594" width="72" height="36"/>
			<path d="M0 607.5 L0 576 L72 576 L72 607.5 A38.25 38.25 -180 0 0 36 607.5 A38.25 38.25 0 0 1 -0 607.5 Z" class="st1"/>
			<text x="4.87" y="591.6" class="st2" v:langID="1033"><v:paragraph v:horizAlign="1"/><v:tabList/>Game Loop Base <tspan
						x="26" dy="1.2em" class="st3">Class</tspan></text>		</g>
		<g id="shape5-18" v:mID="5" v:groupContext="shape" transform="translate(349.2,822.6) rotate(180)">
			<title>Invocation.5</title>
			<v:userDefs>
				<v:ud v:nameU="CH" v:val="VT0(5):26"/>
				<v:ud v:nameU="visVersion" v:val="VT0(11):26"/>
			</v:userDefs>
			<v:textBlock v:margins="rect(1,1,1,1)"/>
			<path d="M0 612 L70.08 612" class="st4"/>
		</g>
		<g id="shape6-23" v:mID="6" v:groupContext="shape" transform="translate(86.4,-385.2)">
			<title>Function / subroutine.6</title>
			<desc>Ogre Main</desc>
			<v:userDefs>
				<v:ud v:nameU="visVersion" v:val="VT0(11):26"/>
			</v:userDefs>
			<v:textBlock v:margins="rect(1,1,1,1)"/>
			<v:textRect cx="43.2" cy="595.8" width="86.4" height="32.4"/>
			<rect x="0" y="579.6" width="86.4" height="32.4" class="st1"/>
			<text x="24.53" y="598.2" class="st2" v:langID="1033"><v:paragraph v:horizAlign="1"/><v:tabList/>Ogre Main</text>		</g>
		<g id="shape7-26" v:mID="7" v:groupContext="shape" transform="translate(741.6,260.1) rotate(90)">
			<title>Switch</title>
			<v:userDefs>
				<v:ud v:nameU="CH1" v:val="VT0(0):26"/>
				<v:ud v:nameU="visVersion" v:val="VT0(11):26"/>
			</v:userDefs>
			<v:textBlock v:margins="rect(1,3,1,1)"/>
			<path d="M0 612 L29.7 612 L0 612 Z" class="st6"/>
			<path d="M-33.3 612 L14.85 612" class="st7"/>
			<path d="M0 612 L29.7 612 L0 612" class="st7"/>
			<path d="M38.7 662.4 L38.7 612 L14.85 612" class="st7"/>
			<path d="M0.9 655.2 L0.9 612 L14.85 612" class="st7"/>
			<path d="M9.9 680.76 L9.9 612 L14.85 612" class="st7"/>
			<path d="M-15.3 680.4 L-15.3 612 L14.85 612" class="st7"/>
		</g>
		<g id="shape8-34" v:mID="8" v:groupContext="shape" transform="translate(201.6,822.6) rotate(180)">
			<title>Invocation.8</title>
			<v:userDefs>
				<v:ud v:nameU="CH" v:val="VT0(5):26"/>
				<v:ud v:nameU="visVersion" v:val="VT0(11):26"/>
			</v:userDefs>
			<v:textBlock v:margins="rect(1,1,1,1)"/>
			<path d="M0 612 L23.28 612" class="st4"/>
		</g>
		<g id="shape9-39" v:mID="9" v:groupContext="shape" transform="translate(61.2,-358.2)">
			<title>Function / subroutine.9</title>
			<desc>Scene</desc>
			<v:userDefs>
				<v:ud v:nameU="visVersion" v:val="VT0(11):26"/>
			</v:userDefs>
			<v:textBlock v:margins="rect(1,1,1,1)"/>
			<v:textRect cx="25.2" cy="603" width="50.4" height="18"/>
			<rect x="0" y="594" width="50.4" height="18" class="st1"/>
			<text x="13.86" y="605.4" class="st2" v:langID="1033"><v:paragraph v:horizAlign="1"/><v:tabList/>Scene</text>		</g>
		<g id="shape10-42" v:mID="10" v:groupContext="shape" transform="translate(60.84,-333)">
			<title>Function / subroutine.10</title>
			<desc>Camera</desc>
			<v:userDefs>
				<v:ud v:nameU="visVersion" v:val="VT0(11):26"/>
			</v:userDefs>
			<v:textBlock v:margins="rect(1,1,1,1)"/>
			<v:textRect cx="25.56" cy="603" width="51.12" height="18"/>
			<rect x="0" y="594" width="51.12" height="18" class="st1"/>
			<text x="11.32" y="605.4" class="st2" v:langID="1033"><v:paragraph v:horizAlign="1"/><v:tabList/>Camera</text>		</g>
		<g id="shape11-45" v:mID="11" v:groupContext="shape" transform="translate(79.2,-304.2)">
			<title>Function / subroutine.11</title>
			<desc>Resources</desc>
			<v:userDefs>
				<v:ud v:nameU="visVersion" v:val="VT0(11):26"/>
			</v:userDefs>
			<v:textBlock v:margins="rect(1,1,1,1)"/>
			<v:textRect cx="25.2" cy="603" width="50.4" height="18"/>
			<rect x="0" y="594" width="50.4" height="18" class="st1"/>
			<text x="6.08" y="605.4" class="st2" v:langID="1033"><v:paragraph v:horizAlign="1"/><v:tabList/>Resources</text>		</g>
		<g id="shape13-48" v:mID="13" v:groupContext="shape" transform="translate(88.2,-274.5)">
			<title>Function / subroutine.13</title>
			<desc>Images</desc>
			<v:userDefs>
				<v:ud v:nameU="visVersion" v:val="VT0(11):26"/>
			</v:userDefs>
			<v:textBlock v:margins="rect(1,1,1,1)"/>
			<v:textRect cx="19.8" cy="602.1" width="39.61" height="19.8"/>
			<rect x="0" y="592.2" width="39.6" height="19.8" class="st1"/>
			<text x="6.68" y="604.5" class="st2" v:langID="1033"><v:paragraph v:horizAlign="1"/><v:tabList/>Images</text>		</g>
		<g id="shape14-51" v:mID="14" v:groupContext="shape" transform="translate(32.4,-288)">
			<title>Function / subroutine.14</title>
			<desc>Models</desc>
			<v:userDefs>
				<v:ud v:nameU="visVersion" v:val="VT0(11):26"/>
			</v:userDefs>
			<v:textBlock v:margins="rect(1,1,1,1)"/>
			<v:textRect cx="19.8" cy="602.1" width="39.61" height="19.8"/>
			<rect x="0" y="592.2" width="39.6" height="19.8" class="st1"/>
			<text x="6.91" y="604.5" class="st2" v:langID="1033"><v:paragraph v:horizAlign="1"/><v:tabList/>Models</text>		</g>
		<g id="shape15-54" v:mID="15" v:groupContext="shape" transform="translate(32.4,-261.9)">
			<title>Function / subroutine.15</title>
			<desc>Materials</desc>
			<v:userDefs>
				<v:ud v:nameU="visVersion" v:val="VT0(11):26"/>
			</v:userDefs>
			<v:textBlock v:margins="rect(1,1,1,1)"/>
			<v:textRect cx="19.8" cy="602.1" width="39.61" height="19.8"/>
			<rect x="0" y="592.2" width="39.6" height="19.8" class="st1"/>
			<text x="3.57" y="604.5" class="st2" v:langID="1033"><v:paragraph v:horizAlign="1"/><v:tabList/>Materials</text>		</g>
		<g id="shape16-57" v:mID="16" v:groupContext="shape" transform="translate(691.2,303.3) rotate(90)">
			<title>Switch.16</title>
			<v:userDefs>
				<v:ud v:nameU="CH1" v:val="VT0(5):26"/>
				<v:ud v:nameU="visVersion" v:val="VT0(11):26"/>
			</v:userDefs>
			<v:textBlock v:margins="rect(1,3,1,1)"/>
			<path d="M0 612 L3.15 612 L0 612 Z" class="st6"/>
			<path d="M2.36 612 L1.57 612" class="st7"/>
			<path d="M0 612 L3.15 612 L0 612" class="st7"/>
			<path d="M51.3 603 L51.3 612 L1.57 612" class="st7"/>
			<path d="M36.9 619.2 L36.9 612 L1.57 612" class="st7"/>
			<path d="M10.8 619.2 L10.8 612 L1.57 612" class="st7"/>
			<path d="M24.3 603 L24.3 612 L1.57 612" class="st7"/>
		</g>
		<g id="shape17-65" v:mID="17" v:groupContext="shape" transform="translate(88.2,-247.5)">
			<title>Function / subroutine.17</title>
			<desc>Fonts</desc>
			<v:userDefs>
				<v:ud v:nameU="visVersion" v:val="VT0(11):26"/>
			</v:userDefs>
			<v:textBlock v:margins="rect(1,1,1,1)"/>
			<v:textRect cx="19.8" cy="602.1" width="39.61" height="19.8"/>
			<rect x="0" y="592.2" width="39.6" height="19.8" class="st1"/>
			<text x="9.8" y="604.5" class="st2" v:langID="1033"><v:paragraph v:horizAlign="1"/><v:tabList/>Fonts</text>		</g>
		<g id="shape12-68" v:mID="12" v:groupContext="shape" transform="translate(-208.8,268.2) rotate(-90)">
			<title>Conditional invocation</title>
			<desc>State</desc>
			<v:userDefs>
				<v:ud v:nameU="visVersion" v:val="VT0(11):26"/>
			</v:userDefs>
			<v:textBlock v:margins="rect(1,1,1,1)"/>
			<v:textRect cx="12" cy="594" width="36" height="12" transform="rotate(90)"/>
			<path d="M0 594 L12 576 L24 594 L12 612 L0 594 Z" class="st1"/>
			<text x="587" y="-10.2" transform="rotate(90)" class="st8" v:langID="1033"><v:paragraph v:horizAlign="1"/><v:tabList/>State</text>		</g>
		<g id="shape18-71" v:mID="18" v:groupContext="shape" transform="translate(997.2,228.6) rotate(90)">
			<title>Invocation.18</title>
			<v:userDefs>
				<v:ud v:nameU="CH" v:val="VT0(5):26"/>
				<v:ud v:nameU="visVersion" v:val="VT0(11):26"/>
			</v:userDefs>
			<v:textBlock v:margins="rect(1,1,1,1)"/>
			<path d="M0 612 L10.08 612" class="st4"/>
		</g>
		<g id="shape19-76" v:mID="19" v:groupContext="shape" transform="translate(394.2,-349.8)">
			<title>Invocation.19</title>
			<v:userDefs>
				<v:ud v:nameU="CH" v:val="VT0(5):26"/>
				<v:ud v:nameU="visVersion" v:val="VT0(11):26"/>
			</v:userDefs>
			<v:textBlock v:margins="rect(1,1,1,1)"/>
			<path d="M0 612 L53.88 612" class="st4"/>
		</g>
		<g id="shape20-81" v:mID="20" v:groupContext="shape" transform="translate(584.384,837.703) rotate(160.113)">
			<title>Invocation.20</title>
			<v:userDefs>
				<v:ud v:nameU="CH" v:val="VT0(5):26"/>
				<v:ud v:nameU="visVersion" v:val="VT0(11):26"/>
			</v:userDefs>
			<v:textBlock v:margins="rect(1,1,1,1)"/>
			<path d="M0 612 L36.59 612" class="st4"/>
		</g>
		<g id="shape21-86" v:mID="21" v:groupContext="shape" transform="translate(313.2,-311.4)">
			<title>Function / subroutine.21</title>
			<desc>UI Manger</desc>
			<v:userDefs>
				<v:ud v:nameU="visVersion" v:val="VT0(11):26"/>
			</v:userDefs>
			<v:textBlock v:margins="rect(1,1,1,1)"/>
			<v:textRect cx="23.4" cy="599.962" width="46.81" height="24.075"/>
			<rect x="0" y="587.925" width="46.8" height="24.075" class="st1"/>
			<text x="4.73" y="602.36" class="st2" v:langID="1033"><v:paragraph v:horizAlign="1"/><v:tabList/>UI Manger</text>		</g>
		<g id="shape22-89" v:mID="22" v:groupContext="shape" transform="translate(936.9,300.6) rotate(90)">
			<title>Switch.22</title>
			<v:userDefs>
				<v:ud v:nameU="CH1" v:val="VT0(5):26"/>
				<v:ud v:nameU="visVersion" v:val="VT0(11):26"/>
			</v:userDefs>
			<v:textBlock v:margins="rect(1,3,1,1)"/>
			<path d="M0 612 L23.4 612 L0 612 Z" class="st6"/>
			<path d="M17.55 612 L11.7 612" class="st7"/>
			<path d="M0 612 L23.4 612 L0 612" class="st7"/>
			<path d="M73.8 598.5 L73.8 612 L11.7 612" class="st7"/>
			<path d="M40.95 612 L11.7 612" class="st7"/>
			<path d="M48.6 598.5 L48.6 612 L11.7 612" class="st7"/>
			<path d="M23.4 598.5 L23.4 612 L11.7 612" class="st7"/>
		</g>
		<g id="shape23-97" v:mID="23" v:groupContext="shape" transform="translate(849.418,239.022) rotate(91.3972)">
			<title>Invocation.23</title>
			<v:userDefs>
				<v:ud v:nameU="CH" v:val="VT0(5):26"/>
				<v:ud v:nameU="visVersion" v:val="VT0(11):26"/>
			</v:userDefs>
			<v:textBlock v:margins="rect(1,1,1,1)"/>
			<path d="M0 612 L31.39 612" class="st4"/>
		</g>
		<g id="shape24-102" v:mID="24" v:groupContext="shape" transform="translate(193.5,-322.2)">
			<title>Function / subroutine.24</title>
			<desc>Input Manager</desc>
			<v:userDefs>
				<v:ud v:nameU="visVersion" v:val="VT0(11):26"/>
			</v:userDefs>
			<v:textBlock v:margins="rect(1,1,1,1)"/>
			<v:textRect cx="28.8" cy="597.6" width="57.6" height="28.8"/>
			<rect x="0" y="583.2" width="57.6" height="28.8" class="st1"/>
			<text x="3.01" y="600" class="st2" v:langID="1033"><v:paragraph v:horizAlign="1"/><v:tabList/>Input Manager</text>		</g>
		<g id="shape25-105" v:mID="25" v:groupContext="shape" transform="translate(834.3,289.8) rotate(90)">
			<title>Switch.25</title>
			<v:userDefs>
				<v:ud v:nameU="CH1" v:val="VT0(5):26"/>
				<v:ud v:nameU="visVersion" v:val="VT0(11):26"/>
			</v:userDefs>
			<v:textBlock v:margins="rect(1,3,1,1)"/>
			<path d="M0 612 L18 612 L0 612 Z" class="st6"/>
			<path d="M13.5 612 L9 612" class="st7"/>
			<path d="M0 612 L18 612 L0 612" class="st7"/>
			<path d="M48.6 621 L48.6 612 L9 612" class="st7"/>
			<path d="M31.5 612 L9 612" class="st7"/>
			<path d="M30.6 601.2 L30.6 612 L9 612" class="st7"/>
			<path d="M20.7 621 L20.7 612 L9 612" class="st7"/>
		</g>
		<g id="shape26-113" v:mID="26" v:groupContext="shape" transform="translate(-439.2,300.6) rotate(-90)">
			<title>Invocation.26</title>
			<v:userDefs>
				<v:ud v:nameU="CH" v:val="VT0(5):26"/>
				<v:ud v:nameU="visVersion" v:val="VT0(11):26"/>
			</v:userDefs>
			<v:textBlock v:margins="rect(1,1,1,1)"/>
			<path d="M0 612 L76.38 612" class="st4"/>
		</g>
		<g id="shape27-118" v:mID="27" v:groupContext="shape" transform="translate(159.3,-291.6)">
			<title>Function / subroutine.27</title>
			<desc>Ogre Devices</desc>
			<v:userDefs>
				<v:ud v:nameU="visVersion" v:val="VT0(11):26"/>
			</v:userDefs>
			<v:textBlock v:margins="rect(1,1,1,1)"/>
			<v:textRect cx="27" cy="602.1" width="54.01" height="19.8"/>
			<rect x="0" y="592.2" width="54" height="19.8" class="st1"/>
			<text x="2.77" y="604.5" class="st2" v:langID="1033"><v:paragraph v:horizAlign="1"/><v:tabList/>Ogre Devices</text>		</g>
		<g id="shape28-121" v:mID="28" v:groupContext="shape" transform="translate(233.1,-282.6)">
			<title>Function / subroutine.28</title>
			<desc>SDL Devices</desc>
			<v:userDefs>
				<v:ud v:nameU="visVersion" v:val="VT0(11):26"/>
			</v:userDefs>
			<v:textBlock v:margins="rect(1,1,1,1)"/>
			<v:textRect cx="27" cy="603" width="54.01" height="18"/>
			<rect x="0" y="594" width="54" height="18" class="st1"/>
			<text x="3.88" y="605.4" class="st2" v:langID="1033"><v:paragraph v:horizAlign="1"/><v:tabList/>SDL Devices</text>		</g>
		<g id="shape29-124" v:mID="29" v:groupContext="shape" transform="translate(159.3,-264.6)">
			<title>Function / subroutine.29</title>
			<desc>Other Devices</desc>
			<v:userDefs>
				<v:ud v:nameU="visVersion" v:val="VT0(11):26"/>
			</v:userDefs>
			<v:textBlock v:margins="rect(1,1,1,1)"/>
			<v:textRect cx="27" cy="603" width="54.01" height="18"/>
			<rect x="0" y="594" width="54" height="18" class="st1"/>
			<text x="1.66" y="605.4" class="st2" v:langID="1033"><v:paragraph v:horizAlign="1"/><v:tabList/>Other Devices</text>		</g>
		<g id="shape30-127" v:mID="30" v:groupContext="shape" transform="translate(-375.118,246.078) rotate(-88.6028)">
			<title>Invocation.30</title>
			<v:userDefs>
				<v:ud v:nameU="CH" v:val="VT0(5):26"/>
				<v:ud v:nameU="visVersion" v:val="VT0(11):26"/>
			</v:userDefs>
			<v:textBlock v:margins="rect(1,1,1,1)"/>
			<path d="M0 612 L31.39 612" class="st4"/>
		</g>
		<g id="shape31-132" v:mID="31" v:groupContext="shape" transform="translate(338.4,-277.2)">
			<title>Function / subroutine.31</title>
			<desc>UI Panel</desc>
			<v:userDefs>
				<v:ud v:nameU="visVersion" v:val="VT0(11):26"/>
			</v:userDefs>
			<v:textBlock v:margins="rect(1,1,1,1)"/>
			<v:textRect cx="21.6" cy="601.2" width="43.21" height="21.6"/>
			<rect x="0" y="590.4" width="43.2" height="21.6" class="st1"/>
			<text x="6.26" y="603.6" class="st2" v:langID="1033"><v:paragraph v:horizAlign="1"/><v:tabList/>UI Panel</text>		</g>
		<g id="shape32-135" v:mID="32" v:groupContext="shape" transform="translate(338.4,-252)">
			<title>Function / subroutine.32</title>
			<desc>UI Panel</desc>
			<v:userDefs>
				<v:ud v:nameU="visVersion" v:val="VT0(11):26"/>
			</v:userDefs>
			<v:textBlock v:margins="rect(1,1,1,1)"/>
			<v:textRect cx="21.6" cy="601.2" width="43.21" height="21.6"/>
			<rect x="0" y="590.4" width="43.2" height="21.6" class="st1"/>
			<text x="6.26" y="603.6" class="st2" v:langID="1033"><v:paragraph v:horizAlign="1"/><v:tabList/>UI Panel</text>		</g>
		<g id="shape33-138" v:mID="33" v:groupContext="shape" transform="translate(338.4,-226.8)">
			<title>Function / subroutine.33</title>
			<desc>UI Panel</desc>
			<v:userDefs>
				<v:ud v:nameU="visVersion" v:val="VT0(11):26"/>
			</v:userDefs>
			<v:textBlock v:margins="rect(1,1,1,1)"/>
			<v:textRect cx="21.6" cy="601.2" width="43.21" height="21.6"/>
			<rect x="0" y="590.4" width="43.2" height="21.6" class="st1"/>
			<text x="6.26" y="603.6" class="st2" v:langID="1033"><v:paragraph v:horizAlign="1"/><v:tabList/>UI Panel</text>		</g>
		<g id="shape34-141" v:mID="34" v:groupContext="shape" transform="translate(453.6,-333)">
			<title>Function / subroutine.34</title>
			<desc>Game Class</desc>
			<v:userDefs>
				<v:ud v:nameU="visVersion" v:val="VT0(11):26"/>
			</v:userDefs>
			<v:textBlock v:margins="rect(1,1,1,1)"/>
			<v:textRect cx="36" cy="594" width="72" height="36"/>
			<rect x="0" y="576" width="72" height="36" class="st1"/>
			<text x="13.99" y="596.4" class="st2" v:langID="1033"><v:paragraph v:horizAlign="1"/><v:tabList/>Game Class</text>		</g>
		<g id="shape35-144" v:mID="35" v:groupContext="shape" transform="translate(450,-388.8)">
			<title>Function / subroutine.35</title>
			<desc>Game Manager</desc>
			<v:userDefs>
				<v:ud v:nameU="visVersion" v:val="VT0(11):26"/>
			</v:userDefs>
			<v:textBlock v:margins="rect(1,1,1,1)"/>
			<v:textRect cx="21.6" cy="599.4" width="43.21" height="25.2"/>
			<rect x="0" y="586.8" width="43.2" height="25.2" class="st1"/>
			<text x="10.71" y="597" class="st2" v:langID="1033"><v:paragraph v:horizAlign="1"/><v:tabList/>Game <tspan x="5.81"
						dy="1.2em" class="st3">Manager</tspan></text>		</g>
		<g id="shape36-148" v:mID="36" v:groupContext="shape" transform="translate(1083.6,223.2) rotate(90)">
			<title>Invocation.36</title>
			<v:userDefs>
				<v:ud v:nameU="CH" v:val="VT0(5):26"/>
				<v:ud v:nameU="visVersion" v:val="VT0(11):26"/>
			</v:userDefs>
			<v:textBlock v:margins="rect(1,1,1,1)"/>
			<path d="M0 612 L14.28 612" class="st4"/>
		</g>
		<g id="shape37-153" v:mID="37" v:groupContext="shape" transform="translate(421.2,-401.4)">
			<title>Invocation.37</title>
			<v:userDefs>
				<v:ud v:nameU="CH" v:val="VT0(5):26"/>
				<v:ud v:nameU="visVersion" v:val="VT0(11):26"/>
			</v:userDefs>
			<v:textBlock v:margins="rect(1,1,1,1)"/>
			<path d="M0 612 L23.28 612" class="st4"/>
		</g>
		<g id="shape38-158" v:mID="38" v:groupContext="shape" transform="translate(97.2,-126)">
			<title>Function / subroutine.38</title>
			<desc>Drawable Object Manager</desc>
			<v:userDefs>
				<v:ud v:nameU="visVersion" v:val="VT0(11):26"/>
			</v:userDefs>
			<v:textBlock v:margins="rect(1,1,1,1)"/>
			<v:textRect cx="36" cy="594" width="72" height="36"/>
			<rect x="0" y="576" width="72" height="36" class="st1"/>
			<text x="6.43" y="591.6" class="st2" v:langID="1033"><v:paragraph v:horizAlign="1"/><v:tabList/>Drawable Object <tspan
						x="20.21" dy="1.2em" class="st3">Manager</tspan></text>		</g>
		<g id="shape39-162" v:mID="39" v:groupContext="shape" transform="translate(-460.8,450) rotate(-90)">
			<title>Invocation.39</title>
			<v:userDefs>
				<v:ud v:nameU="CH" v:val="VT0(5):26"/>
				<v:ud v:nameU="visVersion" v:val="VT0(11):26"/>
			</v:userDefs>
			<v:textBlock v:margins="rect(1,1,1,1)"/>
			<path d="M0 612 L217.68 612" class="st4"/>
		</g>
		<g id="shape40-167" v:mID="40" v:groupContext="shape" transform="translate(745.2,486) rotate(90)">
			<title>Switch.40</title>
			<v:userDefs>
				<v:ud v:nameU="CH1" v:val="VT0(5):26"/>
				<v:ud v:nameU="visVersion" v:val="VT0(11):26"/>
			</v:userDefs>
			<v:textBlock v:margins="rect(1,3,1,1)"/>
			<path d="M0 612 L18 612 L0 612 Z" class="st6"/>
			<path d="M13.5 612 L9 612" class="st7"/>
			<path d="M0 612 L18 612 L0 612" class="st7"/>
			<path d="M68.4 597.6 L68.4 612 L9 612" class="st7"/>
			<path d="M31.5 612 L9 612" class="st7"/>
			<path d="M43.2 597.6 L43.2 612 L9 612" class="st7"/>
			<path d="M18 597.6 L18 612 L9 612" class="st7"/>
		</g>
		<g id="shape41-175" v:mID="41" v:groupContext="shape" transform="translate(147.6,-97.2)">
			<title>Function / subroutine.41</title>
			<desc>Dawable Object1</desc>
			<v:userDefs>
				<v:ud v:nameU="visVersion" v:val="VT0(11):26"/>
			</v:userDefs>
			<v:textBlock v:margins="rect(1,1,1,1)"/>
			<v:textRect cx="36" cy="601.2" width="72" height="21.6"/>
			<rect x="0" y="590.4" width="72" height="21.6" class="st1"/>
			<text x="5.54" y="603.6" class="st2" v:langID="1033"><v:paragraph v:horizAlign="1"/><v:tabList/>Dawable Object1</text>		</g>
		<g id="shape42-178" v:mID="42" v:groupContext="shape" transform="translate(147.6,-72)">
			<title>Function / subroutine.42</title>
			<desc>Dawable Object2</desc>
			<v:userDefs>
				<v:ud v:nameU="visVersion" v:val="VT0(11):26"/>
			</v:userDefs>
			<v:textBlock v:margins="rect(1,1,1,1)"/>
			<v:textRect cx="36" cy="601.2" width="72" height="21.6"/>
			<rect x="0" y="590.4" width="72" height="21.6" class="st1"/>
			<text x="5.54" y="603.6" class="st2" v:langID="1033"><v:paragraph v:horizAlign="1"/><v:tabList/>Dawable Object2</text>		</g>
		<g id="shape43-181" v:mID="43" v:groupContext="shape" transform="translate(147.6,-46.8)">
			<title>Function / subroutine.43</title>
			<desc>Dawable Object3</desc>
			<v:userDefs>
				<v:ud v:nameU="visVersion" v:val="VT0(11):26"/>
			</v:userDefs>
			<v:textBlock v:margins="rect(1,1,1,1)"/>
			<v:textRect cx="36" cy="601.2" width="72" height="21.6"/>
			<rect x="0" y="590.4" width="72" height="21.6" class="st1"/>
			<text x="5.54" y="603.6" class="st2" v:langID="1033"><v:paragraph v:horizAlign="1"/><v:tabList/>Dawable Object3</text>		</g>
		<g id="shape44-184" v:mID="44" v:groupContext="shape" transform="translate(256.54,-343.776) rotate(0.509282)">
			<title>Invocation w / jump</title>
			<v:userDefs>
				<v:ud v:nameU="CH" v:val="VT0(5):26"/>
				<v:ud v:nameU="visVersion" v:val="VT0(11):26"/>
			</v:userDefs>
			<v:textBlock v:margins="rect(1,1,1,1)"/>
			<path d="M0 612 L98.93 612 A6.36396 6.36396 0 0 1 111.66 612 L196.99 612" class="st4"/>
		</g>
		<g id="shape45-189" v:mID="45" v:groupContext="shape" transform="translate(250.546,-329.4) rotate(-0.0518983)">
			<title>Invocation.45</title>
			<v:userDefs>
				<v:ud v:nameU="CH" v:val="VT0(5):26"/>
				<v:ud v:nameU="visVersion" v:val="VT0(11):26"/>
			</v:userDefs>
			<v:textBlock v:margins="rect(1,1,1,1)"/>
			<path d="M0 612 L56.58 612" class="st4"/>
		</g>
		<g id="shape46-194" v:mID="46" v:groupContext="shape" transform="translate(410.4,-253.8)">
			<title>Function / subroutine.46</title>
			<desc>Mobile Object Manager</desc>
			<v:userDefs>
				<v:ud v:nameU="visVersion" v:val="VT0(11):26"/>
			</v:userDefs>
			<v:textBlock v:margins="rect(1,1,1,1)"/>
			<v:textRect cx="36" cy="599.4" width="72" height="25.2"/>
			<rect x="0" y="586.8" width="72" height="25.2" class="st1"/>
			<text x="11.54" y="597" class="st2" v:langID="1033"><v:paragraph v:horizAlign="1"/><v:tabList/>Mobile Object <tspan
						x="20.21" dy="1.2em" class="st3">Manager</tspan></text>		</g>
		<g id="shape47-198" v:mID="47" v:groupContext="shape" transform="translate(1076.4,279) rotate(90)">
			<title>Invocation.47</title>
			<v:userDefs>
				<v:ud v:nameU="CH" v:val="VT0(5):26"/>
				<v:ud v:nameU="visVersion" v:val="VT0(11):26"/>
			</v:userDefs>
			<v:textBlock v:margins="rect(1,1,1,1)"/>
			<path d="M0 612 L48.48 612" class="st4"/>
		</g>
		<g id="shape48-203" v:mID="48" v:groupContext="shape" transform="translate(439.2,-216)">
			<title>Function / subroutine.48</title>
			<desc>Mobile Object 1</desc>
			<v:userDefs>
				<v:ud v:nameU="visVersion" v:val="VT0(11):26"/>
			</v:userDefs>
			<v:textBlock v:margins="rect(1,1,1,1)"/>
			<v:textRect cx="36" cy="599.4" width="72" height="25.2"/>
			<rect x="0" y="586.8" width="72" height="25.2" class="st1"/>
			<text x="8.21" y="601.8" class="st2" v:langID="1033"><v:paragraph v:horizAlign="1"/><v:tabList/>Mobile Object 1</text>		</g>
		<g id="shape49-206" v:mID="49" v:groupContext="shape" transform="translate(439.2,-181.8)">
			<title>Function / subroutine.49</title>
			<desc>Mobile Object 2</desc>
			<v:userDefs>
				<v:ud v:nameU="visVersion" v:val="VT0(11):26"/>
			</v:userDefs>
			<v:textBlock v:margins="rect(1,1,1,1)"/>
			<v:textRect cx="36" cy="599.4" width="72" height="25.2"/>
			<rect x="0" y="586.8" width="72" height="25.2" class="st1"/>
			<text x="8.21" y="601.8" class="st2" v:langID="1033"><v:paragraph v:horizAlign="1"/><v:tabList/>Mobile Object 2</text>		</g>
		<g id="shape50-209" v:mID="50" v:groupContext="shape" transform="translate(439.2,-144)">
			<title>Function / subroutine.50</title>
			<desc>Mobile Object 2</desc>
			<v:userDefs>
				<v:ud v:nameU="visVersion" v:val="VT0(11):26"/>
			</v:userDefs>
			<v:textBlock v:margins="rect(1,1,1,1)"/>
			<v:textRect cx="36" cy="599.4" width="72" height="25.2"/>
			<rect x="0" y="586.8" width="72" height="25.2" class="st1"/>
			<text x="8.21" y="601.8" class="st2" v:langID="1033"><v:paragraph v:horizAlign="1"/><v:tabList/>Mobile Object 2</text>		</g>
		<g id="shape51-212" v:mID="51" v:groupContext="shape" transform="translate(1040.4,358.2) rotate(90)">
			<title>Switch.51</title>
			<v:userDefs>
				<v:ud v:nameU="CH1" v:val="VT0(5):26"/>
				<v:ud v:nameU="visVersion" v:val="VT0(11):26"/>
			</v:userDefs>
			<v:textBlock v:margins="rect(1,3,1,1)"/>
			<path d="M0 612 L25.2 612 L0 612 Z" class="st6"/>
			<path d="M18.9 612 L12.6 612" class="st7"/>
			<path d="M0 612 L25.2 612 L0 612" class="st7"/>
			<path d="M97.2 601.2 L97.2 612 L12.6 612" class="st7"/>
			<path d="M44.1 612 L12.6 612" class="st7"/>
			<path d="M59.4 601.2 L59.4 612 L12.6 612" class="st7"/>
			<path d="M25.2 601.2 L25.2 612 L12.6 612" class="st7"/>
		</g>
		<g id="shape52-220" v:mID="52" v:groupContext="shape" transform="translate(525.6,-253.8)">
			<title>Function / subroutine.52</title>
			<desc>Static Object Manager</desc>
			<v:userDefs>
				<v:ud v:nameU="visVersion" v:val="VT0(11):26"/>
			</v:userDefs>
			<v:textBlock v:margins="rect(1,1,1,1)"/>
			<v:textRect cx="36" cy="599.4" width="72" height="25.2"/>
			<rect x="0" y="586.8" width="72" height="25.2" class="st1"/>
			<text x="13.32" y="597" class="st2" v:langID="1033"><v:paragraph v:horizAlign="1"/><v:tabList/>Static Object <tspan
						x="20.21" dy="1.2em" class="st3">Manager</tspan></text>		</g>
		<g id="shape53-224" v:mID="53" v:groupContext="shape" transform="translate(554.4,-216)">
			<title>Function / subroutine.53</title>
			<desc>Static Object 1</desc>
			<v:userDefs>
				<v:ud v:nameU="visVersion" v:val="VT0(11):26"/>
			</v:userDefs>
			<v:textBlock v:margins="rect(1,1,1,1)"/>
			<v:textRect cx="36" cy="599.4" width="72" height="25.2"/>
			<rect x="0" y="586.8" width="72" height="25.2" class="st1"/>
			<text x="9.99" y="601.8" class="st2" v:langID="1033"><v:paragraph v:horizAlign="1"/><v:tabList/>Static Object 1</text>		</g>
		<g id="shape54-227" v:mID="54" v:groupContext="shape" transform="translate(554.4,-181.8)">
			<title>Function / subroutine.54</title>
			<desc>Static Object 2</desc>
			<v:userDefs>
				<v:ud v:nameU="visVersion" v:val="VT0(11):26"/>
			</v:userDefs>
			<v:textBlock v:margins="rect(1,1,1,1)"/>
			<v:textRect cx="36" cy="599.4" width="72" height="25.2"/>
			<rect x="0" y="586.8" width="72" height="25.2" class="st1"/>
			<text x="9.99" y="601.8" class="st2" v:langID="1033"><v:paragraph v:horizAlign="1"/><v:tabList/>Static Object 2</text>		</g>
		<g id="shape55-230" v:mID="55" v:groupContext="shape" transform="translate(554.4,-144)">
			<title>Function / subroutine.55</title>
			<desc>Static Object 2</desc>
			<v:userDefs>
				<v:ud v:nameU="visVersion" v:val="VT0(11):26"/>
			</v:userDefs>
			<v:textBlock v:margins="rect(1,1,1,1)"/>
			<v:textRect cx="36" cy="599.4" width="72" height="25.2"/>
			<rect x="0" y="586.8" width="72" height="25.2" class="st1"/>
			<text x="9.99" y="601.8" class="st2" v:langID="1033"><v:paragraph v:horizAlign="1"/><v:tabList/>Static Object 2</text>		</g>
		<g id="shape56-233" v:mID="56" v:groupContext="shape" transform="translate(1155.6,358.2) rotate(90)">
			<title>Switch.56</title>
			<v:userDefs>
				<v:ud v:nameU="CH1" v:val="VT0(5):26"/>
				<v:ud v:nameU="visVersion" v:val="VT0(11):26"/>
			</v:userDefs>
			<v:textBlock v:margins="rect(1,3,1,1)"/>
			<path d="M0 612 L25.2 612 L0 612 Z" class="st6"/>
			<path d="M18.9 612 L12.6 612" class="st7"/>
			<path d="M0 612 L25.2 612 L0 612" class="st7"/>
			<path d="M97.2 601.2 L97.2 612 L12.6 612" class="st7"/>
			<path d="M44.1 612 L12.6 612" class="st7"/>
			<path d="M59.4 601.2 L59.4 612 L12.6 612" class="st7"/>
			<path d="M25.2 601.2 L25.2 612 L12.6 612" class="st7"/>
		</g>
		<g id="shape57-241" v:mID="57" v:groupContext="shape" transform="translate(568.8,-455.4)">
			<title>Function / subroutine.57</title>
			<desc>World Map Manager</desc>
			<v:userDefs>
				<v:ud v:nameU="visVersion" v:val="VT0(11):26"/>
			</v:userDefs>
			<v:textBlock v:margins="rect(1,1,1,1)"/>
			<v:textRect cx="36" cy="599.4" width="72" height="25.2"/>
			<rect x="0" y="586.8" width="72" height="25.2" class="st1"/>
			<text x="16.66" y="597" class="st2" v:langID="1033"><v:paragraph v:horizAlign="1"/><v:tabList/>World Map <tspan
						x="20.21" dy="1.2em" class="st3">Manager</tspan></text>		</g>
		<g id="shape58-245" v:mID="58" v:groupContext="shape" transform="translate(637.2,-417.6)">
			<title>Function / subroutine.58</title>
			<desc>Map Item 1</desc>
			<v:userDefs>
				<v:ud v:nameU="visVersion" v:val="VT0(11):26"/>
			</v:userDefs>
			<v:textBlock v:margins="rect(1,1,1,1)"/>
			<v:textRect cx="36" cy="599.4" width="72" height="25.2"/>
			<rect x="0" y="586.8" width="72" height="25.2" class="st1"/>
			<text x="15.99" y="601.8" class="st2" v:langID="1033"><v:paragraph v:horizAlign="1"/><v:tabList/>Map Item 1</text>		</g>
		<g id="shape59-248" v:mID="59" v:groupContext="shape" transform="translate(637.2,-383.4)">
			<title>Function / subroutine.59</title>
			<desc>Map Item 2</desc>
			<v:userDefs>
				<v:ud v:nameU="visVersion" v:val="VT0(11):26"/>
			</v:userDefs>
			<v:textBlock v:margins="rect(1,1,1,1)"/>
			<v:textRect cx="36" cy="599.4" width="72" height="25.2"/>
			<rect x="0" y="586.8" width="72" height="25.2" class="st1"/>
			<text x="15.99" y="601.8" class="st2" v:langID="1033"><v:paragraph v:horizAlign="1"/><v:tabList/>Map Item 2</text>		</g>
		<g id="shape60-251" v:mID="60" v:groupContext="shape" transform="translate(637.2,-345.6)">
			<title>Function / subroutine.60</title>
			<desc>Map Item 2</desc>
			<v:userDefs>
				<v:ud v:nameU="visVersion" v:val="VT0(11):26"/>
			</v:userDefs>
			<v:textBlock v:margins="rect(1,1,1,1)"/>
			<v:textRect cx="36" cy="599.4" width="72" height="25.2"/>
			<rect x="0" y="586.8" width="72" height="25.2" class="st1"/>
			<text x="15.99" y="601.8" class="st2" v:langID="1033"><v:paragraph v:horizAlign="1"/><v:tabList/>Map Item 2</text>		</g>
		<g id="shape61-254" v:mID="61" v:groupContext="shape" transform="translate(1234.8,156.6) rotate(90)">
			<title>Switch.61</title>
			<v:userDefs>
				<v:ud v:nameU="CH1" v:val="VT0(5):26"/>
				<v:ud v:nameU="visVersion" v:val="VT0(11):26"/>
			</v:userDefs>
			<v:textBlock v:margins="rect(1,3,1,1)"/>
			<path d="M0 612 L25.2 612 L0 612 Z" class="st6"/>
			<path d="M18.9 612 L12.6 612" class="st7"/>
			<path d="M0 612 L25.2 612 L0 612" class="st7"/>
			<path d="M97.2 597.6 L97.2 612 L12.6 612" class="st7"/>
			<path d="M44.1 612 L12.6 612" class="st7"/>
			<path d="M59.4 597.6 L59.4 612 L12.6 612" class="st7"/>
			<path d="M25.2 597.6 L25.2 612 L12.6 612" class="st7"/>
		</g>
		<g id="shape62-262" v:mID="62" v:groupContext="shape" transform="translate(561.6,-307.8)">
			<title>Function / subroutine.62</title>
			<desc>Collision Manager</desc>
			<v:userDefs>
				<v:ud v:nameU="visVersion" v:val="VT0(11):26"/>
			</v:userDefs>
			<v:textBlock v:margins="rect(1,1,1,1)"/>
			<v:textRect cx="36" cy="599.4" width="72" height="25.2"/>
			<rect x="0" y="586.8" width="72" height="25.2" class="st1"/>
			<text x="3.98" y="601.8" class="st2" v:langID="1033"><v:paragraph v:horizAlign="1"/><v:tabList/>Collision Manager</text>		</g>
		<g id="shape63-265" v:mID="63" v:groupContext="shape" transform="translate(1016.81,-60.4765) rotate(56.3099)">
			<title>Invocation.63</title>
			<v:userDefs>
				<v:ud v:nameU="CH" v:val="VT0(5):26"/>
				<v:ud v:nameU="visVersion" v:val="VT0(11):26"/>
			</v:userDefs>
			<v:textBlock v:margins="rect(1,1,1,1)"/>
			<path d="M0 612 L59.38 612" class="st4"/>
		</g>
		<g id="shape65-270" v:mID="65" v:groupContext="shape" transform="translate(-25.2,261) rotate(-90)">
			<title>Invocation.65</title>
			<v:userDefs>
				<v:ud v:nameU="CH" v:val="VT0(5):26"/>
				<v:ud v:nameU="visVersion" v:val="VT0(11):26"/>
			</v:userDefs>
			<v:textBlock v:margins="rect(1,1,1,1)"/>
			<path d="M0 612 L98.88 612" class="st4"/>
		</g>
		<g id="shape66-275" v:mID="66" v:groupContext="shape" transform="translate(840.471,-254.786) rotate(30.9638)">
			<title>Invocation.66</title>
			<v:userDefs>
				<v:ud v:nameU="CH" v:val="VT0(5):26"/>
				<v:ud v:nameU="visVersion" v:val="VT0(11):26"/>
			</v:userDefs>
			<v:textBlock v:margins="rect(1,1,1,1)"/>
			<path d="M0 612 L36.46 612" class="st4"/>
		</g>
		<g id="shape69-280" v:mID="69" v:groupContext="shape" transform="translate(219.6,-57.6)">
			<title>Invocation.69</title>
			<v:userDefs>
				<v:ud v:nameU="CH" v:val="VT0(5):26"/>
				<v:ud v:nameU="visVersion" v:val="VT0(11):26"/>
			</v:userDefs>
			<v:textBlock v:margins="rect(1,1,1,1)"/>
			<path d="M0 612 L487.68 612" class="st4"/>
		</g>
		<g id="shape70-285" v:mID="70" v:groupContext="shape" transform="translate(97.2,554.4) rotate(-90)">
			<title>Invocation.70</title>
			<v:userDefs>
				<v:ud v:nameU="CH" v:val="VT0(5):26"/>
				<v:ud v:nameU="visVersion" v:val="VT0(11):26"/>
			</v:userDefs>
			<v:textBlock v:margins="rect(1,1,1,1)"/>
			<path d="M0 612 L367.08 612" class="st4"/>
		</g>
		<g id="shape71-290" v:mID="71" v:groupContext="shape" transform="translate(-100.8,554.4) rotate(-90)">
			<title>Invocation.71</title>
			<v:userDefs>
				<v:ud v:nameU="CH" v:val="VT0(5):26"/>
				<v:ud v:nameU="visVersion" v:val="VT0(11):26"/>
			</v:userDefs>
			<v:textBlock v:margins="rect(1,1,1,1)"/>
			<path d="M0 612 L165.48 612" class="st4"/>
		</g>
		<g id="shape72-295" v:mID="72" v:groupContext="shape" transform="translate(14.4,554.4) rotate(-90)">
			<title>Invocation.72</title>
			<v:userDefs>
				<v:ud v:nameU="CH" v:val="VT0(5):26"/>
				<v:ud v:nameU="visVersion" v:val="VT0(11):26"/>
			</v:userDefs>
			<v:textBlock v:margins="rect(1,1,1,1)"/>
			<path d="M0 612 L165.48 612" class="st4"/>
		</g>
		<g id="shape73-300" v:mID="73" v:groupContext="shape" transform="translate(1022.4,345.6) rotate(90)">
			<title>Invocation.73</title>
			<v:userDefs>
				<v:ud v:nameU="CH" v:val="VT0(5):26"/>
				<v:ud v:nameU="visVersion" v:val="VT0(11):26"/>
			</v:userDefs>
			<v:textBlock v:margins="rect(1,1,1,1)"/>
			<path d="M0 612 L116.88 612" class="st4"/>
		</g>
		<g id="shape74-305" v:mID="74" v:groupContext="shape" transform="translate(410.4,1080) rotate(180)">
			<title>Invocation.74</title>
			<v:userDefs>
				<v:ud v:nameU="CH" v:val="VT0(5):26"/>
				<v:ud v:nameU="visVersion" v:val="VT0(11):26"/>
			</v:userDefs>
			<v:textBlock v:margins="rect(1,1,1,1)"/>
			<path d="M0 612 L235.68 612" class="st4"/>
		</g>
		<g id="shape75-310" v:mID="75" v:groupContext="shape" transform="translate(1137.6,351.9) rotate(90)">
			<title>Invocation.75</title>
			<v:userDefs>
				<v:ud v:nameU="CH" v:val="VT0(5):26"/>
				<v:ud v:nameU="visVersion" v:val="VT0(11):26"/>
			</v:userDefs>
			<v:textBlock v:margins="rect(1,1,1,1)"/>
			<path d="M0 612 L119.58 612" class="st4"/>
		</g>
		<g id="shape76-315" v:mID="76" v:groupContext="shape" transform="translate(525.6,1089) rotate(180)">
			<title>Invocation w / jump.76</title>
			<v:userDefs>
				<v:ud v:nameU="CH" v:val="VT0(5):26"/>
				<v:ud v:nameU="visVersion" v:val="VT0(11):26"/>
			</v:userDefs>
			<v:textBlock v:margins="rect(1,1,1,1)"/>
			<path d="M0 612 L7.67 612 A6.72753 6.72753 0 0 1 21.13 612 L350.88 612" class="st4"/>
		</g>
		<g id="shape77-320" v:mID="77" v:groupContext="shape" transform="translate(640.8,-468)">
			<title>Invocation.77</title>
			<v:userDefs>
				<v:ud v:nameU="CH" v:val="VT0(5):26"/>
				<v:ud v:nameU="visVersion" v:val="VT0(11):26"/>
			</v:userDefs>
			<v:textBlock v:margins="rect(1,1,1,1)"/>
			<path d="M0 612 L73.68 612" class="st4"/>
		</g>
		<g id="shape78-325" v:mID="78" v:groupContext="shape" transform="translate(1332,144) rotate(90)">
			<title>Invocation.78</title>
			<v:userDefs>
				<v:ud v:nameU="CH" v:val="VT0(5):26"/>
				<v:ud v:nameU="visVersion" v:val="VT0(11):26"/>
			</v:userDefs>
			<v:textBlock v:margins="rect(1,1,1,1)"/>
			<path d="M0 612 L426.48 612" class="st4"/>
		</g>
		<g id="shape79-330" v:mID="79" v:groupContext="shape" transform="translate(720,1188) rotate(180)">
			<title>Invocation.79</title>
			<v:userDefs>
				<v:ud v:nameU="CH" v:val="VT0(5):26"/>
				<v:ud v:nameU="visVersion" v:val="VT0(11):26"/>
			</v:userDefs>
			<v:textBlock v:margins="rect(1,1,1,1)"/>
			<path d="M0 612 L599.28 612" class="st4"/>
		</g>
		<g id="shape80-335" v:mID="80" v:groupContext="shape" transform="translate(-496.8,576) rotate(-90)">
			<title>Invocation.80</title>
			<v:userDefs>
				<v:ud v:nameU="CH" v:val="VT0(5):26"/>
				<v:ud v:nameU="visVersion" v:val="VT0(11):26"/>
			</v:userDefs>
			<v:textBlock v:margins="rect(1,1,1,1)"/>
			<path d="M0 612 L84.48 612" class="st4"/>
		</g>
		<g id="shape81-340" v:mID="81" v:groupContext="shape" transform="translate(525.6,-351)">
			<title>Invocation.81</title>
			<v:userDefs>
				<v:ud v:nameU="CH" v:val="VT0(5):26"/>
				<v:ud v:nameU="visVersion" v:val="VT0(11):26"/>
			</v:userDefs>
			<v:textBlock v:margins="rect(1,1,1,1)"/>
			<path d="M0 612 L55.68 612" class="st4"/>
		</g>
		<g id="shape82-345" v:mID="82" v:groupContext="shape" transform="translate(496.8,-455.4)">
			<title>Function / subroutine.82</title>
			<desc>Network</desc>
			<v:userDefs>
				<v:ud v:nameU="visVersion" v:val="VT0(11):26"/>
			</v:userDefs>
			<v:textBlock v:margins="rect(1,1,1,1)"/>
			<v:textRect cx="21.6" cy="601.2" width="43.21" height="21.6"/>
			<rect x="0" y="590.4" width="43.2" height="21.6" class="st1"/>
			<text x="6.93" y="603.6" class="st2" v:langID="1033"><v:paragraph v:horizAlign="1"/><v:tabList/>Network</text>		</g>
		<g id="shape83-348" v:mID="83" v:groupContext="shape" transform="translate(1119.6,156.6) rotate(90)">
			<title>Invocation.83</title>
			<v:userDefs>
				<v:ud v:nameU="CH" v:val="VT0(5):26"/>
				<v:ud v:nameU="visVersion" v:val="VT0(11):26"/>
			</v:userDefs>
			<v:textBlock v:margins="rect(1,1,1,1)"/>
			<path d="M0 612 L80.88 612" class="st4"/>
		</g>
		<g id="shape84-353" v:mID="84" v:groupContext="shape" transform="translate(514.8,-412.2)">
			<title>Function / subroutine.84</title>
			<desc>Sound</desc>
			<v:userDefs>
				<v:ud v:nameU="visVersion" v:val="VT0(11):26"/>
			</v:userDefs>
			<v:textBlock v:margins="rect(1,1,1,1)"/>
			<v:textRect cx="21.6" cy="601.2" width="43.21" height="21.6"/>
			<rect x="0" y="590.4" width="43.2" height="21.6" class="st1"/>
			<text x="10.03" y="603.6" class="st2" v:langID="1033"><v:paragraph v:horizAlign="1"/><v:tabList/>Sound</text>		</g>
		<g id="shape85-356" v:mID="85" v:groupContext="shape" transform="translate(-86.4,252) rotate(-90)">
			<title>Invocation.85</title>
			<v:userDefs>
				<v:ud v:nameU="CH" v:val="VT0(5):26"/>
				<v:ud v:nameU="visVersion" v:val="VT0(11):26"/>
			</v:userDefs>
			<v:textBlock v:margins="rect(1,1,1,1)"/>
			<path d="M0 612 L46.68 612" class="st4"/>
		</g>
		<g id="shape86-361" v:mID="86" v:groupContext="shape" transform="translate(219.6,-82.8)">
			<title>Invocation.86</title>
			<v:userDefs>
				<v:ud v:nameU="CH" v:val="VT0(5):26"/>
				<v:ud v:nameU="visVersion" v:val="VT0(11):26"/>
			</v:userDefs>
			<v:textBlock v:margins="rect(1,1,1,1)"/>
			<path d="M0 612 L483.05 612" class="st4"/>
		</g>
		<g id="shape87-366" v:mID="87" v:groupContext="shape" transform="translate(219.6,-108)">
			<title>Invocation.87</title>
			<v:userDefs>
				<v:ud v:nameU="CH" v:val="VT0(5):26"/>
				<v:ud v:nameU="visVersion" v:val="VT0(11):26"/>
			</v:userDefs>
			<v:textBlock v:margins="rect(1,1,1,1)"/>
			<path d="M0 612 L483.57 612" class="st4"/>
		</g>
		<g id="shape64-371" v:mID="64" v:groupContext="shape" transform="translate(-147.6,333) rotate(-90)">
			<title>Invocation.64</title>
			<v:userDefs>
				<v:ud v:nameU="CH" v:val="VT0(5):26"/>
				<v:ud v:nameU="visVersion" v:val="VT0(11):26"/>
			</v:userDefs>
			<v:textBlock v:margins="rect(1,1,1,1)"/>
			<path d="M0 612 L49.51 612" class="st4"/>
		</g>
		<g id="shape67-376" v:mID="67" v:groupContext="shape" transform="translate(34.3852,672.477) rotate(-123.69)">
			<title>Invocation.67</title>
			<v:userDefs>
				<v:ud v:nameU="CH" v:val="VT0(5):26"/>
				<v:ud v:nameU="visVersion" v:val="VT0(11):26"/>
			</v:userDefs>
			<v:textBlock v:margins="rect(1,1,1,1)"/>
			<path d="M0 612 L59.38 612" class="st4"/>
		</g>
		<g id="shape68-381" v:mID="68" v:groupContext="shape" transform="translate(583.2,873) rotate(180)">
			<title>Invocation.68</title>
			<v:userDefs>
				<v:ud v:nameU="CH" v:val="VT0(5):26"/>
				<v:ud v:nameU="visVersion" v:val="VT0(11):26"/>
			</v:userDefs>
			<v:textBlock v:margins="rect(1,1,1,1)"/>
			<path d="M0 612 L52.08 612" class="st4"/>
		</g>
		<g id="shape88-386" v:mID="88" v:groupContext="shape" transform="translate(1198.8,156.6) rotate(90)">
			<title>Invocation.88</title>
			<v:userDefs>
				<v:ud v:nameU="CH" v:val="VT0(5):26"/>
				<v:ud v:nameU="visVersion" v:val="VT0(11):26"/>
			</v:userDefs>
			<v:textBlock v:margins="rect(1,1,1,1)"/>
			<path d="M0 612 L98.88 612" class="st4"/>
		</g>
		<g id="shape89-391" v:mID="89" v:groupContext="shape" transform="translate(464.4,-511.2)">
			<title>Cloud</title>
			<desc>Internet</desc>
			<v:userDefs>
				<v:ud v:nameU="visVersion" v:val="VT0(11):26"/>
			</v:userDefs>
			<v:textBlock v:margins="rect(1,1,1,1)"/>
			<v:textRect cx="54" cy="576" width="108" height="72"/>
			<path d="M2.34 576.08 A4.4748 4.44687 0 0 1 3.87 567.9 A6.08198 6.04401 0 0 1 9.63 558.74 A6.98366 6.94006 0 0 1 19.5
						 550.88 A4.76604 4.73629 0 0 1 28.1 546.81 A5.23355 5.20089 0 0 1 37.3 544.1 A10.3402 10.2757 0 0 1 51.68
						 542.39 A3.08926 3.06998 0 0 1 57.72 542.49 A3.3774 2.90097 25.64 0 1 64.12 542.37 A3.13455 2.06737 8.16
						 0 1 69.64 544.1 A5.84487 3.85507 11.45 0 1 80.86 546.83 A3.51868 2.32991 143.77 0 1 84.86 549.47 A5.93676
						 5.8997 0 0 1 94.37 555.85 A6.55829 4.32661 10.26 0 1 98.21 561.33 A8.39185 5.53245 177.49 0 1 103.88 570.46
						 A4.85089 3.19788 0 0 1 104.6 576.08 A2.42109 2.40597 0 1 1 104.2 580.26 A5.20928 5.17676 0 0 1 100.79 588.84
						 A3.43706 2.7088 178.27 1 1 97.31 593.42 A6.98366 6.94006 0 0 1 87.44 601.27 A5.46067 3.59986 0 0 1 78.84
						 605.34 A4.34145 4.31436 0 0 1 70.51 607.68 A4.52833 3.44042 5.89 0 1 61.88 609.33 A4.28146 2.82249 0 0 1
						 53.47 609.78 A5.47612 3.61005 0 0 1 43.04 609.08 A4.98541 3.2898 11.94 0 1 34.3 605.57 A4.32555 2.45539
						 9.71 1 1 26.59 603.01 A5.12084 5.08888 0 0 1 19.38 597.14 A6.98933 6.9457 0 0 1 10.86 597.14 A12.2727 8.0937
						 7.39 0 1 6.15 588.84 A4.83479 4.80461 0 0 1 1.72 580.54 A4.75153 3.13416 11.68 0 1 2.34 576.08 Z"
					class="st1"/>
			<text x="40.44" y="578.4" class="st2" v:langID="1033"><v:paragraph v:horizAlign="1"/><v:tabList/>Internet</text>		</g>
		<g id="shape90-394" v:mID="90" v:groupContext="shape" transform="translate(1130.4,100.8) rotate(90)">
			<title>Invocation.90</title>
			<v:userDefs>
				<v:ud v:nameU="CH" v:val="VT0(5):26"/>
				<v:ud v:nameU="visVersion" v:val="VT0(11):26"/>
			</v:userDefs>
			<v:textBlock v:margins="rect(1,1,1,1)"/>
			<path d="M0 612 L28.68 612" class="st4"/>
		</g>
		<g id="shape91-399" v:mID="91" v:groupContext="shape" transform="translate(-93.6,135) rotate(-90)">
			<title>Invocation.91</title>
			<v:userDefs>
				<v:ud v:nameU="CH" v:val="VT0(5):26"/>
				<v:ud v:nameU="visVersion" v:val="VT0(11):26"/>
			</v:userDefs>
			<v:textBlock v:margins="rect(1,1,1,1)"/>
			<path d="M0 612 L28.68 612" class="st4"/>
		</g>
		<g id="shape92-404" v:mID="92" v:groupContext="shape" transform="translate(-104.4,243) rotate(-90)">
			<title>Invocation.92</title>
			<v:userDefs>
				<v:ud v:nameU="CH" v:val="VT0(5):26"/>
				<v:ud v:nameU="visVersion" v:val="VT0(11):26"/>
			</v:userDefs>
			<v:textBlock v:margins="rect(1,1,1,1)"/>
			<path d="M0 612 L80.88 612" class="st4"/>
		</g>
		<g id="shape93-409" v:mID="93" v:groupContext="shape" transform="translate(21.6,-568.8)">
			<title>Sheet.93</title>
			<desc>P24 overall component layout</desc>
			<v:textBlock v:margins="rect(4,4,4,4)"/>
			<v:textRect cx="76" cy="602" width="152" height="20"/>
			<rect x="0" y="592" width="152" height="20" class="st9"/>
			<text x="14.63" y="598.4" class="st10" v:langID="1033"><v:paragraph v:horizAlign="1"/><v:tabList/>P24 overall component <tspan
						x="59.99" dy="1.2em" class="st3">layout</tspan></text>		</g>
	</g>
</svg>
