%FSLAX23Y23*%
%MOIN*%
G70*
G01*
G75*
G04 Layer_Physical_Order=1*
%ADD10R,0.012X0.031*%
%ADD11R,0.134X0.071*%
%ADD12C,0.008*%
%ADD13C,0.008*%
%ADD14C,0.012*%
%ADD15C,0.010*%
%ADD16C,0.063*%
%ADD17C,0.055*%
%ADD18C,0.180*%
%ADD19C,0.065*%
%ADD20R,0.059X0.059*%
%ADD21C,0.059*%
%ADD22R,0.065X0.065*%
%ADD23C,0.217*%
%ADD24C,0.025*%
D10*
X588Y1134D02*
D03*
Y1186D02*
D03*
X568Y1134D02*
D03*
Y1186D02*
D03*
X548Y1134D02*
D03*
Y1186D02*
D03*
X529Y1134D02*
D03*
Y1186D02*
D03*
X509Y1134D02*
D03*
Y1186D02*
D03*
X489Y1134D02*
D03*
Y1186D02*
D03*
X470Y1134D02*
D03*
Y1186D02*
D03*
X450Y1134D02*
D03*
Y1186D02*
D03*
Y1486D02*
D03*
Y1434D02*
D03*
X470Y1486D02*
D03*
Y1434D02*
D03*
X489Y1486D02*
D03*
Y1434D02*
D03*
X509Y1486D02*
D03*
Y1434D02*
D03*
X529Y1486D02*
D03*
Y1434D02*
D03*
X548Y1486D02*
D03*
Y1434D02*
D03*
X568Y1486D02*
D03*
Y1434D02*
D03*
X588Y1486D02*
D03*
Y1434D02*
D03*
X170Y1186D02*
D03*
Y1134D02*
D03*
X190Y1186D02*
D03*
Y1134D02*
D03*
X209Y1186D02*
D03*
Y1134D02*
D03*
X229Y1186D02*
D03*
Y1134D02*
D03*
X249Y1186D02*
D03*
Y1134D02*
D03*
X268Y1186D02*
D03*
Y1134D02*
D03*
X288Y1186D02*
D03*
Y1134D02*
D03*
X308Y1186D02*
D03*
Y1134D02*
D03*
Y1434D02*
D03*
Y1486D02*
D03*
X288Y1434D02*
D03*
Y1486D02*
D03*
X268Y1434D02*
D03*
Y1486D02*
D03*
X249Y1434D02*
D03*
Y1486D02*
D03*
X229Y1434D02*
D03*
Y1486D02*
D03*
X209Y1434D02*
D03*
Y1486D02*
D03*
X190Y1434D02*
D03*
Y1486D02*
D03*
X170Y1434D02*
D03*
Y1486D02*
D03*
D11*
X2000Y278D02*
D03*
Y442D02*
D03*
D12*
X2390Y930D02*
X2396Y923D01*
X2217Y889D02*
Y900D01*
Y889D02*
X2385Y888D01*
X2217Y889D02*
Y900D01*
X1735Y791D02*
Y830D01*
X2100Y930D02*
X2103Y949D01*
X2100Y930D02*
X2390D01*
X1670D02*
X2100D01*
X1635Y791D02*
Y894D01*
X2126Y1808D02*
X2262Y1672D01*
X2200Y1307D02*
X2249D01*
X2017Y1638D02*
Y1808D01*
X2479Y1016D02*
Y1137D01*
X1908Y1808D02*
X1950D01*
X2299Y1052D02*
X2440D01*
X1834Y1597D02*
X1859D01*
X2484Y1167D02*
Y1200D01*
X1690Y1808D02*
X1757Y1741D01*
X2530Y1020D02*
Y1130D01*
X1695Y1290D02*
X2007Y978D01*
X2557Y540D02*
X2707Y390D01*
X1135Y1391D02*
X1187Y1339D01*
X2119Y615D02*
X2617D01*
X2707Y490D02*
Y525D01*
X339Y1145D02*
Y1329D01*
X308Y1176D02*
Y1186D01*
Y1360D02*
Y1434D01*
Y1176D02*
X339Y1145D01*
X298Y1220D02*
Y1337D01*
Y1219D02*
Y1220D01*
X295Y1216D02*
X298Y1219D01*
X288Y1209D02*
X295Y1216D01*
X288Y1217D02*
X291Y1220D01*
X288Y1209D02*
Y1217D01*
Y1186D02*
Y1209D01*
Y1417D02*
Y1434D01*
X275Y1396D02*
Y1403D01*
Y1330D02*
Y1396D01*
Y1323D02*
Y1330D01*
X268Y1186D02*
Y1227D01*
Y1410D02*
X275Y1403D01*
X268D02*
X275Y1396D01*
X268Y1410D02*
Y1434D01*
Y1403D02*
Y1410D01*
X271Y1327D02*
X275Y1330D01*
X269Y1324D02*
X271Y1327D01*
X269Y1323D02*
Y1324D01*
Y1228D02*
Y1323D01*
X249Y1401D02*
Y1434D01*
Y1244D02*
Y1341D01*
Y1241D02*
Y1244D01*
Y1186D02*
Y1241D01*
X246Y1244D02*
X249Y1241D01*
X229Y1375D02*
X238Y1367D01*
X229Y1375D02*
Y1434D01*
Y1367D02*
Y1375D01*
Y1362D02*
Y1367D01*
Y1186D02*
Y1220D01*
X218Y320D02*
X525D01*
X198Y1329D02*
X209D01*
Y1434D01*
Y1186D02*
Y1329D01*
X178Y296D02*
X385D01*
X190Y1380D02*
Y1434D01*
Y1186D02*
Y1291D01*
X175Y1306D02*
X184Y1297D01*
X190Y1291D01*
X168Y306D02*
X178Y296D01*
X170Y1403D02*
Y1434D01*
Y1176D02*
Y1186D01*
X154Y1176D02*
X170D01*
X154D02*
X156Y1179D01*
X140Y1163D02*
X154Y1176D01*
X154Y273D02*
X353D01*
X588Y1387D02*
Y1434D01*
X616Y1238D02*
Y1359D01*
Y1200D02*
Y1238D01*
X588Y1186D02*
X602D01*
X568Y1351D02*
X574Y1357D01*
X568Y1418D02*
Y1434D01*
Y1357D02*
Y1373D01*
Y1351D02*
Y1357D01*
Y1186D02*
Y1351D01*
X548Y1393D02*
X549Y1393D01*
X551D01*
X548D02*
Y1434D01*
Y1393D02*
Y1393D01*
Y1186D02*
Y1393D01*
X528Y1434D02*
X529Y1434D01*
X528Y1371D02*
X529Y1370D01*
Y1363D02*
Y1370D01*
Y1354D02*
Y1363D01*
Y1186D02*
Y1354D01*
X520Y1363D02*
X529Y1354D01*
X509Y1391D02*
Y1434D01*
X505Y1250D02*
X507Y1247D01*
X509Y1245D01*
Y1245D02*
Y1245D01*
Y1186D02*
Y1245D01*
X497Y1253D02*
X503Y1247D01*
X505Y1245D01*
X489Y1409D02*
Y1434D01*
Y1186D02*
Y1218D01*
X470Y1237D02*
Y1249D01*
Y1237D02*
X489Y1218D01*
X470Y1425D02*
Y1434D01*
X469Y1297D02*
Y1424D01*
Y1284D02*
Y1297D01*
X470Y1186D02*
Y1213D01*
X459Y1287D02*
X469Y1297D01*
X459Y1280D02*
Y1287D01*
X462Y1277D02*
X469Y1284D01*
X447Y1262D02*
X462Y1277D01*
X1035Y791D02*
X1241Y585D01*
X1406D01*
X2707Y232D02*
Y278D01*
X2058Y511D02*
X2428D01*
X1078Y1391D02*
X1162Y1307D01*
X1035Y1391D02*
X1078D01*
X2641Y1721D02*
X2774Y1854D01*
X818Y2032D02*
X856Y2070D01*
X2074Y1752D02*
X2435Y1391D01*
X927Y2032D02*
X984Y1975D01*
X2335Y1391D02*
X2376Y1350D01*
X1036Y2032D02*
X1079Y1989D01*
X2235Y1391D02*
X2272Y1354D01*
X1456Y1700D02*
X1852D01*
X1632Y2035D02*
Y2043D01*
X1472Y2052D02*
X1516D01*
X1472Y2032D02*
Y2052D01*
X2335Y791D02*
X2575Y1031D01*
X2017Y2032D02*
X2060Y1989D01*
X2435Y791D02*
X2589Y945D01*
X2126Y2032D02*
X2160D01*
X2735Y791D02*
X2736D01*
Y1312D01*
X655Y2032D02*
Y2112D01*
X885Y1401D02*
X915Y1431D01*
X1195D02*
X1235Y1391D01*
X1322Y1004D02*
Y1308D01*
Y1004D02*
X1535Y791D01*
X1592Y1920D02*
X1635D01*
X450Y1486D02*
Y1590D01*
X1702Y1877D02*
X1745Y1920D01*
X470Y1486D02*
Y1578D01*
X1796Y1863D02*
X1854Y1920D01*
X489Y1486D02*
Y1550D01*
X1388Y1660D02*
X1904D01*
X509Y1486D02*
Y1549D01*
X1163Y1542D02*
X1178Y1527D01*
X529Y1486D02*
Y1532D01*
X2635Y854D02*
Y1391D01*
X2051Y668D02*
X2566D01*
X935Y1160D02*
Y1391D01*
X325Y837D02*
X612D01*
X835Y1144D02*
Y1391D01*
X286Y1015D02*
X706D01*
X572Y528D02*
X835Y791D01*
X226Y528D02*
X572D01*
X620Y476D02*
X935Y791D01*
X195Y476D02*
X620D01*
X450Y1384D02*
Y1434D01*
Y1361D02*
Y1384D01*
X434Y1195D02*
X450D01*
Y1186D02*
Y1195D01*
X418Y1352D02*
X450Y1384D01*
X1984Y1578D02*
Y1589D01*
X548Y1486D02*
Y1513D01*
X2318Y1116D02*
X2409D01*
X568Y1486D02*
Y1511D01*
X588Y1480D02*
Y1486D01*
Y1480D02*
X617D01*
X170Y1486D02*
Y1581D01*
X124Y2173D02*
X766D01*
X190Y1486D02*
Y1560D01*
X929Y2141D02*
Y2148D01*
X209Y1486D02*
Y1787D01*
X1036Y1808D02*
X1075D01*
X229Y1486D02*
Y1698D01*
X1139Y1808D02*
X1145D01*
X249Y1486D02*
Y1667D01*
X873Y1788D02*
Y1788D01*
X945Y1716D02*
X1254D01*
X268Y1486D02*
Y1640D01*
X1305Y1750D02*
X1363Y1808D01*
X288Y1486D02*
Y1597D01*
X1472Y1766D02*
Y1808D01*
X308Y1486D02*
Y1576D01*
X1635Y894D02*
X1670Y930D01*
X1859Y1597D02*
X1893Y1562D01*
Y1280D02*
Y1562D01*
Y1280D02*
X1922Y1251D01*
X2100D01*
X2299Y1052D01*
X2470Y1214D02*
X2484Y1200D01*
X2432Y1214D02*
X2470D01*
X2295Y1351D02*
X2432Y1214D01*
X2295Y1351D02*
Y1388D01*
X2060Y1623D02*
X2295Y1388D01*
X2060Y1623D02*
Y1825D01*
X2018Y1867D02*
X2060Y1825D01*
X1861Y1867D02*
X2018D01*
X1844Y1850D02*
X1861Y1867D01*
X1844Y1760D02*
Y1850D01*
X1825Y1741D02*
X1844Y1760D01*
X1757Y1741D02*
X1825D01*
X2007Y978D02*
X2487D01*
X2530Y1020D01*
X2617Y615D02*
X2707Y525D01*
X268Y1227D02*
X269Y1228D01*
X175Y1306D02*
Y1365D01*
X190Y1380D01*
X156Y1389D02*
X170Y1403D01*
X156Y1179D02*
Y1389D01*
X140Y287D02*
Y1163D01*
Y287D02*
X154Y273D01*
X497Y1379D02*
X509Y1391D01*
X497Y1253D02*
Y1379D01*
X483Y1403D02*
X489Y1409D01*
X483Y1262D02*
Y1403D01*
X470Y1249D02*
X483Y1262D01*
X1516Y2052D02*
X1539Y2075D01*
X1599D01*
X1632Y2043D01*
X2736Y1312D02*
X2788Y1364D01*
Y2084D01*
X2747Y2125D02*
X2788Y2084D01*
X668Y2125D02*
X2747D01*
X655Y2112D02*
X668Y2125D01*
X915Y1431D02*
X1195D01*
X450Y1590D02*
X463Y1603D01*
X1229D01*
X1377Y1751D01*
X1486D01*
X1515Y1780D01*
Y1842D01*
X1592Y1920D01*
X470Y1578D02*
X479Y1587D01*
X1256D01*
X1406Y1737D01*
X1519D01*
X1532Y1750D01*
Y1838D01*
X1571Y1877D01*
X1702D01*
X489Y1550D02*
X512Y1573D01*
X1279D01*
X1429Y1723D01*
X1610D01*
X1624Y1737D01*
Y1832D01*
X1655Y1863D01*
X1796D01*
X1284Y1556D02*
X1388Y1660D01*
X516Y1556D02*
X1284D01*
X509Y1549D02*
X516Y1556D01*
X529Y1532D02*
X539Y1542D01*
X1163D01*
X2566Y668D02*
X2586Y688D01*
Y804D01*
X2635Y854D01*
X612Y837D02*
X935Y1160D01*
X1950Y1623D02*
X1984Y1589D01*
X1593Y1623D02*
X1950D01*
X1474Y1504D02*
X1593Y1623D01*
X717Y1504D02*
X1474D01*
X694Y1527D02*
X717Y1504D01*
X562Y1527D02*
X694D01*
X548Y1513D02*
X562Y1527D01*
X568Y1511D02*
X569Y1512D01*
X617D01*
X650Y1479D01*
X1778D01*
X1795Y1462D01*
Y1289D02*
Y1462D01*
Y1289D02*
X1857Y1227D01*
X2063D01*
X2261Y1029D01*
X2450D01*
X2463Y1042D01*
Y1062D01*
X2409Y1116D02*
X2463Y1062D01*
X101Y2150D02*
X124Y2173D01*
X101Y1759D02*
Y2150D01*
Y1759D02*
X193Y1667D01*
Y1563D02*
Y1667D01*
X190Y1560D02*
X193Y1563D01*
X928Y2140D02*
X929Y2141D01*
X232Y2140D02*
X928D01*
X130Y2038D02*
X232Y2140D01*
X130Y1867D02*
Y2038D01*
Y1867D02*
X209Y1787D01*
X1075Y1808D02*
X1118Y1765D01*
X1175D01*
X1188Y1778D01*
Y1856D01*
X1175Y1869D02*
X1188Y1856D01*
X400Y1869D02*
X1175D01*
X229Y1698D02*
X400Y1869D01*
X850Y1765D02*
X873Y1788D01*
X393Y1765D02*
X850D01*
X268Y1640D02*
X393Y1765D01*
X288Y1597D02*
X441Y1750D01*
X1305D01*
X2160Y2032D02*
X2203Y1989D01*
X2522D01*
X2536Y1975D01*
Y1774D02*
Y1975D01*
Y1774D02*
X2589Y1721D01*
Y945D02*
Y1721D01*
X1079Y1989D02*
X1990D01*
X2016Y1963D01*
X2101D01*
X2127Y1937D01*
Y1887D02*
Y1937D01*
Y1887D02*
X2139Y1875D01*
X2269D01*
X2281Y1862D01*
Y1702D02*
Y1862D01*
Y1702D02*
X2475Y1508D01*
Y1362D02*
Y1508D01*
X2463Y1350D02*
X2475Y1362D01*
X2376Y1350D02*
X2463D01*
X2774Y1854D02*
Y2029D01*
X2692Y2111D02*
X2774Y2029D01*
X884Y2111D02*
X2692D01*
X856Y2083D02*
X884Y2111D01*
X856Y2070D02*
Y2083D01*
X602Y1186D02*
X616Y1200D01*
X588Y1387D02*
X616Y1359D01*
X308Y1360D02*
X339Y1329D01*
X1950Y1808D02*
X1951Y1807D01*
Y1643D02*
Y1807D01*
Y1643D02*
X2007Y1587D01*
Y1545D02*
Y1587D01*
X1995Y1533D02*
X2007Y1545D01*
X1995Y1288D02*
Y1533D01*
Y1288D02*
X2013Y1270D01*
X2159D01*
X2225Y1204D01*
X2412D01*
X2479Y1137D01*
X1471Y1765D02*
X1472Y1766D01*
X1365Y1765D02*
X1471D01*
X1285Y1685D02*
X1365Y1765D01*
X1153Y1685D02*
X1285D01*
X1097Y1629D02*
X1153Y1685D01*
X361Y1629D02*
X1097D01*
X308Y1576D02*
X361Y1629D01*
X1096Y1851D02*
X1139Y1808D01*
X433Y1851D02*
X1096D01*
X249Y1667D02*
X433Y1851D01*
X1852Y1700D02*
X1865Y1712D01*
Y1837D01*
X1878Y1851D01*
X1952D01*
X1965Y1837D01*
Y1665D02*
Y1837D01*
Y1665D02*
X2095Y1535D01*
Y1370D02*
Y1535D01*
Y1370D02*
X2201Y1264D01*
X2250D01*
X2272Y1286D01*
Y1354D01*
X469Y1214D02*
X470Y1213D01*
X448Y1214D02*
X469D01*
X447Y1215D02*
X448Y1214D01*
X447Y1215D02*
Y1262D01*
X469Y1424D02*
X470Y1425D01*
X433Y1196D02*
X434Y1195D01*
X433Y1196D02*
Y1344D01*
X450Y1361D01*
X706Y1015D02*
X835Y1144D01*
X2060Y1989D02*
X2163D01*
X2177Y1975D01*
X2413D01*
X2520Y1868D01*
Y1520D02*
Y1868D01*
Y1520D02*
X2575Y1465D01*
Y1031D02*
Y1465D01*
X1793Y888D02*
X2217Y889D01*
X1735Y830D02*
X1793Y888D01*
X2074Y1752D02*
Y1836D01*
X2005Y1905D02*
X2074Y1836D01*
X2005Y1905D02*
Y1940D01*
X1970Y1975D02*
X2005Y1940D01*
X984Y1975D02*
X1970D01*
X2185Y1322D02*
X2200Y1307D01*
X2185Y1322D02*
Y1470D01*
X2017Y1638D02*
X2185Y1470D01*
X2706Y279D02*
X2707Y278D01*
X2660Y279D02*
X2706D01*
X2428Y511D02*
X2660Y279D01*
X2114Y540D02*
X2557D01*
X1985Y669D02*
X2114Y540D01*
X1985Y669D02*
Y812D01*
X1965Y832D02*
X1985Y812D01*
X1786Y832D02*
X1965D01*
X1775Y821D02*
X1786Y832D01*
X1775Y763D02*
Y821D01*
X1763Y751D02*
X1775Y763D01*
X1612Y751D02*
X1763D01*
X1595Y768D02*
X1612Y751D01*
X1595Y768D02*
Y1098D01*
X1354Y1339D02*
X1595Y1098D01*
X1187Y1339D02*
X1354D01*
X528Y1371D02*
Y1434D01*
X568Y1418D02*
X574Y1412D01*
Y1379D02*
Y1412D01*
X568Y1373D02*
X574Y1379D01*
X289Y1346D02*
X298Y1337D01*
X289Y1346D02*
Y1416D01*
X288Y1417D02*
X289Y1416D01*
X223Y1226D02*
X229Y1220D01*
X223Y1226D02*
Y1356D01*
X229Y1362D01*
X249Y1401D02*
X261Y1389D01*
Y1353D02*
Y1389D01*
X249Y1341D02*
X261Y1353D01*
D13*
X2103Y949D02*
D03*
X2217Y889D02*
D03*
D14*
X2482Y2093D02*
X2655Y1920D01*
X1814Y278D02*
X2000D01*
X1551Y507D02*
X1835Y791D01*
X1692Y400D02*
X1814Y278D01*
X1504Y507D02*
X1551D01*
X1504Y400D02*
Y507D01*
X361Y2032D02*
X600D01*
X645Y1987D01*
X568Y1134D02*
X588D01*
X548D02*
X568D01*
X548Y1134D02*
Y1134D01*
X529Y1134D02*
Y1134D01*
X509Y1134D02*
Y1134D01*
X249Y1920D02*
X361Y2032D01*
X489Y1134D02*
Y1134D01*
X529Y1134D02*
X548D01*
X509D02*
X529D01*
X489D02*
X509D01*
X470D02*
X489D01*
X470Y1134D02*
Y1135D01*
Y1134D02*
Y1134D01*
X450Y1135D02*
X470D01*
X288Y1134D02*
X308D01*
X268D02*
X288D01*
X268Y1134D02*
Y1134D01*
X229Y1134D02*
Y1134D01*
X209Y1134D02*
Y1134D01*
X190D02*
Y1135D01*
Y1134D02*
Y1134D01*
X249Y1134D02*
X268D01*
X229D02*
X249D01*
X209D02*
X229D01*
X190D02*
X209D01*
X170Y1135D02*
X190D01*
X1504Y400D02*
X1692D01*
X1218D02*
X1504D01*
X325D02*
X1218D01*
X450Y1134D02*
Y1135D01*
Y1115D02*
Y1134D01*
X249Y1134D02*
Y1134D01*
Y1115D02*
Y1134D01*
X170Y1134D02*
Y1135D01*
Y456D02*
Y1134D01*
X308Y1114D02*
X449D01*
X288D02*
X308D01*
X268D02*
X288D01*
X250D02*
X268D01*
X287Y438D02*
X325Y400D01*
X2000Y442D02*
X2398D01*
X2707Y132D01*
X1935Y507D02*
Y791D01*
Y507D02*
X2000Y442D01*
X1760Y1251D02*
Y1391D01*
X1735D02*
X1760D01*
X1811Y1200D02*
X2046D01*
X1504Y585D02*
Y624D01*
X711Y817D02*
X742Y848D01*
X598Y704D02*
X711Y817D01*
X376Y704D02*
X598D01*
X249Y1115D02*
X250Y1114D01*
X449D02*
X450Y1115D01*
X170Y456D02*
X188Y438D01*
X287D01*
X899Y2093D02*
X2482D01*
X872Y2066D02*
X899Y2093D01*
X872Y2000D02*
Y2066D01*
X859Y1987D02*
X872Y2000D01*
X645Y1987D02*
X859D01*
X1760Y1251D02*
X1811Y1200D01*
X1480Y648D02*
X1504Y624D01*
X1207Y648D02*
X1480D01*
X1193Y663D02*
X1207Y648D01*
X1193Y663D02*
Y830D01*
X1175Y848D02*
X1193Y830D01*
X742Y848D02*
X1175D01*
D15*
X0Y2300D02*
X2900D01*
Y0D02*
Y2300D01*
X0Y0D02*
X2900D01*
X0D02*
Y2300D01*
D16*
X2707Y132D02*
D03*
Y232D02*
D03*
Y390D02*
D03*
Y490D02*
D03*
D17*
X1394Y1550D02*
D03*
X1586D02*
D03*
D18*
X1218Y400D02*
D03*
X1692D02*
D03*
D19*
X1406Y507D02*
D03*
Y585D02*
D03*
X1504D02*
D03*
X1504Y507D02*
D03*
X709Y2032D02*
D03*
X2344Y1808D02*
D03*
X2235D02*
D03*
X818Y2032D02*
D03*
X927D02*
D03*
X2126Y1808D02*
D03*
X2017D02*
D03*
X1036Y2032D02*
D03*
X1145D02*
D03*
X1908Y1808D02*
D03*
X1799D02*
D03*
X1254Y2032D02*
D03*
X1363D02*
D03*
X1690Y1808D02*
D03*
X1581D02*
D03*
X1472Y2032D02*
D03*
X1581D02*
D03*
X1472Y1808D02*
D03*
X1363D02*
D03*
X1690Y2032D02*
D03*
X1799D02*
D03*
X1254Y1808D02*
D03*
X1145D02*
D03*
X1908Y2032D02*
D03*
X2017D02*
D03*
X1036Y1808D02*
D03*
X927D02*
D03*
X2126Y2032D02*
D03*
X2235D02*
D03*
X818Y1808D02*
D03*
X709D02*
D03*
X2344Y2032D02*
D03*
X655Y1920D02*
D03*
X600Y1808D02*
D03*
X2289Y1920D02*
D03*
X763D02*
D03*
X873D02*
D03*
X2181D02*
D03*
X2072D02*
D03*
X982D02*
D03*
X1090D02*
D03*
X1962D02*
D03*
X1854D02*
D03*
X1199D02*
D03*
X1309D02*
D03*
X1745D02*
D03*
X1635D02*
D03*
X1418D02*
D03*
X1526D02*
D03*
D20*
X2735Y1391D02*
D03*
D21*
X2635D02*
D03*
X2535D02*
D03*
X2435D02*
D03*
X2335D02*
D03*
X2235D02*
D03*
X2135D02*
D03*
X2035D02*
D03*
X1935D02*
D03*
X1835D02*
D03*
X1735D02*
D03*
X1635D02*
D03*
X1535D02*
D03*
X1435D02*
D03*
X1335D02*
D03*
X1235D02*
D03*
X1135D02*
D03*
X1035D02*
D03*
X935D02*
D03*
X835D02*
D03*
X2735Y791D02*
D03*
X2635D02*
D03*
X2535D02*
D03*
X2435D02*
D03*
X2335D02*
D03*
X2235D02*
D03*
X2135D02*
D03*
X2035D02*
D03*
X1935D02*
D03*
X1835D02*
D03*
X1735D02*
D03*
X1635D02*
D03*
X1535D02*
D03*
X1435D02*
D03*
X1335D02*
D03*
X1235D02*
D03*
X1135D02*
D03*
X1035D02*
D03*
X935D02*
D03*
X835D02*
D03*
D22*
X600Y2032D02*
D03*
D23*
X249Y1920D02*
D03*
X2655D02*
D03*
D24*
X195Y476D02*
D03*
X2385Y888D02*
D03*
X2103Y949D02*
D03*
X2396Y923D02*
D03*
X1834Y1597D02*
D03*
X2440Y1052D02*
D03*
X2484Y1167D02*
D03*
X1695Y1290D02*
D03*
X2530Y1130D02*
D03*
X2119Y615D02*
D03*
X339Y1145D02*
D03*
X198Y1329D02*
D03*
X385Y296D02*
D03*
X168Y306D02*
D03*
X184Y1297D02*
D03*
X353Y273D02*
D03*
X574Y1357D02*
D03*
X551Y1393D02*
D03*
X520Y1363D02*
D03*
X505Y1245D02*
D03*
Y1250D02*
D03*
X470Y1237D02*
D03*
X1162Y1307D02*
D03*
X2046Y1200D02*
D03*
X376Y704D02*
D03*
X711Y817D02*
D03*
X1632Y2035D02*
D03*
X655Y2032D02*
D03*
X885Y1401D02*
D03*
X1322Y1308D02*
D03*
X1904Y1660D02*
D03*
X1178Y1527D02*
D03*
X2051Y668D02*
D03*
X325Y837D02*
D03*
X1984Y1578D02*
D03*
X2318Y1116D02*
D03*
X170Y1581D02*
D03*
X766Y2173D02*
D03*
X929Y2148D02*
D03*
X1254Y1716D02*
D03*
X945D02*
D03*
X873Y1788D02*
D03*
X2641Y1721D02*
D03*
X616Y1238D02*
D03*
X525Y320D02*
D03*
X218D02*
D03*
X238Y1367D02*
D03*
X291Y1220D02*
D03*
X2479Y1016D02*
D03*
X617Y1480D02*
D03*
X1456Y1700D02*
D03*
X459Y1280D02*
D03*
X418Y1352D02*
D03*
X226Y528D02*
D03*
X286Y1015D02*
D03*
X2217Y900D02*
D03*
X2249Y1307D02*
D03*
X2058Y511D02*
D03*
X325Y400D02*
D03*
X275Y1323D02*
D03*
X246Y1244D02*
D03*
X2262Y1672D02*
D03*
M02*
