%FSLAX23Y23*%
%MOIN*%
G70*
G01*
G75*
G04 Layer_Physical_Order=2*
%ADD10R,0.134X0.071*%
%ADD11C,0.008*%
%ADD12C,0.012*%
%ADD13C,0.010*%
%ADD14C,0.063*%
%ADD15C,0.055*%
%ADD16P,0.055X8X0*%
%ADD17C,0.180*%
%ADD18C,0.065*%
%ADD19R,0.055X0.055*%
%ADD20C,0.217*%
%ADD21R,0.059X0.059*%
%ADD22C,0.059*%
%ADD23C,0.025*%
%ADD24R,0.035X0.028*%
%ADD25R,0.028X0.035*%
%ADD26R,0.031X0.012*%
%ADD27R,0.065X0.012*%
%ADD28R,0.024X0.087*%
D11*
X1032Y417D02*
X1045Y430D01*
X928Y437D02*
X944Y453D01*
X1103D02*
X1110Y446D01*
X1190D01*
X1199Y437D01*
X1011Y689D02*
X1014Y685D01*
X886Y689D02*
X1011D01*
X882Y685D02*
X886Y689D01*
X735Y1367D02*
Y1710D01*
X530Y1162D02*
X735Y1367D01*
X835Y1545D02*
X1195Y1905D01*
X835Y1402D02*
Y1545D01*
X800Y1367D02*
X835Y1402D01*
X800Y1242D02*
Y1367D01*
X658Y1100D02*
X800Y1242D01*
X1894Y1590D02*
X1895Y1589D01*
X2545Y593D02*
X2559Y607D01*
X2545Y339D02*
Y593D01*
Y339D02*
X2587Y297D01*
X2305Y1775D02*
X2321Y1791D01*
X1934Y524D02*
X1948Y538D01*
X1418Y524D02*
X1934D01*
X1400Y542D02*
X1418Y524D01*
X1207Y542D02*
X1400D01*
X1178Y571D02*
X1207Y542D01*
X771Y571D02*
X1178D01*
X754Y587D02*
X771Y571D01*
X754Y587D02*
Y672D01*
X767Y685D01*
X1875Y538D02*
X1898Y561D01*
X1434Y538D02*
X1875D01*
X1416Y556D02*
X1434Y538D01*
X1217Y556D02*
X1416D01*
X1188Y585D02*
X1217Y556D01*
X783Y585D02*
X1188D01*
X768Y600D02*
X783Y585D01*
X768Y600D02*
Y665D01*
X769Y666D01*
X1374Y456D02*
X1612Y218D01*
Y182D02*
Y218D01*
Y182D02*
X1620Y174D01*
X1837D01*
X1848Y185D01*
X1334Y397D02*
X1405Y326D01*
Y297D02*
Y326D01*
Y297D02*
X1577Y125D01*
X1955D01*
X1998Y168D01*
X1849Y160D02*
X1898Y209D01*
X1607Y160D02*
X1849D01*
X1590Y177D02*
X1607Y160D01*
X1590Y177D02*
Y202D01*
X1355Y437D02*
X1590Y202D01*
X1309Y378D02*
X1324Y363D01*
Y307D02*
Y363D01*
Y307D02*
X1524Y107D01*
X2030D01*
X2048Y125D01*
X1291Y338D02*
X1292Y337D01*
Y98D02*
Y337D01*
Y98D02*
X1312Y78D01*
X2126D01*
X2148Y100D01*
X1113Y758D02*
X1146Y725D01*
X975Y1557D02*
X1408D01*
X955Y1538D02*
X975Y1557D01*
X955Y1424D02*
Y1538D01*
X857Y1326D02*
X955Y1424D01*
X857Y1087D02*
Y1326D01*
X701Y931D02*
X857Y1087D01*
X586Y931D02*
X701D01*
X572Y917D02*
X586Y931D01*
X430Y917D02*
X572D01*
X1035Y1430D02*
X1125D01*
X1150Y1455D01*
Y1497D01*
X1163Y1510D01*
X1312D01*
X1335Y1487D01*
Y1414D02*
Y1487D01*
X1301Y1380D02*
X1335Y1414D01*
X997Y1380D02*
X1301D01*
X920Y1303D02*
X997Y1380D01*
X920Y1042D02*
Y1303D01*
X764Y886D02*
X920Y1042D01*
X620Y886D02*
X764D01*
X609Y875D02*
X620Y886D01*
X556Y875D02*
X609D01*
X549Y868D02*
X556Y875D01*
X500Y868D02*
X549D01*
X477Y845D02*
X500Y868D01*
X477Y767D02*
Y845D01*
X463Y753D02*
X477Y767D01*
X403Y753D02*
X463D01*
X338Y688D02*
X403Y753D01*
X1482Y894D02*
X1510Y866D01*
X1482Y894D02*
Y1199D01*
X1409Y1272D02*
X1482Y1199D01*
X1239Y1272D02*
X1409D01*
X1238Y1271D02*
X1239Y1272D01*
X1238Y1231D02*
Y1271D01*
Y1231D02*
X1239Y1230D01*
X1115Y796D02*
X1167Y744D01*
X338Y1088D02*
X387Y1138D01*
X655D01*
X755Y1238D01*
Y1523D01*
X1155Y1923D01*
Y2090D01*
X1175Y2110D01*
X1255D01*
X1983Y510D02*
X1998Y525D01*
X1406Y510D02*
X1983D01*
X1388Y528D02*
X1406Y510D01*
X1144Y528D02*
X1388D01*
X1115Y557D02*
X1144Y528D01*
X758Y557D02*
X1115D01*
X740Y575D02*
X758Y557D01*
X740Y575D02*
Y688D01*
X758Y705D01*
X1374Y476D02*
X1626Y224D01*
Y196D02*
Y224D01*
Y196D02*
X1634Y188D01*
X1797D01*
X1798Y189D01*
X1903Y139D02*
X1948Y184D01*
X1593Y139D02*
X1903D01*
X1477Y255D02*
X1593Y139D01*
X1477Y255D02*
Y280D01*
X1340Y417D02*
X1477Y280D01*
X1307Y358D02*
X1308Y357D01*
Y296D02*
Y357D01*
Y296D02*
X1511Y93D01*
X2079D01*
X2098Y112D01*
X1100Y1102D02*
X1114Y1116D01*
X479Y1200D02*
X623Y1344D01*
Y1615D01*
X657Y1649D01*
Y1853D01*
X835Y2031D01*
X868D01*
X869Y2030D01*
X955D01*
X338Y1294D02*
X387Y1344D01*
X413D01*
X479Y1410D01*
Y1774D01*
X735Y2030D01*
Y2095D01*
X750Y2110D01*
X855D01*
X950Y827D02*
X1131D01*
X1194Y764D01*
X1747Y582D02*
X1748Y583D01*
X1172Y344D02*
X1186Y358D01*
X1684Y1957D02*
X1685Y1957D01*
X1609Y1957D02*
X1684D01*
X1589Y1938D02*
X1609Y1957D01*
X1589Y1561D02*
Y1938D01*
Y1561D02*
X1635Y1515D01*
Y1300D02*
Y1515D01*
X1621Y1286D02*
X1635Y1300D01*
X1503Y903D02*
X1514Y892D01*
X1224Y1285D02*
X1225Y1286D01*
X1224Y1218D02*
Y1285D01*
Y1218D02*
X1237Y1204D01*
X1637Y866D02*
X1656Y885D01*
Y1000D01*
X1632Y1025D02*
X1656Y1000D01*
X1632Y1025D02*
Y1136D01*
X1655Y1159D01*
Y1523D01*
X1603Y1575D02*
X1655Y1523D01*
X1603Y1575D02*
Y1750D01*
X1615Y1763D01*
X1696D01*
X1809Y1875D01*
Y1959D01*
X1808Y1960D02*
X1809Y1959D01*
X1126Y1230D02*
X1146Y1250D01*
Y1301D01*
X1163Y1317D01*
X1480D01*
X1535Y1372D01*
Y1679D01*
X846Y875D02*
X861D01*
X812Y841D02*
X846Y875D01*
X683Y841D02*
X812D01*
X543Y701D02*
X683Y841D01*
X475Y701D02*
X543D01*
X427Y653D02*
X475Y701D01*
X404Y653D02*
X427D01*
X363Y612D02*
X404Y653D01*
X312Y612D02*
X363D01*
X274Y650D02*
X312Y612D01*
X2081Y413D02*
X2148Y480D01*
X554Y572D02*
X598Y616D01*
Y672D01*
X690Y764D01*
X617Y653D02*
X708Y744D01*
X2030Y494D02*
X2048Y512D01*
X1372Y494D02*
X2030D01*
X1352Y514D02*
X1372Y494D01*
X1134Y514D02*
X1352D01*
X1105Y543D02*
X1134Y514D01*
X727Y543D02*
X1105D01*
X726Y544D02*
X727Y543D01*
X726Y544D02*
Y722D01*
X729Y725D01*
X2211Y1534D02*
Y1986D01*
Y1534D02*
X2235Y1510D01*
Y1254D02*
Y1510D01*
Y1254D02*
X2331Y1158D01*
Y1078D02*
Y1158D01*
X2256Y989D02*
X2409D01*
X2495Y1075D01*
Y1413D01*
X2453Y1454D02*
X2495Y1413D01*
X2453Y1454D02*
Y1725D01*
X831Y1330D02*
X895Y1394D01*
X831Y1082D02*
Y1330D01*
X694Y945D02*
X831Y1082D01*
X1149Y1524D02*
X1417D01*
X1435Y1506D01*
Y1454D02*
Y1506D01*
X1331Y1350D02*
X1435Y1454D01*
X1047Y1350D02*
X1331D01*
X952Y1255D02*
X1047Y1350D01*
X952Y1021D02*
Y1255D01*
X786Y855D02*
X952Y1021D01*
X671Y855D02*
X786D01*
X531Y715D02*
X671Y855D01*
X338Y785D02*
X405Y852D01*
X431D01*
X482Y903D01*
X594D01*
X608Y917D01*
X720D01*
X883Y1080D01*
Y1320D01*
X971Y1408D01*
X1133D01*
X991Y1394D02*
X1219D01*
X903Y1306D02*
X991Y1394D01*
X903Y1063D02*
Y1306D01*
X743Y903D02*
X903Y1063D01*
X616Y903D02*
X743D01*
X602Y889D02*
X616Y903D01*
X502Y889D02*
X602D01*
X566Y845D02*
X582Y861D01*
X654D01*
X662Y869D01*
X777D01*
X938Y1030D01*
Y1290D01*
X1012Y1364D01*
X1322D01*
X1395Y1437D01*
X387Y1038D02*
X630D01*
X338Y988D02*
X387Y1038D01*
X853Y1388D02*
Y1528D01*
X817Y1352D02*
X853Y1388D01*
X817Y1132D02*
Y1352D01*
X685Y1000D02*
X817Y1132D01*
X500Y1388D02*
Y1775D01*
X451Y1578D02*
Y1826D01*
X411Y1538D02*
X451Y1578D01*
X387Y1538D02*
X411D01*
X374Y1525D02*
X387Y1538D01*
X374Y1462D02*
Y1525D01*
Y1462D02*
X376Y1460D01*
Y1412D02*
Y1460D01*
X361Y1397D02*
X376Y1412D01*
X361Y1373D02*
Y1397D01*
X465Y1553D02*
Y1808D01*
X894Y646D02*
X927Y613D01*
X1208D01*
X1237Y584D01*
X1312D01*
X1333Y604D01*
X1239Y631D02*
X1249Y621D01*
X1239Y631D02*
Y644D01*
X1237Y646D02*
X1239Y644D01*
X224Y1564D02*
Y1613D01*
Y1564D02*
X250Y1538D01*
X287D01*
X313Y1512D01*
X343D01*
X1726Y1263D02*
X1738Y1250D01*
X1822D01*
X1872Y1200D01*
Y837D02*
Y1200D01*
X1857Y823D02*
X1872Y837D01*
X1709Y823D02*
X1857D01*
X226Y1637D02*
Y1688D01*
X224Y1690D02*
X226Y1688D01*
X512Y452D02*
X513Y453D01*
X149Y1589D02*
Y1852D01*
X193Y1897D01*
X456D01*
X683Y2124D01*
X1423D01*
X1455Y2092D01*
Y1926D02*
Y2092D01*
Y1926D02*
X1555Y1826D01*
Y1319D02*
Y1826D01*
X1538Y1301D02*
X1555Y1319D01*
X1204Y1301D02*
X1538D01*
X1198Y1295D02*
X1204Y1301D01*
X1198Y1107D02*
Y1295D01*
Y1107D02*
X1304Y1001D01*
Y599D02*
Y1001D01*
X1303Y598D02*
X1304Y599D01*
X1247Y598D02*
X1303D01*
X1215Y629D02*
X1247Y598D01*
X1161Y629D02*
X1215D01*
X1138Y652D02*
X1161Y629D01*
X135Y1513D02*
X147Y1500D01*
X579Y1349D02*
Y1808D01*
X2151Y1151D02*
Y1504D01*
X2071Y1071D02*
X2151Y1151D01*
X2071Y965D02*
Y1071D01*
Y965D02*
X2298Y738D01*
X1698Y734D02*
X1712Y748D01*
X2170D01*
X2176Y742D01*
Y583D02*
Y742D01*
Y583D02*
X2177Y582D01*
X2225D01*
X2226Y583D01*
Y688D01*
X2239Y700D01*
X2259D01*
X2271Y688D01*
Y571D02*
Y688D01*
Y571D02*
X2287Y554D01*
X2300D01*
X2320Y574D01*
Y745D01*
X2295Y770D02*
X2320Y745D01*
X2295Y770D02*
Y943D01*
X2312Y961D01*
X2450D01*
X2595Y1106D01*
X1648Y733D02*
X1721Y806D01*
X1890D01*
X1909Y825D01*
Y965D01*
X2135Y1191D01*
Y2072D01*
X2177Y2114D01*
X2341D01*
X2355Y2100D01*
Y2037D02*
Y2100D01*
Y2037D02*
X2368Y2024D01*
X2461Y1950D02*
X2485Y1974D01*
X2461Y1897D02*
Y1950D01*
Y1897D02*
X2462Y1896D01*
X2618D01*
X2635Y1913D01*
X2612Y2110D02*
X2635Y2088D01*
X2567Y2110D02*
X2612D01*
X2527Y2070D02*
X2567Y2110D01*
X1648Y204D02*
X1650Y202D01*
X1775D01*
X1776Y203D01*
Y309D01*
X1777Y310D01*
X2175D01*
X2176Y309D01*
Y125D02*
Y309D01*
Y125D02*
X2198Y103D01*
X2376D01*
X2478Y205D01*
X2671D01*
X2705Y239D01*
Y2018D01*
X1825Y552D02*
X1848Y575D01*
X1462Y552D02*
X1825D01*
X1444Y570D02*
X1462Y552D01*
X1231Y570D02*
X1444D01*
X1202Y599D02*
X1231Y570D01*
X824Y599D02*
X1202D01*
X794Y629D02*
X824Y599D01*
X1175Y843D02*
X1205Y813D01*
X1099Y526D02*
X1134Y491D01*
X934Y526D02*
X1099D01*
X884Y476D02*
X934Y526D01*
X300Y303D02*
X504D01*
X136Y467D02*
X300Y303D01*
X136Y467D02*
Y487D01*
X107Y516D02*
X136Y487D01*
X107Y516D02*
Y878D01*
X115Y886D01*
Y1143D01*
X188Y1215D01*
X889Y456D02*
X936Y503D01*
X1076D01*
X1117Y462D02*
X1196D01*
X1202Y456D01*
X93Y494D02*
Y1267D01*
X114Y1288D01*
X213D01*
X262Y1238D01*
X1154Y398D02*
Y406D01*
X1155Y407D01*
X438Y1251D02*
X556Y1369D01*
X400Y1251D02*
X438D01*
X338Y1188D02*
X400Y1251D01*
X312Y1188D02*
X338D01*
X299Y1175D02*
X312Y1188D01*
X299Y1115D02*
Y1175D01*
Y1115D02*
X301Y1113D01*
Y1064D02*
Y1113D01*
X287Y1050D02*
X301Y1064D01*
X709Y150D02*
X1040D01*
X540Y319D02*
X709Y150D01*
X414Y319D02*
X540D01*
X384Y349D02*
X414Y319D01*
X298Y349D02*
X384D01*
X121Y526D02*
X298Y349D01*
X121Y526D02*
Y864D01*
X140Y883D01*
Y988D01*
X153Y1000D01*
X154Y869D02*
Y916D01*
X135Y850D02*
X154Y869D01*
X135Y549D02*
Y850D01*
Y549D02*
X321Y363D01*
X421D01*
X451Y333D01*
X581D01*
X821Y337D02*
X822Y338D01*
X821Y323D02*
Y337D01*
X820Y322D02*
X821Y323D01*
X708Y322D02*
X820D01*
X648Y382D02*
X708Y322D01*
X387Y382D02*
X648D01*
X375Y394D02*
X387Y382D01*
X375Y394D02*
Y451D01*
X264Y562D02*
X375Y451D01*
X237Y562D02*
X264D01*
X188Y612D02*
X237Y562D01*
X162Y612D02*
X188D01*
X149Y626D02*
X162Y612D01*
X149Y626D02*
Y674D01*
X162Y688D01*
X189D01*
X226Y725D01*
Y762D01*
X224Y764D02*
X226Y762D01*
X224Y764D02*
Y838D01*
X238Y852D01*
X1177Y324D02*
X1191Y338D01*
X872Y324D02*
X1177D01*
X858Y338D02*
X872Y324D01*
X1237Y1204D02*
X1281D01*
X1514Y892D02*
X1581D01*
X1503Y903D02*
Y1286D01*
X1225D02*
X1503D01*
X1621D01*
X1685Y1957D02*
Y1976D01*
Y2060D01*
X1695Y2070D01*
X1510Y866D02*
X1581D01*
X1637D01*
X1239Y1230D02*
X1281D01*
X1785Y1960D02*
Y1976D01*
Y1980D01*
X1795D01*
Y2070D01*
X1785Y1960D02*
X1808D01*
X1008Y1243D02*
X1021Y1256D01*
X1063D01*
Y1230D02*
X1126D01*
X1421Y1793D02*
X1535Y1679D01*
X1063Y1102D02*
X1100D01*
X1114Y1116D02*
Y1123D01*
X188Y650D02*
X274D01*
X861Y875D02*
X1063Y1076D01*
X1799Y840D02*
X1836D01*
X1849Y853D01*
X1448Y598D02*
X1716Y866D01*
X1799D01*
X1756Y994D02*
X1799D01*
X1744Y1006D02*
X1756Y994D01*
X1799Y1020D02*
X1799D01*
X1799D02*
Y1148D01*
X2295Y1271D02*
X2472Y1094D01*
X2295Y1271D02*
Y1470D01*
X2587Y521D02*
X2659Y593D01*
Y655D01*
X1270Y338D02*
X1291D01*
X2148Y100D02*
Y256D01*
X1270Y358D02*
X1307D01*
X2098Y112D02*
Y256D01*
X1270Y378D02*
X1309D01*
X2048Y125D02*
Y256D01*
X1270Y397D02*
X1334D01*
X1998Y168D02*
Y256D01*
X1270Y417D02*
X1340D01*
X1948Y184D02*
Y256D01*
X1270Y437D02*
X1355D01*
X1898Y209D02*
Y256D01*
X1270Y456D02*
X1374D01*
X1848Y185D02*
Y256D01*
X1270Y476D02*
X1374D01*
X1798Y189D02*
Y256D01*
X727Y787D02*
X730Y784D01*
X794D01*
X2021Y991D02*
X2198Y814D01*
Y636D02*
Y814D01*
X554Y423D02*
Y572D01*
X1948Y413D02*
X2081D01*
X690Y764D02*
X794D01*
X2148Y480D02*
Y636D01*
X617Y470D02*
Y653D01*
X2098Y512D02*
Y636D01*
X708Y744D02*
X794D01*
X729Y725D02*
X794D01*
X2048Y512D02*
Y636D01*
X758Y705D02*
X794D01*
X1998Y525D02*
Y636D01*
X767Y685D02*
X794D01*
X1948Y538D02*
Y636D01*
X769Y666D02*
X794D01*
X1898Y561D02*
Y636D01*
X695Y1470D02*
Y1584D01*
Y1585D01*
X705D01*
Y1584D02*
Y1585D01*
X2211Y1986D02*
X2295Y2070D01*
X2288Y1036D02*
X2331Y1078D01*
X2210Y1036D02*
X2256Y989D01*
X2305Y1756D02*
Y1775D01*
X2321Y1791D02*
X2325D01*
X2395Y1783D02*
X2453Y1725D01*
X2587Y263D02*
Y297D01*
X2559Y607D02*
Y655D01*
X2338Y1622D02*
X2395Y1565D01*
X2305Y1655D02*
X2338Y1622D01*
X2291Y1590D02*
X2305D01*
X2395Y1470D02*
Y1565D01*
X2305Y1655D02*
Y1704D01*
Y1590D02*
X2338Y1622D01*
X1956Y1300D02*
Y1431D01*
X1995Y1470D01*
X1979D02*
Y1590D01*
Y1470D02*
X1995D01*
X1979Y1590D02*
X1979D01*
X1764Y1300D02*
Y1339D01*
X1895Y1470D01*
Y1589D01*
X1871Y1590D02*
X1894D01*
X412Y600D02*
X442D01*
X520Y678D01*
Y764D02*
X592Y836D01*
X563Y945D02*
X694D01*
X895Y1394D02*
Y1470D01*
X338Y650D02*
Y688D01*
X995Y1470D02*
X1035Y1430D01*
X412Y700D02*
Y715D01*
X531D01*
X1095Y1470D02*
X1149Y1524D01*
X338Y750D02*
Y785D01*
X1133Y1408D02*
X1195Y1470D01*
X412Y800D02*
X502Y889D01*
X1219Y1394D02*
X1295Y1470D01*
X544Y845D02*
X566D01*
X1395Y1437D02*
Y1470D01*
X412Y900D02*
X430Y917D01*
X1408Y1557D02*
X1495Y1470D01*
X338Y950D02*
Y988D01*
X630Y1038D02*
X794Y1202D01*
X412Y1000D02*
X685D01*
X853Y1528D02*
X1395Y2070D01*
X338Y1050D02*
Y1088D01*
X1255Y2110D02*
X1295Y2070D01*
X412Y1100D02*
X658D01*
X1195Y1905D02*
Y2070D01*
X338Y1150D02*
Y1162D01*
X530D01*
X735Y1710D02*
X1095Y2070D01*
X412Y1200D02*
X479D01*
X955Y2030D02*
X995Y2070D01*
X338Y1250D02*
Y1294D01*
X855Y2110D02*
X895Y2070D01*
X412Y1300D02*
X500Y1388D01*
Y1775D02*
X795Y2070D01*
X338Y1350D02*
X361Y1373D01*
X451Y1826D02*
X695Y2070D01*
X2057Y1240D02*
X2095Y1278D01*
Y1470D01*
X412Y1500D02*
X465Y1553D01*
Y1808D02*
X535Y1878D01*
X846Y646D02*
X894D01*
X1218D02*
X1237D01*
X188Y1650D02*
X224Y1613D01*
X343Y1512D02*
X351Y1504D01*
X1249Y621D02*
X1275D01*
X1333Y604D02*
Y621D01*
X1507D02*
X1709Y823D01*
X1726Y1263D02*
Y1430D01*
X313Y326D02*
X362D01*
X224Y1690D02*
Y1856D01*
X451Y452D02*
X512D01*
X226Y1637D02*
X262Y1600D01*
X513Y453D02*
Y502D01*
X676Y443D02*
Y679D01*
X846Y666D02*
X906D01*
X1085D01*
X1089Y662D01*
X1177D02*
X1181Y666D01*
X1218D01*
X846Y685D02*
X882D01*
X1138Y652D02*
Y685D01*
X1014D02*
X1138D01*
X1218D01*
X149Y1589D02*
X188Y1550D01*
X529Y1299D02*
X579Y1349D01*
X147Y1500D02*
X262D01*
X135Y1513D02*
Y1889D01*
X1005Y705D02*
Y732D01*
X846Y705D02*
X1005D01*
X1218D01*
X579Y1808D02*
X688Y1917D01*
X846Y725D02*
X930D01*
X963Y758D01*
X1146Y725D02*
X1218D01*
X963Y758D02*
X1113D01*
X2298Y636D02*
Y738D01*
X2151Y1504D02*
X2164Y1517D01*
X1599Y582D02*
X1747D01*
X1748Y583D02*
Y636D01*
X2485Y1489D02*
Y1604D01*
X2495Y1470D02*
Y1489D01*
X2485D02*
X2495D01*
X1698Y636D02*
Y734D01*
X2585Y1470D02*
Y1604D01*
Y1470D02*
X2595D01*
Y1106D02*
Y1470D01*
X1648Y636D02*
Y733D01*
X2585Y1976D02*
Y1980D01*
X2595D01*
Y2024D01*
Y2070D01*
X2368Y2024D02*
X2595D01*
X1648Y204D02*
Y256D01*
X2485Y1974D02*
Y1976D01*
X2495Y2070D02*
X2527D01*
X2635Y2018D02*
X2705D01*
X2635Y1913D02*
Y2018D01*
Y2088D01*
X794Y629D02*
Y646D01*
X794D01*
X1848Y575D02*
Y636D01*
X846Y744D02*
X906D01*
X916D01*
X906D02*
X958Y796D01*
X967D01*
X1045D01*
X1115D01*
X916Y744D02*
X967Y796D01*
X975Y803D01*
X1167Y744D02*
X1218D01*
X975Y803D02*
X1045D01*
X846Y764D02*
X875D01*
X887D01*
X875D02*
X916Y805D01*
X887Y764D02*
X922Y799D01*
X950Y827D01*
X1194Y764D02*
X1218D01*
X846Y784D02*
X862D01*
X885Y806D01*
X921Y843D01*
X1205Y784D02*
Y813D01*
X881Y810D02*
X914Y843D01*
X1205Y784D02*
X1218D01*
X914Y843D02*
X921D01*
X1175D01*
X504Y303D02*
X533Y274D01*
X188Y1215D02*
Y1250D01*
X846Y476D02*
X884D01*
X1149D02*
X1218D01*
X1149D02*
Y491D01*
X1134D02*
X1149D01*
X93Y494D02*
X113Y474D01*
X262Y1200D02*
Y1238D01*
X846Y456D02*
X889D01*
X1202D02*
X1218D01*
X1100Y479D02*
X1117Y462D01*
X1076Y503D02*
X1100Y479D01*
X846Y437D02*
X928D01*
X1199D02*
X1218D01*
X1008Y453D02*
Y480D01*
X944Y453D02*
X1008D01*
X1103D01*
X846Y417D02*
X1032D01*
X1186D02*
X1186D01*
X1218D01*
X1173Y430D02*
X1186Y417D01*
X1173Y430D02*
X1186Y417D01*
X1045Y430D02*
X1046D01*
X1173D01*
X1173D01*
X188Y1050D02*
X287D01*
X556Y1369D02*
Y1597D01*
X1154Y398D02*
X1155Y397D01*
X1154Y398D02*
X1154Y398D01*
X846Y397D02*
X1155D01*
X1163D01*
X1218D01*
X1155Y407D02*
X1163D01*
X153Y1000D02*
X262D01*
X1040Y150D02*
X1203Y313D01*
X1168Y374D02*
Y378D01*
X846D02*
X1168D01*
Y374D02*
X1172Y378D01*
X1218D01*
X581Y333D02*
X603Y355D01*
X154Y916D02*
X188Y950D01*
X892Y349D02*
X897Y344D01*
X883Y358D02*
X892Y349D01*
X897Y344D02*
X898D01*
X1172D01*
X846Y358D02*
X883D01*
X895D01*
X898Y355D01*
X1186Y358D02*
X1218D01*
X238Y852D02*
Y900D01*
X262D01*
X822Y338D02*
X846D01*
X858D01*
X1191D02*
X1218D01*
D12*
X1536Y967D02*
X1537Y968D01*
X1536Y918D02*
Y967D01*
Y918D02*
X1537Y917D01*
X1594Y1990D02*
X1595Y1991D01*
X1763Y336D02*
X2030D01*
X1748Y322D02*
X1763Y336D01*
X2543Y741D02*
X2559Y725D01*
X2396Y741D02*
X2543D01*
X2395Y742D02*
X2396Y741D01*
X2550Y1656D02*
X2551Y1655D01*
X2353Y1364D02*
Y1550D01*
X2339Y1564D02*
X2353Y1550D01*
X2257Y1564D02*
X2339D01*
X2256Y1565D02*
X2257Y1564D01*
X1129Y1153D02*
X1145Y1138D01*
X1645Y1616D02*
X1646Y1615D01*
X1758D01*
X1783Y1590D01*
X2463Y2006D02*
X2503D01*
X2445Y1988D02*
X2463Y2006D01*
X2445Y1767D02*
X2485Y1727D01*
X1645Y1572D02*
X1695Y1522D01*
X1454Y861D02*
Y1169D01*
Y861D02*
X1475Y840D01*
X1635D02*
X1712Y917D01*
X2013Y1616D02*
X2014Y1615D01*
X1841Y1616D02*
X2013D01*
X688Y398D02*
X728Y358D01*
X444Y398D02*
X688D01*
X412Y430D02*
X444Y398D01*
X77Y1972D02*
X120Y2015D01*
X77Y445D02*
Y1972D01*
X1225Y1006D02*
X1241Y990D01*
X863Y859D02*
X1112D01*
X817Y813D02*
X863Y859D01*
X703Y813D02*
X817D01*
X489Y599D02*
X703Y813D01*
X489Y512D02*
Y599D01*
X477Y500D02*
X489Y512D01*
X1153Y1204D02*
X1170Y1188D01*
Y1059D02*
Y1188D01*
X2240Y1800D02*
X2262Y1822D01*
X2240Y1606D02*
Y1800D01*
X2438Y462D02*
X2439Y461D01*
Y252D02*
Y461D01*
X2325Y138D02*
X2439Y252D01*
X2237Y138D02*
X2325D01*
X2223Y153D02*
X2237Y138D01*
X2223Y153D02*
Y313D01*
X2585Y1655D02*
X2637Y1603D01*
Y930D02*
Y1603D01*
X2606Y900D02*
X2637Y930D01*
X1625Y994D02*
X1633Y986D01*
Y962D02*
Y986D01*
X1258Y971D02*
X1260D01*
X981Y1223D02*
X1000Y1204D01*
X981Y1223D02*
Y1254D01*
X1060Y1333D01*
X1374D01*
X1520Y2095D02*
X1538Y2112D01*
X1619Y1597D02*
X1620Y1596D01*
X1619Y1597D02*
Y1700D01*
X1632Y1712D01*
X1750D01*
X1837Y1800D01*
Y2088D01*
X1812Y2112D02*
X1837Y2088D01*
X1145Y1006D02*
X1146Y1005D01*
X1719Y979D02*
X1730Y968D01*
X1719Y979D02*
Y1067D01*
X1725Y1073D01*
X1526Y977D02*
X1536Y967D01*
X2400Y360D02*
X2413Y373D01*
X1798Y700D02*
X1892D01*
X728Y358D02*
X794D01*
X795D01*
X794Y338D02*
X795D01*
Y358D01*
X794D02*
Y378D01*
X794D02*
X794D01*
X794D02*
Y397D01*
Y417D01*
Y397D02*
X794D01*
X794Y417D02*
X794D01*
X795D01*
X77Y445D02*
X338Y185D01*
X412Y430D02*
Y500D01*
X477D01*
X795Y417D02*
Y437D01*
Y456D01*
X794Y437D02*
X795D01*
X794Y456D02*
X794D01*
X795D01*
X794D02*
Y476D01*
X794D01*
X1270Y646D02*
X1270D01*
Y666D01*
X1269D02*
X1270D01*
X1270D01*
X1269Y685D02*
X1270D01*
X1260Y764D02*
X1270D01*
X1270D01*
X1269Y666D02*
Y685D01*
Y705D01*
Y725D01*
Y705D02*
X1270D01*
X1269Y725D02*
X1270D01*
X1270D01*
Y744D01*
Y764D01*
X1260D02*
Y784D01*
Y845D01*
Y971D01*
X1270Y744D02*
X1270D01*
X1260Y784D02*
X1270D01*
X1112Y859D02*
X1241Y988D01*
X1258Y971D01*
X1223Y1006D02*
X1241Y988D01*
X1212Y1017D02*
X1223Y1006D01*
X1170Y1059D02*
X1212Y1017D01*
X1270Y784D02*
Y845D01*
X1241Y988D02*
Y990D01*
X1201Y1006D02*
X1223D01*
X1225D01*
X1281Y1076D02*
Y1102D01*
X120Y2015D02*
X338D01*
X1063Y1179D02*
X1063D01*
Y1204D01*
X1000D02*
X1063D01*
X1063D01*
X1153D01*
X1281Y1102D02*
X1355D01*
X1475Y840D02*
X1581D01*
X1635D01*
X1580Y1020D02*
X1581D01*
X1355Y1102D02*
X1438Y1186D01*
X1454Y1169D01*
X1368Y1256D02*
X1438Y1186D01*
X1281Y1256D02*
X1368D01*
X1374Y1333D02*
X1446Y1405D01*
X1571Y1990D02*
X1594D01*
X1748Y256D02*
Y322D01*
X1581Y943D02*
X1613D01*
X1712Y917D02*
X1718D01*
X1799D01*
X1800D01*
X1799Y892D02*
X1800D01*
Y917D01*
X1615Y945D02*
X1633Y927D01*
X1613Y943D02*
X1615Y945D01*
X1633Y962D01*
X1580Y994D02*
X1581D01*
X1625D01*
X1580D02*
Y1020D01*
X1674Y961D02*
X1718Y917D01*
X1674Y961D02*
Y1090D01*
X1655Y1049D02*
Y1090D01*
X2115Y421D02*
X2223Y313D01*
X2030Y336D02*
X2115Y421D01*
X2248Y554D01*
Y636D01*
X2413Y462D02*
Y462D01*
Y569D01*
Y462D02*
X2438D01*
X2395Y742D02*
Y848D01*
Y900D01*
X2606D01*
X2559Y707D02*
X2659D01*
X2559D02*
Y725D01*
X1655Y1090D02*
X1660D01*
X1674D01*
X1783Y1590D02*
X1815D01*
X1819D01*
X1820D01*
X1795Y1470D02*
X1820D01*
Y1590D01*
X2014D02*
X2031D01*
X2256Y1565D02*
Y1590D01*
X2239D02*
X2256D01*
X1595Y1991D02*
Y2070D01*
X1645Y1616D02*
Y1636D01*
X1815Y1590D02*
X1817Y1592D01*
X1841Y1616D01*
X2014Y1590D02*
Y1615D01*
X2248Y1598D02*
X2256Y1590D01*
X2240Y1606D02*
X2248Y1598D01*
X2353Y1364D02*
X2395Y1322D01*
X2485Y1656D02*
X2550D01*
X2551Y1655D02*
X2585D01*
X2445Y1767D02*
Y1822D01*
Y1988D01*
X2262Y1822D02*
X2445D01*
X2485Y1656D02*
Y1727D01*
X2585Y1655D02*
Y1656D01*
X2485Y1924D02*
X2535Y1974D01*
X2585Y1924D01*
X2503Y2006D02*
X2535Y1974D01*
X1146Y972D02*
Y1005D01*
X1145Y1006D02*
Y1138D01*
Y1006D02*
X1149D01*
X1537Y917D02*
X1581D01*
X1526Y977D02*
Y1079D01*
X1537Y968D02*
X1581D01*
X1062Y1128D02*
Y1153D01*
Y1128D02*
X1063D01*
X1062Y1153D02*
X1063D01*
X1129D01*
X1281Y1128D02*
X1281D01*
X1281Y1153D02*
X1281D01*
X705Y1636D02*
Y1849D01*
X864Y2008D01*
X1281Y1128D02*
Y1153D01*
Y1179D01*
X1281D01*
X1353D01*
X1353Y1179D01*
X1519Y1990D02*
X1520D01*
Y2070D01*
Y2095D01*
X1495Y2070D02*
X1520D01*
X1538Y2112D02*
X1737D01*
X1812D01*
X1798Y636D02*
Y700D01*
X1892D02*
X1905Y713D01*
X1730Y968D02*
X1799D01*
X1800D01*
X1799Y943D02*
X1800D01*
Y968D01*
X2298Y360D02*
X2400D01*
X2133Y956D02*
Y1058D01*
X2298Y179D02*
Y193D01*
Y256D01*
Y360D01*
Y525D01*
X2413Y373D02*
Y410D01*
X1695Y1090D02*
X1712D01*
X1725D01*
Y1073D02*
Y1090D01*
X1620Y1596D02*
X1645D01*
X1695Y1090D02*
Y1470D01*
Y1522D01*
X1645Y1572D02*
Y1584D01*
Y1596D01*
X2133Y1058D02*
X2210Y1134D01*
X1685Y1924D02*
X1735Y1974D01*
X1737Y1976D01*
Y2112D01*
X1735Y1974D02*
X1785Y1924D01*
D13*
X0Y2200D02*
X2800D01*
Y0D02*
Y2200D01*
X0Y0D02*
X2800D01*
X0D02*
Y2201D01*
D14*
X2587Y163D02*
D03*
Y263D02*
D03*
Y421D02*
D03*
Y521D02*
D03*
D15*
X1956Y1300D02*
D03*
X338Y550D02*
D03*
X262Y500D02*
D03*
X188Y550D02*
D03*
X412Y600D02*
D03*
X338Y650D02*
D03*
X262Y600D02*
D03*
X188Y650D02*
D03*
X412Y700D02*
D03*
X338Y750D02*
D03*
X262Y700D02*
D03*
X188Y750D02*
D03*
X412Y800D02*
D03*
X338Y850D02*
D03*
X262Y800D02*
D03*
X188Y850D02*
D03*
X412Y900D02*
D03*
X338Y950D02*
D03*
X262Y900D02*
D03*
X188Y950D02*
D03*
X412Y1000D02*
D03*
X338Y1050D02*
D03*
X262Y1000D02*
D03*
X188Y1050D02*
D03*
X412Y1100D02*
D03*
X338Y1150D02*
D03*
X262Y1100D02*
D03*
X188Y1150D02*
D03*
X412Y1200D02*
D03*
X338Y1250D02*
D03*
X262Y1200D02*
D03*
X188Y1250D02*
D03*
X412Y1300D02*
D03*
X338Y1350D02*
D03*
X262Y1300D02*
D03*
X188Y1350D02*
D03*
X412Y1400D02*
D03*
X338Y1450D02*
D03*
X262Y1400D02*
D03*
X188Y1450D02*
D03*
X412Y1500D02*
D03*
X338Y1550D02*
D03*
X262Y1500D02*
D03*
X188Y1550D02*
D03*
X412Y1600D02*
D03*
X338Y1650D02*
D03*
X262Y1600D02*
D03*
X188Y1650D02*
D03*
X412Y1700D02*
D03*
X262D02*
D03*
D16*
X1764Y1300D02*
D03*
D17*
X2395Y848D02*
D03*
Y1322D02*
D03*
D18*
X2288Y1036D02*
D03*
X2210D02*
D03*
Y1134D02*
D03*
X2288Y1134D02*
D03*
D19*
X412Y500D02*
D03*
D20*
X338Y185D02*
D03*
Y2015D02*
D03*
D21*
X695Y1470D02*
D03*
D22*
X795D02*
D03*
X895D02*
D03*
X995D02*
D03*
X1095D02*
D03*
X1195D02*
D03*
X1295D02*
D03*
X1395D02*
D03*
X1495D02*
D03*
X1595D02*
D03*
X1695D02*
D03*
X1795D02*
D03*
X1895D02*
D03*
X1995D02*
D03*
X2095D02*
D03*
X2195D02*
D03*
X2295D02*
D03*
X2395D02*
D03*
X2495D02*
D03*
X2595D02*
D03*
X695Y2070D02*
D03*
X795D02*
D03*
X895D02*
D03*
X995D02*
D03*
X1095D02*
D03*
X1195D02*
D03*
X1295D02*
D03*
X1395D02*
D03*
X1495D02*
D03*
X1595D02*
D03*
X1695D02*
D03*
X1795D02*
D03*
X1895D02*
D03*
X1995D02*
D03*
X2095D02*
D03*
X2195D02*
D03*
X2295D02*
D03*
X2395D02*
D03*
X2495D02*
D03*
X2595D02*
D03*
D23*
X1270Y845D02*
D03*
X2413Y569D02*
D03*
X2325Y1791D02*
D03*
X2057Y1240D02*
D03*
X1114Y1123D02*
D03*
X1045Y803D02*
D03*
X1599Y582D02*
D03*
X1008Y1243D02*
D03*
X1421Y1793D02*
D03*
X1849Y853D02*
D03*
X1448Y598D02*
D03*
X1744Y1006D02*
D03*
X1799Y1148D02*
D03*
X2472Y1094D02*
D03*
X2021Y991D02*
D03*
X727Y787D02*
D03*
X1948Y413D02*
D03*
X554Y423D02*
D03*
X2098Y512D02*
D03*
X617Y470D02*
D03*
X2395Y1783D02*
D03*
X1633Y927D02*
D03*
X1655Y1049D02*
D03*
X1446Y1405D02*
D03*
X2298Y179D02*
D03*
X2133Y956D02*
D03*
X2298Y193D02*
D03*
X1353Y1179D02*
D03*
X1146Y972D02*
D03*
X864Y2008D02*
D03*
X1526Y1079D02*
D03*
X2298Y525D02*
D03*
X1905Y713D02*
D03*
X563Y945D02*
D03*
X592Y836D02*
D03*
X520Y764D02*
D03*
Y678D02*
D03*
X544Y845D02*
D03*
X794Y1202D02*
D03*
X535Y1878D02*
D03*
X1333Y621D02*
D03*
X351Y1504D02*
D03*
X1726Y1430D02*
D03*
X1507Y621D02*
D03*
X1275D02*
D03*
X1177Y662D02*
D03*
X1089D02*
D03*
X224Y1856D02*
D03*
X313Y326D02*
D03*
X362D02*
D03*
X451Y452D02*
D03*
X513Y502D02*
D03*
X676Y443D02*
D03*
Y679D02*
D03*
X906Y666D02*
D03*
X135Y1889D02*
D03*
X688Y1917D02*
D03*
X529Y1299D02*
D03*
X1005Y732D02*
D03*
X963Y758D02*
D03*
X2164Y1517D02*
D03*
X916Y805D02*
D03*
X881Y810D02*
D03*
X1149Y491D02*
D03*
X533Y274D02*
D03*
X1100Y479D02*
D03*
X113Y474D02*
D03*
X1008Y480D02*
D03*
X1046Y430D02*
D03*
X1163Y407D02*
D03*
X556Y1597D02*
D03*
X1168Y374D02*
D03*
X1203Y313D02*
D03*
X603Y355D02*
D03*
X898D02*
D03*
D24*
X1871Y1590D02*
D03*
X1819D02*
D03*
X2291D02*
D03*
X2239D02*
D03*
X1519Y1990D02*
D03*
X1571D02*
D03*
X1660Y1090D02*
D03*
X1712D02*
D03*
X1201Y1006D02*
D03*
X1149D02*
D03*
X2031Y1590D02*
D03*
X1979D02*
D03*
D25*
X1645Y1584D02*
D03*
Y1636D02*
D03*
X705D02*
D03*
Y1584D02*
D03*
X2485Y1604D02*
D03*
Y1656D02*
D03*
X2585Y1604D02*
D03*
Y1656D02*
D03*
Y1976D02*
D03*
Y1924D02*
D03*
X2485Y1976D02*
D03*
Y1924D02*
D03*
X2305Y1704D02*
D03*
Y1756D02*
D03*
X2413Y462D02*
D03*
Y410D02*
D03*
X2659Y655D02*
D03*
Y707D02*
D03*
X1785Y1976D02*
D03*
Y1924D02*
D03*
X1685Y1976D02*
D03*
Y1924D02*
D03*
X2559Y707D02*
D03*
Y655D02*
D03*
D26*
X846Y646D02*
D03*
X794D02*
D03*
X846Y666D02*
D03*
X794D02*
D03*
X846Y685D02*
D03*
X794D02*
D03*
X846Y705D02*
D03*
X794D02*
D03*
X846Y725D02*
D03*
X794D02*
D03*
X846Y744D02*
D03*
X794D02*
D03*
X846Y764D02*
D03*
X794D02*
D03*
X846Y784D02*
D03*
X794D02*
D03*
X1270Y646D02*
D03*
X1218D02*
D03*
X1270Y666D02*
D03*
X1218D02*
D03*
X1270Y685D02*
D03*
X1218D02*
D03*
X1270Y705D02*
D03*
X1218D02*
D03*
X1270Y725D02*
D03*
X1218D02*
D03*
X1270Y744D02*
D03*
X1218D02*
D03*
X1270Y764D02*
D03*
X1218D02*
D03*
X1270Y784D02*
D03*
X1218D02*
D03*
X846Y338D02*
D03*
X794D02*
D03*
X846Y358D02*
D03*
X794D02*
D03*
X846Y378D02*
D03*
X794D02*
D03*
X846Y397D02*
D03*
X794D02*
D03*
X846Y417D02*
D03*
X794D02*
D03*
X846Y437D02*
D03*
X794D02*
D03*
X846Y456D02*
D03*
X794D02*
D03*
X846Y476D02*
D03*
X794D02*
D03*
X1270Y338D02*
D03*
X1218D02*
D03*
X1270Y358D02*
D03*
X1218D02*
D03*
X1270Y378D02*
D03*
X1218D02*
D03*
X1270Y397D02*
D03*
X1218D02*
D03*
X1270Y417D02*
D03*
X1218D02*
D03*
X1270Y437D02*
D03*
X1218D02*
D03*
X1270Y456D02*
D03*
X1218D02*
D03*
X1270Y476D02*
D03*
X1218D02*
D03*
D27*
X1281Y1256D02*
D03*
Y1230D02*
D03*
Y1204D02*
D03*
Y1179D02*
D03*
Y1153D02*
D03*
Y1128D02*
D03*
Y1102D02*
D03*
Y1076D02*
D03*
X1063Y1256D02*
D03*
Y1230D02*
D03*
Y1204D02*
D03*
Y1179D02*
D03*
Y1153D02*
D03*
Y1128D02*
D03*
Y1102D02*
D03*
Y1076D02*
D03*
X1581Y840D02*
D03*
Y866D02*
D03*
Y892D02*
D03*
Y917D02*
D03*
Y943D02*
D03*
Y968D02*
D03*
Y994D02*
D03*
Y1020D02*
D03*
X1799Y840D02*
D03*
Y866D02*
D03*
Y892D02*
D03*
Y917D02*
D03*
Y943D02*
D03*
Y968D02*
D03*
Y994D02*
D03*
Y1020D02*
D03*
D28*
X1648Y636D02*
D03*
X1698D02*
D03*
X1748D02*
D03*
X1798D02*
D03*
X1848D02*
D03*
X1898D02*
D03*
X1948D02*
D03*
X1998D02*
D03*
X2048D02*
D03*
X2098D02*
D03*
X2148D02*
D03*
X2198D02*
D03*
X2248D02*
D03*
X2298D02*
D03*
X1648Y256D02*
D03*
X1698D02*
D03*
X1748D02*
D03*
X1798D02*
D03*
X1848D02*
D03*
X1898D02*
D03*
X1948D02*
D03*
X1998D02*
D03*
X2048D02*
D03*
X2098D02*
D03*
X2148D02*
D03*
X2198D02*
D03*
X2248D02*
D03*
X2298D02*
D03*
M02*
