%FSLAX23Y23*%
%MOIN*%
G70*
G01*
G75*
%ADD10R,0.134X0.071*%
%ADD11C,0.008*%
%ADD12C,0.012*%
%ADD13C,0.010*%
%ADD14C,0.063*%
%ADD15C,0.055*%
%ADD16P,0.055X8X0*%
%ADD17C,0.180*%
%ADD18C,0.065*%
%ADD19R,0.055X0.055*%
%ADD20C,0.217*%
%ADD21R,0.059X0.059*%
%ADD22C,0.059*%
%ADD23C,0.025*%
%ADD24R,0.035X0.028*%
%ADD25R,0.028X0.035*%
%ADD26R,0.031X0.012*%
%ADD27R,0.065X0.012*%
%ADD28R,0.024X0.087*%
%ADD29C,0.008*%
%ADD30C,0.007*%
%ADD31C,0.009*%
%ADD32C,0.006*%
%ADD33R,0.008X0.020*%
%ADD34R,0.008X0.020*%
D12*
X1344Y1352D02*
X1358Y1345D01*
X1326D02*
X1344Y1352D01*
X872Y422D02*
X904Y429D01*
X840Y419D02*
X872Y422D01*
X805Y408D02*
X840Y419D01*
X752Y394D02*
X805Y408D01*
X731D02*
X752Y394D01*
X720Y443D02*
X731Y408D01*
X720Y443D02*
X724Y472D01*
X742Y486D01*
X784D01*
X837Y468D01*
X904Y429D01*
X985Y609D02*
X1009Y619D01*
X974Y577D02*
X985Y609D01*
X1111Y591D02*
X1118Y581D01*
X1087Y609D02*
X1111Y591D01*
X1034Y626D02*
X1066Y619D01*
X1034Y626D02*
X1044Y651D01*
X1009Y619D02*
X1034Y626D01*
X1002Y633D02*
X1009Y619D01*
X988Y637D02*
X1002Y633D01*
X967Y637D02*
X988D01*
X953Y619D02*
X967Y637D01*
X949Y602D02*
X953Y619D01*
X949Y602D02*
X956Y584D01*
X953Y510D02*
X974Y577D01*
X953Y482D02*
Y510D01*
Y482D02*
X963Y457D01*
X974Y450D01*
X992Y436D01*
X1020D01*
X1027Y405D01*
X1041Y383D01*
X1066Y366D01*
X1097Y369D01*
X1118Y387D01*
X1129Y415D01*
X1122Y436D02*
X1129Y415D01*
X1111Y457D02*
X1122Y436D01*
X1083Y472D02*
X1111Y457D01*
X1083Y472D02*
X1111Y545D01*
X1143Y570D02*
Y595D01*
X1136Y612D02*
X1143Y595D01*
X1115Y619D02*
X1136Y612D01*
X1097Y623D02*
X1115Y619D01*
X1087Y609D02*
X1097Y623D01*
X1066Y619D02*
X1087Y609D01*
X1066Y619D02*
X1080Y648D01*
X851Y993D02*
X882Y972D01*
X823Y1003D02*
X851Y993D01*
X791Y996D02*
X823Y1003D01*
X766Y979D02*
X791Y996D01*
X745Y950D02*
X766Y979D01*
X728Y922D02*
X745Y950D01*
X720Y887D02*
X728Y922D01*
X720Y887D02*
X724Y855D01*
X731Y834D01*
X745Y810D01*
X766Y785D01*
X801Y767D01*
X879Y785D01*
X889Y760D01*
X907Y732D01*
X935Y700D01*
X970Y676D01*
X1020Y655D01*
X1062Y648D01*
X1108D01*
X1157Y655D01*
X1192Y672D01*
X1228Y704D01*
X1256Y750D01*
X1382Y1035D01*
X1020Y1257D02*
X1076Y1260D01*
X953Y1239D02*
X1020Y1257D01*
X907Y1211D02*
X953Y1239D01*
X882Y972D02*
X907Y1211D01*
X1323Y1324D02*
X1333Y1317D01*
X1354Y1320D01*
X1358Y1345D01*
X1323Y1324D02*
X1326Y1345D01*
X1235Y1215D02*
X1249Y1243D01*
X1284Y1285D01*
X1323Y1324D01*
X1280Y1310D02*
X1323Y1324D01*
X1228Y1274D02*
X1280Y1310D01*
X1192Y1239D02*
X1228Y1274D01*
X1375Y1056D02*
X1382Y1035D01*
X1344Y1102D02*
X1375Y1056D01*
X1309Y1151D02*
X1344Y1102D01*
X1252Y1204D02*
X1309Y1151D01*
X1192Y1239D02*
X1252Y1204D01*
X1147Y1257D02*
X1192Y1239D01*
X1076Y1260D02*
X1147Y1257D01*
D13*
X2545Y303D02*
G03*
X2629Y303I42J-89D01*
G01*
X2545Y560D02*
G03*
X2629Y560I42J-89D01*
G01*
X2545Y302D02*
X2629D01*
X2147Y1322D02*
X2295D01*
X2147Y848D02*
X2295D01*
X2147D02*
Y1322D01*
X2495Y848D02*
X2801D01*
X2495Y1322D02*
X2801D01*
Y848D02*
Y1322D01*
X2545Y560D02*
X2629D01*
X495Y120D02*
Y100D01*
Y110D01*
X545D01*
X555Y100D01*
Y90D01*
X545Y80D01*
X555Y140D02*
Y160D01*
Y150D01*
X495D01*
X505Y140D01*
X2055Y893D02*
Y873D01*
Y883D01*
X2105D01*
X2115Y873D01*
Y863D01*
X2105Y853D01*
X2115Y953D02*
Y913D01*
X2075Y953D01*
X2065D01*
X2055Y943D01*
Y923D01*
X2065Y913D01*
X1550Y1210D02*
X1560D01*
X1580Y1230D01*
X1560Y1250D01*
X1550D01*
X1580Y1230D02*
X1610D01*
Y1270D02*
Y1290D01*
Y1280D01*
X1550D01*
X1560Y1270D01*
X1755Y890D02*
X1745Y880D01*
Y860D01*
X1755Y850D01*
X1795D01*
X1805Y860D01*
Y880D01*
X1795Y890D01*
X1745Y950D02*
X1755Y930D01*
X1775Y910D01*
X1795D01*
X1805Y920D01*
Y940D01*
X1795Y950D01*
X1785D01*
X1775Y940D01*
Y910D01*
X2177Y193D02*
Y253D01*
X2207D01*
X2217Y243D01*
Y223D01*
X2207Y213D01*
X2177D01*
X2247Y193D02*
X2267D01*
X2277Y203D01*
Y223D01*
X2267Y233D01*
X2247D01*
X2237Y223D01*
Y203D01*
X2247Y193D01*
X2297Y233D02*
Y203D01*
X2307Y193D01*
X2317Y203D01*
X2327Y193D01*
X2337Y203D01*
Y233D01*
X2387Y193D02*
X2367D01*
X2357Y203D01*
Y223D01*
X2367Y233D01*
X2387D01*
X2397Y223D01*
Y213D01*
X2357D01*
X2417Y233D02*
Y193D01*
Y213D01*
X2427Y223D01*
X2437Y233D01*
X2447D01*
X2164Y498D02*
X2154Y508D01*
X2134D01*
X2124Y498D01*
Y488D01*
X2134Y478D01*
X2154D01*
X2164Y468D01*
Y458D01*
X2154Y448D01*
X2134D01*
X2124Y458D01*
X2194Y498D02*
Y488D01*
X2184D01*
X2204D01*
X2194D01*
Y458D01*
X2204Y448D01*
X2244Y488D02*
X2264D01*
X2274Y478D01*
Y448D01*
X2244D01*
X2234Y458D01*
X2244Y468D01*
X2274D01*
X2304Y498D02*
Y488D01*
X2294D01*
X2314D01*
X2304D01*
Y458D01*
X2314Y448D01*
X2344Y488D02*
Y458D01*
X2354Y448D01*
X2384D01*
Y488D01*
X2404Y448D02*
X2434D01*
X2444Y458D01*
X2434Y468D01*
X2414D01*
X2404Y478D01*
X2414Y488D01*
X2444D01*
X531Y1942D02*
X581D01*
X591Y1952D01*
Y1972D01*
X581Y1982D01*
X531D01*
X591Y2002D02*
Y2022D01*
Y2012D01*
X531D01*
X541Y2002D01*
X660Y80D02*
X640Y100D01*
Y120D01*
X660Y140D01*
X730Y130D02*
X720Y140D01*
X700D01*
X690Y130D01*
Y90D01*
X700Y80D01*
X720D01*
X730Y90D01*
X750Y80D02*
X770Y100D01*
Y120D01*
X750Y140D01*
X900Y80D02*
X860D01*
X900Y120D01*
Y130D01*
X890Y140D01*
X870D01*
X860Y130D01*
X920D02*
X930Y140D01*
X950D01*
X960Y130D01*
Y90D01*
X950Y80D01*
X930D01*
X920Y90D01*
Y130D01*
X980D02*
X990Y140D01*
X1010D01*
X1020Y130D01*
Y90D01*
X1010Y80D01*
X990D01*
X980Y90D01*
Y130D01*
X1070Y80D02*
Y140D01*
X1040Y110D01*
X1080D01*
X1160Y80D02*
Y140D01*
X1180Y120D01*
X1200Y140D01*
Y80D01*
X1220D02*
X1240D01*
X1230D01*
Y120D01*
X1220D01*
X1310D02*
X1280D01*
X1270Y110D01*
Y90D01*
X1280Y80D01*
X1310D01*
X1340Y120D02*
X1360D01*
X1370Y110D01*
Y80D01*
X1340D01*
X1330Y90D01*
X1340Y100D01*
X1370D01*
X1390Y140D02*
Y80D01*
Y110D01*
X1400Y120D01*
X1420D01*
X1430Y110D01*
Y80D01*
X1510Y140D02*
Y80D01*
X1540D01*
X1550Y90D01*
Y130D01*
X1540Y140D01*
X1510D01*
X1580Y80D02*
X1600D01*
X1610Y90D01*
Y110D01*
X1600Y120D01*
X1580D01*
X1570Y110D01*
Y90D01*
X1580Y80D01*
X1630Y120D02*
Y90D01*
X1640Y80D01*
X1650Y90D01*
X1660Y80D01*
X1670Y90D01*
Y120D01*
X1700Y130D02*
Y120D01*
X1690D01*
X1710D01*
X1700D01*
Y90D01*
X1710Y80D01*
X1740Y120D02*
Y90D01*
X1750Y80D01*
X1780D01*
Y70D01*
X1770Y60D01*
X1760D01*
X1780Y80D02*
Y120D01*
X640Y220D02*
Y180D01*
Y200D01*
X650Y210D01*
X660Y220D01*
X670D01*
X740D02*
X710D01*
X700Y210D01*
Y190D01*
X710Y180D01*
X740D01*
X760Y160D02*
Y220D01*
X790D01*
X800Y210D01*
Y190D01*
X790Y180D01*
X760D01*
X830D02*
X850D01*
X860Y190D01*
Y210D01*
X850Y220D01*
X830D01*
X820Y210D01*
Y190D01*
X830Y180D01*
X920Y240D02*
Y180D01*
X890D01*
X880Y190D01*
Y210D01*
X890Y220D01*
X920D01*
X940Y210D02*
X980D01*
X1040Y240D02*
Y180D01*
X1010D01*
X1000Y190D01*
Y210D01*
X1010Y220D01*
X1040D01*
X1060Y240D02*
Y180D01*
X1090D01*
X1100Y190D01*
Y200D01*
Y210D01*
X1090Y220D01*
X1060D01*
X1160Y240D02*
X1120D01*
Y210D01*
X1140Y220D01*
X1150D01*
X1160Y210D01*
Y190D01*
X1150Y180D01*
X1130D01*
X1120Y190D01*
X1180Y230D02*
X1190Y240D01*
X1210D01*
X1220Y230D01*
Y190D01*
X1210Y180D01*
X1190D01*
X1180Y190D01*
Y230D01*
X1300Y220D02*
Y180D01*
Y200D01*
X1310Y210D01*
X1320Y220D01*
X1330D01*
X1390Y180D02*
X1370D01*
X1360Y190D01*
Y210D01*
X1370Y220D01*
X1390D01*
X1400Y210D01*
Y200D01*
X1360D01*
X1420Y220D02*
X1440Y180D01*
X1460Y220D01*
X1540Y180D02*
Y220D01*
X1560Y240D01*
X1580Y220D01*
Y180D01*
Y210D01*
X1540D01*
X0Y2200D02*
X2800D01*
Y0D02*
Y2200D01*
X0Y0D02*
X2800D01*
X0D02*
Y2201D01*
D29*
X619Y1745D02*
G03*
X619Y1795I0J25D01*
G01*
X1636Y1207D02*
X2084D01*
Y1393D01*
X1636D02*
X2084D01*
X1636Y1207D02*
Y1393D01*
X98Y1769D02*
X464D01*
X101Y431D02*
X464D01*
Y69D02*
Y2131D01*
X-1D02*
X464D01*
X-1Y69D02*
Y2131D01*
Y69D02*
X464D01*
X98D02*
Y2131D01*
X619Y1516D02*
Y1745D01*
Y1795D02*
Y2024D01*
X2671Y1516D02*
Y2024D01*
X619Y1516D02*
X2671D01*
X619Y2024D02*
X2671D01*
X1837Y1134D02*
X2003D01*
X1837Y866D02*
X2003D01*
Y1050D02*
Y1134D01*
Y866D02*
Y950D01*
X1837Y1050D02*
Y1134D01*
Y866D02*
Y950D01*
D30*
X1030Y567D02*
X1037Y581D01*
X1020Y567D02*
X1030D01*
X1016Y577D02*
X1020Y567D01*
X974Y521D02*
X988Y577D01*
X974Y521D02*
X1048Y507D01*
X1066Y563D01*
X1037Y581D02*
X1066Y563D01*
X1034Y588D02*
X1037Y581D01*
X1023Y584D02*
X1034Y588D01*
X1016Y577D02*
X1023Y584D01*
X988Y577D02*
X1016D01*
X1069Y475D02*
X1083Y472D01*
X1048Y468D02*
X1069Y475D01*
X1030Y454D02*
X1048Y468D01*
X1020Y436D02*
X1030Y454D01*
X752Y394D02*
X763Y415D01*
X766Y436D01*
X763Y464D02*
X766Y436D01*
X742Y486D02*
X763Y464D01*
X995Y693D02*
Y722D01*
X1016Y693D02*
Y722D01*
X1034Y690D02*
X1037Y722D01*
X967Y704D02*
X1009Y711D01*
X1059Y704D01*
Y957D02*
X1090Y975D01*
X1030Y929D02*
X1059Y957D01*
X1009Y880D02*
X1030Y929D01*
X1009Y834D02*
Y880D01*
Y834D02*
X1014Y798D01*
X1034Y771D01*
X1060Y742D01*
X1087Y732D01*
X1115Y725D01*
X1147Y729D01*
X1181Y742D01*
X1217Y778D01*
X1239Y815D01*
X1249Y866D01*
X1238Y912D02*
X1249Y866D01*
X1220Y933D02*
X1238Y912D01*
X1192Y957D02*
X1220Y933D01*
X1147Y975D02*
X1192Y957D01*
X879Y785D02*
X911Y795D01*
X925Y806D01*
X939Y831D01*
X953Y876D01*
X949Y915D02*
X953Y876D01*
X882Y972D02*
X949Y915D01*
X826Y771D02*
X858Y799D01*
X875Y824D01*
X889Y855D01*
Y912D01*
X879Y950D02*
X889Y912D01*
X851Y993D02*
X879Y950D01*
X921Y486D02*
X928Y500D01*
X914Y514D02*
X928Y500D01*
X967Y545D01*
X1111D02*
Y563D01*
X1118Y581D01*
X956Y584D02*
X974Y577D01*
X1111Y545D02*
X1122Y549D01*
X1132Y560D02*
X1143Y570D01*
X1088Y975D02*
X1101D01*
X1145D01*
D31*
X928Y542D02*
X949Y535D01*
X942Y563D02*
X963Y556D01*
X1136Y535D02*
X1150Y545D01*
X1199Y468D02*
X1280Y464D01*
X1231Y489D02*
X1280Y464D01*
X1206Y482D02*
X1231Y489D01*
X1171Y479D02*
X1175Y486D01*
X1171Y479D02*
X1182Y468D01*
X1199D01*
X1206Y482D01*
X1192Y493D02*
X1206Y482D01*
X1175Y486D02*
X1192Y493D01*
X830Y496D02*
X904Y486D01*
X830Y496D02*
X868Y517D01*
X900Y500D01*
X904Y486D02*
X921D01*
X900Y500D02*
X904Y486D01*
X900Y500D02*
X914Y514D01*
X956Y584D01*
X1143Y570D02*
X1175Y486D01*
X1122Y549D02*
X1175Y486D01*
X1122Y549D02*
X1132Y560D01*
D32*
X79Y1690D02*
Y1651D01*
X39Y1690D01*
X30D01*
X20Y1680D01*
Y1661D01*
X30Y1651D01*
X20Y1749D02*
X30Y1730D01*
X49Y1710D01*
X69D01*
X79Y1720D01*
Y1739D01*
X69Y1749D01*
X59D01*
X49Y1739D01*
Y1710D01*
X20Y490D02*
Y451D01*
X49D01*
X39Y470D01*
Y480D01*
X49Y490D01*
X69D01*
X79Y480D01*
Y461D01*
X69Y451D01*
X30Y510D02*
X20Y520D01*
Y539D01*
X30Y549D01*
X69D01*
X79Y539D01*
Y520D01*
X69Y510D01*
X30D01*
X541Y1690D02*
Y1651D01*
X502Y1690D01*
X492D01*
X482Y1680D01*
Y1661D01*
X492Y1651D01*
X482Y1749D02*
Y1710D01*
X512D01*
X502Y1730D01*
Y1739D01*
X512Y1749D01*
X532D01*
X541Y1739D01*
Y1720D01*
X532Y1710D01*
X541Y490D02*
Y510D01*
Y500D01*
X482D01*
X492Y490D01*
D33*
X1829Y918D02*
D03*
D34*
X2011D02*
D03*
M02*
