%FSLAX23Y23*%
%MOIN*%
G70*
G01*
G75*
%ADD10R,0.012X0.031*%
%ADD11R,0.134X0.071*%
%ADD12C,0.008*%
%ADD13C,0.008*%
%ADD14C,0.012*%
%ADD15C,0.010*%
%ADD16C,0.063*%
%ADD17C,0.055*%
%ADD18C,0.180*%
%ADD19C,0.065*%
%ADD20R,0.059X0.059*%
%ADD21C,0.059*%
%ADD22R,0.065X0.065*%
%ADD23C,0.217*%
%ADD24C,0.025*%
%ADD25R,0.024X0.087*%
%ADD26R,0.035X0.028*%
%ADD27R,0.065X0.012*%
%ADD28R,0.028X0.035*%
%ADD29C,0.008*%
%ADD30C,0.007*%
%ADD31C,0.009*%
%ADD32R,0.008X0.020*%
%ADD33R,0.008X0.020*%
D14*
X684Y1073D02*
X698Y1066D01*
X666D02*
X684Y1073D01*
X212Y143D02*
X244Y150D01*
X180Y140D02*
X212Y143D01*
X145Y129D02*
X180Y140D01*
X92Y115D02*
X145Y129D01*
X71D02*
X92Y115D01*
X60Y164D02*
X71Y129D01*
X60Y164D02*
X64Y193D01*
X82Y207D01*
X124D01*
X177Y189D01*
X244Y150D01*
X325Y330D02*
X349Y340D01*
X314Y298D02*
X325Y330D01*
X451Y312D02*
X458Y302D01*
X427Y330D02*
X451Y312D01*
X374Y347D02*
X406Y340D01*
X374Y347D02*
X384Y372D01*
X349Y340D02*
X374Y347D01*
X342Y354D02*
X349Y340D01*
X328Y358D02*
X342Y354D01*
X307Y358D02*
X328D01*
X293Y340D02*
X307Y358D01*
X289Y323D02*
X293Y340D01*
X289Y323D02*
X296Y305D01*
X293Y231D02*
X314Y298D01*
X293Y203D02*
Y231D01*
Y203D02*
X303Y178D01*
X314Y171D01*
X332Y157D01*
X360D01*
X367Y126D01*
X381Y104D01*
X406Y87D01*
X437Y90D01*
X458Y108D01*
X469Y136D01*
X462Y157D02*
X469Y136D01*
X451Y178D02*
X462Y157D01*
X423Y193D02*
X451Y178D01*
X423Y193D02*
X451Y266D01*
X483Y291D02*
Y316D01*
X476Y333D02*
X483Y316D01*
X455Y340D02*
X476Y333D01*
X437Y344D02*
X455Y340D01*
X427Y330D02*
X437Y344D01*
X406Y340D02*
X427Y330D01*
X406Y340D02*
X420Y369D01*
X191Y714D02*
X222Y693D01*
X163Y724D02*
X191Y714D01*
X131Y717D02*
X163Y724D01*
X106Y700D02*
X131Y717D01*
X85Y671D02*
X106Y700D01*
X68Y643D02*
X85Y671D01*
X60Y608D02*
X68Y643D01*
X60Y608D02*
X64Y576D01*
X71Y555D01*
X85Y531D01*
X106Y506D01*
X141Y488D01*
X219Y506D01*
X229Y481D01*
X247Y453D01*
X275Y421D01*
X310Y397D01*
X360Y376D01*
X402Y369D01*
X448D01*
X497Y376D01*
X532Y393D01*
X568Y425D01*
X596Y471D01*
X722Y756D01*
X360Y978D02*
X416Y981D01*
X293Y960D02*
X360Y978D01*
X247Y932D02*
X293Y960D01*
X222Y693D02*
X247Y932D01*
X663Y1045D02*
X673Y1038D01*
X694Y1041D01*
X698Y1066D01*
X663Y1045D02*
X666Y1066D01*
X575Y936D02*
X589Y964D01*
X624Y1006D01*
X663Y1045D01*
X620Y1031D02*
X663Y1045D01*
X568Y995D02*
X620Y1031D01*
X532Y960D02*
X568Y995D01*
X715Y777D02*
X722Y756D01*
X684Y823D02*
X715Y777D01*
X649Y872D02*
X684Y823D01*
X592Y925D02*
X649Y872D01*
X532Y960D02*
X592Y925D01*
X487Y978D02*
X532Y960D01*
X416Y981D02*
X487Y978D01*
D15*
X2665Y271D02*
G03*
X2749Y271I42J-89D01*
G01*
X2665Y529D02*
G03*
X2749Y529I42J-89D01*
G01*
X2665Y271D02*
X2749D01*
X1692Y500D02*
Y648D01*
X1218Y500D02*
Y648D01*
X1692D01*
X1218Y-6D02*
Y300D01*
X1692Y-6D02*
Y300D01*
X1218Y-6D02*
X1692D01*
X2665Y529D02*
X2749D01*
X2440Y1850D02*
X2400D01*
Y1820D01*
X2420Y1830D01*
X2430D01*
X2440Y1820D01*
Y1800D01*
X2430Y1790D01*
X2410D01*
X2400Y1800D01*
X2460Y1840D02*
X2470Y1850D01*
X2490D01*
X2500Y1840D01*
Y1800D01*
X2490Y1790D01*
X2470D01*
X2460Y1800D01*
Y1840D01*
X2400Y1940D02*
X2410Y1950D01*
X2430D01*
X2440Y1940D01*
Y1930D01*
X2430Y1920D01*
X2420D01*
X2430D01*
X2440Y1910D01*
Y1900D01*
X2430Y1890D01*
X2410D01*
X2400Y1900D01*
X2460Y1940D02*
X2470Y1950D01*
X2490D01*
X2500Y1940D01*
Y1930D01*
X2490Y1920D01*
X2480D01*
X2490D01*
X2500Y1910D01*
Y1900D01*
X2490Y1890D01*
X2470D01*
X2460Y1900D01*
X2410Y2000D02*
X2430D01*
X2420D01*
Y2060D01*
X2410Y2050D01*
X2460Y2060D02*
X2500D01*
Y2050D01*
X2460Y2010D01*
Y2000D01*
X440Y1830D02*
X450Y1840D01*
X470D01*
X480Y1830D01*
Y1820D01*
X470Y1810D01*
X460D01*
X470D01*
X480Y1800D01*
Y1790D01*
X470Y1780D01*
X450D01*
X440Y1790D01*
X530Y1780D02*
Y1840D01*
X500Y1810D01*
X540D01*
X450Y1890D02*
X470D01*
X460D01*
Y1950D01*
X450Y1940D01*
X500D02*
X510Y1950D01*
X530D01*
X540Y1940D01*
Y1930D01*
X530Y1920D01*
X540Y1910D01*
Y1900D01*
X530Y1890D01*
X510D01*
X500Y1900D01*
Y1910D01*
X510Y1920D01*
X500Y1930D01*
Y1940D01*
X510Y1920D02*
X530D01*
X510Y2000D02*
X530D01*
X520D01*
Y2060D01*
X510Y2050D01*
X60Y2210D02*
Y2170D01*
Y2190D01*
X70Y2200D01*
X80Y2210D01*
X90D01*
X160D02*
X130D01*
X120Y2200D01*
Y2180D01*
X130Y2170D01*
X160D01*
X180Y2150D02*
Y2210D01*
X210D01*
X220Y2200D01*
Y2180D01*
X210Y2170D01*
X180D01*
X250D02*
X270D01*
X280Y2180D01*
Y2200D01*
X270Y2210D01*
X250D01*
X240Y2200D01*
Y2180D01*
X250Y2170D01*
X340Y2230D02*
Y2170D01*
X310D01*
X300Y2180D01*
Y2200D01*
X310Y2210D01*
X340D01*
X360Y2200D02*
X400D01*
X460Y2230D02*
Y2170D01*
X430D01*
X420Y2180D01*
Y2200D01*
X430Y2210D01*
X460D01*
X480Y2230D02*
Y2170D01*
X510D01*
X520Y2180D01*
Y2190D01*
Y2200D01*
X510Y2210D01*
X480D01*
X580Y2230D02*
X540D01*
Y2200D01*
X560Y2210D01*
X570D01*
X580Y2200D01*
Y2180D01*
X570Y2170D01*
X550D01*
X540Y2180D01*
X600Y2220D02*
X610Y2230D01*
X630D01*
X640Y2220D01*
Y2180D01*
X630Y2170D01*
X610D01*
X600Y2180D01*
Y2220D01*
X720Y2210D02*
Y2170D01*
Y2190D01*
X730Y2200D01*
X740Y2210D01*
X750D01*
X810Y2170D02*
X790D01*
X780Y2180D01*
Y2200D01*
X790Y2210D01*
X810D01*
X820Y2200D01*
Y2190D01*
X780D01*
X840Y2210D02*
X860Y2170D01*
X880Y2210D01*
X960Y2170D02*
Y2210D01*
X980Y2230D01*
X1000Y2210D01*
Y2170D01*
Y2200D01*
X960D01*
X1710Y2170D02*
X1690Y2190D01*
Y2210D01*
X1710Y2230D01*
X1780Y2220D02*
X1770Y2230D01*
X1750D01*
X1740Y2220D01*
Y2180D01*
X1750Y2170D01*
X1770D01*
X1780Y2180D01*
X1800Y2170D02*
X1820Y2190D01*
Y2210D01*
X1800Y2230D01*
X1950Y2170D02*
X1910D01*
X1950Y2210D01*
Y2220D01*
X1940Y2230D01*
X1920D01*
X1910Y2220D01*
X1970D02*
X1980Y2230D01*
X2000D01*
X2010Y2220D01*
Y2180D01*
X2000Y2170D01*
X1980D01*
X1970Y2180D01*
Y2220D01*
X2030D02*
X2040Y2230D01*
X2060D01*
X2070Y2220D01*
Y2180D01*
X2060Y2170D01*
X2040D01*
X2030Y2180D01*
Y2220D01*
X2120Y2170D02*
Y2230D01*
X2090Y2200D01*
X2130D01*
X2210Y2170D02*
Y2230D01*
X2230Y2210D01*
X2250Y2230D01*
Y2170D01*
X2270D02*
X2290D01*
X2280D01*
Y2210D01*
X2270D01*
X2360D02*
X2330D01*
X2320Y2200D01*
Y2180D01*
X2330Y2170D01*
X2360D01*
X2390Y2210D02*
X2410D01*
X2420Y2200D01*
Y2170D01*
X2390D01*
X2380Y2180D01*
X2390Y2190D01*
X2420D01*
X2440Y2230D02*
Y2170D01*
Y2200D01*
X2450Y2210D01*
X2470D01*
X2480Y2200D01*
Y2170D01*
X2560Y2230D02*
Y2170D01*
X2590D01*
X2600Y2180D01*
Y2220D01*
X2590Y2230D01*
X2560D01*
X2630Y2170D02*
X2650D01*
X2660Y2180D01*
Y2200D01*
X2650Y2210D01*
X2630D01*
X2620Y2200D01*
Y2180D01*
X2630Y2170D01*
X2680Y2210D02*
Y2180D01*
X2690Y2170D01*
X2700Y2180D01*
X2710Y2170D01*
X2720Y2180D01*
Y2210D01*
X2750Y2220D02*
Y2210D01*
X2740D01*
X2760D01*
X2750D01*
Y2180D01*
X2760Y2170D01*
X2790Y2210D02*
Y2180D01*
X2800Y2170D01*
X2830D01*
Y2160D01*
X2820Y2150D01*
X2810D01*
X2830Y2170D02*
Y2210D01*
X420Y1240D02*
Y1300D01*
X450D01*
X460Y1290D01*
Y1270D01*
X450Y1260D01*
X420D01*
X440D02*
X460Y1240D01*
X510D02*
Y1300D01*
X480Y1270D01*
X520D01*
X420Y1540D02*
Y1600D01*
X450D01*
X460Y1590D01*
Y1570D01*
X450Y1560D01*
X420D01*
X440D02*
X460Y1540D01*
X480Y1590D02*
X490Y1600D01*
X510D01*
X520Y1590D01*
Y1580D01*
X510Y1570D01*
X500D01*
X510D01*
X520Y1560D01*
Y1550D01*
X510Y1540D01*
X490D01*
X480Y1550D01*
X140Y1240D02*
Y1300D01*
X170D01*
X180Y1290D01*
Y1270D01*
X170Y1260D01*
X140D01*
X160D02*
X180Y1240D01*
X240Y1300D02*
X220Y1290D01*
X200Y1270D01*
Y1250D01*
X210Y1240D01*
X230D01*
X240Y1250D01*
Y1260D01*
X230Y1270D01*
X200D01*
X140Y1540D02*
Y1600D01*
X170D01*
X180Y1590D01*
Y1570D01*
X170Y1560D01*
X140D01*
X160D02*
X180Y1540D01*
X240Y1600D02*
X200D01*
Y1570D01*
X220Y1580D01*
X230D01*
X240Y1570D01*
Y1550D01*
X230Y1540D01*
X210D01*
X200Y1550D01*
X1263Y740D02*
X1243D01*
X1253D01*
Y690D01*
X1243Y680D01*
X1233D01*
X1223Y690D01*
X1323Y680D02*
X1283D01*
X1323Y720D01*
Y730D01*
X1313Y740D01*
X1293D01*
X1283Y730D01*
X1277Y1730D02*
Y1720D01*
X1297Y1700D01*
X1317Y1720D01*
Y1730D01*
X1297Y1700D02*
Y1670D01*
X1337D02*
X1357D01*
X1347D01*
Y1730D01*
X1337Y1720D01*
X1960Y570D02*
X1950Y580D01*
X1930D01*
X1920Y570D01*
Y530D01*
X1930Y520D01*
X1950D01*
X1960Y530D01*
X2020Y580D02*
X2000Y570D01*
X1980Y550D01*
Y530D01*
X1990Y520D01*
X2010D01*
X2020Y530D01*
Y540D01*
X2010Y550D01*
X1980D01*
X2297Y162D02*
Y222D01*
X2327D01*
X2337Y212D01*
Y192D01*
X2327Y182D01*
X2297D01*
X2367Y162D02*
X2387D01*
X2397Y172D01*
Y192D01*
X2387Y202D01*
X2367D01*
X2357Y192D01*
Y172D01*
X2367Y162D01*
X2417Y202D02*
Y172D01*
X2427Y162D01*
X2437Y172D01*
X2447Y162D01*
X2457Y172D01*
Y202D01*
X2507Y162D02*
X2487D01*
X2477Y172D01*
Y192D01*
X2487Y202D01*
X2507D01*
X2517Y192D01*
Y182D01*
X2477D01*
X2537Y202D02*
Y162D01*
Y182D01*
X2547Y192D01*
X2557Y202D01*
X2567D01*
X2284Y467D02*
X2274Y477D01*
X2254D01*
X2244Y467D01*
Y457D01*
X2254Y447D01*
X2274D01*
X2284Y437D01*
Y427D01*
X2274Y417D01*
X2254D01*
X2244Y427D01*
X2314Y467D02*
Y457D01*
X2304D01*
X2324D01*
X2314D01*
Y427D01*
X2324Y417D01*
X2364Y457D02*
X2384D01*
X2394Y447D01*
Y417D01*
X2364D01*
X2354Y427D01*
X2364Y437D01*
X2394D01*
X2424Y467D02*
Y457D01*
X2414D01*
X2434D01*
X2424D01*
Y427D01*
X2434Y417D01*
X2464Y457D02*
Y427D01*
X2474Y417D01*
X2504D01*
Y457D01*
X2524Y417D02*
X2554D01*
X2564Y427D01*
X2554Y437D01*
X2534D01*
X2524Y447D01*
X2534Y457D01*
X2564D01*
X760Y1500D02*
Y1450D01*
X770Y1440D01*
X790D01*
X800Y1450D01*
Y1500D01*
X820Y1440D02*
X840D01*
X830D01*
Y1500D01*
X820Y1490D01*
X0Y2300D02*
X2900D01*
Y0D02*
Y2300D01*
X0Y0D02*
X2900D01*
X0D02*
Y2300D01*
D29*
X2811Y1116D02*
G03*
X2811Y1066I0J-25D01*
G01*
X617Y1172D02*
Y1219D01*
Y1101D02*
Y1148D01*
X480Y1101D02*
X617D01*
X480Y1219D02*
X617D01*
X420Y1172D02*
Y1219D01*
Y1101D02*
Y1148D01*
Y1101D02*
X480D01*
X420Y1219D02*
X480D01*
X420Y1519D02*
X480D01*
X420Y1401D02*
X480D01*
X420D02*
Y1448D01*
Y1472D02*
Y1519D01*
X480D02*
X617D01*
X480Y1401D02*
X617D01*
Y1448D01*
Y1472D02*
Y1519D01*
X140Y1219D02*
X200D01*
X140Y1101D02*
X200D01*
X140D02*
Y1148D01*
Y1172D02*
Y1219D01*
X200D02*
X337D01*
X200Y1101D02*
X337D01*
Y1148D01*
Y1172D02*
Y1219D01*
Y1472D02*
Y1519D01*
X140D02*
X200D01*
X140Y1401D02*
X200D01*
X140D02*
Y1448D01*
Y1472D02*
Y1519D01*
X200D02*
X337D01*
X200Y1401D02*
X337D01*
Y1448D01*
X1266Y1643D02*
X1714D01*
X1266Y1457D02*
Y1643D01*
Y1457D02*
X1714D01*
Y1643D01*
X2811Y1116D02*
Y1345D01*
Y837D02*
Y1066D01*
X759Y837D02*
Y1345D01*
X2811D01*
X759Y837D02*
X2811D01*
X1917Y226D02*
X2083D01*
X1917Y494D02*
X2083D01*
X1917Y226D02*
Y310D01*
Y410D02*
Y494D01*
X2083Y226D02*
Y310D01*
Y410D02*
Y494D01*
D30*
X370Y288D02*
X377Y302D01*
X360Y288D02*
X370D01*
X356Y298D02*
X360Y288D01*
X314Y242D02*
X328Y298D01*
X314Y242D02*
X388Y228D01*
X406Y284D01*
X377Y302D02*
X406Y284D01*
X374Y309D02*
X377Y302D01*
X363Y305D02*
X374Y309D01*
X356Y298D02*
X363Y305D01*
X328Y298D02*
X356D01*
X409Y196D02*
X423Y193D01*
X388Y189D02*
X409Y196D01*
X370Y175D02*
X388Y189D01*
X360Y157D02*
X370Y175D01*
X92Y115D02*
X103Y136D01*
X106Y157D01*
X103Y185D02*
X106Y157D01*
X82Y207D02*
X103Y185D01*
X335Y414D02*
Y443D01*
X356Y414D02*
Y443D01*
X374Y411D02*
X377Y443D01*
X307Y425D02*
X349Y432D01*
X399Y425D01*
Y678D02*
X430Y696D01*
X370Y650D02*
X399Y678D01*
X349Y601D02*
X370Y650D01*
X349Y555D02*
Y601D01*
Y555D02*
X354Y519D01*
X374Y492D01*
X400Y463D01*
X427Y453D01*
X455Y446D01*
X487Y450D01*
X521Y463D01*
X557Y499D01*
X579Y536D01*
X589Y587D01*
X578Y633D02*
X589Y587D01*
X560Y654D02*
X578Y633D01*
X532Y678D02*
X560Y654D01*
X487Y696D02*
X532Y678D01*
X219Y506D02*
X251Y516D01*
X265Y527D01*
X279Y552D01*
X293Y597D01*
X289Y636D02*
X293Y597D01*
X222Y693D02*
X289Y636D01*
X166Y492D02*
X198Y520D01*
X215Y545D01*
X229Y576D01*
Y633D01*
X219Y671D02*
X229Y633D01*
X191Y714D02*
X219Y671D01*
X261Y207D02*
X268Y221D01*
X254Y235D02*
X268Y221D01*
X307Y266D01*
X451D02*
Y284D01*
X458Y302D01*
X296Y305D02*
X314Y298D01*
X451Y266D02*
X462Y270D01*
X472Y281D02*
X483Y291D01*
X428Y696D02*
X441D01*
X485D01*
D31*
X268Y263D02*
X289Y256D01*
X282Y284D02*
X303Y277D01*
X476Y256D02*
X490Y266D01*
X539Y189D02*
X620Y185D01*
X571Y210D02*
X620Y185D01*
X546Y203D02*
X571Y210D01*
X511Y200D02*
X515Y207D01*
X511Y200D02*
X522Y189D01*
X539D01*
X546Y203D01*
X532Y214D02*
X546Y203D01*
X515Y207D02*
X532Y214D01*
X170Y217D02*
X244Y207D01*
X170Y217D02*
X208Y238D01*
X240Y221D01*
X244Y207D02*
X261D01*
X240Y221D02*
X244Y207D01*
X240Y221D02*
X254Y235D01*
X296Y305D01*
X483Y291D02*
X515Y207D01*
X462Y270D02*
X515Y207D01*
X462Y270D02*
X472Y281D01*
D32*
X2091Y442D02*
D03*
D33*
X1909Y442D02*
D03*
M02*
