%FSLAX23Y23*%
%MOIN*%
G70*
G01*
G75*
G04 Layer_Physical_Order=2*
%ADD10R,0.059X0.012*%
%ADD11O,0.059X0.012*%
%ADD12C,0.010*%
%ADD13C,0.300*%
%ADD14C,0.130*%
%ADD15C,0.110*%
%ADD16R,0.059X0.059*%
%ADD17C,0.059*%
%ADD18C,0.055*%
%ADD19R,0.053X0.053*%
%ADD20C,0.053*%
%ADD21C,0.047*%
%ADD22R,0.047X0.047*%
%ADD23R,0.059X0.059*%
%ADD24C,0.059*%
%ADD25C,0.065*%
%ADD26C,0.180*%
%ADD27C,0.050*%
D12*
X4670Y1840D02*
Y3114D01*
X4735Y3179D01*
X5004D01*
X5225Y3400D01*
Y4292D01*
X4770Y1840D02*
X5239Y1371D01*
X6040D01*
X6108Y1439D01*
Y1488D01*
X6659Y2039D01*
X6782D01*
X6823Y2080D01*
Y3173D01*
X7396Y3746D01*
X7520D01*
X7740Y3966D01*
Y4360D01*
X4870Y1840D02*
X5001Y1709D01*
X5354D01*
X5415Y1770D01*
X5322Y1958D02*
Y4201D01*
X5415Y1770D02*
Y1865D01*
X5322Y1958D02*
X5415Y1865D01*
X5316Y4207D02*
X5322Y4201D01*
X4970Y1840D02*
X5047Y1917D01*
Y3154D01*
X5269Y3376D01*
Y4121D01*
X5240Y4360D02*
X5368Y4232D01*
Y1942D02*
Y4232D01*
Y1942D02*
X5470Y1840D01*
X5668Y2770D02*
Y3659D01*
X5570Y1840D02*
X5715Y1985D01*
X5668Y3659D02*
X5809Y3800D01*
X4380Y4360D02*
X4535Y4515D01*
X5661D01*
X5716Y4460D01*
X5715Y1985D02*
Y2165D01*
X5809Y2259D01*
Y2400D01*
X5721Y2488D02*
X5809Y2400D01*
X5721Y2488D02*
Y2717D01*
X5716Y3971D02*
Y4460D01*
X5668Y2770D02*
X5721Y2717D01*
X5716Y3971D02*
X5809Y3878D01*
Y3800D02*
Y3878D01*
X4325Y1645D02*
Y1934D01*
X4242Y2017D02*
Y3864D01*
X4325Y1645D02*
X4625Y1345D01*
X4242Y2017D02*
X4325Y1934D01*
X3560Y4360D02*
X4007Y3913D01*
X4193D01*
X4242Y3864D01*
X4650Y1195D02*
X4890D01*
X4625Y1220D02*
X4650Y1195D01*
X4890D02*
X4915Y1220D01*
Y1260D01*
X4625Y1220D02*
Y1345D01*
X4915Y1260D02*
X4940Y1285D01*
X5525D01*
X5570Y1240D01*
X2377Y1640D02*
Y1940D01*
X2417Y1600D02*
X2530D01*
X2377Y1640D02*
X2417Y1600D01*
X1807Y2510D02*
Y4461D01*
X1876Y4530D01*
X1807Y2510D02*
X2377Y1940D01*
X1876Y4530D02*
X2550D01*
X2851Y1134D02*
X5364D01*
X2570Y1415D02*
X2851Y1134D01*
X5364D02*
X5470Y1240D01*
X2570Y1415D02*
Y1560D01*
X2530Y1600D02*
X2570Y1560D01*
X2550Y4530D02*
X2720Y4360D01*
X3195Y2080D02*
Y2181D01*
X2528Y4415D02*
X3060Y3883D01*
Y2611D02*
Y3883D01*
X3195Y2080D02*
X3235Y2040D01*
X3673D01*
X3060Y2611D02*
X3298Y2373D01*
X3195Y2181D02*
X3298Y2284D01*
X1827Y4373D02*
X1870Y4330D01*
X1827Y4373D02*
Y4440D01*
X1840Y4453D01*
X2394Y4415D02*
X2528D01*
X1840Y4453D02*
X2356D01*
X2394Y4415D01*
X4520Y1214D02*
Y1386D01*
X4220Y1686D02*
X4520Y1386D01*
X4220Y1686D02*
Y1853D01*
X4520Y1214D02*
X4559Y1175D01*
X5105D01*
X5170Y1240D01*
X3298Y2284D02*
Y2373D01*
X4033Y2040D02*
Y2182D01*
X3673Y2040D02*
X4026Y2393D01*
X4112D01*
X4033Y2040D02*
X4220Y1853D01*
X4033Y2182D02*
X4135Y2284D01*
X4112Y2393D02*
X4135Y2370D01*
Y2284D02*
Y2370D01*
X2570Y1663D02*
Y2078D01*
X2119Y2529D02*
X2570Y2078D01*
X2119Y2529D02*
Y4161D01*
X1870Y4410D02*
X2119Y4161D01*
X2665Y1400D02*
X2910Y1155D01*
X5185D01*
X5270Y1240D01*
X2665Y1400D02*
Y1568D01*
X2570Y1663D02*
X2665Y1568D01*
X4838Y1272D02*
Y1658D01*
X4725Y1771D02*
X4838Y1658D01*
Y1272D02*
X4870Y1240D01*
X4825Y1820D02*
X5237Y1408D01*
X4725Y1771D02*
Y1860D01*
X4750Y1885D01*
X4825Y1820D02*
Y1860D01*
X4750Y1885D02*
X4800D01*
X4825Y1860D01*
X5237Y1408D02*
X5880D01*
X6037Y1565D01*
Y1650D01*
X1617Y1953D02*
X1820Y1750D01*
X1617Y1953D02*
Y2120D01*
Y2217D01*
X1624Y2224D01*
X1617Y2427D02*
X1624Y2420D01*
X1617Y2427D02*
Y2526D01*
Y2880D01*
X3291Y2120D02*
Y2217D01*
X1624Y2224D02*
Y2420D01*
X3291Y2217D02*
X3318Y2244D01*
X3291Y2427D02*
X3318Y2400D01*
Y2244D02*
Y2400D01*
X1617Y2880D02*
Y2977D01*
X2454Y2880D02*
Y2977D01*
X3291Y2427D02*
Y2526D01*
Y2880D01*
X4128Y2120D02*
Y2217D01*
X4570Y1840D02*
X4620Y1890D01*
X4570Y1840D02*
X4770Y1640D01*
Y1240D02*
Y1640D01*
X4620Y1890D02*
Y2020D01*
X4128Y2217D02*
X4155Y2244D01*
X4128Y2427D02*
X4155Y2400D01*
X4965Y2120D02*
Y2217D01*
X4155Y2244D02*
Y2400D01*
X4965Y2217D02*
X4972Y2224D01*
X4965Y2427D02*
X4972Y2420D01*
Y2224D02*
Y2420D01*
X4128Y2427D02*
Y2526D01*
Y2880D01*
X4965Y2427D02*
Y2526D01*
Y2880D01*
X1617Y2977D02*
X1624Y2984D01*
Y3180D01*
X2454Y2977D02*
X2461Y2984D01*
X1617Y3187D02*
X1624Y3180D01*
X2454Y3187D02*
X2461Y3180D01*
X1617Y3187D02*
Y3286D01*
Y3640D01*
X2454Y3187D02*
Y3286D01*
X3291Y2880D02*
Y2977D01*
X2461Y2984D02*
Y3180D01*
X4128Y2880D02*
Y2977D01*
X3291D02*
X3298Y2984D01*
Y3180D01*
X3291Y3187D02*
Y3286D01*
X2454D02*
Y3640D01*
X3291Y3187D02*
X3298Y3180D01*
X4128Y3187D02*
Y3286D01*
X1617Y4046D02*
Y4370D01*
X3291Y3286D02*
Y3640D01*
X2454Y4046D02*
Y4370D01*
X3291Y4046D02*
Y4370D01*
X4128Y2977D02*
X4135Y2984D01*
Y3180D01*
X4128Y3187D02*
X4135Y3180D01*
X4128Y3286D02*
Y3640D01*
Y4046D02*
Y4370D01*
X4965Y3286D02*
Y3640D01*
X4972D01*
Y3965D01*
X4965Y3972D02*
X4972Y3965D01*
X4965Y3972D02*
Y4046D01*
Y4370D01*
X5840Y1450D02*
Y1650D01*
X5802Y1688D02*
Y2120D01*
Y1688D02*
X5840Y1650D01*
X5802Y2120D02*
X5882Y2200D01*
X6639Y2120D02*
Y2217D01*
X7360Y1640D02*
X7476Y1756D01*
Y2120D01*
X6639Y2217D02*
X6646Y2224D01*
X7476Y2120D02*
Y2217D01*
X7483Y2224D01*
X5802Y2526D02*
Y2800D01*
X5842Y2840D01*
X5882Y2200D02*
Y2800D01*
X5842Y2840D02*
X5882Y2800D01*
X6646Y2224D02*
Y2420D01*
X6639Y2427D02*
X6646Y2420D01*
X7483Y2224D02*
Y2420D01*
X6639Y2427D02*
Y2526D01*
Y2880D01*
X7476Y2427D02*
X7483Y2420D01*
X7476Y2427D02*
Y2526D01*
Y2880D01*
X8080Y1420D02*
Y1760D01*
X7940Y1900D02*
X8080Y1760D01*
X8313Y2120D02*
Y2217D01*
X8320Y2224D01*
X8313Y2427D02*
X8320Y2420D01*
X8313Y2427D02*
Y2526D01*
X9150Y2120D02*
Y2217D01*
X8320Y2224D02*
Y2420D01*
X9150Y2217D02*
X9158Y2225D01*
Y2420D01*
X9150Y2428D02*
Y2526D01*
X8313D02*
Y2880D01*
X9150Y2526D02*
Y2880D01*
Y2428D02*
X9158Y2420D01*
X5802Y2880D02*
X5842Y2840D01*
X5802Y2880D02*
Y2977D01*
X6639Y2880D02*
Y2977D01*
X5802D02*
X5809Y2984D01*
X7476Y2880D02*
Y2977D01*
X5809Y2984D02*
Y3180D01*
X6639Y2977D02*
X6646Y2984D01*
X5802Y3187D02*
Y3286D01*
Y3640D01*
Y3187D02*
X5809Y3180D01*
X5802Y4046D02*
Y4370D01*
X6639Y3187D02*
Y3286D01*
Y3640D01*
X6646Y2984D02*
Y3180D01*
X6639Y3187D02*
X6646Y3180D01*
X6639Y4046D02*
Y4370D01*
X7476Y2977D02*
X7483Y2984D01*
Y3180D01*
X8313Y2880D02*
Y2977D01*
X7476Y3187D02*
X7483Y3180D01*
X8313Y2977D02*
X8320Y2984D01*
X7476Y3187D02*
Y3286D01*
Y3640D01*
X8313Y3187D02*
X8320Y3180D01*
X9150Y2880D02*
Y2977D01*
X8320Y2984D02*
Y3180D01*
X9150Y2977D02*
X9158Y2985D01*
X9150Y3188D02*
X9158Y3180D01*
Y2985D02*
Y3180D01*
X8313Y3187D02*
Y3286D01*
Y3640D01*
X9150Y3188D02*
Y3286D01*
Y3640D01*
X7476Y4046D02*
Y4370D01*
X9017Y3773D02*
X9150Y3640D01*
X9017Y3773D02*
Y3913D01*
X9150Y4046D01*
X8313D02*
Y4370D01*
X9150Y4046D02*
Y4370D01*
X4423Y1887D02*
X4470Y1840D01*
X4423Y1887D02*
Y2020D01*
X4470Y1840D02*
X4670Y1640D01*
Y1240D02*
Y1640D01*
X4262Y2181D02*
X4423Y2020D01*
X4262Y2181D02*
Y3461D01*
X4320Y3519D01*
X4397D02*
X4587Y3329D01*
X4320Y3519D02*
X4397D01*
X4587Y3329D02*
X4777D01*
X4788Y3340D01*
X4637Y3620D02*
X4788Y3469D01*
Y3340D02*
Y3469D01*
X2870Y1367D02*
X2952Y1285D01*
X3725D02*
X3770Y1240D01*
X2870Y1367D02*
Y1493D01*
X2952Y1285D02*
X3725D01*
X4282Y3280D02*
Y3405D01*
X4303Y3259D02*
X4863D01*
X4282Y3280D02*
X4303Y3259D01*
X4282Y3405D02*
X4306Y3429D01*
X4863Y3259D02*
X4884Y3280D01*
Y3650D01*
X4885Y3651D01*
Y3843D01*
X4902D01*
X4326Y3348D02*
X4384Y3290D01*
X4800D01*
X4831Y3321D01*
X5739Y3843D02*
Y3903D01*
X4831Y3321D02*
Y4371D01*
X5466Y4176D02*
X5739Y3903D01*
X4831Y4371D02*
X4880Y4420D01*
X5406D01*
X5466Y4176D02*
Y4360D01*
X5406Y4420D02*
X5466Y4360D01*
X2620Y1750D02*
X2655D01*
X3228Y2323D01*
X2720Y1750D02*
X2870Y1600D01*
X3342D01*
X3841Y2099D01*
X3878D01*
X3939Y2160D01*
Y2197D02*
X4065Y2323D01*
X3939Y2160D02*
Y2197D01*
X2820Y1750D02*
X2863Y1707D01*
X3416D01*
X3879Y2170D01*
X3892D01*
X5487Y2071D02*
X5739Y2323D01*
X5654Y2408D02*
X5739Y2323D01*
X5654Y2408D02*
Y2531D01*
X5428Y2757D02*
X5654Y2531D01*
X6240Y2659D02*
X6576Y2323D01*
X5023Y1776D02*
X5120D01*
X5280D01*
X5120D02*
Y2535D01*
X5164Y2579D01*
X5280Y1776D02*
X5320Y1816D01*
Y1900D01*
X3210Y3083D02*
X3228D01*
X3210D02*
Y3680D01*
X3394Y3864D01*
Y4280D01*
X3517Y4403D01*
X3580D01*
X4018Y3965D01*
X4521Y3600D02*
Y3924D01*
X4018Y3965D02*
X4480D01*
X4521Y3924D01*
Y3600D02*
X4748Y3373D01*
X4444Y3083D02*
X4580Y3219D01*
X4805D01*
X2391Y3773D02*
Y3843D01*
Y3773D02*
X2481D01*
X2534Y3720D01*
Y3002D02*
Y3720D01*
X2720Y1450D02*
X2991Y1179D01*
X3809D01*
X3870Y1240D01*
X2820Y1450D02*
Y1519D01*
X2855Y1554D01*
X3970Y1240D02*
X4015Y1195D01*
X4297D01*
X4325Y1223D01*
X2855Y1554D02*
X4164D01*
X4325Y1223D02*
Y1393D01*
X4164Y1554D02*
X4325Y1393D01*
X2920Y1450D02*
X2964Y1406D01*
X3040D01*
X3817Y1493D02*
X4070Y1240D01*
X3040Y1406D02*
X3070Y1436D01*
Y1468D01*
X3095Y1493D01*
X3817D01*
X3997Y1513D02*
X4270Y1240D01*
X3020Y1450D02*
X3083Y1513D01*
X3997D01*
X3251Y1319D02*
X3911D01*
X3120Y1450D02*
X3251Y1319D01*
X3960Y1175D02*
X4320D01*
X3915Y1220D02*
X3960Y1175D01*
X4320D02*
X4342Y1197D01*
Y1212D01*
X3915Y1220D02*
Y1315D01*
X3911Y1319D02*
X3915Y1315D01*
X4342Y1212D02*
X4370Y1240D01*
X5170Y1840D02*
X5204Y1874D01*
Y2869D01*
X5155Y2918D02*
X5204Y2869D01*
X5155Y2918D02*
Y3108D01*
X5070Y1840D02*
Y3090D01*
X5219Y3239D01*
D13*
X1250Y1250D02*
D03*
X3700Y2300D02*
D03*
X1250Y4500D02*
D03*
X3700Y3850D02*
D03*
X7050Y2300D02*
D03*
X9500Y1250D02*
D03*
X7050Y3850D02*
D03*
X9500Y4500D02*
D03*
D14*
X2454Y3286D02*
D03*
Y2880D02*
D03*
Y4046D02*
D03*
Y3640D02*
D03*
X1617Y2526D02*
D03*
Y2120D02*
D03*
Y3286D02*
D03*
Y2880D02*
D03*
X9150Y3286D02*
D03*
Y2880D02*
D03*
X8313Y3286D02*
D03*
Y2880D02*
D03*
X7476Y3286D02*
D03*
Y2880D02*
D03*
X6639Y3286D02*
D03*
Y2880D02*
D03*
X5802Y3286D02*
D03*
Y2880D02*
D03*
X4965Y3286D02*
D03*
Y2880D02*
D03*
X4128Y3286D02*
D03*
Y2880D02*
D03*
X3291Y3286D02*
D03*
Y2880D02*
D03*
X1617Y3640D02*
D03*
Y4046D02*
D03*
X9150Y2526D02*
D03*
Y2120D02*
D03*
X8313Y2526D02*
D03*
Y2120D02*
D03*
X7476Y2526D02*
D03*
Y2120D02*
D03*
X6639Y2526D02*
D03*
Y2120D02*
D03*
X5802Y2526D02*
D03*
Y2120D02*
D03*
X4965Y2526D02*
D03*
Y2120D02*
D03*
X4128Y2526D02*
D03*
Y2120D02*
D03*
X3291Y2526D02*
D03*
Y2120D02*
D03*
X9150Y4046D02*
D03*
Y3640D02*
D03*
X8313Y4046D02*
D03*
Y3640D02*
D03*
X7476Y4046D02*
D03*
Y3640D02*
D03*
X6639Y4046D02*
D03*
Y3640D02*
D03*
X5802Y4046D02*
D03*
Y3640D02*
D03*
X4965Y4046D02*
D03*
Y3640D02*
D03*
X4128Y4046D02*
D03*
Y3640D02*
D03*
X3291Y4046D02*
D03*
Y3640D02*
D03*
D15*
X2391Y3083D02*
D03*
Y3843D02*
D03*
X1554Y2323D02*
D03*
Y3083D02*
D03*
X9087D02*
D03*
X8250D02*
D03*
X7413D02*
D03*
X6576D02*
D03*
X5739D02*
D03*
X4902D02*
D03*
X4065D02*
D03*
X3228D02*
D03*
X1554Y3843D02*
D03*
X9087Y2323D02*
D03*
X8250D02*
D03*
X7413D02*
D03*
X6576D02*
D03*
X5739D02*
D03*
X4902D02*
D03*
X4065D02*
D03*
X3228D02*
D03*
X9087Y3843D02*
D03*
X8250D02*
D03*
X7413D02*
D03*
X6576D02*
D03*
X5739D02*
D03*
X4902D02*
D03*
X4065D02*
D03*
X3228D02*
D03*
D16*
X1617Y4470D02*
D03*
X2454D02*
D03*
X3291D02*
D03*
X4128D02*
D03*
X4965D02*
D03*
X5802D02*
D03*
X6639D02*
D03*
X7476D02*
D03*
X8313D02*
D03*
X9150D02*
D03*
D17*
X1617Y4370D02*
D03*
X2454D02*
D03*
X3291D02*
D03*
X4128D02*
D03*
X4965D02*
D03*
X5802D02*
D03*
X6639D02*
D03*
X7476D02*
D03*
X8313D02*
D03*
X9150D02*
D03*
D18*
X1870Y4410D02*
D03*
X2170D02*
D03*
X1870Y4330D02*
D03*
X2170D02*
D03*
X2720Y4360D02*
D03*
X3020D02*
D03*
X3560D02*
D03*
X3860D02*
D03*
X4380D02*
D03*
X4680D02*
D03*
X5240D02*
D03*
X5540D02*
D03*
X6080D02*
D03*
X6380D02*
D03*
X6920D02*
D03*
X7220D02*
D03*
X7740D02*
D03*
X8040D02*
D03*
X8600D02*
D03*
X8900D02*
D03*
X6180Y1646D02*
D03*
Y1454D02*
D03*
X7120Y1690D02*
D03*
Y1390D02*
D03*
X2620Y1750D02*
D03*
Y1450D02*
D03*
X2720Y1750D02*
D03*
Y1450D02*
D03*
X2820Y1750D02*
D03*
Y1450D02*
D03*
X2920Y1750D02*
D03*
Y1450D02*
D03*
X3020Y1750D02*
D03*
Y1450D02*
D03*
X3120Y1750D02*
D03*
Y1450D02*
D03*
X3220Y1750D02*
D03*
Y1450D02*
D03*
X3320Y1750D02*
D03*
Y1450D02*
D03*
X2520D02*
D03*
Y1750D02*
D03*
X2420Y1450D02*
D03*
Y1750D02*
D03*
X2320Y1450D02*
D03*
Y1750D02*
D03*
X2220Y1450D02*
D03*
Y1750D02*
D03*
X2120Y1450D02*
D03*
Y1750D02*
D03*
X2020Y1450D02*
D03*
Y1750D02*
D03*
X1920Y1450D02*
D03*
Y1750D02*
D03*
X1820Y1450D02*
D03*
Y1750D02*
D03*
D19*
X5840Y1650D02*
D03*
Y1450D02*
D03*
X7360Y1640D02*
D03*
X4440Y3620D02*
D03*
X5280Y3100D02*
D03*
X4620Y2020D02*
D03*
D20*
X6037Y1650D02*
D03*
Y1450D02*
D03*
X7360Y1443D02*
D03*
X4637Y3620D02*
D03*
X5477Y3100D02*
D03*
X4423Y2020D02*
D03*
D21*
X7940Y1900D02*
D03*
D22*
X7840D02*
D03*
D23*
X3670Y1240D02*
D03*
D24*
X3770D02*
D03*
X3870D02*
D03*
X3970D02*
D03*
X4070D02*
D03*
X4170D02*
D03*
X4270D02*
D03*
X4370D02*
D03*
X4470D02*
D03*
X4570D02*
D03*
X4670D02*
D03*
X4770D02*
D03*
X4870D02*
D03*
X4970D02*
D03*
X5070D02*
D03*
X5170D02*
D03*
X5270D02*
D03*
X5370D02*
D03*
X5470D02*
D03*
X5570D02*
D03*
X3670Y1840D02*
D03*
X3770D02*
D03*
X3870D02*
D03*
X3970D02*
D03*
X4070D02*
D03*
X4170D02*
D03*
X4270D02*
D03*
X4370D02*
D03*
X4470D02*
D03*
X4570D02*
D03*
X4670D02*
D03*
X4770D02*
D03*
X4870D02*
D03*
X4970D02*
D03*
X5070D02*
D03*
X5170D02*
D03*
X5270D02*
D03*
X5370D02*
D03*
X5470D02*
D03*
X5570D02*
D03*
D25*
X8366Y1527D02*
D03*
X8366Y1605D02*
D03*
X8268D02*
D03*
Y1527D02*
D03*
D26*
X8554Y1420D02*
D03*
X8080D02*
D03*
D27*
X5225Y4292D02*
D03*
X5316Y4207D02*
D03*
X5269Y4121D02*
D03*
X2870Y1493D02*
D03*
X4306Y3429D02*
D03*
X4326Y3348D02*
D03*
X3892Y2170D02*
D03*
X5487Y2071D02*
D03*
X5428Y2757D02*
D03*
X6240Y2659D02*
D03*
X5023Y1776D02*
D03*
X5164Y2579D02*
D03*
X5320Y1900D02*
D03*
X4748Y3373D02*
D03*
X4444Y3083D02*
D03*
X4805Y3219D02*
D03*
X2534Y3002D02*
D03*
X5155Y3108D02*
D03*
X5219Y3239D02*
D03*
M02*
