%FSLAX23Y23*%
%MOIN*%
G70*
G01*
G75*
G04 Layer_Physical_Order=2*
%ADD10R,0.059X0.012*%
%ADD11O,0.059X0.012*%
%ADD12C,0.010*%
%ADD13C,0.250*%
%ADD14C,0.110*%
%ADD15C,0.130*%
%ADD16C,0.055*%
%ADD17R,0.059X0.059*%
%ADD18C,0.059*%
%ADD19R,0.053X0.053*%
%ADD20C,0.053*%
%ADD21C,0.047*%
%ADD22R,0.047X0.047*%
%ADD23R,0.059X0.059*%
%ADD24C,0.059*%
%ADD25C,0.065*%
%ADD26C,0.180*%
%ADD27C,0.050*%
D12*
X4557Y3840D02*
X4679Y3718D01*
X4557Y3840D02*
Y4445D01*
X4670Y1840D02*
Y2648D01*
X4679Y2657D01*
Y3718D01*
X4739Y2036D02*
Y4125D01*
X4720Y4144D02*
X4739Y4125D01*
X4815Y1795D02*
X4890D01*
X4770Y1840D02*
X4815Y1795D01*
X4890D02*
X4915Y1820D01*
Y1860D01*
X4739Y2036D02*
X4915Y1860D01*
X4700Y2010D02*
Y4068D01*
Y2010D02*
X4870Y1840D01*
X4699Y4069D02*
X4700Y4068D01*
X4760Y2050D02*
Y4219D01*
Y2050D02*
X4970Y1840D01*
X5240Y4390D02*
X5540Y4090D01*
X5470Y1840D02*
X5540Y1910D01*
Y4090D01*
X5220Y4565D02*
X5611Y4174D01*
X4380Y4390D02*
X4555Y4565D01*
X5220D01*
X5570Y1840D02*
Y3561D01*
X5809Y3800D01*
X5611Y4115D02*
Y4174D01*
X5809Y3800D02*
Y3917D01*
X5611Y4115D02*
X5809Y3917D01*
X5199Y4336D02*
X5238Y4297D01*
X5225Y1585D02*
X5570Y1240D01*
X5225Y1585D02*
Y1885D01*
X5238Y1898D01*
Y4297D01*
X3157Y2063D02*
Y3760D01*
X3548Y1672D02*
X4348D01*
X3157Y2063D02*
X3548Y1672D01*
X2720Y4197D02*
Y4390D01*
Y4197D02*
X3157Y3760D01*
X4520Y1209D02*
X4560Y1169D01*
X5399D01*
X5470Y1240D01*
X4520Y1209D02*
Y1500D01*
X4348Y1672D02*
X4520Y1500D01*
X3239Y3720D02*
X3371D01*
X3157Y3802D02*
X3239Y3720D01*
X3686Y2559D02*
X4047Y2198D01*
X3371Y3720D02*
X3686Y3405D01*
Y2559D02*
Y3405D01*
X1870Y4360D02*
X2061Y4551D01*
X3157Y3802D02*
Y4088D01*
X2061Y4551D02*
X2694D01*
X3157Y4088D01*
X4625Y1220D02*
X4650Y1195D01*
X4625Y1220D02*
Y1542D01*
X4650Y1195D02*
X5125D01*
X5170Y1240D01*
X4155Y1932D02*
X4397D01*
X4047Y2040D02*
X4155Y1932D01*
X4047Y2040D02*
Y2198D01*
X4420Y1747D02*
X4625Y1542D01*
X4397Y1932D02*
X4420Y1909D01*
Y1747D02*
Y1909D01*
X5020Y1490D02*
Y1913D01*
Y1490D02*
X5270Y1240D01*
X4810Y2123D02*
Y4249D01*
Y2123D02*
X5020Y1913D01*
X4764Y4295D02*
X4810Y4249D01*
X5902Y1470D02*
X6037Y1605D01*
Y1650D01*
X1250Y1250D02*
X1785Y1785D01*
X1820Y1750D01*
X1617Y1953D02*
Y2120D01*
X1624Y2127D01*
X1617Y1953D02*
X1785Y1785D01*
X2020Y1750D02*
X2050Y1780D01*
X3291Y2120D02*
X3298Y2127D01*
X1624Y2127D02*
Y2388D01*
X1617Y2395D02*
Y2526D01*
Y2880D01*
Y2395D02*
X1624Y2388D01*
X1617Y2880D02*
X1624D01*
X1617Y3155D02*
Y3286D01*
X1624Y2880D02*
Y3148D01*
X1617Y3155D02*
X1624Y3148D01*
X2050Y1780D02*
Y2300D01*
X2454Y2880D02*
Y2933D01*
X3290Y2526D02*
X3291Y2526D01*
X3290Y2526D02*
Y2879D01*
X2454Y2933D02*
X2461D01*
X2454Y3214D02*
Y3286D01*
X2461Y2933D02*
Y3207D01*
X3290Y2879D02*
X3291Y2880D01*
Y3006D01*
X2454Y3214D02*
X2461Y3207D01*
X3291Y3155D02*
Y3286D01*
X4570Y1840D02*
X4770Y1640D01*
X3298Y2127D02*
Y2518D01*
X4128Y2120D02*
X4135Y2127D01*
Y2518D01*
X4570Y1840D02*
Y1970D01*
X4620Y2020D01*
X4770Y1240D02*
Y1640D01*
X4965Y2120D02*
X4972Y2127D01*
X3291Y2526D02*
X3298Y2518D01*
X4128Y2526D02*
X4135Y2518D01*
X4128Y2526D02*
Y2880D01*
X3291Y3006D02*
X3298Y3013D01*
X3291Y3155D02*
X3298Y3148D01*
Y3013D02*
Y3148D01*
X4128Y2880D02*
X4135D01*
X4128Y3155D02*
X4135Y3148D01*
X4972Y2127D02*
Y2518D01*
X4135Y2880D02*
Y3148D01*
X4965Y2526D02*
Y2880D01*
Y2526D02*
X4972Y2518D01*
X4965Y2880D02*
Y2978D01*
X4128Y3155D02*
Y3286D01*
X4965Y3212D02*
Y3286D01*
Y2978D02*
X4972Y2985D01*
X4965Y3212D02*
X4972Y3205D01*
Y2985D02*
Y3205D01*
X1617Y3286D02*
Y3640D01*
X1624D01*
Y3945D01*
X2320Y3774D02*
X2454Y3640D01*
X1617Y3952D02*
X1624Y3945D01*
X1617Y3952D02*
Y4046D01*
X2320Y3774D02*
Y3850D01*
X2050D02*
X2320D01*
X2454Y3286D02*
Y3640D01*
X3291Y3286D02*
Y3640D01*
X2320Y3850D02*
Y3912D01*
X2454Y4046D01*
X1617D02*
Y4277D01*
X1572Y4322D02*
Y4455D01*
Y4322D02*
X1617Y4277D01*
X1572Y4455D02*
X1617Y4500D01*
X2454Y4046D02*
Y4310D01*
X3291Y4046D02*
Y4220D01*
X2454Y4310D02*
X2499Y4355D01*
X2454Y4500D02*
X2499Y4455D01*
Y4355D02*
Y4455D01*
X3246Y4265D02*
X3291Y4220D01*
X3246Y4265D02*
Y4455D01*
X3291Y4500D01*
X4128Y3286D02*
X4128Y3286D01*
Y3640D01*
X4128Y3640D02*
X4128Y3640D01*
X4965Y3286D02*
Y3640D01*
X4972Y3647D01*
X4128Y4046D02*
Y4220D01*
X4083Y4265D02*
X4128Y4220D01*
X4083Y4265D02*
Y4455D01*
X4128Y4500D01*
X4972Y3647D02*
Y4038D01*
X4965Y4046D02*
Y4313D01*
X4920Y4358D02*
X4965Y4313D01*
X4920Y4358D02*
Y4455D01*
X4965Y4046D02*
X4972Y4038D01*
X4920Y4455D02*
X4965Y4500D01*
X5840Y1450D02*
Y1650D01*
X5802Y1688D02*
X5840Y1650D01*
X5802Y1688D02*
Y2120D01*
X5809Y2127D01*
X5802Y2526D02*
X5809Y2518D01*
Y2127D02*
Y2518D01*
X7360Y1640D02*
Y2004D01*
X6639Y2120D02*
X6666Y2147D01*
X7360Y2004D02*
X7476Y2120D01*
X6639Y2526D02*
X6666Y2498D01*
Y2147D02*
Y2498D01*
X7476Y2120D02*
X7483Y2127D01*
X7476Y2526D02*
X7483Y2518D01*
Y2127D02*
Y2518D01*
X5802Y2526D02*
Y2880D01*
X6639Y2526D02*
Y2880D01*
X7476Y2526D02*
Y2880D01*
X5802D02*
X5809D01*
Y3148D01*
X6639Y2880D02*
X6646Y2887D01*
X7476Y2880D02*
Y2946D01*
X7483Y2953D01*
X6646Y2887D02*
Y3278D01*
X7483Y2953D02*
Y3148D01*
X8080Y1420D02*
Y1760D01*
X7940Y1900D02*
X8080Y1760D01*
X8313Y2120D02*
X8320Y2127D01*
Y2518D01*
X8312Y2526D02*
X8313Y2526D01*
X8320Y2518D01*
X8312Y2526D02*
Y2879D01*
X8313Y2880D01*
X8320D01*
Y3148D01*
X9150Y2120D02*
Y2245D01*
X9158Y2253D01*
X9150Y2395D02*
Y2526D01*
X9158Y2253D02*
Y2387D01*
X9150Y2395D02*
X9158Y2387D01*
X9150Y2526D02*
X9150Y2526D01*
X9017Y3013D02*
Y3153D01*
X9150Y2526D02*
Y2526D01*
Y2880D01*
X9150Y2880D02*
X9150Y2880D01*
X9017Y3013D02*
X9150Y2880D01*
X5280Y3100D02*
X5400Y3220D01*
Y3850D01*
X5802Y3155D02*
Y3286D01*
Y3155D02*
X5809Y3148D01*
X5802Y3286D02*
Y3640D01*
Y3724D01*
X5829Y3751D01*
X6638Y3286D02*
X6639Y3286D01*
X6638Y3286D02*
Y3639D01*
X6639Y3640D01*
Y3286D02*
X6646Y3278D01*
X7476Y3155D02*
Y3286D01*
Y3640D01*
X6639D02*
Y3731D01*
X6666Y3758D01*
Y3945D01*
X6639Y3972D02*
X6666Y3945D01*
X5829Y3751D02*
Y4018D01*
X5802Y4046D02*
Y4310D01*
Y4046D02*
X5829Y4018D01*
X5757Y4355D02*
X5802Y4310D01*
X5757Y4355D02*
Y4455D01*
X5802Y4500D01*
X6639Y3972D02*
Y4046D01*
Y4310D01*
X6594Y4355D02*
X6639Y4310D01*
X6594Y4355D02*
Y4455D01*
X7431Y4286D02*
Y4455D01*
X7476Y4046D02*
Y4241D01*
X6594Y4455D02*
X6639Y4500D01*
X7476Y3155D02*
X7483Y3148D01*
X8313Y3155D02*
Y3286D01*
Y3155D02*
X8320Y3148D01*
X8313Y3286D02*
Y3640D01*
X9017Y3153D02*
X9150Y3286D01*
X9150Y3286D01*
Y3286D02*
Y3286D01*
Y3411D01*
X9150Y3411D02*
X9150Y3411D01*
X9150Y3411D02*
Y3640D01*
Y3780D01*
X9158Y3788D01*
Y4038D01*
X8313Y4046D02*
Y4212D01*
X8268Y4257D02*
X8313Y4212D01*
X7431Y4286D02*
X7476Y4241D01*
X7431Y4455D02*
X7476Y4500D01*
X8268Y4257D02*
Y4455D01*
X8313Y4500D01*
X9150Y4046D02*
Y4178D01*
Y4046D02*
X9158Y4038D01*
X9105Y4223D02*
X9150Y4178D01*
X9105Y4223D02*
Y4455D01*
X9150Y4500D01*
X4470Y1840D02*
Y1973D01*
Y1840D02*
X4670Y1640D01*
Y1240D02*
Y1640D01*
X4423Y2020D02*
X4470Y1973D01*
X4423Y2020D02*
X4637Y2234D01*
Y3620D01*
X2277Y1431D02*
X2320Y1388D01*
X2558D01*
X2600Y1430D01*
X2277Y1431D02*
Y1502D01*
X2320Y1545D01*
X2520Y1450D02*
X2580D01*
X2320Y1545D02*
X3630D01*
X3770Y1240D02*
X3815Y1195D01*
X3890D01*
X3915Y1220D01*
X2580Y1450D02*
X2600Y1430D01*
X2620Y1450D01*
X3915Y1220D02*
Y1260D01*
X3630Y1545D02*
X3915Y1260D01*
X3286Y3843D02*
X3419Y3710D01*
X4031D01*
X4094Y3773D01*
X3228Y3843D02*
Y3843D01*
X3286D01*
X4094Y3773D02*
X4273D01*
X4286Y3439D02*
Y3760D01*
X4273Y3773D02*
X4286Y3760D01*
X4246Y3420D02*
Y3732D01*
X4267Y3399D02*
X4386D01*
X4246Y3420D02*
X4267Y3399D01*
X4386D02*
X4434Y3447D01*
X4475D01*
X4306Y3239D02*
X4320Y3225D01*
X4306Y3239D02*
Y3320D01*
X4320Y3225D02*
X4509D01*
X4306Y3320D02*
X4338Y3352D01*
X4346D01*
X4509Y3225D02*
X4559Y3275D01*
X4517Y3814D02*
Y4463D01*
X4559Y3275D02*
Y3772D01*
X4517Y3814D02*
X4559Y3772D01*
X4517Y4463D02*
X4599Y4545D01*
X5205D01*
X5570Y4012D02*
X5739Y3843D01*
X5205Y4545D02*
X5570Y4180D01*
Y4012D02*
Y4180D01*
X4346Y3270D02*
X4485D01*
X4535Y3320D01*
X4495Y3662D02*
Y3752D01*
X4535Y3320D02*
Y3622D01*
X4495Y3662D02*
X4535Y3622D01*
X3210Y2080D02*
X3250Y2040D01*
X3210Y2080D02*
Y2305D01*
X3228Y2323D01*
X3250Y2040D02*
X3351D01*
X3391Y2080D01*
Y2881D01*
X2720Y1750D02*
X2803Y1833D01*
X2860D01*
X2920Y1750D02*
Y2800D01*
X5355Y1680D02*
X5595D01*
X5715Y1800D01*
Y2232D01*
X5739Y2256D01*
Y2323D01*
X5260Y2068D02*
Y2567D01*
X5280Y2587D01*
X5260Y2068D02*
X5315Y2013D01*
X5280Y2587D02*
X5291D01*
X5315Y1651D02*
X5575Y1391D01*
X6391Y1309D02*
Y1391D01*
X5575D02*
X6391D01*
Y1473D01*
X6421Y1503D01*
X5315Y1651D02*
Y2013D01*
X6421Y1503D02*
Y2168D01*
X6576Y2323D01*
X2995Y1875D02*
X3120Y1750D01*
X2995Y1875D02*
Y2760D01*
X6602Y1512D02*
X7413Y2323D01*
X3047Y1888D02*
X3185Y1750D01*
X3220D01*
X3047Y1888D02*
Y2720D01*
X7569Y1795D02*
X8097Y2323D01*
X8250D01*
X5130Y2680D02*
Y2856D01*
X5128Y2858D02*
X5130Y2856D01*
X5128Y2858D02*
Y3240D01*
X5195Y3307D01*
Y2949D02*
X5210Y2964D01*
X5195Y3307D02*
X5200D01*
X5210Y2964D02*
Y3297D01*
X5200Y3307D02*
X5210Y3297D01*
X4556Y2290D02*
Y3170D01*
X4567Y3181D01*
X4576D01*
X5633Y2500D02*
Y2977D01*
X5739Y3083D01*
X2534Y3012D02*
Y3720D01*
X2391Y3771D02*
Y3843D01*
Y3771D02*
X2483D01*
X2534Y3720D01*
X3585Y1525D02*
X3870Y1240D01*
X2720Y1450D02*
X2795Y1525D01*
X3585D01*
X2677Y1418D02*
X2720Y1375D01*
X2745D01*
X2820Y1450D01*
X2320D02*
X2363Y1493D01*
X2644D01*
X2677Y1418D02*
Y1460D01*
X2644Y1493D02*
X2677Y1460D01*
X2985Y1135D02*
X4250D01*
X2745Y1375D02*
X2985Y1135D01*
X4250D02*
X4315Y1200D01*
Y1260D01*
X3970Y1240D02*
X4015Y1285D01*
X4290D01*
X4315Y1260D01*
X2920Y1450D02*
X2963Y1493D01*
X3063Y1391D02*
X3279Y1175D01*
X4005D01*
X4070Y1240D01*
X3063Y1391D02*
Y1470D01*
X2963Y1493D02*
X3040D01*
X3063Y1470D01*
X3020Y1303D02*
X3168Y1155D01*
X4185D01*
X3020Y1303D02*
Y1450D01*
X4185Y1155D02*
X4270Y1240D01*
X5155Y2924D02*
X5170Y2909D01*
X5155Y3174D02*
X5170Y3189D01*
Y1840D02*
Y2909D01*
X5155Y2924D02*
Y3174D01*
X5070Y1840D02*
Y3431D01*
D13*
X1250Y1250D02*
D03*
X2050Y2300D02*
D03*
X3700D02*
D03*
X5400D02*
D03*
X2050Y3850D02*
D03*
X3700D02*
D03*
X1250Y4500D02*
D03*
X5400Y3850D02*
D03*
X7050Y2300D02*
D03*
X9500Y1250D02*
D03*
X8750Y2300D02*
D03*
X7050Y3850D02*
D03*
X8750D02*
D03*
X9500Y4500D02*
D03*
D14*
X2391Y3083D02*
D03*
X1554Y2323D02*
D03*
Y3083D02*
D03*
X6576D02*
D03*
X3228D02*
D03*
X7413D02*
D03*
X4065D02*
D03*
X8250D02*
D03*
X4902D02*
D03*
X9087D02*
D03*
X5739D02*
D03*
X3228Y2323D02*
D03*
X4065D02*
D03*
X4902D02*
D03*
X5739D02*
D03*
X6576D02*
D03*
X7413D02*
D03*
X8250D02*
D03*
X9087D02*
D03*
Y3843D02*
D03*
X8250D02*
D03*
X7413D02*
D03*
X6576D02*
D03*
X5739D02*
D03*
X4902D02*
D03*
X4065D02*
D03*
X3228D02*
D03*
X1554D02*
D03*
X2391D02*
D03*
D15*
X2454Y3286D02*
D03*
Y2880D02*
D03*
X1617Y2526D02*
D03*
Y2120D02*
D03*
Y3286D02*
D03*
Y2880D02*
D03*
X6639Y3286D02*
D03*
Y2880D02*
D03*
X3291Y3286D02*
D03*
Y2880D02*
D03*
X7476Y3286D02*
D03*
Y2880D02*
D03*
X4128Y3286D02*
D03*
Y2880D02*
D03*
X8313Y3286D02*
D03*
Y2880D02*
D03*
X4965Y3286D02*
D03*
Y2880D02*
D03*
X9150Y3286D02*
D03*
Y2880D02*
D03*
X5802Y3286D02*
D03*
Y2880D02*
D03*
X3291Y2526D02*
D03*
Y2120D02*
D03*
X4128Y2526D02*
D03*
Y2120D02*
D03*
X4965Y2526D02*
D03*
Y2120D02*
D03*
X5802Y2526D02*
D03*
Y2120D02*
D03*
X6639Y2526D02*
D03*
Y2120D02*
D03*
X7476Y2526D02*
D03*
Y2120D02*
D03*
X8313Y2526D02*
D03*
Y2120D02*
D03*
X9150Y2526D02*
D03*
Y2120D02*
D03*
Y3640D02*
D03*
Y4046D02*
D03*
X8313Y3640D02*
D03*
Y4046D02*
D03*
X7476Y3640D02*
D03*
Y4046D02*
D03*
X6639Y3640D02*
D03*
Y4046D02*
D03*
X5802Y3640D02*
D03*
Y4046D02*
D03*
X4965Y3640D02*
D03*
Y4046D02*
D03*
X4128Y3640D02*
D03*
Y4046D02*
D03*
X3291Y3640D02*
D03*
Y4046D02*
D03*
X1617Y3640D02*
D03*
Y4046D02*
D03*
X2454Y3640D02*
D03*
Y4046D02*
D03*
D16*
X1870Y4440D02*
D03*
X2170D02*
D03*
X1870Y4360D02*
D03*
X2170D02*
D03*
X2720Y4390D02*
D03*
X3020D02*
D03*
X3560D02*
D03*
X3860D02*
D03*
X4380D02*
D03*
X4680D02*
D03*
X5240D02*
D03*
X5540D02*
D03*
X6080D02*
D03*
X6380D02*
D03*
X6920D02*
D03*
X7220D02*
D03*
X7740D02*
D03*
X8040D02*
D03*
X8600D02*
D03*
X8900D02*
D03*
X6180Y1646D02*
D03*
Y1454D02*
D03*
X7120Y1690D02*
D03*
Y1390D02*
D03*
X2620Y1750D02*
D03*
Y1450D02*
D03*
X2720Y1750D02*
D03*
Y1450D02*
D03*
X2820Y1750D02*
D03*
Y1450D02*
D03*
X2920Y1750D02*
D03*
Y1450D02*
D03*
X3020Y1750D02*
D03*
Y1450D02*
D03*
X3120Y1750D02*
D03*
Y1450D02*
D03*
X3220Y1750D02*
D03*
Y1450D02*
D03*
X3320Y1750D02*
D03*
Y1450D02*
D03*
X2520D02*
D03*
Y1750D02*
D03*
X2420Y1450D02*
D03*
Y1750D02*
D03*
X2320Y1450D02*
D03*
Y1750D02*
D03*
X2220Y1450D02*
D03*
Y1750D02*
D03*
X2120Y1450D02*
D03*
Y1750D02*
D03*
X2020Y1450D02*
D03*
Y1750D02*
D03*
X1920Y1450D02*
D03*
Y1750D02*
D03*
X1820Y1450D02*
D03*
Y1750D02*
D03*
D17*
X1617Y4400D02*
D03*
X2454D02*
D03*
X3291D02*
D03*
X4128D02*
D03*
X4965D02*
D03*
X5802D02*
D03*
X6639D02*
D03*
X7476D02*
D03*
X8313D02*
D03*
X9150D02*
D03*
D18*
X1617Y4500D02*
D03*
X2454D02*
D03*
X3291D02*
D03*
X4128D02*
D03*
X4965D02*
D03*
X5802D02*
D03*
X6639D02*
D03*
X7476D02*
D03*
X8313D02*
D03*
X9150D02*
D03*
D19*
X5840Y1650D02*
D03*
Y1450D02*
D03*
X7360Y1640D02*
D03*
X4440Y3620D02*
D03*
X5280Y3100D02*
D03*
X4620Y2020D02*
D03*
D20*
X6037Y1650D02*
D03*
Y1450D02*
D03*
X7360Y1443D02*
D03*
X4637Y3620D02*
D03*
X5477Y3100D02*
D03*
X4423Y2020D02*
D03*
D21*
X7940Y1900D02*
D03*
D22*
X7840D02*
D03*
D23*
X3670Y1240D02*
D03*
D24*
X3770D02*
D03*
X3870D02*
D03*
X3970D02*
D03*
X4070D02*
D03*
X4170D02*
D03*
X4270D02*
D03*
X4370D02*
D03*
X4470D02*
D03*
X4570D02*
D03*
X4670D02*
D03*
X4770D02*
D03*
X4870D02*
D03*
X4970D02*
D03*
X5070D02*
D03*
X5170D02*
D03*
X5270D02*
D03*
X5370D02*
D03*
X5470D02*
D03*
X5570D02*
D03*
X3670Y1840D02*
D03*
X3770D02*
D03*
X3870D02*
D03*
X3970D02*
D03*
X4070D02*
D03*
X4170D02*
D03*
X4270D02*
D03*
X4370D02*
D03*
X4470D02*
D03*
X4570D02*
D03*
X4670D02*
D03*
X4770D02*
D03*
X4870D02*
D03*
X4970D02*
D03*
X5070D02*
D03*
X5170D02*
D03*
X5270D02*
D03*
X5370D02*
D03*
X5470D02*
D03*
X5570D02*
D03*
D25*
X8366Y1527D02*
D03*
X8366Y1605D02*
D03*
X8268D02*
D03*
Y1527D02*
D03*
D26*
X8554Y1420D02*
D03*
X8080D02*
D03*
D27*
X4557Y4445D02*
D03*
X4720Y4144D02*
D03*
X4699Y4069D02*
D03*
X4760Y4219D02*
D03*
X5199Y4336D02*
D03*
X4764Y4295D02*
D03*
X5902Y1470D02*
D03*
X4286Y3439D02*
D03*
X4246Y3732D02*
D03*
X4475Y3447D02*
D03*
X4346Y3352D02*
D03*
Y3270D02*
D03*
X4495Y3752D02*
D03*
X3391Y2881D02*
D03*
X2860Y1833D02*
D03*
X2920Y2800D02*
D03*
X5355Y1680D02*
D03*
X5291Y2587D02*
D03*
X6391Y1309D02*
D03*
X2995Y2760D02*
D03*
X6602Y1512D02*
D03*
X3047Y2720D02*
D03*
X7569Y1795D02*
D03*
X5130Y2680D02*
D03*
X5128Y2858D02*
D03*
X5195Y2949D02*
D03*
X4556Y2290D02*
D03*
X4576Y3181D02*
D03*
X5633Y2500D02*
D03*
X2534Y3012D02*
D03*
X5170Y3189D02*
D03*
X5070Y3431D02*
D03*
M02*
