%FSLAX23Y23*%
%MOIN*%
G70*
G01*
G75*
G04 Layer_Physical_Order=1*
%ADD10R,0.059X0.012*%
%ADD11O,0.059X0.012*%
%ADD12C,0.010*%
%ADD13C,0.250*%
%ADD14C,0.110*%
%ADD15C,0.130*%
%ADD16C,0.055*%
%ADD17R,0.059X0.059*%
%ADD18C,0.059*%
%ADD19R,0.053X0.053*%
%ADD20C,0.053*%
%ADD21C,0.047*%
%ADD22R,0.047X0.047*%
%ADD23R,0.059X0.059*%
%ADD24C,0.059*%
%ADD25C,0.065*%
%ADD26C,0.180*%
%ADD27C,0.050*%
D10*
X4410Y3490D02*
D03*
X5260Y2960D02*
D03*
D11*
X4410Y3464D02*
D03*
Y3439D02*
D03*
Y3413D02*
D03*
Y3388D02*
D03*
Y3362D02*
D03*
Y3336D02*
D03*
Y3311D02*
D03*
Y3285D02*
D03*
Y3260D02*
D03*
Y3234D02*
D03*
Y3209D02*
D03*
Y3183D02*
D03*
Y3157D02*
D03*
X4663Y3490D02*
D03*
Y3464D02*
D03*
Y3439D02*
D03*
Y3413D02*
D03*
Y3388D02*
D03*
Y3362D02*
D03*
Y3336D02*
D03*
Y3311D02*
D03*
Y3285D02*
D03*
Y3260D02*
D03*
Y3234D02*
D03*
Y3209D02*
D03*
Y3183D02*
D03*
Y3157D02*
D03*
X5513Y2627D02*
D03*
Y2653D02*
D03*
Y2679D02*
D03*
Y2704D02*
D03*
Y2730D02*
D03*
Y2755D02*
D03*
Y2781D02*
D03*
Y2806D02*
D03*
Y2832D02*
D03*
Y2858D02*
D03*
Y2883D02*
D03*
Y2909D02*
D03*
Y2934D02*
D03*
Y2960D02*
D03*
X5260Y2627D02*
D03*
Y2653D02*
D03*
Y2679D02*
D03*
Y2704D02*
D03*
Y2730D02*
D03*
Y2755D02*
D03*
Y2781D02*
D03*
Y2806D02*
D03*
Y2832D02*
D03*
Y2858D02*
D03*
Y2883D02*
D03*
Y2909D02*
D03*
Y2934D02*
D03*
D12*
X4557Y4445D02*
X8545D01*
X8600Y4390D01*
X4659Y4050D02*
X4680Y4029D01*
X4788D01*
X4659Y4050D02*
Y4123D01*
X4680Y4144D01*
X4720D01*
X4788Y4029D02*
X4885Y4126D01*
X7476D01*
X7740Y4390D01*
X4699Y4069D02*
X4724D01*
X4921Y4266D01*
X6796D01*
X6920Y4390D01*
X4760Y4219D02*
X4834Y4293D01*
X5983D01*
X6080Y4390D01*
X3614Y4336D02*
X5199D01*
X3560Y4390D02*
X3614Y4336D01*
X4744Y4315D02*
X4764Y4295D01*
X1995Y4315D02*
X4744D01*
X1870Y4440D02*
X1995Y4315D01*
X8900Y4401D02*
X9149D01*
X8900Y4390D02*
Y4401D01*
X9149D02*
X9150Y4400D01*
X8040Y4390D02*
X8249D01*
X8259Y4400D01*
X8313D01*
X7220Y4390D02*
X7250D01*
X7260Y4400D01*
X7476D01*
X6380Y4390D02*
X6450D01*
X6460Y4400D01*
X6639D01*
X5540Y4390D02*
X5792D01*
X5802Y4400D01*
X4680Y4390D02*
X4814D01*
X4824Y4400D01*
X4965D01*
X3860Y4401D02*
X4127D01*
X3860Y4390D02*
Y4401D01*
X4127D02*
X4128Y4400D01*
X3020Y4390D02*
X3128D01*
X3138Y4400D01*
X3291D01*
X2170Y4360D02*
X2414D01*
X2454Y4400D01*
X1617D02*
X1700Y4483D01*
X2127D01*
X2170Y4440D01*
X4970Y1240D02*
X5138Y1408D01*
X5898D01*
X5940Y1450D01*
X6037D01*
X6106D01*
X6110Y1454D01*
X6180D01*
X4870Y1240D02*
X5122Y1492D01*
X5880D01*
X5902Y1470D01*
X6037Y1650D02*
X6176D01*
X6180Y1646D01*
X5370Y1240D02*
X5427Y1297D01*
X5843D01*
X5936Y1390D01*
X7120D01*
X7173Y1443D01*
X7360D01*
X7046Y1764D02*
X7120Y1690D01*
X5446Y1764D02*
X7046D01*
X5370Y1840D02*
X5446Y1764D01*
X7120Y1690D02*
X7226Y1584D01*
X7985D01*
X8006Y1605D01*
X8268D01*
X1820Y1750D02*
X1920D01*
X2020D01*
X2120D01*
X2220D01*
X2320D01*
X2420D01*
X2520D01*
X2454Y2880D02*
X3291D01*
X4128Y2120D02*
X4276Y1972D01*
X4572D01*
X3291Y2120D02*
X3520D01*
X3700Y2300D01*
X4572Y1972D02*
X4620Y2020D01*
X4720Y2120D01*
X4965D01*
X5220D01*
X5400Y2300D01*
X1617Y4046D02*
X1854D01*
X2050Y3850D01*
X2454Y4046D02*
Y4046D01*
X3184D01*
X3185Y4046D01*
X1250Y4500D02*
X1250Y4500D01*
X1250D02*
X1250D01*
X1617D01*
X3185Y4046D02*
X3291D01*
X3504D01*
X3700Y3850D01*
X4620Y3413D02*
X4662D01*
X4595Y3438D02*
X4620Y3413D01*
X4595Y3438D02*
Y3640D01*
X4128D02*
X4420D01*
X4440Y3620D01*
X4595Y3640D02*
X4617Y3662D01*
X4758D01*
X4663Y3362D02*
X4663D01*
Y3388D01*
X4662D02*
X4663D01*
X4663D01*
X4662D02*
Y3413D01*
X4663D01*
X4780Y3640D02*
X4965D01*
X3700Y3850D02*
X3932D01*
X4128Y4046D01*
X4185Y3988D01*
X4758Y3662D02*
X4780Y3640D01*
X4185Y3988D02*
X4907D01*
X4965Y4046D01*
X5204D02*
X5400Y3850D01*
X4965Y4046D02*
X5204D01*
X6639Y2120D02*
X6870D01*
X7050Y2300D01*
X5468Y2844D02*
X5480Y2832D01*
X5468Y2844D02*
Y2871D01*
X5480Y2883D01*
Y2832D02*
X5513D01*
X5480Y2883D02*
X5513D01*
X5654D01*
X5655Y2884D01*
X5798D01*
X5802Y2880D01*
X7940Y1900D02*
X8050Y2010D01*
X8080Y1420D02*
X8366D01*
X7476Y2120D02*
X7940D01*
X8050Y2010D01*
X8160Y2120D01*
X8313D01*
X8750D01*
X8366Y1420D02*
X8396Y1450D01*
X8426Y1420D01*
X8724Y1250D02*
X9500D01*
X8554Y1420D02*
X8724Y1250D01*
X8366Y1480D02*
X8396Y1450D01*
X8366Y1480D02*
Y1527D01*
X8426Y1420D02*
X8554D01*
X8750Y2120D02*
X9150D01*
X8750D02*
Y2300D01*
X5400Y3850D02*
X5606D01*
X7050D02*
X7280D01*
X5606D02*
X5802Y4046D01*
X6072D01*
X6072Y4046D01*
X6638D01*
X6639Y4046D01*
X6854D01*
X7050Y3850D01*
X7280D02*
X7476Y4046D01*
X7744D01*
X7744Y4046D01*
X8312D01*
X8362Y3997D02*
X8508Y3850D01*
X8750D01*
X8312Y4046D02*
X8313Y4046D01*
X8362Y3997D01*
X8410Y4046D01*
X9150D01*
Y4500D02*
X9150Y4500D01*
X9150D02*
X9150D01*
X9500D01*
X3670Y1240D02*
X3735Y1305D01*
X4470Y1840D02*
X4535Y1905D01*
X3735Y1305D02*
X4645D01*
X4670Y1240D02*
Y1280D01*
X4645Y1305D02*
X4670Y1280D01*
X4637Y3490D02*
Y3620D01*
X4535Y1905D02*
X5535D01*
X4637Y3490D02*
X4663D01*
X5116D01*
X5184D01*
X5535Y1905D02*
X5540Y1900D01*
X5667Y2795D02*
X5840D01*
X5604Y2858D02*
X5667Y2795D01*
X5840D02*
X5882Y2837D01*
Y2920D01*
X8027Y1713D02*
X8259D01*
X8366Y1605D01*
X5540Y1900D02*
X7840D01*
X8027Y1713D01*
X5477Y3100D02*
X5506D01*
X5491Y3115D02*
X5506Y3100D01*
X5116Y3490D02*
X5491Y3115D01*
X5513Y2960D02*
Y3161D01*
Y2858D02*
X5604D01*
X5513Y2960D02*
X5842D01*
X5184Y3490D02*
X5513Y3161D01*
X5842Y2960D02*
X5882Y2920D01*
X5270Y1840D02*
X5526Y1584D01*
X6774D01*
X6831Y1527D01*
X8268D01*
X4286Y3439D02*
X4410D01*
X4286D02*
Y3439D01*
X4027Y3551D02*
Y3805D01*
Y3551D02*
X4079Y3499D01*
X4027Y3805D02*
X4065Y3843D01*
X4329Y3499D02*
X4338Y3490D01*
X4079Y3499D02*
X4329D01*
X4338Y3490D02*
X4410D01*
X4246Y3732D02*
X4357Y3843D01*
X4902D01*
X4410Y3413D02*
X4441D01*
X4475Y3447D01*
X4346Y3352D02*
X4356Y3362D01*
X4410D01*
Y3336D02*
X4451D01*
X4475Y3360D01*
X4444Y3543D02*
X4515Y3472D01*
X4047Y3600D02*
X4104Y3543D01*
X4047Y3600D02*
Y3680D01*
X4104Y3543D02*
X4444D01*
X4047Y3680D02*
X4287Y3920D01*
X5100D01*
X4475Y3360D02*
Y3382D01*
X4515Y3422D01*
Y3472D01*
X5100Y3920D02*
X5310Y3710D01*
X5503D01*
X5565Y3772D01*
X6505D01*
X6576Y3843D01*
X4346Y3270D02*
X4361D01*
X4376Y3285D01*
X4410D01*
X4495Y3752D02*
X5077D01*
X6828Y3666D02*
X7354D01*
X6774Y3720D02*
X6828Y3666D01*
X7354D02*
X7413Y3725D01*
X5159Y3670D02*
X5581D01*
X5077Y3752D02*
X5159Y3670D01*
X5581D02*
X5631Y3720D01*
X6774D01*
X7413Y3725D02*
Y3843D01*
X4410Y3260D02*
X4477D01*
X4535Y3317D01*
X4455Y3720D02*
X4535Y3640D01*
Y3317D02*
Y3640D01*
X4455Y3720D02*
Y3800D01*
X4467Y3812D01*
X4860Y3772D02*
X5178D01*
X4467Y3812D02*
X4820D01*
X4860Y3772D01*
X5260Y3690D02*
X5540D01*
X5178Y3772D02*
X5260Y3690D01*
X6910Y3710D02*
X7172D01*
X5540Y3690D02*
X5595Y3745D01*
X6875D02*
X6910Y3710D01*
X5595Y3745D02*
X6875D01*
X7172Y3710D02*
X7375Y3913D01*
X8180D01*
X8250Y3843D01*
X4410Y3209D02*
X4455D01*
X4575Y3329D01*
Y3680D01*
X4615Y3720D01*
X5023D02*
X5183Y3560D01*
X8804D01*
X4615Y3720D02*
X5023D01*
X8804Y3560D02*
X9087Y3843D01*
X4306Y3240D02*
Y3300D01*
X4246Y3420D02*
X4267Y3399D01*
X4305Y3326D02*
Y3399D01*
X4306Y3240D02*
X4316Y3230D01*
X4306Y3300D02*
X4317Y3311D01*
X4305Y3326D02*
X4320Y3311D01*
X4246Y3420D02*
Y3479D01*
X1554Y3843D02*
X1917Y3479D01*
X4267Y3399D02*
X4305D01*
X4354D01*
X1917Y3479D02*
X4246D01*
X4311D01*
X4316Y3230D02*
X4365D01*
X4317Y3311D02*
X4320D01*
X4365Y3230D02*
X4369Y3234D01*
X4410D01*
X4320Y3311D02*
X4410D01*
X4311Y3479D02*
X4326Y3464D01*
X4354Y3399D02*
X4365Y3388D01*
X4410D01*
X4326Y3464D02*
X4410D01*
X2620Y1750D02*
X2655D01*
X3228Y2323D01*
X4009Y2881D02*
X4110Y2780D01*
X5059D01*
X5080Y2801D01*
Y2869D01*
X3391Y2881D02*
X4009D01*
X5080Y2869D02*
X5120Y2909D01*
X5260D01*
X2860Y1833D02*
X3227Y2200D01*
X3341D01*
X3581Y2440D01*
X3948D01*
X4065Y2323D02*
X4177Y2211D01*
X3948Y2440D02*
X4065Y2323D01*
X4177Y2211D02*
X5071D01*
X5300Y2440D01*
X5633D01*
X5673Y2480D01*
X5627Y2606D02*
X5673Y2560D01*
Y2480D02*
Y2560D01*
X5379Y2667D02*
Y2887D01*
X5260Y2960D02*
X5306D01*
X5440Y2606D02*
X5627D01*
X5306Y2960D02*
X5379Y2887D01*
Y2667D02*
X5440Y2606D01*
X2820Y1750D02*
Y1853D01*
X3187Y2220D01*
X3272D01*
X3512Y2460D01*
X4062D01*
X4132Y2390D02*
X4835D01*
X4062Y2460D02*
X4132Y2390D01*
X4835D02*
X4902Y2323D01*
X4835Y2390D02*
X4880Y2435D01*
X5040D01*
X5120Y2515D01*
X5300D01*
X5260Y2883D02*
X5302D01*
X5300Y2515D02*
X5345Y2560D01*
X5302Y2883D02*
X5345Y2840D01*
Y2560D02*
Y2840D01*
X2920Y1750D02*
X2963Y1793D01*
X3227Y1680D02*
X5355D01*
X3177Y1730D02*
X3227Y1680D01*
X3177Y1730D02*
Y1756D01*
X2963Y1793D02*
X3140D01*
X2920Y2800D02*
X3137D01*
X3140Y1793D02*
X3177Y1756D01*
X3137Y2800D02*
X3177Y2760D01*
X5083D01*
X5093Y2770D01*
X5158D01*
X5220Y2832D01*
X5260D01*
X3183Y1587D02*
X4503D01*
X3020Y1750D02*
X3183Y1587D01*
X4725Y1220D02*
X4750Y1195D01*
X6277D01*
X4503Y1587D02*
X4725Y1365D01*
Y1220D02*
Y1365D01*
X5260Y2806D02*
X5305D01*
X6277Y1195D02*
X6391Y1309D01*
X5291Y2587D02*
X5325Y2621D01*
Y2786D01*
X5305Y2806D02*
X5325Y2786D01*
X3218Y1652D02*
X5192D01*
X3120Y1750D02*
X3218Y1652D01*
X3124Y2740D02*
X5113D01*
X2995Y2760D02*
X3104D01*
X3124Y2740D01*
X5332Y1512D02*
X6602D01*
X5192Y1652D02*
X5332Y1512D01*
X5113Y2740D02*
X5123Y2750D01*
X5186D01*
X5191Y2755D01*
X5260D01*
X3263Y1707D02*
X5162D01*
X3220Y1750D02*
X3263Y1707D01*
X5162D02*
X5215Y1760D01*
X3047Y2720D02*
X5151D01*
X5161Y2730D01*
X5260D01*
X5515Y1820D02*
X5540Y1795D01*
X5215Y1760D02*
Y1860D01*
X5515Y1820D02*
Y1860D01*
X5540Y1795D02*
X7569D01*
X5215Y1860D02*
X5240Y1885D01*
X5490D01*
X5515Y1860D01*
X2600Y1707D02*
X2844D01*
X2577Y1730D02*
X2600Y1707D01*
X2577Y1730D02*
Y1929D01*
X2844Y1707D02*
X2877Y1740D01*
Y1770D01*
X3320Y1750D02*
X3342Y1771D01*
X2877Y1770D02*
X2920Y1813D01*
X2577Y1929D02*
X3288Y2640D01*
X2920Y1813D02*
X3300D01*
X3320Y1793D01*
X3342Y1771D01*
X3288Y2640D02*
X5150D01*
X3320Y1793D02*
X3456Y1929D01*
X7901Y1880D02*
Y1918D01*
X3456Y1929D02*
X7549D01*
X7559Y1939D01*
X7901Y1880D02*
X7920Y1861D01*
X9064D01*
X7880Y1939D02*
X7901Y1918D01*
X9064Y1861D02*
X9230Y2027D01*
X5150Y2640D02*
X5189Y2679D01*
X5260D01*
X7559Y1939D02*
X7880D01*
X9230Y2027D02*
Y2180D01*
X9087Y2323D02*
X9230Y2180D01*
X1554Y2323D02*
X1911Y2680D01*
X5130D01*
X5148D01*
X5172Y2704D01*
X5128Y2858D02*
X5260D01*
X5172Y2704D02*
X5260D01*
X5290D01*
X5305Y2719D01*
Y2767D01*
X5260Y2781D02*
X5291D01*
X5305Y2767D01*
X5195Y2949D02*
X5210Y2934D01*
X5260D01*
X3228Y3083D02*
Y3083D01*
X3931D01*
X4001Y3153D01*
X4111D01*
X4135Y3129D01*
X4443D01*
X4474Y3160D01*
Y3193D01*
X4617Y3336D01*
X4663D01*
X4065Y3083D02*
X4480D01*
X4536Y3139D01*
Y3215D01*
X4606Y3285D01*
X4663D01*
X4740Y3260D02*
X4859Y3141D01*
X4663Y3260D02*
X4740D01*
X4902Y3083D02*
Y3141D01*
X4859D02*
X4902D01*
X4556Y2290D02*
X4794D01*
X4576Y3181D02*
X4604Y3209D01*
X4663D01*
X4832Y2252D02*
X4954D01*
X4794Y2290D02*
X4832Y2252D01*
X4954D02*
X5175Y2473D01*
X5606D01*
X5633Y2500D01*
X5576Y2806D02*
X5607Y2775D01*
X5513Y2806D02*
X5576D01*
X5607Y2775D02*
X6331D01*
X6576Y3020D01*
Y3083D01*
X5513Y2755D02*
X5564D01*
X5569Y2750D01*
X7202D01*
X7413Y2961D01*
Y3083D01*
X5513Y2730D02*
X5555D01*
X5556Y2729D01*
X7982D01*
X8250Y2997D01*
Y3083D01*
X5513Y2679D02*
X5635D01*
X5636Y2678D01*
X8752D01*
X9087Y3013D01*
Y3083D01*
X1554D02*
X1664D01*
X1664Y2972D02*
Y3082D01*
X1664Y3083D02*
X1664Y3082D01*
Y2972D02*
X2280D01*
X4737D01*
X1664Y3083D02*
Y3193D01*
X2280Y2972D02*
Y3193D01*
X1664D02*
X2280D01*
X4262Y3183D02*
X4410D01*
X2280Y3193D02*
X4252D01*
X4262Y3183D01*
X4663Y3234D02*
X4703D01*
X4663Y3311D02*
X4781D01*
X5468Y2716D02*
X5480Y2704D01*
X5468Y2716D02*
Y2781D01*
X5440Y2809D02*
X5468Y2781D01*
X5474Y2786D01*
X5480Y2704D02*
X5513D01*
X5474Y2786D02*
X5479Y2781D01*
X5513D01*
X4737Y2972D02*
X4904D01*
X5012Y3080D01*
X4703Y3234D02*
X4737Y3200D01*
Y2972D02*
Y3200D01*
X5063Y3029D02*
X5283D01*
X5440Y2809D02*
Y2872D01*
X4781Y3311D02*
X5012Y3080D01*
X5283Y3029D02*
X5440Y2872D01*
X5012Y3080D02*
X5063Y3029D01*
X2534Y3008D02*
Y3012D01*
Y3008D02*
X2550Y2992D01*
X4669D01*
X4711Y3034D01*
X4663Y3183D02*
X4700D01*
X4711Y3034D02*
Y3172D01*
X4700Y3183D02*
X4711Y3172D01*
X2530Y3083D02*
X2601Y3012D01*
X3157D01*
X4471D01*
X2391Y3083D02*
X2530D01*
X3157Y3012D02*
Y3130D01*
X3200Y3173D01*
X4471Y3012D02*
X4616Y3157D01*
X3200Y3173D02*
X4152D01*
X4168Y3157D01*
X4410D01*
X4616D02*
X4663D01*
X2420Y1450D02*
X2463Y1407D01*
X2677D01*
X2720Y1450D01*
X2220D02*
X2437Y1233D01*
X2703D01*
X2920Y1450D01*
X2120D02*
X2163Y1493D01*
X2977D01*
X3020Y1450D01*
X3120D02*
X3421Y1149D01*
X2020Y1450D02*
X2094Y1524D01*
X3046D01*
X3120Y1450D01*
X3421Y1149D02*
X4569D01*
X4620Y1200D01*
Y1275D01*
X4370Y1240D02*
X4415Y1285D01*
X4610D01*
X4620Y1275D01*
X1920Y1450D02*
X2107Y1637D01*
X3033D01*
X3220Y1450D02*
X3263Y1493D01*
X3033Y1637D02*
X3220Y1450D01*
X3625Y1195D02*
Y1231D01*
Y1195D02*
X4425D01*
X4470Y1240D01*
X3263Y1493D02*
X3363D01*
X3625Y1231D01*
X1820Y1450D02*
X1870Y1400D01*
X1934D01*
X1977Y1443D01*
Y1470D01*
X2122Y1615D01*
X3018D01*
X3170Y1463D01*
X3595Y1175D02*
X4505D01*
X3320Y1450D02*
X3595Y1175D01*
X4505D02*
X4570Y1240D01*
X3170Y1435D02*
X3198Y1407D01*
X3170Y1435D02*
Y1463D01*
X3198Y1407D02*
X3277D01*
X3320Y1450D01*
X4663Y3439D02*
X4694D01*
X4944Y3189D02*
X5170D01*
X4694Y3439D02*
X4944Y3189D01*
X5415Y2967D02*
X5473Y2909D01*
X5513D01*
X5170Y3189D02*
X5329D01*
X5415Y2967D02*
Y3103D01*
X5329Y3189D02*
X5415Y3103D01*
X5037Y3464D02*
X5070Y3431D01*
X4663Y3464D02*
X5037D01*
X5082D01*
X5435Y2983D02*
X5484Y2934D01*
X5435Y2983D02*
Y3111D01*
X5484Y2934D02*
X5513D01*
X5082Y3464D02*
X5435Y3111D01*
D13*
X1250Y1250D02*
D03*
X2050Y2300D02*
D03*
X3700D02*
D03*
X5400D02*
D03*
X2050Y3850D02*
D03*
X3700D02*
D03*
X1250Y4500D02*
D03*
X5400Y3850D02*
D03*
X7050Y2300D02*
D03*
X9500Y1250D02*
D03*
X8750Y2300D02*
D03*
X7050Y3850D02*
D03*
X8750D02*
D03*
X9500Y4500D02*
D03*
D14*
X2391Y3083D02*
D03*
X1554Y2323D02*
D03*
Y3083D02*
D03*
X6576D02*
D03*
X3228D02*
D03*
X7413D02*
D03*
X4065D02*
D03*
X8250D02*
D03*
X4902D02*
D03*
X9087D02*
D03*
X5739D02*
D03*
X3228Y2323D02*
D03*
X4065D02*
D03*
X4902D02*
D03*
X5739D02*
D03*
X6576D02*
D03*
X7413D02*
D03*
X8250D02*
D03*
X9087D02*
D03*
Y3843D02*
D03*
X8250D02*
D03*
X7413D02*
D03*
X6576D02*
D03*
X5739D02*
D03*
X4902D02*
D03*
X4065D02*
D03*
X3228D02*
D03*
X1554D02*
D03*
X2391D02*
D03*
D15*
X2454Y3286D02*
D03*
Y2880D02*
D03*
X1617Y2526D02*
D03*
Y2120D02*
D03*
Y3286D02*
D03*
Y2880D02*
D03*
X6639Y3286D02*
D03*
Y2880D02*
D03*
X3291Y3286D02*
D03*
Y2880D02*
D03*
X7476Y3286D02*
D03*
Y2880D02*
D03*
X4128Y3286D02*
D03*
Y2880D02*
D03*
X8313Y3286D02*
D03*
Y2880D02*
D03*
X4965Y3286D02*
D03*
Y2880D02*
D03*
X9150Y3286D02*
D03*
Y2880D02*
D03*
X5802Y3286D02*
D03*
Y2880D02*
D03*
X3291Y2526D02*
D03*
Y2120D02*
D03*
X4128Y2526D02*
D03*
Y2120D02*
D03*
X4965Y2526D02*
D03*
Y2120D02*
D03*
X5802Y2526D02*
D03*
Y2120D02*
D03*
X6639Y2526D02*
D03*
Y2120D02*
D03*
X7476Y2526D02*
D03*
Y2120D02*
D03*
X8313Y2526D02*
D03*
Y2120D02*
D03*
X9150Y2526D02*
D03*
Y2120D02*
D03*
Y3640D02*
D03*
Y4046D02*
D03*
X8313Y3640D02*
D03*
Y4046D02*
D03*
X7476Y3640D02*
D03*
Y4046D02*
D03*
X6639Y3640D02*
D03*
Y4046D02*
D03*
X5802Y3640D02*
D03*
Y4046D02*
D03*
X4965Y3640D02*
D03*
Y4046D02*
D03*
X4128Y3640D02*
D03*
Y4046D02*
D03*
X3291Y3640D02*
D03*
Y4046D02*
D03*
X1617Y3640D02*
D03*
Y4046D02*
D03*
X2454Y3640D02*
D03*
Y4046D02*
D03*
D16*
X1870Y4440D02*
D03*
X2170D02*
D03*
X1870Y4360D02*
D03*
X2170D02*
D03*
X2720Y4390D02*
D03*
X3020D02*
D03*
X3560D02*
D03*
X3860D02*
D03*
X4380D02*
D03*
X4680D02*
D03*
X5240D02*
D03*
X5540D02*
D03*
X6080D02*
D03*
X6380D02*
D03*
X6920D02*
D03*
X7220D02*
D03*
X7740D02*
D03*
X8040D02*
D03*
X8600D02*
D03*
X8900D02*
D03*
X6180Y1646D02*
D03*
Y1454D02*
D03*
X7120Y1690D02*
D03*
Y1390D02*
D03*
X2620Y1750D02*
D03*
Y1450D02*
D03*
X2720Y1750D02*
D03*
Y1450D02*
D03*
X2820Y1750D02*
D03*
Y1450D02*
D03*
X2920Y1750D02*
D03*
Y1450D02*
D03*
X3020Y1750D02*
D03*
Y1450D02*
D03*
X3120Y1750D02*
D03*
Y1450D02*
D03*
X3220Y1750D02*
D03*
Y1450D02*
D03*
X3320Y1750D02*
D03*
Y1450D02*
D03*
X2520D02*
D03*
Y1750D02*
D03*
X2420Y1450D02*
D03*
Y1750D02*
D03*
X2320Y1450D02*
D03*
Y1750D02*
D03*
X2220Y1450D02*
D03*
Y1750D02*
D03*
X2120Y1450D02*
D03*
Y1750D02*
D03*
X2020Y1450D02*
D03*
Y1750D02*
D03*
X1920Y1450D02*
D03*
Y1750D02*
D03*
X1820Y1450D02*
D03*
Y1750D02*
D03*
D17*
X1617Y4400D02*
D03*
X2454D02*
D03*
X3291D02*
D03*
X4128D02*
D03*
X4965D02*
D03*
X5802D02*
D03*
X6639D02*
D03*
X7476D02*
D03*
X8313D02*
D03*
X9150D02*
D03*
D18*
X1617Y4500D02*
D03*
X2454D02*
D03*
X3291D02*
D03*
X4128D02*
D03*
X4965D02*
D03*
X5802D02*
D03*
X6639D02*
D03*
X7476D02*
D03*
X8313D02*
D03*
X9150D02*
D03*
D19*
X5840Y1650D02*
D03*
Y1450D02*
D03*
X7360Y1640D02*
D03*
X4440Y3620D02*
D03*
X5280Y3100D02*
D03*
X4620Y2020D02*
D03*
D20*
X6037Y1650D02*
D03*
Y1450D02*
D03*
X7360Y1443D02*
D03*
X4637Y3620D02*
D03*
X5477Y3100D02*
D03*
X4423Y2020D02*
D03*
D21*
X7940Y1900D02*
D03*
D22*
X7840D02*
D03*
D23*
X3670Y1240D02*
D03*
D24*
X3770D02*
D03*
X3870D02*
D03*
X3970D02*
D03*
X4070D02*
D03*
X4170D02*
D03*
X4270D02*
D03*
X4370D02*
D03*
X4470D02*
D03*
X4570D02*
D03*
X4670D02*
D03*
X4770D02*
D03*
X4870D02*
D03*
X4970D02*
D03*
X5070D02*
D03*
X5170D02*
D03*
X5270D02*
D03*
X5370D02*
D03*
X5470D02*
D03*
X5570D02*
D03*
X3670Y1840D02*
D03*
X3770D02*
D03*
X3870D02*
D03*
X3970D02*
D03*
X4070D02*
D03*
X4170D02*
D03*
X4270D02*
D03*
X4370D02*
D03*
X4470D02*
D03*
X4570D02*
D03*
X4670D02*
D03*
X4770D02*
D03*
X4870D02*
D03*
X4970D02*
D03*
X5070D02*
D03*
X5170D02*
D03*
X5270D02*
D03*
X5370D02*
D03*
X5470D02*
D03*
X5570D02*
D03*
D25*
X8366Y1527D02*
D03*
X8366Y1605D02*
D03*
X8268D02*
D03*
Y1527D02*
D03*
D26*
X8554Y1420D02*
D03*
X8080D02*
D03*
D27*
X4557Y4445D02*
D03*
X4720Y4144D02*
D03*
X4699Y4069D02*
D03*
X4760Y4219D02*
D03*
X5199Y4336D02*
D03*
X4764Y4295D02*
D03*
X5902Y1470D02*
D03*
X4286Y3439D02*
D03*
X4246Y3732D02*
D03*
X4475Y3447D02*
D03*
X4346Y3352D02*
D03*
Y3270D02*
D03*
X4495Y3752D02*
D03*
X3391Y2881D02*
D03*
X2860Y1833D02*
D03*
X2920Y2800D02*
D03*
X5355Y1680D02*
D03*
X5291Y2587D02*
D03*
X6391Y1309D02*
D03*
X2995Y2760D02*
D03*
X6602Y1512D02*
D03*
X3047Y2720D02*
D03*
X7569Y1795D02*
D03*
X5130Y2680D02*
D03*
X5128Y2858D02*
D03*
X5195Y2949D02*
D03*
X4556Y2290D02*
D03*
X4576Y3181D02*
D03*
X5633Y2500D02*
D03*
X2534Y3012D02*
D03*
X5170Y3189D02*
D03*
X5070Y3431D02*
D03*
M02*
