%FSLAX23Y23*%
%MOIN*%
G70*
G01*
G75*
G04 Layer_Physical_Order=2*
%ADD10O,0.012X0.059*%
%ADD11R,0.012X0.059*%
%ADD12O,0.059X0.012*%
%ADD13R,0.059X0.012*%
%ADD14C,0.010*%
%ADD15C,0.110*%
%ADD16O,0.236X0.130*%
%ADD17C,0.300*%
%ADD18R,0.059X0.059*%
%ADD19C,0.059*%
%ADD20C,0.055*%
%ADD21R,0.053X0.053*%
%ADD22C,0.053*%
%ADD23C,0.047*%
%ADD24R,0.047X0.047*%
%ADD25R,0.059X0.059*%
%ADD26C,0.059*%
%ADD27C,0.065*%
%ADD28C,0.180*%
%ADD29C,0.050*%
D14*
X3370Y2034D02*
Y2545D01*
X4070Y840D02*
X4098Y868D01*
X3418Y2706D02*
X3430Y2694D01*
X3453Y2671D01*
X4170Y840D02*
Y1888D01*
X1377Y1170D02*
X1520D01*
X3518Y2792D02*
X3580Y2854D01*
X3598Y2255D02*
X3658Y2195D01*
X554Y2083D02*
X629D01*
X1317Y1395D01*
X4600Y2083D02*
X4739D01*
X3697Y2800D02*
X3747Y2750D01*
X3688Y2508D02*
Y2528D01*
X3756Y2229D02*
X3902Y2083D01*
X2080Y2323D02*
X2187Y2430D01*
X2080Y2231D02*
X2228Y2083D01*
X2295Y750D02*
Y780D01*
Y750D02*
X2320D01*
X1535Y1349D02*
Y1545D01*
X1777Y1237D02*
Y1612D01*
X2220Y750D02*
X2255D01*
X1630Y1270D02*
Y1375D01*
X2120Y750D02*
Y780D01*
X1690Y1292D02*
Y1385D01*
X2020Y750D02*
Y804D01*
X1886Y750D02*
X1920D01*
X1388Y1298D02*
X1410D01*
X2429Y687D02*
X3065Y1323D01*
X1720Y750D02*
X1783Y687D01*
X5576Y2843D02*
Y2920D01*
X3498Y2478D02*
X3536Y2440D01*
X3680Y2843D02*
X3902D01*
X3456Y2220D02*
X3556Y2120D01*
X3416Y2199D02*
X3500Y2115D01*
X3065Y2843D02*
X3379D01*
X3413Y2414D02*
Y2641D01*
X2228Y2843D02*
X2444D01*
X1620Y450D02*
X1695Y525D01*
X2485D02*
X2770Y240D01*
X7285Y687D02*
X7366Y605D01*
X6840Y900D02*
X7053Y687D01*
X3470Y440D02*
X3670Y240D01*
X3423Y887D02*
Y1020D01*
Y887D02*
X3470Y840D01*
Y440D02*
Y840D01*
X3330Y1113D02*
Y2599D01*
Y1113D02*
X3423Y1020D01*
X1444Y240D02*
X2670D01*
X1080Y1083D02*
X1170Y993D01*
X8150Y3370D02*
X8328Y3192D01*
X8149Y2640D02*
Y2716D01*
Y2640D02*
X8150D01*
Y2286D02*
Y2640D01*
X7313Y3046D02*
Y3370D01*
X6476Y2286D02*
Y2640D01*
X4802Y3370D02*
X4823D01*
X5639Y3046D02*
Y3370D01*
X4823Y3330D02*
Y3370D01*
X3965Y3046D02*
Y3370D01*
X5639Y3046D02*
X5669D01*
X4802Y2640D02*
X4925D01*
X3763Y3046D02*
X3965D01*
X4802Y2286D02*
Y2640D01*
X7313Y1526D02*
Y1880D01*
X6986Y1526D02*
X7313D01*
X6940Y900D02*
Y1480D01*
X7366Y527D02*
X7414Y574D01*
X6940Y900D02*
X7297D01*
X5638Y1880D02*
Y2041D01*
Y1880D02*
X5639D01*
Y1526D02*
Y1880D01*
X3965Y1526D02*
Y1880D01*
X3786Y1526D02*
X3965D01*
X6476Y756D02*
Y1120D01*
X6360Y640D02*
X6476Y756D01*
X4840Y450D02*
Y650D01*
X4802Y688D02*
Y1120D01*
Y688D02*
X4840Y650D01*
X3560Y2750D02*
X3637Y2827D01*
X3128Y2286D02*
Y2640D01*
X3010Y2286D02*
X3128D01*
X1454Y3370D02*
X1475D01*
X2291Y3046D02*
Y3370D01*
X1475Y3330D02*
Y3370D01*
X617Y3046D02*
Y3370D01*
X1454Y2640D02*
X1577D01*
X1454Y2286D02*
Y2640D01*
X499Y3046D02*
X617D01*
X493Y1880D02*
X617D01*
X3620Y1020D02*
Y1360D01*
X3135Y1120D02*
Y1400D01*
X2291Y1526D02*
Y1880D01*
X3570Y970D02*
X3620Y1020D01*
X3570Y440D02*
X3770Y240D01*
X3570Y840D02*
Y970D01*
Y440D02*
Y840D01*
X3128Y1120D02*
X3135D01*
X617Y1526D02*
Y1880D01*
X1080Y1280D02*
X1220Y1140D01*
Y750D02*
Y1140D01*
X2130Y3470D02*
X2291D01*
X2020Y3360D02*
X2130Y3470D01*
X2970D02*
X3128D01*
X2860Y3360D02*
X2970Y3470D01*
X3790D02*
X3965D01*
X3680Y3360D02*
X3790Y3470D01*
X5490D02*
X5639D01*
X5380Y3360D02*
X5490Y3470D01*
X6330D02*
X6476D01*
X6220Y3360D02*
X6330Y3470D01*
X6759D02*
X7313D01*
X6978Y3298D02*
X7040Y3360D01*
X8010Y3470D02*
X8150D01*
X7900Y3360D02*
X8010Y3470D01*
X4180Y150D02*
X4270Y240D01*
X870Y3410D02*
X966Y3314D01*
X4105Y175D02*
X4170Y240D01*
X827Y3373D02*
X870Y3330D01*
X2560Y3360D02*
X2755Y3555D01*
X4570Y240D02*
X5207D01*
X4570Y840D02*
Y1106D01*
X3380Y3360D02*
X3535Y3515D01*
X4360Y950D02*
X4470Y840D01*
X4240Y3360D02*
X4360Y3240D01*
X5080Y3360D02*
X5495Y2945D01*
X3970Y840D02*
X4015Y795D01*
X5792Y3232D02*
X5920Y3360D01*
X3870Y840D02*
X3935Y775D01*
X6740Y3360D02*
X6795Y3415D01*
X3716Y894D02*
X3770Y840D01*
X7600Y3103D02*
Y3360D01*
X3670Y840D02*
X3755Y755D01*
X1520Y1170D02*
X1570Y1220D01*
Y1516D01*
X1604Y1550D01*
Y2441D01*
X2076Y2913D01*
X2433D01*
X2535Y3015D01*
X2810D01*
X2865Y2960D01*
Y2826D02*
Y2960D01*
Y2826D02*
X2920Y2771D01*
X3252D01*
X3317Y2706D01*
X3418D01*
X3598Y2255D02*
Y2528D01*
X3518Y2608D02*
X3598Y2528D01*
X3518Y2608D02*
Y2792D01*
X3688Y2508D02*
X3756Y2440D01*
Y2229D02*
Y2440D01*
X2080Y2231D02*
Y2323D01*
X2282Y793D02*
X2295Y780D01*
X2200Y793D02*
X2282D01*
X2170Y763D02*
X2200Y793D01*
X2170Y737D02*
Y763D01*
X2140Y707D02*
X2170Y737D01*
X2000Y707D02*
X2140D01*
X1968Y739D02*
X2000Y707D01*
X1968Y739D02*
Y793D01*
X1671Y1090D02*
X1968Y793D01*
X1392Y1090D02*
X1671D01*
X1332Y1150D02*
X1392Y1090D01*
X1332Y1150D02*
Y1202D01*
X1340Y1210D01*
X1396D01*
X1535Y1349D01*
X2255Y750D02*
X2298Y707D01*
X2342D01*
X2385Y750D01*
Y920D01*
X2325Y980D02*
X2385Y920D01*
X2034Y980D02*
X2325D01*
X1777Y1237D02*
X2034Y980D01*
X5571Y2925D02*
X5576Y2920D01*
X5326Y2925D02*
X5571D01*
X4836Y3415D02*
X5326Y2925D01*
X4728Y3415D02*
X4836D01*
X4608Y3535D02*
X4728Y3415D01*
X3430Y3535D02*
X4608D01*
X3337Y3442D02*
X3430Y3535D01*
X3337Y3298D02*
Y3442D01*
Y3298D02*
X3498Y3137D01*
Y2478D02*
Y3137D01*
X3416Y2199D02*
Y2240D01*
X3478Y2302D01*
Y2744D01*
X3379Y2843D02*
X3478Y2744D01*
X2875Y150D02*
X4180D01*
X2825Y200D02*
X2875Y150D01*
X2825Y200D02*
Y482D01*
X2685Y622D02*
X2825Y482D01*
X1628Y622D02*
X2685D01*
X1570Y680D02*
X1628Y622D01*
X1570Y680D02*
Y840D01*
X1528Y882D02*
X1570Y840D01*
X1320Y882D02*
X1528D01*
X1257Y945D02*
X1320Y882D01*
X1257Y945D02*
Y1246D01*
X1357Y1346D01*
Y1500D01*
X966Y1891D02*
X1357Y1500D01*
X966Y1891D02*
Y3314D01*
X2755Y3555D02*
X5823D01*
X5963Y3415D01*
Y3056D02*
Y3415D01*
X5885Y2978D02*
X5963Y3056D01*
X5885Y918D02*
Y2978D01*
X5207Y240D02*
X5885Y918D01*
X4360Y950D02*
Y3240D01*
X5495Y2945D02*
X5600D01*
X5646Y2899D01*
Y2799D02*
Y2899D01*
X5619Y2772D02*
X5646Y2799D01*
X5428Y2772D02*
X5619D01*
X5016Y2360D02*
X5428Y2772D01*
X5016Y1365D02*
Y2360D01*
X4851Y1200D02*
X5016Y1365D01*
X4708Y1200D02*
X4851D01*
X4668Y1160D02*
X4708Y1200D01*
X4668Y840D02*
Y1160D01*
X4623Y795D02*
X4668Y840D01*
X4015Y795D02*
X4623D01*
X6795Y3415D02*
X7620D01*
X7643Y3392D01*
Y3096D02*
Y3392D01*
X7297Y2750D02*
X7643Y3096D01*
X7179Y2750D02*
X7297D01*
X6922Y2493D02*
X7179Y2750D01*
X6922Y2140D02*
Y2493D01*
X6342Y1560D02*
X6922Y2140D01*
X6342Y1189D02*
Y1560D01*
X5286Y133D02*
X6342Y1189D01*
X4360Y133D02*
X5286D01*
X4315Y178D02*
X4360Y133D01*
X4315Y178D02*
Y285D01*
X4093Y507D02*
X4315Y285D01*
X3673Y507D02*
X4093D01*
X3620Y560D02*
X3673Y507D01*
X3620Y560D02*
Y874D01*
X3640Y894D01*
X3716D01*
X3755Y755D02*
X4249D01*
X4525Y479D01*
Y220D02*
Y479D01*
Y220D02*
X4550Y195D01*
X5287D01*
X6302Y1210D01*
Y1920D01*
X6355Y1973D01*
X6645D01*
X6841Y2169D01*
Y2629D01*
X7125Y2913D01*
X7410D01*
X7600Y3103D01*
X6697Y3408D02*
X6759Y3470D01*
X6697Y3320D02*
Y3408D01*
Y3320D02*
X6719Y3298D01*
X6978D01*
X1590Y1234D02*
X2020Y804D01*
X1590Y1234D02*
Y1405D01*
X1600Y1415D01*
X1660D01*
X1690Y1385D01*
X7053Y687D02*
X7285D01*
X7414Y574D02*
Y783D01*
X7297Y900D02*
X7414Y783D01*
X4570Y1106D02*
X4686Y1222D01*
X4748D01*
X4971Y1445D01*
Y2021D01*
X4803Y2189D02*
X4971Y2021D01*
X4676Y2189D02*
X4803D01*
X4625Y2240D02*
X4676Y2189D01*
X4625Y2240D02*
Y3408D01*
X4558Y3475D02*
X4625Y3408D01*
X4050Y3475D02*
X4558D01*
X4010Y3515D02*
X4050Y3475D01*
X3535Y3515D02*
X4010D01*
X827Y3373D02*
Y3440D01*
X840Y3453D01*
X1213D01*
X1320Y3346D01*
Y1794D02*
Y3346D01*
Y1794D02*
X1377Y1737D01*
Y1337D02*
Y1737D01*
X1277Y1237D02*
X1377Y1337D01*
X1277Y1111D02*
Y1237D01*
Y1111D02*
X1345Y1043D01*
X1517D01*
X1670Y890D01*
Y704D02*
Y890D01*
Y704D02*
X1720Y654D01*
X3193D01*
X3520Y327D01*
Y223D02*
Y327D01*
Y223D02*
X3568Y175D01*
X4105D01*
X3122Y1413D02*
X3135Y1400D01*
X3023Y1413D02*
X3122D01*
X2994Y1442D02*
X3023Y1413D01*
X2994Y1442D02*
Y2270D01*
X3010Y2286D01*
X3390Y2664D02*
X3413Y2641D01*
X3317Y2664D02*
X3390D01*
X3261Y2720D02*
X3317Y2664D01*
X2875Y2720D02*
X3261D01*
X2840Y2685D02*
X2875Y2720D01*
X2602Y2685D02*
X2840D01*
X2444Y2843D02*
X2602Y2685D01*
X3935Y775D02*
X4305D01*
X4672Y408D01*
X5346D01*
X5792Y854D01*
Y3232D01*
X5638Y2041D02*
X5772Y2175D01*
Y2943D01*
X5669Y3046D02*
X5772Y2943D01*
X4554Y2129D02*
X4600Y2083D01*
X4554Y2129D02*
Y3283D01*
X4434Y3403D02*
X4554Y3283D01*
X4220Y3403D02*
X4434D01*
X4197Y3380D02*
X4220Y3403D01*
X4197Y2975D02*
Y3380D01*
X3972Y2750D02*
X4197Y2975D01*
X3747Y2750D02*
X3972D01*
X3370Y2034D02*
X3431Y1973D01*
X4045D01*
X4098Y1920D01*
Y868D02*
Y1920D01*
X1695Y525D02*
X2485D01*
X3453Y2358D02*
Y2671D01*
X3396Y2301D02*
X3453Y2358D01*
X3396Y2126D02*
Y2301D01*
Y2126D02*
X3515Y2007D01*
X4051D01*
X4170Y1888D01*
X3657Y2820D02*
X3680Y2843D01*
X3657Y2587D02*
Y2820D01*
X3618Y2548D02*
X3657Y2587D01*
X3618Y2428D02*
Y2548D01*
Y2428D02*
X3698Y2348D01*
Y2142D02*
Y2348D01*
X3676Y2120D02*
X3698Y2142D01*
X3556Y2120D02*
X3676D01*
X3637Y2920D02*
X3763Y3046D01*
X3637Y2827D02*
Y2920D01*
X1886Y750D02*
Y760D01*
X1583Y1063D02*
X1886Y760D01*
X1361Y1063D02*
X1583D01*
X1310Y1114D02*
X1361Y1063D01*
X1310Y1114D02*
Y1220D01*
X1388Y1298D01*
X483Y1890D02*
X493Y1880D01*
X483Y1890D02*
Y3030D01*
X499Y3046D01*
X1630Y1270D02*
X2120Y780D01*
X1783Y687D02*
X2429D01*
X1170Y707D02*
Y993D01*
Y707D02*
X1277Y600D01*
Y407D02*
Y600D01*
Y407D02*
X1444Y240D01*
X3620Y1360D02*
X3786Y1526D01*
X6940Y1480D02*
X6986Y1526D01*
X8149Y2716D02*
X8328Y2895D01*
Y3192D01*
X1475Y3330D02*
X1587Y3218D01*
Y2650D02*
Y3218D01*
X1577Y2640D02*
X1587Y2650D01*
X4823Y3330D02*
X4935Y3218D01*
Y2650D02*
Y3218D01*
X4925Y2640D02*
X4935Y2650D01*
D15*
X1391Y2083D02*
D03*
Y2843D02*
D03*
X554Y1323D02*
D03*
Y2083D02*
D03*
X8087D02*
D03*
X7250D02*
D03*
X6413D02*
D03*
X5576D02*
D03*
X4739D02*
D03*
X3902D02*
D03*
X3065D02*
D03*
X2228D02*
D03*
X554Y2843D02*
D03*
X8087Y1323D02*
D03*
X7250D02*
D03*
X6413D02*
D03*
X5576D02*
D03*
X4739D02*
D03*
X3902D02*
D03*
X3065D02*
D03*
X2228D02*
D03*
X8087Y2843D02*
D03*
X7250D02*
D03*
X6413D02*
D03*
X5576D02*
D03*
X4739D02*
D03*
X3902D02*
D03*
X3065D02*
D03*
X2228D02*
D03*
D16*
X1454Y1880D02*
D03*
Y2286D02*
D03*
Y3046D02*
D03*
Y2640D02*
D03*
X617Y1120D02*
D03*
Y1526D02*
D03*
Y2286D02*
D03*
Y1880D02*
D03*
X8150D02*
D03*
Y2286D02*
D03*
X7313D02*
D03*
Y1880D02*
D03*
X6476D02*
D03*
Y2286D02*
D03*
X5639D02*
D03*
Y1880D02*
D03*
X4802D02*
D03*
Y2286D02*
D03*
X3965D02*
D03*
Y1880D02*
D03*
X3128D02*
D03*
Y2286D02*
D03*
X2291D02*
D03*
Y1880D02*
D03*
X617Y2640D02*
D03*
Y3046D02*
D03*
X8150Y1526D02*
D03*
Y1120D02*
D03*
X7313D02*
D03*
Y1526D02*
D03*
X6476D02*
D03*
Y1120D02*
D03*
X5639D02*
D03*
Y1526D02*
D03*
X4802D02*
D03*
Y1120D02*
D03*
X3965D02*
D03*
Y1526D02*
D03*
X3128D02*
D03*
Y1120D02*
D03*
X2291D02*
D03*
Y1526D02*
D03*
X8150Y3046D02*
D03*
Y2640D02*
D03*
X7313D02*
D03*
Y3046D02*
D03*
X6476D02*
D03*
Y2640D02*
D03*
X5639D02*
D03*
Y3046D02*
D03*
X4802D02*
D03*
Y2640D02*
D03*
X3965D02*
D03*
Y3046D02*
D03*
X3128D02*
D03*
Y2640D02*
D03*
X2291D02*
D03*
Y3046D02*
D03*
D17*
X250Y250D02*
D03*
X2700Y1300D02*
D03*
Y2850D02*
D03*
X250Y3500D02*
D03*
X8500Y250D02*
D03*
X6050Y1300D02*
D03*
Y2850D02*
D03*
X8500Y3500D02*
D03*
D18*
X617Y3470D02*
D03*
X1454D02*
D03*
X2291D02*
D03*
X3128D02*
D03*
X3965D02*
D03*
X4802D02*
D03*
X5639D02*
D03*
X6476D02*
D03*
X7313D02*
D03*
X8150D02*
D03*
D19*
X617Y3370D02*
D03*
X1454D02*
D03*
X2291D02*
D03*
X3128D02*
D03*
X3965D02*
D03*
X4802D02*
D03*
X5639D02*
D03*
X6476D02*
D03*
X7313D02*
D03*
X8150D02*
D03*
D20*
X870Y3410D02*
D03*
X1170D02*
D03*
X870Y3330D02*
D03*
X1170D02*
D03*
X1720Y3360D02*
D03*
X2020D02*
D03*
X2560D02*
D03*
X2860D02*
D03*
X3380D02*
D03*
X3680D02*
D03*
X4240D02*
D03*
X4540D02*
D03*
X5080D02*
D03*
X5380D02*
D03*
X5920D02*
D03*
X6220D02*
D03*
X6740D02*
D03*
X7040D02*
D03*
X7600D02*
D03*
X7900D02*
D03*
X5180Y646D02*
D03*
Y454D02*
D03*
X6120Y690D02*
D03*
Y390D02*
D03*
X1620Y750D02*
D03*
Y450D02*
D03*
X1720Y750D02*
D03*
Y450D02*
D03*
X1820Y750D02*
D03*
Y450D02*
D03*
X1920Y750D02*
D03*
Y450D02*
D03*
X2020Y750D02*
D03*
Y450D02*
D03*
X2120Y750D02*
D03*
Y450D02*
D03*
X2220Y750D02*
D03*
Y450D02*
D03*
X2320Y750D02*
D03*
Y450D02*
D03*
X1520D02*
D03*
Y750D02*
D03*
X1420Y450D02*
D03*
Y750D02*
D03*
X1320Y450D02*
D03*
Y750D02*
D03*
X1220Y450D02*
D03*
Y750D02*
D03*
X1120Y450D02*
D03*
Y750D02*
D03*
X1020Y450D02*
D03*
Y750D02*
D03*
X920Y450D02*
D03*
Y750D02*
D03*
X820Y450D02*
D03*
Y750D02*
D03*
D21*
X4840Y650D02*
D03*
Y450D02*
D03*
X6360Y640D02*
D03*
X3560Y2750D02*
D03*
X1080Y1280D02*
D03*
X3620Y1020D02*
D03*
D22*
X5037Y650D02*
D03*
Y450D02*
D03*
X6360Y443D02*
D03*
X3363Y2750D02*
D03*
X1080Y1083D02*
D03*
X3423Y1020D02*
D03*
D23*
X6940Y900D02*
D03*
D24*
X6840D02*
D03*
D25*
X2670Y240D02*
D03*
D26*
X2770D02*
D03*
X2870D02*
D03*
X2970D02*
D03*
X3070D02*
D03*
X3170D02*
D03*
X3270D02*
D03*
X3370D02*
D03*
X3470D02*
D03*
X3570D02*
D03*
X3670D02*
D03*
X3770D02*
D03*
X3870D02*
D03*
X3970D02*
D03*
X4070D02*
D03*
X4170D02*
D03*
X4270D02*
D03*
X4370D02*
D03*
X4470D02*
D03*
X4570D02*
D03*
X2670Y840D02*
D03*
X2770D02*
D03*
X2870D02*
D03*
X2970D02*
D03*
X3070D02*
D03*
X3170D02*
D03*
X3270D02*
D03*
X3370D02*
D03*
X3470D02*
D03*
X3570D02*
D03*
X3670D02*
D03*
X3770D02*
D03*
X3870D02*
D03*
X3970D02*
D03*
X4070D02*
D03*
X4170D02*
D03*
X4270D02*
D03*
X4370D02*
D03*
X4470D02*
D03*
X4570D02*
D03*
D27*
X7366Y527D02*
D03*
X7366Y605D02*
D03*
X7268D02*
D03*
Y527D02*
D03*
D28*
X7554Y420D02*
D03*
X7080D02*
D03*
D29*
X1377Y1170D02*
D03*
X3430Y2694D02*
D03*
X3658Y2195D02*
D03*
X3580Y2854D02*
D03*
X3688Y2528D02*
D03*
X2187Y2430D02*
D03*
X1535Y1545D02*
D03*
X1777Y1612D02*
D03*
X3536Y2440D02*
D03*
X3500Y2115D02*
D03*
X3330Y2599D02*
D03*
X1690Y1292D02*
D03*
X3413Y2414D02*
D03*
X3697Y2800D02*
D03*
X3370Y2545D02*
D03*
X3456Y2220D02*
D03*
X1410Y1298D02*
D03*
X1630Y1375D02*
D03*
X1317Y1395D02*
D03*
M02*
