<?xml version="1.0" encoding="UTF-8" standalone="no"?>
<!DOCTYPE svg PUBLIC "-//W3C//DTD SVG 20010904//EN"
"http://www.w3.org/TR/2001/REC-SVG-20010904/DTD/svg10.dtd"
[
 <!ATTLIST svg
  xmlns:xlink CDATA #FIXED "http://www.w3.org/1999/xlink">
]>
<!-- Created with Sodipodi ("http://www.sodipodi.com/") -->
<svg
   id="svg622"
   sodipodi:version="0.32"
   xmlns="http://www.w3.org/2000/svg"
   xmlns:sodipodi="http://sodipodi.sourceforge.net/DTD/sodipodi-0.dtd"
   xmlns:xlink="http://www.w3.org/1999/xlink"
   width="210mm"
   height="297mm"
   sodipodi:docbase="/home/micah/navi-misc/vision/images"
   sodipodi:docname="/home/micah/navi-misc/vision/images/checkerboard.svg">
  <defs
     id="defs624" />
  <sodipodi:namedview
     id="base" />
  <rect
     width="90.000000"
     height="90.000000"
     x="62.483997"
     y="118.390701"
     id="rect588" />
  <rect
     width="90.000000"
     height="90.000000"
     x="242.483997"
     y="118.390701"
     id="rect589" />
  <rect
     width="90.000000"
     height="90.000000"
     x="422.483997"
     y="118.390701"
     id="rect590" />
  <rect
     width="90.000000"
     height="90.000000"
     x="602.483997"
     y="118.390701"
     id="rect591" />
  <rect
     width="90.000000"
     height="90.000000"
     x="152.483997"
     y="208.390701"
     id="rect592" />
  <rect
     width="90.000000"
     height="90.000000"
     x="332.483997"
     y="208.390701"
     id="rect593" />
  <rect
     width="90.000000"
     height="90.000000"
     x="512.483997"
     y="208.390701"
     id="rect594" />
  <rect
     width="90.000000"
     height="90.000000"
     x="62.483997"
     y="298.390701"
     id="rect595" />
  <rect
     width="90.000000"
     height="90.000000"
     x="242.483997"
     y="298.390701"
     id="rect596" />
  <rect
     width="90.000000"
     height="90.000000"
     x="422.483997"
     y="298.390701"
     id="rect597" />
  <rect
     width="90.000000"
     height="90.000000"
     x="602.483997"
     y="298.390701"
     id="rect598" />
  <rect
     width="90.000000"
     height="90.000000"
     x="152.483997"
     y="388.390701"
     id="rect599" />
  <rect
     width="90.000000"
     height="90.000000"
     x="332.483997"
     y="388.390701"
     id="rect600" />
  <rect
     width="90.000000"
     height="90.000000"
     x="512.483997"
     y="388.390701"
     id="rect601" />
  <rect
     width="90.000000"
     height="90.000000"
     x="62.483997"
     y="478.390701"
     id="rect602" />
  <rect
     width="90.000000"
     height="90.000000"
     x="242.483997"
     y="478.390701"
     id="rect603" />
  <rect
     width="90.000000"
     height="90.000000"
     x="422.483997"
     y="478.390701"
     id="rect604" />
  <rect
     width="90.000000"
     height="90.000000"
     x="602.483997"
     y="478.390701"
     id="rect605" />
  <rect
     width="90.000000"
     height="90.000000"
     x="152.483997"
     y="568.390701"
     id="rect606" />
  <rect
     width="90.000000"
     height="90.000000"
     x="332.483997"
     y="568.390701"
     id="rect607" />
  <rect
     width="90.000000"
     height="90.000000"
     x="512.483997"
     y="568.390701"
     id="rect608" />
  <rect
     width="90.000000"
     height="90.000000"
     x="62.483997"
     y="658.390701"
     id="rect609" />
  <rect
     width="90.000000"
     height="90.000000"
     x="242.483997"
     y="658.390701"
     id="rect610" />
  <rect
     width="90.000000"
     height="90.000000"
     x="422.483997"
     y="658.390701"
     id="rect611" />
  <rect
     width="90.000000"
     height="90.000000"
     x="602.483997"
     y="658.390701"
     id="rect612" />
  <rect
     width="90.000000"
     height="90.000000"
     x="152.483997"
     y="748.390701"
     id="rect613" />
  <rect
     width="90.000000"
     height="90.000000"
     x="332.483997"
     y="748.390701"
     id="rect614" />
  <rect
     width="90.000000"
     height="90.000000"
     x="512.483997"
     y="748.390701"
     id="rect615" />
  <rect
     width="90.000000"
     height="90.000000"
     x="62.483997"
     y="838.390701"
     id="rect616" />
  <rect
     width="90.000000"
     height="90.000000"
     x="242.483997"
     y="838.390701"
     id="rect617" />
  <rect
     width="90.000000"
     height="90.000000"
     x="422.483997"
     y="838.390701"
     id="rect618" />
  <rect
     width="90.000000"
     height="90.000000"
     x="602.483997"
     y="838.390701"
     id="rect619" />
</svg>
