<?xml version="1.0" encoding="UTF-8" standalone="no"?>
<!-- Created with Inkscape (http://www.inkscape.org/) -->
<svg
   xmlns:dc="http://purl.org/dc/elements/1.1/"
   xmlns:cc="http://creativecommons.org/ns#"
   xmlns:rdf="http://www.w3.org/1999/02/22-rdf-syntax-ns#"
   xmlns:svg="http://www.w3.org/2000/svg"
   xmlns="http://www.w3.org/2000/svg"
   xmlns:sodipodi="http://sodipodi.sourceforge.net/DTD/sodipodi-0.dtd"
   xmlns:inkscape="http://www.inkscape.org/namespaces/inkscape"
   id="svg2461"
   sodipodi:version="0.32"
   inkscape:version="0.46"
   width="431"
   height="375"
   version="1.0"
   sodipodi:docname="ignognokt-3.svg"
   inkscape:output_extension="org.inkscape.output.svg.inkscape">
  <metadata
     id="metadata2466">
    <rdf:RDF>
      <cc:Work
         rdf:about="">
        <dc:format>image/svg+xml</dc:format>
        <dc:type
           rdf:resource="http://purl.org/dc/dcmitype/StillImage" />
      </cc:Work>
    </rdf:RDF>
  </metadata>
  <defs
     id="defs2464">
    <inkscape:perspective
       sodipodi:type="inkscape:persp3d"
       inkscape:vp_x="0 : 526.18109 : 1"
       inkscape:vp_y="0 : 1000 : 0"
       inkscape:vp_z="744.09448 : 526.18109 : 1"
       inkscape:persp3d-origin="372.04724 : 350.78739 : 1"
       id="perspective2468" />
    <inkscape:perspective
       id="perspective3378"
       inkscape:persp3d-origin="372.04724 : 350.78739 : 1"
       inkscape:vp_z="744.09448 : 526.18109 : 1"
       inkscape:vp_y="0 : 1000 : 0"
       inkscape:vp_x="0 : 526.18109 : 1"
       sodipodi:type="inkscape:persp3d" />
    <inkscape:perspective
       id="perspective3391"
       inkscape:persp3d-origin="372.04724 : 350.78739 : 1"
       inkscape:vp_z="744.09448 : 526.18109 : 1"
       inkscape:vp_y="0 : 1000 : 0"
       inkscape:vp_x="0 : 526.18109 : 1"
       sodipodi:type="inkscape:persp3d" />
  </defs>
  <sodipodi:namedview
     inkscape:window-height="1003"
     inkscape:window-width="1680"
     inkscape:pageshadow="2"
     inkscape:pageopacity="0.0"
     guidetolerance="10.0"
     gridtolerance="10.0"
     objecttolerance="10.0"
     borderopacity="1.0"
     bordercolor="#666666"
     pagecolor="#ffffff"
     id="base"
     showgrid="false"
     inkscape:zoom="1.7423111"
     inkscape:cx="262.20305"
     inkscape:cy="249.51591"
     inkscape:window-x="-4"
     inkscape:window-y="-4"
     inkscape:current-layer="svg2461" />
  <path
     style="fill:none;fill-rule:evenodd;stroke:#000000;stroke-width:2.14285707;stroke-linecap:butt;stroke-linejoin:miter;stroke-miterlimit:4;stroke-dasharray:none;stroke-opacity:1"
     d="M 263.7987,150.16234 L 263.90017,111.09984 L 248.1737,111.40423 L 247.86931,101.15665 L 261.6807,101.3469 L 262.91091,71.098819 L 273.0697,71.289059 L 274.29991,101.91761 L 287.70545,101.70201 L 288.52983,112.4442 L 273.93211,112.2286 L 273.9448,161.12013 L 241.47727,161.12013 L 241.47727,225.24351 L 187.90584,225.24351 L 187.90584,245.53572 L 220.77922,245.53572 L 220.77922,267.4513 L 165.58442,267.4513 L 165.58442,223.21429 L 144.88636,223.21429 L 144.88636,267.04546 L 90.90909,267.04546 L 90.90909,243.50649 L 125.81169,243.50649 L 125.81169,222.4026 L 61.68831,222.4026 L 61.68831,158.27922 L 41.396097,158.27922 L 41.396097,201.70455 L 29.626617,201.70455 L 29.626617,159.09091 L 41.801947,146.91559 L 74.67532,146.91559 L 74.67532,86.444809 L 64.12338,86.444809 L 64.12338,56.41234 L 65.34091,56.00649 L 106.33117,56.00649 L 106.33117,25.162339 L 137.17532,25.162339 L 137.17532,35.71429 L 147.72727,35.71429 L 147.72727,56.81818 L 168.83117,56.81818 L 168.83117,45.0487 L 200.08117,45.0487 L 200.08117,24.756489 L 231.33117,24.756489 L 231.33117,139.61039 L 242.28896,139.61039 L 242.28896,150.16234 L 263.7987,150.16234 z"
     id="path3441" />
</svg>
