<?xml version="1.0" encoding="UTF-8" standalone="no"?>
<!-- Created with Inkscape (http://www.inkscape.org/) -->
<svg
   xmlns:dc="http://purl.org/dc/elements/1.1/"
   xmlns:cc="http://creativecommons.org/ns#"
   xmlns:rdf="http://www.w3.org/1999/02/22-rdf-syntax-ns#"
   xmlns:svg="http://www.w3.org/2000/svg"
   xmlns="http://www.w3.org/2000/svg"
   xmlns:xlink="http://www.w3.org/1999/xlink"
   xmlns:sodipodi="http://sodipodi.sourceforge.net/DTD/sodipodi-0.dtd"
   xmlns:inkscape="http://www.inkscape.org/namespaces/inkscape"
   id="svg1"
   sodipodi:version="0.32"
   inkscape:version="0.46"
   width="256"
   height="256"
   sodipodi:docbase="/home/micah/art"
   sodipodi:docname="inkscape-logo.svg"
   inkscape:output_extension="org.inkscape.output.svg.inkscape"
   version="1.0">
  <defs
     id="defs3">
    <linearGradient
       id="linearGradient666">
      <stop
         id="stop667"
         offset="0.00000000"
         style="stop-color:#ffffff;stop-opacity:0.336;" />
      <stop
         id="stop668"
         offset="1.00000000"
         style="stop-color:#ffffff;stop-opacity:0;" />
    </linearGradient>
    <radialGradient
       fy="1036.4888"
       fx="233.92318"
       r="98.260411"
       cy="1036.4888"
       cx="233.92318"
       id="radialGradient669"
       xlink:href="#linearGradient666"
       gradientTransform="scale(1.8257419,0.5477225)"
       gradientUnits="userSpaceOnUse" />
    <inkscape:perspective
       sodipodi:type="inkscape:persp3d"
       inkscape:vp_x="0 : 116.18125 : 1"
       inkscape:vp_y="0 : 1000 : 0"
       inkscape:vp_z="266.60001 : 116.18125 : 1"
       inkscape:persp3d-origin="133.3 : 77.454168 : 1"
       id="perspective31" />
  </defs>
  <sodipodi:namedview
     id="base"
     pagecolor="#ffffff"
     bordercolor="#666666"
     borderopacity="1.0"
     inkscape:pageopacity="1.0000000"
     inkscape:pageshadow="2"
     inkscape:zoom="1.2279853"
     inkscape:cx="27.065946"
     inkscape:cy="147.84591"
     inkscape:window-width="1004"
     inkscape:window-height="888"
     inkscape:window-x="57"
     inkscape:window-y="88"
     showgrid="true"
     inkscape:current-layer="svg1">
    <inkscape:grid
       type="xygrid"
       id="grid2416"
       visible="true"
       enabled="true" />
  </sodipodi:namedview>
  <metadata
     id="metadata4">
    <rdf:RDF>
      <cc:Work
         rdf:about="">
        <dc:format>image/svg+xml</dc:format>
        <dc:type
           rdf:resource="http://purl.org/dc/dcmitype/StillImage" />
      </cc:Work>
    </rdf:RDF>
  </metadata>
  <path
     id="path1791"
     style="font-size:12px;fill:none;fill-opacity:1;fill-rule:evenodd;stroke:#000000;stroke-width:0.3768553pt;stroke-opacity:1"
     d="M 169.01484,168.00742 C 176.10878,169.42605 177.52819,174.39208 176.10878,175.81071 C 174.69052,177.22972 171.14354,178.64835 168.30587,176.52 C 165.46745,174.39208 165.46745,169.42605 169.01484,168.00742 zM 97.225417,168.4813 C 96.534177,168.66566 90.759377,163.68929 86.186257,165.99581 C 81.614297,168.302 78.545007,173.46616 82.816287,175.58528 C 87.087977,177.7044 90.141437,175.26075 93.886177,172.63125 C 97.631327,170.00215 97.496197,169.49559 97.225417,168.4813 zM 181.60167,155.85643 C 185.45968,154.89177 194.3717,155.85643 192.9523,161.53103 C 191.53406,167.20712 179.47448,165.07797 171.67008,162.24149 C 170.96073,156.56577 179.78327,156.31079 181.60167,155.85643 zM 124.65233,48.239359 C 120.38883,48.239359 116.13329,49.867584 112.86628,53.134594 L 54.796007,111.19384 C 51.593906,114.39588 49.986478,118.5589 49.922824,122.73733 L 49.900774,122.73733 C 49.900774,122.75221 49.922096,122.76652 49.922824,122.78143 C 49.921934,122.85156 49.900774,122.92078 49.900774,122.99091 L 50,122.99091 C 51.111391,127.21942 79.827917,132.60951 83.031807,135.81334 C 87.870277,140.65185 64.477917,144.20517 69.316327,149.04371 C 74.154797,153.88217 98.556617,158.40576 103.39555,163.24429 C 108.23402,168.08276 93.507427,173.23486 98.345957,178.07333 C 103.18443,182.91186 119.4373,176.86385 116.4936,189.48451 C 123.02763,196.01853 136.65997,192.89838 145.78784,186.36436 C 150.6263,181.52589 136.50613,181.95261 141.34464,177.11413 C 146.18311,172.2756 158.39632,172.2495 168.68739,160.6754 C 164.54514,154.23316 150.98235,151.48973 155.82086,146.65121 C 160.65933,141.81275 170.06595,144.27027 190.36314,135.0526 C 200.27139,130.55264 199.45286,127.13479 199.41491,122.99091 C 199.41411,122.90372 199.41491,122.8252 199.41491,122.73733 L 199.39286,122.73733 C 199.32922,118.55889 197.71069,114.39588 194.50865,111.19384 L 136.4494,53.134594 C 133.1824,49.867584 128.91583,48.239359 124.65233,48.239359 z M 124.15619,55.791691 C 126.05158,55.841068 127.58242,57.285952 130.58394,59.231586 L 158.0149,79.57327 C 158.31518,79.767995 158.60117,79.971127 158.86385,80.17966 C 159.12653,80.388163 159.36647,80.609313 159.59152,80.830157 C 159.81658,81.050599 160.02115,81.271855 160.20893,81.502697 C 160.39633,81.733498 160.56636,81.969444 160.7161,82.208321 C 160.86625,82.447587 161.00053,82.690624 161.11301,82.935987 C 161.22556,83.181795 161.3138,83.435328 161.38864,83.685707 C 161.46392,83.935716 161.52744,84.18276 161.56505,84.435427 C 161.60269,84.688541 161.62017,84.942357 161.62017,85.196173 L 145.36888,77.34616 L 143.74816,89.617323 L 134.80663,85.427705 L 121.00296,94.644859 L 115.72183,76.431061 L 108.91923,92.362619 L 89.922627,94.258974 L 90.132107,85.802567 C 90.132107,83.771423 101.0825,69.551793 107.75054,66.166503 L 119.95555,57.401386 C 121.75644,56.234004 123.01896,55.762066 124.15619,55.791691 z M 98.908247,138.77914 C 107.55486,141.02155 117.17654,143.96356 124.89489,144.01617 L 125.22565,147.48914 C 118.61632,146.80787 104.6312,143.61676 101.33381,141.93238 L 98.908247,138.77914 z" />
</svg>
