<?xml version="1.0" encoding="UTF-8" standalone="no"?>
<!-- Generator: Adobe Illustrator 13.0.0, SVG Export Plug-In . SVG Version: 6.00 Build 14948)  -->
<svg
   xmlns:dc="http://purl.org/dc/elements/1.1/"
   xmlns:cc="http://creativecommons.org/ns#"
   xmlns:rdf="http://www.w3.org/1999/02/22-rdf-syntax-ns#"
   xmlns:svg="http://www.w3.org/2000/svg"
   xmlns="http://www.w3.org/2000/svg"
   xmlns:sodipodi="http://sodipodi.sourceforge.net/DTD/sodipodi-0.dtd"
   xmlns:inkscape="http://www.inkscape.org/namespaces/inkscape"
   version="1.1"
   id="Layer_1"
   x="0px"
   y="0px"
   width="174.999px"
   height="88.285px"
   viewBox="0 0 174.999 88.285"
   enable-background="new 0 0 174.999 88.285"
   xml:space="preserve"
   sodipodi:version="0.32"
   inkscape:version="0.46"
   sodipodi:docname="longhorn.svg"
   inkscape:output_extension="org.inkscape.output.svg.inkscape"><metadata
   id="metadata9"><rdf:RDF><cc:Work
       rdf:about=""><dc:format>image/svg+xml</dc:format><dc:type
         rdf:resource="http://purl.org/dc/dcmitype/StillImage" /></cc:Work></rdf:RDF></metadata><defs
   id="defs7"><inkscape:perspective
   sodipodi:type="inkscape:persp3d"
   inkscape:vp_x="0 : 44.142502 : 1"
   inkscape:vp_y="0 : 1000 : 0"
   inkscape:vp_z="174.99899 : 44.142502 : 1"
   inkscape:persp3d-origin="87.499496 : 29.428335 : 1"
   id="perspective11" />
	
</defs><sodipodi:namedview
   inkscape:window-height="675"
   inkscape:window-width="640"
   inkscape:pageshadow="2"
   inkscape:pageopacity="0.0"
   guidetolerance="10.0"
   gridtolerance="10.0"
   objecttolerance="10.0"
   borderopacity="1.0"
   bordercolor="#666666"
   pagecolor="#ffffff"
   id="base"
   showgrid="false"
   inkscape:zoom="1.0990523"
   inkscape:cx="216.2731"
   inkscape:cy="44.142502"
   inkscape:window-x="220"
   inkscape:window-y="220"
   inkscape:current-layer="Layer_1" />
<path
   style="fill:#cb5727"
   id="path4"
   d="M 416.76702,-57.195113 C 417.40743,-55.658083 418.8383,-49.315087 413.20009,-47.723726 C 402.06667,-44.585481 391.52585,-39.188187 381.55,-33.044857 C 374.16215,-27.816556 368.15292,-19.376771 362.73179,-11.664712 C 351.04895,5.0554361 301.52314,59.333668 304.59651,57.510995 C 304.65559,58.576728 305.92616,58.29159 306.37257,58.859886 C 311.4135,59.355617 328.82158,61.378441 329.37418,61.421182 C 329.77371,62.006813 335.09978,64.472006 331.09069,71.477968 C 325.57262,78.188342 318.37551,84.012182 309.29232,86.240326 C 296.92058,89.218934 278.65935,83.931242 280.75826,87.89273 C 280.75826,87.89273 287.05785,109.87999 278.89236,130.93764 C 274.89275,141.30028 275.38451,153.36417 278.79906,164.51896 C 281.4459,173.19676 285.82177,178.189 285.82177,178.189 C 286.41865,179.57722 293.52361,193.16666 293.35429,198.38122 C 293.24617,201.18289 283.4979,220.99114 278.8754,221.83183 C 270.64822,224.71549 260.76883,228.22311 252.30919,229.8198 L 251.70391,229.79345 C 226.61028,221.03701 228.57641,215.48645 226.73255,210.08913 C 223.06393,199.1702 227.04039,189.95389 222.45718,179.05805 C 219.05726,169.52488 212.28051,161.69689 206.02252,154.84669 C 197.7934,147.41818 189.80203,139.53325 184.53545,129.22691 C 182.29255,125.68716 182.17882,121.65027 179.51972,118.51513 C 175.67787,117.15942 167.34851,127.57004 162.55217,130.3111 C 160.26476,133.95296 147.53787,135.63049 140.13832,135.76107 C 134.73886,135.32459 119.11769,134.15474 124.40568,125.66964 L 124.26678,125.22307 C 128.9919,119.46647 142.89264,109.16921 142.41585,107.63631 C 95.408022,100.69925 34.024067,79.831418 26.965185,78.606839 C 24.161098,78.659059 1.381151,79.605821 -10.615256,84.861524 C -13.603662,85.028858 -16.885035,86.863949 -19.558165,84.382541 C -27.718873,75.953195 -12.713627,70.958546 -12.713627,70.958546 C -8.6254858,69.08989 -4.8333857,67.313315 0.3031943,66.365002 L 0.36484132,66.5632 C 39.292318,54.51027 91.991942,84.107897 144.95161,81.208731 C 151.51811,80.85024 158.9086,80.345515 164.206,75.38496 C 169.55588,71.981967 174.43702,68.292776 179.87154,64.648834 C 181.89961,63.313629 187.00844,60.365322 194.23845,61.264272 C 199.84873,59.574286 204.93541,56.200878 207.59656,56.025271 C 212.91793,56.378745 215.62853,55.318269 220.15283,51.357605 C 226.25138,51.414315 233.97448,48.307736 235.91617,47.216771 C 239.31961,42.4656 251.34132,44.102893 255.76236,43.649541 C 263.98504,43.210656 271.41804,45.620348 279.11575,41.220189 C 300.14408,29.033396 317.82853,11.368278 333.94823,-7.328992 C 343.85318,-17.902264 353.80694,-30.768995 365.15757,-40.710573 L 365.35576,-40.772219 C 374.10645,-47.890985 385.87836,-53.346513 397.2315,-57.529898 C 400.87033,-58.383811 411.98978,-61.73508 416.76702,-57.195113 z" />
</svg>