<?xml version="1.0" encoding="UTF-8" standalone="no"?>
<!-- Generator: Adobe Illustrator 13.0.0, SVG Export Plug-In . SVG Version: 6.00 Build 14948)  -->
<svg
   xmlns:dc="http://purl.org/dc/elements/1.1/"
   xmlns:cc="http://creativecommons.org/ns#"
   xmlns:rdf="http://www.w3.org/1999/02/22-rdf-syntax-ns#"
   xmlns:svg="http://www.w3.org/2000/svg"
   xmlns="http://www.w3.org/2000/svg"
   xmlns:sodipodi="http://sodipodi.sourceforge.net/DTD/sodipodi-0.dtd"
   xmlns:inkscape="http://www.inkscape.org/namespaces/inkscape"
   version="1.1"
   id="Layer_1"
   x="0px"
   y="0px"
   width="174.999px"
   height="88.285px"
   viewBox="0 0 174.999 88.285"
   enable-background="new 0 0 174.999 88.285"
   xml:space="preserve"
   sodipodi:version="0.32"
   inkscape:version="0.46"
   sodipodi:docname="longhorn.svg"
   inkscape:output_extension="org.inkscape.output.svg.inkscape"><metadata
   id="metadata9"><rdf:RDF><cc:Work
       rdf:about=""><dc:format>image/svg+xml</dc:format><dc:type
         rdf:resource="http://purl.org/dc/dcmitype/StillImage" /></cc:Work></rdf:RDF></metadata><defs
   id="defs7"><inkscape:perspective
   sodipodi:type="inkscape:persp3d"
   inkscape:vp_x="0 : 44.142502 : 1"
   inkscape:vp_y="0 : 1000 : 0"
   inkscape:vp_z="174.99899 : 44.142502 : 1"
   inkscape:persp3d-origin="87.499496 : 29.428335 : 1"
   id="perspective11" />
	
</defs><sodipodi:namedview
   inkscape:window-height="675"
   inkscape:window-width="640"
   inkscape:pageshadow="2"
   inkscape:pageopacity="0.0"
   guidetolerance="10.0"
   gridtolerance="10.0"
   objecttolerance="10.0"
   borderopacity="1.0"
   bordercolor="#666666"
   pagecolor="#ffffff"
   id="base"
   showgrid="false"
   inkscape:zoom="1.0990523"
   inkscape:cx="216.2731"
   inkscape:cy="44.142502"
   inkscape:window-x="-2"
   inkscape:window-y="112"
   inkscape:current-layer="Layer_1" />
<path
   style="fill:#cb5727"
   id="path4"
   d="M 459.76813,6.1207994 C 459.92314,7.7786773 459.40555,14.260428 453.54912,14.105412 C 441.98601,13.795381 430.31781,15.818465 418.96752,18.721722 C 410.36021,21.519884 402.11549,27.794071 394.64847,33.548037 C 378.52686,46.043865 315.115,83.163514 318.59103,82.335889 C 318.33091,83.371077 319.62884,83.476172 319.88632,84.151409 C 324.55255,86.121946 340.57433,93.223758 341.0893,93.428694 C 341.29686,94.106559 345.65043,98.042377 339.74145,103.54149 C 332.47937,108.31018 323.87732,111.73366 314.54223,111.16352 C 301.84409,110.33327 285.97734,99.860525 286.80496,104.26664 C 286.80496,104.26664 286.28999,127.13275 272.23876,144.81503 C 265.34188,153.52217 262.22843,165.18774 262.17589,176.85332 C 262.12596,185.92567 264.82166,191.99229 264.82166,191.99229 C 264.9793,193.49515 267.72754,208.58158 266.01712,213.51055 C 265.08177,216.15369 249.89025,232.17284 245.22665,231.6027 C 236.51425,231.91273 226.03888,232.32786 217.48675,231.33996 L 216.91661,231.13503 C 195.55599,215.32081 199.08194,210.60466 198.9243,204.90325 C 198.66419,193.38743 205.19849,185.76802 204.0582,174.00261 C 203.64308,163.88982 199.49707,154.40234 195.55599,146.0026 C 189.9045,136.46521 184.61558,126.56261 182.64767,115.15714 C 181.5573,111.11097 182.64767,107.22245 181.03971,103.43902 C 177.77387,101.00344 166.72836,108.47045 161.33435,109.66329 C 158.06851,112.46145 145.41767,110.28335 138.31323,108.21034 C 133.28705,106.18989 118.71822,100.43329 126.2877,93.901623 L 126.2877,93.433949 C 132.50934,89.340488 148.84115,83.636443 148.84115,82.031112 C 106.01482,61.445576 53.598559,23.288112 47.221904,20.022276 C 44.528838,19.239316 22.495614,13.377628 9.4795654,14.833197 C 6.5763086,14.105412 2.8979742,14.883117 1.0824534,11.71975 C -4.206466,1.2470063 11.605117,0.93434789 11.605117,0.93434789 C 16.063784,0.36420606 20.21242,-0.20593577 25.398871,0.41412631 L 25.398871,0.62168947 C 66.149562,0.6742371 107.68058,44.588295 159.11158,57.549169 C 165.48824,59.157127 172.69515,60.87018 179.22682,57.706812 C 185.34599,56.046307 191.10258,53.973303 197.37414,52.107862 C 199.70726,51.435252 205.46122,50.137325 212.09799,53.14305 C 217.95705,53.195598 223.81611,51.485172 226.40934,52.107862 C 231.3856,54.02585 234.28886,53.818287 239.78534,51.380077 C 245.59185,53.245518 253.88912,52.572908 256.06722,52.107862 C 260.7282,48.581916 271.72116,53.715819 276.07736,54.595992 C 284.05935,56.619076 290.44126,61.127663 299.09848,59.212302 C 322.79746,53.820915 344.93053,42.20526 365.87601,29.139291 C 378.47431,21.98493 391.80039,12.655098 405.59152,6.5332984 L 405.79908,6.5332984 C 416.2692,2.3347424 429.13023,0.62168947 441.21356,-0.001 C 444.94181,0.26436555 456.55484,0.36683344 459.76813,6.1207994 z" />
</svg>