<?xml version="1.0" encoding="UTF-8" standalone="no"?>
<!-- Generator: Adobe Illustrator 13.0.2, SVG Export Plug-In . SVG Version: 6.00 Build 14948)  -->
<svg
   xmlns:dc="http://purl.org/dc/elements/1.1/"
   xmlns:cc="http://creativecommons.org/ns#"
   xmlns:rdf="http://www.w3.org/1999/02/22-rdf-syntax-ns#"
   xmlns:svg="http://www.w3.org/2000/svg"
   xmlns="http://www.w3.org/2000/svg"
   xmlns:sodipodi="http://sodipodi.sourceforge.net/DTD/sodipodi-0.dtd"
   xmlns:inkscape="http://www.inkscape.org/namespaces/inkscape"
   version="1.1"
   id="Layer_1"
   x="0px"
   y="0px"
   width="351.36px"
   height="323.227px"
   viewBox="0 0 351.36 323.227"
   enable-background="new 0 0 351.36 323.227"
   xml:space="preserve"
   sodipodi:version="0.32"
   inkscape:version="0.46"
   sodipodi:docname="obama-2.svg"
   inkscape:output_extension="org.inkscape.output.svg.inkscape"><metadata
     id="metadata3109"><rdf:RDF><cc:Work
         rdf:about=""><dc:format>image/svg+xml</dc:format><dc:type
           rdf:resource="http://purl.org/dc/dcmitype/StillImage" /></cc:Work></rdf:RDF></metadata><defs
     id="defs3107" /><sodipodi:namedview
     inkscape:window-height="675"
     inkscape:window-width="640"
     inkscape:pageshadow="2"
     inkscape:pageopacity="0.0"
     guidetolerance="10.0"
     gridtolerance="10.0"
     objecttolerance="10.0"
     borderopacity="1.0"
     bordercolor="#666666"
     pagecolor="#ffffff"
     id="base"
     showgrid="false"
     inkscape:zoom="2.0213865"
     inkscape:cx="103.04832"
     inkscape:cy="153.92791"
     inkscape:window-x="198"
     inkscape:window-y="198"
     inkscape:current-layer="Layer_1" /><path
     style="fill:none;fill-opacity:1;stroke:#000000;stroke-width:0.83216053;stroke-opacity:1"
     d="M 4.6719437,169.44324 C 8.7956064,184.59187 9.0302439,184.35385 12.938466,191.43543 C 18.825528,186.64397 33.384857,176.03715 59.550503,163.80246 C 58.390964,160.95292 57.369778,158.01633 56.523387,154.98164 C 44.555948,112.07289 69.639601,67.577188 112.55396,55.60818 C 155.45469,43.642973 199.93516,68.737784 211.90238,111.64574 C 212.75587,114.70588 213.41487,117.77135 213.89839,120.83514 C 242.27758,117.60008 260.96447,118.36167 267.77156,118.84947 C 267.53853,115.35997 266.84718,109.04141 263.75382,97.184137 C 244.98409,25.318678 169.63873,-16.197872 98.092357,3.7567338 C 26.546796,23.711114 -14.837129,97.774961 4.6719437,169.44324 z"
     id="path3043"
     sodipodi:nodetypes="cccsssccscs" /><path
     style="fill:none;fill-opacity:1;stroke:#000000;stroke-width:0.83216053;stroke-opacity:1"
     id="path3091"
     d="M 26.438514,213.96621 C 32.02507,221.42051 38.331857,228.22643 45.249694,234.29606 C 64.595153,220.60687 175.94915,144.7071 268.1823,144.02618 C 268.54912,139.45912 268.66746,134.83439 268.55072,130.20005 C 254.44554,129.59933 157.37629,128.93017 26.438514,213.96621 z" /><path
     style="fill:none;fill-opacity:1;stroke:#000000;stroke-width:0.83216053;stroke-opacity:1"
     id="path3104"
     d="M 78.327746,255.70418 C 91.481304,261.70547 105.62662,265.60034 120.25155,267.10748 C 129.09919,254.55703 170.28476,202.62317 261.53159,176.27381 C 263.25255,171.19087 264.64277,165.98763 265.7457,160.70211 C 251.25177,161.82362 180.9231,171.55794 78.327746,255.70418 z" /></svg>