<?xml version="1.0" encoding="UTF-8" standalone="no"?>
<svg
   xmlns:dc="http://purl.org/dc/elements/1.1/"
   xmlns:cc="http://creativecommons.org/ns#"
   xmlns:rdf="http://www.w3.org/1999/02/22-rdf-syntax-ns#"
   xmlns:svg="http://www.w3.org/2000/svg"
   xmlns="http://www.w3.org/2000/svg"
   xmlns:sodipodi="http://sodipodi.sourceforge.net/DTD/sodipodi-0.dtd"
   xmlns:inkscape="http://www.inkscape.org/namespaces/inkscape"
   xml:space="preserve"
   width="1024"
   height="1024"
   style="fill-rule:evenodd"
   viewBox="0 0 58.5 53.5"
   id="svg2"
   sodipodi:version="0.32"
   inkscape:version="0.46"
   sodipodi:docname="pikachu.svg"
   inkscape:output_extension="org.inkscape.output.svg.inkscape"
   version="1.0"><metadata
   id="metadata47"><rdf:RDF><cc:Work
       rdf:about=""><dc:format>image/svg+xml</dc:format><dc:type
         rdf:resource="http://purl.org/dc/dcmitype/StillImage" /></cc:Work></rdf:RDF></metadata><sodipodi:namedview
   inkscape:window-height="841"
   inkscape:window-width="996"
   inkscape:pageshadow="2"
   inkscape:pageopacity="0.0"
   guidetolerance="10.0"
   gridtolerance="10.0"
   objecttolerance="10.0"
   borderopacity="1.0"
   bordercolor="#666666"
   pagecolor="#ffffff"
   id="base"
   showgrid="false"
   inkscape:zoom="0.088388348"
   inkscape:cx="2838.8424"
   inkscape:cy="-1558.6797"
   inkscape:window-x="45"
   inkscape:window-y="41"
   inkscape:current-layer="svg2" />
 <defs
   id="defs4"><inkscape:perspective
   sodipodi:type="inkscape:persp3d"
   inkscape:vp_x="0 : 94.783463 : 1"
   inkscape:vp_y="0 : 1000 : 0"
   inkscape:vp_z="207.28346 : 94.783463 : 1"
   inkscape:persp3d-origin="103.64173 : 63.188975 : 1"
   id="perspective49" />
  <style
   type="text/css"
   id="style6">
   
    .str0 {stroke:#1F1A17;stroke-width:0.13}
    .str1 {stroke:#1F1A17;stroke-width:0.13;stroke-linejoin:round}
    .fil0 {fill:#FFF500}
    .fil1 {fill:none}
    .fil2 {fill:#E77817}
    .fil3 {fill:#1F1A17}
    .fil4 {fill:#71625B}
    .fil5 {fill:#DA251D}
    .fil6 {fill:white}
   
  </style>
 
  
 
   
   
   
   
   
   
   
   
   
   
   
   
   
   
   
   
   
   
   
   
   
   
   
   
   
   
   
   
   
  
    
    
   
    
    
    
   </defs>
 
<path
   id="_91804256"
   style="fill:none;stroke:#000000;stroke-width:1.04317534;stroke-linejoin:bevel;stroke-miterlimit:4;stroke-dasharray:none;stroke-opacity:1"
   d="M 129.23256,275.16962 C 129.38797,281.7199 132.96677,296.78466 140.01441,289.65602 C 141.93528,282.72913 143.68916,275.87535 145.05462,269.28941 M 202.18784,238.6436 C 209.30005,240.18148 231.50859,243.78134 223.51786,233.64645 C 220.44223,231.47198 217.75311,229.04908 214.58984,226.92823 M 231.82393,28.671113 C 204.56786,49.064316 177.77131,68.238044 153.25629,90.610955 L 190.80469,132.87348 L 174.67482,141.85739 L 197.47247,158.6836 L 191.55968,161.44962 C 197.08379,167.57607 202.32952,173.71108 206.91518,179.60567 L 207.67092,180.22128 L 211.66041,175.28935 L 201.66186,166.47548 L 217.22541,159.99829 L 199.04644,144.27715 L 216.41103,133.3478 L 194.90945,108.16922 L 254.82499,85.045504 L 231.82393,28.671113 z M 62.039068,178.4178 L 83.594846,237.1189 C 87.571891,245.87876 91.783509,255.01977 98.737632,262.21467 L 98.737632,262.21467 C 111.71262,272.80203 123.6381,278.25801 137.68544,273.48571 C 152.25608,267.25383 172.0188,243.79127 195.89086,240.99688 C 197.81716,240.77099 198.84723,240.5218 200.54955,239.60105 C 227.99412,224.76313 217.91895,198.69741 210.69148,184.56472 C 195.85158,164.05007 170.69332,139.91982 154.9833,121.90695 M 83.548036,187.00408 C 101.61872,193.06308 117.05057,199.9549 130.1437,214.58315 C 135.30504,219.54511 135.93817,233.04994 127.65904,234.48557 C 113.32093,237.07332 99.194381,234.01874 83.914037,226.94702 M 145.3981,152.18736 C 142.87569,170.88768 142.68911,185.26661 152.74402,203.07207 C 156.5233,209.08527 168.22379,212.49107 171.73638,206.64049 C 177.10865,195.29152 184.09739,180.58784 180.25863,161.50395 M 87.307637,141.60252 C 93.414924,144.18361 96.380336,135.98355 100.5437,133.21851 C 106.17684,131.8408 113.41627,130.55238 114.55867,126.94583 M 90.17483,123.91948 L 95.327854,124.51038 L 97.205454,119.34476 L 90.17483,123.91948 z M 62.055588,126.61654 C 65.06645,131.52133 63.613612,137.89389 58.812644,140.84102 C 54.011669,143.78816 47.67164,142.19933 44.66078,137.29455 C 41.649917,132.38976 43.10275,126.0172 47.903726,123.07007 C 52.70469,120.12293 59.044724,121.71175 62.055588,126.61654 z M 58.660241,124.88179 C 60.157708,127.32121 59.351099,130.54222 56.859781,132.07154 C 54.368455,133.60087 51.131184,132.86224 49.633719,130.42283 C 48.136254,127.98341 48.942857,124.76241 51.434183,123.23308 C 53.925501,121.70375 57.162775,122.44237 58.660241,124.88179 z M 125.4789,88.848656 C 128.45791,93.70154 126.93707,100.05786 122.08418,103.03687 C 117.23129,106.01587 110.87497,104.49503 107.89598,99.642148 C 104.91697,94.789255 106.4378,88.432943 111.29069,85.453935 C 116.14357,82.474934 122.49989,83.995765 125.4789,88.848656 z M 116.31266,89.944671 C 117.63488,92.098625 116.95986,94.919872 114.8059,96.242105 C 112.65195,97.564334 109.8307,96.889315 108.50848,94.735362 C 107.18625,92.58141 107.86127,89.760161 110.01522,88.437932 C 112.16918,87.115697 114.99043,87.790719 116.31266,89.944671 z M 150.61995,141.88807 C 151.24318,129.42784 164.87669,111.79127 147.53718,95.363155 C 145.12547,93.078471 143.13119,91.190006 141.03827,88.557219 C 132.20178,77.441721 124.68822,66.804117 115.68227,60.616898 C 116.13346,60.884098 116.57211,61.175223 117.01637,61.471231 C 130.47777,51.894997 144.23282,44.498962 157.40371,32.738651 C 157.41442,32.694769 157.42337,32.655903 157.43398,32.612113 C 167.0303,22.507003 176.97866,11.833086 183.56472,-2.374448 C 174.78271,-0.57477085 167.32781,1.6901749 158.17187,5.7644465 C 158.16784,5.7507472 158.15185,5.7389115 158.1478,5.7252406 C 158.07774,5.7592 158.0217,5.8116 157.95178,5.845568 C 129.60973,19.616468 111.14494,35.305961 94.224941,55.382609 C 94.344509,55.506128 94.579023,55.577913 94.881703,55.573195 C 95.78972,55.55904 97.244329,55.151419 97.603069,55.521955 C 96.687741,55.534575 95.780965,55.533042 94.881703,55.573195 C 64.834034,56.914778 43.700822,73.535177 28.063176,96.644526 L 29.654231,94.048532 C 2.6065408,86.552638 -23.561649,88.946336 -48.970893,93.464394 C -48.976586,93.465403 -48.989248,93.424172 -48.994958,93.425191 C -49.13743,93.461931 -49.278206,93.486943 -49.419992,93.524169 C -57.990992,95.774524 -65.351145,98.935447 -72.941544,101.80979 C -58.721824,109.23148 -42.992394,111.57201 -27.576821,115.03855 L -28.413687,114.20284 C -27.934899,114.53764 -27.44063,114.86458 -26.944125,115.18993 C -7.7242695,117.95648 8.8428301,116.39571 25.082524,113.15596 C 25.324656,110.5574 24.452094,107.86496 25.808372,105.36952 C 23.317707,122.12555 34.225882,142.73323 38.352085,153.58951 C 41.795147,172.74065 51.248366,176.40002 78.816713,183.10458" /></svg>