<?xml version="1.0" encoding="UTF-8" standalone="no"?>
<!-- Creator: CorelDRAW -->
<svg
   xmlns:dc="http://purl.org/dc/elements/1.1/"
   xmlns:cc="http://creativecommons.org/ns#"
   xmlns:rdf="http://www.w3.org/1999/02/22-rdf-syntax-ns#"
   xmlns:svg="http://www.w3.org/2000/svg"
   xmlns="http://www.w3.org/2000/svg"
   xmlns:sodipodi="http://sodipodi.sourceforge.net/DTD/sodipodi-0.dtd"
   xmlns:inkscape="http://www.inkscape.org/namespaces/inkscape"
   xml:space="preserve"
   width="256"
   height="256"
   style="fill-rule:evenodd"
   viewBox="0 0 4.61342 1.086"
   id="svg2"
   sodipodi:version="0.32"
   inkscape:version="0.46"
   sodipodi:docname="vmware-1.svg"
   inkscape:output_extension="org.inkscape.output.svg.inkscape"
   version="1.0"><metadata
   id="metadata21"><rdf:RDF><cc:Work
       rdf:about=""><dc:format>image/svg+xml</dc:format><dc:type
         rdf:resource="http://purl.org/dc/dcmitype/StillImage" /></cc:Work></rdf:RDF></metadata><sodipodi:namedview
   inkscape:window-height="675"
   inkscape:window-width="640"
   inkscape:pageshadow="2"
   inkscape:pageopacity="0.0"
   guidetolerance="10.0"
   gridtolerance="10.0"
   objecttolerance="10.0"
   borderopacity="1.0"
   bordercolor="#666666"
   pagecolor="#ffffff"
   id="base"
   showgrid="false"
   inkscape:zoom="0.020471677"
   inkscape:cx="9169.4598"
   inkscape:cy="-3048.0155"
   inkscape:window-x="269"
   inkscape:window-y="135"
   inkscape:current-layer="svg2" />
 <defs
   id="defs4"><inkscape:perspective
   sodipodi:type="inkscape:persp3d"
   inkscape:vp_x="0 : 48.869999 : 1"
   inkscape:vp_y="0 : 1000 : 0"
   inkscape:vp_z="415.20779 : 48.869999 : 1"
   inkscape:persp3d-origin="207.6039 : 32.579999 : 1"
   id="perspective23" />
  <style
   type="text/css"
   id="style6">
   
    .fil0 {fill:#7D99BA}
   
  </style>
 
  <metadata
   id="CorelCorpID_0Corel-Layer" />
  
 
   
   
   
   
   
   
   
   
   
  </defs>
 <path
   id="_79118920"
   class="fil0"
   d="M 8.7041634,45.509676 C -0.52641766,50.111769 -4.2891925,61.340477 0.30830506,70.561839 L 62.023308,194.34579 C 66.62247,203.5705 77.864995,207.34419 87.095575,202.74209 L 210.88613,141.0238 C 220.09741,136.43133 223.83718,125.18791 219.23802,115.96321 L 157.52302,-7.8207474 C 152.92553,-17.042111 141.706,-20.801088 132.49471,-16.208616 L 8.7041634,45.509676 z"
   style="fill:none;stroke:#000000;stroke-width:1.80211723;stroke-miterlimit:4;stroke-dasharray:none;stroke-opacity:1"
   sodipodi:nodetypes="ccccccccc" /><path
   id="_79854112"
   class="fil0"
   d="M 64.089969,64.06317 C 54.872801,68.658576 51.128857,79.893605 55.720083,89.102388 L 117.44634,212.9089 C 122.03338,222.1093 133.26503,225.89263 142.48219,221.29722 L 266.27872,159.57595 C 275.50929,154.97387 279.2348,143.73337 274.64773,134.53295 L 212.92148,10.726439 C 208.33026,1.5176556 197.11706,-2.260185 187.88649,2.341904 L 64.089969,64.06317 L 64.089969,64.06317 z"
   style="fill:none;stroke:#000000;stroke-width:1.80211723;stroke-miterlimit:4;stroke-dasharray:none;stroke-opacity:1"
   sodipodi:nodetypes="cccccccccc" /><path
   id="_79788696"
   class="fil0"
   d="M 8.6093348,137.88713 C -0.621244,142.48922 -4.364364,153.73848 0.21892413,162.93134 L 61.945606,286.73872 C 66.544765,295.96342 77.768887,299.71907 86.999466,295.11698 L 210.7649,233.41121 C 220.00051,228.80661 223.76874,217.57621 219.16959,208.35152 L 157.4429,84.544135 C 152.85961,75.351271 141.61039,71.576759 132.37477,76.181361 L 8.6093348,137.88713 L 8.6093348,137.88713 z"
   style="fill:none;stroke:#000000;stroke-width:1.80211723;stroke-miterlimit:4;stroke-dasharray:none;stroke-opacity:1"
   sodipodi:nodetypes="cccccccccc" />
</svg>