<?xml version="1.0" encoding="UTF-8" standalone="no"?>
<!DOCTYPE svg PUBLIC "-//W3C//DTD SVG 20010904//EN"
"http://www.w3.org/TR/2001/REC-SVG-20010904/DTD/svg10.dtd">
<!-- Created with Inkscape (http://www.inkscape.org/) -->
<svg
   id="svg1"
   sodipodi:version="0.32"
   inkscape:version="0.38.1"
   width="210mm"
   height="297mm"
   sodipodi:docbase="/home/micah/navi-misc/wasabi/media_src"
   sodipodi:docname="logo.svg"
   xmlns="http://www.w3.org/2000/svg"
   xmlns:inkscape="http://www.inkscape.org/namespaces/inkscape"
   xmlns:sodipodi="http://sodipodi.sourceforge.net/DTD/sodipodi-0.dtd"
   xmlns:xlink="http://www.w3.org/1999/xlink">
  <defs
     id="defs3" />
  <sodipodi:namedview
     id="base"
     pagecolor="#ffffff"
     bordercolor="#666666"
     borderopacity="1.0"
     inkscape:pageopacity="0.0"
     inkscape:pageshadow="2"
     inkscape:zoom="0.86831672"
     inkscape:cx="338.93857"
     inkscape:cy="482.87298"
     inkscape:window-width="760"
     inkscape:window-height="633"
     inkscape:window-x="96"
     inkscape:window-y="392" />
  <rect
     style="fill:#ffffff;fill-opacity:0.0000000;fill-rule:evenodd;stroke-width:3.0000000pt;"
     id="rect826"
     width="561.43110"
     height="188.58327"
     ry="21.548584"
     x="87.813583"
     y="358.49094" />
  <path
     style="font-size:24.000000;fill:#ffffff;fill-opacity:1.0000000;stroke:#000000;stroke-width:8.6974840;stroke-linecap:round;stroke-linejoin:round;stroke-opacity:1.0000000;font-family:Geodesic;"
     d="M 630.97566,404.81170 C 630.97566,408.02784 630.29532,410.50179 628.93465,412.23356 C 624.11045,418.54213 619.84288,421.69642 616.13195,421.69642 C 612.29733,421.69642 609.20489,420.39759 606.85464,417.79995 C 604.62808,415.07860 603.51480,411.80061 603.51480,407.96599 C 603.51480,404.13137 605.24657,400.29674 608.71010,396.46212 C 612.29733,392.50380 616.00826,390.52464 619.84288,390.52464 C 623.30641,390.52464 626.15146,392.44195 628.37801,396.27657 C 630.10978,399.24531 630.97566,402.09036 630.97566,404.81170 z M 628.19247,515.76840 C 628.19247,517.25278 625.34742,519.23194 619.65734,521.70589 C 614.70943,523.93244 611.80254,525.04572 610.93666,525.04572 C 608.58640,525.04572 606.17430,522.69547 603.70035,517.99496 C 601.84489,514.40773 600.29867,509.58353 599.06169,503.52235 C 598.93800,503.15125 598.87615,501.04840 598.87615,497.21377 C 598.87615,496.84268 599.12354,492.38957 599.61833,483.85444 C 600.11312,475.31931 600.36052,470.86619 600.36052,470.49510 L 600.36052,434.87021 C 600.73161,434.49911 601.22640,434.00432 601.84489,433.38584 C 607.78237,432.64365 613.71985,432.27256 619.65734,432.27256 C 621.63650,432.27256 622.68793,433.01474 622.81162,434.49911 C 624.17230,442.91055 624.85263,451.19828 624.85263,459.36232 L 624.85263,495.35831 C 624.85263,501.17209 625.40927,506.12000 626.52255,510.20202 C 627.63583,514.16034 628.19247,516.01580 628.19247,515.76840 z M 592.19648,491.46184 C 592.19648,492.94621 592.01093,496.16234 591.63984,501.11025 C 591.26875,505.06857 589.84623,508.65580 587.37227,511.87193 C 578.21866,523.37580 568.13731,529.12774 557.12822,529.12774 C 547.72721,529.12774 539.37763,526.46824 532.07947,521.14925 C 529.72922,524.11799 528.05930,526.40639 527.06972,528.01446 C 525.46165,528.38555 524.90501,528.57110 525.39980,528.57110 C 525.15241,528.57110 519.77156,526.22085 509.25727,521.52034 C 507.89660,520.90185 507.21626,520.03597 507.21626,518.92269 C 507.21626,518.55160 507.64920,517.68572 508.51509,516.32504 C 509.38097,514.96437 509.87576,514.03664 509.99946,513.54185 C 511.11274,510.20202 512.47341,505.56336 514.08148,499.62587 C 514.57627,495.29646 515.44215,488.92604 516.67913,480.51460 C 517.79240,476.30889 518.96753,470.61880 520.20451,463.44434 C 520.20451,460.22821 520.26635,455.58955 520.39005,449.52837 C 520.51375,448.66248 520.63745,447.11626 520.76114,444.88971 C 521.00854,442.53946 521.13224,441.17878 521.13224,440.80769 L 521.13224,423.55188 C 521.00854,414.76936 520.69930,402.70884 520.20451,387.37035 C 520.20451,386.99926 520.01896,385.32934 519.64787,382.36060 C 519.40047,379.26816 519.27677,377.53639 519.27677,377.16530 C 519.27677,375.68093 519.77156,374.75320 520.76114,374.38211 C 522.61661,373.63992 524.90501,373.26883 527.62636,373.26883 C 531.70838,373.26883 536.90367,373.45437 543.21225,373.82547 C 545.43881,374.07286 546.55208,374.62950 546.55208,375.49538 C 546.67578,376.23757 546.73763,385.94783 546.73763,404.62616 L 546.73763,449.89946 C 546.73763,451.38383 547.60351,452.24971 549.33528,452.49711 C 553.29360,452.86820 558.55075,453.54854 565.10672,454.53812 C 566.96218,455.52770 569.74537,456.82652 573.45630,458.43459 C 580.25967,461.40333 585.26942,466.53678 588.48555,473.83494 C 590.95950,479.40133 592.19648,485.27696 592.19648,491.46184 z M 572.52857,503.52235 C 572.77596,502.53277 572.89966,501.66688 572.89966,500.92470 C 572.89966,497.09007 570.73495,494.80167 566.40554,494.05948 C 562.94201,493.44100 559.97327,494.49243 557.49932,497.21377 C 555.27276,499.44033 553.91209,502.09983 553.41730,505.19226 C 552.67511,509.27428 554.09763,511.62454 557.68486,512.24302 C 560.15881,512.73781 562.94201,512.24302 566.03445,510.75865 C 569.86907,509.15059 572.03378,506.73848 572.52857,503.52235 z M 502.39206,517.80941 C 502.39206,519.04639 501.77357,519.97412 500.53660,520.59261 C 490.02230,525.29312 484.64146,527.64337 484.39407,527.64337 C 484.88886,527.64337 484.27037,527.39597 482.53860,526.90118 C 481.67272,525.29312 480.00280,523.06656 477.52885,520.22152 C 470.23070,525.41681 461.94296,528.01446 452.66564,528.01446 C 441.53286,528.01446 431.45151,522.26253 422.42159,510.75865 C 419.94764,507.66622 418.52512,504.07899 418.15403,499.99697 C 417.78293,495.17276 417.59739,492.01848 417.59739,490.53410 C 417.59739,471.36098 426.62731,459.05308 444.68715,453.61039 C 448.27438,453.11560 453.53153,452.37341 460.45859,451.38383 C 460.95338,451.38383 461.63372,450.88904 462.49960,449.89946 C 461.88111,446.55963 458.35573,442.04467 451.92346,436.35458 C 450.68648,435.24130 449.14026,434.18987 447.28480,433.20029 C 444.43976,431.46852 442.83169,430.47894 442.46060,430.23155 C 441.34732,429.24197 440.79068,428.00499 440.79068,426.52062 C 440.79068,426.27323 443.01723,421.32533 447.47035,411.67692 C 447.84144,410.68734 448.64547,410.19255 449.88245,410.19255 C 451.24312,410.19255 454.39741,411.73877 459.34531,414.83120 C 461.94296,416.56297 464.54061,418.23289 467.13826,419.84096 C 474.06532,423.42818 479.75541,428.74718 484.20852,435.79794 C 487.91945,441.85912 490.08415,448.10585 490.70264,454.53812 C 490.95004,458.74383 491.32113,464.43392 491.81592,471.60838 C 492.80550,482.37007 494.04247,491.33814 495.52684,498.51260 C 496.14533,501.35764 498.43374,507.78991 502.39206,517.80941 z M 470.47809,496.47159 C 470.47809,490.90520 467.94229,488.12200 462.87069,488.12200 C 459.28346,488.12200 456.50027,489.73007 454.52111,492.94621 C 452.78934,495.54386 451.92346,498.32705 451.92346,501.29579 C 451.92346,505.50151 453.71707,507.60437 457.30430,507.60437 C 459.90195,507.60437 462.56145,506.67663 465.28279,504.82117 C 468.74633,502.47092 470.47809,499.68772 470.47809,496.47159 z M 407.94898,502.22352 C 407.94898,509.64538 404.17620,516.13950 396.63065,521.70589 C 393.90931,523.68505 390.94057,525.16942 387.72443,526.15900 C 385.25048,526.90118 382.71468,527.64337 380.11703,528.38555 C 378.26157,528.75665 375.78762,529.37514 372.69518,530.24102 C 369.60274,531.10690 365.27333,531.53984 359.70694,531.53984 C 345.11062,531.53984 333.85415,529.06589 325.93750,524.11799 C 327.05078,512.86151 329.40104,507.23327 332.98826,507.23327 C 332.36978,507.23327 333.54490,507.54252 336.51364,508.16101 C 345.17247,510.14017 351.29550,511.12975 354.88273,511.12975 C 358.34626,511.12975 361.62425,510.75865 364.71669,510.01647 C 370.15938,508.77949 372.88072,506.61479 372.88072,503.52235 C 372.88072,500.05882 371.08711,497.95596 367.49988,497.21377 C 363.91265,497.09007 358.46996,496.34789 351.17180,494.98722 C 349.44004,494.86352 347.15163,494.36873 344.30659,493.50285 C 335.27667,488.55494 329.27734,484.22553 326.30860,480.51460 C 323.46355,476.67998 322.04103,471.36098 322.04103,464.55762 C 322.04103,457.25946 324.20574,451.13644 328.53515,446.18853 C 333.11196,440.74584 339.72978,437.28231 348.38861,435.79794 C 356.55265,434.43727 360.57282,433.75693 360.44912,433.75693 C 370.71602,433.75693 378.75636,436.23088 384.57014,441.17878 C 385.55972,441.92097 386.05451,445.07526 386.05451,450.64165 C 386.05451,457.44501 384.63199,460.84669 381.78695,460.84669 C 381.29216,460.84669 380.05518,460.66115 378.07602,460.29005 C 376.22056,459.91896 375.10728,459.73341 374.73619,459.73341 C 368.67501,459.73341 365.64442,461.21779 365.64442,464.18653 C 365.64442,465.29980 366.01551,466.66048 366.75770,468.26855 C 367.62358,469.87661 368.67501,470.80435 369.91198,471.05174 C 371.14896,471.17544 376.59165,471.79393 386.24006,472.90720 C 392.67233,473.77309 398.05318,477.60771 402.38259,484.41108 C 406.09352,490.34856 407.94898,496.28604 407.94898,502.22352 z M 314.80473,517.80941 C 314.80473,519.04639 314.18624,519.97412 312.94926,520.59261 C 302.43497,525.29312 297.05413,527.64337 296.80673,527.64337 C 297.30152,527.64337 296.68303,527.39597 294.95127,526.90118 C 294.08539,525.29312 292.41547,523.06656 289.94152,520.22152 C 282.64336,525.41681 274.35563,528.01446 265.07831,528.01446 C 253.94553,528.01446 243.86418,522.26253 234.83426,510.75865 C 232.36031,507.66622 230.93779,504.07899 230.56669,499.99697 C 230.19560,495.17276 230.01006,492.01848 230.01006,490.53410 C 230.01006,471.36098 239.03998,459.05308 257.09982,453.61039 C 260.68705,453.11560 265.94419,452.37341 272.87126,451.38383 C 273.36605,451.38383 274.04638,450.88904 274.91227,449.89946 C 274.29378,446.55963 270.76840,442.04467 264.33613,436.35458 C 263.09915,435.24130 261.55293,434.18987 259.69747,433.20029 C 256.85242,431.46852 255.24436,430.47894 254.87326,430.23155 C 253.75998,429.24197 253.20335,428.00499 253.20335,426.52062 C 253.20335,426.27323 255.42990,421.32533 259.88301,411.67692 C 260.25411,410.68734 261.05814,410.19255 262.29512,410.19255 C 263.65579,410.19255 266.81008,411.73877 271.75798,414.83120 C 274.35563,416.56297 276.95328,418.23289 279.55092,419.84096 C 286.47799,423.42818 292.16807,428.74718 296.62119,435.79794 C 300.33211,441.85912 302.49682,448.10585 303.11531,454.53812 C 303.36270,458.74383 303.73379,464.43392 304.22858,471.60838 C 305.21817,482.37007 306.45514,491.33814 307.93951,498.51260 C 308.55800,501.35764 310.84640,507.78991 314.80473,517.80941 z M 282.89076,496.47159 C 282.89076,490.90520 280.35496,488.12200 275.28336,488.12200 C 271.69613,488.12200 268.91293,489.73007 266.93377,492.94621 C 265.20201,495.54386 264.33613,498.32705 264.33613,501.29579 C 264.33613,505.50151 266.12974,507.60437 269.71697,507.60437 C 272.31462,507.60437 274.97411,506.67663 277.69546,504.82117 C 281.15899,502.47092 282.89076,499.68772 282.89076,496.47159 z M 220.36165,446.00299 C 220.85644,446.62147 221.10383,447.98215 221.10383,450.08501 C 221.10383,453.42484 220.54719,458.62014 219.43391,465.67090 C 218.32064,472.72166 217.76400,476.12334 217.76400,475.87595 C 217.76400,484.03998 216.58887,493.62654 214.23862,504.63563 C 213.24904,509.21243 212.50685,512.24302 212.01206,513.72740 C 210.77509,517.06723 208.98147,519.54118 206.63122,521.14925 C 205.76534,521.76774 204.28096,522.20068 202.17811,522.44807 C 200.57004,522.57177 199.02382,522.75732 197.53945,523.00471 C 196.17878,523.12841 193.95222,523.74690 190.85978,524.86017 C 187.76734,525.84976 185.97373,526.34455 185.47894,526.34455 C 183.00499,526.34455 180.28364,523.00471 177.31490,516.32504 C 174.46986,510.01647 171.99590,505.19226 169.89305,501.85243 C 168.90347,502.96571 166.05842,507.72806 161.35792,516.13950 C 158.38917,521.33479 154.92564,524.24169 150.96732,524.86017 C 145.52463,525.84976 139.40160,526.34455 132.59824,526.34455 C 129.13470,526.34455 128.02142,526.40639 129.25840,526.53009 C 127.89773,526.40639 126.72260,525.41681 125.73302,523.56135 C 124.74344,521.58219 123.32092,517.12908 121.46545,510.20202 C 119.11520,501.41949 117.56898,495.91495 116.82680,493.68839 C 114.60024,486.76133 109.46679,473.15460 101.42645,452.86820 C 100.80796,451.38383 100.56057,449.46652 100.68426,447.11626 C 101.42645,446.37408 102.53973,445.57005 104.02410,444.70416 C 109.83788,443.83828 115.65167,442.97240 121.46545,442.10651 C 126.78445,441.24063 131.73235,440.80769 136.30916,440.80769 C 139.27790,440.80769 140.94782,441.30248 141.31891,442.29206 C 145.52463,452.80635 149.97774,467.40266 154.67825,486.08099 C 155.54413,484.34923 156.41001,482.61746 157.27590,480.88570 C 158.26548,479.03023 159.44060,477.73141 160.80128,476.98922 C 162.28565,476.12334 164.88330,475.25746 168.59422,474.39157 C 171.56296,473.64939 173.60397,473.27830 174.71725,473.27830 C 176.20162,473.27830 180.46919,477.91695 187.51995,487.19427 C 187.51995,487.07057 188.75692,481.25679 191.23087,469.75292 C 192.22045,464.68132 193.21003,459.60972 194.19961,454.53812 C 196.30247,445.01341 198.59088,440.25105 201.06483,440.25105 C 202.79659,440.25105 205.88903,440.74584 210.34214,441.73542 C 216.03223,442.97240 219.37207,444.39492 220.36165,446.00299 z "
     id="path829" />
</svg>
