%FSLAX23Y23*%
%MOIN*%
G70*
G01*
G75*
G04 Layer_Physical_Order=1*
%ADD10O,0.012X0.059*%
%ADD11R,0.012X0.059*%
%ADD12O,0.059X0.012*%
%ADD13R,0.059X0.012*%
%ADD14C,0.010*%
%ADD15C,0.110*%
%ADD16O,0.236X0.130*%
%ADD17C,0.300*%
%ADD18R,0.059X0.059*%
%ADD19C,0.059*%
%ADD20C,0.055*%
%ADD21R,0.053X0.053*%
%ADD22C,0.053*%
%ADD23C,0.047*%
%ADD24R,0.047X0.047*%
%ADD25R,0.059X0.059*%
%ADD26C,0.059*%
%ADD27C,0.065*%
%ADD28C,0.180*%
%ADD29C,0.050*%
D10*
X3763Y2593D02*
D03*
X3737D02*
D03*
X3711D02*
D03*
X3686D02*
D03*
X3660D02*
D03*
X3635D02*
D03*
X3609D02*
D03*
X3584D02*
D03*
X3558D02*
D03*
X3532D02*
D03*
X3507D02*
D03*
X3481D02*
D03*
X3456D02*
D03*
X3430D02*
D03*
X3763Y2340D02*
D03*
X3737D02*
D03*
X3711D02*
D03*
X3686D02*
D03*
X3660D02*
D03*
X3635D02*
D03*
X3609D02*
D03*
X3584D02*
D03*
X3558D02*
D03*
X3532D02*
D03*
X3507D02*
D03*
X3481D02*
D03*
X3456D02*
D03*
D11*
X3430D02*
D03*
D12*
X1237Y1483D02*
D03*
Y1457D02*
D03*
Y1431D02*
D03*
Y1406D02*
D03*
Y1380D02*
D03*
Y1355D02*
D03*
Y1329D02*
D03*
Y1304D02*
D03*
Y1278D02*
D03*
Y1252D02*
D03*
Y1227D02*
D03*
Y1201D02*
D03*
Y1176D02*
D03*
Y1150D02*
D03*
X1490Y1483D02*
D03*
Y1457D02*
D03*
Y1431D02*
D03*
Y1406D02*
D03*
Y1380D02*
D03*
Y1355D02*
D03*
Y1329D02*
D03*
Y1304D02*
D03*
Y1278D02*
D03*
Y1252D02*
D03*
Y1227D02*
D03*
Y1201D02*
D03*
Y1176D02*
D03*
D13*
Y1150D02*
D03*
D14*
X3456Y2560D02*
Y2593D01*
X3370Y2545D02*
X3441D01*
X3934Y704D02*
X4070Y840D01*
X1040Y1176D02*
X1237D01*
X3430Y2694D02*
X3481Y2643D01*
Y2593D02*
Y2643D01*
X1346Y1201D02*
X1377Y1170D01*
X1237Y1201D02*
X1346D01*
X2320Y450D02*
X3360D01*
X3570Y240D01*
X2103Y667D02*
X2320Y450D01*
X820D02*
X1037Y667D01*
X2220Y422D02*
Y450D01*
X3325Y385D02*
X3470Y240D01*
X920Y450D02*
X1117Y647D01*
X2023Y619D02*
X2206Y436D01*
X2220Y422D01*
X2257Y385D01*
X3245Y365D02*
X3370Y240D01*
X1020Y450D02*
X1197Y627D01*
X1943D02*
X2120Y450D01*
X2205Y365D01*
X3185Y325D02*
X3270Y240D01*
X1120Y450D02*
X1203Y533D01*
X1937D02*
X2020Y450D01*
X2125Y345D01*
X3005Y305D02*
X3070Y240D01*
X1857Y513D02*
X1920Y450D01*
X2045Y325D01*
X1220Y450D02*
X1257Y487D01*
X1794Y424D02*
X1912Y305D01*
X2925Y285D02*
X2970Y240D01*
X1794Y424D02*
X1820Y450D01*
X1650Y280D02*
X1794Y424D01*
X1320Y450D02*
X1490Y280D01*
X1677Y407D02*
X1720Y450D01*
X2825Y285D02*
X2870Y240D01*
X1377Y493D02*
X1420Y450D01*
X1463Y407D01*
X3763Y2593D02*
Y3106D01*
Y2274D02*
Y2340D01*
X1391Y2083D02*
X1462Y2011D01*
X1320Y2012D02*
X1391Y2083D01*
X3737Y2593D02*
Y3024D01*
X1391Y2843D02*
Y2909D01*
X3686Y2638D02*
Y2748D01*
Y2593D02*
Y2638D01*
X3580Y2812D02*
X3622D01*
X3300D02*
X3580D01*
X3620Y2638D02*
X3686D01*
X3580Y2812D02*
Y2854D01*
X3609Y2593D02*
Y2627D01*
X3737Y2274D02*
Y2340D01*
X3658Y2195D02*
X3737Y2274D01*
X1237Y1406D02*
X1270D01*
X483Y2153D02*
X554Y2083D01*
X1317Y1366D02*
Y1395D01*
X1271Y1329D02*
X1282Y1340D01*
X1271Y1329D02*
X1280D01*
X1237D02*
X1271D01*
X7761Y1757D02*
X8087Y2083D01*
X1237Y1431D02*
X1277D01*
X6892Y2083D02*
X7250D01*
X1192Y1380D02*
X1237D01*
X5678Y2083D02*
X6413D01*
X1186Y1355D02*
X1237D01*
X5277Y2083D02*
X5576D01*
X1160Y1304D02*
X1237D01*
X3697Y2800D02*
Y2848D01*
X3711Y2800D02*
Y2840D01*
Y2593D02*
Y2800D01*
X3660Y2556D02*
Y2593D01*
Y2556D02*
X3688Y2528D01*
X3635Y2560D02*
Y2593D01*
X3065Y2083D02*
X3187Y2205D01*
X3584Y2593D02*
Y2637D01*
X2187Y2430D02*
X3191D01*
X1490Y1406D02*
X1590D01*
X1490Y1329D02*
X1660D01*
X1459D02*
X1490D01*
X1457Y1252D02*
X1490D01*
X1460Y1176D02*
X1490D01*
X1450D02*
X1460D01*
X554Y1323D02*
X691D01*
X1437Y1220D02*
Y1232D01*
Y1199D02*
Y1220D01*
X1407Y1250D02*
X1437Y1220D01*
Y1199D02*
X1460Y1176D01*
X7804Y1606D02*
X8087Y1323D01*
X2320Y750D02*
X2488Y918D01*
X1535Y1446D02*
Y1545D01*
X1490Y1431D02*
X1520D01*
X7134Y1207D02*
X7250Y1323D01*
X1461Y1612D02*
X1777D01*
X1460Y1380D02*
X1490D01*
X2220Y720D02*
Y750D01*
X6334Y1323D02*
X6413D01*
X1587Y1375D02*
X1630D01*
X1490Y1355D02*
X1567D01*
X1464D02*
X1490D01*
X5208Y955D02*
X5576Y1323D01*
X2020Y750D02*
X2208Y938D01*
X1490Y1304D02*
X1658D01*
X1670Y1292D02*
X1690D01*
X4394Y978D02*
X4739Y1323D01*
X1920Y750D02*
X2128Y958D01*
X1438Y1278D02*
X1490D01*
X1410Y1298D02*
X1418D01*
X3514Y1649D02*
X3871Y1292D01*
X3902Y1323D01*
X3662Y1083D02*
X3871Y1292D01*
X1490Y1227D02*
X1725D01*
X1820Y750D02*
X1847Y777D01*
X1720Y750D02*
Y1110D01*
X1490Y1150D02*
X1720D01*
X1876Y971D02*
X2228Y1323D01*
X1770Y707D02*
Y941D01*
X1490Y1201D02*
X1764D01*
X1620Y750D02*
X1663Y707D01*
X1770D02*
X1843D01*
X1663D02*
X1770D01*
X3574Y2475D02*
X3817D01*
X3566Y2483D02*
X3574Y2475D01*
X3609Y2440D01*
X3686Y2297D02*
Y2340D01*
X3609D02*
Y2440D01*
Y2300D02*
Y2340D01*
X3532D02*
Y2387D01*
Y2236D02*
Y2340D01*
X554Y2843D02*
Y2909D01*
X3456Y2277D02*
Y2340D01*
X8087Y2772D02*
Y2843D01*
X3711Y2340D02*
Y2370D01*
X6918Y3175D02*
X7250Y2843D01*
X3660Y2340D02*
Y2394D01*
X6413Y2843D02*
X6490Y2766D01*
X3635Y2340D02*
Y2414D01*
X3584Y2340D02*
Y2392D01*
X3536Y2440D02*
X3584Y2392D01*
X4569Y2673D02*
X4739Y2843D01*
X3558Y2150D02*
Y2340D01*
X3507Y2271D02*
Y2340D01*
X3456Y2220D02*
X3507Y2271D01*
X3430Y2290D02*
Y2340D01*
X3440Y2115D02*
X3500D01*
X3413Y2414D02*
X3447D01*
X3481Y2340D02*
Y2380D01*
X1583Y450D02*
X1620D01*
X1520D02*
X1530Y460D01*
X5448Y527D02*
X7268D01*
X4270Y840D02*
X4418Y692D01*
X6779Y900D02*
X6840D01*
X3363Y2699D02*
Y2750D01*
X3430Y2593D02*
Y2632D01*
X3363Y2699D02*
X3396Y2665D01*
X3430Y2632D01*
X3470Y840D02*
X3528Y898D01*
X3625Y195D02*
X3670Y240D01*
X3330Y2599D02*
X3396Y2665D01*
X1237Y1252D02*
X1341D01*
X1237Y1150D02*
X1300D01*
X1120D02*
X1237D01*
X2670Y240D02*
X2715Y195D01*
X1080Y1083D02*
Y1110D01*
X8370Y3370D02*
X8500Y3500D01*
X8150Y3370D02*
X8370D01*
X8105Y3415D02*
X8150Y3370D01*
X7313D02*
X7358Y3415D01*
X7268D02*
X7313Y3370D01*
X6476D02*
X6521Y3415D01*
X6431D02*
X6476Y3370D01*
X5854Y3046D02*
X6050Y2850D01*
X6260Y2640D01*
X6476D01*
X5494Y3515D02*
X5639Y3370D01*
X5684Y3415D01*
X4757D02*
X4802Y3370D01*
X4110Y3415D02*
X4757D01*
X4010D02*
X4110D01*
Y3515D01*
X3965Y3370D02*
X4010Y3415D01*
X3920D02*
X3965Y3370D01*
X5639Y3046D02*
X5854D01*
X7313Y1526D02*
X7555D01*
X7961Y1120D02*
X8150D01*
X6476D02*
X6729D01*
X6230D02*
X6476D01*
X7366Y527D02*
X7447D01*
X7724Y250D02*
X8500D01*
X7447Y527D02*
X7554Y420D01*
X7724Y250D01*
X6914Y900D02*
X6940D01*
X7260Y420D02*
X7366Y527D01*
X7080Y420D02*
X7260D01*
X5639Y1526D02*
X5649D01*
X6050Y1300D02*
Y1412D01*
Y1300D02*
X6230Y1120D01*
X3980Y450D02*
X4840D01*
X3770Y240D02*
X3980Y450D01*
X3128Y3370D02*
X3173Y3415D01*
X2960Y3538D02*
X3128Y3370D01*
X2291Y3046D02*
X2504D01*
X2291Y3370D02*
X2459Y3538D01*
X2504Y3046D02*
X2700Y2850D01*
X2910Y2640D01*
X3560Y2672D02*
Y2750D01*
X3558Y2593D02*
Y2670D01*
X3532Y2593D02*
X3558D01*
X3507D02*
X3532D01*
X2910Y2640D02*
X3128D01*
X2246Y3415D02*
X2291Y3370D01*
X1454D02*
X1499Y3415D01*
X1385Y3370D02*
X1454D01*
X250Y3500D02*
X487D01*
X617Y3370D01*
X784Y3203D01*
X2415Y1412D02*
X2700D01*
X2291Y1526D02*
X2301D01*
X2700Y1300D02*
Y1412D01*
X3547Y1020D02*
X3620D01*
X3128Y1120D02*
X3250D01*
X3075D02*
X3128D01*
X2700Y1300D02*
X2895D01*
X1207Y1278D02*
X1237D01*
X1080Y1280D02*
Y1337D01*
X1133Y1227D02*
X1237D01*
X1133D02*
Y1280D01*
X617Y1526D02*
X891D01*
X1133Y1280D02*
X1205D01*
X1080D02*
X1133D01*
X1420Y750D02*
X1520D01*
X1320D02*
X1420D01*
X1220D02*
X1320D01*
X1120D02*
X1220D01*
X1020D02*
X1120D01*
X920D02*
X1020D01*
X820D02*
X920D01*
X377Y307D02*
X820Y750D01*
X250Y307D02*
X377D01*
X250Y250D02*
Y307D01*
X6120Y690D02*
X7183D01*
X7268Y605D01*
X6085Y725D02*
X6120Y690D01*
X4370Y840D02*
X4485Y725D01*
X6173Y443D02*
X6360D01*
X6120Y390D02*
X6173Y443D01*
X6098Y368D02*
X6120Y390D01*
X4370Y240D02*
X4498Y368D01*
X5110Y646D02*
X5180D01*
X5037Y650D02*
X5106D01*
X4882Y495D02*
X5037Y650D01*
X3903Y240D02*
Y246D01*
X3870Y240D02*
X3903D01*
X5110Y454D02*
X5180D01*
X5037Y450D02*
X5106D01*
X4952D02*
X5037D01*
X3970Y240D02*
X4118Y388D01*
X1110Y3470D02*
X1170Y3410D01*
X617Y3470D02*
X1110D01*
X1314Y3330D02*
X1454Y3470D01*
X1170Y3330D02*
X1314D01*
X4802Y3470D02*
X4847Y3425D01*
X4540Y3360D02*
X4588Y3312D01*
X1526Y3360D02*
X1720D01*
X4353Y123D02*
X4470Y240D01*
X815Y1401D02*
X1040Y1176D01*
X524Y1401D02*
X815D01*
X483Y1360D02*
X524Y1401D01*
X483Y1280D02*
Y1360D01*
Y1280D02*
X511Y1252D01*
X671D01*
X925Y998D01*
X1509D01*
X1563Y944D01*
Y740D02*
Y944D01*
Y740D02*
X1616Y687D01*
X2024D01*
X2077Y740D01*
Y770D01*
X2100Y793D01*
X2240D01*
X2263Y770D01*
Y721D02*
Y770D01*
Y721D02*
X2280Y704D01*
X3934D01*
X1037Y667D02*
X2103D01*
X1117Y647D02*
X2023D01*
Y619D02*
Y647D01*
X2257Y385D02*
X3325D01*
X1197Y627D02*
X1943D01*
X2205Y365D02*
X3245D01*
X2855Y285D02*
X2925D01*
X2835Y305D02*
X2855Y285D01*
X1912Y305D02*
X2835D01*
X1490Y280D02*
X1650D01*
X1278Y493D02*
X1377D01*
X1277Y492D02*
X1278Y493D01*
X1277Y265D02*
Y492D01*
Y265D02*
X1320Y222D01*
X2562D01*
X2625Y285D01*
X2825D01*
X3720Y3149D02*
X3763Y3106D01*
X1347Y3149D02*
X3720D01*
X734Y2536D02*
X1347Y3149D01*
X519Y2536D02*
X734D01*
X463Y2480D02*
X519Y2536D01*
X463Y2041D02*
Y2480D01*
Y2041D02*
X492Y2012D01*
X1320D01*
X1277Y1431D02*
X1363Y1517D01*
Y1637D01*
X1483Y1757D01*
X7761D01*
X6602Y1793D02*
X6892Y2083D01*
X4131Y1793D02*
X6602D01*
X4118Y1780D02*
X4131Y1793D01*
X1447Y1780D02*
X4118D01*
X1192Y1525D02*
X1447Y1780D01*
X1192Y1380D02*
Y1525D01*
X3584Y2637D02*
X3602Y2655D01*
Y2792D01*
X3340D02*
X3602D01*
X3290Y2742D02*
X3340Y2792D01*
X3290Y2529D02*
Y2742D01*
X3191Y2430D02*
X3290Y2529D01*
X1520Y1431D02*
X1535Y1446D01*
X1425Y1576D02*
X1461Y1612D01*
X1425Y1415D02*
Y1576D01*
Y1415D02*
X1460Y1380D01*
X2208Y938D02*
X3702D01*
X3719Y955D01*
X5208D01*
X3702Y978D02*
X4394D01*
X3682Y958D02*
X3702Y978D01*
X2128Y958D02*
X3682D01*
X1847Y777D02*
Y1080D01*
X2160Y1393D01*
X2277D01*
X2692Y978D01*
X3662D01*
Y1083D01*
X2147Y1649D02*
X3514D01*
X1725Y1227D02*
X2147Y1649D01*
X1720Y1110D02*
X1730Y1120D01*
Y1140D01*
X1720Y1150D02*
X1730Y1140D01*
X1770Y941D02*
X1817Y988D01*
Y1148D01*
X1764Y1201D02*
X1817Y1148D01*
X3476Y2180D02*
X3532Y2236D01*
X3434Y2180D02*
X3476D01*
X3415Y2199D02*
X3434Y2180D01*
X3415Y2199D02*
Y2236D01*
X3456Y2277D01*
X554Y2909D02*
X1050D01*
X1310Y3169D01*
X1369D01*
X1376Y3176D01*
X3775D01*
X3831Y3120D01*
Y2489D02*
Y3120D01*
X3817Y2475D02*
X3831Y2489D01*
X3492Y2427D02*
X3532Y2387D01*
X3492Y2427D02*
Y2469D01*
X3506Y2483D01*
X3566D01*
X3635Y2414D02*
X3660Y2439D01*
X3958D01*
X4098Y2579D01*
Y2950D01*
X4358Y3210D01*
X6918D01*
X7163Y2965D01*
X7280D01*
X7320Y2925D01*
Y2806D02*
Y2925D01*
X7280Y2766D02*
X7320Y2806D01*
X6490Y2766D02*
X7280D01*
X3420Y2280D02*
X3430Y2290D01*
X3415Y2280D02*
X3420D01*
X3395Y2260D02*
X3415Y2280D01*
X3395Y2160D02*
Y2260D01*
Y2160D02*
X3440Y2115D01*
X5283Y692D02*
X5448Y527D01*
X4418Y692D02*
X5283D01*
X6904Y910D02*
X6914Y900D01*
X6904Y910D02*
Y945D01*
X6729Y1120D02*
X6904Y945D01*
X5684Y3415D02*
X6431D01*
X4110Y3515D02*
X5494D01*
X3173Y3415D02*
X3920D01*
X2459Y3538D02*
X2960D01*
X4485Y725D02*
X6085D01*
X4498Y368D02*
X6098D01*
X4890Y388D02*
X4952Y450D01*
X4118Y388D02*
X4890D01*
X4588Y3312D02*
X4820D01*
X4847Y3339D01*
Y3425D01*
X1658Y1304D02*
X1670Y1292D01*
X6051Y1606D02*
X6334Y1323D01*
X3663Y1606D02*
X6051D01*
X3588Y1681D02*
X3663Y1606D01*
X1481Y1681D02*
X3588D01*
X1405Y1605D02*
X1481Y1681D01*
X1405Y1380D02*
Y1605D01*
Y1380D02*
X1426Y1359D01*
X1460D01*
X1464Y1355D01*
X1357Y3190D02*
X1526Y3360D01*
X1286Y3190D02*
X1357D01*
X1245Y3149D02*
X1286Y3190D01*
X480Y3149D02*
X1245D01*
X411Y3080D02*
X480Y3149D01*
X411Y1095D02*
Y3080D01*
X85Y769D02*
X411Y1095D01*
X85Y160D02*
Y769D01*
Y160D02*
X160Y85D01*
X383D01*
X421Y123D01*
X4353D01*
X3447Y2414D02*
X3481Y2380D01*
X784Y3203D02*
X1218D01*
X1385Y3370D01*
X1590Y1406D02*
X1599Y1415D01*
X1663D01*
X1678Y1400D01*
Y1347D02*
Y1400D01*
X1660Y1329D02*
X1678Y1347D01*
X3582Y2507D02*
X3635Y2560D01*
X3417Y2507D02*
X3582D01*
X3359Y2449D02*
X3417Y2507D01*
X3359Y2245D02*
Y2449D01*
X3319Y2205D02*
X3359Y2245D01*
X3187Y2205D02*
X3319D01*
X3697Y2848D02*
X3699Y2850D01*
X3701D01*
X3711Y2840D01*
X5174Y1980D02*
X5277Y2083D01*
X4668Y1980D02*
X5174D01*
X4649Y1961D02*
X4668Y1980D01*
X3271Y1961D02*
X4649D01*
X3246Y1986D02*
X3271Y1961D01*
X1182Y1986D02*
X3246D01*
X1138Y1942D02*
X1182Y1986D01*
X1138Y1326D02*
Y1942D01*
Y1326D02*
X1160Y1304D01*
X5555Y1960D02*
X5678Y2083D01*
X4700Y1960D02*
X5555D01*
X4669Y1929D02*
X4700Y1960D01*
X4187Y1929D02*
X4669D01*
X4058Y1800D02*
X4187Y1929D01*
X1211Y1800D02*
X4058D01*
X1171Y1760D02*
X1211Y1800D01*
X1171Y1370D02*
Y1760D01*
Y1370D02*
X1186Y1355D01*
X483Y2153D02*
Y2320D01*
X656Y2493D01*
X3208D01*
X3270Y2555D01*
Y2782D01*
X3300Y2812D01*
X3622D02*
X3686Y2748D01*
X2875Y305D02*
X3005D01*
X2855Y325D02*
X2875Y305D01*
X2045Y325D02*
X2855D01*
X1270Y513D02*
X1857D01*
X1257Y500D02*
X1270Y513D01*
X1257Y487D02*
Y500D01*
X1203Y533D02*
X1937D01*
X3441Y2545D02*
X3456Y2560D01*
X1300Y1150D02*
X1330Y1120D01*
X1387D01*
X1417Y1150D01*
Y1200D01*
X1407Y1210D02*
X1417Y1200D01*
X1383Y1210D02*
X1407D01*
X1341Y1252D02*
X1383Y1210D01*
X3660Y2394D02*
X3675Y2409D01*
X4046D01*
X4118Y2481D01*
Y2845D01*
X4448Y3175D01*
X6918D01*
X2895Y325D02*
X3185D01*
X2875Y345D02*
X2895Y325D01*
X2125Y345D02*
X2875D01*
X3609Y2300D02*
X3638Y2271D01*
X3660D01*
X3686Y2297D01*
X1418Y1298D02*
X1438Y1278D01*
X691Y1323D02*
X976Y1038D01*
X1395D01*
X1437Y1080D01*
Y1163D01*
X1450Y1176D01*
X1437Y1232D02*
X1457Y1252D01*
X1282Y1340D02*
Y1394D01*
X1270Y1406D02*
X1282Y1394D01*
X3763Y2274D02*
X3832Y2205D01*
X4069D01*
X4668Y2804D01*
Y2872D01*
X4709Y2913D01*
X4788D01*
X4935Y2766D01*
Y2236D02*
Y2766D01*
X4880Y2181D02*
X4935Y2236D01*
X4541Y2181D02*
X4880D01*
X4352Y1992D02*
X4541Y2181D01*
X3585Y1992D02*
X4352D01*
X3566Y2011D02*
X3585Y1992D01*
X1462Y2011D02*
X3566D01*
X3558Y2150D02*
X3696Y2012D01*
X4258D01*
X4569Y2323D01*
Y2673D01*
X1450Y1338D02*
X1459Y1329D01*
X1388Y1338D02*
X1450D01*
X1362Y1312D02*
X1388Y1338D01*
X1362Y1260D02*
Y1312D01*
Y1260D02*
X1372Y1250D01*
X1407D01*
X1567Y1355D02*
X1587Y1375D01*
X1280Y1329D02*
X1317Y1366D01*
X1205Y1280D02*
X1207Y1278D01*
X891Y1526D02*
X1080Y1337D01*
X7717Y2772D02*
X8087D01*
X7504Y2559D02*
X7717Y2772D01*
X5442Y2559D02*
X7504D01*
X5068Y2933D02*
X5442Y2559D01*
X4680Y2933D02*
X5068D01*
X4132Y2385D02*
X4680Y2933D01*
X3726Y2385D02*
X4132D01*
X3711Y2370D02*
X3726Y2385D01*
X1080Y1110D02*
X1120Y1150D01*
X7134Y840D02*
Y1207D01*
X7089Y795D02*
X7134Y840D01*
X4450Y795D02*
X7089D01*
X4415Y830D02*
X4450Y795D01*
X4415Y830D02*
Y860D01*
X4390Y885D02*
X4415Y860D01*
X4240Y885D02*
X4390D01*
X4215Y860D02*
X4240Y885D01*
X4215Y720D02*
Y860D01*
X4170Y675D02*
X4215Y720D01*
X2265Y675D02*
X4170D01*
X2220Y720D02*
X2265Y675D01*
X2488Y918D02*
X3722D01*
X3736Y932D01*
X6794D01*
X6801Y939D01*
X6879D01*
Y902D02*
Y939D01*
Y902D02*
X6920Y861D01*
X6960D01*
X6979Y880D01*
Y1425D01*
X7160Y1606D01*
X7804D01*
X3528Y898D02*
X3735D01*
X3742Y905D01*
X4435D01*
X4440Y900D01*
X6759D01*
X6769Y890D01*
X6779Y900D01*
X3485Y1082D02*
X3547Y1020D01*
X3288Y1082D02*
X3485D01*
X3250Y1120D02*
X3288Y1082D01*
X1876Y740D02*
Y971D01*
X1843Y707D02*
X1876Y740D01*
X1391Y2909D02*
X1536D01*
X1587Y2960D01*
Y3081D01*
X1632Y3126D01*
X3635D01*
X3737Y3024D01*
X3609Y2627D02*
X3620Y2638D01*
X2895Y1300D02*
X3075Y1120D01*
X3903Y246D02*
X4065Y408D01*
X4882D01*
Y495D01*
X2301Y1526D02*
X2415Y1412D01*
X5763D02*
X6050D01*
X5649Y1526D02*
X5763Y1412D01*
X7555Y1526D02*
X7961Y1120D01*
X2715Y195D02*
X3625D01*
X6521Y3415D02*
X7268D01*
X7358D02*
X8105D01*
X1499D02*
X2246D01*
X1573Y460D02*
X1583Y450D01*
X1530Y460D02*
X1573D01*
X1463Y407D02*
X1677D01*
X3558Y2670D02*
X3560Y2672D01*
X5106Y650D02*
X5110Y646D01*
X5106Y450D02*
X5110Y454D01*
D15*
X1391Y2083D02*
D03*
Y2843D02*
D03*
X554Y1323D02*
D03*
Y2083D02*
D03*
X8087D02*
D03*
X7250D02*
D03*
X6413D02*
D03*
X5576D02*
D03*
X4739D02*
D03*
X3902D02*
D03*
X3065D02*
D03*
X2228D02*
D03*
X554Y2843D02*
D03*
X8087Y1323D02*
D03*
X7250D02*
D03*
X6413D02*
D03*
X5576D02*
D03*
X4739D02*
D03*
X3902D02*
D03*
X3065D02*
D03*
X2228D02*
D03*
X8087Y2843D02*
D03*
X7250D02*
D03*
X6413D02*
D03*
X5576D02*
D03*
X4739D02*
D03*
X3902D02*
D03*
X3065D02*
D03*
X2228D02*
D03*
D16*
X1454Y1880D02*
D03*
Y2286D02*
D03*
Y3046D02*
D03*
Y2640D02*
D03*
X617Y1120D02*
D03*
Y1526D02*
D03*
Y2286D02*
D03*
Y1880D02*
D03*
X8150D02*
D03*
Y2286D02*
D03*
X7313D02*
D03*
Y1880D02*
D03*
X6476D02*
D03*
Y2286D02*
D03*
X5639D02*
D03*
Y1880D02*
D03*
X4802D02*
D03*
Y2286D02*
D03*
X3965D02*
D03*
Y1880D02*
D03*
X3128D02*
D03*
Y2286D02*
D03*
X2291D02*
D03*
Y1880D02*
D03*
X617Y2640D02*
D03*
Y3046D02*
D03*
X8150Y1526D02*
D03*
Y1120D02*
D03*
X7313D02*
D03*
Y1526D02*
D03*
X6476D02*
D03*
Y1120D02*
D03*
X5639D02*
D03*
Y1526D02*
D03*
X4802D02*
D03*
Y1120D02*
D03*
X3965D02*
D03*
Y1526D02*
D03*
X3128D02*
D03*
Y1120D02*
D03*
X2291D02*
D03*
Y1526D02*
D03*
X8150Y3046D02*
D03*
Y2640D02*
D03*
X7313D02*
D03*
Y3046D02*
D03*
X6476D02*
D03*
Y2640D02*
D03*
X5639D02*
D03*
Y3046D02*
D03*
X4802D02*
D03*
Y2640D02*
D03*
X3965D02*
D03*
Y3046D02*
D03*
X3128D02*
D03*
Y2640D02*
D03*
X2291D02*
D03*
Y3046D02*
D03*
D17*
X250Y250D02*
D03*
X2700Y1300D02*
D03*
Y2850D02*
D03*
X250Y3500D02*
D03*
X8500Y250D02*
D03*
X6050Y1300D02*
D03*
Y2850D02*
D03*
X8500Y3500D02*
D03*
D18*
X617Y3470D02*
D03*
X1454D02*
D03*
X2291D02*
D03*
X3128D02*
D03*
X3965D02*
D03*
X4802D02*
D03*
X5639D02*
D03*
X6476D02*
D03*
X7313D02*
D03*
X8150D02*
D03*
D19*
X617Y3370D02*
D03*
X1454D02*
D03*
X2291D02*
D03*
X3128D02*
D03*
X3965D02*
D03*
X4802D02*
D03*
X5639D02*
D03*
X6476D02*
D03*
X7313D02*
D03*
X8150D02*
D03*
D20*
X870Y3410D02*
D03*
X1170D02*
D03*
X870Y3330D02*
D03*
X1170D02*
D03*
X1720Y3360D02*
D03*
X2020D02*
D03*
X2560D02*
D03*
X2860D02*
D03*
X3380D02*
D03*
X3680D02*
D03*
X4240D02*
D03*
X4540D02*
D03*
X5080D02*
D03*
X5380D02*
D03*
X5920D02*
D03*
X6220D02*
D03*
X6740D02*
D03*
X7040D02*
D03*
X7600D02*
D03*
X7900D02*
D03*
X5180Y646D02*
D03*
Y454D02*
D03*
X6120Y690D02*
D03*
Y390D02*
D03*
X1620Y750D02*
D03*
Y450D02*
D03*
X1720Y750D02*
D03*
Y450D02*
D03*
X1820Y750D02*
D03*
Y450D02*
D03*
X1920Y750D02*
D03*
Y450D02*
D03*
X2020Y750D02*
D03*
Y450D02*
D03*
X2120Y750D02*
D03*
Y450D02*
D03*
X2220Y750D02*
D03*
Y450D02*
D03*
X2320Y750D02*
D03*
Y450D02*
D03*
X1520D02*
D03*
Y750D02*
D03*
X1420Y450D02*
D03*
Y750D02*
D03*
X1320Y450D02*
D03*
Y750D02*
D03*
X1220Y450D02*
D03*
Y750D02*
D03*
X1120Y450D02*
D03*
Y750D02*
D03*
X1020Y450D02*
D03*
Y750D02*
D03*
X920Y450D02*
D03*
Y750D02*
D03*
X820Y450D02*
D03*
Y750D02*
D03*
D21*
X4840Y650D02*
D03*
Y450D02*
D03*
X6360Y640D02*
D03*
X3560Y2750D02*
D03*
X1080Y1280D02*
D03*
X3620Y1020D02*
D03*
D22*
X5037Y650D02*
D03*
Y450D02*
D03*
X6360Y443D02*
D03*
X3363Y2750D02*
D03*
X1080Y1083D02*
D03*
X3423Y1020D02*
D03*
D23*
X6940Y900D02*
D03*
D24*
X6840D02*
D03*
D25*
X2670Y240D02*
D03*
D26*
X2770D02*
D03*
X2870D02*
D03*
X2970D02*
D03*
X3070D02*
D03*
X3170D02*
D03*
X3270D02*
D03*
X3370D02*
D03*
X3470D02*
D03*
X3570D02*
D03*
X3670D02*
D03*
X3770D02*
D03*
X3870D02*
D03*
X3970D02*
D03*
X4070D02*
D03*
X4170D02*
D03*
X4270D02*
D03*
X4370D02*
D03*
X4470D02*
D03*
X4570D02*
D03*
X2670Y840D02*
D03*
X2770D02*
D03*
X2870D02*
D03*
X2970D02*
D03*
X3070D02*
D03*
X3170D02*
D03*
X3270D02*
D03*
X3370D02*
D03*
X3470D02*
D03*
X3570D02*
D03*
X3670D02*
D03*
X3770D02*
D03*
X3870D02*
D03*
X3970D02*
D03*
X4070D02*
D03*
X4170D02*
D03*
X4270D02*
D03*
X4370D02*
D03*
X4470D02*
D03*
X4570D02*
D03*
D27*
X7366Y527D02*
D03*
X7366Y605D02*
D03*
X7268D02*
D03*
Y527D02*
D03*
D28*
X7554Y420D02*
D03*
X7080D02*
D03*
D29*
X1377Y1170D02*
D03*
X3430Y2694D02*
D03*
X3658Y2195D02*
D03*
X3580Y2854D02*
D03*
X3688Y2528D02*
D03*
X2187Y2430D02*
D03*
X1535Y1545D02*
D03*
X1777Y1612D02*
D03*
X3536Y2440D02*
D03*
X3500Y2115D02*
D03*
X3330Y2599D02*
D03*
X1690Y1292D02*
D03*
X3413Y2414D02*
D03*
X3697Y2800D02*
D03*
X3370Y2545D02*
D03*
X3456Y2220D02*
D03*
X1410Y1298D02*
D03*
X1630Y1375D02*
D03*
X1317Y1395D02*
D03*
M02*
