<?xml version="1.0" encoding="UTF-8" standalone="no"?>
<!DOCTYPE svg PUBLIC "-//W3C//DTD SVG 20010904//EN"
"http://www.w3.org/TR/2001/REC-SVG-20010904/DTD/svg10.dtd">
<svg
   xmlns="http://www.w3.org/2000/svg"
   xmlns:sodipodi="http://sodipodi.sourceforge.net/DTD/sodipodi-0.dtd"
   xmlns:xlink="http://www.w3.org/1999/xlink"
   width="7in"
   height="9in">

  <rect width="1in" height="1in" x="0in" y="0in"/>
  <rect width="1in" height="1in" x="2in" y="0in"/>
  <rect width="1in" height="1in" x="4in" y="0in"/>
  <rect width="1in" height="1in" x="6in" y="0in"/>
  <rect width="1in" height="1in" x="1in" y="1in"/>
  <rect width="1in" height="1in" x="3in" y="1in"/>
  <rect width="1in" height="1in" x="5in" y="1in"/>


  <rect width="1in" height="1in" x="0in" y="2in"/>
  <rect width="1in" height="1in" x="2in" y="2in"/>
  <rect width="1in" height="1in" x="4in" y="2in"/>
  <rect width="1in" height="1in" x="6in" y="2in"/>
  <rect width="1in" height="1in" x="1in" y="3in"/>
  <rect width="1in" height="1in" x="3in" y="3in"/>
  <rect width="1in" height="1in" x="5in" y="3in"/>


  <rect width="1in" height="1in" x="0in" y="4in"/>
  <rect width="1in" height="1in" x="2in" y="4in"/>
  <rect width="1in" height="1in" x="4in" y="4in"/>
  <rect width="1in" height="1in" x="6in" y="4in"/>
  <rect width="1in" height="1in" x="1in" y="5in"/>
  <rect width="1in" height="1in" x="3in" y="5in"/>
  <rect width="1in" height="1in" x="5in" y="5in"/>


  <rect width="1in" height="1in" x="0in" y="6in"/>
  <rect width="1in" height="1in" x="2in" y="6in"/>
  <rect width="1in" height="1in" x="4in" y="6in"/>
  <rect width="1in" height="1in" x="6in" y="6in"/>
  <rect width="1in" height="1in" x="1in" y="7in"/>
  <rect width="1in" height="1in" x="3in" y="7in"/>
  <rect width="1in" height="1in" x="5in" y="7in"/>


  <rect width="1in" height="1in" x="0in" y="8in"/>
  <rect width="1in" height="1in" x="2in" y="8in"/>
  <rect width="1in" height="1in" x="4in" y="8in"/>
  <rect width="1in" height="1in" x="6in" y="8in"/>
</svg>
