%FSLAX23Y23*%
%MOIN*%
G70*
G01*
G75*
G04 Layer_Physical_Order=2*
%ADD10C,0.010*%
%ADD11C,0.020*%
%ADD12C,0.275*%
%ADD13C,0.055*%
%ADD14O,0.500X0.400*%
%ADD15C,0.063*%
%ADD16R,0.053X0.053*%
%ADD17C,0.053*%
%ADD18C,0.059*%
%ADD19R,0.059X0.059*%
%ADD20R,0.059X0.059*%
%ADD21C,0.059*%
%ADD22R,0.070X0.070*%
%ADD23C,0.070*%
%ADD24R,0.047X0.047*%
%ADD25C,0.047*%
%ADD26C,0.180*%
%ADD27C,0.065*%
%ADD28C,0.025*%
D10*
X4460Y140D02*
Y687D01*
X4170Y1000D02*
X4367Y803D01*
X4360Y140D02*
Y710D01*
X4070Y1000D02*
X4360Y710D01*
X4260Y140D02*
Y710D01*
X3970Y1000D02*
X4260Y710D01*
X4160Y140D02*
Y710D01*
X3870Y1000D02*
X4160Y710D01*
X4060Y140D02*
Y710D01*
X3770Y1000D02*
X4060Y710D01*
X3960Y140D02*
X4020Y80D01*
X3670Y1000D02*
X3715Y1045D01*
X4100Y805D02*
X4123D01*
X3570Y1000D02*
X3698Y1128D01*
X3760Y140D02*
Y929D01*
X3470Y1000D02*
X3521Y949D01*
X3170Y430D02*
Y1000D01*
Y430D02*
X3460Y140D01*
X3070Y430D02*
X3360Y140D01*
X3070Y430D02*
Y1000D01*
X2970Y430D02*
X3260Y140D01*
X2970Y430D02*
Y1000D01*
X2870Y430D02*
Y1000D01*
Y430D02*
X3160Y140D01*
X2770Y240D02*
Y1000D01*
X2990Y210D02*
X3060Y140D01*
X1160Y1370D02*
X1246Y1284D01*
X2670Y270D02*
Y1000D01*
X2910Y190D02*
X2960Y140D01*
X2493Y307D02*
X2660Y140D01*
X2370Y1000D02*
X2493Y877D01*
X2270Y238D02*
Y1000D01*
Y238D02*
X2310Y198D01*
X2410Y90D02*
X2460Y140D01*
X2110Y1440D02*
X2270Y1600D01*
X2370Y1326D02*
Y1600D01*
X2360Y140D02*
Y548D01*
X2514Y1656D02*
X2570Y1600D01*
X2160Y140D02*
Y1251D01*
X2592Y1678D02*
X2670Y1600D01*
X1960Y221D02*
X2060D01*
Y1477D01*
Y140D02*
Y221D01*
X1440Y572D02*
Y1270D01*
X2625Y1455D02*
X2770Y1600D01*
X1960Y140D02*
X2030Y70D01*
X1370Y230D02*
X1460Y140D01*
X1370Y230D02*
Y1370D01*
X3370Y1600D02*
X3415Y1555D01*
X3294Y701D02*
X3415Y822D01*
X1318Y198D02*
Y1179D01*
X1260Y140D02*
X1318Y198D01*
X1640Y215D02*
X1682D01*
X960Y140D02*
X1010Y90D01*
X3870Y1600D02*
X3907D01*
X2009Y1095D02*
Y1465D01*
X3577Y1858D02*
X3815Y1620D01*
X3923Y1553D02*
X3970Y1600D01*
X4041Y1629D02*
X4070Y1600D01*
X1920Y1805D02*
X1945Y1780D01*
X3395Y2115D02*
X3810Y1700D01*
X1720Y1890D02*
Y2090D01*
Y1890D02*
X1740Y1870D01*
X1883Y1727D01*
X1860Y140D02*
Y1527D01*
X380Y1125D02*
Y1440D01*
X1900Y2370D02*
X1950D01*
X1620Y2090D02*
X1900Y2370D01*
X1010Y1480D02*
X1620Y2090D01*
X960Y1270D02*
X1010Y1320D01*
X1817Y2137D02*
X2050Y2370D01*
X1840Y1570D02*
Y1701D01*
X2935Y2415D02*
X2980Y2370D01*
X2250D02*
X2295Y2415D01*
X2205D02*
X2250Y2370D01*
X1078Y1188D02*
X1160Y1270D01*
X2597Y857D02*
Y973D01*
X2570Y1000D02*
X2597Y973D01*
X4290Y932D02*
Y1750D01*
Y932D02*
X4415Y808D01*
X2470Y933D02*
Y1000D01*
Y933D02*
X2599Y804D01*
X3900Y1651D02*
Y2310D01*
X4073Y2357D02*
X4120Y2310D01*
X2690Y1225D02*
X3025Y1560D01*
X2050Y1900D02*
Y2070D01*
Y1900D02*
X2110Y1840D01*
X1760Y140D02*
Y423D01*
X1600Y1860D02*
X1697Y1763D01*
X380Y1540D02*
Y1875D01*
X2644Y1740D02*
X2730D01*
X2870Y1600D01*
X2970Y1647D02*
X3043Y1720D01*
X2970Y1600D02*
Y1647D01*
X4367Y780D02*
X4460Y687D01*
X4367Y780D02*
Y803D01*
X3925Y980D02*
X4100Y805D01*
X3925Y980D02*
Y1083D01*
X3880Y1128D02*
X3925Y1083D01*
X3698Y1128D02*
X3880D01*
X2670Y270D02*
X2750Y190D01*
X2910D01*
X2493Y307D02*
Y877D01*
X2120Y90D02*
X2410D01*
X2110Y100D02*
X2120Y90D01*
X2110Y100D02*
Y1440D01*
X1440Y572D02*
X1710Y302D01*
Y100D02*
Y302D01*
Y100D02*
X1720Y90D01*
X1900D01*
X1910Y100D01*
Y171D01*
X1960Y221D01*
X2261Y1678D02*
X2592D01*
X2060Y1477D02*
X2261Y1678D01*
X3415Y822D02*
Y1555D01*
X1610Y185D02*
X1640Y215D01*
X1610Y100D02*
Y185D01*
X1600Y90D02*
X1610Y100D01*
X1010Y90D02*
X1600D01*
X2009Y1465D02*
X2222Y1678D01*
Y1749D01*
X2498Y2025D01*
X2700D01*
X2725Y2050D01*
Y2080D01*
X2765Y2120D01*
X3020D01*
X3302Y2402D01*
X4125D01*
X4167Y2360D01*
Y2198D02*
Y2360D01*
X3985Y2016D02*
X4167Y2198D01*
X3985Y1678D02*
Y2016D01*
X3907Y1600D02*
X3985Y1678D01*
X3840Y1553D02*
X3923D01*
X3815Y1578D02*
X3840Y1553D01*
X3815Y1578D02*
Y1620D01*
X4041Y1629D02*
Y1879D01*
X4267Y2105D01*
Y2356D01*
X4201Y2422D02*
X4267Y2356D01*
X3032Y2422D02*
X4201D01*
X3025Y2415D02*
X3032Y2422D01*
X3025Y2350D02*
Y2415D01*
X3000Y2325D02*
X3025Y2350D01*
X2698Y2325D02*
X3000D01*
X2153Y1780D02*
X2698Y2325D01*
X1945Y1780D02*
X2153D01*
X3303Y2357D02*
X4073D01*
X3035Y2089D02*
X3303Y2357D01*
X3035Y1790D02*
Y2089D01*
Y1790D02*
X3085Y1740D01*
Y1690D02*
Y1740D01*
X3025Y1630D02*
X3085Y1690D01*
X3025Y1560D02*
Y1630D01*
X4020Y80D02*
X4090D01*
X4110Y100D01*
Y695D01*
X3825Y980D02*
X4110Y695D01*
X3825Y980D02*
Y1020D01*
X3800Y1045D02*
X3825Y1020D01*
X3715Y1045D02*
X3800D01*
X2030Y70D02*
X2680D01*
X2710Y100D01*
Y180D01*
X2627Y263D02*
X2710Y180D01*
X2627Y263D02*
Y837D01*
X2625Y839D02*
X2627Y837D01*
X2625Y839D02*
Y1455D01*
X960Y1188D02*
X1078D01*
X915Y1233D02*
X960Y1188D01*
X915Y1233D02*
Y1645D01*
X1590Y2320D01*
X1791D01*
X1886Y2415D01*
X2205D01*
X1010Y1320D02*
Y1480D01*
X1676Y1865D02*
X1840Y1701D01*
X1676Y1865D02*
Y2113D01*
X1700Y2137D01*
X1817D01*
X2360Y1656D02*
X2514D01*
X2325Y1621D02*
X2360Y1656D01*
X2325Y1416D02*
Y1621D01*
X2160Y1251D02*
X2325Y1416D01*
X2295Y2415D02*
X2935D01*
X2770Y240D02*
X2800Y210D01*
X2990D01*
X3521Y949D02*
X3740D01*
X3760Y929D01*
X1697Y486D02*
X1760Y423D01*
X1697Y486D02*
Y1763D01*
X1860Y1527D02*
X1883Y1550D01*
Y1727D01*
X2317Y591D02*
X2360Y548D01*
X2317Y591D02*
Y1273D01*
X2370Y1326D01*
X0Y2500D02*
X5000D01*
Y0D02*
Y2500D01*
X0Y0D02*
X5000D01*
X0D02*
Y2500D01*
D11*
X4795Y1801D02*
Y2295D01*
X4744Y1750D02*
X4795Y1801D01*
X3280Y1760D02*
Y1900D01*
X3240Y1720D02*
X3280Y1760D01*
X4493Y906D02*
X4600Y800D01*
Y620D02*
Y800D01*
Y620D02*
X4795Y425D01*
Y205D02*
Y425D01*
X3520Y180D02*
X3560Y140D01*
X3070Y1200D02*
Y1600D01*
Y1200D02*
X3270Y1000D01*
X3520Y180D02*
Y900D01*
X2150Y2270D02*
Y2370D01*
X2847Y2070D02*
X2880D01*
X2847Y2047D02*
Y2070D01*
X1950D02*
X2150Y2270D01*
X1950Y2010D02*
X2000Y1960D01*
X1950Y2010D02*
Y2070D01*
X2740Y1940D02*
X2847Y2047D01*
X1840Y1820D02*
Y1870D01*
Y1820D02*
X1960Y1700D01*
X4346Y2266D02*
X4390Y2310D01*
X4302Y1811D02*
X4346Y1855D01*
X4273Y1840D02*
X4302Y1811D01*
X4353Y1760D01*
X4080Y1840D02*
X4273D01*
X4353Y968D02*
X4415Y906D01*
X3717Y197D02*
Y900D01*
X3660Y140D02*
X3717Y197D01*
X3180Y1997D02*
Y2070D01*
X3083Y1900D02*
X3180Y1997D01*
X2250Y2013D02*
Y2070D01*
X2197Y1960D02*
X2250Y2013D01*
X3083Y1900D02*
X3170Y1813D01*
Y1200D02*
X3370Y1000D01*
X3170Y1600D02*
Y1813D01*
Y1200D02*
Y1600D01*
X4346Y1855D02*
Y2266D01*
X4353Y968D02*
Y1760D01*
D12*
X205Y205D02*
D03*
Y2295D02*
D03*
X4795Y205D02*
D03*
Y2295D02*
D03*
D13*
X3510Y1700D02*
D03*
X3810D02*
D03*
X1720Y2090D02*
D03*
X2110Y1840D02*
D03*
X2410D02*
D03*
X1620Y2390D02*
D03*
Y2090D02*
D03*
X1720Y2390D02*
D03*
X2836Y1740D02*
D03*
X2644D02*
D03*
X4290Y2050D02*
D03*
X4744D02*
D03*
X4630D02*
D03*
X4857D02*
D03*
X4403D02*
D03*
X4517D02*
D03*
X4290Y1750D02*
D03*
X1840Y1570D02*
D03*
X1740Y1870D02*
D03*
Y1570D02*
D03*
X4744Y1750D02*
D03*
X4630D02*
D03*
X1840Y1870D02*
D03*
X4857Y1750D02*
D03*
X4403D02*
D03*
X4517D02*
D03*
D14*
X380Y1875D02*
D03*
Y1125D02*
D03*
D15*
X3640Y2310D02*
D03*
X3740D02*
D03*
X3520D02*
D03*
X3420D02*
D03*
X4390D02*
D03*
X4490D02*
D03*
X4000D02*
D03*
X3900D02*
D03*
X4120D02*
D03*
X4220D02*
D03*
D16*
X3280Y1900D02*
D03*
X3520Y900D02*
D03*
X1600Y1860D02*
D03*
X3240Y1720D02*
D03*
X2180D02*
D03*
X1960Y1700D02*
D03*
X2740Y1940D02*
D03*
X2000Y1960D02*
D03*
D17*
X3083Y1900D02*
D03*
X3717Y900D02*
D03*
X3043Y1720D02*
D03*
X2377D02*
D03*
X1960Y1503D02*
D03*
X1600Y1663D02*
D03*
X2937Y1940D02*
D03*
X2197Y1960D02*
D03*
D18*
X2980Y2070D02*
D03*
X2880D02*
D03*
X2580Y2370D02*
D03*
X3180Y2070D02*
D03*
X2580D02*
D03*
X2880Y2370D02*
D03*
X2680Y2070D02*
D03*
Y2370D02*
D03*
X2780D02*
D03*
X3080D02*
D03*
X2980D02*
D03*
X2780Y2070D02*
D03*
X3080D02*
D03*
X2970Y1600D02*
D03*
X2870D02*
D03*
X2470D02*
D03*
Y1000D02*
D03*
X2570D02*
D03*
X4070Y1600D02*
D03*
X3970D02*
D03*
X3870D02*
D03*
X3770D02*
D03*
X3670D02*
D03*
X3570D02*
D03*
X3470D02*
D03*
X3370D02*
D03*
X3270D02*
D03*
X3170D02*
D03*
X3370Y1000D02*
D03*
X3070Y1600D02*
D03*
X3270Y1000D02*
D03*
X2770Y1600D02*
D03*
X2670D02*
D03*
X2570D02*
D03*
X2370D02*
D03*
X2270D02*
D03*
Y1000D02*
D03*
X2370D02*
D03*
X2670D02*
D03*
X2770D02*
D03*
X2870D02*
D03*
X2970D02*
D03*
X3070D02*
D03*
X3170D02*
D03*
X3470D02*
D03*
X3570D02*
D03*
X3670D02*
D03*
X3770D02*
D03*
X3870D02*
D03*
X3970D02*
D03*
X4070D02*
D03*
X4170D02*
D03*
X2150Y2370D02*
D03*
X2050D02*
D03*
X1950D02*
D03*
X2250Y2070D02*
D03*
X2150D02*
D03*
X2050D02*
D03*
X1950D02*
D03*
D19*
X3180Y2370D02*
D03*
X4170Y1600D02*
D03*
X2250Y2370D02*
D03*
D20*
X820Y1270D02*
D03*
X1300Y1370D02*
D03*
X1440Y1270D02*
D03*
X380Y1440D02*
D03*
X1160Y1370D02*
D03*
D21*
X820D02*
D03*
X1300Y1270D02*
D03*
X1440Y1370D02*
D03*
X380Y1540D02*
D03*
X1160Y1270D02*
D03*
X1060Y1370D02*
D03*
Y1270D02*
D03*
X960Y1370D02*
D03*
Y1270D02*
D03*
D22*
X560Y140D02*
D03*
D23*
X660D02*
D03*
X760D02*
D03*
X860D02*
D03*
X960D02*
D03*
X1060D02*
D03*
X1160D02*
D03*
X1260D02*
D03*
X1360D02*
D03*
X1460D02*
D03*
X1560D02*
D03*
X1660D02*
D03*
X1760D02*
D03*
X1860D02*
D03*
X1960D02*
D03*
X2060D02*
D03*
X2160D02*
D03*
X2260D02*
D03*
X2360D02*
D03*
X2460D02*
D03*
X2560D02*
D03*
X2660D02*
D03*
X2760D02*
D03*
X2860D02*
D03*
X2960D02*
D03*
X3060D02*
D03*
X3160D02*
D03*
X3260D02*
D03*
X3360D02*
D03*
X3460D02*
D03*
X3560D02*
D03*
X3660D02*
D03*
X3760D02*
D03*
X3860D02*
D03*
X3960D02*
D03*
X4060D02*
D03*
X4160D02*
D03*
X4260D02*
D03*
X4360D02*
D03*
X4460D02*
D03*
D24*
X4080Y1840D02*
D03*
D25*
Y1740D02*
D03*
D26*
X4600Y620D02*
D03*
Y1094D02*
D03*
D27*
X4493Y808D02*
D03*
X4415D02*
D03*
Y906D02*
D03*
X4493Y906D02*
D03*
D28*
X4123Y805D02*
D03*
X1370Y1370D02*
D03*
X3294Y701D02*
D03*
X1682Y215D02*
D03*
X2009Y1095D02*
D03*
X3577Y1858D02*
D03*
X1920Y1805D02*
D03*
X3395Y2115D02*
D03*
X2690Y1225D02*
D03*
X2599Y804D02*
D03*
X2597Y857D02*
D03*
X3900Y1651D02*
D03*
X1318Y1179D02*
D03*
X1246Y1284D02*
D03*
X2310Y198D02*
D03*
M02*
