%FSLAX23Y23*%
%MOIN*%
G70*
G01*
G75*
G04 Layer_Physical_Order=1*
%ADD10R,0.134X0.071*%
%ADD11C,0.008*%
%ADD12C,0.012*%
%ADD13C,0.010*%
%ADD14C,0.063*%
%ADD15C,0.055*%
%ADD16P,0.055X8X0*%
%ADD17C,0.180*%
%ADD18C,0.065*%
%ADD19R,0.055X0.055*%
%ADD20C,0.217*%
%ADD21R,0.059X0.059*%
%ADD22C,0.059*%
%ADD23C,0.025*%
D10*
X1920Y1082D02*
D03*
Y918D02*
D03*
D11*
X1541Y1678D02*
X1895Y2032D01*
X455Y1678D02*
X1541D01*
X427Y1650D02*
X455Y1678D01*
X465Y1653D02*
X1578D01*
X340Y1552D02*
X465D01*
X533Y1620D01*
X1679D01*
X2095Y2036D01*
X547Y1400D02*
X768Y1179D01*
X1056D01*
X1117Y1240D01*
X317Y1755D02*
X1495D01*
X1695Y1955D01*
X518Y1342D02*
X737Y1123D01*
X387Y1342D02*
X518D01*
X357Y1312D02*
X387Y1342D01*
X312Y1312D02*
X357D01*
X262Y1362D02*
X312Y1312D01*
X225Y1362D02*
X262D01*
X224Y1363D02*
X225Y1362D01*
X224Y1363D02*
Y1411D01*
X226Y1413D01*
Y1475D01*
X213Y1488D02*
X226Y1475D01*
X134Y1488D02*
X213D01*
X121Y1475D02*
X134Y1488D01*
X121Y613D02*
Y1475D01*
Y613D02*
X133Y600D01*
X1045Y917D02*
X1137Y1009D01*
Y1138D01*
X1112Y1162D02*
X1137Y1138D01*
X736Y1162D02*
X1112D01*
X536Y1362D02*
X736Y1162D01*
X387Y1362D02*
X536D01*
X361Y1388D02*
X387Y1362D01*
X284Y1388D02*
X361D01*
X284D02*
Y1400D01*
X2331Y1058D02*
X2495Y1222D01*
X2331Y1012D02*
Y1058D01*
X2299Y979D02*
X2331Y1012D01*
X2111Y979D02*
X2299D01*
X2099Y967D02*
X2111Y979D01*
X1843Y967D02*
X2099D01*
X1790Y914D02*
X1843Y967D01*
X1790Y820D02*
Y914D01*
X1599Y629D02*
X1790Y820D01*
X1507Y1700D02*
X1795Y1988D01*
X112Y427D02*
X190D01*
X89Y450D02*
X112Y427D01*
X89Y450D02*
Y1812D01*
X105Y1829D01*
X1464D01*
X1481Y1812D01*
Y1778D02*
Y1812D01*
X1473Y1770D02*
X1481Y1778D01*
X231Y1770D02*
X1473D01*
X149Y1688D02*
X231Y1770D01*
X149Y1525D02*
Y1688D01*
Y1525D02*
X162Y1511D01*
X211D01*
X237Y1538D01*
X288D01*
X301Y1525D01*
Y1481D02*
Y1525D01*
X299Y1479D02*
X301Y1481D01*
X299Y1425D02*
Y1479D01*
Y1425D02*
X312Y1412D01*
X361D01*
X387Y1438D01*
X535D01*
X730Y1243D01*
X107Y1771D02*
X129Y1793D01*
X107Y587D02*
Y1771D01*
Y587D02*
X144Y550D01*
X275Y688D02*
X365D01*
X399Y654D01*
X465D01*
X511Y608D01*
X628D01*
X679Y557D01*
X1013D01*
X1031Y539D01*
Y456D02*
Y539D01*
X1023Y448D02*
X1031Y456D01*
X1023Y408D02*
Y448D01*
Y408D02*
X1024Y407D01*
X1064D01*
X1070Y413D01*
Y530D01*
X1087Y547D01*
X1764D01*
X1849Y632D01*
X191Y753D02*
X278D01*
X312Y788D01*
X361D01*
X387Y762D01*
X485D01*
X510Y787D01*
X543D01*
X544Y786D01*
Y765D02*
Y786D01*
Y765D02*
X689Y619D01*
X1060D01*
X1081Y598D01*
X262Y840D02*
X314Y891D01*
X340D01*
X387Y938D01*
X516D01*
X569Y885D01*
Y814D02*
Y885D01*
Y814D02*
X680Y703D01*
X950D01*
X972Y681D01*
X1033D01*
X1085Y629D01*
X1238D01*
X1442Y833D01*
X1727D01*
X1744Y850D01*
X188Y890D02*
X237Y940D01*
X264D01*
X312Y988D01*
X361D01*
X387Y962D01*
X457D01*
X463Y968D01*
X580D01*
X815Y733D01*
X967D01*
X991Y709D01*
X1025D01*
X1464Y1148D01*
X2629Y463D02*
Y937D01*
X1832Y1038D02*
X1879Y991D01*
X1734Y1038D02*
X1832D01*
X1721Y1025D02*
X1734Y1038D01*
X1721Y961D02*
Y1025D01*
X1607Y847D02*
X1721Y961D01*
X1401Y847D02*
X1607D01*
X1249Y695D02*
X1401Y847D01*
X980Y695D02*
X1249D01*
X956Y719D02*
X980Y695D01*
X795Y719D02*
X956D01*
X604Y272D02*
X1807D01*
X554Y322D02*
X604Y272D01*
X516Y247D02*
X1833D01*
X501Y262D02*
X516Y247D01*
X501Y262D02*
Y454D01*
X517Y470D01*
X1666Y1541D02*
X2219D01*
X2235Y1525D01*
Y1430D02*
Y1525D01*
X2151Y1346D02*
X2235Y1430D01*
X1169Y1346D02*
X2151D01*
X1025Y1202D02*
X1169Y1346D01*
X692Y1365D02*
X2090D01*
X601Y1456D02*
X692Y1365D01*
X1483Y1878D02*
X1635Y2030D01*
Y2079D01*
X1667Y2111D01*
X2154D01*
X385Y1538D02*
X1485D01*
X1535Y1487D01*
Y1425D02*
Y1487D01*
Y1425D02*
X1548Y1412D01*
X1653D01*
X1671Y1430D01*
X75Y1844D02*
X87Y1856D01*
X75Y375D02*
Y1844D01*
Y375D02*
X87Y362D01*
X300D01*
X313Y349D01*
X448Y1889D02*
X513Y1954D01*
X675D01*
X688Y1941D01*
X433Y1138D02*
X813Y758D01*
X387Y1138D02*
X433D01*
X361Y1112D02*
X387Y1138D01*
X313Y1112D02*
X361D01*
X263Y1162D02*
X313Y1112D01*
X239Y1162D02*
X263D01*
X197Y1204D02*
X239Y1162D01*
X162Y1204D02*
X197D01*
X149Y1217D02*
X162Y1204D01*
X149Y1217D02*
Y1440D01*
X159Y1450D01*
X886Y1379D02*
X2084D01*
X2151Y1446D01*
Y1500D01*
X2164Y1513D01*
X579Y1162D02*
X916Y825D01*
X387Y1162D02*
X579D01*
X338Y1212D02*
X387Y1162D01*
X312Y1212D02*
X338D01*
X262Y1262D02*
X312Y1212D01*
X226Y1262D02*
X262D01*
X225Y1263D02*
X226Y1262D01*
X225Y1263D02*
Y1295D01*
X211Y1309D02*
X225Y1295D01*
X211Y1309D02*
Y1350D01*
X271Y1292D02*
X357D01*
X387Y1262D01*
X511D01*
X940Y833D01*
Y787D02*
Y833D01*
X925Y772D02*
X940Y787D01*
X910Y772D02*
X925D01*
X894Y788D02*
X910Y772D01*
X894Y788D02*
Y797D01*
X1110Y388D02*
Y452D01*
X1100Y378D02*
X1110Y388D01*
X654Y378D02*
X1100D01*
X576Y456D02*
X654Y378D01*
X527Y456D02*
X576D01*
X515Y444D02*
X527Y456D01*
X515Y287D02*
Y444D01*
Y287D02*
X529Y274D01*
X1086Y394D02*
Y465D01*
X1085Y393D02*
X1086Y394D01*
X889Y393D02*
X1085D01*
X816Y466D02*
X889Y393D01*
X679Y466D02*
X816D01*
X583Y562D02*
X679Y466D01*
X387Y562D02*
X583D01*
X361Y588D02*
X387Y562D01*
X312Y588D02*
X361D01*
X287Y562D02*
X312Y588D01*
X255Y562D02*
X287D01*
X142Y450D02*
X255Y562D01*
X125Y450D02*
X142D01*
X113Y463D02*
X125Y450D01*
X135Y714D02*
Y1097D01*
Y714D02*
X157Y692D01*
X220D01*
X226Y686D01*
Y663D02*
Y686D01*
Y663D02*
X247Y642D01*
X287D01*
X317Y612D01*
X361D01*
X387Y638D01*
X455D01*
X503Y590D01*
X603D01*
X713Y480D01*
X1017Y593D02*
X1046Y564D01*
X672Y593D02*
X1017D01*
X610Y655D02*
X672Y593D01*
X500Y655D02*
X610D01*
X497Y658D02*
X500Y655D01*
X497Y658D02*
Y725D01*
X484Y738D02*
X497Y725D01*
X387Y738D02*
X484D01*
X361Y712D02*
X387Y738D01*
X312Y712D02*
X361D01*
X287Y738D02*
X312Y712D01*
X237Y738D02*
X287D01*
X212Y712D02*
X237Y738D01*
X162Y712D02*
X212D01*
X149Y725D02*
X162Y712D01*
X149Y725D02*
Y985D01*
X163Y999D01*
X206D01*
X294Y1087D02*
Y1099D01*
X293Y1100D02*
X294Y1099D01*
X1806Y407D02*
X2439Y1040D01*
Y1132D01*
X2535Y1228D01*
Y1510D01*
X2448Y1597D02*
X2535Y1510D01*
X262Y1700D02*
X317Y1755D01*
X1695Y1955D02*
Y2070D01*
X412Y1700D02*
X1507D01*
X1795Y1988D02*
Y2070D01*
X190Y427D02*
X262Y500D01*
X730Y1243D02*
X1008D01*
X144Y550D02*
X188D01*
X129Y1793D02*
X1421D01*
X133Y600D02*
X262D01*
X737Y1123D02*
X1114D01*
X262Y700D02*
X275Y688D01*
X1849Y632D02*
Y853D01*
X188Y750D02*
X191Y753D01*
X1081Y598D02*
X1448D01*
X262Y800D02*
Y840D01*
X1744Y850D02*
Y1006D01*
X188Y850D02*
Y890D01*
X1464Y1148D02*
X1799D01*
X2587Y421D02*
X2629Y463D01*
X2472Y1094D02*
X2629Y937D01*
X727Y787D02*
X795Y719D01*
X1879Y991D02*
X2021D01*
X554Y322D02*
Y423D01*
X1807Y272D02*
X1948Y413D01*
X517Y470D02*
X617D01*
X1833Y247D02*
X2098Y512D01*
X2325Y1791D02*
X2356Y1822D01*
X2395Y1861D01*
X2356Y1822D02*
X2395Y1783D01*
Y1861D02*
Y2070D01*
X520Y678D02*
Y764D01*
X592Y836D02*
Y916D01*
X563Y945D02*
X592Y916D01*
X539Y850D02*
X544Y845D01*
X338Y850D02*
X539D01*
X794Y1202D02*
X1025D01*
X1595Y1470D02*
X1666Y1541D01*
X412Y1400D02*
X547D01*
X1117Y1240D02*
X2057D01*
X337Y1450D02*
Y1456D01*
Y1450D02*
X338D01*
X337Y1456D02*
X338D01*
X601D01*
X2090Y1365D02*
X2195Y1470D01*
X535Y1878D02*
X1483D01*
X2154Y2111D02*
X2195Y2070D01*
X338Y1550D02*
X340Y1552D01*
X2095Y2036D02*
Y2070D01*
X412Y1600D02*
X465Y1653D01*
X1578D02*
X1995Y2070D01*
X338Y1650D02*
X427D01*
X1895Y2032D02*
Y2070D01*
X351Y1504D02*
X385Y1538D01*
X1275Y621D02*
X1333D01*
X1507D01*
X1671Y1430D02*
X1726D01*
X313Y326D02*
Y349D01*
X362Y326D02*
Y363D01*
X451Y452D01*
X87Y1856D02*
X224D01*
X617Y502D02*
X676Y443D01*
X513Y502D02*
X617D01*
X893Y679D02*
X906Y666D01*
X676Y679D02*
X893D01*
X1089Y662D02*
X1177D01*
X529Y1299D02*
X1005Y823D01*
X135Y1889D02*
X448D01*
X688Y1917D02*
Y1941D01*
X1005Y732D02*
Y823D01*
X159Y1450D02*
X188D01*
X813Y758D02*
X963D01*
X795Y1470D02*
X886Y1379D01*
X2164Y1513D02*
Y1517D01*
X1599Y582D02*
Y629D01*
X2495Y1222D02*
Y1470D01*
X262Y1400D02*
X284D01*
X1045Y803D02*
Y917D01*
X188Y1350D02*
X211D01*
X916Y805D02*
Y825D01*
X881Y810D02*
X894Y797D01*
X262Y1300D02*
X271Y1292D01*
X529Y274D02*
X533D01*
X1110Y452D02*
X1149Y491D01*
X113Y463D02*
Y474D01*
X1086Y465D02*
X1100Y479D01*
X135Y1097D02*
X188Y1150D01*
X713Y480D02*
X1008D01*
X206Y999D02*
X285Y1078D01*
X294Y1087D01*
X262Y1100D02*
X293D01*
X1046Y430D02*
Y564D01*
X556Y1597D02*
X2448D01*
X1163Y407D02*
X1806D01*
X1168Y348D02*
Y374D01*
Y348D02*
X1203Y313D01*
X603Y355D02*
X898D01*
D12*
X1301Y876D02*
X1482D01*
X434Y2112D02*
X1553D01*
X1455Y1396D02*
X1729D01*
X1751Y1418D01*
Y1426D01*
X481Y237D02*
X539Y179D01*
X481Y237D02*
Y527D01*
X463Y546D02*
X481Y527D01*
X1468Y2008D02*
X1495Y2035D01*
X2253Y1178D02*
Y1541D01*
X2237Y1557D02*
X2253Y1541D01*
X1572Y1557D02*
X2237D01*
X1553Y1538D02*
X1572Y1557D01*
X1553Y1439D02*
Y1538D01*
Y1439D02*
X1564Y1428D01*
X1615D01*
X1657Y1470D01*
X1814Y1106D02*
X1842Y1134D01*
X1553Y1106D02*
X1814D01*
X1807Y514D02*
X1905Y612D01*
X1218Y514D02*
X1807D01*
X1135Y431D02*
X1218Y514D01*
X1135Y333D02*
Y431D01*
Y333D02*
X1181Y288D01*
X1755D01*
X2010Y543D01*
X2280D01*
X338Y185D02*
Y425D01*
X412Y500D01*
X338Y2015D02*
X434Y2112D01*
X1270Y845D02*
X1301Y876D01*
X1482D02*
X1655Y1049D01*
X1688Y1082D01*
X1446Y1405D02*
X1455Y1396D01*
X1553Y2112D02*
X1595Y2070D01*
X1633Y927D02*
X1655Y949D01*
Y1049D01*
X2395Y587D02*
X2413Y569D01*
X2395Y587D02*
Y848D01*
X1688Y1082D02*
X1920D01*
X2236D01*
X1751Y1426D02*
X1795Y1470D01*
X2236Y1082D02*
X2288Y1134D01*
Y1215D01*
X2395Y1322D01*
X337Y546D02*
X338D01*
X463D01*
X337D02*
Y550D01*
X338D01*
X539Y179D02*
X2298D01*
X1146Y972D02*
X1353Y1179D01*
X1526Y1079D02*
X1553Y1106D01*
X1353Y1179D02*
X2165D01*
X864Y2008D02*
X1468D01*
X1495Y2035D02*
Y2070D01*
X1905Y612D02*
Y713D01*
Y918D01*
X1920D01*
X2095D01*
X2298Y193D02*
X2557D01*
X2587Y163D01*
X2095Y918D02*
X2133Y956D01*
X2280Y543D02*
X2298Y525D01*
X1657Y1470D02*
X1695D01*
X1842Y1134D02*
X2165D01*
X2210D01*
X2165D02*
Y1179D01*
X2210Y1134D02*
X2253Y1178D01*
D13*
X0Y2200D02*
X2800D01*
Y0D02*
Y2200D01*
X0Y0D02*
X2800D01*
X0D02*
Y2201D01*
D14*
X2587Y163D02*
D03*
Y263D02*
D03*
Y421D02*
D03*
Y521D02*
D03*
D15*
X1956Y1300D02*
D03*
X338Y550D02*
D03*
X262Y500D02*
D03*
X188Y550D02*
D03*
X412Y600D02*
D03*
X338Y650D02*
D03*
X262Y600D02*
D03*
X188Y650D02*
D03*
X412Y700D02*
D03*
X338Y750D02*
D03*
X262Y700D02*
D03*
X188Y750D02*
D03*
X412Y800D02*
D03*
X338Y850D02*
D03*
X262Y800D02*
D03*
X188Y850D02*
D03*
X412Y900D02*
D03*
X338Y950D02*
D03*
X262Y900D02*
D03*
X188Y950D02*
D03*
X412Y1000D02*
D03*
X338Y1050D02*
D03*
X262Y1000D02*
D03*
X188Y1050D02*
D03*
X412Y1100D02*
D03*
X338Y1150D02*
D03*
X262Y1100D02*
D03*
X188Y1150D02*
D03*
X412Y1200D02*
D03*
X338Y1250D02*
D03*
X262Y1200D02*
D03*
X188Y1250D02*
D03*
X412Y1300D02*
D03*
X338Y1350D02*
D03*
X262Y1300D02*
D03*
X188Y1350D02*
D03*
X412Y1400D02*
D03*
X338Y1450D02*
D03*
X262Y1400D02*
D03*
X188Y1450D02*
D03*
X412Y1500D02*
D03*
X338Y1550D02*
D03*
X262Y1500D02*
D03*
X188Y1550D02*
D03*
X412Y1600D02*
D03*
X338Y1650D02*
D03*
X262Y1600D02*
D03*
X188Y1650D02*
D03*
X412Y1700D02*
D03*
X262D02*
D03*
D16*
X1764Y1300D02*
D03*
D17*
X2395Y848D02*
D03*
Y1322D02*
D03*
D18*
X2288Y1036D02*
D03*
X2210D02*
D03*
Y1134D02*
D03*
X2288Y1134D02*
D03*
D19*
X412Y500D02*
D03*
D20*
X338Y185D02*
D03*
Y2015D02*
D03*
D21*
X695Y1470D02*
D03*
D22*
X795D02*
D03*
X895D02*
D03*
X995D02*
D03*
X1095D02*
D03*
X1195D02*
D03*
X1295D02*
D03*
X1395D02*
D03*
X1495D02*
D03*
X1595D02*
D03*
X1695D02*
D03*
X1795D02*
D03*
X1895D02*
D03*
X1995D02*
D03*
X2095D02*
D03*
X2195D02*
D03*
X2295D02*
D03*
X2395D02*
D03*
X2495D02*
D03*
X2595D02*
D03*
X695Y2070D02*
D03*
X795D02*
D03*
X895D02*
D03*
X995D02*
D03*
X1095D02*
D03*
X1195D02*
D03*
X1295D02*
D03*
X1395D02*
D03*
X1495D02*
D03*
X1595D02*
D03*
X1695D02*
D03*
X1795D02*
D03*
X1895D02*
D03*
X1995D02*
D03*
X2095D02*
D03*
X2195D02*
D03*
X2295D02*
D03*
X2395D02*
D03*
X2495D02*
D03*
X2595D02*
D03*
D23*
X1270Y845D02*
D03*
X2413Y569D02*
D03*
X2325Y1791D02*
D03*
X2057Y1240D02*
D03*
X1114Y1123D02*
D03*
X1045Y803D02*
D03*
X1599Y582D02*
D03*
X1008Y1243D02*
D03*
X1421Y1793D02*
D03*
X1849Y853D02*
D03*
X1448Y598D02*
D03*
X1744Y1006D02*
D03*
X1799Y1148D02*
D03*
X2472Y1094D02*
D03*
X2021Y991D02*
D03*
X727Y787D02*
D03*
X1948Y413D02*
D03*
X554Y423D02*
D03*
X2098Y512D02*
D03*
X617Y470D02*
D03*
X2395Y1783D02*
D03*
X1633Y927D02*
D03*
X1655Y1049D02*
D03*
X1446Y1405D02*
D03*
X2298Y179D02*
D03*
X2133Y956D02*
D03*
X2298Y193D02*
D03*
X1353Y1179D02*
D03*
X1146Y972D02*
D03*
X864Y2008D02*
D03*
X1526Y1079D02*
D03*
X2298Y525D02*
D03*
X1905Y713D02*
D03*
X563Y945D02*
D03*
X592Y836D02*
D03*
X520Y764D02*
D03*
Y678D02*
D03*
X544Y845D02*
D03*
X794Y1202D02*
D03*
X535Y1878D02*
D03*
X1333Y621D02*
D03*
X351Y1504D02*
D03*
X1726Y1430D02*
D03*
X1507Y621D02*
D03*
X1275D02*
D03*
X1177Y662D02*
D03*
X1089D02*
D03*
X224Y1856D02*
D03*
X313Y326D02*
D03*
X362D02*
D03*
X451Y452D02*
D03*
X513Y502D02*
D03*
X676Y443D02*
D03*
Y679D02*
D03*
X906Y666D02*
D03*
X135Y1889D02*
D03*
X688Y1917D02*
D03*
X529Y1299D02*
D03*
X1005Y732D02*
D03*
X963Y758D02*
D03*
X2164Y1517D02*
D03*
X916Y805D02*
D03*
X881Y810D02*
D03*
X1149Y491D02*
D03*
X533Y274D02*
D03*
X1100Y479D02*
D03*
X113Y474D02*
D03*
X1008Y480D02*
D03*
X1046Y430D02*
D03*
X1163Y407D02*
D03*
X556Y1597D02*
D03*
X1168Y374D02*
D03*
X1203Y313D02*
D03*
X603Y355D02*
D03*
X898D02*
D03*
M02*
