%FSLAX23Y23*%
%MOIN*%
G70*
G01*
G75*
%ADD10R,0.134X0.071*%
%ADD11C,0.008*%
%ADD12C,0.012*%
%ADD13C,0.010*%
%ADD14C,0.063*%
%ADD15C,0.055*%
%ADD16P,0.055X8X0*%
%ADD17C,0.180*%
%ADD18C,0.065*%
%ADD19R,0.055X0.055*%
%ADD20C,0.217*%
%ADD21R,0.059X0.059*%
%ADD22C,0.059*%
%ADD23C,0.025*%
%ADD24R,0.035X0.028*%
%ADD25R,0.028X0.035*%
%ADD26R,0.031X0.012*%
%ADD27R,0.065X0.012*%
%ADD28R,0.024X0.087*%
%ADD29C,0.008*%
%ADD30C,0.007*%
%ADD31C,0.009*%
%ADD32C,0.006*%
%ADD33R,0.008X0.020*%
%ADD34R,0.008X0.020*%
%ADD35C,0.010*%
D13*
X960Y815D02*
X900D01*
Y785D01*
X910Y775D01*
X930D01*
X940Y785D01*
Y815D01*
Y795D02*
X960Y775D01*
X910Y755D02*
X900Y745D01*
Y725D01*
X910Y715D01*
X920D01*
X930Y725D01*
Y735D01*
Y725D01*
X940Y715D01*
X950D01*
X960Y725D01*
Y745D01*
X950Y755D01*
X1385Y815D02*
X1325D01*
Y785D01*
X1335Y775D01*
X1355D01*
X1365Y785D01*
Y815D01*
Y795D02*
X1385Y775D01*
Y725D02*
X1325D01*
X1355Y755D01*
Y715D01*
X1385Y505D02*
X1325D01*
Y475D01*
X1335Y465D01*
X1355D01*
X1365Y475D01*
Y505D01*
Y485D02*
X1385Y465D01*
X1325Y405D02*
Y445D01*
X1355D01*
X1345Y425D01*
Y415D01*
X1355Y405D01*
X1375D01*
X1385Y415D01*
Y435D01*
X1375Y445D01*
X960Y505D02*
X900D01*
Y475D01*
X910Y465D01*
X930D01*
X940Y475D01*
Y505D01*
Y485D02*
X960Y465D01*
X900Y405D02*
X910Y425D01*
X930Y445D01*
X950D01*
X960Y435D01*
Y415D01*
X950Y405D01*
X940D01*
X930Y415D01*
Y445D01*
X1533Y571D02*
X1583D01*
X1593Y561D01*
Y541D01*
X1583Y531D01*
X1533D01*
X1593Y471D02*
Y511D01*
X1553Y471D01*
X1543D01*
X1533Y481D01*
Y501D01*
X1543Y511D01*
X1710Y1590D02*
X1700Y1600D01*
Y1620D01*
X1710Y1630D01*
X1750D01*
X1760Y1620D01*
Y1600D01*
X1750Y1590D01*
X1760Y1570D02*
Y1550D01*
Y1560D01*
X1700D01*
X1710Y1570D01*
X2095Y1600D02*
X2085Y1610D01*
Y1630D01*
X2095Y1640D01*
X2135D01*
X2145Y1630D01*
Y1610D01*
X2135Y1600D01*
X2145Y1540D02*
Y1580D01*
X2105Y1540D01*
X2095D01*
X2085Y1550D01*
Y1570D01*
X2095Y1580D01*
X2196Y1703D02*
X2186Y1713D01*
Y1733D01*
X2196Y1743D01*
X2236D01*
X2246Y1733D01*
Y1713D01*
X2236Y1703D01*
X2196Y1683D02*
X2186Y1673D01*
Y1653D01*
X2196Y1643D01*
X2206D01*
X2216Y1653D01*
Y1663D01*
Y1653D01*
X2226Y1643D01*
X2236D01*
X2246Y1653D01*
Y1673D01*
X2236Y1683D01*
X1415Y1990D02*
X1405Y2000D01*
Y2020D01*
X1415Y2030D01*
X1455D01*
X1465Y2020D01*
Y2000D01*
X1455Y1990D01*
X1465Y1940D02*
X1405D01*
X1435Y1970D01*
Y1930D01*
X1540Y1615D02*
X1530Y1625D01*
Y1645D01*
X1540Y1655D01*
X1580D01*
X1590Y1645D01*
Y1625D01*
X1580Y1615D01*
X1530Y1555D02*
Y1595D01*
X1560D01*
X1550Y1575D01*
Y1565D01*
X1560Y1555D01*
X1580D01*
X1590Y1565D01*
Y1585D01*
X1580Y1595D01*
X815Y1650D02*
X755D01*
Y1620D01*
X765Y1610D01*
X785D01*
X795Y1620D01*
Y1650D01*
Y1630D02*
X815Y1610D01*
Y1590D02*
Y1570D01*
Y1580D01*
X755D01*
X765Y1590D01*
X2435Y1685D02*
X2375D01*
Y1655D01*
X2385Y1645D01*
X2405D01*
X2415Y1655D01*
Y1685D01*
Y1665D02*
X2435Y1645D01*
X2375Y1625D02*
Y1585D01*
X2385D01*
X2425Y1625D01*
X2435D01*
X2695Y1685D02*
X2635D01*
Y1655D01*
X2645Y1645D01*
X2665D01*
X2675Y1655D01*
Y1685D01*
Y1665D02*
X2695Y1645D01*
X2645Y1625D02*
X2635Y1615D01*
Y1595D01*
X2645Y1585D01*
X2655D01*
X2665Y1595D01*
X2675Y1585D01*
X2685D01*
X2695Y1595D01*
Y1615D01*
X2685Y1625D01*
X2675D01*
X2665Y1615D01*
X2655Y1625D01*
X2645D01*
X2665Y1615D02*
Y1595D01*
X2690Y2010D02*
X2630D01*
Y1980D01*
X2640Y1970D01*
X2660D01*
X2670Y1980D01*
Y2010D01*
Y1990D02*
X2690Y1970D01*
X2680Y1950D02*
X2690Y1940D01*
Y1920D01*
X2680Y1910D01*
X2640D01*
X2630Y1920D01*
Y1940D01*
X2640Y1950D01*
X2650D01*
X2660Y1940D01*
Y1910D01*
X2435Y2010D02*
X2375D01*
Y1980D01*
X2385Y1970D01*
X2405D01*
X2415Y1980D01*
Y2010D01*
Y1990D02*
X2435Y1970D01*
Y1950D02*
Y1930D01*
Y1940D01*
X2375D01*
X2385Y1950D01*
Y1900D02*
X2375Y1890D01*
Y1870D01*
X2385Y1860D01*
X2425D01*
X2435Y1870D01*
Y1890D01*
X2425Y1900D01*
X2385D01*
X2587Y906D02*
X2527D01*
Y876D01*
X2537Y866D01*
X2557D01*
X2567Y876D01*
Y906D01*
Y886D02*
X2587Y866D01*
Y846D02*
Y826D01*
Y836D01*
X2527D01*
X2537Y846D01*
X2587Y796D02*
Y776D01*
Y786D01*
X2527D01*
X2537Y796D01*
X1270Y995D02*
X1260Y1005D01*
Y1025D01*
X1270Y1035D01*
X1310D01*
X1320Y1025D01*
Y1005D01*
X1310Y995D01*
X1260Y975D02*
Y935D01*
X1270D01*
X1310Y975D01*
X1320D01*
X1553Y1100D02*
X1543Y1110D01*
Y1130D01*
X1553Y1140D01*
X1593D01*
X1603Y1130D01*
Y1110D01*
X1593Y1100D01*
X1553Y1080D02*
X1543Y1070D01*
Y1050D01*
X1553Y1040D01*
X1563D01*
X1573Y1050D01*
X1583Y1040D01*
X1593D01*
X1603Y1050D01*
Y1070D01*
X1593Y1080D01*
X1583D01*
X1573Y1070D01*
X1563Y1080D01*
X1553D01*
X1573Y1070D02*
Y1050D01*
X2687Y931D02*
X2627D01*
Y901D01*
X2637Y891D01*
X2657D01*
X2667Y901D01*
Y931D01*
Y911D02*
X2687Y891D01*
Y871D02*
Y851D01*
Y861D01*
X2627D01*
X2637Y871D01*
X2687Y781D02*
Y821D01*
X2647Y781D01*
X2637D01*
X2627Y791D01*
Y811D01*
X2637Y821D01*
X1815Y1870D02*
X1755D01*
Y1840D01*
X1765Y1830D01*
X1785D01*
X1795Y1840D01*
Y1870D01*
Y1850D02*
X1815Y1830D01*
Y1810D02*
Y1790D01*
Y1800D01*
X1755D01*
X1765Y1810D01*
Y1760D02*
X1755Y1750D01*
Y1730D01*
X1765Y1720D01*
X1775D01*
X1785Y1730D01*
Y1740D01*
Y1730D01*
X1795Y1720D01*
X1805D01*
X1815Y1730D01*
Y1750D01*
X1805Y1760D01*
X1715Y1870D02*
X1655D01*
Y1840D01*
X1665Y1830D01*
X1685D01*
X1695Y1840D01*
Y1870D01*
Y1850D02*
X1715Y1830D01*
Y1810D02*
Y1790D01*
Y1800D01*
X1655D01*
X1665Y1810D01*
X1715Y1730D02*
X1655D01*
X1685Y1760D01*
Y1720D01*
X1456Y1032D02*
X1506D01*
X1516Y1022D01*
Y1002D01*
X1506Y992D01*
X1456D01*
X1466Y972D02*
X1456Y962D01*
Y942D01*
X1466Y932D01*
X1476D01*
X1486Y942D01*
Y952D01*
Y942D01*
X1496Y932D01*
X1506D01*
X1516Y942D01*
Y962D01*
X1506Y972D01*
X945Y1260D02*
X995D01*
X1005Y1250D01*
Y1230D01*
X995Y1220D01*
X945D01*
X1005Y1170D02*
X945D01*
X975Y1200D01*
Y1160D01*
X2390Y309D02*
X2380Y319D01*
Y339D01*
X2390Y349D01*
X2430D01*
X2440Y339D01*
Y319D01*
X2430Y309D01*
Y289D02*
X2440Y279D01*
Y259D01*
X2430Y249D01*
X2390D01*
X2380Y259D01*
Y279D01*
X2390Y289D01*
X2400D01*
X2410Y279D01*
Y249D01*
X2331Y1922D02*
X2271D01*
Y1892D01*
X2281Y1882D01*
X2301D01*
X2311Y1892D01*
Y1922D01*
Y1902D02*
X2331Y1882D01*
Y1822D02*
Y1862D01*
X2291Y1822D01*
X2281D01*
X2271Y1832D01*
Y1852D01*
X2281Y1862D01*
X0Y2200D02*
X2800D01*
Y0D02*
Y2200D01*
X0Y0D02*
X2800D01*
X0D02*
Y2201D01*
D29*
X1192Y1066D02*
G03*
X1152Y1066I-20J0D01*
G01*
X1670Y1030D02*
G03*
X1710Y1030I20J0D01*
G01*
X2329Y471D02*
G03*
X2329Y421I0J-25D01*
G01*
X1904Y1560D02*
Y1620D01*
X1786Y1560D02*
Y1620D01*
X1833D01*
X1786Y1560D02*
X1833D01*
X1857D02*
X1904D01*
X1857Y1620D02*
X1904D01*
X2324Y1560D02*
Y1620D01*
X2206Y1560D02*
Y1620D01*
X2253D01*
X2206Y1560D02*
X2253D01*
X2277D02*
X2324D01*
X2277Y1620D02*
X2324D01*
X1486Y1960D02*
Y2020D01*
X1604Y1960D02*
Y2020D01*
X1557Y1960D02*
X1604D01*
X1557Y2020D02*
X1604D01*
X1486D02*
X1533D01*
X1486Y1960D02*
X1533D01*
X1615Y1551D02*
X1675D01*
X1615Y1669D02*
X1675D01*
Y1622D02*
Y1669D01*
X1615Y1622D02*
Y1669D01*
Y1551D02*
Y1598D01*
X1675Y1551D02*
Y1598D01*
X675Y1669D02*
X735D01*
X675Y1551D02*
X735D01*
X675D02*
Y1598D01*
X735Y1551D02*
Y1598D01*
Y1622D02*
Y1669D01*
X675Y1622D02*
Y1669D01*
X2455Y1571D02*
X2515D01*
X2455Y1689D02*
X2515D01*
Y1642D02*
Y1689D01*
X2455Y1642D02*
Y1689D01*
Y1571D02*
Y1618D01*
X2515Y1571D02*
Y1618D01*
X2555Y1571D02*
X2615D01*
X2555Y1689D02*
X2615D01*
Y1642D02*
Y1689D01*
X2555Y1642D02*
Y1689D01*
Y1571D02*
Y1618D01*
X2615Y1571D02*
Y1618D01*
X2555Y2009D02*
X2615D01*
X2555Y1891D02*
X2615D01*
X2555D02*
Y1938D01*
X2615Y1891D02*
Y1938D01*
Y1962D02*
Y2009D01*
X2555Y1962D02*
Y2009D01*
X2455D02*
X2515D01*
X2455Y1891D02*
X2515D01*
X2455D02*
Y1938D01*
X2515Y1891D02*
Y1938D01*
Y1962D02*
Y2009D01*
X2455Y1962D02*
Y2009D01*
X879Y616D02*
Y676D01*
X761Y616D02*
Y676D01*
Y616D02*
X808D01*
X832D02*
X879D01*
Y676D02*
Y813D01*
X761Y676D02*
Y813D01*
X808D01*
X832D02*
X879D01*
X1303Y616D02*
Y676D01*
X1185Y616D02*
Y676D01*
Y616D02*
X1232D01*
X1256D02*
X1303D01*
Y676D02*
Y813D01*
X1185Y676D02*
Y813D01*
X1232D01*
X1256D02*
X1303D01*
X761Y309D02*
X808D01*
X832D02*
X879D01*
Y446D01*
X761Y309D02*
Y446D01*
Y506D02*
X808D01*
X832D02*
X879D01*
Y446D02*
Y506D01*
X761Y446D02*
Y506D01*
X1185Y309D02*
X1232D01*
X1185Y446D02*
Y506D01*
X1303Y446D02*
Y506D01*
X1256D02*
X1303D01*
X1185D02*
X1232D01*
X1185Y309D02*
Y446D01*
X1303Y309D02*
Y446D01*
X1256Y309D02*
X1303D01*
X1233Y1066D02*
Y1266D01*
X1111Y1066D02*
Y1266D01*
X1233D01*
X1192Y1066D02*
X1233D01*
X1111D02*
X1152D01*
X1629Y830D02*
Y1030D01*
X1751Y830D02*
Y1030D01*
X1629Y830D02*
X1751D01*
X1629Y1030D02*
X1670D01*
X1710D02*
X1751D01*
X1698Y1120D02*
X1745D01*
X1698Y1060D02*
X1745D01*
X1627D02*
X1674D01*
X1627Y1120D02*
X1674D01*
X1627Y1060D02*
Y1120D01*
X1745Y1060D02*
Y1120D01*
X2275Y1742D02*
Y1789D01*
X2335Y1742D02*
Y1789D01*
Y1671D02*
Y1718D01*
X2275Y1671D02*
Y1718D01*
Y1671D02*
X2335D01*
X2275Y1789D02*
X2335D01*
X2443Y377D02*
Y424D01*
X2383Y377D02*
Y424D01*
Y448D02*
Y495D01*
X2443Y448D02*
Y495D01*
X2383D02*
X2443D01*
X2383Y377D02*
X2443D01*
X2629Y693D02*
Y740D01*
X2689Y693D02*
Y740D01*
Y622D02*
Y669D01*
X2629Y622D02*
Y669D01*
Y622D02*
X2689D01*
X2629Y740D02*
X2689D01*
X1116Y976D02*
X1163D01*
X1116Y1036D02*
X1163D01*
X1187D02*
X1234D01*
X1187Y976D02*
X1234D01*
Y1036D01*
X1116Y976D02*
Y1036D01*
X1815Y1891D02*
Y1938D01*
X1755Y1891D02*
Y1938D01*
Y1962D02*
Y2009D01*
X1815Y1962D02*
Y2009D01*
X1755D02*
X1815D01*
X1755Y1891D02*
X1815D01*
X1715D02*
Y1938D01*
X1655Y1891D02*
Y1938D01*
Y1962D02*
Y2009D01*
X1715Y1962D02*
Y2009D01*
X1655D02*
X1715D01*
X1655Y1891D02*
X1715D01*
X1946Y1560D02*
X1993D01*
X1946Y1620D02*
X1993D01*
X2017D02*
X2064D01*
X2017Y1560D02*
X2064D01*
Y1620D01*
X1946Y1560D02*
Y1620D01*
X2529Y740D02*
X2589D01*
X2529Y622D02*
X2589D01*
X2529D02*
Y669D01*
X2589Y622D02*
Y669D01*
Y693D02*
Y740D01*
X2529Y693D02*
Y740D01*
X1617Y577D02*
X2329D01*
X1617Y315D02*
X2329D01*
X1617D02*
Y577D01*
X2329Y471D02*
Y577D01*
Y315D02*
Y421D01*
D35*
X1068Y1049D02*
G03*
X1068Y1049I-5J0D01*
G01*
X1804Y1047D02*
G03*
X1804Y1047I-5J0D01*
G01*
X2336Y256D02*
G03*
X2336Y256I-5J0D01*
G01*
M02*
