%FSLAX23Y23*%
%MOIN*%
G70*
G01*
G75*
G04 Layer_Physical_Order=2*
%ADD10R,0.012X0.031*%
%ADD11R,0.134X0.071*%
%ADD12C,0.008*%
%ADD13C,0.008*%
%ADD14C,0.012*%
%ADD15C,0.010*%
%ADD16C,0.063*%
%ADD17C,0.055*%
%ADD18C,0.180*%
%ADD19C,0.065*%
%ADD20R,0.059X0.059*%
%ADD21C,0.059*%
%ADD22R,0.065X0.065*%
%ADD23C,0.217*%
%ADD24C,0.025*%
%ADD25R,0.024X0.087*%
%ADD26R,0.035X0.028*%
%ADD27R,0.065X0.012*%
%ADD28R,0.028X0.035*%
D12*
X2371Y1002D02*
X2415D01*
X2116D02*
X2217Y900D01*
X2031Y1002D02*
X2116D01*
X2385Y888D02*
X2412D01*
X1526Y1664D02*
Y1920D01*
X1757Y874D02*
X1769Y886D01*
X1745Y862D02*
X1757Y874D01*
X1745Y862D02*
Y886D01*
Y832D02*
Y862D01*
X1746Y791D02*
Y831D01*
X1735Y791D02*
X1746D01*
X2371Y976D02*
X2413D01*
X2076D02*
X2103Y949D01*
X2031Y976D02*
X2076D01*
X2396Y923D02*
X2414Y931D01*
X1418Y1920D02*
X1428Y1910D01*
X1635Y886D02*
X1645D01*
X1588D02*
X1635D01*
Y791D02*
Y886D01*
X2344Y1808D02*
X2387Y1851D01*
X2213Y950D02*
X2249D01*
X2214Y976D02*
X2249D01*
X2195Y1768D02*
X2235Y1808D01*
X2262Y1469D02*
Y1672D01*
X2249Y1104D02*
X2291D01*
X2249Y1130D02*
X2249D01*
X2249D02*
Y1307D01*
X2520Y950D02*
X2589D01*
X2479Y991D02*
Y1016D01*
X2440Y1040D02*
Y1052D01*
X2551Y976D02*
X2589D01*
X1799Y1656D02*
Y1808D01*
X1834Y1597D02*
Y1622D01*
X2508Y1104D02*
X2589D01*
X2484Y1128D02*
Y1167D01*
X2530Y1130D02*
X2589D01*
X1581Y1740D02*
Y1808D01*
X1695Y1290D02*
Y1626D01*
X2041Y615D02*
X2119D01*
X2027Y420D02*
X2054D01*
X339Y985D02*
Y1145D01*
X725Y158D02*
Y210D01*
X675D02*
Y263D01*
X253Y1182D02*
X291Y1220D01*
X275Y1323D02*
X291D01*
X625Y210D02*
Y284D01*
X575Y210D02*
Y303D01*
X246Y1244D02*
X342D01*
X238Y1308D02*
Y1367D01*
X525Y210D02*
Y320D01*
X218D02*
Y491D01*
X475Y157D02*
Y210D01*
X162Y1329D02*
X198D01*
X385Y296D02*
X425Y256D01*
Y210D02*
Y256D01*
X168Y1281D02*
X184Y1297D01*
X168Y306D02*
Y1281D01*
X353Y273D02*
X371D01*
X375Y210D02*
Y269D01*
X775Y537D02*
Y590D01*
X616Y691D02*
Y1238D01*
X574Y1357D02*
X653Y1278D01*
X725Y590D02*
Y746D01*
X675Y590D02*
Y741D01*
X551Y1337D02*
Y1393D01*
X625Y526D02*
Y590D01*
X500Y1363D02*
X520D01*
X505Y1250D02*
X507Y1247D01*
X575Y1179D01*
X505Y1245D02*
X575Y1175D01*
Y1179D01*
Y590D02*
Y1175D01*
X525Y590D02*
Y868D01*
X470Y923D02*
Y1237D01*
X475Y537D02*
Y590D01*
X459Y1280D02*
X567D01*
X2725Y1277D02*
Y1328D01*
X2725Y1381D02*
X2735Y1391D01*
X1195Y717D02*
X1406Y507D01*
X1135Y791D02*
X1195Y731D01*
X1405Y585D02*
X1406D01*
X1405D02*
Y662D01*
X1125Y1106D02*
X1245D01*
X1125Y1106D02*
Y1106D01*
X2054Y560D02*
X2058D01*
Y511D02*
Y560D01*
X1162Y1272D02*
Y1307D01*
X1139Y1271D02*
X1161D01*
X1125D02*
X1139D01*
X1125Y1157D02*
Y1271D01*
X1435Y1391D02*
X1451Y1376D01*
X1435Y1391D02*
Y1509D01*
X1451Y1271D02*
Y1376D01*
X1394Y1550D02*
X1435Y1509D01*
X1547Y1271D02*
X1559D01*
X1547D02*
Y1379D01*
X1535Y1499D02*
X1586Y1550D01*
X1535Y1391D02*
Y1499D01*
Y1391D02*
X1547Y1379D01*
X2535Y1615D02*
X2641Y1721D01*
X2535Y1391D02*
Y1615D01*
X1145Y2032D02*
X1214Y1963D01*
X1406Y1750D02*
X1456Y1700D01*
X1961Y1565D02*
X2135Y1391D01*
X1254Y2032D02*
X1325Y2103D01*
X2035Y1391D02*
Y1423D01*
X1363Y2032D02*
X1420Y2089D01*
X1632Y2009D02*
Y2035D01*
X1774Y1552D02*
X1935Y1391D01*
X1709Y1517D02*
X1835Y1391D01*
X1581Y1905D02*
Y2032D01*
X2021Y818D02*
X2035D01*
Y791D02*
Y818D01*
X1690Y2032D02*
X1702Y2020D01*
X2103Y791D02*
X2135D01*
X1797Y2030D02*
X1799Y2032D01*
X2179Y847D02*
X2235Y791D01*
X1908Y1874D02*
Y2032D01*
X2535Y105D02*
Y791D01*
X2235Y2032D02*
Y2140D01*
X2635Y791D02*
X2775Y931D01*
X2344Y1890D02*
Y2032D01*
X655Y1921D02*
Y2032D01*
X655Y1920D02*
X655Y1921D01*
X1295Y1431D02*
X1335Y1391D01*
X763Y1920D02*
X821Y1977D01*
X799Y1846D02*
X873Y1920D01*
X775Y1511D02*
X885Y1401D01*
X982Y1045D02*
Y1920D01*
Y1045D02*
X1235Y791D01*
X1335D02*
Y823D01*
X1087Y1916D02*
X1090Y1920D01*
X1199D02*
X1204D01*
Y1602D02*
Y1920D01*
X1152Y1074D02*
X1435Y791D01*
X1322Y1308D02*
X1378D01*
X1309Y1559D02*
Y1920D01*
X1951D02*
X1962D01*
X1951Y1707D02*
Y1920D01*
X1904Y1660D02*
X1951Y1707D01*
X2072Y1920D02*
Y2112D01*
X1178Y1527D02*
Y1685D01*
X1761Y668D02*
X2051D01*
X875Y561D02*
X1203D01*
X875D02*
Y590D01*
X935Y1357D02*
Y1391D01*
X945Y1257D02*
Y1347D01*
X325Y590D02*
Y837D01*
X835Y1391D02*
X845Y1381D01*
Y1257D02*
Y1381D01*
X275Y1004D02*
X286Y1015D01*
X275Y590D02*
Y1004D01*
X845Y825D02*
Y886D01*
X846Y791D02*
Y824D01*
X835Y791D02*
X846D01*
X225Y529D02*
Y590D01*
Y529D02*
X226Y528D01*
X945Y791D02*
Y886D01*
X935Y791D02*
X945D01*
X225Y210D02*
Y242D01*
X195Y259D02*
Y476D01*
X418Y1237D02*
Y1352D01*
X425Y590D02*
Y1230D01*
X2181Y1887D02*
Y1920D01*
X1984Y1578D02*
X2083Y1677D01*
X2263Y1893D02*
X2289Y1920D01*
X2318Y1116D02*
Y1225D01*
X600Y1579D02*
Y1808D01*
X617Y1480D02*
Y1562D01*
X709Y1808D02*
Y1863D01*
X170Y1581D02*
Y1666D01*
X766Y1994D02*
Y2173D01*
X818Y1808D02*
X860D01*
X927Y1832D02*
X929D01*
X927Y1808D02*
Y1832D01*
X884Y2103D02*
X929Y2148D01*
X1254Y1716D02*
Y1808D01*
X873Y1788D02*
X945Y1716D01*
X1745Y832D02*
X1746Y831D01*
X2415Y1002D02*
X2429Y988D01*
Y905D02*
Y988D01*
X2412Y888D02*
X2429Y905D01*
X1769Y886D02*
Y1075D01*
X1752Y1092D02*
X1769Y1075D01*
X1513Y1092D02*
X1752D01*
X1495Y1110D02*
X1513Y1092D01*
X1495Y1110D02*
Y1633D01*
X1526Y1664D01*
X2414Y931D02*
Y975D01*
X2413Y976D02*
X2414Y975D01*
X1479Y995D02*
X1588Y886D01*
X1479Y995D02*
Y1722D01*
X1428Y1773D02*
X1479Y1722D01*
X1428Y1773D02*
Y1910D01*
X2206Y984D02*
X2214Y976D01*
X2206Y984D02*
Y1168D01*
X2208Y1170D01*
Y1261D01*
X2195Y1274D02*
X2208Y1261D01*
X2195Y1274D02*
Y1768D01*
X1799Y1656D02*
X1834Y1622D01*
X2440Y1040D02*
X2441Y1039D01*
X2495D01*
X2550Y984D01*
Y977D02*
Y984D01*
Y977D02*
X2551Y976D01*
X2484Y1128D02*
X2508Y1104D01*
X1581Y1740D02*
X1695Y1626D01*
X2026Y600D02*
X2041Y615D01*
X2026Y421D02*
Y600D01*
Y421D02*
X2027Y420D01*
X708Y141D02*
X725Y158D01*
X312Y141D02*
X708D01*
X300Y154D02*
X312Y141D01*
X300Y154D02*
Y946D01*
X339Y985D01*
X145Y1312D02*
X162Y1329D01*
X145Y186D02*
Y1312D01*
Y186D02*
X234Y97D01*
X781D01*
X797Y112D01*
Y275D01*
X784Y288D02*
X797Y275D01*
X660Y288D02*
X784D01*
X647Y275D02*
X660Y288D01*
X647Y157D02*
Y275D01*
X646Y156D02*
X647Y157D01*
X476Y156D02*
X646D01*
X475Y157D02*
X476Y156D01*
X371Y273D02*
X375Y269D01*
X653Y818D02*
Y1278D01*
Y818D02*
X725Y746D01*
X551Y1337D02*
X563Y1325D01*
X584D01*
X639Y1270D01*
Y777D02*
Y1270D01*
Y777D02*
X675Y741D01*
X613Y514D02*
X625Y526D01*
X463Y514D02*
X613D01*
X447Y530D02*
X463Y514D01*
X447Y530D02*
Y1245D01*
X436Y1256D02*
X447Y1245D01*
X436Y1256D02*
Y1299D01*
X500Y1363D01*
X470Y923D02*
X525Y868D01*
X1161Y1271D02*
X1162Y1272D01*
X1961Y1565D02*
Y1688D01*
X1974Y1701D01*
Y1850D01*
X2005Y1882D01*
Y1976D01*
X1951Y2030D02*
X2005Y1976D01*
X1951Y2030D02*
Y2089D01*
X1938Y2103D02*
X1951Y2089D01*
X1325Y2103D02*
X1938D01*
X1914Y1544D02*
X2035Y1423D01*
X1914Y1544D02*
Y1566D01*
X1842Y1638D02*
X1914Y1566D01*
X1842Y1638D02*
Y1852D01*
X1811Y1883D02*
X1842Y1852D01*
X1811Y1883D02*
Y1979D01*
X1842Y2010D01*
Y2075D01*
X1828Y2089D02*
X1842Y2075D01*
X1420Y2089D02*
X1828D01*
X1632Y2009D02*
X1678Y1963D01*
Y1893D02*
Y1963D01*
X1647Y1862D02*
X1678Y1893D01*
X1647Y1723D02*
Y1862D01*
Y1723D02*
X1774Y1596D01*
Y1552D02*
Y1596D01*
X1932Y907D02*
X2021Y818D01*
X1932Y907D02*
Y1290D01*
X1975Y1333D01*
Y1418D01*
X1962Y1431D02*
X1975Y1418D01*
X1928Y1431D02*
X1962D01*
X1792Y1567D02*
X1928Y1431D01*
X1792Y1567D02*
Y1598D01*
X1742Y1648D02*
X1792Y1598D01*
X1742Y1648D02*
Y1837D01*
X1702Y1877D02*
X1742Y1837D01*
X1702Y1877D02*
Y2020D01*
X2062Y832D02*
X2103Y791D01*
X2028Y832D02*
X2062D01*
X1947Y913D02*
X2028Y832D01*
X1947Y913D02*
Y1237D01*
X1989Y1279D01*
Y1430D01*
X1849Y1570D02*
X1989Y1430D01*
X1825Y1570D02*
X1849D01*
X1811Y1584D02*
X1825Y1570D01*
X1811Y1584D02*
Y1608D01*
X1756Y1663D02*
X1811Y1608D01*
X1756Y1663D02*
Y1826D01*
X1797Y1867D01*
Y2030D01*
X2057Y847D02*
X2179D01*
X1970Y934D02*
X2057Y847D01*
X1970Y934D02*
Y1159D01*
X2075Y1264D01*
Y1418D01*
X1942Y1551D02*
X2075Y1418D01*
X1942Y1551D02*
Y1569D01*
X1865Y1646D02*
X1942Y1569D01*
X1865Y1646D02*
Y1831D01*
X1908Y1874D01*
X2775Y931D02*
Y2030D01*
X2763Y2043D02*
X2775Y2030D01*
X2494Y2043D02*
X2763D01*
X2476Y2025D02*
X2494Y2043D01*
X2476Y1778D02*
Y2025D01*
X2463Y1765D02*
X2476Y1778D01*
X2323Y1765D02*
X2463D01*
X2301Y1788D02*
X2323Y1765D01*
X2301Y1788D02*
Y1847D01*
X2344Y1890D01*
X775Y1511D02*
Y1834D01*
X788Y1846D01*
X799D01*
X1204Y1602D02*
X1375Y1431D01*
Y1356D02*
Y1431D01*
X1363Y1344D02*
X1375Y1356D01*
X1125Y1344D02*
X1363D01*
X1101Y1320D02*
X1125Y1344D01*
X1101Y1075D02*
Y1320D01*
Y1075D02*
X1102Y1074D01*
X1152D01*
X1309Y1559D02*
X1395Y1473D01*
Y1325D02*
Y1473D01*
X1378Y1308D02*
X1395Y1325D01*
X1178Y1685D02*
X1188Y1695D01*
Y1842D01*
X1157Y1873D02*
X1188Y1842D01*
X1157Y1873D02*
Y1958D01*
X1102Y2013D02*
X1157Y1958D01*
X1102Y2013D02*
Y2112D01*
X1115Y2126D01*
X2058D01*
X2072Y2112D01*
X1203Y561D02*
X1301Y463D01*
X1556D01*
X1761Y668D01*
X2164Y1870D02*
X2181Y1887D01*
X2100Y1870D02*
X2164D01*
X2083Y1853D02*
X2100Y1870D01*
X2083Y1677D02*
Y1853D01*
X2318Y1225D02*
X2375Y1282D01*
Y1548D01*
X2287Y1636D02*
X2375Y1548D01*
X2287Y1636D02*
Y1866D01*
X2263Y1890D02*
X2287Y1866D01*
X2263Y1890D02*
Y1893D01*
X170Y1666D02*
X415Y1911D01*
Y2088D01*
X428Y2101D01*
X738D01*
X752Y2088D01*
Y2004D02*
Y2088D01*
X707Y1959D02*
X752Y2004D01*
X707Y1865D02*
Y1959D01*
Y1865D02*
X709Y1863D01*
X860Y1808D02*
X915Y1862D01*
Y1950D01*
X902Y1963D02*
X915Y1950D01*
X831Y1963D02*
X902D01*
X818Y1950D02*
X831Y1963D01*
X818Y1896D02*
Y1950D01*
X800Y1878D02*
X818Y1896D01*
X773Y1878D02*
X800D01*
X772Y1877D02*
X773Y1878D01*
X738Y1877D02*
X772D01*
X721Y1893D02*
X738Y1877D01*
X721Y1893D02*
Y1949D01*
X766Y1994D01*
X929Y1832D02*
Y1967D01*
X884Y2013D02*
X929Y1967D01*
X884Y2013D02*
Y2103D01*
X774Y536D02*
X775Y537D01*
X654Y536D02*
X774D01*
X653Y537D02*
X654Y536D01*
X653Y537D02*
Y654D01*
X616Y691D02*
X653Y654D01*
X203Y506D02*
X218Y491D01*
X203Y506D02*
Y1273D01*
X238Y1308D01*
X253Y148D02*
Y1182D01*
Y148D02*
X276Y125D01*
X734D01*
X747Y138D01*
Y263D01*
X746Y264D02*
X747Y263D01*
X676Y264D02*
X746D01*
X675Y263D02*
X676Y264D01*
X2479Y991D02*
X2520Y950D01*
X1229Y1431D02*
X1295D01*
X1102Y1558D02*
X1229Y1431D01*
X1102Y1558D02*
Y1831D01*
X1133Y1862D01*
Y1957D01*
X1088Y2002D02*
X1133Y1957D01*
X1088Y2002D02*
Y2158D01*
X1075Y2171D02*
X1088Y2158D01*
X887Y2171D02*
X1075D01*
X870Y2154D02*
X887Y2171D01*
X870Y1997D02*
Y2154D01*
X850Y1977D02*
X870Y1997D01*
X821Y1977D02*
X850D01*
X600Y1579D02*
X617Y1562D01*
X1214Y1963D02*
X1338D01*
X1351Y1950D01*
Y1912D02*
Y1950D01*
Y1912D02*
X1406Y1857D01*
Y1750D02*
Y1857D01*
X475Y537D02*
X476Y536D01*
X596D01*
X597Y537D01*
Y782D01*
X593Y786D02*
X597Y782D01*
X593Y786D02*
Y1254D01*
X567Y1280D02*
X593Y1254D01*
X418Y1237D02*
X425Y1230D01*
X213Y242D02*
X225D01*
X195Y259D02*
X213Y242D01*
X845Y825D02*
X846Y824D01*
X935Y1357D02*
X945Y1347D01*
X1334Y824D02*
X1335Y823D01*
X1302Y824D02*
X1334D01*
X1087Y1039D02*
X1302Y824D01*
X1087Y1039D02*
Y1916D01*
X2235Y2140D02*
X2250Y2155D01*
X2775D01*
X2789Y2141D01*
Y131D02*
Y2141D01*
X2748Y90D02*
X2789Y131D01*
X2550Y90D02*
X2748D01*
X2535Y105D02*
X2550Y90D01*
X1581Y1905D02*
X1624Y1862D01*
Y1725D02*
Y1862D01*
Y1725D02*
X1709Y1640D01*
Y1517D02*
Y1640D01*
X1405Y662D02*
X1475Y732D01*
Y876D01*
X1245Y1106D02*
X1475Y876D01*
X1195Y717D02*
Y731D01*
X2725Y1328D02*
X2725Y1328D01*
X2725Y1328D02*
Y1381D01*
X291Y1323D02*
X403Y1211D01*
Y506D02*
Y1211D01*
Y506D02*
X625Y284D01*
X342Y1244D02*
X362Y1224D01*
Y1028D02*
Y1224D01*
X353Y1019D02*
X362Y1028D01*
X353Y525D02*
Y1019D01*
Y525D02*
X575Y303D01*
X2291Y1104D02*
X2293Y1106D01*
Y1438D01*
X2262Y1469D02*
X2293Y1438D01*
X2192Y971D02*
X2213Y950D01*
X2192Y971D02*
Y1178D01*
X2194Y1180D01*
Y1233D01*
X2181Y1246D02*
X2194Y1233D01*
X2181Y1246D02*
Y1816D01*
X2224Y1859D01*
Y1921D01*
X2279Y1976D01*
Y2125D01*
X2292Y2138D01*
X2374D01*
X2387Y2125D01*
Y1851D02*
Y2125D01*
D14*
X2428Y1200D02*
X2454D01*
X2393Y1658D02*
X2655Y1920D01*
X2371Y1130D02*
X2414D01*
X2589Y1027D02*
X2590D01*
X2544D02*
X2589D01*
X2415Y1077D02*
Y1102D01*
Y1054D02*
Y1077D01*
X2590Y1002D02*
Y1027D01*
X2589Y1002D02*
X2590D01*
X2371Y1104D02*
X2414D01*
X2415Y1077D02*
X2494D01*
X2371Y1053D02*
X2414D01*
X2092Y1200D02*
X2114D01*
X1785Y1063D02*
Y1226D01*
X1635Y1271D02*
X1675D01*
X1611D02*
X1635D01*
Y1391D01*
X1721Y1226D02*
X1785D01*
X2371Y1104D02*
Y1130D01*
X2031D02*
Y1138D01*
Y1104D02*
Y1130D01*
X2249Y1002D02*
X2286D01*
X2249D02*
Y1027D01*
X2031Y1130D02*
X2031D01*
X2031Y1104D02*
X2031D01*
X1987D02*
X2031D01*
X2359Y950D02*
X2371D01*
X2286Y1002D02*
X2348Y940D01*
X2359Y950D01*
X2286Y877D02*
X2348Y940D01*
X2286Y863D02*
Y877D01*
Y672D02*
Y863D01*
X2031Y950D02*
X2048D01*
X2013D02*
X2030Y950D01*
Y930D02*
Y950D01*
Y930D02*
X2100Y863D01*
X2286D01*
X2106Y560D02*
X2174D01*
X2105D02*
X2106D01*
X2105Y420D02*
X2106D01*
X2105D02*
Y560D01*
Y394D02*
Y420D01*
X1860Y878D02*
X1863Y875D01*
X1867Y871D01*
Y792D02*
Y871D01*
X1859D02*
X1867D01*
X1835Y791D02*
X1866D01*
X1692Y400D02*
X1856D01*
X1460Y507D02*
X1504D01*
X600Y1877D02*
Y2032D01*
X1399Y1271D02*
X1414D01*
X1191D02*
X1399D01*
X845Y1206D02*
X945D01*
X1414Y993D02*
Y1271D01*
X945Y928D02*
Y937D01*
X845D02*
X945D01*
Y928D02*
X962D01*
X845Y1206D02*
Y1225D01*
Y937D02*
Y1206D01*
Y933D02*
Y937D01*
X970Y513D02*
X1105D01*
X970Y525D02*
Y526D01*
Y513D02*
Y525D01*
X1105Y513D02*
X1218Y400D01*
X837Y525D02*
X970D01*
X825Y590D02*
Y688D01*
Y538D02*
Y590D01*
X325Y210D02*
Y400D01*
X2725Y1201D02*
Y1226D01*
X2634Y1200D02*
X2724D01*
X2506D02*
X2634D01*
X2589Y1078D02*
X2590D01*
X2250D02*
X2371D01*
X2249D02*
X2250D01*
X2590Y1053D02*
X2634D01*
X2589D02*
X2590D01*
Y1078D01*
X2250Y1053D02*
Y1078D01*
Y1053D02*
X2301D01*
X2249D02*
X2250D01*
X2145Y1200D02*
Y1226D01*
Y1098D02*
Y1200D01*
Y1226D02*
X2148D01*
X2072D02*
X2145D01*
X2046Y1200D02*
X2072Y1226D01*
X2146Y1200D02*
X2166D01*
X2031Y1078D02*
X2125D01*
X2031D02*
X2031D01*
Y1053D02*
Y1078D01*
X2031Y1053D02*
X2031D01*
X2634D02*
Y1200D01*
Y855D02*
Y1053D01*
X2413Y1027D02*
X2609Y831D01*
X2371Y1027D02*
X2413D01*
X2327D02*
X2371D01*
X2609Y831D02*
X2634Y855D01*
X2588Y809D02*
X2609Y831D01*
X2588Y251D02*
X2707Y132D01*
X2031Y1027D02*
Y1053D01*
X1910Y871D02*
Y1216D01*
Y850D02*
Y871D01*
Y791D02*
Y850D01*
Y871D02*
X1911D01*
X1889Y850D02*
X1910D01*
Y791D02*
X1935D01*
X1785Y1277D02*
X1817Y1309D01*
X1785Y1277D02*
Y1277D01*
X1735Y1391D02*
X1817Y1309D01*
X1910Y1216D01*
X1745Y937D02*
Y937D01*
Y919D02*
Y937D01*
X1645Y937D02*
X1745D01*
X660Y2081D02*
X709Y2032D01*
X1645Y937D02*
Y937D01*
X1737Y718D02*
X1757Y738D01*
X1604Y585D02*
X1737Y718D01*
X1693Y762D02*
X1737Y718D01*
X1504Y585D02*
X1604D01*
X970Y470D02*
Y474D01*
X890Y390D02*
X970Y470D01*
X875Y375D02*
X890Y390D01*
X711Y817D02*
Y1247D01*
Y817D02*
X800Y728D01*
Y480D02*
X890Y390D01*
X875Y210D02*
Y375D01*
X375Y703D02*
X376Y704D01*
X375Y590D02*
Y703D01*
X825Y688D02*
X875Y738D01*
X965D01*
X977Y750D01*
Y914D01*
X962Y928D02*
X977Y914D01*
X1785Y1063D02*
X1860Y988D01*
Y878D02*
Y988D01*
X2031Y1138D02*
X2092Y1200D01*
X1987Y950D02*
X2013D01*
X1986Y951D02*
X1987Y950D01*
X1986Y951D02*
Y1103D01*
X1987Y1104D01*
X2174Y560D02*
X2286Y672D01*
X2393Y1209D02*
X2415Y1188D01*
X2393Y1209D02*
Y1658D01*
X2494Y1077D02*
X2544Y1027D01*
X2724Y1200D02*
X2725Y1201D01*
X2588Y251D02*
Y809D01*
X2125Y1078D02*
X2145Y1098D01*
X2148Y1226D02*
X2149Y1225D01*
Y1203D02*
Y1225D01*
X2146Y1200D02*
X2149Y1203D01*
X1693Y762D02*
Y900D01*
X1711Y918D01*
X1745D01*
X1745Y919D01*
X1757Y738D02*
X1877D01*
X1889Y750D01*
Y850D01*
X800Y480D02*
Y728D01*
X602Y1356D02*
X711Y1247D01*
X602Y1356D02*
Y1414D01*
X555Y1461D02*
X602Y1414D01*
X555Y1461D02*
Y2080D01*
X556Y2081D01*
X660D01*
X2301Y1053D02*
X2327Y1027D01*
X600Y1877D02*
X654Y1823D01*
Y1369D02*
Y1823D01*
Y1369D02*
X797Y1226D01*
X844D01*
X845Y1225D01*
X2414Y1104D02*
X2415Y1102D01*
X2414Y1053D02*
X2415Y1054D01*
X2415Y1188D02*
X2428Y1200D01*
X2415Y1131D02*
Y1188D01*
X2414Y1130D02*
X2415Y1131D01*
X2088Y376D02*
X2105Y394D01*
X1880Y376D02*
X2088D01*
X1856Y400D02*
X1880Y376D01*
X1866Y791D02*
X1867Y792D01*
X1675Y1271D02*
X1721Y1226D01*
X1459Y508D02*
X1460Y507D01*
X1459Y508D02*
Y683D01*
X1492Y716D01*
Y915D01*
X1414Y993D02*
X1492Y915D01*
X825Y538D02*
X837Y525D01*
D15*
X0Y2300D02*
X2900D01*
Y0D02*
Y2300D01*
X0Y0D02*
X2900D01*
X0D02*
Y2300D01*
D16*
X2707Y132D02*
D03*
Y232D02*
D03*
Y390D02*
D03*
Y490D02*
D03*
D17*
X1394Y1550D02*
D03*
X1586D02*
D03*
D18*
X1218Y400D02*
D03*
X1692D02*
D03*
D19*
X1406Y507D02*
D03*
Y585D02*
D03*
X1504D02*
D03*
X1504Y507D02*
D03*
X709Y2032D02*
D03*
X2344Y1808D02*
D03*
X2235D02*
D03*
X818Y2032D02*
D03*
X927D02*
D03*
X2126Y1808D02*
D03*
X2017D02*
D03*
X1036Y2032D02*
D03*
X1145D02*
D03*
X1908Y1808D02*
D03*
X1799D02*
D03*
X1254Y2032D02*
D03*
X1363D02*
D03*
X1690Y1808D02*
D03*
X1581D02*
D03*
X1472Y2032D02*
D03*
X1581D02*
D03*
X1472Y1808D02*
D03*
X1363D02*
D03*
X1690Y2032D02*
D03*
X1799D02*
D03*
X1254Y1808D02*
D03*
X1145D02*
D03*
X1908Y2032D02*
D03*
X2017D02*
D03*
X1036Y1808D02*
D03*
X927D02*
D03*
X2126Y2032D02*
D03*
X2235D02*
D03*
X818Y1808D02*
D03*
X709D02*
D03*
X2344Y2032D02*
D03*
X655Y1920D02*
D03*
X600Y1808D02*
D03*
X2289Y1920D02*
D03*
X763D02*
D03*
X873D02*
D03*
X2181D02*
D03*
X2072D02*
D03*
X982D02*
D03*
X1090D02*
D03*
X1962D02*
D03*
X1854D02*
D03*
X1199D02*
D03*
X1309D02*
D03*
X1745D02*
D03*
X1635D02*
D03*
X1418D02*
D03*
X1526D02*
D03*
D20*
X2735Y1391D02*
D03*
D21*
X2635D02*
D03*
X2535D02*
D03*
X2435D02*
D03*
X2335D02*
D03*
X2235D02*
D03*
X2135D02*
D03*
X2035D02*
D03*
X1935D02*
D03*
X1835D02*
D03*
X1735D02*
D03*
X1635D02*
D03*
X1535D02*
D03*
X1435D02*
D03*
X1335D02*
D03*
X1235D02*
D03*
X1135D02*
D03*
X1035D02*
D03*
X935D02*
D03*
X835D02*
D03*
X2735Y791D02*
D03*
X2635D02*
D03*
X2535D02*
D03*
X2435D02*
D03*
X2335D02*
D03*
X2235D02*
D03*
X2135D02*
D03*
X2035D02*
D03*
X1935D02*
D03*
X1835D02*
D03*
X1735D02*
D03*
X1635D02*
D03*
X1535D02*
D03*
X1435D02*
D03*
X1335D02*
D03*
X1235D02*
D03*
X1135D02*
D03*
X1035D02*
D03*
X935D02*
D03*
X835D02*
D03*
D22*
X600Y2032D02*
D03*
D23*
X249Y1920D02*
D03*
X2655D02*
D03*
D24*
X195Y476D02*
D03*
X2385Y888D02*
D03*
X2103Y949D02*
D03*
X2396Y923D02*
D03*
X1834Y1597D02*
D03*
X2440Y1052D02*
D03*
X2484Y1167D02*
D03*
X1695Y1290D02*
D03*
X2530Y1130D02*
D03*
X2119Y615D02*
D03*
X339Y1145D02*
D03*
X198Y1329D02*
D03*
X385Y296D02*
D03*
X168Y306D02*
D03*
X184Y1297D02*
D03*
X353Y273D02*
D03*
X574Y1357D02*
D03*
X551Y1393D02*
D03*
X520Y1363D02*
D03*
X505Y1245D02*
D03*
Y1250D02*
D03*
X470Y1237D02*
D03*
X1162Y1307D02*
D03*
X2046Y1200D02*
D03*
X376Y704D02*
D03*
X711Y817D02*
D03*
X1632Y2035D02*
D03*
X655Y2032D02*
D03*
X885Y1401D02*
D03*
X1322Y1308D02*
D03*
X1904Y1660D02*
D03*
X1178Y1527D02*
D03*
X2051Y668D02*
D03*
X325Y837D02*
D03*
X1984Y1578D02*
D03*
X2318Y1116D02*
D03*
X170Y1581D02*
D03*
X766Y2173D02*
D03*
X929Y2148D02*
D03*
X1254Y1716D02*
D03*
X945D02*
D03*
X873Y1788D02*
D03*
X2641Y1721D02*
D03*
X616Y1238D02*
D03*
X525Y320D02*
D03*
X218D02*
D03*
X238Y1367D02*
D03*
X291Y1220D02*
D03*
X2479Y1016D02*
D03*
X617Y1480D02*
D03*
X1456Y1700D02*
D03*
X459Y1280D02*
D03*
X418Y1352D02*
D03*
X226Y528D02*
D03*
X286Y1015D02*
D03*
X2217Y900D02*
D03*
X2249Y1307D02*
D03*
X2058Y511D02*
D03*
X325Y400D02*
D03*
X275Y1323D02*
D03*
X246Y1244D02*
D03*
X2262Y1672D02*
D03*
D25*
X225Y590D02*
D03*
X275D02*
D03*
X325D02*
D03*
X375D02*
D03*
X425D02*
D03*
X475D02*
D03*
X525D02*
D03*
X575D02*
D03*
X625D02*
D03*
X675D02*
D03*
X725D02*
D03*
X775D02*
D03*
X825D02*
D03*
X875D02*
D03*
X225Y210D02*
D03*
X275D02*
D03*
X325D02*
D03*
X375D02*
D03*
X425D02*
D03*
X475D02*
D03*
X525D02*
D03*
X575D02*
D03*
X625D02*
D03*
X675D02*
D03*
X725D02*
D03*
X775D02*
D03*
X825D02*
D03*
X875D02*
D03*
D26*
X2106Y420D02*
D03*
X2054D02*
D03*
Y560D02*
D03*
X2106D02*
D03*
X2454Y1200D02*
D03*
X2506D02*
D03*
X2114D02*
D03*
X2166D02*
D03*
X1911Y871D02*
D03*
X1859D02*
D03*
X1559Y1271D02*
D03*
X1611D02*
D03*
X1139D02*
D03*
X1191D02*
D03*
X1399D02*
D03*
X1451D02*
D03*
D27*
X2371Y950D02*
D03*
Y976D02*
D03*
Y1002D02*
D03*
Y1027D02*
D03*
Y1053D02*
D03*
Y1078D02*
D03*
Y1104D02*
D03*
Y1130D02*
D03*
X2589Y950D02*
D03*
Y976D02*
D03*
Y1002D02*
D03*
Y1027D02*
D03*
Y1053D02*
D03*
Y1078D02*
D03*
Y1104D02*
D03*
Y1130D02*
D03*
X2031Y950D02*
D03*
Y976D02*
D03*
Y1002D02*
D03*
Y1027D02*
D03*
Y1053D02*
D03*
Y1078D02*
D03*
Y1104D02*
D03*
Y1130D02*
D03*
X2249Y950D02*
D03*
Y976D02*
D03*
Y1002D02*
D03*
Y1027D02*
D03*
Y1053D02*
D03*
Y1078D02*
D03*
Y1104D02*
D03*
Y1130D02*
D03*
D28*
X970Y474D02*
D03*
Y526D02*
D03*
X1745Y886D02*
D03*
Y937D02*
D03*
X1645Y886D02*
D03*
Y937D02*
D03*
X945D02*
D03*
Y886D02*
D03*
X1785Y1277D02*
D03*
Y1226D02*
D03*
X2725D02*
D03*
Y1277D02*
D03*
X945Y1257D02*
D03*
Y1206D02*
D03*
X845Y1257D02*
D03*
Y1206D02*
D03*
Y886D02*
D03*
Y937D02*
D03*
X1125Y1157D02*
D03*
Y1106D02*
D03*
M02*
