<?xml version="1.0" encoding="UTF-8" standalone="no"?>
<!-- Created with Inkscape (http://www.inkscape.org/) -->
<svg
   xmlns:dc="http://purl.org/dc/elements/1.1/"
   xmlns:cc="http://creativecommons.org/ns#"
   xmlns:rdf="http://www.w3.org/1999/02/22-rdf-syntax-ns#"
   xmlns:svg="http://www.w3.org/2000/svg"
   xmlns="http://www.w3.org/2000/svg"
   xmlns:sodipodi="http://sodipodi.sourceforge.net/DTD/sodipodi-0.dtd"
   xmlns:inkscape="http://www.inkscape.org/namespaces/inkscape"
   width="256"
   height="256"
   id="svg2"
   sodipodi:version="0.32"
   inkscape:version="0.46"
   version="1.0"
   sodipodi:docname="circle-square.svg"
   inkscape:output_extension="org.inkscape.output.svg.inkscape">
  <sodipodi:namedview
     id="base"
     pagecolor="#ffffff"
     bordercolor="#666666"
     borderopacity="1.0"
     gridtolerance="10000"
     guidetolerance="10"
     objecttolerance="10"
     inkscape:pageopacity="0.0"
     inkscape:pageshadow="2"
     inkscape:zoom="1.4"
     inkscape:cx="119.48217"
     inkscape:cy="140.07751"
     inkscape:document-units="px"
     inkscape:current-layer="layer1"
     showgrid="false"
     inkscape:window-width="640"
     inkscape:window-height="675"
     inkscape:window-x="66"
     inkscape:window-y="66" />
  <defs
     id="defs4">
    <inkscape:perspective
       id="perspective10"
       inkscape:persp3d-origin="372.04724 : 350.78739 : 1"
       inkscape:vp_z="744.09448 : 526.18109 : 1"
       inkscape:vp_y="0 : 1000 : 0"
       inkscape:vp_x="0 : 526.18109 : 1"
       sodipodi:type="inkscape:persp3d" />
  </defs>
  <metadata
     id="metadata7">
    <rdf:RDF>
      <cc:Work
         rdf:about="">
        <dc:format>image/svg+xml</dc:format>
        <dc:type
           rdf:resource="http://purl.org/dc/dcmitype/StillImage" />
      </cc:Work>
    </rdf:RDF>
  </metadata>
  <g
     id="layer1"
     inkscape:groupmode="layer"
     inkscape:label="Layer 1">
    <path
       id="rect2383"
       style="fill:none;fill-opacity:1;stroke:#000000;stroke-width:2.00458384;stroke-miterlimit:4;stroke-opacity:1"
       d="M 28.234436,32.091576 L 148.50947,32.091576 L 148.50947,152.36661 L 28.234436,152.36661 L 28.234436,32.091576 zM 94.099348,71.610512 L 161.68246,71.610512 C 176.27812,71.610512 188.02842,83.36081 188.02842,97.956472 L 188.02842,165.53958 C 188.02842,180.13525 176.27812,191.88554 161.68246,191.88554 L 94.099348,191.88554 C 79.503686,191.88554 67.753387,180.13525 67.753387,165.53958 L 67.753387,97.956472 C 67.753387,83.36081 79.503686,71.610512 94.099348,71.610512 zM 166.83709,112.84767 C 200.15328,112.84767 226.97461,139.669 226.97461,172.98519 C 226.97461,206.30137 200.15328,233.1227 166.83709,233.1227 C 133.52091,233.1227 106.69958,206.30137 106.69958,172.98519 C 106.69958,139.669 133.52091,112.84767 166.83709,112.84767 z" />
  </g>
</svg>
