<?xml version="1.0" encoding="UTF-8" standalone="no"?>
<!-- Created with Inkscape (http://www.inkscape.org/) -->
<svg
   xmlns:dc="http://purl.org/dc/elements/1.1/"
   xmlns:cc="http://creativecommons.org/ns#"
   xmlns:rdf="http://www.w3.org/1999/02/22-rdf-syntax-ns#"
   xmlns:svg="http://www.w3.org/2000/svg"
   xmlns="http://www.w3.org/2000/svg"
   xmlns:sodipodi="http://sodipodi.sourceforge.net/DTD/sodipodi-0.dtd"
   xmlns:inkscape="http://www.inkscape.org/namespaces/inkscape"
   id="svg2440"
   sodipodi:version="0.32"
   inkscape:version="0.46"
   width="350"
   height="256"
   version="1.0"
   sodipodi:docname="cu-logo.svg"
   inkscape:output_extension="org.inkscape.output.svg.inkscape">
  <metadata
     id="metadata2445">
    <rdf:RDF>
      <cc:Work
         rdf:about="">
        <dc:format>image/svg+xml</dc:format>
        <dc:type
           rdf:resource="http://purl.org/dc/dcmitype/StillImage" />
      </cc:Work>
    </rdf:RDF>
  </metadata>
  <defs
     id="defs2443">
    <inkscape:perspective
       sodipodi:type="inkscape:persp3d"
       inkscape:vp_x="0 : 526.18109 : 1"
       inkscape:vp_y="0 : 1000 : 0"
       inkscape:vp_z="744.09448 : 526.18109 : 1"
       inkscape:persp3d-origin="372.04724 : 350.78739 : 1"
       id="perspective2447" />
  </defs>
  <sodipodi:namedview
     inkscape:window-height="675"
     inkscape:window-width="640"
     inkscape:pageshadow="2"
     inkscape:pageopacity="0.0"
     guidetolerance="10.0"
     gridtolerance="10.0"
     objecttolerance="10.0"
     borderopacity="1.0"
     bordercolor="#666666"
     pagecolor="#ffffff"
     id="base"
     showgrid="false"
     inkscape:zoom="1.099046"
     inkscape:cx="125.52527"
     inkscape:cy="213.32696"
     inkscape:window-x="213"
     inkscape:window-y="66"
     inkscape:current-layer="svg2440" />
  <path
     style="fill:none;fill-rule:evenodd;stroke:#000000;stroke-width:1px;stroke-linecap:butt;stroke-linejoin:miter;stroke-opacity:1"
     d="M 70.385682,48.164265 L 71.120986,47.137394 L 146.22014,36.173823 L 162.93556,53.043595 L 162.30143,77.043812 L 138.89268,80.461205 L 138.76778,60.709659 L 72.488066,71.654194 L 82.749919,130.49575 L 101.20681,127.80127 L 101.71937,106.11761 L 94.066498,107.23484 L 93.941585,87.48329 L 125.90353,82.817231 L 125.58162,124.70261 L 137.73615,122.92819 L 138.31443,101.69469 L 162.17333,98.211582 L 162.44942,125.29725 L 146.17113,146.06419 L 125.91356,149.02155 L 125.19399,166.13782 L 172.9118,159.17158 L 174.07153,75.785283 L 206.03347,71.119224 L 206.60855,90.805051 L 197.60519,92.119435 L 198.52541,161.40922 L 182.24712,182.17615 L 121.02423,191.11396 L 101.22336,175.15439 L 101.53875,152.12022 L 75.428995,155.93193 L 57.494508,140.15965 L 57.333317,66.621201 L 70.385682,48.164265 z"
     id="path2451"
     sodipodi:nodetypes="cccccccccccccccccccccccccccccccccccc" />
</svg>
