<?xml version="1.0" encoding="UTF-8" standalone="no"?>
<!-- Created with Inkscape (http://www.inkscape.org/) -->
<svg
   xmlns:dc="http://purl.org/dc/elements/1.1/"
   xmlns:cc="http://creativecommons.org/ns#"
   xmlns:rdf="http://www.w3.org/1999/02/22-rdf-syntax-ns#"
   xmlns:svg="http://www.w3.org/2000/svg"
   xmlns="http://www.w3.org/2000/svg"
   xmlns:sodipodi="http://sodipodi.sourceforge.net/DTD/sodipodi-0.dtd"
   xmlns:inkscape="http://www.inkscape.org/namespaces/inkscape"
   id="svg2461"
   sodipodi:version="0.32"
   inkscape:version="0.46"
   width="431"
   height="375"
   version="1.0"
   sodipodi:docname="ignognokt-3.svg"
   inkscape:output_extension="org.inkscape.output.svg.inkscape">
  <metadata
     id="metadata2466">
    <rdf:RDF>
      <cc:Work
         rdf:about="">
        <dc:format>image/svg+xml</dc:format>
        <dc:type
           rdf:resource="http://purl.org/dc/dcmitype/StillImage" />
      </cc:Work>
    </rdf:RDF>
  </metadata>
  <defs
     id="defs2464">
    <inkscape:perspective
       sodipodi:type="inkscape:persp3d"
       inkscape:vp_x="0 : 526.18109 : 1"
       inkscape:vp_y="0 : 1000 : 0"
       inkscape:vp_z="744.09448 : 526.18109 : 1"
       inkscape:persp3d-origin="372.04724 : 350.78739 : 1"
       id="perspective2468" />
    <inkscape:perspective
       id="perspective3378"
       inkscape:persp3d-origin="372.04724 : 350.78739 : 1"
       inkscape:vp_z="744.09448 : 526.18109 : 1"
       inkscape:vp_y="0 : 1000 : 0"
       inkscape:vp_x="0 : 526.18109 : 1"
       sodipodi:type="inkscape:persp3d" />
    <inkscape:perspective
       id="perspective3391"
       inkscape:persp3d-origin="372.04724 : 350.78739 : 1"
       inkscape:vp_z="744.09448 : 526.18109 : 1"
       inkscape:vp_y="0 : 1000 : 0"
       inkscape:vp_x="0 : 526.18109 : 1"
       sodipodi:type="inkscape:persp3d" />
  </defs>
  <sodipodi:namedview
     inkscape:window-height="1003"
     inkscape:window-width="1680"
     inkscape:pageshadow="2"
     inkscape:pageopacity="0.0"
     guidetolerance="10.0"
     gridtolerance="10.0"
     objecttolerance="10.0"
     borderopacity="1.0"
     bordercolor="#666666"
     pagecolor="#ffffff"
     id="base"
     showgrid="false"
     inkscape:zoom="1.7423111"
     inkscape:cx="262.20305"
     inkscape:cy="249.51591"
     inkscape:window-x="0"
     inkscape:window-y="20"
     inkscape:current-layer="svg2461" />
  <path
     style="fill:none;fill-rule:evenodd;stroke:#000000;stroke-width:2.14285707;stroke-linecap:butt;stroke-linejoin:miter;stroke-miterlimit:4;stroke-dasharray:none;stroke-opacity:1"
     d="M 259.47793,115.68572 L 246.87425,78.712268 L 232.10107,84.112969 L 228.48162,74.521039 L 241.60456,70.210722 L 232.93398,41.205884 L 242.60274,38.083058 L 253.7238,66.647787 L 266.331,62.085614 L 270.603,71.976229 L 256.72819,76.518219 L 272.63536,122.74964 L 241.9316,133.30518 L 262.7788,193.94511 L 212.11759,211.36176 L 218.71481,230.55162 L 249.80237,219.86413 L 256.92736,240.58917 L 204.73096,258.53359 L 190.34904,216.69972 L 170.77537,223.42888 L 185.02536,264.87896 L 133.98036,282.42756 L 126.32759,260.16732 L 159.33413,248.82011 L 152.47303,228.86266 L 91.833094,249.70987 L 70.985891,189.06993 L 51.796033,195.66715 L 65.914077,236.73344 L 54.783963,240.55982 L 40.929809,200.26113 L 48.485397,184.78889 L 79.572954,174.1014 L 59.913251,116.91565 L 49.934534,120.34619 L 40.170655,91.945208 L 41.190098,91.165574 L 79.9536,77.839197 L 69.925834,48.670626 L 99.094407,38.64286 L 102.52496,48.621586 L 112.50368,45.191033 L 119.36478,65.148474 L 139.32224,58.287368 L 135.49585,47.157254 L 165.04822,36.997542 L 158.451,17.807686 L 188.00338,7.6479737 L 225.34362,116.26254 L 235.70615,112.70005 L 239.1367,122.67878 L 259.47793,115.68572 z"
     id="path3441" />
</svg>
