<?xml version="1.0" encoding="UTF-8" standalone="no"?>
<!-- Created with Inkscape (http://www.inkscape.org/) -->
<svg
   xmlns:dc="http://purl.org/dc/elements/1.1/"
   xmlns:cc="http://creativecommons.org/ns#"
   xmlns:rdf="http://www.w3.org/1999/02/22-rdf-syntax-ns#"
   xmlns:svg="http://www.w3.org/2000/svg"
   xmlns="http://www.w3.org/2000/svg"
   xmlns:sodipodi="http://sodipodi.sourceforge.net/DTD/sodipodi-0.dtd"
   xmlns:inkscape="http://www.inkscape.org/namespaces/inkscape"
   version="1.0"
   width="75"
   height="75"
   id="svg34864"
   sodipodi:version="0.32"
   inkscape:version="0.46"
   sodipodi:docname="Mars_symbol.svg"
   inkscape:output_extension="org.inkscape.output.svg.inkscape">
  <metadata
     id="metadata10">
    <rdf:RDF>
      <cc:Work
         rdf:about="">
        <dc:format>image/svg+xml</dc:format>
        <dc:type
           rdf:resource="http://purl.org/dc/dcmitype/StillImage" />
      </cc:Work>
    </rdf:RDF>
  </metadata>
  <sodipodi:namedview
     inkscape:window-height="675"
     inkscape:window-width="640"
     inkscape:pageshadow="2"
     inkscape:pageopacity="0.0"
     guidetolerance="10.0"
     gridtolerance="10.0"
     objecttolerance="10.0"
     borderopacity="1.0"
     bordercolor="#666666"
     pagecolor="#ffffff"
     id="base"
     showgrid="false"
     inkscape:zoom="0.77"
     inkscape:cx="60.398578"
     inkscape:cy="25.036651"
     inkscape:window-x="158"
     inkscape:window-y="154"
     inkscape:current-layer="svg34864" />
  <defs
     id="defs34866">
    <inkscape:perspective
       sodipodi:type="inkscape:persp3d"
       inkscape:vp_x="0 : 37.5 : 1"
       inkscape:vp_y="0 : 1000 : 0"
       inkscape:vp_z="75 : 37.5 : 1"
       inkscape:persp3d-origin="37.5 : 25 : 1"
       id="perspective12" />
  </defs>
  <path
     style="fill:#000000;fill-opacity:1;fill-rule:evenodd;stroke:none;stroke-width:5.82811928;stroke-linecap:butt;stroke-linejoin:miter;marker:none;stroke-miterlimit:4;stroke-dasharray:none;stroke-dashoffset:0;stroke-opacity:1;visibility:visible;display:inline;overflow:visible"
     d="M 118.34466,-1.5753245 L 127.84912,19.098057 C 144.74272,11.331331 149.8873,8.9661395 157.36672,5.5275207 L 135.69477,63.836107 C 115.2335,59.211115 94.419085,61.778658 76.197473,70.164221 C 54.527865,80.136547 36.625853,98.215446 27.671757,122.20381 C 9.7635719,170.18055 34.300026,223.7983 82.351624,241.4306 C 130.40322,259.0629 184.17216,234.36278 202.08035,186.38605 C 218.73506,141.76745 198.55958,92.335416 157.00569,71.448115 L 178.72844,13.250089 L 192.24816,42.657145 L 212.81101,33.2035 L 187.85545,-21.077943 L 183.12863,-31.359358 L 172.84719,-26.632531 C 172.84719,-26.632531 162.9319,-22.074039 162.56578,-21.905714 C 160.99109,-21.181755 162.59649,-21.91983 118.34466,-1.5753245 z M 85.600281,90.616497 C 101.97653,83.079615 121.25182,81.759127 139.51654,88.461269 C 176.04597,101.86555 194.40119,142.00596 180.77835,178.50211 C 167.1555,214.99826 126.76499,233.53288 90.235567,220.12859 C 53.706141,206.7243 35.291181,166.74529 48.914037,130.24914 C 55.725465,112.00106 69.224028,98.153379 85.600281,90.616497 z"
     id="path26867" />
</svg>
