<?xml version="1.0" encoding="UTF-8" standalone="no"?>
<!-- Created with Inkscape (http://www.inkscape.org/) -->

<svg
   xmlns:dc="http://purl.org/dc/elements/1.1/"
   xmlns:cc="http://creativecommons.org/ns#"
   xmlns:rdf="http://www.w3.org/1999/02/22-rdf-syntax-ns#"
   xmlns:svg="http://www.w3.org/2000/svg"
   xmlns="http://www.w3.org/2000/svg"
   xmlns:sodipodi="http://sodipodi.sourceforge.net/DTD/sodipodi-0.dtd"
   xmlns:inkscape="http://www.inkscape.org/namespaces/inkscape"
   id="svg1"
   sodipodi:version="0.32"
   inkscape:version="0.48.1 r9760"
   width="256"
   height="256"
   sodipodi:docname="mrpink.svg"
   inkscape:output_extension="org.inkscape.output.svg.inkscape"
   version="1.0">
  <defs
     id="defs3">
    <inkscape:perspective
       sodipodi:type="inkscape:persp3d"
       inkscape:vp_x="0 : 116.18125 : 1"
       inkscape:vp_y="0 : 1000 : 0"
       inkscape:vp_z="266.60001 : 116.18125 : 1"
       inkscape:persp3d-origin="133.3 : 77.454168 : 1"
       id="perspective31" />
  </defs>
  <sodipodi:namedview
     id="base"
     pagecolor="#ffffff"
     bordercolor="#666666"
     borderopacity="1.0"
     inkscape:pageopacity="1.0000000"
     inkscape:pageshadow="2"
     inkscape:zoom="1.7366335"
     inkscape:cx="96.165156"
     inkscape:cy="101.77977"
     inkscape:window-width="787"
     inkscape:window-height="856"
     inkscape:window-x="635"
     inkscape:window-y="2"
     showgrid="false"
     inkscape:current-layer="svg1"
     inkscape:window-maximized="0">
    <inkscape:grid
       type="xygrid"
       id="grid2416"
       visible="true"
       enabled="true" />
  </sodipodi:namedview>
  <metadata
     id="metadata4">
    <rdf:RDF>
      <cc:Work
         rdf:about="">
        <dc:format>image/svg+xml</dc:format>
        <dc:type
           rdf:resource="http://purl.org/dc/dcmitype/StillImage" />
        <dc:title></dc:title>
      </cc:Work>
    </rdf:RDF>
  </metadata>
  <path
     style="fill:none;stroke:#000000;stroke-opacity:1"
     d="m 46.52,218.11 0,-10.89 3.74,0 3.74,0 0,-3.74 0,-3.74 7.26,0 7.26,0 0,-11 0,-11 3.74,0 3.74,0 0,-11 0,-11 -3.74,0 -3.74,0 0,-3.63 0,-3.63 -7.26,0 -7.26,0 0,-3.74 0,-3.74 -3.74,0 -3.74,0 0,-3.63 0,-3.63 -3.63,0 -3.63,0 0,-11 0,-11 -3.63,0 -3.63,0 0,-22 0,-22 3.63,0 3.63,0 0,-11 0,-11 3.63,0 3.63,0 0,-3.63 0,-3.63 3.74,0 3.74,0 0,-3.74 0,-3.74 7.26,0 7.26,0 0,22 0,22 3.74,0 3.74,0 0,3.74 0,3.74 3.63,0 3.63,0 0,3.63 0,3.63 3.63,0 3.63,0 0,-7.37 0,-7.37 3.74,0 3.74,0 0,-3.63 0,-3.63 3.63,0 3.63,0 0,-3.63 0,-3.63 -7.37,0 -7.37,0 0,-3.74 0,-3.74 44,0 44,0 0,3.74 0,3.74 -3.63,0 -3.63,0 0,3.63 0,3.63 3.63,0 3.63,0 0,3.63 0,3.63 3.74,0 3.74,0 0,3.74 0,3.74 3.63,0 3.63,0 0,3.63 0,3.63 3.63,0 3.63,0 0,3.63 0,3.63 3.74,0 3.74,0 0,3.74 0,3.74 3.63,0 3.63,0 0,3.63 0,3.63 3.74,0 3.74,0 0,18.37 0,18.37 -3.74,0 -3.74,0 0,3.63 0,3.63 -3.63,0 -3.63,0 0,3.63 0,3.63 -3.74,0 -3.74,0 0,14.74 0,14.74 3.74,0 3.74,0 0,3.63 0,3.63 3.63,0 3.63,0 0,3.74 0,3.74 3.74,0 3.74,0 0,7.26 0,7.26 3.63,0 3.63,0 0,3.63 0,3.63 -33,0 -33,0 0,-7.26 0,-7.26 -3.74,0 -3.74,0 0,-7.37 0,-7.37 -7.26,0 -7.26,0 0,-3.63 0,-3.63 -14.74,0 -14.74,0 0,7.37 0,7.37 -3.63,0 -3.63,0 0,10.89 0,10.89 -29.37,0 -29.37,0 0,-10.89 z"
     id="path3230" />
  <path
     style="fill:none;stroke:#000000;stroke-opacity:1"
     d="m 120,108.11 0,-3.63 -3.74,0 -3.74,0 0,-7.37 0,-7.37 18.37,0 18.37,0 0,7.37 0,7.37 -3.63,0 -3.63,0 0,3.63 0,3.63 -11,0 -11,0 0,-3.63 z"
     id="path3226" />
  <path
     style="fill:none;stroke:#000000;stroke-opacity:1"
     d="m 112.52,78.74 0,-3.74 3.74,0 3.74,0 0,3.74 0,3.74 -3.74,0 -3.74,0 0,-3.74 z"
     id="path3224" />
  <path
     style="fill:none;stroke:#000000;stroke-opacity:1"
     d="m 142,78.74 0,-3.74 3.63,0 3.63,0 0,3.74 0,3.74 -3.63,0 -3.63,0 0,-3.74 z"
     id="path3222" />
  <path
     style="fill:none;stroke:#000000;stroke-opacity:1"
     d="m 112.52,38.37 0,-7.37 25.74,0 25.74,0 0,7.37 0,7.37 -25.74,0 -25.74,0 0,-7.37 z"
     id="path3199" />
</svg>
