<?xml version="1.0" encoding="UTF-8" standalone="no"?>
<!-- Created with Inkscape (http://www.inkscape.org/) -->

<svg
   xmlns:dc="http://purl.org/dc/elements/1.1/"
   xmlns:cc="http://creativecommons.org/ns#"
   xmlns:rdf="http://www.w3.org/1999/02/22-rdf-syntax-ns#"
   xmlns:svg="http://www.w3.org/2000/svg"
   xmlns="http://www.w3.org/2000/svg"
   xmlns:sodipodi="http://sodipodi.sourceforge.net/DTD/sodipodi-0.dtd"
   xmlns:inkscape="http://www.inkscape.org/namespaces/inkscape"
   id="svg1"
   sodipodi:version="0.32"
   inkscape:version="0.48.1 r9760"
   width="256"
   height="256"
   sodipodi:docname="mrpink.svg"
   inkscape:output_extension="org.inkscape.output.svg.inkscape"
   version="1.0">
  <defs
     id="defs3">
    <inkscape:perspective
       sodipodi:type="inkscape:persp3d"
       inkscape:vp_x="0 : 116.18125 : 1"
       inkscape:vp_y="0 : 1000 : 0"
       inkscape:vp_z="266.60001 : 116.18125 : 1"
       inkscape:persp3d-origin="133.3 : 77.454168 : 1"
       id="perspective31" />
  </defs>
  <sodipodi:namedview
     id="base"
     pagecolor="#ffffff"
     bordercolor="#666666"
     borderopacity="1.0"
     inkscape:pageopacity="1.0000000"
     inkscape:pageshadow="2"
     inkscape:zoom="1.7366335"
     inkscape:cx="96.165156"
     inkscape:cy="101.77977"
     inkscape:window-width="787"
     inkscape:window-height="856"
     inkscape:window-x="385"
     inkscape:window-y="0"
     showgrid="false"
     inkscape:current-layer="svg1"
     inkscape:window-maximized="0">
    <inkscape:grid
       type="xygrid"
       id="grid2416"
       visible="true"
       enabled="true" />
  </sodipodi:namedview>
  <metadata
     id="metadata4">
    <rdf:RDF>
      <cc:Work
         rdf:about="">
        <dc:format>image/svg+xml</dc:format>
        <dc:type
           rdf:resource="http://purl.org/dc/dcmitype/StillImage" />
        <dc:title></dc:title>
      </cc:Work>
    </rdf:RDF>
  </metadata>
  <path
     style="fill:none;stroke:#000000;stroke-opacity:1"
     d="m 46.52,218.11 c 0,-3.63 0,-7.26 0,-10.89 1.246667,0 2.493333,0 3.74,0 1.246667,0 2.493333,0 3.74,0 0,-1.24667 0,-2.49333 0,-3.74 0,-1.24667 0,-2.49333 0,-3.74 2.42,0 4.84,0 7.26,0 2.42,0 4.84,0 7.26,0 0,-3.66667 0,-7.33333 0,-11 0,-3.66667 0,-7.33333 0,-11 1.246667,0 2.493333,0 3.74,0 1.246667,0 2.493333,0 3.74,0 0,-3.66667 0,-7.33333 0,-11 0,-3.66667 0,-7.33333 0,-11 -1.246667,0 -2.493333,0 -3.74,0 -1.246667,0 -2.493333,0 -3.74,0 0,-1.21 0,-2.42 0,-3.63 0,-1.21 0,-2.42 0,-3.63 -2.42,0 -4.84,0 -7.26,0 -2.42,0 -4.84,0 -7.26,0 0,-1.24667 0,-2.49333 0,-3.74 0,-1.24667 0,-2.49333 0,-3.74 -1.246667,0 -2.493333,0 -3.74,0 -1.246667,0 -2.493333,0 -3.74,0 0,-1.21 0,-2.42 0,-3.63 0,-1.21 0,-2.42 0,-3.63 -1.21,0 -2.42,0 -3.63,0 -1.21,0 -2.42,0 -3.63,0 0,-3.66667 0,-7.33333 0,-11 0,-3.66667 0,-7.33333 0,-11 -1.21,0 -2.42,0 -3.63,0 -1.21,0 -2.42,0 -3.63,0 0,-7.33333 0,-14.666667 0,-22 0,-7.333333 0,-14.666667 0,-22 1.21,0 2.42,0 3.63,0 1.21,0 2.42,0 3.63,0 0,-3.666667 0,-7.333333 0,-11 0,-3.666667 0,-7.333333 0,-11 1.21,0 2.42,0 3.63,0 1.21,0 2.42,0 3.63,0 0,-1.21 0,-2.42 0,-3.63 0,-1.21 0,-2.42 0,-3.63 1.246667,0 2.493333,0 3.74,0 1.246667,0 2.493333,0 3.74,0 0,-1.246667 0,-2.493333 0,-3.74 0,-1.246667 0,-2.493333 0,-3.74 2.42,0 4.84,0 7.26,0 2.42,0 4.84,0 7.26,0 0,7.333333 0,14.666667 0,22 0,7.333333 0,14.666667 0,22 1.246667,0 2.493333,0 3.74,0 1.246667,0 2.493333,0 3.74,0 0,1.246667 0,2.493333 0,3.74 0,1.246667 0,2.493333 0,3.74 1.21,0 2.42,0 3.63,0 1.21,0 2.42,0 3.63,0 0,1.21 0,2.42 0,3.63 0,1.21 0,2.42 0,3.63 1.21,0 2.42,0 3.63,0 1.21,0 2.42,0 3.63,0 0,-2.456667 0,-4.913333 0,-7.37 0,-2.456667 0,-4.913333 0,-7.37 1.246667,0 2.493333,0 3.74,0 1.246667,0 2.493333,0 3.74,0 0,-1.21 0,-2.42 0,-3.63 0,-1.21 0,-2.42 0,-3.63 1.21,0 2.42,0 3.63,0 1.21,0 2.42,0 3.63,0 0,-1.21 0,-2.42 0,-3.63 0,-1.21 0,-2.42 0,-3.63 -2.45667,0 -4.91333,0 -7.37,0 -2.456667,0 -4.913333,0 -7.37,0 0,-1.246667 0,-2.493333 0,-3.74 0,-1.246667 0,-2.493333 0,-3.74 14.66667,0 29.33333,0 44,0 14.66667,0 29.33333,0 44,0 0,1.246667 0,2.493333 0,3.74 0,1.246667 0,2.493333 0,3.74 -1.21,0 -2.42,0 -3.63,0 -1.21,0 -2.42,0 -3.63,0 0,1.21 0,2.42 0,3.63 0,1.21 0,2.42 0,3.63 1.21,0 2.42,0 3.63,0 1.21,0 2.42,0 3.63,0 0,1.21 0,2.42 0,3.63 0,1.21 0,2.42 0,3.63 1.24667,0 2.49333,0 3.74,0 1.24667,0 2.49333,0 3.74,0 0,1.246667 0,2.493333 0,3.74 0,1.246667 0,2.493333 0,3.74 1.21,0 2.42,0 3.63,0 1.21,0 2.42,0 3.63,0 0,1.21 0,2.42 0,3.63 0,1.21 0,2.42 0,3.63 1.21,0 2.42,0 3.63,0 1.21,0 2.42,0 3.63,0 0,1.21 0,2.42 0,3.63 0,1.21 0,2.42 0,3.63 1.24667,0 2.49333,0 3.74,0 1.24667,0 2.49333,0 3.74,0 0,1.246667 0,2.493333 0,3.74 0,1.24667 0,2.49333 0,3.74 1.21,0 2.42,0 3.63,0 1.21,0 2.42,0 3.63,0 0,1.21 0,2.42 0,3.63 0,1.21 0,2.42 0,3.63 1.24667,0 2.49333,0 3.74,0 1.24667,0 2.49333,0 3.74,0 0,6.12333 0,12.24667 0,18.37 0,6.12333 0,12.24667 0,18.37 -1.24667,0 -2.49333,0 -3.74,0 -1.24667,0 -2.49333,0 -3.74,0 0,1.21 0,2.42 0,3.63 0,1.21 0,2.42 0,3.63 -1.21,0 -2.42,0 -3.63,0 -1.21,0 -2.42,0 -3.63,0 0,1.21 0,2.42 0,3.63 0,1.21 0,2.42 0,3.63 -1.24667,0 -2.49333,0 -3.74,0 -1.24667,0 -2.49333,0 -3.74,0 0,4.91333 0,9.82667 0,14.74 0,4.91333 0,9.82667 0,14.74 1.24667,0 2.49333,0 3.74,0 1.24667,0 2.49333,0 3.74,0 0,1.21 0,2.42 0,3.63 0,1.21 0,2.42 0,3.63 1.21,0 2.42,0 3.63,0 1.21,0 2.42,0 3.63,0 0,1.24667 0,2.49333 0,3.74 0,1.24667 0,2.49333 0,3.74 1.24667,0 2.49333,0 3.74,0 1.24667,0 2.49333,0 3.74,0 0,2.42 0,4.84 0,7.26 0,2.42 0,4.84 0,7.26 1.21,0 2.42,0 3.63,0 1.21,0 2.42,0 3.63,0 0,1.21 0,2.42 0,3.63 0,1.21 0,2.42 0,3.63 -11,0 -22,0 -33,0 -11,0 -22,0 -33,0 0,-2.42 0,-4.84 0,-7.26 0,-2.42 0,-4.84 0,-7.26 -1.24667,0 -2.49333,0 -3.74,0 -1.24667,0 -2.49333,0 -3.74,0 0,-2.45667 0,-4.91333 0,-7.37 0,-2.45667 0,-4.91333 0,-7.37 -2.42,0 -4.84,0 -7.26,0 -2.42,0 -4.84,0 -7.26,0 0,-1.21 0,-2.42 0,-3.63 0,-1.21 0,-2.42 0,-3.63 -4.91333,0 -9.82667,0 -14.74,0 -4.91333,0 -9.82667,0 -14.74,0 0,2.45667 0,4.91333 0,7.37 0,2.45667 0,4.91333 0,7.37 -1.21,0 -2.42,0 -3.63,0 -1.21,0 -2.42,0 -3.63,0 0,3.63 0,7.26 0,10.89 0,3.63 0,7.26 0,10.89 -9.79,0 -19.58,0 -29.37,0 -9.79,0 -19.58,0 -29.37,0 0,-3.63 0,-7.26 0,-10.89 z"
     id="path3230"
     inkscape:connector-curvature="0"
     sodipodi:nodetypes="ccccccccccccccccccccccccccccccccccccccccccccccccccccccccccccccccccccccccccccccccccccccccccccccccccccccccccccccccccccccccccccccccccccccccccccccccccccccccccccccccc" />
  <path
     style="fill:none;stroke:#000000;stroke-opacity:1"
     d="m 120,108.11 c 0,-1.21 0,-2.42 0,-3.63 -1.24667,0 -2.49333,0 -3.74,0 -1.24667,0 -2.49333,0 -3.74,0 0,-2.45667 0,-4.913333 0,-7.37 0,-2.456667 0,-4.913333 0,-7.37 6.12333,0 12.24667,0 18.37,0 6.12333,0 12.24667,0 18.37,0 0,2.456667 0,4.913333 0,7.37 0,2.456667 0,4.91333 0,7.37 -1.21,0 -2.42,0 -3.63,0 -1.21,0 -2.42,0 -3.63,0 0,1.21 0,2.42 0,3.63 0,1.21 0,2.42 0,3.63 -3.66667,0 -7.33333,0 -11,0 -3.66667,0 -7.33333,0 -11,0 0,-1.21 0,-2.42 0,-3.63 z"
     id="path3226"
     inkscape:connector-curvature="0"
     sodipodi:nodetypes="ccccccccccccccccc" />
  <path
     style="fill:none;stroke:#000000;stroke-opacity:1"
     d="m 112.52,78.74 c 0,-1.246667 0,-2.493333 0,-3.74 1.24667,0 2.49333,0 3.74,0 1.24667,0 2.49333,0 3.74,0 0,1.246667 0,2.493333 0,3.74 0,1.246667 0,2.493333 0,3.74 -1.24667,0 -2.49333,0 -3.74,0 -1.24667,0 -2.49333,0 -3.74,0 0,-1.246667 0,-2.493333 0,-3.74 z"
     id="path3224"
     inkscape:connector-curvature="0"
     sodipodi:nodetypes="ccccccccc" />
  <path
     style="fill:none;stroke:#000000;stroke-opacity:1"
     d="m 142,78.74 c 0,-1.246667 0,-2.493333 0,-3.74 1.21,0 2.42,0 3.63,0 1.21,0 2.42,0 3.63,0 0,1.246667 0,2.493333 0,3.74 0,1.246667 0,2.493333 0,3.74 -1.21,0 -2.42,0 -3.63,0 -1.21,0 -2.42,0 -3.63,0 0,-1.246667 0,-2.493333 0,-3.74 z"
     id="path3222"
     inkscape:connector-curvature="0"
     sodipodi:nodetypes="ccccccccc" />
  <path
     style="fill:none;stroke:#000000;stroke-opacity:1"
     d="m 112.52,38.37 c 0,-2.456667 0,-4.913333 0,-7.37 8.58,0 17.16,0 25.74,0 8.58,0 17.16,0 25.74,0 0,2.456667 0,4.913333 0,7.37 0,2.456667 0,4.913333 0,7.37 -8.58,0 -17.16,0 -25.74,0 -8.58,0 -17.16,0 -25.74,0 0,-2.456667 0,-4.913333 0,-7.37 z"
     id="path3199"
     inkscape:connector-curvature="0"
     sodipodi:nodetypes="ccccccccc" />
</svg>
