<?xml version="1.0" encoding="UTF-8" standalone="no"?>
<!-- Generator: Adobe Illustrator 13.0.2, SVG Export Plug-In . SVG Version: 6.00 Build 14948)  -->
<svg
   xmlns:dc="http://purl.org/dc/elements/1.1/"
   xmlns:cc="http://creativecommons.org/ns#"
   xmlns:rdf="http://www.w3.org/1999/02/22-rdf-syntax-ns#"
   xmlns:svg="http://www.w3.org/2000/svg"
   xmlns="http://www.w3.org/2000/svg"
   xmlns:sodipodi="http://sodipodi.sourceforge.net/DTD/sodipodi-0.dtd"
   xmlns:inkscape="http://www.inkscape.org/namespaces/inkscape"
   version="1.1"
   id="Layer_1"
   x="0px"
   y="0px"
   width="351.36px"
   height="323.227px"
   viewBox="0 0 351.36 323.227"
   enable-background="new 0 0 351.36 323.227"
   xml:space="preserve"
   sodipodi:version="0.32"
   inkscape:version="0.46"
   sodipodi:docname="obama-1.svg"
   inkscape:output_extension="org.inkscape.output.svg.inkscape"><metadata
     id="metadata3109"><rdf:RDF><cc:Work
         rdf:about=""><dc:format>image/svg+xml</dc:format><dc:type
           rdf:resource="http://purl.org/dc/dcmitype/StillImage" /></cc:Work></rdf:RDF></metadata><defs
     id="defs3107" /><sodipodi:namedview
     inkscape:window-height="675"
     inkscape:window-width="640"
     inkscape:pageshadow="2"
     inkscape:pageopacity="0.0"
     guidetolerance="10.0"
     gridtolerance="10.0"
     objecttolerance="10.0"
     borderopacity="1.0"
     bordercolor="#666666"
     pagecolor="#ffffff"
     id="base"
     showgrid="false"
     inkscape:zoom="1.0106932"
     inkscape:cx="250.47188"
     inkscape:cy="167.77979"
     inkscape:window-x="198"
     inkscape:window-y="198"
     inkscape:current-layer="Layer_1" /><path
     style="fill:none;fill-opacity:1;stroke:#000000;stroke-width:0.83216053;stroke-opacity:1"
     d="M 133.18812,-1.0733413 C 58.911981,-1.0733413 -1.309819,59.148454 -1.309819,133.4246 C -1.309819,141.41304 -0.59107695,149.22345 0.74457705,156.82911 C 7.702446,153.79537 24.576072,147.48987 53.066669,142.73439 C 52.715291,139.67809 52.520564,136.57512 52.520564,133.4246 C 52.520567,88.878222 88.635911,52.757044 133.18812,52.757044 C 177.72618,52.757044 213.82968,88.879042 213.82968,133.4246 C 213.82968,136.60154 213.64091,139.73135 213.28357,142.81241 C 241.48857,147.32039 259.28389,153.07424 265.70968,155.37283 C 266.42267,151.94901 267.45422,145.67701 267.66006,133.4246 C 268.8871,59.158584 207.4651,-1.0733413 133.18812,-1.0733413 z"
     id="path3043"
     sodipodi:nodetypes="csccsssccsc" /><path
     style="fill:none;fill-opacity:1;stroke:#000000;stroke-width:0.83216053;stroke-opacity:1"
     id="path3078"
     d="M 133.03792,267.9034 C 199.83794,267.9034 255.24069,219.19788 265.71759,155.36035 C 254.46511,151.33519 208.38839,136.73327 132.50034,136.73327 C 53.487534,136.73327 12.437889,151.72464 0.63286005,156.88736 C 11.740538,219.96763 66.774641,267.9034 133.03792,267.9034 z" /><path
     style="fill:none;fill-opacity:1;stroke:#000000;stroke-width:0.83216053;stroke-opacity:1"
     id="path3091"
     d="M 7.695406,182.15841 C 11.073978,190.83951 15.320493,199.08955 20.3534,206.79453 C 42.665287,198.80578 170.31621,155.61166 259.34157,179.73433 C 260.92185,175.43372 262.27827,171.01079 263.41084,166.51546 C 249.98559,162.14745 156.66462,135.42511 7.695406,182.15841 z" /><path
     style="fill:none;fill-opacity:1;stroke:#000000;stroke-width:0.83216053;stroke-opacity:1"
     id="path3104"
     d="M 46.4641,236.3021 C 57.521848,245.61648 70.100787,253.16833 83.783171,258.54908 C 95.677241,248.83694 149.30083,209.87685 244.27198,209.00974 C 247.29522,204.57599 250.03219,199.93752 252.51453,195.14261 C 238.25213,192.32908 167.89379,182.81166 46.4641,236.3021 z" /></svg>