<?xml version="1.0" encoding="UTF-8" standalone="no"?>
<svg
   xmlns:dc="http://purl.org/dc/elements/1.1/"
   xmlns:cc="http://creativecommons.org/ns#"
   xmlns:rdf="http://www.w3.org/1999/02/22-rdf-syntax-ns#"
   xmlns:svg="http://www.w3.org/2000/svg"
   xmlns="http://www.w3.org/2000/svg"
   xmlns:sodipodi="http://sodipodi.sourceforge.net/DTD/sodipodi-0.dtd"
   xmlns:inkscape="http://www.inkscape.org/namespaces/inkscape"
   xml:space="preserve"
   width="1024"
   height="1024"
   style="fill-rule:evenodd"
   viewBox="0 0 58.5 53.5"
   id="svg2"
   sodipodi:version="0.32"
   inkscape:version="0.46"
   sodipodi:docname="pikachu.svg"
   inkscape:output_extension="org.inkscape.output.svg.inkscape"
   version="1.0"><metadata
   id="metadata47"><rdf:RDF><cc:Work
       rdf:about=""><dc:format>image/svg+xml</dc:format><dc:type
         rdf:resource="http://purl.org/dc/dcmitype/StillImage" /></cc:Work></rdf:RDF></metadata><sodipodi:namedview
   inkscape:window-height="841"
   inkscape:window-width="996"
   inkscape:pageshadow="2"
   inkscape:pageopacity="0.0"
   guidetolerance="10.0"
   gridtolerance="10.0"
   objecttolerance="10.0"
   borderopacity="1.0"
   bordercolor="#666666"
   pagecolor="#ffffff"
   id="base"
   showgrid="false"
   inkscape:zoom="0.03125"
   inkscape:cx="836.31597"
   inkscape:cy="2.612046"
   inkscape:window-x="318"
   inkscape:window-y="55"
   inkscape:current-layer="svg2" />
 <defs
   id="defs4"><inkscape:perspective
   sodipodi:type="inkscape:persp3d"
   inkscape:vp_x="0 : 94.783463 : 1"
   inkscape:vp_y="0 : 1000 : 0"
   inkscape:vp_z="207.28346 : 94.783463 : 1"
   inkscape:persp3d-origin="103.64173 : 63.188975 : 1"
   id="perspective49" />
  <style
   type="text/css"
   id="style6">
   
    .str0 {stroke:#1F1A17;stroke-width:0.13}
    .str1 {stroke:#1F1A17;stroke-width:0.13;stroke-linejoin:round}
    .fil0 {fill:#FFF500}
    .fil1 {fill:none}
    .fil2 {fill:#E77817}
    .fil3 {fill:#1F1A17}
    .fil4 {fill:#71625B}
    .fil5 {fill:#DA251D}
    .fil6 {fill:white}
   
  </style>
 
  
 
   
   
   
   
   
   
   
   
   
   
   
   
   
   
   
   
   
   
   
   
   
   
   
   
   
   
   
   
   
  
    
    
   
    
    
    
   </defs>
 
<path
   id="_91804256"
   style="fill:none;stroke:#000000;stroke-width:1.04317534;stroke-linejoin:bevel;stroke-miterlimit:4;stroke-dasharray:none;stroke-opacity:1"
   d="M 62.490805,262.27539 C 59.196433,267.93909 54.365202,282.6501 64.100848,280.26183 C 69.361728,275.36339 74.44205,270.4399 79.051213,265.54147 M 143.7748,269.31356 C 149.03153,274.34499 166.07519,289.03146 164.56732,276.21373 C 163.08374,272.75153 162.05953,269.27982 160.47321,265.81747 M 278.88013,105.87154 C 244.98266,108.9922 212.11481,111.31399 179.51768,117.55583 L 189.40793,173.21719 L 170.96147,172.43518 L 181.58773,198.70182 L 175.10158,197.96581 C 176.60434,206.07697 177.86538,214.04978 178.68966,221.47239 L 179.01167,222.39241 L 184.99182,220.27635 L 181.08172,207.53404 L 197.73413,210.15611 L 190.46595,187.24754 L 210.98245,187.01753 L 205.83033,154.31074 L 268.98988,165.94902 L 278.88013,105.87154 z M 55.842319,144.66724 L 43.503119,205.97152 C 42.309728,215.51762 41.116856,225.51125 43.279362,235.2811 L 43.279362,235.2811 C 48.798282,251.09199 56.107293,261.98066 70.57561,265.26248 C 86.253493,267.57416 115.3706,257.91748 137.17714,268.02481 C 138.93698,268.84005 139.94521,269.16657 141.87769,269.27245 C 173.02951,270.98482 178.07952,243.49976 179.3136,227.67427 C 177.39885,202.42734 168.58193,168.70096 164.61682,145.13093 M 69.681092,163.23733 C 81.911796,177.85482 91.457892,191.80155 94.963483,211.11803 C 96.766287,218.04698 90.240731,229.88752 82.433907,226.77974 C 68.860627,221.48406 58.419485,211.49044 49.096628,197.46965 M 140.60658,165.92246 C 128.6737,180.53995 120.99227,192.6966 120.2464,213.13136 C 120.32141,220.23318 128.51122,229.25691 134.56555,226.10846 C 145.08128,219.24698 158.72966,210.37216 165.44198,192.0999 M 96.637258,126.5113 C 100.4918,131.90607 107.30895,126.46904 112.30367,126.29066 C 117.82519,128.06354 124.66895,130.75285 127.52933,128.27687 M 108.33177,112.94115 L 112.41424,116.14057 L 116.71682,112.72052 L 108.33177,112.94115 z M 82.956536,100.52893 C 82.956536,106.28412 78.384525,110.955 72.751154,110.955 C 67.117775,110.955 62.545772,106.28412 62.545772,100.52893 C 62.545772,94.773738 67.117775,90.102863 72.751154,90.102863 C 78.384525,90.102863 82.956536,94.773738 82.956536,100.52893 z M 80.97044,97.27422 C 80.97044,100.13659 78.597928,102.45967 75.674658,102.45967 C 72.75138,102.45967 70.378876,100.13659 70.378876,97.27422 C 70.378876,94.41185 72.75138,92.088771 75.674658,92.088771 C 78.597928,92.088771 80.97044,94.41185 80.97044,97.27422 z M 156.76672,101.52203 C 156.76672,107.21632 152.14526,111.83778 146.45097,111.83778 C 140.75667,111.83778 136.13522,107.21632 136.13522,101.52203 C 136.13522,95.827731 140.75667,91.206277 146.45097,91.206277 C 152.14526,91.206277 156.76672,95.827731 156.76672,101.52203 z M 148.38152,97.66072 C 148.38152,100.18813 146.33029,102.23936 143.80287,102.23936 C 141.27546,102.23936 139.22423,100.18813 139.22423,97.66072 C 139.22423,95.13331 141.27546,93.082078 143.80287,93.082078 C 146.33029,93.082078 148.38152,95.13331 148.38152,97.66072 z M 150.44497,159.87687 C 157.49474,149.58385 178.3404,141.68576 172.1575,118.61385 C 171.2974,115.40505 170.58576,112.75231 170.17945,109.41363 C 168.46381,95.317733 167.6256,82.321208 163.18728,72.336716 C 163.43202,72.80048 163.65354,73.278066 163.8773,73.762752 C 180.35947,72.643946 195.95131,73.536805 213.32851,70.404666 C 213.36059,70.37287 213.38855,70.344428 213.42051,70.312663 C 226.88539,66.721084 240.94787,62.828919 253.99351,54.16627 C 245.56765,51.105662 238.02939,49.135859 228.09487,47.818115 C 228.09861,47.804335 228.09117,47.785881 228.09487,47.772111 C 228.0174,47.764402 227.94223,47.779742 227.86487,47.772111 C 196.50639,44.680865 172.56197,48.39207 147.6389,56.650332 C 147.67618,56.818153 147.83849,57.002018 148.09891,57.156345 C 148.88016,57.619316 150.33308,58.032914 150.44497,58.536377 C 149.65829,58.068273 148.8863,57.59258 148.09891,57.156345 C 121.78932,42.580076 95.083755,45.688629 69.666982,57.202343 L 72.381047,55.822311 C 53.251527,35.283873 29.697751,23.633827 5.6794049,14.191285 C 5.6740249,14.189167 5.6848049,14.147404 5.6794049,14.145286 C 5.5387649,14.102062 5.4057049,14.049731 5.2653949,14.007279 C -3.2164151,11.441146 -11.142665,10.284494 -19.115215,8.763153 C -10.879345,22.527325 1.3013949,32.750955 12.625579,43.770011 L 12.349573,42.619983 C 12.582463,43.155789 12.832658,43.692998 13.085588,44.230025 C 28.018122,56.642763 42.953742,63.979796 58.488704,69.714653 C 60.05451,67.626737 60.71945,64.875649 63.18082,63.458495 C 52.292165,76.435597 50.807488,99.7049 48.644463,111.11567 C 41.559737,129.23823 47.701694,137.3024 67.688932,157.43881" /></svg>